# Made in Blockbench 5.1.6
mtllib dc_metro_rail_1.mtl

o cube
v 1.115625 0.0921875 0.29687500000000006
v 1.115625 0.0921875 -0.29687500000000006
v 1.115625 0 0.29687500000000006
v 1.115625 0 -0.29687500000000006
v -1.115625 0.0921875 0.29687500000000006
v -1.115625 0.0921875 -0.29687500000000006
v -1.115625 0 0.29687500000000006
v -1.115625 0 -0.29687500000000006
vt 0.1083333333333346 0.9312499999999994
vt 0.1083333333333346 0.9722222222222215
vt 1.2644206669342061e-15 0.9722222222222215
vt 1.2644206669342061e-15 0.9312499999999994
vt 0.1083333333333346 0.9312499999999994
vt 0.1083333333333346 0.9722222222222215
vt 1.2644206669342061e-15 0.9722222222222215
vt 1.2644206669342061e-15 0.9312499999999994
vt 0.9916666666666674 0.8916666666666654
vt 0.9916666666666674 0.9999999999999988
vt 5.921189464667501e-16 0.9999999999999988
vt 5.921189464667501e-16 0.8916666666666654
vt 0.9916666666666674 0.8916666666666654
vt 0.9916666666666674 0.9999999999999988
vt 5.921189464667501e-16 0.9999999999999988
vt 5.921189464667501e-16 0.8916666666666654
vt 0.9916666666666674 0.9312499999999994
vt 0.9916666666666674 0.9722222222222215
vt 5.921189464667501e-16 0.9722222222222215
vt 5.921189464667501e-16 0.9312499999999994
vt 0.9916666666666674 0.9312499999999994
vt 0.9916666666666674 0.9722222222222215
vt 5.921189464667501e-16 0.9722222222222215
vt 5.921189464667501e-16 0.9312499999999994
vn 1 0 0
vn -1 0 0
vn 0 1 0
vn 0 -1 0
vn 0 0 1
vn 0 0 -1
usemtl m_60ac0cc1-648b-0ac2-7b0c-bf946f190d17
f 4/1/1 2/2/1 1/3/1 3/4/1
f 7/5/2 5/6/2 6/7/2 8/8/2
f 1/9/3 2/10/3 6/11/3 5/12/3
f 4/13/4 3/14/4 7/15/4 8/16/4
f 3/17/5 1/18/5 5/19/5 7/20/5
f 8/21/6 6/22/6 2/23/6 4/24/6
o cube
v 0.7859375 0.2640625 0.296875
v 0.7859375 0.2640625 -0.296875
v 0.8015625 0.09218749999999999 0.296875
v 0.8015625 0.09218749999999999 -0.296875
v 0.7171874999999999 0.2640625 0.296875
v 0.7171874999999999 0.2640625 -0.296875
v 0.7015624999999999 0.09218749999999999 0.296875
v 0.7015624999999999 0.09218749999999999 -0.296875
v 0.7171874999999999 0.23177083333333334 -0.296875
v 0.7171874999999999 0.23177083333333334 0.296875
v 0.7328124999999999 0.10260416666666666 -0.296875
v 0.7328124999999999 0.10260416666666666 0.296875
v 0.7859375 0.23177083333333334 0.296875
v 0.7703125 0.10260416666666666 0.296875
v 0.7859375 0.23177083333333334 -0.296875
v 0.7703125 0.10260416666666666 -0.296875
v 0.7703125 0.23176875 0.296875
v 0.7328124999999999 0.23176875 0.296875
v 0.7328124999999999 0.23176875 -0.296875
v 0.7703125 0.23176875 -0.296875
vt 0.076171875 0.978515625
vt 0.076171875 0.9856770833333334
vt 0.001953125 0.9856770833333334
vt 0.001953125 0.978515625
vt 0.07421875 0.978515625
vt 0.07421875 0.9856770833333334
vt 0 0.9856770833333334
vt 0 0.978515625
vt 0.012304687499999994 0.92578125
vt 0.012304687499999994 1
vt 0.0037109374999999972 1
vt 0.0037109374999999972 0.92578125
vt 0.012304687499999994 0.923828125
vt 0.012304687499999994 0.998046875
vt 0.0037109374999999972 0.998046875
vt 0.0037109374999999972 0.923828125
vt 0.012304687499999994 0.978515625
vt 0.012304687499999994 0.9856770833333334
vt 0.0037109374999999972 0.9856770833333334
vt 0.0037109374999999972 0.978515625
vt 0.011914062500000003 0.978515625
vt 0.011914062500000003 0.9856770833333334
vt 0.0033203125000000056 0.9856770833333334
vt 0.0033203125000000056 0.978515625
vt 0 1
vt 0 0.9928385416666666
vt 0.07421875 0.9928385416666666
vt 0.07421875 1
vt 0 0.9928385416666666
vt 0 0.9892578125
vt 0.07421875 0.9892578125
vt 0.07421875 0.9928385416666666
vt 0.0037109374999999972 1
vt 0.0037109374999999972 0.9928385416666666
vt 0.012304687499999994 0.9928385416666666
vt 0.012304687499999994 1
vt 0.0037109374999999972 0.9928385416666666
vt 0.0037109374999999972 0.9892578125
vt 0.012304687499999994 0.9892578125
vt 0.012304687499999994 0.9928385416666666
vt 0.001953125 1
vt 0.001953125 0.9928385416666666
vt 0.076171875 0.9928385416666666
vt 0.076171875 1
vt 0.001953125 0.9928385416666666
vt 0.001953125 0.9892578125
vt 0.076171875 0.9892578125
vt 0.076171875 0.9928385416666666
vt 0.0033203125000000056 1
vt 0.0033203125000000056 0.9928385416666666
vt 0.011914062500000003 0.9928385416666666
vt 0.011914062500000003 1
vt 0.0033203125000000056 0.9928385416666666
vt 0.0033203125000000056 0.9892578125
vt 0.011914062500000003 0.9892578125
vt 0.011914062500000003 0.9928385416666666
vt 0.012304687499999994 0.9856770833333334
vt 0.012304687499999994 0.9892578125
vt 0.0037109374999999972 0.9892578125
vt 0.0037109374999999972 0.9856770833333334
vt 0.07421875 0.9856770833333334
vt 0.07421875 0.9892578125
vt 0 0.9892578125
vt 0 0.9856770833333334
vt 0.011914062500000003 0.9856770833333334
vt 0.011914062500000003 0.9892578125
vt 0.0033203125000000056 0.9892578125
vt 0.0033203125000000056 0.9856770833333334
vt 0.076171875 0.9856770833333334
vt 0.076171875 0.9892578125
vt 0.001953125 0.9892578125
vt 0.001953125 0.9856770833333334
vn 0.31622776601683805 0.9486832980505138 0
vn -0.31622776601683805 0.9486832980505138 0
vn 0 1 0
vn 0 -1 0
vn 0 0 1
vn 0 0 -1
vn -1 0 0
vn -0.00013333333214902168 -0.9999999911111114 0
vn 0 0 1
vn 0 0 1
vn 1 0 0
vn 0.00013333333214902168 -0.9999999911111114 0
vn 0 0 -1
vn 0 0 -1
vn 0 0 1
vn -1 0 0
vn 0 0 -1
vn 1 0 0
usemtl m_b74b5523-85d4-9352-6450-3d650db0949d
f 12/25/7 24/26/7 22/27/7 11/28/7
f 15/29/8 20/30/8 19/31/8 16/32/8
f 9/33/9 10/34/9 14/35/9 13/36/9
f 12/37/10 11/38/10 15/39/10 16/40/10
f 11/41/11 22/42/11 20/43/11 15/44/11
f 16/45/12 19/46/12 24/47/12 12/48/12
f 14/49/13 17/50/13 18/51/13 13/52/13
f 17/53/14 27/54/14 26/55/14 18/56/14
f 13/57/15 18/58/15 21/59/15 9/60/15
f 18/61/16 26/62/16 25/63/16 21/64/16
f 9/65/17 21/66/17 23/67/17 10/68/17
f 21/69/18 25/70/18 28/71/18 23/72/18
f 10/73/19 23/74/19 17/75/19 14/76/19
f 23/77/20 28/78/20 27/79/20 17/80/20
f 22/81/21 25/82/21 26/83/21 20/84/21
f 20/85/22 26/86/22 27/87/22 19/88/22
f 19/89/23 27/90/23 28/91/23 24/92/23
f 24/93/24 28/94/24 25/95/24 22/96/24
o cube
v -0.7859375 0.2640625 0.296875
v -0.7859375 0.2640625 -0.296875
v -0.8015625 0.09218749999999999 0.296875
v -0.8015625 0.09218749999999999 -0.296875
v -0.7171874999999999 0.2640625 0.296875
v -0.7171874999999999 0.2640625 -0.296875
v -0.7015624999999999 0.09218749999999999 0.296875
v -0.7015624999999999 0.09218749999999999 -0.296875
v -0.7171874999999999 0.23177083333333334 -0.296875
v -0.7171874999999999 0.23177083333333334 0.296875
v -0.7328124999999999 0.10260416666666666 -0.296875
v -0.7328124999999999 0.10260416666666666 0.296875
v -0.7859375 0.23177083333333334 0.296875
v -0.7703125 0.10260416666666666 0.296875
v -0.7859375 0.23177083333333334 -0.296875
v -0.7703125 0.10260416666666666 -0.296875
v -0.7703125 0.23176875 0.296875
v -0.7328124999999999 0.23176875 0.296875
v -0.7328124999999999 0.23176875 -0.296875
v -0.7703125 0.23176875 -0.296875
vt 0.001953125 0.9856770833333334
vt 0.076171875 0.9856770833333334
vt 0.076171875 0.978515625
vt 0.001953125 0.978515625
vt 0 0.9856770833333334
vt 0.07421875 0.9856770833333334
vt 0.07421875 0.978515625
vt 0 0.978515625
vt 0.0037109374999999972 1
vt 0.012304687499999994 1
vt 0.012304687499999994 0.92578125
vt 0.0037109374999999972 0.92578125
vt 0.0037109374999999972 0.998046875
vt 0.012304687499999994 0.998046875
vt 0.012304687499999994 0.923828125
vt 0.0037109374999999972 0.923828125
vt 0.0037109374999999972 0.9856770833333334
vt 0.012304687499999994 0.9856770833333334
vt 0.012304687499999994 0.978515625
vt 0.0037109374999999972 0.978515625
vt 0.0033203125000000056 0.9856770833333334
vt 0.011914062500000003 0.9856770833333334
vt 0.011914062500000003 0.978515625
vt 0.0033203125000000056 0.978515625
vt 0.07421875 0.9928385416666666
vt 0 0.9928385416666666
vt 0 1
vt 0.07421875 1
vt 0.07421875 0.9892578125
vt 0 0.9892578125
vt 0 0.9928385416666666
vt 0.07421875 0.9928385416666666
vt 0.012304687499999994 0.9928385416666666
vt 0.0037109374999999972 0.9928385416666666
vt 0.0037109374999999972 1
vt 0.012304687499999994 1
vt 0.012304687499999994 0.9892578125
vt 0.0037109374999999972 0.9892578125
vt 0.0037109374999999972 0.9928385416666666
vt 0.012304687499999994 0.9928385416666666
vt 0.076171875 0.9928385416666666
vt 0.001953125 0.9928385416666666
vt 0.001953125 1
vt 0.076171875 1
vt 0.076171875 0.9892578125
vt 0.001953125 0.9892578125
vt 0.001953125 0.9928385416666666
vt 0.076171875 0.9928385416666666
vt 0.011914062500000003 0.9928385416666666
vt 0.0033203125000000056 0.9928385416666666
vt 0.0033203125000000056 1
vt 0.011914062500000003 1
vt 0.011914062500000003 0.9892578125
vt 0.0033203125000000056 0.9892578125
vt 0.0033203125000000056 0.9928385416666666
vt 0.011914062500000003 0.9928385416666666
vt 0.0037109374999999972 0.9892578125
vt 0.012304687499999994 0.9892578125
vt 0.012304687499999994 0.9856770833333334
vt 0.0037109374999999972 0.9856770833333334
vt 0 0.9892578125
vt 0.07421875 0.9892578125
vt 0.07421875 0.9856770833333334
vt 0 0.9856770833333334
vt 0.0033203125000000056 0.9892578125
vt 0.011914062500000003 0.9892578125
vt 0.011914062500000003 0.9856770833333334
vt 0.0033203125000000056 0.9856770833333334
vt 0.001953125 0.9892578125
vt 0.076171875 0.9892578125
vt 0.076171875 0.9856770833333334
vt 0.001953125 0.9856770833333334
vn -0.31622776601683805 0.9486832980505138 0
vn 0.31622776601683805 0.9486832980505138 0
vn 0 1 0
vn 0 -1 0
vn 0 0 1
vn 0 0 -1
vn 1 0 0
vn 0.00013333333214902168 -0.9999999911111114 0
vn 0 0 1
vn 0 0 1
vn -1 0 0
vn -0.00013333333214902168 -0.9999999911111114 0
vn 0 0 -1
vn 0 0 -1
vn 0 0 1
vn 1 0 0
vn 0 0 -1
vn -1 0 0
usemtl m_b74b5523-85d4-9352-6450-3d650db0949d
f 42/97/25 44/98/25 32/99/25 31/100/25
f 39/101/26 40/102/26 35/103/26 36/104/26
f 34/105/27 30/106/27 29/107/27 33/108/27
f 35/109/28 31/110/28 32/111/28 36/112/28
f 40/113/29 42/114/29 31/115/29 35/116/29
f 44/117/30 39/118/30 36/119/30 32/120/30
f 38/121/31 37/122/31 34/123/31 33/124/31
f 46/125/32 47/126/32 37/127/32 38/128/32
f 41/129/33 38/130/33 33/131/33 29/132/33
f 45/133/34 46/134/34 38/135/34 41/136/34
f 43/137/35 41/138/35 29/139/35 30/140/35
f 48/141/36 45/142/36 41/143/36 43/144/36
f 37/145/37 43/146/37 30/147/37 34/148/37
f 47/149/38 48/150/38 43/151/38 37/152/38
f 46/153/39 45/154/39 42/155/39 40/156/39
f 47/157/40 46/158/40 40/159/40 39/160/40
f 48/161/41 47/162/41 39/163/41 44/164/41
f 45/165/42 48/166/42 44/167/42 42/168/42