# Made in Blockbench 5.1.6
mtllib dc_metro_tunnel.mtl

o mesh
v -1.836573125 0.663426875 -0.03125
v -1.356799375 0.238599375 -0.03125
v -1.896273125 0.603726875 -0.03125
v -1.087339375 0 -0.03125
v -1.00426875 0 -0.03125
v 2.5 0 -0.03125
v 1.280024375 0.186636875 -0.03125
v 2.5 1.012340625 -0.03125
v 1.00426875 0 -0.03125
v -2.5 0 -0.03125
v 1.356799375 0.238599375 -0.03125
v 1.869341875 0.6924425 -0.03125
v 1.762466875 0.51316375 -0.03125
v 2.03788 0.975159375 -0.03125
v 2.5 1.750349375 -0.03125
v 2.20369125 0.9885 -0.03125
v 1.876506875 0.70446125 -0.03125
v 2.24172625 1.317104375 -0.03125
v 2.4375 2.051438125 -0.03125
v 2.4375 1.645508125 -0.03125
v 2.5 5 -0.03125
v 2.306518125 3.31486625 -0.03125
v 1.9925475 4.4925475 -0.03125
v 2.5 2.28587125 -0.03125
v 2.4375 2.108601875 -0.03125
v 2.4375 4.455655625 -0.03125
v 2.4375 2.823561875 -0.03125
v 2.490206875 2.625863125 -0.03125
v 2.24172625 3.557895625 -0.03125
v 1.999353125 3.9644675 -0.03125
v 1.869341875 4.1825575 -0.03125
v 1.99801125 4.068624375 -0.03125
v 1.79958 4.29958 -0.03125
v 1.803809375 4.240585 -0.03125
v 1.770276875 4.270276875 -0.03125
v -1.84626625 0.65373375 -0.03125
v -1.869341875 0.6924425 -0.03125
v -2.138801875 0.9310425 -0.03125
v -2.24172625 1.317104375 -0.03125
v -2.265651875 3.4681525 -0.03125
v -2.27169125 3.507630625 -0.03125
v -2.24172625 3.557895625 -0.03125
v -2.5 1.750349375 -0.03125
v -2.24650875 1.335043125 -0.03125
v -2.5 2.28587125 -0.03125
v -2.5 1.25087375 -0.03125
v -2.4375 2.13302375 -0.03125
v -2.4375 2.051438125 -0.03125
v -2.4375 4.591460625 -0.03125
v -2.4375 2.823561875 -0.03125
v -2.5 5 -0.03125
v -2.138801875 3.9439575 -0.03125
v -1.869341875 4.182556875 -0.03125
v -1.853428125 4.19664875 -0.03125
v -1.853920625 4.29993875 -0.03125
v -1.356799375 4.636400625 -0.03125
v -1.85726 5 -0.03125
v -1.8534875 4.2091525 -0.03125
v -1.867250625 4.184409375 -0.03125
v -0.946171875 5 -0.03125
v -0.819581875 5 -0.03125
v -1.356799375 4.6364 -0.03125
v 1.179588125 4.756340625 -0.03125
v 1.214145 4.7627175 -0.03125
v 1.356799375 4.6364 -0.03125
v -0.98044625 4.875 -0.03125
v -1.00426875 4.875 -0.03125
v 1.822614375 4.875 -0.03125
v 1.00426875 4.875 -0.03125
v 1.8217275 4.3217275 -0.03125
v 1.716226875 4.318136875 -0.03125
v -2.5 0 0.03125
v -1.087339375 0 0.03125
v -2.5 1.25087375 0.03125
v -1.00426875 0 0.03125
v -1.356799375 0.238599375 0.03125
v -2.150053125 1.163325625 0.03125
v -2.24172625 1.317104375 0.03125
v -2.20435 1.176909375 0.03125
v -1.869341875 0.6924425 0.03125
v -1.9062125 0.754291875 0.03125
v -2.5 1.750349375 0.03125
v -2.5 2.28587125 0.03125
v -2.336156875 3.2036925 0.03125
v -2.24172625 3.557895625 0.03125
v -2.35164625 3.37350875 0.03125
v 2.5 0 0.03125
v 1.4079325 0.2732075 0.03125
v 1.00426875 0 0.03125
v -2.4375 2.051438125 0.03125
v -2.4375 2.08538625 0.03125
v -2.4375 4.31477625 0.03125
v -2.4375 2.823561875 0.03125
v -2.5 5 0.03125
v -1.9925475 4.4925475 0.03125
v -2.0190975 3.931346875 0.03125
v -1.869341875 4.182556875 0.03125
v -2.01324125 4.055138125 0.03125
v -1.79958 4.29958 0.03125
v -1.869341875 4.1825575 0.03125
v -1.8064325 4.238261875 0.03125
v -1.770276875 4.270276875 0.03125
v 1.836573125 0.663426875 0.03125
v 1.3985375 0.275558125 0.03125
v 1.39411625 0.271643125 0.03125
v 1.356799375 0.238599375 0.03125
v 1.00426875 0 -0.012553125
v -1.00426875 0 0.012553125
v 1.00426875 0 0.02327
v 1.00426875 0 -0.0005325
v -1.356799375 4.636400625 0.03125
v -1.8217275 4.3217275 0.03125
v -0.946171875 5 0.03125
v -0.819581875 5 0.03125
v 2.5 1.25087375 0.03125
v -1.00426875 4.875 0.03125
v -0.98243375 4.875 0.03125
v 1.768510625 4.875 0.03125
v 1.00426875 4.875 0.03125
v 1.158328125 4.770729375 0.03125
v 1.869341875 0.6924425 0.03125
v 2.138801875 0.9310425 0.03125
v 2.24172625 1.317104375 0.03125
v 1.356799375 4.6364 0.03125
v 1.197530625 4.77742875 0.03125
v 2.5 1.750349375 0.03125
v 2.24650875 1.335043125 0.03125
v 2.4375 1.647953125 0.03125
v 2.4375 2.051438125 0.03125
v 2.5 2.28587125 0.03125
v 2.4375 2.13302375 0.03125
v 2.4375 4.591460625 0.03125
v 2.265651875 3.4681525 0.03125
v 2.4375 2.823561875 0.03125
v 0.94554125 4.9147475 0.03125
v 2.5 5 0.03125
v 1.98065375 3.995835625 0.03125
v 2.089181875 3.987895 0.03125
v 1.869341875 4.1825575 0.03125
v 2.342330625 3.969373125 0.03125
v 2.1278425 3.98506625 0.03125
v 2.49084875 2.623454375 0.03125
v 2.10979125 3.7792125 0.03125
v 2.24172625 3.557895625 0.03125
v 1.762466875 4.36183625 0.03125
v 1.356799375 4.636400625 0.03125
v -1.576460625 0.43310375 0.03125
v -1.649680625 0.49793875 -0.03125
v -1.70459625 0.546564375 0.03125
v -1.00426875 0 -0.03125
v -1.155353125 0.102256875 0.03125
v -1.205715 0.1363425 -0.03125
v -1.243485625 0.161906875 0.03125
v -2.082133125 1.049391875 -0.03125
v -2.12203125 1.11632 0.03125
v -2.028935 0.960155 0.03125
v -2.353596875 1.736723125 -0.03125
v -2.3745725 1.815401875 0.03125
v -2.325629375 1.63181875 0.03125
v -2.4375 2.492651875 -0.03125
v -2.4375 2.575379375 0.03125
v -2.4375 2.382348125 0.03125
v -2.353596875 3.138276875 0.03125
v -2.325629375 3.24318125 -0.03125
v -2.304653125 3.32186 0.03125
v -2.24172625 3.557895625 -0.03125
v -2.24172625 3.557895625 0.03125
v -2.082133125 3.8256075 0.03125
v -2.028935 3.914845 -0.03125
v -1.989036875 3.981773125 0.03125
v -1.649680625 4.37706125 0.03125
v -1.576460625 4.44189625 -0.03125
v -1.521545 4.4905225 0.03125
v -1.356799375 4.6364 0.03125
v -1.205715 4.7386575 0.03125
v -1.155353125 4.772743125 -0.03125
v -1.1175825 4.7983075 0.03125
v 1.155353125 0.102256875 -0.03125
v 1.1175825 0.0766925 0.03125
v 1.205715 0.1363425 0.03125
v 1.00426875 0 -0.03125
v 1.649680625 0.49793875 0.03125
v 1.576460625 0.43310375 -0.03125
v 1.521545 0.3844775 0.03125
v 2.082133125 1.049391875 0.03125
v 2.028935 0.960155 -0.03125
v 1.989036875 0.893226875 0.03125
v 2.082133125 1.049391875 0.03125
v 2.325629375 1.63181875 -0.03125
v 2.304653125 1.55314 0.03125
v 2.353596875 1.736723125 0.03125
v -0.143466875 4.875 0.03125
v 0.143466875 4.875 -0.03125
v 0.3586675 4.875 0.03125
v 1.205715 4.7386575 -0.03125
v 1.243485625 4.713093125 0.03125
v 1.155353125 4.772743125 0.03125
v 2.4375 2.382348125 -0.03125
v 2.4375 2.299620625 0.03125
v 2.4375 2.492651875 0.03125
v 2.325629375 3.24318125 0.03125
v 2.353596875 3.138276875 -0.03125
v 2.3745725 3.059598125 0.03125
v 1.869341875 4.182556875 -0.03125
v 2.028935 3.914845 0.03125
v 1.869341875 4.182556875 0.03125
v 2.082133125 3.8256075 -0.03125
v 2.082133125 3.8256075 -0.03125
v 2.12203125 3.75868 0.03125
v 2.24172625 3.557895625 -0.03125
v 2.24172625 3.557895625 0.03125
v 1.576460625 4.44189625 0.03125
v 1.649680625 4.37706125 -0.03125
v 1.70459625 4.328435625 0.03125
vt 0 1
vt 0 1
vt 0 1
vt 0 1
vt 0 1
vt 0 1
vt 0 1
vt 0 1
vt 0 1
vt 0 1
vt 0 1
vt 0 1
vt 0 1
vt 0 1
vt 0 1
vt 0 1
vt 0 1
vt 0 1
vt 0 1
vt 0 1
vt 0 1
vt 0 1
vt 0 1
vt 0 1
vt 0 1
vt 0 1
vt 0 1
vt 0 1
vt 0 1
vt 0 1
vt 0 1
vt 0 1
vt 0 1
vt 0 1
vt 0 1
vt 0 1
vt 0 1
vt 0 1
vt 0 1
vt 0 1
vt 0 1
vt 0 1
vt 0 1
vt 0 1
vt 0 1
vt 0 1
vt 0 1
vt 0 1
vt 0 1
vt 0 1
vt 0 1
vt 0 1
vt 0 1
vt 0 1
vt 0 1
vt 0 1
vt 0 1
vt 0 1
vt 0 1
vt 0 1
vt 0 1
vt 0 1
vt 0 1
vt 0 1
vt 0 1
vt 0 1
vt 0 1
vt 0 1
vt 0 1
vt 0 1
vt 0 1
vt 0 1
vt 0 1
vt 0 1
vt 0 1
vt 0 1
vt 0 1
vt 0 1
vt 0 1
vt 0 1
vt 0 1
vt 0 1
vt 0 1
vt 0 1
vt 0 1
vt 0 1
vt 0 1
vt 0 1
vt 0 1
vt 0 1
vt 0 1
vt 0 1
vt 0 1
vt 0 1
vt 0 1
vt 0 1
vt 0 1
vt 0 1
vt 0 1
vt 0 1
vt 0 1
vt 0 1
vt 0 1
vt 0 1
vt 0 1
vt 0 1
vt 0 1
vt 0 1
vt 0 1
vt 0 1
vt 0 1
vt 0 1
vt 0 1
vt 0 1
vt 0 1
vt 0 1
vt 0 1
vt 0 1
vt 0 1
vt 0 1
vt 0 1
vt 0 1
vt 0 1
vt 0 1
vt 0 1
vt 0 1
vt 0 1
vt 0 1
vt 0 1
vt 0 1
vt 0 1
vt 0 1
vt 0 1
vt 0 1
vt 0 1
vt 0 1
vt 0 1
vt 0 1
vt 0 1
vt 0 1
vt 0 1
vt 0 1
vt 0 1
vt 0 1
vt 0 1
vt 0 1
vt 0 1
vt 0 1
vt 0 1
vt 0 1
vt 0 1
vt 0 1
vt 0 1
vt 0 1
vt 0 1
vt 0 1
vt 0 1
vt 0 1
vt 0 1
vt 0 1
vt 0 1
vt 0 1
vt 0 1
vt 0 1
vt 0 1
vt 0 1
vt 0 1
vt 0 1
vt 0 1
vt 0 1
vt 0 1
vt 0 1
vt 0 1
vt 0 1
vt 0 1
vt 0 1
vt 0 1
vt 0 1
vt 0 1
vt 0 1
vt 0 1
vt 0 1
vt 0 1
vt 0 1
vt 0 1
vt 0 1
vt 0 1
vt 0 1
vt 0 1
vt 0 1
vt 0 1
vt 0 1
vt 0 1
vt 0 1
vt 0 1
vt 0 1
vt 0 1
vt 0 1
vt 0 1
vt 0 1
vt 0 1
vt 0 1
vt 0 1
vt 0 1
vt 0 1
vt 0 1
vt 0 1
vt 0 1
vt 0 1
vt 0 1
vt 0 1
vt 0 1
vt 0 1
vt 0 1
vt 0 1
vt 0 1
vt 0 1
vt 0 1
vt 0 1
vt 0 1
vt 0 1
vt 0 1
vt 0 1
vt 0 1
vt 0 1
vt 0 1
vt 0 1
vt 0 1
vt 0 1
vt 0 1
vt 0 1
vt 0 1
vt 0 1
vt 0 1
vt 0 1
vt 0 1
vt 0 1
vt 0 1
vt 0 1
vt 0 1
vt 0 1
vt 0 1
vt 0 1
vt 0 1
vt 0 1
vt 0 1
vt 0 1
vt 0 1
vt 0 1
vt 0 1
vt 0 1
vt 0 1
vt 0 1
vt 0 1
vt 0 1
vt 0 1
vt 0 1
vt 0 1
vt 0 1
vt 0 1
vt 0 1
vt 0 1
vt 0 1
vt 0 1
vt 0 1
vt 0 1
vt 0 1
vt 0 1
vt 0 1
vt 0 1
vt 0 1
vt 0 1
vt 0 1
vt 0 1
vt 0 1
vt 0 1
vt 0 1
vt 0 1
vt 0 1
vt 0 1
vt 0 1
vt 0 1
vt 0 1
vt 0 1
vt 0 1
vt 0 1
vt 0 1
vt 0 1
vt 0 1
vt 0 1
vt 0 1
vt 0 1
vt 0 1
vt 0 1
vt 0 1
vt 0 1
vt 0 1
vt 0 1
vt 0 1
vt 0 1
vt 0 1
vt 0 1
vt 0 1
vt 0 1
vt 0 1
vt 0 1
vt 0 1
vt 0 1
vt 0 1
vt 0 1
vt 0 1
vt 0 1
vt 0 1
vt 0 1
vt 0 1
vt 0 1
vt 0 1
vt 0 1
vt 0 1
vt 0 1
vt 0 1
vt 0 1
vt 0 1
vt 0 1
vt 0 1
vt 0 1
vt 0 1
vt 0 1
vt 0 1
vt 0 1
vt 0 1
vt 0 1
vt 0 1
vt 0 1
vt 0 1
vt 0 1
vt 0 1
vt 0 1
vt 0 1
vt 0 1
vt 0 1
vt 0 1
vt 0 1
vt 0 1
vt 0 1
vt 0 1
vt 0 1
vt 0 1
vt 0 1
vt 0 1
vt 0 1
vt 0 1
vt 0 1
vt 0 1
vt 0 1
vt 0 1
vt 0 1
vt 0 1
vt 0 1
vt 0 1
vt 0 1
vt 0 1
vt 0 1
vt 0 1
vt 0 1
vt 0 1
vt 0 1
vt 0 1
vt 0 1
vt 0 1
vt 0 1
vt 0 1
vt 0 1
vt 0 1
vt 0 1
vt 0 1
vt 0 1
vt 0 1
vt 0 1
vt 0 1
vt 0 1
vt 0 1
vt 0 1
vt 0 1
vt 0 1
vt 0 1
vt 0 1
vt 0 1
vt 0 1
vt 0 1
vt 0 1
vt 0 1
vt 0 1
vt 0 1
vt 0 1
vt 0 1
vt 0 1
vt 0 1
vt 0 1
vt 0 1
vt 0 1
vt 0 1
vt 0 1
vt 0 1
vt 0 1
vt 0 1
vt 0 1
vt 0 1
vt 0 1
vt 0 1
vt 0 1
vt 0 1
vt 0 1
vt 0 1
vt 0 1
vt 0 1
vt 0 1
vt 0 1
vt 0 1
vt 0 1
vt 0 1
vt 0 1
vt 0 1
vt 0 1
vt 0 1
vt 0 1
vt 0 1
vt 0 1
vt 0 1
vt 0 1
vt 0 1
vt 0 1
vt 0 1
vt 0 1
vt 0 1
vt 0 1
vt 0 1
vt 0 1
vt 0 1
vt 0 1
vt 0 1
vt 0 1
vt 0 1
vt 0 1
vt 0 1
vt 0 1
vt 0 1
vt 0 1
vt 0 1
vt 0 1
vt 0 1
vt 0 1
vt 0 1
vt 0 1
vt 0 1
vt 0 1
vt 0 1
vt 0 1
vt 0 1
vt 0 1
vt 0 1
vt 0 1
vt 0 1
vt 0 1
vt 0 1
vt 0 1
vt 0 1
vt 0 1
vt 0 1
vt 0 1
vt 0 1
vt 0 1
vt 0 1
vt 0 1
vt 0 1
vt 0 1
vt 0 1
vt 0 1
vt 0 1
vt 0 1
vt 0 1
vt 0 1
vt 0 1
vt 0 1
vt 0 1
vt 0 1
vt 0 1
vt 0 1
vt 0 1
vt 0 1
vt 0 1
vt 0 1
vt 0 1
vt 0 1
vt 0 1
vt 0 1
vt 0 1
vt 0 1
vt 0 1
vt 0 1
vt 0 1
vt 0 1
vt 0 1
vt 0 1
vt 0 1
vt 0 1
vt 0 1
vt 0 1
vt 0 1
vt 0 1
vt 0 1
vt 0 1
vt 0 1
vt 0 1
vt 0 1
vt 0 1
vt 0 1
vt 0 1
vt 0 1
vt 0 1
vt 0 1
vt 0 1
vt 0 1
vt 0 1
vt 0 1
vt 0 1
vt 0 1
vt 0 1
vt 0 1
vt 0 1
vt 0 1
vt 0 1
vt 0 1
vt 0 1
vt 0 1
vt 0 1
vt 0 1
vt 0 1
vt 0 1
vt 0 1
vt 0 1
vt 0 1
vt 0 1
vt 0 1
vt 0 1
vt 0 1
vt 0 1
vt 0 1
vt 0 1
vt 0 1
vt 0 1
vt 0 1
vt 0 1
vt 0 1
vt 0 1
vt 0 1
vt 0 1
vt 0 1
vt 0 1
vt 0 1
vt 0 1
vt 0 1
vt 0 1
vt 0 1
vt 0 1
vt 0 1
vt 0 1
vt 0 1
vt 0 1
vt 0 1
vt 0 1
vt 0 1
vt 0 1
vt 0 1
vt 0 1
vt 0 1
vt 0 1
vt 0 1
vt 0 1
vt 0 1
vt 0 1
vt 0 1
vt 0 1
vt 0 1
vt 0 1
vt 0 1
vt 0 1
vt 0 1
vt 0 1
vt 0 1
vt 0 1
vt 0 1
vt 0 1
vt 0 1
vt 0 1
vt 0 1
vt 0 1
vt 0 1
vt 0 1
vt 0 1
vt 0 1
vt 0 1
vt 0 1
vt 0 1
vt 0 1
vt 0 1
vt 0 1
vt 0 1
vt 0 1
vt 0 1
vt 0 1
vt 0 1
vt 0 1
vt 0 1
vt 0 1
vt 0 1
vt 0 1
vt 0 1
vt 0 1
vt 0 1
vt 0 1
vt 0 1
vt 0 1
vt 0 1
vt 0 1
vt 0 1
vt 0 1
vt 0 1
vt 0 1
vt 0 1
vt 0 1
vt 0 1
vt 0 1
vt 0 1
vt 0 1
vt 0 1
vt 0 1
vt 0 1
vt 0 1
vt 0 1
vt 0 1
vt 0 1
vt 0 1
vt 0 1
vt 0 1
vt 0 1
vt 0 1
vt 0 1
vt 0 1
vt 0 1
vt 0 1
vt 0 1
vt 0 1
vt 0 1
vt 0 1
vt 0 1
vt 0 1
vt 0 1
vt 0 1
vt 0 1
vt 0 1
vt 0 1
vt 0 1
vt 0 1
vt 0 1
vt 0 1
vt 0 1
vt 0 1
vt 0 1
vt 0 1
vt 0 1
vt 0 1
vt 0 1
vt 0 1
vt 0 1
vt 0 1
vt 0 1
vt 0 1
vt 0 1
vt 0 1
vt 0 1
vt 0 1
vt 0 1
vt 0 1
vt 0 1
vt 0 1
vt 0 1
vn 0 0 -1
vn 0 0 -1
vn 0 0 -1
vn 0 0 -1
vn 0 0 -1
vn 0 0 -1
vn 0 0 -1
vn 0 0 -1
vn 0 0 -1
vn 0 0 -1
vn 0 0 -1
vn 0 0 -1
vn 0 0 -1
vn 0 0 -1
vn 0 0 -1
vn 0 0 -1
vn 0 0 -1
vn 0 0 -1
vn 0 0 -1
vn 0 0 -1
vn 0 0 -1
vn 0 0 -1
vn 0 0 -1
vn 0 0 -1
vn 0 0 -1
vn 0 0 -1
vn 0 0 -1
vn 0 0 -1
vn 0 0 -1
vn 0 0 -1
vn 0 0 -1
vn 0 0 -1
vn 0 0 -1
vn 0 0 -1
vn 0 0 -1
vn 0 0 -1
vn 0 0 -1
vn 0 0 -1
vn 0 0 -1
vn 0 0 -1
vn 0 0 -1
vn 0 0 -1
vn 0 0 -1
vn 0 0 -1
vn 0 0 -1
vn 0 0 -1
vn 0 0 -1
vn 0 0 -1
vn 0 0 -1
vn 0 0 -1
vn 0 0 -1
vn 0 0 -1
vn 0 0 -1
vn 0 0 -1
vn 0 0 -1
vn 0 0 -1
vn 0 0 -1
vn 0 0 -1
vn 0 0 -1
vn 0 0 -1
vn 0 0 -1
vn 0 0 1
vn 0 0 1
vn 0 0 1
vn 0 0 1
vn 0 0 1
vn 0 0 1
vn 0 0 1
vn 0 0 1
vn 0 0 1
vn 0 0 1
vn 0 0 1
vn 0 0 1
vn 0 0 1
vn 0 0 1
vn 0 0 1
vn 0 0 1
vn 0 0 1
vn 0 0 1
vn 0 0 1
vn 0 0 1
vn 0 0 1
vn 0 0 1
vn 0 0 1
vn 0 0 1
vn 0 0 1
vn 0 -1 0
vn 0 -1 0
vn 0 -1 0
vn 0 -1 0
vn 0 -1 0
vn 0 -1 0
vn 0 -1 0
vn 0 -1 0
vn 0 0 1
vn 0 0 1
vn 0 0 1
vn 0 0 1
vn 0 0 1
vn 0 0 1
vn 0 0 1
vn 0 0 1
vn 0 0 1
vn 0 0 1
vn 0 0 1
vn 0 0 1
vn 0 0 1
vn 0 0 1
vn 0 0 1
vn 0 0 1
vn 0 0 1
vn 0 0 1
vn 0 0 1
vn 0 0 1
vn 0 0 1
vn 0 0 1
vn 0 0 1
vn 0 0 1
vn 0 0 1
vn 0 0 1
vn 0 0 1
vn 0 0 1
vn 0 0 1
vn 0 0 1
vn 0 0 1
vn 0 0 1
vn 0 0 1
vn 0 0 1
vn 1 0 0
vn 1 0 0
vn 0 1 0
vn 0 1 0
vn -1 0 0
vn -1 0 0
vn 0.6629345223344022 0.7486773798487959 0
vn 0.662935349465703 0.7486766474265696 0.000005186368364917531
vn 0.6629339715198271 0.748677867537089 0.000008066353365750739
vn 0.6629348291768041 0.7486771081476458 0
vn 0.662933328297833 0.7486784371024329 0.000007058058827115225
vn 0.5605076771736085 0.8281492279954417 0
vn 0.560506882058575 0.828149766139628 -0.000002802534411058457
vn 0.5605089112939324 0.8281483927009633 -0.000005186704214328615
vn 0.5605053037629392 0.8281508343614801 0
vn 0.5605076771625763 0.8281492279791416 -0.000006274180650067708
vn 0.8589520917425729 0.5120559579348087 -0.0000058757487820842786
vn 0.8589533291153651 0.5120538823225846 0
vn 0.8589536231117055 0.512053389148693 -0.000002147384056991275
vn 0.858953623113686 0.5120533891498736 0
vn 0.8589527877442295 0.5120547903889151 -0.00000813517486356116
vn 0.9662511534238262 0.2576018410374951 -0.00000110400788881538
vn 0.9662507348732795 0.2576034109961422 0
vn 0.9662508940811309 0.2576028138075747 -0.000002415627233280509
vn 0.9662507667468674 0.2576032914407173 0
vn 0.9662508224858818 0.257603082365265 0.0000011276116445030828
vn 1 0 0
vn 1 0 0
vn 1 0 0
vn 1 0 0
vn 1 0 0
vn 0.9662508940839502 -0.25760281380832656 0
vn 0.9662509179892069 -0.2576027241408389 -4.836068659027013e-7
vn 0.966250334613745 -0.25760491229654836 -0.0000044174094312745414
vn 0.9662512019334054 -0.2576016590828745 0
vn 0.966250766725804 -0.25760329143510197 -0.000006602872520919768
vn 0.8589530973232335 -0.5120542711459634 0
vn 0.8589527877687496 -0.5120547904035324 0.0000030146269573947705
vn 0.8589529931113647 -0.5120544459444492 0.0000036812271099989555
vn 0.8589526280597148 -0.5120550583182529 0
vn 0.8589530973181885 -0.512054271142955 0.00000342751842013132
vn 0.6629345223344008 -0.748677379848797 0
vn 0.6629353494657027 -0.74867664742657 -0.000005186368371019242
vn 0.66293601842206 -0.7486760550894865 -0.000003788205822474468
vn 0.6629332371476515 -0.7486785178465694 0
vn 0.6629333283142844 -0.7486784371210122 4.28725542423267e-7
vn 0.5605100267253766 -0.8281476377677579 0
vn 0.5605086442190053 -0.8281485734649474 0.000004872914662175863
vn 0.5605089112939284 -0.8281483927009661 0.000005186704216969309
vn 0.5605053037629402 -0.8281508343614793 0
vn 0.5605076771625768 -0.8281492279791411 0.000006274180648698458
vn -0.5605089112939314 0.8281483927009641 0.000005186704213187568
vn -0.5605053037629398 0.8281508343614794 0
vn -0.5605076771625763 0.8281492279791416 0.0000062741806480899076
vn -0.5605076771736085 0.8281492279954417 0
vn -0.560506882058575 0.828149766139628 0.000002802534411058457
vn -0.6629333283143454 0.7486784371210811 0
vn -0.6629344539448924 0.748677440372669 -0.000007058059470803
vn -0.6629360184220587 0.7486760550894874 -0.0000037882058194337584
vn -0.6629348291768042 0.7486771081476457 0
vn -0.662934522333712 0.7486773798480164 -0.0000014429791626234497
vn -0.858953623113686 0.5120533891498736 0
vn -0.8589527877442295 0.5120547903889151 0.00000813517486356116
vn -0.8589520917425729 0.5120559579348087 0.0000058757487820842786
vn -0.8589533291153651 0.5120538823225846 0
vn -0.8589536231117055 0.512053389148693 0.000002147384056991275
vn -0.9662503346137451 0.25760491229654875 -0.000004417409429996299
vn -0.9662512019334054 0.2576016590828745 0
vn -0.966250766725804 0.2576032914351018 -0.000006602872520238032
vn -0.96625089408395 0.25760281380832634 0
vn -0.9662509179892069 0.25760272414083907 -4.836068643048934e-7
vn 0 -1 0
vn 0 -1 0
vn 0 -1 0
vn 0 -1 0
vn 0 -1 0
vn -0.5605089112939293 -0.8281483927009653 -0.000005186704218110356
vn -0.5605084365008922 -0.8281487140673016 0
vn -0.5605100267204239 -0.8281476377604404 -0.000004203825201810398
vn -0.560507677173609 -0.8281492279954412 0
vn -0.5605068820585739 -0.828149766139629 -0.000002802534417048907
vn -1 0 0
vn -1 0 0
vn -1 0 0
vn -1 0 0
vn -1 0 0
vn -0.9662507667468672 -0.2576032914407174 0
vn -0.9662508224858818 -0.2576030823652649 0.000001127611646164805
vn -0.9662511534238262 -0.2576018410374948 -0.000001104007887500608
vn -0.9662507348732795 -0.2576034109961422 0
vn -0.9662508940811309 -0.25760281380757494 -0.00000241562723259878
vn -0.8589530973232339 -0.5120542711459628 0
vn -0.85895278776875 -0.5120547904035319 -0.000003014626958329831
vn -0.8589520917571556 -0.5120559579435017 -7.551892007288449e-7
vn -0.8589533291153651 -0.5120538823225846 0
vn -0.8589530973220024 -0.5120542711452295 0.0000016930242921542967
vn -0.6629333283143454 -0.7486784371210811 0
vn -0.6629344539448929 -0.7486774403726685 0.000007058059474634303
vn -0.6629339715198276 -0.7486778675370888 0.000008066353370291547
vn -0.6629364211969633 -0.748675698450646 0
vn -0.6629345223079695 -0.7486773798189471 0.000008929752962666022
usemtl m_bcbf4210-acc6-3d37-c3bb-51b9fc50e555
f 1/1/1 2/2/1 3/3/1
f 4/4/2 2/5/2 5/6/2
f 6/7/3 7/8/3 8/9/3
f 6/10/4 9/11/4 7/12/4
f 4/13/5 3/14/5 2/15/5
f 4/16/6 10/17/6 3/18/6
f 11/19/7 12/20/7 13/21/7
f 8/22/8 14/23/8 15/24/8
f 16/25/9 12/26/9 17/27/9
f 16/28/10 17/29/10 14/30/10
f 18/31/11 19/32/11 20/33/11
f 21/34/12 22/35/12 23/36/12
f 16/37/13 13/38/13 12/39/13
f 16/40/14 8/41/14 13/42/14
f 24/43/15 19/44/15 25/45/15
f 26/46/16 27/47/16 22/48/16
f 15/49/17 20/50/17 19/51/17
f 24/52/18 15/53/18 19/54/18
f 26/55/19 28/56/19 27/57/19
f 21/58/20 24/59/20 26/60/20
f 23/61/21 29/62/21 30/63/21
f 30/64/22 31/65/22 32/66/22
f 25/67/23 27/68/23 28/69/23
f 24/70/24 25/71/24 28/72/24
f 33/73/25 31/74/25 34/75/25
f 33/76/26 34/77/26 35/78/26
f 33/79/27 32/80/27 31/81/27
f 33/82/28 23/83/28 32/84/28
f 1/85/29 36/86/29 37/87/29
f 37/88/30 38/89/30 39/90/30
f 40/91/31 41/92/31 42/93/31
f 43/94/32 44/95/32 39/96/32
f 43/97/33 45/98/33 44/99/33
f 46/100/34 37/101/34 36/102/34
f 10/103/35 46/104/35 36/105/35
f 45/106/36 47/107/36 48/108/36
f 49/109/37 40/110/37 50/111/37
f 46/112/38 39/113/38 38/114/38
f 46/115/39 43/116/39 39/117/39
f 45/118/40 49/119/40 47/120/40
f 45/121/41 51/122/41 49/123/41
f 42/124/42 52/125/42 53/126/42
f 54/127/43 55/128/43 56/129/43
f 51/130/44 42/131/44 41/132/44
f 51/133/45 57/134/45 42/135/45
f 58/136/46 59/137/46 53/138/46
f 58/139/47 54/140/47 59/141/47
f 58/142/48 53/143/48 52/144/48
f 57/145/49 58/146/49 52/147/49
f 60/148/50 61/149/50 62/150/50
f 63/151/51 64/152/51 65/153/51
f 57/154/52 56/155/52 55/156/52
f 57/157/53 60/158/53 56/159/53
f 61/160/54 66/161/54 67/162/54
f 68/163/55 63/164/55 69/165/55
f 61/166/56 68/167/56 66/168/56
f 61/169/57 21/170/57 68/171/57
f 70/172/58 71/173/58 65/174/58
f 70/175/59 35/176/59 71/177/59
f 70/178/60 65/179/60 64/180/60
f 21/181/61 70/182/61 64/183/61
f 72/184/62 73/185/62 74/186/62
f 73/187/63 75/188/63 76/189/63
f 77/190/64 78/191/64 79/192/64
f 74/193/65 80/194/65 81/195/65
f 74/196/66 81/197/66 77/198/66
f 82/199/67 78/200/67 83/201/67
f 84/202/68 85/203/68 86/204/68
f 87/205/69 88/206/69 89/207/69
f 83/208/70 90/209/70 91/210/70
f 92/211/71 93/212/71 84/213/71
f 74/214/72 79/215/72 78/216/72
f 82/217/73 74/218/73 78/219/73
f 83/220/74 91/221/74 92/222/74
f 94/223/75 83/224/75 92/225/75
f 95/226/76 85/227/76 96/228/76
f 96/229/77 97/230/77 98/231/77
f 95/232/78 86/233/78 85/234/78
f 95/235/79 94/236/79 86/237/79
f 99/238/80 100/239/80 101/240/80
f 99/241/81 101/242/81 102/243/81
f 99/244/82 98/245/82 97/246/82
f 99/247/83 95/248/83 98/249/83
f 87/250/84 103/251/84 104/252/84
f 88/253/85 105/254/85 106/255/85
f 88/256/86 104/257/86 105/258/86
f 6/259/87 107/260/87 9/261/87
f 10/262/88 5/263/88 108/264/88
f 72/265/89 10/266/89 108/267/89
f 72/268/90 108/269/90 75/270/90
f 87/271/91 89/272/91 109/273/91
f 6/274/92 110/275/92 107/276/92
f 87/277/93 109/278/93 110/279/93
f 6/280/94 87/281/94 110/282/94
f 102/283/95 111/284/95 112/285/95
f 113/286/96 111/287/96 114/288/96
f 87/289/97 115/290/97 103/291/97
f 113/292/98 112/293/98 111/294/98
f 113/295/99 94/296/99 112/297/99
f 114/298/100 116/299/100 117/300/100
f 118/301/101 119/302/101 120/303/101
f 121/304/102 122/305/102 123/306/102
f 120/307/103 124/308/103 125/309/103
f 126/310/104 127/311/104 123/312/104
f 127/313/105 128/314/105 129/315/105
f 115/316/106 123/317/106 122/318/106
f 115/319/107 126/320/107 123/321/107
f 130/322/108 131/323/108 129/324/108
f 132/325/109 133/326/109 134/327/109
f 118/328/110 135/329/110 119/330/110
f 136/331/111 114/332/111 118/333/111
f 137/334/112 138/335/112 139/336/112
f 140/337/113 141/338/113 133/339/113
f 114/340/114 119/341/114 135/342/114
f 114/343/115 117/344/115 119/345/115
f 126/346/116 129/347/116 128/348/116
f 126/349/117 130/350/117 129/351/117
f 132/352/118 134/353/118 142/354/118
f 130/355/119 136/356/119 132/357/119
f 141/358/120 143/359/120 144/360/120
f 141/361/121 137/362/121 143/363/121
f 131/364/122 142/365/122 134/366/122
f 131/367/123 130/368/123 142/369/123
f 145/370/124 146/371/124 139/372/124
f 136/373/125 125/374/125 124/375/125
f 140/376/126 136/377/126 124/378/126
f 145/379/127 139/380/127 138/381/127
f 140/382/128 145/383/128 138/384/128
f 6/385/129 21/386/129 136/387/129
f 6/388/130 136/389/130 87/390/130
f 136/391/131 21/392/131 51/393/131
f 136/394/132 51/395/132 94/396/132
f 72/397/133 94/398/133 51/399/133
f 72/400/134 51/401/134 10/402/134
f 2/403/135 147/404/135 76/405/135
f 148/406/136 147/407/136 2/408/136
f 148/409/137 149/410/137 147/411/137
f 37/412/138 80/413/138 149/414/138
f 37/415/139 149/416/139 148/417/139
f 150/418/140 151/419/140 75/420/140
f 152/421/141 151/422/141 150/423/141
f 152/424/142 153/425/142 151/426/142
f 2/427/143 76/428/143 153/429/143
f 2/430/144 153/431/144 152/432/144
f 154/433/145 155/434/145 156/435/145
f 39/436/146 78/437/146 155/438/146
f 39/439/147 155/440/147 154/441/147
f 37/442/148 156/443/148 80/444/148
f 154/445/149 156/446/149 37/447/149
f 157/448/150 158/449/150 159/450/150
f 48/451/151 90/452/151 158/453/151
f 48/454/152 158/455/152 157/456/152
f 39/457/153 159/458/153 78/459/153
f 157/460/154 159/461/154 39/462/154
f 160/463/155 161/464/155 162/465/155
f 50/466/156 93/467/156 161/468/156
f 50/469/157 161/470/157 160/471/157
f 48/472/158 162/473/158 90/474/158
f 160/475/159 162/476/159 48/477/159
f 50/478/160 163/479/160 93/480/160
f 164/481/161 163/482/161 50/483/161
f 164/484/162 165/485/162 163/486/162
f 166/487/163 167/488/163 165/489/163
f 166/490/164 165/491/164 164/492/164
f 42/493/165 168/494/165 167/495/165
f 169/496/166 168/497/166 42/498/166
f 169/499/167 170/500/167 168/501/167
f 53/502/168 97/503/168 170/504/168
f 53/505/169 170/506/169 169/507/169
f 53/508/170 171/509/170 97/510/170
f 172/511/171 171/512/171 53/513/171
f 172/514/172 173/515/172 171/516/172
f 62/517/173 174/518/173 173/519/173
f 62/520/174 173/521/174 172/522/174
f 62/523/175 175/524/175 174/525/175
f 176/526/176 175/527/176 62/528/176
f 176/529/177 177/530/177 175/531/177
f 67/532/178 116/533/178 177/534/178
f 67/535/179 177/536/179 176/537/179
f 178/538/180 179/539/180 180/540/180
f 181/541/181 89/542/181 179/543/181
f 181/544/182 179/545/182 178/546/182
f 11/547/183 180/548/183 106/549/183
f 178/550/184 180/551/184 11/552/184
f 12/553/185 182/554/185 121/555/185
f 183/556/186 182/557/186 12/558/186
f 183/559/187 184/560/187 182/561/187
f 11/562/188 106/563/188 184/564/188
f 11/565/189 184/566/189 183/567/189
f 18/568/190 185/569/190 123/570/190
f 186/571/191 185/572/191 18/573/191
f 186/574/192 187/575/192 188/576/192
f 12/577/193 121/578/193 187/579/193
f 12/580/194 187/581/194 186/582/194
f 189/583/195 190/584/195 191/585/195
f 18/586/196 123/587/196 190/588/196
f 18/589/197 190/590/197 189/591/197
f 19/592/198 191/593/198 129/594/198
f 189/595/199 191/596/199 19/597/199
f 67/598/200 192/599/200 116/600/200
f 193/601/201 192/602/201 67/603/201
f 193/604/202 194/605/202 192/606/202
f 69/607/203 119/608/203 194/609/203
f 69/610/204 194/611/204 193/612/204
f 195/613/205 196/614/205 197/615/205
f 65/616/206 124/617/206 196/618/206
f 65/619/207 196/620/207 195/621/207
f 69/622/208 197/623/208 119/624/208
f 195/625/209 197/626/209 69/627/209
f 198/628/210 199/629/210 200/630/210
f 19/631/211 129/632/211 199/633/211
f 19/634/212 199/635/212 198/636/212
f 27/637/213 200/638/213 134/639/213
f 198/640/214 200/641/214 27/642/214
f 29/643/215 201/644/215 144/645/215
f 202/646/216 201/647/216 29/648/216
f 202/649/217 203/650/217 201/651/217
f 27/652/218 134/653/218 203/654/218
f 27/655/219 203/656/219 202/657/219
f 204/658/220 205/659/220 206/660/220
f 207/661/221 205/662/221 204/663/221
f 208/664/222 209/665/222 205/666/222
f 210/667/223 211/668/223 209/669/223
f 210/670/224 209/671/224 208/672/224
f 65/673/225 212/674/225 124/675/225
f 213/676/226 212/677/226 65/678/226
f 213/679/227 214/680/227 212/681/227
f 204/682/228 206/683/228 214/684/228
f 204/685/229 214/686/229 213/687/229
o cylinder
v 2.40625 2.546875 0.03125
v 2.40625 2.546875 -0.03125
v 2.4146234122634724 2.578125 0.03125000000000001
v 2.4146234122634724 2.578125 -0.031249999999999993
v 2.4291265877365276 2.5697515877365276 0.03125000000000001
v 2.4291265877365276 2.5697515877365276 -0.031249999999999993
v 2.4375 2.5552484122634724 0.03125
v 2.4375 2.5552484122634724 -0.03125
v 2.4375 2.5385015877365276 0.031249999999999997
v 2.4375 2.5385015877365276 -0.03125
v 2.4291265877365276 2.5239984122634724 0.031249999999999997
v 2.4291265877365276 2.5239984122634724 -0.03125
v 2.4146234122634724 2.515625 0.031249999999999993
v 2.4146234122634724 2.515625 -0.03125
v 2.3978765877365276 2.515625 0.031249999999999993
v 2.3978765877365276 2.515625 -0.03125
v 2.3833734122634724 2.5239984122634724 0.031249999999999997
v 2.3833734122634724 2.5239984122634724 -0.03125
v 2.375 2.5385015877365276 0.031249999999999997
v 2.375 2.5385015877365276 -0.03125
v 2.375 2.5552484122634724 0.03125
v 2.375 2.5552484122634724 -0.03125
v 2.3833734122634724 2.5697515877365276 0.03125000000000001
v 2.3833734122634724 2.5697515877365276 -0.031249999999999993
v 2.3978765877365276 2.578125 0.03125000000000001
v 2.3978765877365276 2.578125 -0.031249999999999993
vt 0.004043766904910569 0.9979781165475448
vt 0.003502388275564618 1
vt 0 0.9979781165475448
vt 1.1362438767648086e-16 0.9921875
vt 0.0020937500000001137 0.9921875
vt 0.0020937500000001137 1
vt 1.1362438767648086e-16 1
vt 8.673617379884035e-19 0.9959559010486729
vt 0.0020217174428785846 0.9964978992929371
vt 0 1
vt 0.004044098951327107 0.9979782825571214
vt 0.0035021007070629023 1
vt 0 0.9979782825571214
vt 1.1362438767648086e-16 0.9921875
vt 0.0020937500000001137 0.9921875
vt 0.0020937500000001137 1
vt 1.1362438767648086e-16 1
vt 4.336808689942018e-19 0.9959562330950894
vt 0.0020218834524552845 0.9964976117244354
vt 0 1
vt 0.00390625 0.9979062499999999
vt 0.00390625 0.9999999999999999
vt 0 0.9989531249999999
vt 1.1362438767648086e-16 0.9921875
vt 0.0020937500000001137 0.9921875
vt 0.0020937500000001137 1
vt 1.1362438767648086e-16 1
vt 0.00390625 0.9979062499999999
vt 0.00390625 0.9999999999999999
vt 0 0.9989531249999999
vt 4.336808689942018e-19 0.9959562330950894
vt 0.0020218834524552845 0.9964976117244354
vt 0 1
vt 1.1362438767648086e-16 0.9921875
vt 0.0020937500000001137 0.9921875
vt 0.0020937500000001137 1
vt 1.1362438767648086e-16 1
vt 0.004044098951327107 0.9979782825571214
vt 0.0035021007070629023 1
vt 0 0.9979782825571214
vt 8.673617379884035e-19 0.9959559010486729
vt 0.0020217174428785846 0.9964978992929371
vt 0 1
vt 1.1362438767648086e-16 0.9921875
vt 0.0020937500000001137 0.9921875
vt 0.0020937500000001137 1
vt 1.1362438767648086e-16 1
vt 0.004043766904910569 0.9979781165475448
vt 0.003502388275564618 1
vt 0 0.9979781165475448
vt 1.1362438767648086e-16 0.99609375
vt 0.0020937500000001137 0.99609375
vt 0.0010468750000001137 1
vt 1.1362438767648086e-16 0.9921875
vt 0.0020937500000001137 0.9921875
vt 0.0020937500000001137 1
vt 1.1362438767648086e-16 1
vt 0.0020937500000001137 1
vt 1.1362438767648086e-16 1
vt 0.0010468750000001137 0.99609375
vt 0 1
vt 0.0005413786293459507 0.9979781165475448
vt 0.004043766904910569 1
vt 1.1362438767648086e-16 0.9921875
vt 0.0020937500000001137 0.9921875
vt 0.0020937500000001137 1
vt 1.1362438767648086e-16 1
vt 0.0020217174428785838 1
vt 0 0.9994580017557358
vt 0.0020217174428785846 0.9959559010486729
vt 0 1
vt 0.0005419982442642045 0.9979782825571214
vt 0.004044098951327107 1
vt 1.1362438767648086e-16 0.9921875
vt 0.0020937500000001137 0.9921875
vt 0.0020937500000001137 1
vt 1.1362438767648086e-16 1
vt 0.002021883452455284 1
vt 0 0.999458621370654
vt 0.0020218834524552845 0.9959562330950894
vt 0 0.9999999999999999
vt 0 0.9979062499999999
vt 0.00390625 0.9989531249999999
vt 1.1362438767648086e-16 0.9921875
vt 0.0020937500000001137 0.9921875
vt 0.0020937500000001137 1
vt 1.1362438767648086e-16 1
vt 0 0.9999999999999999
vt 0 0.9979062499999999
vt 0.00390625 0.9989531249999999
vt 0.002021883452455284 1
vt 0 0.999458621370654
vt 0.0020218834524552845 0.9959562330950894
vt 1.1362438767648086e-16 0.9921875
vt 0.0020937500000001137 0.9921875
vt 0.0020937500000001137 1
vt 1.1362438767648086e-16 1
vt 0 1
vt 0.0005419982442642045 0.9979782825571214
vt 0.004044098951327107 1
vt 0.0020217174428785838 1
vt 0 0.9994580017557358
vt 0.0020217174428785846 0.9959559010486729
vt 1.1362438767648086e-16 0.9921875
vt 0.0020937500000001137 0.9921875
vt 0.0020937500000001137 1
vt 1.1362438767648086e-16 1
vt 0 1
vt 0.0005413786293459507 0.9979781165475448
vt 0.004043766904910569 1
vt 0.0020937500000001137 1
vt 1.1362438767648086e-16 1
vt 0.0010468750000001137 0.99609375
vt 1.1362438767648086e-16 0.9921875
vt 0.0020937500000001137 0.9921875
vt 0.0020937500000001137 1
vt 1.1362438767648086e-16 1
vt 1.1362438767648086e-16 0.99609375
vt 0.0020937500000001137 0.99609375
vt 0.0010468750000001137 1
vn 0 -2.220446049250313e-16 1
vn 0.4999999999999999 0.8660254037844388 1.9229626863835643e-16
vn 0 2.220446049250313e-16 -1
vn 0 -2.220446049250313e-16 1
vn 0.8660254037844388 0.5 1.1102230246251565e-16
vn 0 2.220446049250313e-16 -1
vn 0 -2.220446049250313e-16 1
vn 1 0 0
vn 0 2.220446049250313e-16 -1
vn 0 -2.220446049250313e-16 1
vn 0.8660254037844388 -0.5 -1.1102230246251565e-16
vn 0 2.220446049250313e-16 -1
vn 0 -2.220446049250313e-16 1
vn 0.5000000000000001 -0.8660254037844388 -1.9229626863835643e-16
vn 0 2.220446049250313e-16 -1
vn 0 -2.220446049250313e-16 1
vn 4.143408735633879e-16 -1 -2.220446049250313e-16
vn 0 2.220446049250313e-16 -1
vn 0 -2.220446049250313e-16 1
vn -0.4999999999999996 -0.8660254037844389 -1.9229626863835646e-16
vn 0 2.220446049250313e-16 -1
vn 0 -2.220446049250313e-16 1
vn -0.8660254037844389 -0.4999999999999998 -1.110223024625156e-16
vn 0 2.220446049250313e-16 -1
vn 0 -2.220446049250313e-16 1
vn -1 -2.0717043678169412e-16 -4.6001077787337445e-32
vn 0 2.220446049250313e-16 -1
vn 0 -2.220446049250313e-16 1
vn -0.8660254037844389 0.4999999999999996 1.1102230246251557e-16
vn 0 2.220446049250313e-16 -1
vn 0 -2.220446049250313e-16 1
vn -0.4999999999999999 0.8660254037844386 1.9229626863835638e-16
vn 0 2.220446049250313e-16 -1
vn 0 -2.220446049250313e-16 1
vn 0 1 2.220446049250313e-16
vn 0 2.220446049250313e-16 -1
usemtl m_4a76a50a-6332-4647-e48e-1cc4a548032a
f 219/688/230 217/689/230 215/690/230
f 217/691/231 219/692/231 220/693/231 218/694/231
f 218/695/232 220/696/232 216/697/232
f 221/698/233 219/699/233 215/700/233
f 219/701/234 221/702/234 222/703/234 220/704/234
f 220/705/235 222/706/235 216/707/235
f 223/708/236 221/709/236 215/710/236
f 221/711/237 223/712/237 224/713/237 222/714/237
f 222/715/238 224/716/238 216/717/238
f 225/718/239 223/719/239 215/720/239
f 223/721/240 225/722/240 226/723/240 224/724/240
f 224/725/241 226/726/241 216/727/241
f 227/728/242 225/729/242 215/730/242
f 225/731/243 227/732/243 228/733/243 226/734/243
f 226/735/244 228/736/244 216/737/244
f 229/738/245 227/739/245 215/740/245
f 227/741/246 229/742/246 230/743/246 228/744/246
f 228/745/247 230/746/247 216/747/247
f 231/748/248 229/749/248 215/750/248
f 229/751/249 231/752/249 232/753/249 230/754/249
f 230/755/250 232/756/250 216/757/250
f 233/758/251 231/759/251 215/760/251
f 231/761/252 233/762/252 234/763/252 232/764/252
f 232/765/253 234/766/253 216/767/253
f 235/768/254 233/769/254 215/770/254
f 233/771/255 235/772/255 236/773/255 234/774/255
f 234/775/256 236/776/256 216/777/256
f 237/778/257 235/779/257 215/780/257
f 235/781/258 237/782/258 238/783/258 236/784/258
f 236/785/259 238/786/259 216/787/259
f 239/788/260 237/789/260 215/790/260
f 237/791/261 239/792/261 240/793/261 238/794/261
f 238/795/262 240/796/262 216/797/262
f 217/798/263 239/799/263 215/800/263
f 239/801/264 217/802/264 218/803/264 240/804/264
f 240/805/265 218/806/265 216/807/265
o cylinder
v 2.328125 3.125 0.03125
v 2.328125 3.125 -0.03125
v 2.3364984122634724 3.15625 0.03125000000000001
v 2.3364984122634724 3.15625 -0.031249999999999993
v 2.3510015877365276 3.1478765877365276 0.03125000000000001
v 2.3510015877365276 3.1478765877365276 -0.031249999999999993
v 2.359375 3.1333734122634724 0.03125
v 2.359375 3.1333734122634724 -0.03125
v 2.359375 3.1166265877365276 0.031249999999999997
v 2.359375 3.1166265877365276 -0.03125
v 2.3510015877365276 3.1021234122634724 0.031249999999999997
v 2.3510015877365276 3.1021234122634724 -0.03125
v 2.3364984122634724 3.09375 0.031249999999999993
v 2.3364984122634724 3.09375 -0.03125
v 2.3197515877365276 3.09375 0.031249999999999993
v 2.3197515877365276 3.09375 -0.03125
v 2.3052484122634724 3.1021234122634724 0.031249999999999997
v 2.3052484122634724 3.1021234122634724 -0.03125
v 2.296875 3.1166265877365276 0.031249999999999997
v 2.296875 3.1166265877365276 -0.03125
v 2.296875 3.1333734122634724 0.03125
v 2.296875 3.1333734122634724 -0.03125
v 2.3052484122634724 3.1478765877365276 0.03125000000000001
v 2.3052484122634724 3.1478765877365276 -0.031249999999999993
v 2.3197515877365276 3.15625 0.03125000000000001
v 2.3197515877365276 3.15625 -0.031249999999999993
vt 0.004043766904910569 0.9979781165475448
vt 0.003502388275564618 1
vt 0 0.9979781165475448
vt 1.1362438767648086e-16 0.9921875
vt 0.0020937500000001137 0.9921875
vt 0.0020937500000001137 1
vt 1.1362438767648086e-16 1
vt 8.673617379884035e-19 0.9959559010486729
vt 0.0020217174428785846 0.9964978992929371
vt 0 1
vt 0.004044098951327107 0.9979782825571214
vt 0.0035021007070629023 1
vt 0 0.9979782825571214
vt 1.1362438767648086e-16 0.9921875
vt 0.0020937500000001137 0.9921875
vt 0.0020937500000001137 1
vt 1.1362438767648086e-16 1
vt 4.336808689942018e-19 0.9959562330950894
vt 0.0020218834524552845 0.9964976117244354
vt 0 1
vt 0.00390625 0.9979062499999999
vt 0.00390625 0.9999999999999999
vt 0 0.9989531249999999
vt 1.1362438767648086e-16 0.9921875
vt 0.0020937500000001137 0.9921875
vt 0.0020937500000001137 1
vt 1.1362438767648086e-16 1
vt 0.00390625 0.9979062499999999
vt 0.00390625 0.9999999999999999
vt 0 0.9989531249999999
vt 4.336808689942018e-19 0.9959562330950894
vt 0.0020218834524552845 0.9964976117244354
vt 0 1
vt 1.1362438767648086e-16 0.9921875
vt 0.0020937500000001137 0.9921875
vt 0.0020937500000001137 1
vt 1.1362438767648086e-16 1
vt 0.004044098951327107 0.9979782825571214
vt 0.0035021007070629023 1
vt 0 0.9979782825571214
vt 8.673617379884035e-19 0.9959559010486729
vt 0.0020217174428785846 0.9964978992929371
vt 0 1
vt 1.1362438767648086e-16 0.9921875
vt 0.0020937500000001137 0.9921875
vt 0.0020937500000001137 1
vt 1.1362438767648086e-16 1
vt 0.004043766904910569 0.9979781165475448
vt 0.003502388275564618 1
vt 0 0.9979781165475448
vt 1.1362438767648086e-16 0.99609375
vt 0.0020937500000001137 0.99609375
vt 0.0010468750000001137 1
vt 1.1362438767648086e-16 0.9921875
vt 0.0020937500000001137 0.9921875
vt 0.0020937500000001137 1
vt 1.1362438767648086e-16 1
vt 0.0020937500000001137 1
vt 1.1362438767648086e-16 1
vt 0.0010468750000001137 0.99609375
vt 0 1
vt 0.0005413786293459507 0.9979781165475448
vt 0.004043766904910569 1
vt 1.1362438767648086e-16 0.9921875
vt 0.0020937500000001137 0.9921875
vt 0.0020937500000001137 1
vt 1.1362438767648086e-16 1
vt 0.0020217174428785838 1
vt 0 0.9994580017557358
vt 0.0020217174428785846 0.9959559010486729
vt 0 1
vt 0.0005419982442642045 0.9979782825571214
vt 0.004044098951327107 1
vt 1.1362438767648086e-16 0.9921875
vt 0.0020937500000001137 0.9921875
vt 0.0020937500000001137 1
vt 1.1362438767648086e-16 1
vt 0.002021883452455284 1
vt 0 0.999458621370654
vt 0.0020218834524552845 0.9959562330950894
vt 0 0.9999999999999999
vt 0 0.9979062499999999
vt 0.00390625 0.9989531249999999
vt 1.1362438767648086e-16 0.9921875
vt 0.0020937500000001137 0.9921875
vt 0.0020937500000001137 1
vt 1.1362438767648086e-16 1
vt 0 0.9999999999999999
vt 0 0.9979062499999999
vt 0.00390625 0.9989531249999999
vt 0.002021883452455284 1
vt 0 0.999458621370654
vt 0.0020218834524552845 0.9959562330950894
vt 1.1362438767648086e-16 0.9921875
vt 0.0020937500000001137 0.9921875
vt 0.0020937500000001137 1
vt 1.1362438767648086e-16 1
vt 0 1
vt 0.0005419982442642045 0.9979782825571214
vt 0.004044098951327107 1
vt 0.0020217174428785838 1
vt 0 0.9994580017557358
vt 0.0020217174428785846 0.9959559010486729
vt 1.1362438767648086e-16 0.9921875
vt 0.0020937500000001137 0.9921875
vt 0.0020937500000001137 1
vt 1.1362438767648086e-16 1
vt 0 1
vt 0.0005413786293459507 0.9979781165475448
vt 0.004043766904910569 1
vt 0.0020937500000001137 1
vt 1.1362438767648086e-16 1
vt 0.0010468750000001137 0.99609375
vt 1.1362438767648086e-16 0.9921875
vt 0.0020937500000001137 0.9921875
vt 0.0020937500000001137 1
vt 1.1362438767648086e-16 1
vt 1.1362438767648086e-16 0.99609375
vt 0.0020937500000001137 0.99609375
vt 0.0010468750000001137 1
vn 0 -2.220446049250313e-16 1
vn 0.4999999999999999 0.8660254037844388 1.9229626863835643e-16
vn 0 2.220446049250313e-16 -1
vn 0 -2.220446049250313e-16 1
vn 0.8660254037844388 0.5 1.1102230246251565e-16
vn 0 2.220446049250313e-16 -1
vn 0 -2.220446049250313e-16 1
vn 1 0 0
vn 0 2.220446049250313e-16 -1
vn 0 -2.220446049250313e-16 1
vn 0.8660254037844388 -0.5 -1.1102230246251565e-16
vn 0 2.220446049250313e-16 -1
vn 0 -2.220446049250313e-16 1
vn 0.5000000000000001 -0.8660254037844388 -1.9229626863835643e-16
vn 0 2.220446049250313e-16 -1
vn 0 -2.220446049250313e-16 1
vn 4.143408735633879e-16 -1 -2.220446049250313e-16
vn 0 2.220446049250313e-16 -1
vn 0 -2.220446049250313e-16 1
vn -0.4999999999999996 -0.8660254037844389 -1.9229626863835646e-16
vn 0 2.220446049250313e-16 -1
vn 0 -2.220446049250313e-16 1
vn -0.8660254037844389 -0.4999999999999998 -1.110223024625156e-16
vn 0 2.220446049250313e-16 -1
vn 0 -2.220446049250313e-16 1
vn -1 -2.0717043678169412e-16 -4.6001077787337445e-32
vn 0 2.220446049250313e-16 -1
vn 0 -2.220446049250313e-16 1
vn -0.8660254037844389 0.4999999999999996 1.1102230246251557e-16
vn 0 2.220446049250313e-16 -1
vn 0 -2.220446049250313e-16 1
vn -0.4999999999999999 0.8660254037844386 1.9229626863835638e-16
vn 0 2.220446049250313e-16 -1
vn 0 -2.220446049250313e-16 1
vn 0 1 2.220446049250313e-16
vn 0 2.220446049250313e-16 -1
usemtl m_4a76a50a-6332-4647-e48e-1cc4a548032a
f 245/808/266 243/809/266 241/810/266
f 243/811/267 245/812/267 246/813/267 244/814/267
f 244/815/268 246/816/268 242/817/268
f 247/818/269 245/819/269 241/820/269
f 245/821/270 247/822/270 248/823/270 246/824/270
f 246/825/271 248/826/271 242/827/271
f 249/828/272 247/829/272 241/830/272
f 247/831/273 249/832/273 250/833/273 248/834/273
f 248/835/274 250/836/274 242/837/274
f 251/838/275 249/839/275 241/840/275
f 249/841/276 251/842/276 252/843/276 250/844/276
f 250/845/277 252/846/277 242/847/277
f 253/848/278 251/849/278 241/850/278
f 251/851/279 253/852/279 254/853/279 252/854/279
f 252/855/280 254/856/280 242/857/280
f 255/858/281 253/859/281 241/860/281
f 253/861/282 255/862/282 256/863/282 254/864/282
f 254/865/283 256/866/283 242/867/283
f 257/868/284 255/869/284 241/870/284
f 255/871/285 257/872/285 258/873/285 256/874/285
f 256/875/286 258/876/286 242/877/286
f 259/878/287 257/879/287 241/880/287
f 257/881/288 259/882/288 260/883/288 258/884/288
f 258/885/289 260/886/289 242/887/289
f 261/888/290 259/889/290 241/890/290
f 259/891/291 261/892/291 262/893/291 260/894/291
f 260/895/292 262/896/292 242/897/292
f 263/898/293 261/899/293 241/900/293
f 261/901/294 263/902/294 264/903/294 262/904/294
f 262/905/295 264/906/295 242/907/295
f 265/908/296 263/909/296 241/910/296
f 263/911/297 265/912/297 266/913/297 264/914/297
f 264/915/298 266/916/298 242/917/298
f 243/918/299 265/919/299 241/920/299
f 265/921/300 243/922/300 244/923/300 266/924/300
f 266/925/301 244/926/301 242/927/301
o cylinder
v 2.359375 2 0.03125
v 2.359375 2 -0.03125
v 2.3761218245269453 2.0625 0.031250000000000014
v 2.3761218245269453 2.0625 -0.031249999999999986
v 2.4051281754730547 2.0457531754730547 0.03125000000000001
v 2.4051281754730547 2.0457531754730547 -0.031249999999999993
v 2.421875 2.0167468245269453 0.03125000000000001
v 2.421875 2.0167468245269453 -0.031249999999999993
v 2.421875 1.983253175473055 0.031249999999999997
v 2.421875 1.983253175473055 -0.03125
v 2.4051281754730547 1.954246824526945 0.03124999999999999
v 2.4051281754730547 1.954246824526945 -0.031250000000000014
v 2.3761218245269453 1.9375 0.031249999999999986
v 2.3761218245269453 1.9375 -0.031250000000000014
v 2.3426281754730547 1.9375 0.031249999999999986
v 2.3426281754730547 1.9375 -0.031250000000000014
v 2.3136218245269453 1.954246824526945 0.03124999999999999
v 2.3136218245269453 1.954246824526945 -0.031250000000000014
v 2.296875 1.983253175473055 0.031249999999999997
v 2.296875 1.983253175473055 -0.03125
v 2.296875 2.0167468245269453 0.03125000000000001
v 2.296875 2.0167468245269453 -0.031249999999999993
v 2.3136218245269453 2.0457531754730547 0.03125000000000001
v 2.3136218245269453 2.0457531754730547 -0.031249999999999993
v 2.3426281754730547 2.0625 0.031250000000000014
v 2.3426281754730547 2.0625 -0.031249999999999986
vt 0.004043766904910569 0.9979781165475448
vt 0.003502388275564618 1
vt 0 0.9979781165475448
vt 1.1362438767648086e-16 0.9921875
vt 0.0020937500000001137 0.9921875
vt 0.0020937500000001137 1
vt 1.1362438767648086e-16 1
vt 8.673617379884035e-19 0.9959559010486729
vt 0.0020217174428785846 0.9964978992929371
vt 0 1
vt 0.004044098951327107 0.9979782825571214
vt 0.0035021007070629023 1
vt 0 0.9979782825571214
vt 1.1362438767648086e-16 0.9921875
vt 0.0020937500000001137 0.9921875
vt 0.0020937500000001137 1
vt 1.1362438767648086e-16 1
vt 4.336808689942018e-19 0.9959562330950894
vt 0.0020218834524552845 0.9964976117244354
vt 0 1
vt 0.00390625 0.9979062499999999
vt 0.00390625 0.9999999999999999
vt 0 0.9989531249999999
vt 1.1362438767648086e-16 0.9921875
vt 0.0020937500000001137 0.9921875
vt 0.0020937500000001137 1
vt 1.1362438767648086e-16 1
vt 0.00390625 0.9979062499999999
vt 0.00390625 0.9999999999999999
vt 0 0.9989531249999999
vt 4.336808689942018e-19 0.9959562330950894
vt 0.0020218834524552845 0.9964976117244354
vt 0 1
vt 1.1362438767648086e-16 0.9921875
vt 0.0020937500000001137 0.9921875
vt 0.0020937500000001137 1
vt 1.1362438767648086e-16 1
vt 0.004044098951327107 0.9979782825571214
vt 0.0035021007070629023 1
vt 0 0.9979782825571214
vt 8.673617379884035e-19 0.9959559010486729
vt 0.0020217174428785846 0.9964978992929371
vt 0 1
vt 1.1362438767648086e-16 0.9921875
vt 0.0020937500000001137 0.9921875
vt 0.0020937500000001137 1
vt 1.1362438767648086e-16 1
vt 0.004043766904910569 0.9979781165475448
vt 0.003502388275564618 1
vt 0 0.9979781165475448
vt 1.1362438767648086e-16 0.99609375
vt 0.0020937500000001137 0.99609375
vt 0.0010468750000001137 1
vt 1.1362438767648086e-16 0.9921875
vt 0.0020937500000001137 0.9921875
vt 0.0020937500000001137 1
vt 1.1362438767648086e-16 1
vt 0.0020937500000001137 1
vt 1.1362438767648086e-16 1
vt 0.0010468750000001137 0.99609375
vt 0 1
vt 0.0005413786293459507 0.9979781165475448
vt 0.004043766904910569 1
vt 1.1362438767648086e-16 0.9921875
vt 0.0020937500000001137 0.9921875
vt 0.0020937500000001137 1
vt 1.1362438767648086e-16 1
vt 0.0020217174428785838 1
vt 0 0.9994580017557358
vt 0.0020217174428785846 0.9959559010486729
vt 0 1
vt 0.0005419982442642045 0.9979782825571214
vt 0.004044098951327107 1
vt 1.1362438767648086e-16 0.9921875
vt 0.0020937500000001137 0.9921875
vt 0.0020937500000001137 1
vt 1.1362438767648086e-16 1
vt 0.002021883452455284 1
vt 0 0.999458621370654
vt 0.0020218834524552845 0.9959562330950894
vt 0 0.9999999999999999
vt 0 0.9979062499999999
vt 0.00390625 0.9989531249999999
vt 1.1362438767648086e-16 0.9921875
vt 0.0020937500000001137 0.9921875
vt 0.0020937500000001137 1
vt 1.1362438767648086e-16 1
vt 0 0.9999999999999999
vt 0 0.9979062499999999
vt 0.00390625 0.9989531249999999
vt 0.002021883452455284 1
vt 0 0.999458621370654
vt 0.0020218834524552845 0.9959562330950894
vt 1.1362438767648086e-16 0.9921875
vt 0.0020937500000001137 0.9921875
vt 0.0020937500000001137 1
vt 1.1362438767648086e-16 1
vt 0 1
vt 0.0005419982442642045 0.9979782825571214
vt 0.004044098951327107 1
vt 0.0020217174428785838 1
vt 0 0.9994580017557358
vt 0.0020217174428785846 0.9959559010486729
vt 1.1362438767648086e-16 0.9921875
vt 0.0020937500000001137 0.9921875
vt 0.0020937500000001137 1
vt 1.1362438767648086e-16 1
vt 0 1
vt 0.0005413786293459507 0.9979781165475448
vt 0.004043766904910569 1
vt 0.0020937500000001137 1
vt 1.1362438767648086e-16 1
vt 0.0010468750000001137 0.99609375
vt 1.1362438767648086e-16 0.9921875
vt 0.0020937500000001137 0.9921875
vt 0.0020937500000001137 1
vt 1.1362438767648086e-16 1
vt 1.1362438767648086e-16 0.99609375
vt 0.0020937500000001137 0.99609375
vt 0.0010468750000001137 1
vn 0 -2.220446049250313e-16 1
vn 0.4999999999999999 0.8660254037844388 1.9229626863835643e-16
vn 0 2.220446049250313e-16 -1
vn 0 -2.220446049250313e-16 1
vn 0.8660254037844388 0.5000000000000001 1.1102230246251568e-16
vn 0 2.220446049250313e-16 -1
vn 0 -2.220446049250313e-16 1
vn 1 0 0
vn 0 2.220446049250313e-16 -1
vn 0 -2.220446049250313e-16 1
vn 0.8660254037844387 -0.5000000000000001 -1.1102230246251568e-16
vn 0 2.220446049250313e-16 -1
vn 0 -2.220446049250313e-16 1
vn 0.5000000000000001 -0.8660254037844386 -1.9229626863835638e-16
vn 0 2.220446049250313e-16 -1
vn 0 -2.220446049250313e-16 1
vn 4.143408735633879e-16 -1 -2.220446049250313e-16
vn 0 2.220446049250313e-16 -1
vn 0 -2.220446049250313e-16 1
vn -0.4999999999999996 -0.866025403784439 -1.9229626863835648e-16
vn 0 2.220446049250313e-16 -1
vn 0 -2.220446049250313e-16 1
vn -0.8660254037844392 -0.4999999999999995 -1.1102230246251554e-16
vn 0 2.220446049250313e-16 -1
vn 0 -2.220446049250313e-16 1
vn -1 -6.215113103450823e-16 -1.3800323336201233e-31
vn 0 2.220446049250313e-16 -1
vn 0 -2.220446049250313e-16 1
vn -0.8660254037844388 0.49999999999999967 1.1102230246251558e-16
vn 0 2.220446049250313e-16 -1
vn 0 -2.220446049250313e-16 1
vn -0.4999999999999999 0.8660254037844386 1.9229626863835638e-16
vn 0 2.220446049250313e-16 -1
vn 0 -2.220446049250313e-16 1
vn 0 1 2.220446049250313e-16
vn 0 2.220446049250313e-16 -1
usemtl m_4a76a50a-6332-4647-e48e-1cc4a548032a
f 271/928/302 269/929/302 267/930/302
f 269/931/303 271/932/303 272/933/303 270/934/303
f 270/935/304 272/936/304 268/937/304
f 273/938/305 271/939/305 267/940/305
f 271/941/306 273/942/306 274/943/306 272/944/306
f 272/945/307 274/946/307 268/947/307
f 275/948/308 273/949/308 267/950/308
f 273/951/309 275/952/309 276/953/309 274/954/309
f 274/955/310 276/956/310 268/957/310
f 277/958/311 275/959/311 267/960/311
f 275/961/312 277/962/312 278/963/312 276/964/312
f 276/965/313 278/966/313 268/967/313
f 279/968/314 277/969/314 267/970/314
f 277/971/315 279/972/315 280/973/315 278/974/315
f 278/975/316 280/976/316 268/977/316
f 281/978/317 279/979/317 267/980/317
f 279/981/318 281/982/318 282/983/318 280/984/318
f 280/985/319 282/986/319 268/987/319
f 283/988/320 281/989/320 267/990/320
f 281/991/321 283/992/321 284/993/321 282/994/321
f 282/995/322 284/996/322 268/997/322
f 285/998/323 283/999/323 267/1000/323
f 283/1001/324 285/1002/324 286/1003/324 284/1004/324
f 284/1005/325 286/1006/325 268/1007/325
f 287/1008/326 285/1009/326 267/1010/326
f 285/1011/327 287/1012/327 288/1013/327 286/1014/327
f 286/1015/328 288/1016/328 268/1017/328
f 289/1018/329 287/1019/329 267/1020/329
f 287/1021/330 289/1022/330 290/1023/330 288/1024/330
f 288/1025/331 290/1026/331 268/1027/331
f 291/1028/332 289/1029/332 267/1030/332
f 289/1031/333 291/1032/333 292/1033/333 290/1034/333
f 290/1035/334 292/1036/334 268/1037/334
f 269/1038/335 291/1039/335 267/1040/335
f 291/1041/336 269/1042/336 270/1043/336 292/1044/336
f 292/1045/337 270/1046/337 268/1047/337
o cylinder
v -2.359375 2 0.03125
v -2.359375 2 -0.03125
v -2.3761218245269453 2.0625 0.031250000000000014
v -2.3761218245269453 2.0625 -0.031249999999999986
v -2.4051281754730547 2.0457531754730547 0.03125000000000001
v -2.4051281754730547 2.0457531754730547 -0.031249999999999993
v -2.421875 2.0167468245269453 0.03125000000000001
v -2.421875 2.0167468245269453 -0.031249999999999993
v -2.421875 1.983253175473055 0.031249999999999997
v -2.421875 1.983253175473055 -0.03125
v -2.4051281754730547 1.954246824526945 0.03124999999999999
v -2.4051281754730547 1.954246824526945 -0.031250000000000014
v -2.3761218245269453 1.9375 0.031249999999999986
v -2.3761218245269453 1.9375 -0.031250000000000014
v -2.3426281754730547 1.9375 0.031249999999999986
v -2.3426281754730547 1.9375 -0.031250000000000014
v -2.3136218245269453 1.954246824526945 0.03124999999999999
v -2.3136218245269453 1.954246824526945 -0.031250000000000014
v -2.296875 1.983253175473055 0.031249999999999997
v -2.296875 1.983253175473055 -0.03125
v -2.296875 2.0167468245269453 0.03125000000000001
v -2.296875 2.0167468245269453 -0.031249999999999993
v -2.3136218245269453 2.0457531754730547 0.03125000000000001
v -2.3136218245269453 2.0457531754730547 -0.031249999999999993
v -2.3426281754730547 2.0625 0.031250000000000014
v -2.3426281754730547 2.0625 -0.031249999999999986
vt 0.003502388275564618 1
vt 0.004043766904910569 0.9979781165475448
vt 0 0.9979781165475448
vt 0.0020937500000001137 1
vt 0.0020937500000001137 0.9921875
vt 1.1362438767648086e-16 0.9921875
vt 1.1362438767648086e-16 1
vt 0.0020217174428785846 0.9964978992929371
vt 8.673617379884035e-19 0.9959559010486729
vt 0 1
vt 0.0035021007070629023 1
vt 0.004044098951327107 0.9979782825571214
vt 0 0.9979782825571214
vt 0.0020937500000001137 1
vt 0.0020937500000001137 0.9921875
vt 1.1362438767648086e-16 0.9921875
vt 1.1362438767648086e-16 1
vt 0.0020218834524552845 0.9964976117244354
vt 4.336808689942018e-19 0.9959562330950894
vt 0 1
vt 0.00390625 0.9999999999999999
vt 0.00390625 0.9979062499999999
vt 0 0.9989531249999999
vt 0.0020937500000001137 1
vt 0.0020937500000001137 0.9921875
vt 1.1362438767648086e-16 0.9921875
vt 1.1362438767648086e-16 1
vt 0.00390625 0.9999999999999999
vt 0.00390625 0.9979062499999999
vt 0 0.9989531249999999
vt 0.0020218834524552845 0.9964976117244354
vt 4.336808689942018e-19 0.9959562330950894
vt 0 1
vt 0.0020937500000001137 1
vt 0.0020937500000001137 0.9921875
vt 1.1362438767648086e-16 0.9921875
vt 1.1362438767648086e-16 1
vt 0.0035021007070629023 1
vt 0.004044098951327107 0.9979782825571214
vt 0 0.9979782825571214
vt 0.0020217174428785846 0.9964978992929371
vt 8.673617379884035e-19 0.9959559010486729
vt 0 1
vt 0.0020937500000001137 1
vt 0.0020937500000001137 0.9921875
vt 1.1362438767648086e-16 0.9921875
vt 1.1362438767648086e-16 1
vt 0.003502388275564618 1
vt 0.004043766904910569 0.9979781165475448
vt 0 0.9979781165475448
vt 0.0020937500000001137 0.99609375
vt 1.1362438767648086e-16 0.99609375
vt 0.0010468750000001137 1
vt 0.0020937500000001137 1
vt 0.0020937500000001137 0.9921875
vt 1.1362438767648086e-16 0.9921875
vt 1.1362438767648086e-16 1
vt 1.1362438767648086e-16 1
vt 0.0020937500000001137 1
vt 0.0010468750000001137 0.99609375
vt 0.0005413786293459507 0.9979781165475448
vt 0 1
vt 0.004043766904910569 1
vt 0.0020937500000001137 1
vt 0.0020937500000001137 0.9921875
vt 1.1362438767648086e-16 0.9921875
vt 1.1362438767648086e-16 1
vt 0 0.9994580017557358
vt 0.0020217174428785838 1
vt 0.0020217174428785846 0.9959559010486729
vt 0.0005419982442642045 0.9979782825571214
vt 0 1
vt 0.004044098951327107 1
vt 0.0020937500000001137 1
vt 0.0020937500000001137 0.9921875
vt 1.1362438767648086e-16 0.9921875
vt 1.1362438767648086e-16 1
vt 0 0.999458621370654
vt 0.002021883452455284 1
vt 0.0020218834524552845 0.9959562330950894
vt 0 0.9979062499999999
vt 0 0.9999999999999999
vt 0.00390625 0.9989531249999999
vt 0.0020937500000001137 1
vt 0.0020937500000001137 0.9921875
vt 1.1362438767648086e-16 0.9921875
vt 1.1362438767648086e-16 1
vt 0 0.9979062499999999
vt 0 0.9999999999999999
vt 0.00390625 0.9989531249999999
vt 0 0.999458621370654
vt 0.002021883452455284 1
vt 0.0020218834524552845 0.9959562330950894
vt 0.0020937500000001137 1
vt 0.0020937500000001137 0.9921875
vt 1.1362438767648086e-16 0.9921875
vt 1.1362438767648086e-16 1
vt 0.0005419982442642045 0.9979782825571214
vt 0 1
vt 0.004044098951327107 1
vt 0 0.9994580017557358
vt 0.0020217174428785838 1
vt 0.0020217174428785846 0.9959559010486729
vt 0.0020937500000001137 1
vt 0.0020937500000001137 0.9921875
vt 1.1362438767648086e-16 0.9921875
vt 1.1362438767648086e-16 1
vt 0.0005413786293459507 0.9979781165475448
vt 0 1
vt 0.004043766904910569 1
vt 1.1362438767648086e-16 1
vt 0.0020937500000001137 1
vt 0.0010468750000001137 0.99609375
vt 0.0020937500000001137 1
vt 0.0020937500000001137 0.9921875
vt 1.1362438767648086e-16 0.9921875
vt 1.1362438767648086e-16 1
vt 0.0020937500000001137 0.99609375
vt 1.1362438767648086e-16 0.99609375
vt 0.0010468750000001137 1
vn 0 -2.220446049250313e-16 1
vn -0.4999999999999999 0.8660254037844388 1.9229626863835643e-16
vn 0 2.220446049250313e-16 -1
vn 0 -2.220446049250313e-16 1
vn -0.8660254037844388 0.5000000000000001 1.1102230246251568e-16
vn 0 2.220446049250313e-16 -1
vn 0 -2.220446049250313e-16 1
vn -1 0 0
vn 0 2.220446049250313e-16 -1
vn 0 -2.220446049250313e-16 1
vn -0.8660254037844387 -0.5000000000000001 -1.1102230246251568e-16
vn 0 2.220446049250313e-16 -1
vn 0 -2.220446049250313e-16 1
vn -0.5000000000000001 -0.8660254037844386 -1.9229626863835638e-16
vn 0 2.220446049250313e-16 -1
vn 0 -2.220446049250313e-16 1
vn -4.143408735633879e-16 -1 -2.220446049250313e-16
vn 0 2.220446049250313e-16 -1
vn 0 -2.220446049250313e-16 1
vn 0.4999999999999996 -0.866025403784439 -1.9229626863835648e-16
vn 0 2.220446049250313e-16 -1
vn 0 -2.220446049250313e-16 1
vn 0.8660254037844392 -0.4999999999999995 -1.1102230246251554e-16
vn 0 2.220446049250313e-16 -1
vn 0 -2.220446049250313e-16 1
vn 1 -6.215113103450823e-16 -1.3800323336201233e-31
vn 0 2.220446049250313e-16 -1
vn 0 -2.220446049250313e-16 1
vn 0.8660254037844388 0.49999999999999967 1.1102230246251558e-16
vn 0 2.220446049250313e-16 -1
vn 0 -2.220446049250313e-16 1
vn 0.4999999999999999 0.8660254037844386 1.9229626863835638e-16
vn 0 2.220446049250313e-16 -1
vn 0 -2.220446049250313e-16 1
vn 0 1 2.220446049250313e-16
vn 0 2.220446049250313e-16 -1
usemtl m_4a76a50a-6332-4647-e48e-1cc4a548032a
f 295/1048/338 297/1049/338 293/1050/338
f 298/1051/339 297/1052/339 295/1053/339 296/1054/339
f 298/1055/340 296/1056/340 294/1057/340
f 297/1058/341 299/1059/341 293/1060/341
f 300/1061/342 299/1062/342 297/1063/342 298/1064/342
f 300/1065/343 298/1066/343 294/1067/343
f 299/1068/344 301/1069/344 293/1070/344
f 302/1071/345 301/1072/345 299/1073/345 300/1074/345
f 302/1075/346 300/1076/346 294/1077/346
f 301/1078/347 303/1079/347 293/1080/347
f 304/1081/348 303/1082/348 301/1083/348 302/1084/348
f 304/1085/349 302/1086/349 294/1087/349
f 303/1088/350 305/1089/350 293/1090/350
f 306/1091/351 305/1092/351 303/1093/351 304/1094/351
f 306/1095/352 304/1096/352 294/1097/352
f 305/1098/353 307/1099/353 293/1100/353
f 308/1101/354 307/1102/354 305/1103/354 306/1104/354
f 308/1105/355 306/1106/355 294/1107/355
f 307/1108/356 309/1109/356 293/1110/356
f 310/1111/357 309/1112/357 307/1113/357 308/1114/357
f 310/1115/358 308/1116/358 294/1117/358
f 309/1118/359 311/1119/359 293/1120/359
f 312/1121/360 311/1122/360 309/1123/360 310/1124/360
f 312/1125/361 310/1126/361 294/1127/361
f 311/1128/362 313/1129/362 293/1130/362
f 314/1131/363 313/1132/363 311/1133/363 312/1134/363
f 314/1135/364 312/1136/364 294/1137/364
f 313/1138/365 315/1139/365 293/1140/365
f 316/1141/366 315/1142/366 313/1143/366 314/1144/366
f 316/1145/367 314/1146/367 294/1147/367
f 315/1148/368 317/1149/368 293/1150/368
f 318/1151/369 317/1152/369 315/1153/369 316/1154/369
f 318/1155/370 316/1156/370 294/1157/370
f 317/1158/371 295/1159/371 293/1160/371
f 296/1161/372 295/1162/372 317/1163/372 318/1164/372
f 296/1165/373 318/1166/373 294/1167/373
o cylinder
v -2.40625 2.546875 0.03125
v -2.40625 2.546875 -0.03125
v -2.4146234122634724 2.578125 0.03125000000000001
v -2.4146234122634724 2.578125 -0.031249999999999993
v -2.4291265877365276 2.5697515877365276 0.03125000000000001
v -2.4291265877365276 2.5697515877365276 -0.031249999999999993
v -2.4375 2.5552484122634724 0.03125
v -2.4375 2.5552484122634724 -0.03125
v -2.4375 2.5385015877365276 0.031249999999999997
v -2.4375 2.5385015877365276 -0.03125
v -2.4291265877365276 2.5239984122634724 0.031249999999999997
v -2.4291265877365276 2.5239984122634724 -0.03125
v -2.4146234122634724 2.515625 0.031249999999999993
v -2.4146234122634724 2.515625 -0.03125
v -2.3978765877365276 2.515625 0.031249999999999993
v -2.3978765877365276 2.515625 -0.03125
v -2.3833734122634724 2.5239984122634724 0.031249999999999997
v -2.3833734122634724 2.5239984122634724 -0.03125
v -2.375 2.5385015877365276 0.031249999999999997
v -2.375 2.5385015877365276 -0.03125
v -2.375 2.5552484122634724 0.03125
v -2.375 2.5552484122634724 -0.03125
v -2.3833734122634724 2.5697515877365276 0.03125000000000001
v -2.3833734122634724 2.5697515877365276 -0.031249999999999993
v -2.3978765877365276 2.578125 0.03125000000000001
v -2.3978765877365276 2.578125 -0.031249999999999993
vt 0.003502388275564618 1
vt 0.004043766904910569 0.9979781165475448
vt 0 0.9979781165475448
vt 0.0020937500000001137 1
vt 0.0020937500000001137 0.9921875
vt 1.1362438767648086e-16 0.9921875
vt 1.1362438767648086e-16 1
vt 0.0020217174428785846 0.9964978992929371
vt 8.673617379884035e-19 0.9959559010486729
vt 0 1
vt 0.0035021007070629023 1
vt 0.004044098951327107 0.9979782825571214
vt 0 0.9979782825571214
vt 0.0020937500000001137 1
vt 0.0020937500000001137 0.9921875
vt 1.1362438767648086e-16 0.9921875
vt 1.1362438767648086e-16 1
vt 0.0020218834524552845 0.9964976117244354
vt 4.336808689942018e-19 0.9959562330950894
vt 0 1
vt 0.00390625 0.9999999999999999
vt 0.00390625 0.9979062499999999
vt 0 0.9989531249999999
vt 0.0020937500000001137 1
vt 0.0020937500000001137 0.9921875
vt 1.1362438767648086e-16 0.9921875
vt 1.1362438767648086e-16 1
vt 0.00390625 0.9999999999999999
vt 0.00390625 0.9979062499999999
vt 0 0.9989531249999999
vt 0.0020218834524552845 0.9964976117244354
vt 4.336808689942018e-19 0.9959562330950894
vt 0 1
vt 0.0020937500000001137 1
vt 0.0020937500000001137 0.9921875
vt 1.1362438767648086e-16 0.9921875
vt 1.1362438767648086e-16 1
vt 0.0035021007070629023 1
vt 0.004044098951327107 0.9979782825571214
vt 0 0.9979782825571214
vt 0.0020217174428785846 0.9964978992929371
vt 8.673617379884035e-19 0.9959559010486729
vt 0 1
vt 0.0020937500000001137 1
vt 0.0020937500000001137 0.9921875
vt 1.1362438767648086e-16 0.9921875
vt 1.1362438767648086e-16 1
vt 0.003502388275564618 1
vt 0.004043766904910569 0.9979781165475448
vt 0 0.9979781165475448
vt 0.0020937500000001137 0.99609375
vt 1.1362438767648086e-16 0.99609375
vt 0.0010468750000001137 1
vt 0.0020937500000001137 1
vt 0.0020937500000001137 0.9921875
vt 1.1362438767648086e-16 0.9921875
vt 1.1362438767648086e-16 1
vt 1.1362438767648086e-16 1
vt 0.0020937500000001137 1
vt 0.0010468750000001137 0.99609375
vt 0.0005413786293459507 0.9979781165475448
vt 0 1
vt 0.004043766904910569 1
vt 0.0020937500000001137 1
vt 0.0020937500000001137 0.9921875
vt 1.1362438767648086e-16 0.9921875
vt 1.1362438767648086e-16 1
vt 0 0.9994580017557358
vt 0.0020217174428785838 1
vt 0.0020217174428785846 0.9959559010486729
vt 0.0005419982442642045 0.9979782825571214
vt 0 1
vt 0.004044098951327107 1
vt 0.0020937500000001137 1
vt 0.0020937500000001137 0.9921875
vt 1.1362438767648086e-16 0.9921875
vt 1.1362438767648086e-16 1
vt 0 0.999458621370654
vt 0.002021883452455284 1
vt 0.0020218834524552845 0.9959562330950894
vt 0 0.9979062499999999
vt 0 0.9999999999999999
vt 0.00390625 0.9989531249999999
vt 0.0020937500000001137 1
vt 0.0020937500000001137 0.9921875
vt 1.1362438767648086e-16 0.9921875
vt 1.1362438767648086e-16 1
vt 0 0.9979062499999999
vt 0 0.9999999999999999
vt 0.00390625 0.9989531249999999
vt 0 0.999458621370654
vt 0.002021883452455284 1
vt 0.0020218834524552845 0.9959562330950894
vt 0.0020937500000001137 1
vt 0.0020937500000001137 0.9921875
vt 1.1362438767648086e-16 0.9921875
vt 1.1362438767648086e-16 1
vt 0.0005419982442642045 0.9979782825571214
vt 0 1
vt 0.004044098951327107 1
vt 0 0.9994580017557358
vt 0.0020217174428785838 1
vt 0.0020217174428785846 0.9959559010486729
vt 0.0020937500000001137 1
vt 0.0020937500000001137 0.9921875
vt 1.1362438767648086e-16 0.9921875
vt 1.1362438767648086e-16 1
vt 0.0005413786293459507 0.9979781165475448
vt 0 1
vt 0.004043766904910569 1
vt 1.1362438767648086e-16 1
vt 0.0020937500000001137 1
vt 0.0010468750000001137 0.99609375
vt 0.0020937500000001137 1
vt 0.0020937500000001137 0.9921875
vt 1.1362438767648086e-16 0.9921875
vt 1.1362438767648086e-16 1
vt 0.0020937500000001137 0.99609375
vt 1.1362438767648086e-16 0.99609375
vt 0.0010468750000001137 1
vn 0 -2.220446049250313e-16 1
vn -0.4999999999999999 0.8660254037844388 1.9229626863835643e-16
vn 0 2.220446049250313e-16 -1
vn 0 -2.220446049250313e-16 1
vn -0.8660254037844388 0.5 1.1102230246251565e-16
vn 0 2.220446049250313e-16 -1
vn 0 -2.220446049250313e-16 1
vn -1 0 0
vn 0 2.220446049250313e-16 -1
vn 0 -2.220446049250313e-16 1
vn -0.8660254037844388 -0.5 -1.1102230246251565e-16
vn 0 2.220446049250313e-16 -1
vn 0 -2.220446049250313e-16 1
vn -0.5000000000000001 -0.8660254037844388 -1.9229626863835643e-16
vn 0 2.220446049250313e-16 -1
vn 0 -2.220446049250313e-16 1
vn -4.143408735633879e-16 -1 -2.220446049250313e-16
vn 0 2.220446049250313e-16 -1
vn 0 -2.220446049250313e-16 1
vn 0.4999999999999996 -0.8660254037844389 -1.9229626863835646e-16
vn 0 2.220446049250313e-16 -1
vn 0 -2.220446049250313e-16 1
vn 0.8660254037844389 -0.4999999999999998 -1.110223024625156e-16
vn 0 2.220446049250313e-16 -1
vn 0 -2.220446049250313e-16 1
vn 1 -2.0717043678169412e-16 -4.6001077787337445e-32
vn 0 2.220446049250313e-16 -1
vn 0 -2.220446049250313e-16 1
vn 0.8660254037844389 0.4999999999999996 1.1102230246251557e-16
vn 0 2.220446049250313e-16 -1
vn 0 -2.220446049250313e-16 1
vn 0.4999999999999999 0.8660254037844386 1.9229626863835638e-16
vn 0 2.220446049250313e-16 -1
vn 0 -2.220446049250313e-16 1
vn 0 1 2.220446049250313e-16
vn 0 2.220446049250313e-16 -1
usemtl m_4a76a50a-6332-4647-e48e-1cc4a548032a
f 321/1168/374 323/1169/374 319/1170/374
f 324/1171/375 323/1172/375 321/1173/375 322/1174/375
f 324/1175/376 322/1176/376 320/1177/376
f 323/1178/377 325/1179/377 319/1180/377
f 326/1181/378 325/1182/378 323/1183/378 324/1184/378
f 326/1185/379 324/1186/379 320/1187/379
f 325/1188/380 327/1189/380 319/1190/380
f 328/1191/381 327/1192/381 325/1193/381 326/1194/381
f 328/1195/382 326/1196/382 320/1197/382
f 327/1198/383 329/1199/383 319/1200/383
f 330/1201/384 329/1202/384 327/1203/384 328/1204/384
f 330/1205/385 328/1206/385 320/1207/385
f 329/1208/386 331/1209/386 319/1210/386
f 332/1211/387 331/1212/387 329/1213/387 330/1214/387
f 332/1215/388 330/1216/388 320/1217/388
f 331/1218/389 333/1219/389 319/1220/389
f 334/1221/390 333/1222/390 331/1223/390 332/1224/390
f 334/1225/391 332/1226/391 320/1227/391
f 333/1228/392 335/1229/392 319/1230/392
f 336/1231/393 335/1232/393 333/1233/393 334/1234/393
f 336/1235/394 334/1236/394 320/1237/394
f 335/1238/395 337/1239/395 319/1240/395
f 338/1241/396 337/1242/396 335/1243/396 336/1244/396
f 338/1245/397 336/1246/397 320/1247/397
f 337/1248/398 339/1249/398 319/1250/398
f 340/1251/399 339/1252/399 337/1253/399 338/1254/399
f 340/1255/400 338/1256/400 320/1257/400
f 339/1258/401 341/1259/401 319/1260/401
f 342/1261/402 341/1262/402 339/1263/402 340/1264/402
f 342/1265/403 340/1266/403 320/1267/403
f 341/1268/404 343/1269/404 319/1270/404
f 344/1271/405 343/1272/405 341/1273/405 342/1274/405
f 344/1275/406 342/1276/406 320/1277/406
f 343/1278/407 321/1279/407 319/1280/407
f 322/1281/408 321/1282/408 343/1283/408 344/1284/408
f 322/1285/409 344/1286/409 320/1287/409
o cylinder
v -2.328125 3.125 0.03125
v -2.328125 3.125 -0.03125
v -2.3364984122634724 3.15625 0.03125000000000001
v -2.3364984122634724 3.15625 -0.031249999999999993
v -2.3510015877365276 3.1478765877365276 0.03125000000000001
v -2.3510015877365276 3.1478765877365276 -0.031249999999999993
v -2.359375 3.1333734122634724 0.03125
v -2.359375 3.1333734122634724 -0.03125
v -2.359375 3.1166265877365276 0.031249999999999997
v -2.359375 3.1166265877365276 -0.03125
v -2.3510015877365276 3.1021234122634724 0.031249999999999997
v -2.3510015877365276 3.1021234122634724 -0.03125
v -2.3364984122634724 3.09375 0.031249999999999993
v -2.3364984122634724 3.09375 -0.03125
v -2.3197515877365276 3.09375 0.031249999999999993
v -2.3197515877365276 3.09375 -0.03125
v -2.3052484122634724 3.1021234122634724 0.031249999999999997
v -2.3052484122634724 3.1021234122634724 -0.03125
v -2.296875 3.1166265877365276 0.031249999999999997
v -2.296875 3.1166265877365276 -0.03125
v -2.296875 3.1333734122634724 0.03125
v -2.296875 3.1333734122634724 -0.03125
v -2.3052484122634724 3.1478765877365276 0.03125000000000001
v -2.3052484122634724 3.1478765877365276 -0.031249999999999993
v -2.3197515877365276 3.15625 0.03125000000000001
v -2.3197515877365276 3.15625 -0.031249999999999993
vt 0.003502388275564618 1
vt 0.004043766904910569 0.9979781165475448
vt 0 0.9979781165475448
vt 0.0020937500000001137 1
vt 0.0020937500000001137 0.9921875
vt 1.1362438767648086e-16 0.9921875
vt 1.1362438767648086e-16 1
vt 0.0020217174428785846 0.9964978992929371
vt 8.673617379884035e-19 0.9959559010486729
vt 0 1
vt 0.0035021007070629023 1
vt 0.004044098951327107 0.9979782825571214
vt 0 0.9979782825571214
vt 0.0020937500000001137 1
vt 0.0020937500000001137 0.9921875
vt 1.1362438767648086e-16 0.9921875
vt 1.1362438767648086e-16 1
vt 0.0020218834524552845 0.9964976117244354
vt 4.336808689942018e-19 0.9959562330950894
vt 0 1
vt 0.00390625 0.9999999999999999
vt 0.00390625 0.9979062499999999
vt 0 0.9989531249999999
vt 0.0020937500000001137 1
vt 0.0020937500000001137 0.9921875
vt 1.1362438767648086e-16 0.9921875
vt 1.1362438767648086e-16 1
vt 0.00390625 0.9999999999999999
vt 0.00390625 0.9979062499999999
vt 0 0.9989531249999999
vt 0.0020218834524552845 0.9964976117244354
vt 4.336808689942018e-19 0.9959562330950894
vt 0 1
vt 0.0020937500000001137 1
vt 0.0020937500000001137 0.9921875
vt 1.1362438767648086e-16 0.9921875
vt 1.1362438767648086e-16 1
vt 0.0035021007070629023 1
vt 0.004044098951327107 0.9979782825571214
vt 0 0.9979782825571214
vt 0.0020217174428785846 0.9964978992929371
vt 8.673617379884035e-19 0.9959559010486729
vt 0 1
vt 0.0020937500000001137 1
vt 0.0020937500000001137 0.9921875
vt 1.1362438767648086e-16 0.9921875
vt 1.1362438767648086e-16 1
vt 0.003502388275564618 1
vt 0.004043766904910569 0.9979781165475448
vt 0 0.9979781165475448
vt 0.0020937500000001137 0.99609375
vt 1.1362438767648086e-16 0.99609375
vt 0.0010468750000001137 1
vt 0.0020937500000001137 1
vt 0.0020937500000001137 0.9921875
vt 1.1362438767648086e-16 0.9921875
vt 1.1362438767648086e-16 1
vt 1.1362438767648086e-16 1
vt 0.0020937500000001137 1
vt 0.0010468750000001137 0.99609375
vt 0.0005413786293459507 0.9979781165475448
vt 0 1
vt 0.004043766904910569 1
vt 0.0020937500000001137 1
vt 0.0020937500000001137 0.9921875
vt 1.1362438767648086e-16 0.9921875
vt 1.1362438767648086e-16 1
vt 0 0.9994580017557358
vt 0.0020217174428785838 1
vt 0.0020217174428785846 0.9959559010486729
vt 0.0005419982442642045 0.9979782825571214
vt 0 1
vt 0.004044098951327107 1
vt 0.0020937500000001137 1
vt 0.0020937500000001137 0.9921875
vt 1.1362438767648086e-16 0.9921875
vt 1.1362438767648086e-16 1
vt 0 0.999458621370654
vt 0.002021883452455284 1
vt 0.0020218834524552845 0.9959562330950894
vt 0 0.9979062499999999
vt 0 0.9999999999999999
vt 0.00390625 0.9989531249999999
vt 0.0020937500000001137 1
vt 0.0020937500000001137 0.9921875
vt 1.1362438767648086e-16 0.9921875
vt 1.1362438767648086e-16 1
vt 0 0.9979062499999999
vt 0 0.9999999999999999
vt 0.00390625 0.9989531249999999
vt 0 0.999458621370654
vt 0.002021883452455284 1
vt 0.0020218834524552845 0.9959562330950894
vt 0.0020937500000001137 1
vt 0.0020937500000001137 0.9921875
vt 1.1362438767648086e-16 0.9921875
vt 1.1362438767648086e-16 1
vt 0.0005419982442642045 0.9979782825571214
vt 0 1
vt 0.004044098951327107 1
vt 0 0.9994580017557358
vt 0.0020217174428785838 1
vt 0.0020217174428785846 0.9959559010486729
vt 0.0020937500000001137 1
vt 0.0020937500000001137 0.9921875
vt 1.1362438767648086e-16 0.9921875
vt 1.1362438767648086e-16 1
vt 0.0005413786293459507 0.9979781165475448
vt 0 1
vt 0.004043766904910569 1
vt 1.1362438767648086e-16 1
vt 0.0020937500000001137 1
vt 0.0010468750000001137 0.99609375
vt 0.0020937500000001137 1
vt 0.0020937500000001137 0.9921875
vt 1.1362438767648086e-16 0.9921875
vt 1.1362438767648086e-16 1
vt 0.0020937500000001137 0.99609375
vt 1.1362438767648086e-16 0.99609375
vt 0.0010468750000001137 1
vn 0 -2.220446049250313e-16 1
vn -0.4999999999999999 0.8660254037844388 1.9229626863835643e-16
vn 0 2.220446049250313e-16 -1
vn 0 -2.220446049250313e-16 1
vn -0.8660254037844388 0.5 1.1102230246251565e-16
vn 0 2.220446049250313e-16 -1
vn 0 -2.220446049250313e-16 1
vn -1 0 0
vn 0 2.220446049250313e-16 -1
vn 0 -2.220446049250313e-16 1
vn -0.8660254037844388 -0.5 -1.1102230246251565e-16
vn 0 2.220446049250313e-16 -1
vn 0 -2.220446049250313e-16 1
vn -0.5000000000000001 -0.8660254037844388 -1.9229626863835643e-16
vn 0 2.220446049250313e-16 -1
vn 0 -2.220446049250313e-16 1
vn -4.143408735633879e-16 -1 -2.220446049250313e-16
vn 0 2.220446049250313e-16 -1
vn 0 -2.220446049250313e-16 1
vn 0.4999999999999996 -0.8660254037844389 -1.9229626863835646e-16
vn 0 2.220446049250313e-16 -1
vn 0 -2.220446049250313e-16 1
vn 0.8660254037844389 -0.4999999999999998 -1.110223024625156e-16
vn 0 2.220446049250313e-16 -1
vn 0 -2.220446049250313e-16 1
vn 1 -2.0717043678169412e-16 -4.6001077787337445e-32
vn 0 2.220446049250313e-16 -1
vn 0 -2.220446049250313e-16 1
vn 0.8660254037844389 0.4999999999999996 1.1102230246251557e-16
vn 0 2.220446049250313e-16 -1
vn 0 -2.220446049250313e-16 1
vn 0.4999999999999999 0.8660254037844386 1.9229626863835638e-16
vn 0 2.220446049250313e-16 -1
vn 0 -2.220446049250313e-16 1
vn 0 1 2.220446049250313e-16
vn 0 2.220446049250313e-16 -1
usemtl m_4a76a50a-6332-4647-e48e-1cc4a548032a
f 347/1288/410 349/1289/410 345/1290/410
f 350/1291/411 349/1292/411 347/1293/411 348/1294/411
f 350/1295/412 348/1296/412 346/1297/412
f 349/1298/413 351/1299/413 345/1300/413
f 352/1301/414 351/1302/414 349/1303/414 350/1304/414
f 352/1305/415 350/1306/415 346/1307/415
f 351/1308/416 353/1309/416 345/1310/416
f 354/1311/417 353/1312/417 351/1313/417 352/1314/417
f 354/1315/418 352/1316/418 346/1317/418
f 353/1318/419 355/1319/419 345/1320/419
f 356/1321/420 355/1322/420 353/1323/420 354/1324/420
f 356/1325/421 354/1326/421 346/1327/421
f 355/1328/422 357/1329/422 345/1330/422
f 358/1331/423 357/1332/423 355/1333/423 356/1334/423
f 358/1335/424 356/1336/424 346/1337/424
f 357/1338/425 359/1339/425 345/1340/425
f 360/1341/426 359/1342/426 357/1343/426 358/1344/426
f 360/1345/427 358/1346/427 346/1347/427
f 359/1348/428 361/1349/428 345/1350/428
f 362/1351/429 361/1352/429 359/1353/429 360/1354/429
f 362/1355/430 360/1356/430 346/1357/430
f 361/1358/431 363/1359/431 345/1360/431
f 364/1361/432 363/1362/432 361/1363/432 362/1364/432
f 364/1365/433 362/1366/433 346/1367/433
f 363/1368/434 365/1369/434 345/1370/434
f 366/1371/435 365/1372/435 363/1373/435 364/1374/435
f 366/1375/436 364/1376/436 346/1377/436
f 365/1378/437 367/1379/437 345/1380/437
f 368/1381/438 367/1382/438 365/1383/438 366/1384/438
f 368/1385/439 366/1386/439 346/1387/439
f 367/1388/440 369/1389/440 345/1390/440
f 370/1391/441 369/1392/441 367/1393/441 368/1394/441
f 370/1395/442 368/1396/442 346/1397/442
f 369/1398/443 347/1399/443 345/1400/443
f 348/1401/444 347/1402/444 369/1403/444 370/1404/444
f 348/1405/445 370/1406/445 346/1407/445