# Made in Blockbench 5.1.6
mtllib nyc_subway_tunnel.mtl

o mesh
v -1.836573125 0.663426875 -0.296875
v -1.356799375 0.238599375 -0.296875
v -1.896273125 0.603726875 -0.296875
v -1.087339375 0 -0.296875
v -1.00426875 0 -0.296875
v 2.5 0 -0.296875
v 1.280024375 0.186636875 -0.296875
v 2.5 1.012340625 -0.296875
v 1.00426875 0 -0.296875
v -2.5 0 -0.296875
v 1.356799375 0.238599375 -0.296875
v 1.869341875 0.6924425 -0.296875
v 1.762466875 0.51316375 -0.296875
v 2.03788 0.975159375 -0.296875
v 2.5 1.750349375 -0.296875
v 2.20369125 0.9885 -0.296875
v 1.876506875 0.70446125 -0.296875
v 2.24172625 1.317104375 -0.296875
v 2.4375 2.051438125 -0.296875
v 2.4375 1.645508125 -0.296875
v 2.5 5 -0.296875
v 2.306518125 3.31486625 -0.296875
v 1.9925475 4.4925475 -0.296875
v 2.5 2.28587125 -0.296875
v 2.4375 2.108601875 -0.296875
v 2.4375 4.455655625 -0.296875
v 2.4375 2.823561875 -0.296875
v 2.490206875 2.625863125 -0.296875
v 2.24172625 3.557895625 -0.296875
v 1.999353125 3.9644675 -0.296875
v 1.869341875 4.1825575 -0.296875
v 1.99801125 4.068624375 -0.296875
v 1.79958 4.29958 -0.296875
v 1.803809375 4.240585 -0.296875
v 1.770276875 4.270276875 -0.296875
v -1.84626625 0.65373375 -0.296875
v -1.869341875 0.6924425 -0.296875
v -2.138801875 0.9310425 -0.296875
v -2.24172625 1.317104375 -0.296875
v -2.265651875 3.4681525 -0.296875
v -2.27169125 3.507630625 -0.296875
v -2.24172625 3.557895625 -0.296875
v -2.5 1.750349375 -0.296875
v -2.24650875 1.335043125 -0.296875
v -2.5 2.28587125 -0.296875
v -2.5 1.25087375 -0.296875
v -2.4375 2.13302375 -0.296875
v -2.4375 2.051438125 -0.296875
v -2.4375 4.591460625 -0.296875
v -2.4375 2.823561875 -0.296875
v -2.5 5 -0.296875
v -2.138801875 3.9439575 -0.296875
v -1.869341875 4.182556875 -0.296875
v -1.853428125 4.19664875 -0.296875
v -1.853920625 4.29993875 -0.296875
v -1.356799375 4.636400625 -0.296875
v -1.85726 5 -0.296875
v -1.8534875 4.2091525 -0.296875
v -1.867250625 4.184409375 -0.296875
v -0.946171875 5 -0.296875
v -0.819581875 5 -0.296875
v -1.356799375 4.6364 -0.296875
v 1.179588125 4.756340625 -0.296875
v 1.214145 4.7627175 -0.296875
v 1.356799375 4.6364 -0.296875
v -0.98044625 4.875 -0.296875
v -1.00426875 4.875 -0.296875
v 1.822614375 4.875 -0.296875
v 1.00426875 4.875 -0.296875
v 1.8217275 4.3217275 -0.296875
v 1.716226875 4.318136875 -0.296875
v -2.5 0 0.296875
v -1.087339375 0 0.296875
v -2.5 1.25087375 0.296875
v -1.00426875 0 0.296875
v -1.356799375 0.238599375 0.296875
v -2.150053125 1.163325625 0.296875
v -2.24172625 1.317104375 0.296875
v -2.20435 1.176909375 0.296875
v -1.869341875 0.6924425 0.296875
v -1.9062125 0.754291875 0.296875
v -2.5 1.750349375 0.296875
v -2.5 2.28587125 0.296875
v -2.336156875 3.2036925 0.296875
v -2.24172625 3.557895625 0.296875
v -2.35164625 3.37350875 0.296875
v 2.5 0 0.296875
v 1.4079325 0.2732075 0.296875
v 1.00426875 0 0.296875
v -2.4375 2.051438125 0.296875
v -2.4375 2.08538625 0.296875
v -2.4375 4.31477625 0.296875
v -2.4375 2.823561875 0.296875
v -2.5 5 0.296875
v -1.9925475 4.4925475 0.296875
v -2.0190975 3.931346875 0.296875
v -1.869341875 4.182556875 0.296875
v -2.01324125 4.055138125 0.296875
v -1.79958 4.29958 0.296875
v -1.869341875 4.1825575 0.296875
v -1.8064325 4.238261875 0.296875
v -1.770276875 4.270276875 0.296875
v 1.836573125 0.663426875 0.296875
v 1.3985375 0.275558125 0.296875
v 1.39411625 0.271643125 0.296875
v 1.356799375 0.238599375 0.296875
v 1.00426875 0 -0.1192546875
v -1.00426875 0 0.1192546875
v 1.00426875 0 0.22106499999999998
v 1.00426875 0 -0.00505875
v -1.356799375 4.636400625 0.296875
v -1.8217275 4.3217275 0.296875
v -0.946171875 5 0.296875
v -0.819581875 5 0.296875
v 2.5 1.25087375 0.296875
v -1.00426875 4.875 0.296875
v -0.98243375 4.875 0.296875
v 1.768510625 4.875 0.296875
v 1.00426875 4.875 0.296875
v 1.158328125 4.770729375 0.296875
v 1.869341875 0.6924425 0.296875
v 2.138801875 0.9310425 0.296875
v 2.24172625 1.317104375 0.296875
v 1.356799375 4.6364 0.296875
v 1.197530625 4.77742875 0.296875
v 2.5 1.750349375 0.296875
v 2.24650875 1.335043125 0.296875
v 2.4375 1.647953125 0.296875
v 2.4375 2.051438125 0.296875
v 2.5 2.28587125 0.296875
v 2.4375 2.13302375 0.296875
v 2.4375 4.591460625 0.296875
v 2.265651875 3.4681525 0.296875
v 2.4375 2.823561875 0.296875
v 0.94554125 4.9147475 0.296875
v 2.5 5 0.296875
v 1.98065375 3.995835625 0.296875
v 2.089181875 3.987895 0.296875
v 1.869341875 4.1825575 0.296875
v 2.342330625 3.969373125 0.296875
v 2.1278425 3.98506625 0.296875
v 2.49084875 2.623454375 0.296875
v 2.10979125 3.7792125 0.296875
v 2.24172625 3.557895625 0.296875
v 1.762466875 4.36183625 0.296875
v 1.356799375 4.636400625 0.296875
v -1.576460625 0.43310375 0.296875
v -1.649680625 0.49793875 -0.296875
v -1.70459625 0.546564375 0.296875
v -1.00426875 0 -0.296875
v -1.155353125 0.102256875 0.296875
v -1.205715 0.1363425 -0.296875
v -1.243485625 0.161906875 0.296875
v -2.082133125 1.049391875 -0.296875
v -2.12203125 1.11632 0.296875
v -2.028935 0.960155 0.296875
v -2.353596875 1.736723125 -0.296875
v -2.3745725 1.815401875 0.296875
v -2.325629375 1.63181875 0.296875
v -2.4375 2.492651875 -0.296875
v -2.4375 2.575379375 0.296875
v -2.4375 2.382348125 0.296875
v -2.353596875 3.138276875 0.296875
v -2.325629375 3.24318125 -0.296875
v -2.304653125 3.32186 0.296875
v -2.24172625 3.557895625 -0.296875
v -2.24172625 3.557895625 0.296875
v -2.082133125 3.8256075 0.296875
v -2.028935 3.914845 -0.296875
v -1.989036875 3.981773125 0.296875
v -1.649680625 4.37706125 0.296875
v -1.576460625 4.44189625 -0.296875
v -1.521545 4.4905225 0.296875
v -1.356799375 4.6364 0.296875
v -1.205715 4.7386575 0.296875
v -1.155353125 4.772743125 -0.296875
v -1.1175825 4.7983075 0.296875
v 1.155353125 0.102256875 -0.296875
v 1.1175825 0.0766925 0.296875
v 1.205715 0.1363425 0.296875
v 1.00426875 0 -0.296875
v 1.649680625 0.49793875 0.296875
v 1.576460625 0.43310375 -0.296875
v 1.521545 0.3844775 0.296875
v 2.082133125 1.049391875 0.296875
v 2.028935 0.960155 -0.296875
v 1.989036875 0.893226875 0.296875
v 2.082133125 1.049391875 0.296875
v 2.325629375 1.63181875 -0.296875
v 2.304653125 1.55314 0.296875
v 2.353596875 1.736723125 0.296875
v -0.143466875 4.875 0.296875
v 0.143466875 4.875 -0.296875
v 0.3586675 4.875 0.296875
v 1.205715 4.7386575 -0.296875
v 1.243485625 4.713093125 0.296875
v 1.155353125 4.772743125 0.296875
v 2.4375 2.382348125 -0.296875
v 2.4375 2.299620625 0.296875
v 2.4375 2.492651875 0.296875
v 2.325629375 3.24318125 0.296875
v 2.353596875 3.138276875 -0.296875
v 2.3745725 3.059598125 0.296875
v 1.869341875 4.182556875 -0.296875
v 2.028935 3.914845 0.296875
v 1.869341875 4.182556875 0.296875
v 2.082133125 3.8256075 -0.296875
v 2.082133125 3.8256075 -0.296875
v 2.12203125 3.75868 0.296875
v 2.24172625 3.557895625 -0.296875
v 2.24172625 3.557895625 0.296875
v 1.576460625 4.44189625 0.296875
v 1.649680625 4.37706125 -0.296875
v 1.70459625 4.328435625 0.296875
vt 0 1
vt 0 1
vt 0 1
vt 0 1
vt 0 1
vt 0 1
vt 0 1
vt 0 1
vt 0 1
vt 0 1
vt 0 1
vt 0 1
vt 0 1
vt 0 1
vt 0 1
vt 0 1
vt 0 1
vt 0 1
vt 0 1
vt 0 1
vt 0 1
vt 0 1
vt 0 1
vt 0 1
vt 0 1
vt 0 1
vt 0 1
vt 0 1
vt 0 1
vt 0 1
vt 0 1
vt 0 1
vt 0 1
vt 0 1
vt 0 1
vt 0 1
vt 0 1
vt 0 1
vt 0 1
vt 0 1
vt 0 1
vt 0 1
vt 0 1
vt 0 1
vt 0 1
vt 0 1
vt 0 1
vt 0 1
vt 0 1
vt 0 1
vt 0 1
vt 0 1
vt 0 1
vt 0 1
vt 0 1
vt 0 1
vt 0 1
vt 0 1
vt 0 1
vt 0 1
vt 0 1
vt 0 1
vt 0 1
vt 0 1
vt 0 1
vt 0 1
vt 0 1
vt 0 1
vt 0 1
vt 0 1
vt 0 1
vt 0 1
vt 0 1
vt 0 1
vt 0 1
vt 0 1
vt 0 1
vt 0 1
vt 0 1
vt 0 1
vt 0 1
vt 0 1
vt 0 1
vt 0 1
vt 0 1
vt 0 1
vt 0 1
vt 0 1
vt 0 1
vt 0 1
vt 0 1
vt 0 1
vt 0 1
vt 0 1
vt 0 1
vt 0 1
vt 0 1
vt 0 1
vt 0 1
vt 0 1
vt 0 1
vt 0 1
vt 0 1
vt 0 1
vt 0 1
vt 0 1
vt 0 1
vt 0 1
vt 0 1
vt 0 1
vt 0 1
vt 0 1
vt 0 1
vt 0 1
vt 0 1
vt 0 1
vt 0 1
vt 0 1
vt 0 1
vt 0 1
vt 0 1
vt 0 1
vt 0 1
vt 0 1
vt 0 1
vt 0 1
vt 0 1
vt 0 1
vt 0 1
vt 0 1
vt 0 1
vt 0 1
vt 0 1
vt 0 1
vt 0 1
vt 0 1
vt 0 1
vt 0 1
vt 0 1
vt 0 1
vt 0 1
vt 0 1
vt 0 1
vt 0 1
vt 0 1
vt 0 1
vt 0 1
vt 0 1
vt 0 1
vt 0 1
vt 0 1
vt 0 1
vt 0 1
vt 0 1
vt 0 1
vt 0 1
vt 0 1
vt 0 1
vt 0 1
vt 0 1
vt 0 1
vt 0 1
vt 0 1
vt 0 1
vt 0 1
vt 0 1
vt 0 1
vt 0 1
vt 0 1
vt 0 1
vt 0 1
vt 0 1
vt 0 1
vt 0 1
vt 0 1
vt 0 1
vt 0 1
vt 0 1
vt 0 1
vt 0 1
vt 0 1
vt 0 1
vt 0 1
vt 0 1
vt 0 1
vt 0 1
vt 0 1
vt 0 1
vt 0 1
vt 0 1
vt 0 1
vt 0 1
vt 0 1
vt 0 1
vt 0 1
vt 0 1
vt 0 1
vt 0 1
vt 0 1
vt 0 1
vt 0 1
vt 0 1
vt 0 1
vt 0 1
vt 0 1
vt 0 1
vt 0 1
vt 0 1
vt 0 1
vt 0 1
vt 0 1
vt 0 1
vt 0 1
vt 0 1
vt 0 1
vt 0 1
vt 0 1
vt 0 1
vt 0 1
vt 0 1
vt 0 1
vt 0 1
vt 0 1
vt 0 1
vt 0 1
vt 0 1
vt 0 1
vt 0 1
vt 0 1
vt 0 1
vt 0 1
vt 0 1
vt 0 1
vt 0 1
vt 0 1
vt 0 1
vt 0 1
vt 0 1
vt 0 1
vt 0 1
vt 0 1
vt 0 1
vt 0 1
vt 0 1
vt 0 1
vt 0 1
vt 0 1
vt 0 1
vt 0 1
vt 0 1
vt 0 1
vt 0 1
vt 0 1
vt 0 1
vt 0 1
vt 0 1
vt 0 1
vt 0 1
vt 0 1
vt 0 1
vt 0 1
vt 0 1
vt 0 1
vt 0 1
vt 0 1
vt 0 1
vt 0 1
vt 0 1
vt 0 1
vt 0 1
vt 0 1
vt 0 1
vt 0 1
vt 0 1
vt 0 1
vt 0 1
vt 0 1
vt 0 1
vt 0 1
vt 0 1
vt 0 1
vt 0 1
vt 0 1
vt 0 1
vt 0 1
vt 0 1
vt 0 1
vt 0 1
vt 0 1
vt 0 1
vt 0 1
vt 0 1
vt 0 1
vt 0 1
vt 0 1
vt 0 1
vt 0 1
vt 0 1
vt 0 1
vt 0 1
vt 0 1
vt 0 1
vt 0 1
vt 0 1
vt 0 1
vt 0 1
vt 0 1
vt 0 1
vt 0 1
vt 0 1
vt 0 1
vt 0 1
vt 0 1
vt 0 1
vt 0 1
vt 0 1
vt 0 1
vt 0 1
vt 0 1
vt 0 1
vt 0 1
vt 0 1
vt 0 1
vt 0 1
vt 0 1
vt 0 1
vt 0 1
vt 0 1
vt 0 1
vt 0 1
vt 0 1
vt 0 1
vt 0 1
vt 0 1
vt 0 1
vt 0 1
vt 0 1
vt 0 1
vt 0 1
vt 0 1
vt 0 1
vt 0 1
vt 0 1
vt 0 1
vt 0 1
vt 0 1
vt 0 1
vt 0 1
vt 0 1
vt 0 1
vt 0 1
vt 0 1
vt 0 1
vt 0 1
vt 0 1
vt 0 1
vt 0 1
vt 0 1
vt 0 1
vt 0 1
vt 0 1
vt 0 1
vt 0 1
vt 0 1
vt 0 1
vt 0 1
vt 0 1
vt 0 1
vt 0 1
vt 0 1
vt 0 1
vt 0 1
vt 0 1
vt 0 1
vt 0 1
vt 0 1
vt 0 1
vt 0 1
vt 0 1
vt 0 1
vt 0 1
vt 0 1
vt 0 1
vt 0 1
vt 0 1
vt 0 1
vt 0 1
vt 0 1
vt 0 1
vt 0 1
vt 0 1
vt 0 1
vt 0 1
vt 0 1
vt 0 1
vt 0 1
vt 0 1
vt 0 1
vt 0 1
vt 0 1
vt 0 1
vt 0 1
vt 0 1
vt 0 1
vt 0 1
vt 0 1
vt 0 1
vt 0 1
vt 0 1
vt 0 1
vt 0 1
vt 0 1
vt 0 1
vt 0 1
vt 0 1
vt 0 1
vt 0 1
vt 0 1
vt 0 1
vt 0 1
vt 0 1
vt 0 1
vt 0 1
vt 0 1
vt 0 1
vt 0 1
vt 0 1
vt 0 1
vt 0 1
vt 0 1
vt 0 1
vt 0 1
vt 0 1
vt 0 1
vt 0 1
vt 0 1
vt 0 1
vt 0 1
vt 0 1
vt 0 1
vt 0 1
vt 0 1
vt 0 1
vt 0 1
vt 0 1
vt 0 1
vt 0 1
vt 0 1
vt 0 1
vt 0 1
vt 0 1
vt 0 1
vt 0 1
vt 0 1
vt 0 1
vt 0 1
vt 0 1
vt 0 1
vt 0 1
vt 0 1
vt 0 1
vt 0 1
vt 0 1
vt 0 1
vt 0 1
vt 0 1
vt 0 1
vt 0 1
vt 0 1
vt 0 1
vt 0 1
vt 0 1
vt 0 1
vt 0 1
vt 0 1
vt 0 1
vt 0 1
vt 0 1
vt 0 1
vt 0 1
vt 0 1
vt 0 1
vt 0 1
vt 0 1
vt 0 1
vt 0 1
vt 0 1
vt 0 1
vt 0 1
vt 0 1
vt 0 1
vt 0 1
vt 0 1
vt 0 1
vt 0 1
vt 0 1
vt 0 1
vt 0 1
vt 0 1
vt 0 1
vt 0 1
vt 0 1
vt 0 1
vt 0 1
vt 0 1
vt 0 1
vt 0 1
vt 0 1
vt 0 1
vt 0 1
vt 0 1
vt 0 1
vt 0 1
vt 0 1
vt 0 1
vt 0 1
vt 0 1
vt 0 1
vt 0 1
vt 0 1
vt 0 1
vt 0 1
vt 0 1
vt 0 1
vt 0 1
vt 0 1
vt 0 1
vt 0 1
vt 0 1
vt 0 1
vt 0 1
vt 0 1
vt 0 1
vt 0 1
vt 0 1
vt 0 1
vt 0 1
vt 0 1
vt 0 1
vt 0 1
vt 0 1
vt 0 1
vt 0 1
vt 0 1
vt 0 1
vt 0 1
vt 0 1
vt 0 1
vt 0 1
vt 0 1
vt 0 1
vt 0 1
vt 0 1
vt 0 1
vt 0 1
vt 0 1
vt 0 1
vt 0 1
vt 0 1
vt 0 1
vt 0 1
vt 0 1
vt 0 1
vt 0 1
vt 0 1
vt 0 1
vt 0 1
vt 0 1
vt 0 1
vt 0 1
vt 0 1
vt 0 1
vt 0 1
vt 0 1
vt 0 1
vt 0 1
vt 0 1
vt 0 1
vt 0 1
vt 0 1
vt 0 1
vt 0 1
vt 0 1
vt 0 1
vt 0 1
vt 0 1
vt 0 1
vt 0 1
vt 0 1
vt 0 1
vt 0 1
vt 0 1
vt 0 1
vt 0 1
vt 0 1
vt 0 1
vt 0 1
vt 0 1
vt 0 1
vt 0 1
vt 0 1
vt 0 1
vt 0 1
vt 0 1
vt 0 1
vt 0 1
vt 0 1
vt 0 1
vt 0 1
vt 0 1
vt 0 1
vt 0 1
vt 0 1
vt 0 1
vt 0 1
vt 0 1
vt 0 1
vt 0 1
vt 0 1
vt 0 1
vt 0 1
vt 0 1
vt 0 1
vt 0 1
vt 0 1
vt 0 1
vt 0 1
vt 0 1
vt 0 1
vt 0 1
vt 0 1
vt 0 1
vt 0 1
vt 0 1
vt 0 1
vt 0 1
vt 0 1
vt 0 1
vt 0 1
vt 0 1
vt 0 1
vt 0 1
vt 0 1
vt 0 1
vt 0 1
vt 0 1
vt 0 1
vt 0 1
vt 0 1
vt 0 1
vt 0 1
vt 0 1
vt 0 1
vt 0 1
vt 0 1
vt 0 1
vt 0 1
vt 0 1
vt 0 1
vt 0 1
vt 0 1
vt 0 1
vt 0 1
vt 0 1
vt 0 1
vt 0 1
vt 0 1
vt 0 1
vt 0 1
vt 0 1
vt 0 1
vt 0 1
vt 0 1
vt 0 1
vt 0 1
vt 0 1
vt 0 1
vt 0 1
vt 0 1
vt 0 1
vt 0 1
vt 0 1
vt 0 1
vt 0 1
vt 0 1
vt 0 1
vt 0 1
vn 0 0 -1
vn 0 0 -1
vn 0 0 -1
vn 0 0 -1
vn 0 0 -1
vn 0 0 -1
vn 0 0 -1
vn 0 0 -1
vn 0 0 -1
vn 0 0 -1
vn 0 0 -1
vn 0 0 -1
vn 0 0 -1
vn 0 0 -1
vn 0 0 -1
vn 0 0 -1
vn 0 0 -1
vn 0 0 -1
vn 0 0 -1
vn 0 0 -1
vn 0 0 -1
vn 0 0 -1
vn 0 0 -1
vn 0 0 -1
vn 0 0 -1
vn 0 0 -1
vn 0 0 -1
vn 0 0 -1
vn 0 0 -1
vn 0 0 -1
vn 0 0 -1
vn 0 0 -1
vn 0 0 -1
vn 0 0 -1
vn 0 0 -1
vn 0 0 -1
vn 0 0 -1
vn 0 0 -1
vn 0 0 -1
vn 0 0 -1
vn 0 0 -1
vn 0 0 -1
vn 0 0 -1
vn 0 0 -1
vn 0 0 -1
vn 0 0 -1
vn 0 0 -1
vn 0 0 -1
vn 0 0 -1
vn 0 0 -1
vn 0 0 -1
vn 0 0 -1
vn 0 0 -1
vn 0 0 -1
vn 0 0 -1
vn 0 0 -1
vn 0 0 -1
vn 0 0 -1
vn 0 0 -1
vn 0 0 -1
vn 0 0 -1
vn 0 0 1
vn 0 0 1
vn 0 0 1
vn 0 0 1
vn 0 0 1
vn 0 0 1
vn 0 0 1
vn 0 0 1
vn 0 0 1
vn 0 0 1
vn 0 0 1
vn 0 0 1
vn 0 0 1
vn 0 0 1
vn 0 0 1
vn 0 0 1
vn 0 0 1
vn 0 0 1
vn 0 0 1
vn 0 0 1
vn 0 0 1
vn 0 0 1
vn 0 0 1
vn 0 0 1
vn 0 0 1
vn 0 -1 0
vn 0 -1 0
vn 0 -1 0
vn 0 -1 0
vn 0 -1 0
vn 0 -1 0
vn 0 -1 0
vn 0 -1 0
vn 0 0 1
vn 0 0 1
vn 0 0 1
vn 0 0 1
vn 0 0 1
vn 0 0 1
vn 0 0 1
vn 0 0 1
vn 0 0 1
vn 0 0 1
vn 0 0 1
vn 0 0 1
vn 0 0 1
vn 0 0 1
vn 0 0 1
vn 0 0 1
vn 0 0 1
vn 0 0 1
vn 0 0 1
vn 0 0 1
vn 0 0 1
vn 0 0 1
vn 0 0 1
vn 0 0 1
vn 0 0 1
vn 0 0 1
vn 0 0 1
vn 0 0 1
vn 0 0 1
vn 0 0 1
vn 0 0 1
vn 0 0 1
vn 0 0 1
vn 0 0 1
vn 1 0 0
vn 1 0 0
vn 0 1 0
vn 0 1 0
vn -1 0 0
vn -1 0 0
vn 0.6629345223344021 0.7486773798487958 0
vn 0.6629353494745202 0.7486766474365272 5.459335121038432e-7
vn 0.6629339715411554 0.7486778675611758 8.490898280010793e-7
vn 0.6629348291768041 0.7486771081476458 0
vn 0.6629333283141623 0.7486784371208743 7.429535607672714e-7
vn 0.5605076771736085 0.8281492279954417 0
vn 0.5605068820607517 0.8281497661428442 -2.9500362221782537e-7
vn 0.5605089113013882 0.8281483927119793 -5.459688646734326e-7
vn 0.5605053037629391 0.82815083436148 0
vn 0.5605076771734863 0.828149227995261 -6.60440068441035e-7
vn 0.858952091757236 0.51205595794355 -6.184998718089034e-7
vn 0.8589533291153651 0.5120538823225846 0
vn 0.8589536231136642 0.5120533891498606 -2.2604042705222863e-7
vn 0.858953623113686 0.5120533891498736 0
vn 0.8589527877723377 0.5120547904056714 -8.563341961923552e-7
vn 0.9662511534244084 0.2576018410376504 -1.1621135671747844e-7
vn 0.9662507348732795 0.25760341099614226 0
vn 0.9662508940839188 0.257602813808318 -2.542765508723662e-7
vn 0.9662507667468674 0.2576032914407173 0
vn 0.9662508224864893 0.257603082365427 1.186959625793465e-7
vn 1 0 0
vn 1 0 0
vn 1 0 0
vn 1 0 0
vn 1 0 0
vn 0.9662508940839502 -0.25760281380832656 0
vn 0.9662509179893187 -0.2576027241408687 -5.090598588450076e-8
vn 0.966250334623068 -0.25760491229903393 -4.6499046645443834e-7
vn 0.9662512019334054 -0.2576016590828745 0
vn 0.966250766746634 -0.25760329144065525 -6.950392127433798e-7
vn 0.8589530973232335 -0.5120542711459635 0
vn 0.8589527877726096 -0.5120547904058333 3.173291534114019e-7
vn 0.8589529931171203 -0.5120544459478803 3.8749759052880234e-7
vn 0.8589526280597147 -0.5120550583182529 0
vn 0.858953097323178 -0.5120542711459294 3.6079141264749785e-7
vn 0.6629345223344008 -0.7486773798487971 0
vn 0.6629353494745197 -0.7486766474365275 -5.459335127461285e-7
vn 0.662936018426764 -0.748676055094799 -3.987585076317209e-7
vn 0.6629332371476515 -0.7486785178465694 0
vn 0.6629333283143447 -0.7486784371210803 4.512900446561116e-8
vn 0.5605100267253766 -0.8281476377677579 0
vn 0.5605086442255863 -0.8281485734746707 5.129383854982185e-7
vn 0.5605089113013842 -0.8281483927119819 5.459688649514002e-7
vn 0.56050530376294 -0.8281508343614793 0
vn 0.5605076771734868 -0.8281492279952608 6.604400682969035e-7
vn -0.5605089113013872 0.8281483927119799 5.459688645533222e-7
vn -0.5605053037629398 0.8281508343614796 0
vn -0.5605076771734863 0.828149227995261 6.604400682328454e-7
vn -0.5605076771736085 0.8281492279954417 0
vn -0.5605068820607517 0.8281497661428442 2.9500362221782537e-7
vn -0.6629333283143454 0.7486784371210811 0
vn -0.6629344539612217 0.7486774403911104 -7.429536285238792e-7
vn -0.6629360184267629 0.7486760550947998 -3.987585073116462e-7
vn -0.6629348291768042 0.7486771081476455 0
vn -0.6629345223343944 0.7486773798487872 -1.5189254343420373e-7
vn -0.858953623113686 0.5120533891498736 0
vn -0.8589527877723377 0.5120547904056714 8.563341961923552e-7
vn -0.858952091757236 0.51205595794355 6.184998718089034e-7
vn -0.8589533291153651 0.5120538823225846 0
vn -0.8589536231136642 0.5120533891498606 2.2604042705222863e-7
vn -0.9662503346230679 0.2576049122990342 -4.649904663198864e-7
vn -0.9662512019334054 0.2576016590828745 0
vn -0.966250766746634 0.2576032914406551 -6.950392126716182e-7
vn -0.96625089408395 0.25760281380832634 0
vn -0.9662509179893186 0.2576027241408688 -5.090598571631045e-8
vn 0 -1 0
vn 0 -1 0
vn 0 -1 0
vn 0 -1 0
vn 0 -1 0
vn -0.5605089113013852 -0.8281483927119813 -5.459688650715105e-7
vn -0.5605084365008922 -0.8281487140673016 0
vn -0.5605100267253217 -0.8281476377676769 -4.425079159839085e-7
vn -0.5605076771736089 -0.8281492279954412 0
vn -0.5605068820607506 -0.828149766142845 -2.95003622848399e-7
vn -1 0 0
vn -1 0 0
vn -1 0 0
vn -1 0 0
vn -1 0 0
vn -0.9662507667468672 -0.2576032914407174 0
vn -0.9662508224864894 -0.2576030823654269 1.1869596275426464e-7
vn -0.9662511534244085 -0.25760184103765005 -1.1621135657908141e-7
vn -0.9662507348732795 -0.25760341099614226 0
vn -0.9662508940839188 -0.25760281380831823 -2.5427655080060533e-7
vn -0.858953097323234 -0.5120542711459628 0
vn -0.8589527877726097 -0.5120547904058329 -3.173291535098293e-7
vn -0.8589520917573976 -0.512055957943646 -7.949360007674292e-8
vn -0.8589533291153651 -0.5120538823225846 0
vn -0.8589530973232199 -0.5120542711459553 1.7821308338491543e-7
vn -0.6629333283143454 -0.7486784371210811 0
vn -0.6629344539612224 -0.74867744039111 7.429536289271745e-7
vn -0.6629339715411559 -0.7486778675611756 8.490898284790591e-7
vn -0.6629364211969633 -0.748675698450646 0
vn -0.6629345223341079 -0.7486773798484663 9.399739961071693e-7
usemtl m_bcbf4210-acc6-3d37-c3bb-51b9fc50e555
f 1/1/1 2/2/1 3/3/1
f 4/4/2 2/5/2 5/6/2
f 6/7/3 7/8/3 8/9/3
f 6/10/4 9/11/4 7/12/4
f 4/13/5 3/14/5 2/15/5
f 4/16/6 10/17/6 3/18/6
f 11/19/7 12/20/7 13/21/7
f 8/22/8 14/23/8 15/24/8
f 16/25/9 12/26/9 17/27/9
f 16/28/10 17/29/10 14/30/10
f 18/31/11 19/32/11 20/33/11
f 21/34/12 22/35/12 23/36/12
f 16/37/13 13/38/13 12/39/13
f 16/40/14 8/41/14 13/42/14
f 24/43/15 19/44/15 25/45/15
f 26/46/16 27/47/16 22/48/16
f 15/49/17 20/50/17 19/51/17
f 24/52/18 15/53/18 19/54/18
f 26/55/19 28/56/19 27/57/19
f 21/58/20 24/59/20 26/60/20
f 23/61/21 29/62/21 30/63/21
f 30/64/22 31/65/22 32/66/22
f 25/67/23 27/68/23 28/69/23
f 24/70/24 25/71/24 28/72/24
f 33/73/25 31/74/25 34/75/25
f 33/76/26 34/77/26 35/78/26
f 33/79/27 32/80/27 31/81/27
f 33/82/28 23/83/28 32/84/28
f 1/85/29 36/86/29 37/87/29
f 37/88/30 38/89/30 39/90/30
f 40/91/31 41/92/31 42/93/31
f 43/94/32 44/95/32 39/96/32
f 43/97/33 45/98/33 44/99/33
f 46/100/34 37/101/34 36/102/34
f 10/103/35 46/104/35 36/105/35
f 45/106/36 47/107/36 48/108/36
f 49/109/37 40/110/37 50/111/37
f 46/112/38 39/113/38 38/114/38
f 46/115/39 43/116/39 39/117/39
f 45/118/40 49/119/40 47/120/40
f 45/121/41 51/122/41 49/123/41
f 42/124/42 52/125/42 53/126/42
f 54/127/43 55/128/43 56/129/43
f 51/130/44 42/131/44 41/132/44
f 51/133/45 57/134/45 42/135/45
f 58/136/46 59/137/46 53/138/46
f 58/139/47 54/140/47 59/141/47
f 58/142/48 53/143/48 52/144/48
f 57/145/49 58/146/49 52/147/49
f 60/148/50 61/149/50 62/150/50
f 63/151/51 64/152/51 65/153/51
f 57/154/52 56/155/52 55/156/52
f 57/157/53 60/158/53 56/159/53
f 61/160/54 66/161/54 67/162/54
f 68/163/55 63/164/55 69/165/55
f 61/166/56 68/167/56 66/168/56
f 61/169/57 21/170/57 68/171/57
f 70/172/58 71/173/58 65/174/58
f 70/175/59 35/176/59 71/177/59
f 70/178/60 65/179/60 64/180/60
f 21/181/61 70/182/61 64/183/61
f 72/184/62 73/185/62 74/186/62
f 73/187/63 75/188/63 76/189/63
f 77/190/64 78/191/64 79/192/64
f 74/193/65 80/194/65 81/195/65
f 74/196/66 81/197/66 77/198/66
f 82/199/67 78/200/67 83/201/67
f 84/202/68 85/203/68 86/204/68
f 87/205/69 88/206/69 89/207/69
f 83/208/70 90/209/70 91/210/70
f 92/211/71 93/212/71 84/213/71
f 74/214/72 79/215/72 78/216/72
f 82/217/73 74/218/73 78/219/73
f 83/220/74 91/221/74 92/222/74
f 94/223/75 83/224/75 92/225/75
f 95/226/76 85/227/76 96/228/76
f 96/229/77 97/230/77 98/231/77
f 95/232/78 86/233/78 85/234/78
f 95/235/79 94/236/79 86/237/79
f 99/238/80 100/239/80 101/240/80
f 99/241/81 101/242/81 102/243/81
f 99/244/82 98/245/82 97/246/82
f 99/247/83 95/248/83 98/249/83
f 87/250/84 103/251/84 104/252/84
f 88/253/85 105/254/85 106/255/85
f 88/256/86 104/257/86 105/258/86
f 6/259/87 107/260/87 9/261/87
f 10/262/88 5/263/88 108/264/88
f 72/265/89 10/266/89 108/267/89
f 72/268/90 108/269/90 75/270/90
f 87/271/91 89/272/91 109/273/91
f 6/274/92 110/275/92 107/276/92
f 87/277/93 109/278/93 110/279/93
f 6/280/94 87/281/94 110/282/94
f 102/283/95 111/284/95 112/285/95
f 113/286/96 111/287/96 114/288/96
f 87/289/97 115/290/97 103/291/97
f 113/292/98 112/293/98 111/294/98
f 113/295/99 94/296/99 112/297/99
f 114/298/100 116/299/100 117/300/100
f 118/301/101 119/302/101 120/303/101
f 121/304/102 122/305/102 123/306/102
f 120/307/103 124/308/103 125/309/103
f 126/310/104 127/311/104 123/312/104
f 127/313/105 128/314/105 129/315/105
f 115/316/106 123/317/106 122/318/106
f 115/319/107 126/320/107 123/321/107
f 130/322/108 131/323/108 129/324/108
f 132/325/109 133/326/109 134/327/109
f 118/328/110 135/329/110 119/330/110
f 136/331/111 114/332/111 118/333/111
f 137/334/112 138/335/112 139/336/112
f 140/337/113 141/338/113 133/339/113
f 114/340/114 119/341/114 135/342/114
f 114/343/115 117/344/115 119/345/115
f 126/346/116 129/347/116 128/348/116
f 126/349/117 130/350/117 129/351/117
f 132/352/118 134/353/118 142/354/118
f 130/355/119 136/356/119 132/357/119
f 141/358/120 143/359/120 144/360/120
f 141/361/121 137/362/121 143/363/121
f 131/364/122 142/365/122 134/366/122
f 131/367/123 130/368/123 142/369/123
f 145/370/124 146/371/124 139/372/124
f 136/373/125 125/374/125 124/375/125
f 140/376/126 136/377/126 124/378/126
f 145/379/127 139/380/127 138/381/127
f 140/382/128 145/383/128 138/384/128
f 6/385/129 21/386/129 136/387/129
f 6/388/130 136/389/130 87/390/130
f 136/391/131 21/392/131 51/393/131
f 136/394/132 51/395/132 94/396/132
f 72/397/133 94/398/133 51/399/133
f 72/400/134 51/401/134 10/402/134
f 2/403/135 147/404/135 76/405/135
f 148/406/136 147/407/136 2/408/136
f 148/409/137 149/410/137 147/411/137
f 37/412/138 80/413/138 149/414/138
f 37/415/139 149/416/139 148/417/139
f 150/418/140 151/419/140 75/420/140
f 152/421/141 151/422/141 150/423/141
f 152/424/142 153/425/142 151/426/142
f 2/427/143 76/428/143 153/429/143
f 2/430/144 153/431/144 152/432/144
f 154/433/145 155/434/145 156/435/145
f 39/436/146 78/437/146 155/438/146
f 39/439/147 155/440/147 154/441/147
f 37/442/148 156/443/148 80/444/148
f 154/445/149 156/446/149 37/447/149
f 157/448/150 158/449/150 159/450/150
f 48/451/151 90/452/151 158/453/151
f 48/454/152 158/455/152 157/456/152
f 39/457/153 159/458/153 78/459/153
f 157/460/154 159/461/154 39/462/154
f 160/463/155 161/464/155 162/465/155
f 50/466/156 93/467/156 161/468/156
f 50/469/157 161/470/157 160/471/157
f 48/472/158 162/473/158 90/474/158
f 160/475/159 162/476/159 48/477/159
f 50/478/160 163/479/160 93/480/160
f 164/481/161 163/482/161 50/483/161
f 164/484/162 165/485/162 163/486/162
f 166/487/163 167/488/163 165/489/163
f 166/490/164 165/491/164 164/492/164
f 42/493/165 168/494/165 167/495/165
f 169/496/166 168/497/166 42/498/166
f 169/499/167 170/500/167 168/501/167
f 53/502/168 97/503/168 170/504/168
f 53/505/169 170/506/169 169/507/169
f 53/508/170 171/509/170 97/510/170
f 172/511/171 171/512/171 53/513/171
f 172/514/172 173/515/172 171/516/172
f 62/517/173 174/518/173 173/519/173
f 62/520/174 173/521/174 172/522/174
f 62/523/175 175/524/175 174/525/175
f 176/526/176 175/527/176 62/528/176
f 176/529/177 177/530/177 175/531/177
f 67/532/178 116/533/178 177/534/178
f 67/535/179 177/536/179 176/537/179
f 178/538/180 179/539/180 180/540/180
f 181/541/181 89/542/181 179/543/181
f 181/544/182 179/545/182 178/546/182
f 11/547/183 180/548/183 106/549/183
f 178/550/184 180/551/184 11/552/184
f 12/553/185 182/554/185 121/555/185
f 183/556/186 182/557/186 12/558/186
f 183/559/187 184/560/187 182/561/187
f 11/562/188 106/563/188 184/564/188
f 11/565/189 184/566/189 183/567/189
f 18/568/190 185/569/190 123/570/190
f 186/571/191 185/572/191 18/573/191
f 186/574/192 187/575/192 188/576/192
f 12/577/193 121/578/193 187/579/193
f 12/580/194 187/581/194 186/582/194
f 189/583/195 190/584/195 191/585/195
f 18/586/196 123/587/196 190/588/196
f 18/589/197 190/590/197 189/591/197
f 19/592/198 191/593/198 129/594/198
f 189/595/199 191/596/199 19/597/199
f 67/598/200 192/599/200 116/600/200
f 193/601/201 192/602/201 67/603/201
f 193/604/202 194/605/202 192/606/202
f 69/607/203 119/608/203 194/609/203
f 69/610/204 194/611/204 193/612/204
f 195/613/205 196/614/205 197/615/205
f 65/616/206 124/617/206 196/618/206
f 65/619/207 196/620/207 195/621/207
f 69/622/208 197/623/208 119/624/208
f 195/625/209 197/626/209 69/627/209
f 198/628/210 199/629/210 200/630/210
f 19/631/211 129/632/211 199/633/211
f 19/634/212 199/635/212 198/636/212
f 27/637/213 200/638/213 134/639/213
f 198/640/214 200/641/214 27/642/214
f 29/643/215 201/644/215 144/645/215
f 202/646/216 201/647/216 29/648/216
f 202/649/217 203/650/217 201/651/217
f 27/652/218 134/653/218 203/654/218
f 27/655/219 203/656/219 202/657/219
f 204/658/220 205/659/220 206/660/220
f 207/661/221 205/662/221 204/663/221
f 208/664/222 209/665/222 205/666/222
f 210/667/223 211/668/223 209/669/223
f 210/670/224 209/671/224 208/672/224
f 65/673/225 212/674/225 124/675/225
f 213/676/226 212/677/226 65/678/226
f 213/679/227 214/680/227 212/681/227
f 204/682/228 206/683/228 214/684/228
f 204/685/229 214/686/229 213/687/229
o cylinder
v -2.359375 2 0.2968749999999999
v -2.359375 2 -0.2968749999999999
v -2.376121875 2.0625 0.296875
v -2.376121875 2.0625 -0.29687499999999967
v -2.405128125 2.045753125 0.296875
v -2.405128125 2.045753125 -0.29687499999999983
v -2.421875 2.016746875 0.2968749999999999
v -2.421875 2.016746875 -0.2968749999999999
v -2.421875 1.983253125 0.29687499999999983
v -2.421875 1.983253125 -0.2968749999999999
v -2.405128125 1.954246875 0.2968749999999998
v -2.405128125 1.954246875 -0.296875
v -2.376121875 1.9375 0.2968749999999997
v -2.376121875 1.9375 -0.2968749999999999
v -2.342628125 1.9375 0.2968749999999997
v -2.342628125 1.9375 -0.2968749999999999
v -2.313621875 1.954246875 0.2968749999999998
v -2.313621875 1.954246875 -0.296875
v -2.296875 1.983253125 0.29687499999999983
v -2.296875 1.983253125 -0.2968749999999999
v -2.296875 2.016746875 0.2968749999999999
v -2.296875 2.016746875 -0.2968749999999999
v -2.313621875 2.045753125 0.296875
v -2.313621875 2.045753125 -0.29687499999999983
v -2.342628125 2.0625 0.296875
v -2.342628125 2.0625 -0.29687499999999967
vt 0.003502421875 1
vt 0.00404375 0.997978125
vt 0 0.997978125
vt 0.00209375 1
vt 0.00209375 0.9921875
vt 0 0.9921875
vt 0 1
vt 0.00202171875 0.996497890625
vt 0 0.9959559375
vt 0 1
vt 0.003502109375 1
vt 0.0040440625 0.99797828125
vt 0 0.99797828125
vt 0.00209375 1
vt 0.00209375 0.9921875
vt 0 0.9921875
vt 0 1
vt 0.002021875 0.996497578125
vt 0 0.99595625
vt 0 1
vt 0.00390625 1
vt 0.00390625 0.99790625
vt 0 0.998953125
vt 0.00209375 1
vt 0.00209375 0.9921875
vt 0 0.9921875
vt 0 1
vt 0.00390625 1
vt 0.00390625 0.99790625
vt 0 0.998953125
vt 0.002021875 0.996497578125
vt 0 0.99595625
vt 0 1
vt 0.00209375 1
vt 0.00209375 0.9921875
vt 0 0.9921875
vt 0 1
vt 0.003502109375 1
vt 0.0040440625 0.99797828125
vt 0 0.99797828125
vt 0.00202171875 0.996497890625
vt 0 0.9959559375
vt 0 1
vt 0.00209375 1
vt 0.00209375 0.9921875
vt 0 0.9921875
vt 0 1
vt 0.003502421875 1
vt 0.00404375 0.997978125
vt 0 0.997978125
vt 0.00209375 0.99609375
vt 0 0.99609375
vt 0.001046875 1
vt 0.00209375 1
vt 0.00209375 0.9921875
vt 0 0.9921875
vt 0 1
vt 0 1
vt 0.00209375 1
vt 0.001046875 0.99609375
vt 0.00054140625 0.997978125
vt 0 1
vt 0.00404375 1
vt 0.00209375 1
vt 0.00209375 0.9921875
vt 0 0.9921875
vt 0 1
vt 0 0.99945796875
vt 0.00202171875 1
vt 0.00202171875 0.9959559375
vt 0.00054203125 0.99797828125
vt 0 1
vt 0.0040440625 1
vt 0.00209375 1
vt 0.00209375 0.9921875
vt 0 0.9921875
vt 0 1
vt 0 0.99945859375
vt 0.002021875 1
vt 0.002021875 0.99595625
vt 0 0.99790625
vt 0 1
vt 0.00390625 0.998953125
vt 0.00209375 1
vt 0.00209375 0.9921875
vt 0 0.9921875
vt 0 1
vt 0 0.99790625
vt 0 1
vt 0.00390625 0.998953125
vt 0 0.99945859375
vt 0.002021875 1
vt 0.002021875 0.99595625
vt 0.00209375 1
vt 0.00209375 0.9921875
vt 0 0.9921875
vt 0 1
vt 0.00054203125 0.99797828125
vt 0 1
vt 0.0040440625 1
vt 0 0.99945796875
vt 0.00202171875 1
vt 0.00202171875 0.9959559375
vt 0.00209375 1
vt 0.00209375 0.9921875
vt 0 0.9921875
vt 0 1
vt 0.00054140625 0.997978125
vt 0 1
vt 0.00404375 1
vt 0 1
vt 0.00209375 1
vt 0.001046875 0.99609375
vt 0.00209375 1
vt 0.00209375 0.9921875
vt 0 0.9921875
vt 0 1
vt 0.00209375 0.99609375
vt 0 0.99609375
vt 0.001046875 1
vn 8.881830561847303e-16 -1.538368189495552e-15 1
vn -0.500002435262396 0.8660239977804737 1.0120839812776922e-17
vn 3.195735340428059e-15 4.4090109632681995e-15 -1
vn -8.8818305618473e-16 -3.3147343018650125e-15 1
vn -0.8660239977804736 0.5000024352623961 8.764961305215182e-18
vn 4.440915280923649e-16 1.6573671509325062e-15 -1
vn -4.440892098500626e-16 -1.6573584991605246e-15 1
vn -1 0 0
vn 0 0 -1
vn -3.2509256665541096e-16 -2.1014586790248716e-15 1
vn -0.8660239977804736 -0.5000024352623961 -5.843307536810122e-18
vn -8.881830561847303e-16 3.3147343018650117e-15 -1
vn 3.2509256665541106e-16 -2.7516438123356933e-15 1
vn -0.500002435262396 -0.8660239977804737 -3.036251943833078e-17
vn 3.3147343018650133e-15 -8.881830561847304e-16 -1
vn 0 -2.6645352591003757e-15 1
vn 0 -1 -3.505967446184708e-17
vn 0 0 -1
vn -3.2509256665541106e-16 -2.7516438123356933e-15 1
vn 0.5000024352623961 -0.8660239977804737 -1.0120839812776922e-17
vn -3.3147343018650133e-15 -8.881830561847304e-16 -1
vn 3.2509256665541096e-16 -2.1014586790248716e-15 1
vn 0.8660239977804736 -0.5000024352623961 -5.843307536810122e-18
vn 8.881830561847303e-16 3.3147343018650117e-15 -1
vn 4.440892098500626e-16 -1.6573584991605246e-15 1
vn 1 0 0
vn 0 0 -1
vn 8.8818305618473e-16 -3.3147343018650125e-15 1
vn 0.8660239977804736 0.5000024352623961 5.843307536810122e-18
vn -4.440915280923649e-16 1.6573671509325062e-15 -1
vn -8.881830561847303e-16 -1.538368189495552e-15 1
vn 0.500002435262396 0.8660239977804736 0
vn -3.195735340428059e-15 4.4090109632682e-15 -1
vn 0 -1.7763568394002505e-15 1
vn 0 1 0
vn 0 3.552713678800502e-15 -1
usemtl m_4a76a50a-6332-4647-e48e-1cc4a548032a
f 217/688/230 219/689/230 215/690/230
f 220/691/231 219/692/231 217/693/231 218/694/231
f 220/695/232 218/696/232 216/697/232
f 219/698/233 221/699/233 215/700/233
f 222/701/234 221/702/234 219/703/234 220/704/234
f 222/705/235 220/706/235 216/707/235
f 221/708/236 223/709/236 215/710/236
f 224/711/237 223/712/237 221/713/237 222/714/237
f 224/715/238 222/716/238 216/717/238
f 223/718/239 225/719/239 215/720/239
f 226/721/240 225/722/240 223/723/240 224/724/240
f 226/725/241 224/726/241 216/727/241
f 225/728/242 227/729/242 215/730/242
f 228/731/243 227/732/243 225/733/243 226/734/243
f 228/735/244 226/736/244 216/737/244
f 227/738/245 229/739/245 215/740/245
f 230/741/246 229/742/246 227/743/246 228/744/246
f 230/745/247 228/746/247 216/747/247
f 229/748/248 231/749/248 215/750/248
f 232/751/249 231/752/249 229/753/249 230/754/249
f 232/755/250 230/756/250 216/757/250
f 231/758/251 233/759/251 215/760/251
f 234/761/252 233/762/252 231/763/252 232/764/252
f 234/765/253 232/766/253 216/767/253
f 233/768/254 235/769/254 215/770/254
f 236/771/255 235/772/255 233/773/255 234/774/255
f 236/775/256 234/776/256 216/777/256
f 235/778/257 237/779/257 215/780/257
f 238/781/258 237/782/258 235/783/258 236/784/258
f 238/785/259 236/786/259 216/787/259
f 237/788/260 239/789/260 215/790/260
f 240/791/261 239/792/261 237/793/261 238/794/261
f 240/795/262 238/796/262 216/797/262
f 239/798/263 217/799/263 215/800/263
f 218/801/264 217/802/264 239/803/264 240/804/264
f 218/805/265 240/806/265 216/807/265
o cylinder
v -2.40625 2.234375 0.296875
v -2.40625 2.234375 -0.296875
v -2.414623125 2.265625 0.296875
v -2.414623125 2.265625 -0.296875
v -2.429126875 2.257251875 0.296875
v -2.429126875 2.257251875 -0.296875
v -2.4375 2.242748125 0.296875
v -2.4375 2.242748125 -0.296875
v -2.4375 2.226001875 0.29687499999999994
v -2.4375 2.226001875 -0.296875
v -2.429126875 2.211498125 0.29687499999999994
v -2.429126875 2.211498125 -0.296875
v -2.414623125 2.203125 0.29687499999999994
v -2.414623125 2.203125 -0.296875
v -2.397876875 2.203125 0.29687499999999994
v -2.397876875 2.203125 -0.296875
v -2.383373125 2.211498125 0.29687499999999994
v -2.383373125 2.211498125 -0.296875
v -2.375 2.226001875 0.29687499999999994
v -2.375 2.226001875 -0.296875
v -2.375 2.242748125 0.296875
v -2.375 2.242748125 -0.296875
v -2.383373125 2.257251875 0.296875
v -2.383373125 2.257251875 -0.296875
v -2.397876875 2.265625 0.296875
v -2.397876875 2.265625 -0.296875
vt 0.003502421875 1
vt 0.00404375 0.997978125
vt 0 0.997978125
vt 0.00209375 1
vt 0.00209375 0.9921875
vt 0 0.9921875
vt 0 1
vt 0.00202171875 0.996497890625
vt 0 0.9959559375
vt 0 1
vt 0.003502109375 1
vt 0.0040440625 0.99797828125
vt 0 0.99797828125
vt 0.00209375 1
vt 0.00209375 0.9921875
vt 0 0.9921875
vt 0 1
vt 0.002021875 0.996497578125
vt 0 0.99595625
vt 0 1
vt 0.00390625 1
vt 0.00390625 0.99790625
vt 0 0.998953125
vt 0.00209375 1
vt 0.00209375 0.9921875
vt 0 0.9921875
vt 0 1
vt 0.00390625 1
vt 0.00390625 0.99790625
vt 0 0.998953125
vt 0.002021875 0.996497578125
vt 0 0.99595625
vt 0 1
vt 0.00209375 1
vt 0.00209375 0.9921875
vt 0 0.9921875
vt 0 1
vt 0.003502109375 1
vt 0.0040440625 0.99797828125
vt 0 0.99797828125
vt 0.00202171875 0.996497890625
vt 0 0.9959559375
vt 0 1
vt 0.00209375 1
vt 0.00209375 0.9921875
vt 0 0.9921875
vt 0 1
vt 0.003502421875 1
vt 0.00404375 0.997978125
vt 0 0.997978125
vt 0.00209375 0.99609375
vt 0 0.99609375
vt 0.001046875 1
vt 0.00209375 1
vt 0.00209375 0.9921875
vt 0 0.9921875
vt 0 1
vt 0 1
vt 0.00209375 1
vt 0.001046875 0.99609375
vt 0.00054140625 0.997978125
vt 0 1
vt 0.00404375 1
vt 0.00209375 1
vt 0.00209375 0.9921875
vt 0 0.9921875
vt 0 1
vt 0 0.99945796875
vt 0.00202171875 1
vt 0.00202171875 0.9959559375
vt 0.00054203125 0.99797828125
vt 0 1
vt 0.0040440625 1
vt 0.00209375 1
vt 0.00209375 0.9921875
vt 0 0.9921875
vt 0 1
vt 0 0.99945859375
vt 0.002021875 1
vt 0.002021875 0.99595625
vt 0 0.99790625
vt 0 1
vt 0.00390625 0.998953125
vt 0.00209375 1
vt 0.00209375 0.9921875
vt 0 0.9921875
vt 0 1
vt 0 0.99790625
vt 0 1
vt 0.00390625 0.998953125
vt 0 0.99945859375
vt 0.002021875 1
vt 0.002021875 0.99595625
vt 0.00209375 1
vt 0.00209375 0.9921875
vt 0 0.9921875
vt 0 1
vt 0.00054203125 0.99797828125
vt 0 1
vt 0.0040440625 1
vt 0 0.99945796875
vt 0.00202171875 1
vt 0.00202171875 0.9959559375
vt 0.00209375 1
vt 0.00209375 0.9921875
vt 0 0.9921875
vt 0 1
vt 0.00054140625 0.997978125
vt 0 1
vt 0.00404375 1
vt 0 1
vt 0.00209375 1
vt 0.001046875 0.99609375
vt 0.00209375 1
vt 0.00209375 0.9921875
vt 0 0.9921875
vt 0 1
vt 0.00209375 0.99609375
vt 0 0.99609375
vt 0.001046875 1
vn 0 0 1
vn -0.49997228014499207 0.8660414072586933 0
vn 0 0 -1
vn 0 0 1
vn -0.8660414072586933 0.4999722801449919 0
vn 0 0 -1
vn -8.881784197001252e-16 -3.3148407094876734e-15 1
vn -1 0 0
vn 0 0 -1
vn -1.5383924541846883e-15 -8.881256446053699e-16 1
vn -0.8660414072586933 -0.4999722801449919 0
vn 0 0 -1
vn -8.881256446053699e-16 -1.5383924541846877e-15 1
vn -0.49997228014499207 -0.8660414072586933 0
vn 0 0 -1
vn 0 -1.7763568394002505e-15 1
vn 0 -1 0
vn 0 0 -1
vn 8.881256446053699e-16 -1.5383924541846877e-15 1
vn 0.49997228014499207 -0.8660414072586933 0
vn 0 0 -1
vn 1.5383924541846883e-15 -8.881256446053699e-16 1
vn 0.8660414072586933 -0.4999722801449919 0
vn 0 0 -1
vn 8.881784197001252e-16 -3.3148407094876734e-15 1
vn 1 0 0
vn 0 0 -1
vn 0 0 1
vn 0.8660414072586933 0.4999722801449919 0
vn 0 0 -1
vn 0 0 1
vn 0.49997228014499207 0.8660414072586933 0
vn 0 0 -1
vn 0 0 1
vn 0 1 0
vn 0 0 -1
usemtl m_4a76a50a-6332-4647-e48e-1cc4a548032a
f 243/808/266 245/809/266 241/810/266
f 246/811/267 245/812/267 243/813/267 244/814/267
f 246/815/268 244/816/268 242/817/268
f 245/818/269 247/819/269 241/820/269
f 248/821/270 247/822/270 245/823/270 246/824/270
f 248/825/271 246/826/271 242/827/271
f 247/828/272 249/829/272 241/830/272
f 250/831/273 249/832/273 247/833/273 248/834/273
f 250/835/274 248/836/274 242/837/274
f 249/838/275 251/839/275 241/840/275
f 252/841/276 251/842/276 249/843/276 250/844/276
f 252/845/277 250/846/277 242/847/277
f 251/848/278 253/849/278 241/850/278
f 254/851/279 253/852/279 251/853/279 252/854/279
f 254/855/280 252/856/280 242/857/280
f 253/858/281 255/859/281 241/860/281
f 256/861/282 255/862/282 253/863/282 254/864/282
f 256/865/283 254/866/283 242/867/283
f 255/868/284 257/869/284 241/870/284
f 258/871/285 257/872/285 255/873/285 256/874/285
f 258/875/286 256/876/286 242/877/286
f 257/878/287 259/879/287 241/880/287
f 260/881/288 259/882/288 257/883/288 258/884/288
f 260/885/289 258/886/289 242/887/289
f 259/888/290 261/889/290 241/890/290
f 262/891/291 261/892/291 259/893/291 260/894/291
f 262/895/292 260/896/292 242/897/292
f 261/898/293 263/899/293 241/900/293
f 264/901/294 263/902/294 261/903/294 262/904/294
f 264/905/295 262/906/295 242/907/295
f 263/908/296 265/909/296 241/910/296
f 266/911/297 265/912/297 263/913/297 264/914/297
f 266/915/298 264/916/298 242/917/298
f 265/918/299 243/919/299 241/920/299
f 244/921/300 243/922/300 265/923/300 266/924/300
f 244/925/301 266/926/301 242/927/301
o cylinder
v -2.359375 3 0.296875
v -2.359375 3 -0.296875
v -2.367748125 3.03125 0.296875
v -2.367748125 3.03125 -0.296875
v -2.382251875 3.022876875 0.296875
v -2.382251875 3.022876875 -0.296875
v -2.390625 3.008373125 0.296875
v -2.390625 3.008373125 -0.296875
v -2.390625 2.991626875 0.29687499999999994
v -2.390625 2.991626875 -0.296875
v -2.382251875 2.977123125 0.29687499999999994
v -2.382251875 2.977123125 -0.296875
v -2.367748125 2.96875 0.29687499999999994
v -2.367748125 2.96875 -0.296875
v -2.351001875 2.96875 0.29687499999999994
v -2.351001875 2.96875 -0.296875
v -2.336498125 2.977123125 0.29687499999999994
v -2.336498125 2.977123125 -0.296875
v -2.328125 2.991626875 0.29687499999999994
v -2.328125 2.991626875 -0.296875
v -2.328125 3.008373125 0.296875
v -2.328125 3.008373125 -0.296875
v -2.336498125 3.022876875 0.296875
v -2.336498125 3.022876875 -0.296875
v -2.351001875 3.03125 0.296875
v -2.351001875 3.03125 -0.296875
vt 0.003502421875 1
vt 0.00404375 0.997978125
vt 0 0.997978125
vt 0.00209375 1
vt 0.00209375 0.9921875
vt 0 0.9921875
vt 0 1
vt 0.00202171875 0.996497890625
vt 0 0.9959559375
vt 0 1
vt 0.003502109375 1
vt 0.0040440625 0.99797828125
vt 0 0.99797828125
vt 0.00209375 1
vt 0.00209375 0.9921875
vt 0 0.9921875
vt 0 1
vt 0.002021875 0.996497578125
vt 0 0.99595625
vt 0 1
vt 0.00390625 1
vt 0.00390625 0.99790625
vt 0 0.998953125
vt 0.00209375 1
vt 0.00209375 0.9921875
vt 0 0.9921875
vt 0 1
vt 0.00390625 1
vt 0.00390625 0.99790625
vt 0 0.998953125
vt 0.002021875 0.996497578125
vt 0 0.99595625
vt 0 1
vt 0.00209375 1
vt 0.00209375 0.9921875
vt 0 0.9921875
vt 0 1
vt 0.003502109375 1
vt 0.0040440625 0.99797828125
vt 0 0.99797828125
vt 0.00202171875 0.996497890625
vt 0 0.9959559375
vt 0 1
vt 0.00209375 1
vt 0.00209375 0.9921875
vt 0 0.9921875
vt 0 1
vt 0.003502421875 1
vt 0.00404375 0.997978125
vt 0 0.997978125
vt 0.00209375 0.99609375
vt 0 0.99609375
vt 0.001046875 1
vt 0.00209375 1
vt 0.00209375 0.9921875
vt 0 0.9921875
vt 0 1
vt 0 1
vt 0.00209375 1
vt 0.001046875 0.99609375
vt 0.00054140625 0.997978125
vt 0 1
vt 0.00404375 1
vt 0.00209375 1
vt 0.00209375 0.9921875
vt 0 0.9921875
vt 0 1
vt 0 0.99945796875
vt 0.00202171875 1
vt 0.00202171875 0.9959559375
vt 0.00054203125 0.99797828125
vt 0 1
vt 0.0040440625 1
vt 0.00209375 1
vt 0.00209375 0.9921875
vt 0 0.9921875
vt 0 1
vt 0 0.99945859375
vt 0.002021875 1
vt 0.002021875 0.99595625
vt 0 0.99790625
vt 0 1
vt 0.00390625 0.998953125
vt 0.00209375 1
vt 0.00209375 0.9921875
vt 0 0.9921875
vt 0 1
vt 0 0.99790625
vt 0 1
vt 0.00390625 0.998953125
vt 0 0.99945859375
vt 0.002021875 1
vt 0.002021875 0.99595625
vt 0.00209375 1
vt 0.00209375 0.9921875
vt 0 0.9921875
vt 0 1
vt 0.00054203125 0.99797828125
vt 0 1
vt 0.0040440625 1
vt 0 0.99945796875
vt 0.00202171875 1
vt 0.00202171875 0.9959559375
vt 0.00209375 1
vt 0.00209375 0.9921875
vt 0 0.9921875
vt 0 1
vt 0.00054140625 0.997978125
vt 0 1
vt 0.00404375 1
vt 0 1
vt 0.00209375 1
vt 0.001046875 0.99609375
vt 0.00209375 1
vt 0.00209375 0.9921875
vt 0 0.9921875
vt 0 1
vt 0.00209375 0.99609375
vt 0 0.99609375
vt 0.001046875 1
vn 0 0 1
vn -0.4999722801449926 0.866041407258693 2.024208653931312e-17
vn 0 0 -1
vn 0 0 1
vn -0.8660414072586927 0.49997228014499284 0
vn 0 0 -1
vn -8.881784197001266e-16 -3.314840709487668e-15 1
vn -1 0 0
vn 0 0 -1
vn -1.5383924541846883e-15 -8.881256446053695e-16 1
vn -0.8660414072586935 -0.49997228014499184 -2.3371820509107742e-17
vn 0 0 -1
vn -8.881256446053695e-16 -1.5383924541846879e-15 1
vn -0.4999722801449919 -0.8660414072586933 0
vn 0 0 -1
vn 0 -1.7763568394002505e-15 1
vn 0 -1 0
vn 0 0 -1
vn 8.881256446053697e-16 -1.5383924541846875e-15 1
vn 0.49997228014499207 -0.8660414072586933 -4.048417307862625e-17
vn 0 0 -1
vn 1.5383924541846883e-15 -8.881256446053695e-16 1
vn 0.8660414072586935 -0.49997228014499184 0
vn 0 0 -1
vn 8.881784197001266e-16 -3.314840709487668e-15 1
vn 1 0 0
vn 0 0 -1
vn 0 0 1
vn 0.8660414072586928 0.49997228014499295 1.1685910254553899e-17
vn 0 0 -1
vn 0 0 1
vn 0.4999722801449927 0.8660414072586928 2.0242086539313114e-17
vn 0 0 -1
vn 0 0 1
vn 0 1 2.337311630789803e-17
vn 0 0 -1
usemtl m_4a76a50a-6332-4647-e48e-1cc4a548032a
f 269/928/302 271/929/302 267/930/302
f 272/931/303 271/932/303 269/933/303 270/934/303
f 272/935/304 270/936/304 268/937/304
f 271/938/305 273/939/305 267/940/305
f 274/941/306 273/942/306 271/943/306 272/944/306
f 274/945/307 272/946/307 268/947/307
f 273/948/308 275/949/308 267/950/308
f 276/951/309 275/952/309 273/953/309 274/954/309
f 276/955/310 274/956/310 268/957/310
f 275/958/311 277/959/311 267/960/311
f 278/961/312 277/962/312 275/963/312 276/964/312
f 278/965/313 276/966/313 268/967/313
f 277/968/314 279/969/314 267/970/314
f 280/971/315 279/972/315 277/973/315 278/974/315
f 280/975/316 278/976/316 268/977/316
f 279/978/317 281/979/317 267/980/317
f 282/981/318 281/982/318 279/983/318 280/984/318
f 282/985/319 280/986/319 268/987/319
f 281/988/320 283/989/320 267/990/320
f 284/991/321 283/992/321 281/993/321 282/994/321
f 284/995/322 282/996/322 268/997/322
f 283/998/323 285/999/323 267/1000/323
f 286/1001/324 285/1002/324 283/1003/324 284/1004/324
f 286/1005/325 284/1006/325 268/1007/325
f 285/1008/326 287/1009/326 267/1010/326
f 288/1011/327 287/1012/327 285/1013/327 286/1014/327
f 288/1015/328 286/1016/328 268/1017/328
f 287/1018/329 289/1019/329 267/1020/329
f 290/1021/330 289/1022/330 287/1023/330 288/1024/330
f 290/1025/331 288/1026/331 268/1027/331
f 289/1028/332 291/1029/332 267/1030/332
f 292/1031/333 291/1032/333 289/1033/333 290/1034/333
f 292/1035/334 290/1036/334 268/1037/334
f 291/1038/335 269/1039/335 267/1040/335
f 270/1041/336 269/1042/336 291/1043/336 292/1044/336
f 270/1045/337 292/1046/337 268/1047/337
o cylinder
v -2.40625 2.421875 0.296875
v -2.40625 2.421875 -0.296875
v -2.414623125 2.453125 0.296875
v -2.414623125 2.453125 -0.296875
v -2.429126875 2.444751875 0.296875
v -2.429126875 2.444751875 -0.296875
v -2.4375 2.430248125 0.296875
v -2.4375 2.430248125 -0.296875
v -2.4375 2.413501875 0.29687499999999994
v -2.4375 2.413501875 -0.296875
v -2.429126875 2.398998125 0.29687499999999994
v -2.429126875 2.398998125 -0.296875
v -2.414623125 2.390625 0.29687499999999994
v -2.414623125 2.390625 -0.296875
v -2.397876875 2.390625 0.29687499999999994
v -2.397876875 2.390625 -0.296875
v -2.383373125 2.398998125 0.29687499999999994
v -2.383373125 2.398998125 -0.296875
v -2.375 2.413501875 0.29687499999999994
v -2.375 2.413501875 -0.296875
v -2.375 2.430248125 0.296875
v -2.375 2.430248125 -0.296875
v -2.383373125 2.444751875 0.296875
v -2.383373125 2.444751875 -0.296875
v -2.397876875 2.453125 0.296875
v -2.397876875 2.453125 -0.296875
vt 0.003502421875 1
vt 0.00404375 0.997978125
vt 0 0.997978125
vt 0.00209375 1
vt 0.00209375 0.9921875
vt 0 0.9921875
vt 0 1
vt 0.00202171875 0.996497890625
vt 0 0.9959559375
vt 0 1
vt 0.003502109375 1
vt 0.0040440625 0.99797828125
vt 0 0.99797828125
vt 0.00209375 1
vt 0.00209375 0.9921875
vt 0 0.9921875
vt 0 1
vt 0.002021875 0.996497578125
vt 0 0.99595625
vt 0 1
vt 0.00390625 1
vt 0.00390625 0.99790625
vt 0 0.998953125
vt 0.00209375 1
vt 0.00209375 0.9921875
vt 0 0.9921875
vt 0 1
vt 0.00390625 1
vt 0.00390625 0.99790625
vt 0 0.998953125
vt 0.002021875 0.996497578125
vt 0 0.99595625
vt 0 1
vt 0.00209375 1
vt 0.00209375 0.9921875
vt 0 0.9921875
vt 0 1
vt 0.003502109375 1
vt 0.0040440625 0.99797828125
vt 0 0.99797828125
vt 0.00202171875 0.996497890625
vt 0 0.9959559375
vt 0 1
vt 0.00209375 1
vt 0.00209375 0.9921875
vt 0 0.9921875
vt 0 1
vt 0.003502421875 1
vt 0.00404375 0.997978125
vt 0 0.997978125
vt 0.00209375 0.99609375
vt 0 0.99609375
vt 0.001046875 1
vt 0.00209375 1
vt 0.00209375 0.9921875
vt 0 0.9921875
vt 0 1
vt 0 1
vt 0.00209375 1
vt 0.001046875 0.99609375
vt 0.00054140625 0.997978125
vt 0 1
vt 0.00404375 1
vt 0.00209375 1
vt 0.00209375 0.9921875
vt 0 0.9921875
vt 0 1
vt 0 0.99945796875
vt 0.00202171875 1
vt 0.00202171875 0.9959559375
vt 0.00054203125 0.99797828125
vt 0 1
vt 0.0040440625 1
vt 0.00209375 1
vt 0.00209375 0.9921875
vt 0 0.9921875
vt 0 1
vt 0 0.99945859375
vt 0.002021875 1
vt 0.002021875 0.99595625
vt 0 0.99790625
vt 0 1
vt 0.00390625 0.998953125
vt 0.00209375 1
vt 0.00209375 0.9921875
vt 0 0.9921875
vt 0 1
vt 0 0.99790625
vt 0 1
vt 0.00390625 0.998953125
vt 0 0.99945859375
vt 0.002021875 1
vt 0.002021875 0.99595625
vt 0.00209375 1
vt 0.00209375 0.9921875
vt 0 0.9921875
vt 0 1
vt 0.00054203125 0.99797828125
vt 0 1
vt 0.0040440625 1
vt 0 0.99945796875
vt 0.00202171875 1
vt 0.00202171875 0.9959559375
vt 0.00209375 1
vt 0.00209375 0.9921875
vt 0 0.9921875
vt 0 1
vt 0.00054140625 0.997978125
vt 0 1
vt 0.00404375 1
vt 0 1
vt 0.00209375 1
vt 0.001046875 0.99609375
vt 0.00209375 1
vt 0.00209375 0.9921875
vt 0 0.9921875
vt 0 1
vt 0.00209375 0.99609375
vt 0 0.99609375
vt 0.001046875 1
vn 0 0 1
vn -0.49997228014499207 0.8660414072586933 0
vn 0 0 -1
vn 0 0 1
vn -0.8660414072586933 0.4999722801449919 0
vn 0 0 -1
vn -8.881784197001252e-16 -3.3148407094876734e-15 1
vn -1 0 0
vn 0 0 -1
vn -1.5383924541846883e-15 -8.881256446053699e-16 1
vn -0.8660414072586933 -0.4999722801449919 0
vn 0 0 -1
vn -8.881256446053699e-16 -1.5383924541846877e-15 1
vn -0.49997228014499207 -0.8660414072586933 0
vn 0 0 -1
vn 0 -1.7763568394002505e-15 1
vn 0 -1 0
vn 0 0 -1
vn 8.881256446053699e-16 -1.5383924541846877e-15 1
vn 0.49997228014499207 -0.8660414072586933 0
vn 0 0 -1
vn 1.5383924541846883e-15 -8.881256446053699e-16 1
vn 0.8660414072586933 -0.4999722801449919 0
vn 0 0 -1
vn 8.881784197001252e-16 -3.3148407094876734e-15 1
vn 1 0 0
vn 0 0 -1
vn 0 0 1
vn 0.8660414072586933 0.4999722801449919 0
vn 0 0 -1
vn 0 0 1
vn 0.49997228014499207 0.8660414072586933 0
vn 0 0 -1
vn 0 0 1
vn 0 1 0
vn 0 0 -1
usemtl m_4a76a50a-6332-4647-e48e-1cc4a548032a
f 295/1048/338 297/1049/338 293/1050/338
f 298/1051/339 297/1052/339 295/1053/339 296/1054/339
f 298/1055/340 296/1056/340 294/1057/340
f 297/1058/341 299/1059/341 293/1060/341
f 300/1061/342 299/1062/342 297/1063/342 298/1064/342
f 300/1065/343 298/1066/343 294/1067/343
f 299/1068/344 301/1069/344 293/1070/344
f 302/1071/345 301/1072/345 299/1073/345 300/1074/345
f 302/1075/346 300/1076/346 294/1077/346
f 301/1078/347 303/1079/347 293/1080/347
f 304/1081/348 303/1082/348 301/1083/348 302/1084/348
f 304/1085/349 302/1086/349 294/1087/349
f 303/1088/350 305/1089/350 293/1090/350
f 306/1091/351 305/1092/351 303/1093/351 304/1094/351
f 306/1095/352 304/1096/352 294/1097/352
f 305/1098/353 307/1099/353 293/1100/353
f 308/1101/354 307/1102/354 305/1103/354 306/1104/354
f 308/1105/355 306/1106/355 294/1107/355
f 307/1108/356 309/1109/356 293/1110/356
f 310/1111/357 309/1112/357 307/1113/357 308/1114/357
f 310/1115/358 308/1116/358 294/1117/358
f 309/1118/359 311/1119/359 293/1120/359
f 312/1121/360 311/1122/360 309/1123/360 310/1124/360
f 312/1125/361 310/1126/361 294/1127/361
f 311/1128/362 313/1129/362 293/1130/362
f 314/1131/363 313/1132/363 311/1133/363 312/1134/363
f 314/1135/364 312/1136/364 294/1137/364
f 313/1138/365 315/1139/365 293/1140/365
f 316/1141/366 315/1142/366 313/1143/366 314/1144/366
f 316/1145/367 314/1146/367 294/1147/367
f 315/1148/368 317/1149/368 293/1150/368
f 318/1151/369 317/1152/369 315/1153/369 316/1154/369
f 318/1155/370 316/1156/370 294/1157/370
f 317/1158/371 295/1159/371 293/1160/371
f 296/1161/372 295/1162/372 317/1163/372 318/1164/372
f 296/1165/373 318/1166/373 294/1167/373
o cylinder
v -2.4125 2.609375 0.296875
v -2.4125 2.609375 -0.296875
v -2.4191985 2.634375 0.296875
v -2.4191985 2.634375 -0.296875
v -2.4308015 2.6276765 0.296875
v -2.4308015 2.6276765 -0.296875
v -2.4375 2.6160735 0.296875
v -2.4375 2.6160735 -0.296875
v -2.4375 2.6026765 0.29687499999999994
v -2.4375 2.6026765 -0.296875
v -2.4308015 2.5910735 0.29687499999999994
v -2.4308015 2.5910735 -0.296875
v -2.4191985 2.584375 0.29687499999999994
v -2.4191985 2.584375 -0.296875
v -2.4058015 2.584375 0.29687499999999994
v -2.4058015 2.584375 -0.296875
v -2.3941985 2.5910735 0.29687499999999994
v -2.3941985 2.5910735 -0.296875
v -2.3875 2.6026765 0.29687499999999994
v -2.3875 2.6026765 -0.296875
v -2.3875 2.6160735 0.296875
v -2.3875 2.6160735 -0.296875
v -2.3941985 2.6276765 0.296875
v -2.3941985 2.6276765 -0.296875
v -2.4058015 2.634375 0.296875
v -2.4058015 2.634375 -0.296875
vt 0.003502421875 1
vt 0.00404375 0.997978125
vt 0 0.997978125
vt 0.00209375 1
vt 0.00209375 0.9921875
vt 0 0.9921875
vt 0 1
vt 0.00202171875 0.996497890625
vt 0 0.9959559375
vt 0 1
vt 0.003502109375 1
vt 0.0040440625 0.99797828125
vt 0 0.99797828125
vt 0.00209375 1
vt 0.00209375 0.9921875
vt 0 0.9921875
vt 0 1
vt 0.002021875 0.996497578125
vt 0 0.99595625
vt 0 1
vt 0.00390625 1
vt 0.00390625 0.99790625
vt 0 0.998953125
vt 0.00209375 1
vt 0.00209375 0.9921875
vt 0 0.9921875
vt 0 1
vt 0.00390625 1
vt 0.00390625 0.99790625
vt 0 0.998953125
vt 0.002021875 0.996497578125
vt 0 0.99595625
vt 0 1
vt 0.00209375 1
vt 0.00209375 0.9921875
vt 0 0.9921875
vt 0 1
vt 0.003502109375 1
vt 0.0040440625 0.99797828125
vt 0 0.99797828125
vt 0.00202171875 0.996497890625
vt 0 0.9959559375
vt 0 1
vt 0.00209375 1
vt 0.00209375 0.9921875
vt 0 0.9921875
vt 0 1
vt 0.003502421875 1
vt 0.00404375 0.997978125
vt 0 0.997978125
vt 0.00209375 0.99609375
vt 0 0.99609375
vt 0.001046875 1
vt 0.00209375 1
vt 0.00209375 0.9921875
vt 0 0.9921875
vt 0 1
vt 0 1
vt 0.00209375 1
vt 0.001046875 0.99609375
vt 0.00054140625 0.997978125
vt 0 1
vt 0.00404375 1
vt 0.00209375 1
vt 0.00209375 0.9921875
vt 0 0.9921875
vt 0 1
vt 0 0.99945796875
vt 0.00202171875 1
vt 0.00202171875 0.9959559375
vt 0.00054203125 0.99797828125
vt 0 1
vt 0.0040440625 1
vt 0.00209375 1
vt 0.00209375 0.9921875
vt 0 0.9921875
vt 0 1
vt 0 0.99945859375
vt 0.002021875 1
vt 0.002021875 0.99595625
vt 0 0.99790625
vt 0 1
vt 0.00390625 0.998953125
vt 0.00209375 1
vt 0.00209375 0.9921875
vt 0 0.9921875
vt 0 1
vt 0 0.99790625
vt 0 1
vt 0.00390625 0.998953125
vt 0 0.99945859375
vt 0.002021875 1
vt 0.002021875 0.99595625
vt 0.00209375 1
vt 0.00209375 0.9921875
vt 0 0.9921875
vt 0 1
vt 0.00054203125 0.99797828125
vt 0 1
vt 0.0040440625 1
vt 0 0.99945796875
vt 0.00202171875 1
vt 0.00202171875 0.9959559375
vt 0.00209375 1
vt 0.00209375 0.9921875
vt 0 0.9921875
vt 0 1
vt 0.00054140625 0.997978125
vt 0 1
vt 0.00404375 1
vt 0 1
vt 0.00209375 1
vt 0.001046875 0.99609375
vt 0.00209375 1
vt 0.00209375 0.9921875
vt 0 0.9921875
vt 0 1
vt 0.00209375 0.99609375
vt 0 0.99609375
vt 0.001046875 1
vn 0 0 1
vn -0.49997228014499184 0.8660414072586934 0
vn 0 0 -1
vn 0 0 1
vn -0.8660414072586934 0.49997228014499173 0
vn 0 0 -1
vn -1.1102230246251563e-15 -4.1435508868595935e-15 1
vn -1 0 0
vn 0 0 -1
vn -1.9229905677308605e-15 -1.1101570557567119e-15 1
vn -0.8660414072586934 -0.49997228014499173 0
vn 0 0 -1
vn -1.1101570557567127e-15 -1.9229905677308594e-15 1
vn -0.4999722801449923 -0.8660414072586932 0
vn 0 0 -1
vn 0 -2.220446049250313e-15 1
vn 0 -1 0
vn 0 0 -1
vn 1.1101570557567129e-15 -1.9229905677308594e-15 1
vn 0.4999722801449923 -0.8660414072586932 0
vn 0 0 -1
vn 1.92299056773086e-15 -1.1101570557567125e-15 1
vn 0.8660414072586932 -0.49997228014499207 0
vn 0 0 -1
vn 1.1102230246251563e-15 -4.1435508868595935e-15 1
vn 1 0 0
vn 0 0 -1
vn 0 0 1
vn 0.8660414072586932 0.49997228014499207 0
vn 0 0 -1
vn 0 0 1
vn 0.49997228014499184 0.8660414072586934 0
vn 0 0 -1
vn 0 0 1
vn 0 1 0
vn 0 0 -1
usemtl m_4a76a50a-6332-4647-e48e-1cc4a548032a
f 321/1168/374 323/1169/374 319/1170/374
f 324/1171/375 323/1172/375 321/1173/375 322/1174/375
f 324/1175/376 322/1176/376 320/1177/376
f 323/1178/377 325/1179/377 319/1180/377
f 326/1181/378 325/1182/378 323/1183/378 324/1184/378
f 326/1185/379 324/1186/379 320/1187/379
f 325/1188/380 327/1189/380 319/1190/380
f 328/1191/381 327/1192/381 325/1193/381 326/1194/381
f 328/1195/382 326/1196/382 320/1197/382
f 327/1198/383 329/1199/383 319/1200/383
f 330/1201/384 329/1202/384 327/1203/384 328/1204/384
f 330/1205/385 328/1206/385 320/1207/385
f 329/1208/386 331/1209/386 319/1210/386
f 332/1211/387 331/1212/387 329/1213/387 330/1214/387
f 332/1215/388 330/1216/388 320/1217/388
f 331/1218/389 333/1219/389 319/1220/389
f 334/1221/390 333/1222/390 331/1223/390 332/1224/390
f 334/1225/391 332/1226/391 320/1227/391
f 333/1228/392 335/1229/392 319/1230/392
f 336/1231/393 335/1232/393 333/1233/393 334/1234/393
f 336/1235/394 334/1236/394 320/1237/394
f 335/1238/395 337/1239/395 319/1240/395
f 338/1241/396 337/1242/396 335/1243/396 336/1244/396
f 338/1245/397 336/1246/397 320/1247/397
f 337/1248/398 339/1249/398 319/1250/398
f 340/1251/399 339/1252/399 337/1253/399 338/1254/399
f 340/1255/400 338/1256/400 320/1257/400
f 339/1258/401 341/1259/401 319/1260/401
f 342/1261/402 341/1262/402 339/1263/402 340/1264/402
f 342/1265/403 340/1266/403 320/1267/403
f 341/1268/404 343/1269/404 319/1270/404
f 344/1271/405 343/1272/405 341/1273/405 342/1274/405
f 344/1275/406 342/1276/406 320/1277/406
f 343/1278/407 321/1279/407 319/1280/407
f 322/1281/408 321/1282/408 343/1283/408 344/1284/408
f 322/1285/409 344/1286/409 320/1287/409
o cylinder
v -2.3578125 1.828125 0.296875
v -2.3578125 1.828125 -0.296875
v -2.362836375 1.846875 0.296875
v -2.362836375 1.846875 -0.296875
v -2.371538625 1.841851125 0.296875
v -2.371538625 1.841851125 -0.296875
v -2.3765625 1.833148875 0.296875
v -2.3765625 1.833148875 -0.296875
v -2.3765625 1.823101125 0.29687499999999994
v -2.3765625 1.823101125 -0.296875
v -2.371538625 1.814398875 0.29687499999999994
v -2.371538625 1.814398875 -0.296875
v -2.362836375 1.809375 0.29687499999999994
v -2.362836375 1.809375 -0.296875
v -2.352788625 1.809375 0.29687499999999994
v -2.352788625 1.809375 -0.296875
v -2.344086375 1.814398875 0.29687499999999994
v -2.344086375 1.814398875 -0.296875
v -2.3390625 1.823101125 0.29687499999999994
v -2.3390625 1.823101125 -0.296875
v -2.3390625 1.833148875 0.296875
v -2.3390625 1.833148875 -0.296875
v -2.344086375 1.841851125 0.296875
v -2.344086375 1.841851125 -0.296875
v -2.352788625 1.846875 0.296875
v -2.352788625 1.846875 -0.296875
vt 0.003502421875 1
vt 0.00404375 0.997978125
vt 0 0.997978125
vt 0.00209375 1
vt 0.00209375 0.9921875
vt 0 0.9921875
vt 0 1
vt 0.00202171875 0.996497890625
vt 0 0.9959559375
vt 0 1
vt 0.003502109375 1
vt 0.0040440625 0.99797828125
vt 0 0.99797828125
vt 0.00209375 1
vt 0.00209375 0.9921875
vt 0 0.9921875
vt 0 1
vt 0.002021875 0.996497578125
vt 0 0.99595625
vt 0 1
vt 0.00390625 1
vt 0.00390625 0.99790625
vt 0 0.998953125
vt 0.00209375 1
vt 0.00209375 0.9921875
vt 0 0.9921875
vt 0 1
vt 0.00390625 1
vt 0.00390625 0.99790625
vt 0 0.998953125
vt 0.002021875 0.996497578125
vt 0 0.99595625
vt 0 1
vt 0.00209375 1
vt 0.00209375 0.9921875
vt 0 0.9921875
vt 0 1
vt 0.003502109375 1
vt 0.0040440625 0.99797828125
vt 0 0.99797828125
vt 0.00202171875 0.996497890625
vt 0 0.9959559375
vt 0 1
vt 0.00209375 1
vt 0.00209375 0.9921875
vt 0 0.9921875
vt 0 1
vt 0.003502421875 1
vt 0.00404375 0.997978125
vt 0 0.997978125
vt 0.00209375 0.99609375
vt 0 0.99609375
vt 0.001046875 1
vt 0.00209375 1
vt 0.00209375 0.9921875
vt 0 0.9921875
vt 0 1
vt 0 1
vt 0.00209375 1
vt 0.001046875 0.99609375
vt 0.00054140625 0.997978125
vt 0 1
vt 0.00404375 1
vt 0.00209375 1
vt 0.00209375 0.9921875
vt 0 0.9921875
vt 0 1
vt 0 0.99945796875
vt 0.00202171875 1
vt 0.00202171875 0.9959559375
vt 0.00054203125 0.99797828125
vt 0 1
vt 0.0040440625 1
vt 0.00209375 1
vt 0.00209375 0.9921875
vt 0 0.9921875
vt 0 1
vt 0 0.99945859375
vt 0.002021875 1
vt 0.002021875 0.99595625
vt 0 0.99790625
vt 0 1
vt 0.00390625 0.998953125
vt 0.00209375 1
vt 0.00209375 0.9921875
vt 0 0.9921875
vt 0 1
vt 0 0.99790625
vt 0 1
vt 0.00390625 0.998953125
vt 0 0.99945859375
vt 0.002021875 1
vt 0.002021875 0.99595625
vt 0.00209375 1
vt 0.00209375 0.9921875
vt 0 0.9921875
vt 0 1
vt 0.00054203125 0.99797828125
vt 0 1
vt 0.0040440625 1
vt 0 0.99945796875
vt 0.00202171875 1
vt 0.00202171875 0.9959559375
vt 0.00209375 1
vt 0.00209375 0.9921875
vt 0 0.9921875
vt 0 1
vt 0.00054140625 0.997978125
vt 0 1
vt 0.00404375 1
vt 0 1
vt 0.00209375 1
vt 0.001046875 0.99609375
vt 0.00209375 1
vt 0.00209375 0.9921875
vt 0 0.9921875
vt 0 1
vt 0.00209375 0.99609375
vt 0 0.99609375
vt 0.001046875 1
vn 0 0 1
vn -0.49997228014499334 0.8660414072586924 0
vn 0 0 -1
vn 0 0 1
vn -0.8660414072586939 0.4999722801449907 0
vn 0 0 -1
vn -1.4802973661668762e-15 -5.524734515812765e-15 1
vn -1 0 0
vn 0 0 -1
vn -2.5639874236411478e-15 -1.4802094076756122e-15 1
vn -0.8660414072586939 -0.4999722801449907 0
vn 0 0 -1
vn -1.480209407675618e-15 -2.56398742364114e-15 1
vn -0.49997228014499334 -0.8660414072586924 0
vn 0 0 -1
vn 0 -2.960594732333744e-15 1
vn 0 -1 0
vn 0 0 -1
vn 1.4802094076756217e-15 -2.563987423641138e-15 1
vn 0.4999722801449945 -0.8660414072586917 0
vn 0 0 -1
vn 2.563987423641151e-15 -1.4802094076756118e-15 1
vn 0.8660414072586943 -0.4999722801449902 0
vn 0 0 -1
vn 1.480297366166878e-15 -5.524734515812765e-15 1
vn 1 0 0
vn 0 0 -1
vn 0 0 1
vn 0.8660414072586943 0.4999722801449902 0
vn 0 0 -1
vn 0 0 1
vn 0.4999722801449945 0.8660414072586917 0
vn 0 0 -1
vn 0 0 1
vn 0 1 0
vn 0 0 -1
usemtl m_4a76a50a-6332-4647-e48e-1cc4a548032a
f 347/1288/410 349/1289/410 345/1290/410
f 350/1291/411 349/1292/411 347/1293/411 348/1294/411
f 350/1295/412 348/1296/412 346/1297/412
f 349/1298/413 351/1299/413 345/1300/413
f 352/1301/414 351/1302/414 349/1303/414 350/1304/414
f 352/1305/415 350/1306/415 346/1307/415
f 351/1308/416 353/1309/416 345/1310/416
f 354/1311/417 353/1312/417 351/1313/417 352/1314/417
f 354/1315/418 352/1316/418 346/1317/418
f 353/1318/419 355/1319/419 345/1320/419
f 356/1321/420 355/1322/420 353/1323/420 354/1324/420
f 356/1325/421 354/1326/421 346/1327/421
f 355/1328/422 357/1329/422 345/1330/422
f 358/1331/423 357/1332/423 355/1333/423 356/1334/423
f 358/1335/424 356/1336/424 346/1337/424
f 357/1338/425 359/1339/425 345/1340/425
f 360/1341/426 359/1342/426 357/1343/426 358/1344/426
f 360/1345/427 358/1346/427 346/1347/427
f 359/1348/428 361/1349/428 345/1350/428
f 362/1351/429 361/1352/429 359/1353/429 360/1354/429
f 362/1355/430 360/1356/430 346/1357/430
f 361/1358/431 363/1359/431 345/1360/431
f 364/1361/432 363/1362/432 361/1363/432 362/1364/432
f 364/1365/433 362/1366/433 346/1367/433
f 363/1368/434 365/1369/434 345/1370/434
f 366/1371/435 365/1372/435 363/1373/435 364/1374/435
f 366/1375/436 364/1376/436 346/1377/436
f 365/1378/437 367/1379/437 345/1380/437
f 368/1381/438 367/1382/438 365/1383/438 366/1384/438
f 368/1385/439 366/1386/439 346/1387/439
f 367/1388/440 369/1389/440 345/1390/440
f 370/1391/441 369/1392/441 367/1393/441 368/1394/441
f 370/1395/442 368/1396/442 346/1397/442
f 369/1398/443 347/1399/443 345/1400/443
f 348/1401/444 347/1402/444 369/1403/444 370/1404/444
f 348/1405/445 370/1406/445 346/1407/445
o cylinder
v -2.3296875 1.71875 0.296875
v -2.3296875 1.71875 -0.296875
v -2.334711375 1.7375 0.296875
v -2.334711375 1.7375 -0.296875
v -2.343413625 1.732476125 0.296875
v -2.343413625 1.732476125 -0.296875
v -2.3484375 1.723773875 0.296875
v -2.3484375 1.723773875 -0.296875
v -2.3484375 1.713726125 0.29687499999999994
v -2.3484375 1.713726125 -0.296875
v -2.343413625 1.705023875 0.29687499999999994
v -2.343413625 1.705023875 -0.296875
v -2.334711375 1.7 0.29687499999999994
v -2.334711375 1.7 -0.296875
v -2.324663625 1.7 0.29687499999999994
v -2.324663625 1.7 -0.296875
v -2.315961375 1.705023875 0.29687499999999994
v -2.315961375 1.705023875 -0.296875
v -2.3109375 1.713726125 0.29687499999999994
v -2.3109375 1.713726125 -0.296875
v -2.3109375 1.723773875 0.296875
v -2.3109375 1.723773875 -0.296875
v -2.315961375 1.732476125 0.296875
v -2.315961375 1.732476125 -0.296875
v -2.324663625 1.7375 0.296875
v -2.324663625 1.7375 -0.296875
vt 0.003502421875 1
vt 0.00404375 0.997978125
vt 0 0.997978125
vt 0.00209375 1
vt 0.00209375 0.9921875
vt 0 0.9921875
vt 0 1
vt 0.00202171875 0.996497890625
vt 0 0.9959559375
vt 0 1
vt 0.003502109375 1
vt 0.0040440625 0.99797828125
vt 0 0.99797828125
vt 0.00209375 1
vt 0.00209375 0.9921875
vt 0 0.9921875
vt 0 1
vt 0.002021875 0.996497578125
vt 0 0.99595625
vt 0 1
vt 0.00390625 1
vt 0.00390625 0.99790625
vt 0 0.998953125
vt 0.00209375 1
vt 0.00209375 0.9921875
vt 0 0.9921875
vt 0 1
vt 0.00390625 1
vt 0.00390625 0.99790625
vt 0 0.998953125
vt 0.002021875 0.996497578125
vt 0 0.99595625
vt 0 1
vt 0.00209375 1
vt 0.00209375 0.9921875
vt 0 0.9921875
vt 0 1
vt 0.003502109375 1
vt 0.0040440625 0.99797828125
vt 0 0.99797828125
vt 0.00202171875 0.996497890625
vt 0 0.9959559375
vt 0 1
vt 0.00209375 1
vt 0.00209375 0.9921875
vt 0 0.9921875
vt 0 1
vt 0.003502421875 1
vt 0.00404375 0.997978125
vt 0 0.997978125
vt 0.00209375 0.99609375
vt 0 0.99609375
vt 0.001046875 1
vt 0.00209375 1
vt 0.00209375 0.9921875
vt 0 0.9921875
vt 0 1
vt 0 1
vt 0.00209375 1
vt 0.001046875 0.99609375
vt 0.00054140625 0.997978125
vt 0 1
vt 0.00404375 1
vt 0.00209375 1
vt 0.00209375 0.9921875
vt 0 0.9921875
vt 0 1
vt 0 0.99945796875
vt 0.00202171875 1
vt 0.00202171875 0.9959559375
vt 0.00054203125 0.99797828125
vt 0 1
vt 0.0040440625 1
vt 0.00209375 1
vt 0.00209375 0.9921875
vt 0 0.9921875
vt 0 1
vt 0 0.99945859375
vt 0.002021875 1
vt 0.002021875 0.99595625
vt 0 0.99790625
vt 0 1
vt 0.00390625 0.998953125
vt 0.00209375 1
vt 0.00209375 0.9921875
vt 0 0.9921875
vt 0 1
vt 0 0.99790625
vt 0 1
vt 0.00390625 0.998953125
vt 0 0.99945859375
vt 0.002021875 1
vt 0.002021875 0.99595625
vt 0.00209375 1
vt 0.00209375 0.9921875
vt 0 0.9921875
vt 0 1
vt 0.00054203125 0.99797828125
vt 0 1
vt 0.0040440625 1
vt 0 0.99945796875
vt 0.00202171875 1
vt 0.00202171875 0.9959559375
vt 0.00209375 1
vt 0.00209375 0.9921875
vt 0 0.9921875
vt 0 1
vt 0.00054140625 0.997978125
vt 0 1
vt 0.00404375 1
vt 0 1
vt 0.00209375 1
vt 0.001046875 0.99609375
vt 0.00209375 1
vt 0.00209375 0.9921875
vt 0 0.9921875
vt 0 1
vt 0.00209375 0.99609375
vt 0 0.99609375
vt 0.001046875 1
vn 0 0 1
vn -0.49997228014499395 0.866041407258692 0
vn 0 0 -1
vn 0 0 1
vn -0.8660414072586928 0.4999722801449928 0
vn 0 0 -1
vn -1.4802973661668762e-15 -5.524734515812765e-15 1
vn -1 0 0
vn 0 0 -1
vn -2.5639874236411462e-15 -1.4802094076756193e-15 1
vn -0.8660414072586928 -0.4999722801449928 0
vn 0 0 -1
vn -1.4802094076756205e-15 -2.5639874236411403e-15 1
vn -0.49997228014499395 -0.866041407258692 0
vn 0 0 -1
vn 0 -2.960594732333744e-15 1
vn 0 -1 0
vn 0 0 -1
vn 1.4802094076756195e-15 -2.5639874236411383e-15 1
vn 0.49997228014499395 -0.866041407258692 0
vn 0 0 -1
vn 2.5639874236411478e-15 -1.4802094076756122e-15 1
vn 0.8660414072586939 -0.4999722801449907 0
vn 0 0 -1
vn 1.4802973661668762e-15 -5.524734515812765e-15 1
vn 1 0 0
vn 0 0 -1
vn 0 0 1
vn 0.8660414072586939 0.4999722801449907 0
vn 0 0 -1
vn 0 0 1
vn 0.49997228014499395 0.866041407258692 0
vn 0 0 -1
vn 0 0 1
vn 0 1 0
vn 0 0 -1
usemtl m_4a76a50a-6332-4647-e48e-1cc4a548032a
f 373/1408/446 375/1409/446 371/1410/446
f 376/1411/447 375/1412/447 373/1413/447 374/1414/447
f 376/1415/448 374/1416/448 372/1417/448
f 375/1418/449 377/1419/449 371/1420/449
f 378/1421/450 377/1422/450 375/1423/450 376/1424/450
f 378/1425/451 376/1426/451 372/1427/451
f 377/1428/452 379/1429/452 371/1430/452
f 380/1431/453 379/1432/453 377/1433/453 378/1434/453
f 380/1435/454 378/1436/454 372/1437/454
f 379/1438/455 381/1439/455 371/1440/455
f 382/1441/456 381/1442/456 379/1443/456 380/1444/456
f 382/1445/457 380/1446/457 372/1447/457
f 381/1448/458 383/1449/458 371/1450/458
f 384/1451/459 383/1452/459 381/1453/459 382/1454/459
f 384/1455/460 382/1456/460 372/1457/460
f 383/1458/461 385/1459/461 371/1460/461
f 386/1461/462 385/1462/462 383/1463/462 384/1464/462
f 386/1465/463 384/1466/463 372/1467/463
f 385/1468/464 387/1469/464 371/1470/464
f 388/1471/465 387/1472/465 385/1473/465 386/1474/465
f 388/1475/466 386/1476/466 372/1477/466
f 387/1478/467 389/1479/467 371/1480/467
f 390/1481/468 389/1482/468 387/1483/468 388/1484/468
f 390/1485/469 388/1486/469 372/1487/469
f 389/1488/470 391/1489/470 371/1490/470
f 392/1491/471 391/1492/471 389/1493/471 390/1494/471
f 392/1495/472 390/1496/472 372/1497/472
f 391/1498/473 393/1499/473 371/1500/473
f 394/1501/474 393/1502/474 391/1503/474 392/1504/474
f 394/1505/475 392/1506/475 372/1507/475
f 393/1508/476 395/1509/476 371/1510/476
f 396/1511/477 395/1512/477 393/1513/477 394/1514/477
f 396/1515/478 394/1516/478 372/1517/478
f 395/1518/479 373/1519/479 371/1520/479
f 374/1521/480 373/1522/480 395/1523/480 396/1524/480
f 374/1525/481 396/1526/481 372/1527/481
o cylinder
v 1.7125000000000004 4.285937499999999 0.296875
v 1.7125000000000004 4.285937499999999 -0.296875
v 1.7058014999999997 4.3109375 0.296875
v 1.7058014999999997 4.3109375 -0.296875
v 1.6941984999999997 4.304239 0.296875
v 1.6941984999999997 4.304239 -0.296875
v 1.6875 4.292636 0.296875
v 1.6875 4.292636 -0.296875
v 1.6875 4.279239 0.29687499999999994
v 1.6875 4.279239 -0.296875
v 1.6941984999999997 4.2676359999999995 0.29687499999999994
v 1.6941984999999997 4.2676359999999995 -0.296875
v 1.7058014999999997 4.2609375 0.29687499999999994
v 1.7058014999999997 4.2609375 -0.296875
v 1.7191985 4.2609375 0.29687499999999994
v 1.7191985 4.2609375 -0.296875
v 1.7308015 4.2676359999999995 0.29687499999999994
v 1.7308015 4.2676359999999995 -0.296875
v 1.7374999999999998 4.279239 0.29687499999999994
v 1.7374999999999998 4.279239 -0.296875
v 1.7374999999999998 4.292636 0.296875
v 1.7374999999999998 4.292636 -0.296875
v 1.7308015 4.304239 0.296875
v 1.7308015 4.304239 -0.296875
v 1.7191985 4.3109375 0.296875
v 1.7191985 4.3109375 -0.296875
vt 0.003502421875 1
vt 0.00404375 0.997978125
vt 0 0.997978125
vt 0.00209375 1
vt 0.00209375 0.9921875
vt 0 0.9921875
vt 0 1
vt 0.00202171875 0.996497890625
vt 0 0.9959559375
vt 0 1
vt 0.003502109375 1
vt 0.0040440625 0.99797828125
vt 0 0.99797828125
vt 0.00209375 1
vt 0.00209375 0.9921875
vt 0 0.9921875
vt 0 1
vt 0.002021875 0.996497578125
vt 0 0.99595625
vt 0 1
vt 0.00390625 1
vt 0.00390625 0.99790625
vt 0 0.998953125
vt 0.00209375 1
vt 0.00209375 0.9921875
vt 0 0.9921875
vt 0 1
vt 0.00390625 1
vt 0.00390625 0.99790625
vt 0 0.998953125
vt 0.002021875 0.996497578125
vt 0 0.99595625
vt 0 1
vt 0.00209375 1
vt 0.00209375 0.9921875
vt 0 0.9921875
vt 0 1
vt 0.003502109375 1
vt 0.0040440625 0.99797828125
vt 0 0.99797828125
vt 0.00202171875 0.996497890625
vt 0 0.9959559375
vt 0 1
vt 0.00209375 1
vt 0.00209375 0.9921875
vt 0 0.9921875
vt 0 1
vt 0.003502421875 1
vt 0.00404375 0.997978125
vt 0 0.997978125
vt 0.00209375 0.99609375
vt 0 0.99609375
vt 0.001046875 1
vt 0.00209375 1
vt 0.00209375 0.9921875
vt 0 0.9921875
vt 0 1
vt 0 1
vt 0.00209375 1
vt 0.001046875 0.99609375
vt 0.00054140625 0.997978125
vt 0 1
vt 0.00404375 1
vt 0.00209375 1
vt 0.00209375 0.9921875
vt 0 0.9921875
vt 0 1
vt 0 0.99945796875
vt 0.00202171875 1
vt 0.00202171875 0.9959559375
vt 0.00054203125 0.99797828125
vt 0 1
vt 0.0040440625 1
vt 0.00209375 1
vt 0.00209375 0.9921875
vt 0 0.9921875
vt 0 1
vt 0 0.99945859375
vt 0.002021875 1
vt 0.002021875 0.99595625
vt 0 0.99790625
vt 0 1
vt 0.00390625 0.998953125
vt 0.00209375 1
vt 0.00209375 0.9921875
vt 0 0.9921875
vt 0 1
vt 0 0.99790625
vt 0 1
vt 0.00390625 0.998953125
vt 0 0.99945859375
vt 0.002021875 1
vt 0.002021875 0.99595625
vt 0.00209375 1
vt 0.00209375 0.9921875
vt 0 0.9921875
vt 0 1
vt 0.00054203125 0.99797828125
vt 0 1
vt 0.0040440625 1
vt 0 0.99945796875
vt 0.00202171875 1
vt 0.00202171875 0.9959559375
vt 0.00209375 1
vt 0.00209375 0.9921875
vt 0 0.9921875
vt 0 1
vt 0.00054140625 0.997978125
vt 0 1
vt 0.00404375 1
vt 0 1
vt 0.00209375 1
vt 0.001046875 0.99609375
vt 0.00209375 1
vt 0.00209375 0.9921875
vt 0 0.9921875
vt 0 1
vt 0.00209375 0.99609375
vt 0 0.99609375
vt 0.001046875 1
vn 0 0 1
vn -0.4999722801449887 0.8660414072586953 0
vn 0 0 -1
vn 0 0 1
vn -0.8660414072587024 0.49997228014497624 0
vn 0 0 -1
vn -1.1102230246251408e-15 -4.143550886859619e-15 1
vn -1 0 0
vn 0 0 -1
vn -1.922990567730849e-15 -1.1101570557566594e-15 1
vn -0.8660414072587024 -0.49997228014497624 0
vn 0 0 -1
vn -1.1101570557566935e-15 -1.9229905677308444e-15 1
vn -0.4999722801449887 -0.8660414072586953 0
vn 0 0 -1
vn 0 -2.220446049250321e-15 1
vn 0 -1 0
vn 0 0 -1
vn 1.1101570557567133e-15 -1.9229905677308787e-15 1
vn 0.4999722801449887 -0.8660414072586953 0
vn 0 0 -1
vn 1.9229905677309083e-15 -1.1101570557566935e-15 1
vn 0.8660414072587024 -0.49997228014497624 0
vn 0 0 -1
vn 1.1102230246251802e-15 -4.1435508868596196e-15 1
vn 1 0 0
vn 0 0 -1
vn 0 0 1
vn 0.8660414072587024 0.49997228014497624 0
vn 0 0 -1
vn 0 0 1
vn 0.4999722801449887 0.8660414072586953 0
vn 0 0 -1
vn 0 0 1
vn 0 1 0
vn 0 0 -1
usemtl m_4a76a50a-6332-4647-e48e-1cc4a548032a
f 399/1528/482 401/1529/482 397/1530/482
f 402/1531/483 401/1532/483 399/1533/483 400/1534/483
f 402/1535/484 400/1536/484 398/1537/484
f 401/1538/485 403/1539/485 397/1540/485
f 404/1541/486 403/1542/486 401/1543/486 402/1544/486
f 404/1545/487 402/1546/487 398/1547/487
f 403/1548/488 405/1549/488 397/1550/488
f 406/1551/489 405/1552/489 403/1553/489 404/1554/489
f 406/1555/490 404/1556/490 398/1557/490
f 405/1558/491 407/1559/491 397/1560/491
f 408/1561/492 407/1562/492 405/1563/492 406/1564/492
f 408/1565/493 406/1566/493 398/1567/493
f 407/1568/494 409/1569/494 397/1570/494
f 410/1571/495 409/1572/495 407/1573/495 408/1574/495
f 410/1575/496 408/1576/496 398/1577/496
f 409/1578/497 411/1579/497 397/1580/497
f 412/1581/498 411/1582/498 409/1583/498 410/1584/498
f 412/1585/499 410/1586/499 398/1587/499
f 411/1588/500 413/1589/500 397/1590/500
f 414/1591/501 413/1592/501 411/1593/501 412/1594/501
f 414/1595/502 412/1596/502 398/1597/502
f 413/1598/503 415/1599/503 397/1600/503
f 416/1601/504 415/1602/504 413/1603/504 414/1604/504
f 416/1605/505 414/1606/505 398/1607/505
f 415/1608/506 417/1609/506 397/1610/506
f 418/1611/507 417/1612/507 415/1613/507 416/1614/507
f 418/1615/508 416/1616/508 398/1617/508
f 417/1618/509 419/1619/509 397/1620/509
f 420/1621/510 419/1622/510 417/1623/510 418/1624/510
f 420/1625/511 418/1626/511 398/1627/511
f 419/1628/512 421/1629/512 397/1630/512
f 422/1631/513 421/1632/513 419/1633/513 420/1634/513
f 422/1635/514 420/1636/514 398/1637/514
f 421/1638/515 399/1639/515 397/1640/515
f 400/1641/516 399/1642/516 421/1643/516 422/1644/516
f 400/1645/517 422/1646/517 398/1647/517
o cylinder
v 1.8265624999999996 4.196875 0.296875
v 1.8265624999999996 4.196875 -0.296875
v 1.8215386250000005 4.215625 0.296875
v 1.8215386250000005 4.215625 -0.296875
v 1.8128363749999998 4.210601125 0.296875
v 1.8128363749999998 4.210601125 -0.296875
v 1.8078124999999998 4.2018988749999995 0.296875
v 1.8078124999999998 4.2018988749999995 -0.296875
v 1.8078124999999998 4.1918511249999995 0.29687499999999994
v 1.8078124999999998 4.1918511249999995 -0.296875
v 1.8128363749999998 4.183148875 0.29687499999999994
v 1.8128363749999998 4.183148875 -0.296875
v 1.8215386250000005 4.178125 0.29687499999999994
v 1.8215386250000005 4.178125 -0.296875
v 1.8315863750000005 4.178125 0.29687499999999994
v 1.8315863750000005 4.178125 -0.296875
v 1.8402886249999995 4.183148875 0.29687499999999994
v 1.8402886249999995 4.183148875 -0.296875
v 1.8453125000000004 4.1918511249999995 0.29687499999999994
v 1.8453125000000004 4.1918511249999995 -0.296875
v 1.8453125000000004 4.2018988749999995 0.296875
v 1.8453125000000004 4.2018988749999995 -0.296875
v 1.8402886249999995 4.210601125 0.296875
v 1.8402886249999995 4.210601125 -0.296875
v 1.8315863750000005 4.215625 0.296875
v 1.8315863750000005 4.215625 -0.296875
vt 0.003502421875 1
vt 0.00404375 0.997978125
vt 0 0.997978125
vt 0.00209375 1
vt 0.00209375 0.9921875
vt 0 0.9921875
vt 0 1
vt 0.00202171875 0.996497890625
vt 0 0.9959559375
vt 0 1
vt 0.003502109375 1
vt 0.0040440625 0.99797828125
vt 0 0.99797828125
vt 0.00209375 1
vt 0.00209375 0.9921875
vt 0 0.9921875
vt 0 1
vt 0.002021875 0.996497578125
vt 0 0.99595625
vt 0 1
vt 0.00390625 1
vt 0.00390625 0.99790625
vt 0 0.998953125
vt 0.00209375 1
vt 0.00209375 0.9921875
vt 0 0.9921875
vt 0 1
vt 0.00390625 1
vt 0.00390625 0.99790625
vt 0 0.998953125
vt 0.002021875 0.996497578125
vt 0 0.99595625
vt 0 1
vt 0.00209375 1
vt 0.00209375 0.9921875
vt 0 0.9921875
vt 0 1
vt 0.003502109375 1
vt 0.0040440625 0.99797828125
vt 0 0.99797828125
vt 0.00202171875 0.996497890625
vt 0 0.9959559375
vt 0 1
vt 0.00209375 1
vt 0.00209375 0.9921875
vt 0 0.9921875
vt 0 1
vt 0.003502421875 1
vt 0.00404375 0.997978125
vt 0 0.997978125
vt 0.00209375 0.99609375
vt 0 0.99609375
vt 0.001046875 1
vt 0.00209375 1
vt 0.00209375 0.9921875
vt 0 0.9921875
vt 0 1
vt 0 1
vt 0.00209375 1
vt 0.001046875 0.99609375
vt 0.00054140625 0.997978125
vt 0 1
vt 0.00404375 1
vt 0.00209375 1
vt 0.00209375 0.9921875
vt 0 0.9921875
vt 0 1
vt 0 0.99945796875
vt 0.00202171875 1
vt 0.00202171875 0.9959559375
vt 0.00054203125 0.99797828125
vt 0 1
vt 0.0040440625 1
vt 0.00209375 1
vt 0.00209375 0.9921875
vt 0 0.9921875
vt 0 1
vt 0 0.99945859375
vt 0.002021875 1
vt 0.002021875 0.99595625
vt 0 0.99790625
vt 0 1
vt 0.00390625 0.998953125
vt 0.00209375 1
vt 0.00209375 0.9921875
vt 0 0.9921875
vt 0 1
vt 0 0.99790625
vt 0 1
vt 0.00390625 0.998953125
vt 0 0.99945859375
vt 0.002021875 1
vt 0.002021875 0.99595625
vt 0.00209375 1
vt 0.00209375 0.9921875
vt 0 0.9921875
vt 0 1
vt 0.00054203125 0.99797828125
vt 0 1
vt 0.0040440625 1
vt 0 0.99945796875
vt 0.00202171875 1
vt 0.00202171875 0.9959559375
vt 0.00209375 1
vt 0.00209375 0.9921875
vt 0 0.9921875
vt 0 1
vt 0.00054140625 0.997978125
vt 0 1
vt 0.00404375 1
vt 0 1
vt 0.00209375 1
vt 0.001046875 0.99609375
vt 0.00209375 1
vt 0.00209375 0.9921875
vt 0 0.9921875
vt 0 1
vt 0.00209375 0.99609375
vt 0 0.99609375
vt 0.001046875 1
vn 0 0 1
vn -0.4999722801449641 0.8660414072587094 0
vn 0 0 -1
vn 0 0 1
vn -0.8660414072586928 0.4999722801449928 0
vn 0 0 -1
vn -1.4802973661668895e-15 -5.524734515812765e-15 1
vn -1 0 0
vn 0 0 -1
vn -2.5639874236411655e-15 -1.4802094076756306e-15 1
vn -0.8660414072586928 -0.4999722801449928 0
vn 0 0 -1
vn -1.4802094076755525e-15 -2.5639874236412267e-15 1
vn -0.4999722801449641 -0.8660414072587094 0
vn 0 0 -1
vn 0 -2.960594732333744e-15 1
vn 0 -1 0
vn 0 0 -1
vn 1.480209407675744e-15 -2.563987423641035e-15 1
vn 0.49997228014504064 -0.8660414072586652 0
vn 0 0 -1
vn 2.5639874236409995e-15 -1.4802094076757964e-15 1
vn 0.8660414072586545 -0.49997228014505907 0
vn 0 0 -1
vn 1.4802973661668192e-15 -5.524734515812764e-15 1
vn 1 0 0
vn 0 0 -1
vn 0 0 1
vn 0.8660414072586545 0.49997228014505907 0
vn 0 0 -1
vn 0 0 1
vn 0.49997228014504064 0.8660414072586652 0
vn 0 0 -1
vn 0 0 1
vn 0 1 0
vn 0 0 -1
usemtl m_4a76a50a-6332-4647-e48e-1cc4a548032a
f 425/1648/518 427/1649/518 423/1650/518
f 428/1651/519 427/1652/519 425/1653/519 426/1654/519
f 428/1655/520 426/1656/520 424/1657/520
f 427/1658/521 429/1659/521 423/1660/521
f 430/1661/522 429/1662/522 427/1663/522 428/1664/522
f 430/1665/523 428/1666/523 424/1667/523
f 429/1668/524 431/1669/524 423/1670/524
f 432/1671/525 431/1672/525 429/1673/525 430/1674/525
f 432/1675/526 430/1676/526 424/1677/526
f 431/1678/527 433/1679/527 423/1680/527
f 434/1681/528 433/1682/528 431/1683/528 432/1684/528
f 434/1685/529 432/1686/529 424/1687/529
f 433/1688/530 435/1689/530 423/1690/530
f 436/1691/531 435/1692/531 433/1693/531 434/1694/531
f 436/1695/532 434/1696/532 424/1697/532
f 435/1698/533 437/1699/533 423/1700/533
f 438/1701/534 437/1702/534 435/1703/534 436/1704/534
f 438/1705/535 436/1706/535 424/1707/535
f 437/1708/536 439/1709/536 423/1710/536
f 440/1711/537 439/1712/537 437/1713/537 438/1714/537
f 440/1715/538 438/1716/538 424/1717/538
f 439/1718/539 441/1719/539 423/1720/539
f 442/1721/540 441/1722/540 439/1723/540 440/1724/540
f 442/1725/541 440/1726/541 424/1727/541
f 441/1728/542 443/1729/542 423/1730/542
f 444/1731/543 443/1732/543 441/1733/543 442/1734/543
f 444/1735/544 442/1736/544 424/1737/544
f 443/1738/545 445/1739/545 423/1740/545
f 446/1741/546 445/1742/546 443/1743/546 444/1744/546
f 446/1745/547 444/1746/547 424/1747/547
f 445/1748/548 447/1749/548 423/1750/548
f 448/1751/549 447/1752/549 445/1753/549 446/1754/549
f 448/1755/550 446/1756/550 424/1757/550
f 447/1758/551 425/1759/551 423/1760/551
f 426/1761/552 425/1762/552 447/1763/552 448/1764/552
f 426/1765/553 448/1766/553 424/1767/553