# Made in Blockbench 5.1.6
mtllib dc_metro_roof_d1l.mtl

o part1p
v -0.3753616937762173 -0.7052107129991964 -0.5
v -0.4908466353401282 -0.7530461420448326 -0.5
v -0.6762089228919684 -0.30554199348467787 -0.5
v -0.5607239813280576 -0.2577065644390417 -0.5
v -0.3753616937762173 -0.7052107129991964 0.5
v -0.5607239813280576 -0.2577065644390417 0.5
v -0.4908466353401282 -0.7530461420448326 0.5
v -0.6762089228919684 -0.30554199348467787 0.5
vt 0 0.8828125
vt 0.015625 0.8828125
vt 0.015625 0.943359375
vt 0 0.943359375
vt 0 0.8828125
vt 0.125 0.8828125
vt 0.125 0.943359375
vt 0 0.943359375
vt 0 0.8828125
vt 0.015625 0.8828125
vt 0.015625 0.943359375
vt 0 0.943359375
vt 0 0.8828125
vt 0.125 0.8828125
vt 0.125 0.943359375
vt 0 0.943359375
vt 0 0.875
vt 0.015625 0.875
vt 0.015625 1
vt 0 1
vt 0 0.875
vt 0.015625 0.875
vt 0.015625 1
vt 0 1
vn 0 0 -1
vn 0.9238795325112868 0.3826834323650895 0
vn 0 0 1
vn -0.9238795325112868 -0.38268343236508945 0
vn -0.38268343236508917 0.923879532511287 0
vn 0.3826834323650896 -0.923879532511287 0
usemtl m_fda2ae78-a73f-0f18-8aec-7afc260d384b
f 1/1/1 2/2/1 3/3/1 4/4/1
f 5/5/2 1/6/2 4/7/2 6/8/2
f 7/9/3 5/10/3 6/11/3 8/12/3
f 2/13/4 7/14/4 8/15/4 3/16/4
f 8/17/5 6/18/5 4/19/5 3/20/5
f 2/21/6 1/22/6 5/23/6 7/24/6
o part1p
v -0.3681838936252485 -0.27611158342019404 -0.5
v -0.5035003629665671 -0.35423658342019404 -0.5
v -0.7222503629665671 0.024649530735498026 -0.5
v -0.5869338936252486 0.102774530735498 -0.5
v -0.3681838936252485 -0.27611158342019404 0.5
v -0.5869338936252486 0.102774530735498 0.5
v -0.5035003629665671 -0.35423658342019404 0.5
v -0.7222503629665671 0.024649530735498026 0.5
vt 0 0.9140625
vt 0.01953125 0.9140625
vt 0.01953125 0.96875
vt 0 0.96875
vt 0 0.9140625
vt 0.125 0.9140625
vt 0.125 0.96875
vt 0 0.96875
vt 0 0.9140625
vt 0.01953125 0.9140625
vt 0.01953125 0.96875
vt 0 0.96875
vt 0 0.9140625
vt 0.125 0.9140625
vt 0.125 0.96875
vt 0 0.96875
vt 0 0.875
vt 0.01953125 0.875
vt 0.01953125 1
vt 0 1
vt 0 0.875
vt 0.01953125 0.875
vt 0.01953125 1
vt 0 1
vn 0 0 -1
vn 0.8660254037844387 0.5000000000000001 0
vn 0 0 1
vn -0.8660254037844388 -0.4999999999999999 0
vn -0.5000000000000001 0.8660254037844387 0
vn 0.4999999999999999 -0.8660254037844387 0
usemtl m_fda2ae78-a73f-0f18-8aec-7afc260d384b
f 9/25/7 10/26/7 11/27/7 12/28/7
f 13/29/8 9/30/8 12/31/8 14/32/8
f 15/33/9 13/34/9 14/35/9 16/36/9
f 10/37/10 15/38/10 16/39/10 11/40/10
f 16/41/11 14/42/11 12/43/11 11/44/11
f 10/45/12 9/46/12 13/47/12 15/48/12
o part1p
v -0.41005095494261135 0.42140429394508017 -0.5
v -0.5453674242839299 0.34327929394508017 -0.5
v -0.6391174242839299 0.5056590571546625 -0.5
v -0.5038009549426115 0.5837840571546625 -0.5
v -0.41005095494261135 0.42140429394508017 0.5
v -0.5038009549426115 0.5837840571546625 0.5
v -0.5453674242839299 0.34327929394508017 0.5
v -0.6391174242839299 0.5056590571546625 0.5
vt 0 0.9453125
vt 0.01953125 0.9453125
vt 0.01953125 0.96875
vt 0 0.96875
vt 0 0.9453125
vt 0.125 0.9453125
vt 0.125 0.96875
vt 0 0.96875
vt 0 0.9453125
vt 0.01953125 0.9453125
vt 0.01953125 0.96875
vt 0 0.96875
vt 0 0.9453125
vt 0.125 0.9453125
vt 0.125 0.96875
vt 0 0.96875
vt 0 0.875
vt 0.01953125 0.875
vt 0.01953125 1
vt 0 1
vt 0 0.875
vt 0.01953125 0.875
vt 0.01953125 1
vt 0 1
vn 0 0 -1
vn 0.8660254037844386 0.5000000000000002 0
vn 0 0 1
vn -0.8660254037844389 -0.49999999999999983 0
vn -0.5000000000000003 0.8660254037844387 0
vn 0.4999999999999999 -0.8660254037844387 0
usemtl m_fda2ae78-a73f-0f18-8aec-7afc260d384b
f 17/49/13 18/50/13 19/51/13 20/52/13
f 21/53/14 17/54/14 20/55/14 22/56/14
f 23/57/15 21/58/15 22/59/15 24/60/15
f 18/61/16 23/62/16 24/63/16 19/64/16
f 24/65/17 22/66/17 20/67/17 19/68/17
f 18/69/18 17/70/18 21/71/18 23/72/18
o part1p
v -0.9594050591976035 0.1640625000000024 0.4999999999999952
v -0.4587341226347248 -0.12499999999999671 0.49999999999999434
v -0.20873412263472524 0.3080127018922229 0.4999999999999938
v -0.7094050591976044 0.5970752018922221 0.49999999999999467
v -0.9594050591976053 0.1640625000000023 -0.5000000000000049
v -0.7094050591976062 0.597075201892222 -0.5000000000000053
v -0.45873412263472657 -0.1249999999999968 -0.5000000000000058
v -0.20873412263472702 0.30801270189222285 -0.5000000000000062
vt 0.001953125 0.921875
vt 0.07421875 0.921875
vt 0.07421875 0.984375
vt 0.001953125 0.984375
vt 0.0078125 0.921875
vt 0.1328125 0.921875
vt 0.1328125 0.984375
vt 0.0078125 0.984375
vt 0.05859375 0.921875
vt 0.130859375 0.921875
vt 0.130859375 0.984375
vt 0.05859375 0.984375
vt 0.125 0.921875
vt 0.25 0.921875
vt 0.25 0.984375
vt 0.125 0.984375
vt 0.05859375 0.75
vt 0.130859375 0.75
vt 0.130859375 0.875
vt 0.05859375 0.875
vt 0.05859375 0.8671875
vt 0.130859375 0.8671875
vt 0.130859375 0.9921875
vt 0.05859375 0.9921875
vn 1.885593803432017e-15 1.933270342619455e-16 1
vn -0.8660254037844397 0.4999999999999984 1.4967367856834097e-15
vn -1.7745715009695024e-15 -1.0307656235905108e-18 -1
vn 0.8660254037844394 -0.4999999999999991 -1.496736785683409e-15
vn 0.4999999999999985 0.8660254037844397 -1.0082025304704124e-15
vn -0.49999999999999883 -0.8660254037844394 1.008202530470413e-15
usemtl m_fda2ae78-a73f-0f18-8aec-7afc260d384b
f 25/73/19 26/74/19 27/75/19 28/76/19
f 29/77/20 25/78/20 28/79/20 30/80/20
f 31/81/21 29/82/21 30/83/21 32/84/21
f 26/85/22 31/86/22 32/87/22 27/88/22
f 32/89/23 30/90/23 28/91/23 27/92/23
f 26/93/24 25/94/24 29/95/24 31/96/24
o part1p
v -0.3785003629665671 -0.5707429343663036 -0.5
v -0.48675353843962194 -0.6332429343663036 -0.5
v -0.9555035384396219 0.1786558816816077 -0.5
v -0.8472503629665671 0.2411558816816077 -0.5
v -0.3785003629665671 -0.5707429343663036 0.5
v -0.8472503629665671 0.2411558816816077 0.5
v -0.48675353843962194 -0.6332429343663036 0.5
v -0.9555035384396219 0.1786558816816077 0.5
vt 0 0.8828125
vt 0.015625 0.8828125
vt 0.015625 1
vt 0 1
vt 0 0.8828125
vt 0.125 0.8828125
vt 0.125 1
vt 0 1
vt 0 0.8828125
vt 0.015625 0.8828125
vt 0.015625 1
vt 0 1
vt 0 0.8828125
vt 0.125 0.8828125
vt 0.125 1
vt 0 1
vt 0 0.875
vt 0.015625 0.875
vt 0.015625 1
vt 0 1
vt 0 0.875
vt 0.015625 0.875
vt 0.015625 1
vt 0 1
vn 0 0 -1
vn 0.8660254037844387 0.49999999999999994 0
vn 0 0 1
vn -0.8660254037844387 -0.4999999999999999 0
vn -0.5000000000000001 0.8660254037844386 0
vn 0.5 -0.8660254037844388 0
usemtl m_fda2ae78-a73f-0f18-8aec-7afc260d384b
f 33/97/25 34/98/25 35/99/25 36/100/25
f 37/101/26 33/102/26 36/103/26 38/104/26
f 39/105/27 37/106/27 38/107/27 40/108/27
f 34/109/28 39/110/28 40/111/28 35/112/28
f 40/113/29 38/114/29 36/115/29 35/116/29
f 34/117/30 33/118/30 37/119/30 39/120/30
o part1p
v 0.5 -1 -0.5
v -0.5 -1 -0.5
v -0.5 -0.25 -0.5
v 0.5 -0.25 -0.5
v 0.5 -1 0.5
v 0.5 -0.25 0.5
v -0.5 -1 0.5
v -0.5 -0.25 0.5
vt 0 0.875
vt 0.125 0.875
vt 0.125 1
vt 0 1
vt 0 0.875
vt 0.125 0.875
vt 0.125 1
vt 0 1
vt 0 0.875
vt 0.125 0.875
vt 0.125 1
vt 0 1
vt 0 0.875
vt 0.125 0.875
vt 0.125 1
vt 0 1
vt 0 0.875
vt 0.125 0.875
vt 0.125 1
vt 0 1
vt 0 0.875
vt 0.125 0.875
vt 0.125 1
vt 0 1
vn 0 0 -1
vn 1 0 0
vn 0 0 1
vn -1 0 0
vn 0 1 0
vn 0 -1 0
usemtl m_fda2ae78-a73f-0f18-8aec-7afc260d384b
f 41/121/31 42/122/31 43/123/31 44/124/31
f 45/125/32 41/126/32 44/127/32 46/128/32
f 47/129/33 45/130/33 46/131/33 48/132/33
f 42/133/34 47/134/34 48/135/34 43/136/34
f 48/137/35 46/138/35 44/139/35 43/140/35
f 42/141/36 41/142/36 45/143/36 47/144/36
o mesh
v 0.3125 0.25 -0.5
v 0.3125 0.25 0.5
v 0.5 -0.25 0.5
v 0.5 -0.25 -0.5
v -0.5 -0.25 0.5
v -0.3125 0.5625 0.5
v -0.3125 0.5625 -0.5
v -0.5 -0.25 -0.5
vt 1 1
vt 0 1
vt 0 0.5
vt 1 0.5
vt 1 0.5
vt 1 1
vt 0 1
vt 0 0.5
vt 0 0
vt 1 0
vt 1 1
vt 0 1
vt 1 0
vt 1 1
vt 0 1
vt 0 0
vt 1 0.5
vt 1 1
vt 0 1
vt 0 0.5
vt 1 1
vt 0 1
vt 0 0.5
vt 1 0.5
vn 0.9363291775690445 0.3511234415883917 0
vn -0.9743911956946198 0.22485950669875843 0
vn 0.44721359549995804 0.8944271909999161 0
vn 0 -1 0
vn 0 0 1
vn 0 0 -1
usemtl m_fda2ae78-a73f-0f18-8aec-7afc260d384b
f 49/145/37 50/146/37 51/147/37 52/148/37
f 53/149/38 54/150/38 55/151/38 56/152/38
f 54/153/39 50/154/39 49/155/39 55/156/39
f 52/157/40 51/158/40 53/159/40 56/160/40
f 51/161/41 50/162/41 54/163/41 53/164/41
f 55/165/42 49/166/42 52/167/42 56/168/42
o mesh
v -0.3125 0.5625 -0.5
v -0.3125 0.5625 0.5
v -0.34375 0.375 0.5
v -0.34375 0.375 -0.5
v -0.703125 0.59375 0.5
v -0.703125 0.6875 0.5
v -0.703125 0.6875 -0.5
v -0.703125 0.59375 -0.5
vt 1 1
vt 0 1
vt 0 0.5
vt 1 0.5
vt 1 0.5
vt 1 1
vt 0 1
vt 0 0.5
vt 0 0
vt 1 0
vt 1 1
vt 0 1
vt 1 0
vt 1 1
vt 0 1
vt 0 0
vt 1 0.5
vt 1 1
vt 0 1
vt 0 0.5
vt 1 1
vt 0 1
vt 0 0.5
vt 1 0.5
vn 0.9863939238321437 -0.1643989873053573 0
vn -1 0 0
vn 0.30477572710378376 0.9524241471993243 0
vn -0.5199469468957453 -0.8541985556144386 0
vn 0 0 1
vn 0 0 -1
usemtl m_fda2ae78-a73f-0f18-8aec-7afc260d384b
f 57/169/43 58/170/43 59/171/43 60/172/43
f 61/173/44 62/174/44 63/175/44 64/176/44
f 62/177/45 58/178/45 57/179/45 63/180/45
f 60/181/46 59/182/46 61/183/46 64/184/46
f 59/185/47 58/186/47 62/187/47 61/188/47
f 63/189/48 57/190/48 60/191/48 64/192/48
o part2l
v -0.5876202367904183 -0.4668068581250889 -0.031249999999998793
v -0.9123797632095832 -0.6543068581250882 -0.031249999999999476
v -0.9436297632095831 -0.6001802703885607 -0.031249999999999434
v -0.6188702367904182 -0.41268027038856137 -0.03124999999999875
v -0.5876202367904184 -0.466806858125089 0.03125000000000121
v -0.6188702367904183 -0.4126802703885615 0.03125000000000125
v -0.9123797632095834 -0.6543068581250883 0.03125000000000052
v -0.9436297632095832 -0.6001802703885607 0.03125000000000056
vt 0.001953125 0.94921875
vt 0.048828125 0.94921875
vt 0.048828125 0.95703125
vt 0.001953125 0.95703125
vt 0.05859375 0.94921875
vt 0.06640625 0.94921875
vt 0.06640625 0.95703125
vt 0.05859375 0.95703125
vt 0.078125 0.94921875
vt 0.125 0.94921875
vt 0.125 0.95703125
vt 0.078125 0.95703125
vt 0.060546875 0.94921875
vt 0.068359375 0.94921875
vt 0.068359375 0.95703125
vt 0.060546875 0.95703125
vt 0.078125 0.931640625
vt 0.125 0.931640625
vt 0.125 0.939453125
vt 0.078125 0.939453125
vt 0.078125 0.93359375
vt 0.125 0.93359375
vt 0.125 0.94140625
vt 0.078125 0.94140625
vn 1.2453649643522977e-15 1.4881968719615492e-15 -1
vn 0.8660254037844398 0.499999999999998 2.4265485688069747e-15
vn -1.2533773088788957e-15 -1.4928228012308214e-15 1
vn -0.86602540378444 -0.49999999999999767 -2.4265485688069747e-15
vn -0.49999999999999795 0.8660254037844398 5.921189464667501e-16
vn 0.499999999999998 -0.8660254037844398 -5.921189464667501e-16
usemtl m_3135e8dd-f322-3674-b32f-b8b41dcb604e
f 65/193/49 66/194/49 67/195/49 68/196/49
f 69/197/50 65/198/50 68/199/50 70/200/50
f 71/201/51 69/202/51 70/203/51 72/204/51
f 66/205/52 71/206/52 72/207/52 67/208/52
f 72/209/53 70/210/53 68/211/53 67/212/53
f 66/213/54 65/214/54 69/215/54 71/216/54
o part2l
v -0.9832136528146316 -0.41878283046875 -0.07715780703124986
v -1.0064589348458814 -0.41878283046875 -0.06960476015624976
v -0.9709933223458815 -0.40656249999999994 2.272140277053534e-16
v -0.9942379801583813 -0.45424844296875 -0.1467625671874998
v -1.0384526426583813 -0.45424844296875 -0.13239617265624978
v -1.0029870301583812 -0.5094874328125 -0.20200155703124983
v -1.063843364533381 -0.5094874328125 -0.18222817968749985
v -1.0086043746896312 -0.57909219296875 -0.23746716953124977
v -1.080144837189631 -0.57909219296875 -0.21422188749999993
v -1.0105400770333812 -0.65625 -0.24968749999999976
v -1.0857621817208811 -0.65625 -0.22524621484374996
v -1.0086043746896312 -0.73340780703125 -0.23746716953124974
v -1.080144837189631 -0.73340780703125 -0.21422188749999993
v -1.0029870301583812 -0.8030125671875 -0.20200155703124978
v -1.063843364533381 -0.8030125671875 -0.1822281796874998
v -0.9942379801583812 -0.8582515570312499 -0.14676256718749975
v -1.0384526426583813 -0.8582515570312499 -0.13239617265624973
v -0.9832136528146315 -0.8937171695312499 -0.0771578070312498
v -1.0064589348458812 -0.8937171695312499 -0.06960476015624971
v -0.9709933223458815 -0.9059375000000001 2.8836982723777447e-16
v -1.0262323121896313 -0.41878283046875 -0.05523898984374989
v -1.0760636950021314 -0.45424844296875 -0.10507037265624981
v -1.115610449689631 -0.5094874328125 -0.14461712734375007
v -1.1410011715646309 -0.57909219296875 -0.17000784921875003
v -1.1497495973458811 -0.65625 -0.17875627499999994
v -1.1410011715646309 -0.73340780703125 -0.17000784921875
v -1.115610449689631 -0.8030125671875 -0.14461712734375004
v -1.0760636950021314 -0.8582515570312499 -0.10507037265624976
v -1.026232312189631 -0.8937171695312499 -0.055238989843749836
v -1.0405980825021317 -0.41878283046875 -0.03546561249999982
v -1.1033894950021315 -0.45424844296875 -0.0674593203125
v -1.1532215020333814 -0.5094874328125 -0.0928500421875
v -1.1852152098458815 -0.57909219296875 -0.10915151484375006
v -1.196239537189631 -0.65625 -0.11476885937500009
v -1.1852152098458815 -0.73340780703125 -0.10915151484375005
v -1.1532215020333814 -0.8030125671874999 -0.09285004218749995
v -1.1033894950021312 -0.85825155703125 -0.06745932031249996
v -1.0405980825021317 -0.8937171695312499 -0.035465612499999764
v -1.0481511293771315 -0.41878283046875 -0.012220330468749884
v -1.1177558895333815 -0.45424844296875 -0.023244657812500017
v -1.1729948793771314 -0.5094874328125 -0.03199370781250021
v -1.2084604918771313 -0.57909219296875 -0.037611052343750284
v -1.2206808223458814 -0.65625 -0.0395467546875002
v -1.2084604918771313 -0.73340780703125 -0.03761105234375026
v -1.1729948793771314 -0.8030125671874999 -0.031993707812500174
v -1.1177558895333815 -0.85825155703125 -0.023244657812499965
v -1.0481511293771315 -0.8937171695312499 -0.012220330468749827
v -1.0481511293771315 -0.41878283046875 0.01222033046875005
v -1.1177558895333815 -0.45424844296875 0.023244657812499927
v -1.1729948793771314 -0.5094874328125 0.03199370781249982
v -1.2084604918771313 -0.57909219296875 0.03761105234374977
v -1.2206808223458814 -0.65625 0.03954675468749977
v -1.2084604918771313 -0.73340780703125 0.03761105234374979
v -1.1729948793771314 -0.8030125671874999 0.031993707812499855
v -1.1177558895333815 -0.85825155703125 0.02324465781249998
v -1.0481511293771315 -0.8937171695312499 0.012220330468750108
v -1.0405980825021317 -0.41878283046875 0.035465612500000125
v -1.1033894950021317 -0.45424844296875 0.06745932031249997
v -1.1532215020333818 -0.5094874328125 0.09285004218749988
v -1.1852152098458817 -0.57909219296875 0.10915151484374976
v -1.1962395371896315 -0.65625 0.11476885937499975
v -1.1852152098458817 -0.73340780703125 0.10915151484374977
v -1.1532215020333818 -0.8030125671874999 0.09285004218749993
v -1.1033894950021315 -0.85825155703125 0.06745932031250002
v -1.0405980825021317 -0.8937171695312499 0.03546561250000018
v -1.0262323121896315 -0.41878283046875 0.05523898984375014
v -1.0760636950021318 -0.45424844296875 0.10507037265624998
v -1.1156104496896315 -0.5094874328125 0.1446171273437499
v -1.1410011715646318 -0.57909219296875 0.17000784921874987
v -1.149749597345882 -0.65625 0.17875627499999988
v -1.1410011715646318 -0.7334078070312499 0.1700078492187499
v -1.1156104496896315 -0.8030125671874999 0.14461712734374993
v -1.0760636950021318 -0.8582515570312499 0.10507037265625004
v -1.0262323121896313 -0.8937171695312499 0.0552389898437502
v -1.0064589348458817 -0.41878283046875 0.0696047601562501
v -1.0384526426583818 -0.45424844296874994 0.13239617265625012
v -1.0638433645333818 -0.5094874328125 0.18222817968749996
v -1.0801448371896318 -0.5790921929687499 0.21422188749999993
v -1.085762181720882 -0.65625 0.2252462148437499
v -1.0801448371896318 -0.7334078070312499 0.21422188749999993
v -1.0638433645333816 -0.8030125671874999 0.18222817968750002
v -1.0384526426583818 -0.8582515570312499 0.13239617265625017
v -1.0064589348458814 -0.8937171695312499 0.06960476015625015
v -0.9832136528146319 -0.41878283046875 0.07715780703125016
v -0.9942379801583818 -0.45424844296874994 0.14676256718750008
v -1.002987030158382 -0.5094874328125 0.20200155703125006
v -1.008604374689632 -0.5790921929687499 0.2374671695312501
v -1.0105400770333821 -0.6562499999999999 0.24968750000000012
v -1.008604374689632 -0.7334078070312499 0.23746716953125013
v -1.002987030158382 -0.8030125671874999 0.2020015570312501
v -0.9942379801583817 -0.8582515570312499 0.14676256718750014
v -0.9832136528146318 -0.8937171695312499 0.07715780703125022
v -0.9587729918771316 -0.41878283046875 0.0771578070312502
v -0.9477486645333819 -0.4542484429687499 0.14676256718750016
v -0.9389996145333819 -0.5094874328125 0.2020015570312502
v -0.9333822700021319 -0.5790921929687499 0.23746716953125027
v -0.9314465676583817 -0.6562499999999999 0.24968750000000026
v -0.9333822700021319 -0.7334078070312499 0.23746716953125027
v -0.9389996145333818 -0.8030125671874999 0.20200155703125022
v -0.9477486645333818 -0.8582515570312499 0.14676256718750022
v -0.9587729918771315 -0.8937171695312499 0.07715780703125026
v -0.9355277098458817 -0.41878283046875 0.06960476015625022
v -0.9035340020333817 -0.4542484429687499 0.13239617265625037
v -0.878143280158382 -0.5094874328125 0.18222817968750032
v -0.861841807502132 -0.5790921929687499 0.21422188750000032
v -0.8562244629708821 -0.6562499999999999 0.22524621484375035
v -0.8618418075021319 -0.7334078070312499 0.21422188750000035
v -0.878143280158382 -0.8030125671874999 0.18222817968750035
v -0.9035340020333817 -0.8582515570312499 0.13239617265625042
v -0.9355277098458817 -0.8937171695312499 0.06960476015625029
v -0.9157543325021318 -0.41878283046875 0.05523898984375035
v -0.8659229496896317 -0.45424844296874994 0.10507037265625038
v -0.826376195002132 -0.5094874328125 0.14461712734375043
v -0.8009854731271321 -0.5790921929687499 0.17000784921875053
v -0.7922370473458817 -0.6562499999999999 0.17875627500000055
v -0.8009854731271321 -0.7334078070312499 0.17000784921875053
v -0.8263761950021319 -0.8030125671874999 0.14461712734375048
v -0.8659229496896317 -0.8582515570312499 0.10507037265625044
v -0.9157543325021318 -0.8937171695312499 0.055238989843750405
v -0.9013885621896315 -0.41878283046875 0.03546561250000039
v -0.8385971496896317 -0.45424844296874994 0.06745932031250047
v -0.7887651426583818 -0.5094874328125 0.09285004218750058
v -0.7567714348458817 -0.5790921929687499 0.10915151484375056
v -0.7457471075021319 -0.6562499999999999 0.1147688593750006
v -0.7567714348458817 -0.7334078070312499 0.10915151484375057
v -0.7887651426583817 -0.8030125671874999 0.09285004218750062
v -0.8385971496896317 -0.8582515570312499 0.06745932031250051
v -0.9013885621896314 -0.8937171695312499 0.035465612500000444
v -0.8938355153146317 -0.41878283046875 0.012220330468750342
v -0.8242307551583815 -0.45424844296874994 0.023244657812500482
v -0.7689917653146319 -0.5094874328125 0.031993707812500584
v -0.7335261528146318 -0.5790921929687499 0.037611052343750666
v -0.7213058223458817 -0.6562499999999999 0.03954675468750071
v -0.7335261528146317 -0.7334078070312499 0.03761105234375069
v -0.7689917653146316 -0.8030125671874999 0.03199370781250062
v -0.8242307551583815 -0.8582515570312499 0.02324465781250053
v -0.8938355153146317 -0.8937171695312499 0.0122203304687504
v -0.8938355153146317 -0.41878283046875 -0.012220330468749593
v -0.8242307551583815 -0.45424844296874994 -0.023244657812499462
v -0.7689917653146316 -0.5094874328125 -0.031993707812499446
v -0.7335261528146316 -0.5790921929687499 -0.03761105234374939
v -0.7213058223458815 -0.6562499999999999 -0.039546754687499255
v -0.7335261528146316 -0.7334078070312499 -0.03761105234374937
v -0.7689917653146316 -0.8030125671874999 -0.03199370781249941
v -0.8242307551583814 -0.8582515570312499 -0.023244657812499413
v -0.8938355153146316 -0.8937171695312499 -0.012220330468749535
v -0.9013885621896314 -0.41878283046875 -0.035465612499999556
v -0.8385971496896315 -0.45424844296874994 -0.0674593203124995
v -0.7887651426583814 -0.5094874328125 -0.0928500421874993
v -0.7567714348458813 -0.5790921929687499 -0.10915151484374926
v -0.7457471075021315 -0.65625 -0.11476885937499924
v -0.7567714348458813 -0.7334078070312499 -0.10915151484374924
v -0.7887651426583814 -0.8030125671874999 -0.09285004218749926
v -0.8385971496896315 -0.8582515570312499 -0.06745932031249946
v -0.9013885621896313 -0.8937171695312499 -0.0354656124999995
v -0.9157543325021316 -0.41878283046875 -0.05523898984374968
v -0.8659229496896312 -0.45424844296874994 -0.10507037265624941
v -0.8263761950021314 -0.5094874328125 -0.14461712734374954
v -0.8009854731271314 -0.57909219296875 -0.17000784921874937
v -0.7922370473458811 -0.65625 -0.17875627499999927
v -0.8009854731271314 -0.73340780703125 -0.17000784921874937
v -0.8263761950021313 -0.8030125671874999 -0.14461712734374949
v -0.8659229496896312 -0.8582515570312499 -0.10507037265624936
v -0.9157543325021316 -0.8937171695312499 -0.05523898984374963
v -0.9355277098458815 -0.41878283046875 -0.06960476015624964
v -0.9035340020333813 -0.45424844296875 -0.13239617265624953
v -0.8781432801583813 -0.5094874328125 -0.1822281796874995
v -0.8618418075021311 -0.57909219296875 -0.21422188749999954
v -0.8562244629708812 -0.65625 -0.22524621484374951
v -0.8618418075021311 -0.73340780703125 -0.2142218874999995
v -0.8781432801583813 -0.8030125671874999 -0.18222817968749946
v -0.9035340020333812 -0.8582515570312499 -0.13239617265624948
v -0.9355277098458814 -0.8937171695312499 -0.06960476015624957
v -0.9587729918771313 -0.41878283046875 -0.07715780703124982
v -0.9477486645333814 -0.45424844296875 -0.14676256718749972
v -0.9389996145333811 -0.5094874328125 -0.2020015570312497
v -0.933382270002131 -0.57909219296875 -0.2374671695312496
v -0.9314465676583809 -0.65625 -0.24968749999999956
v -0.933382270002131 -0.73340780703125 -0.2374671695312496
v -0.938999614533381 -0.8030125671874999 -0.20200155703124967
v -0.9477486645333812 -0.8582515570312499 -0.14676256718749967
v -0.9587729918771312 -0.8937171695312499 -0.07715780703124976
vt 0.375 0.23428749999999998
vt 0.399475 0.23428749999999998
vt 0.3872375 0.3125
vt 0.3860375 0.3125
vt 0.375 0.23428749999999998
vt 0.42155 0.23428749999999998
vt 0.4105125 0.3125
vt 0.38375625 0.3125
vt 0.375 0.23428749999999998
vt 0.4390625 0.23428749999999998
vt 0.43030625 0.3125
vt 0.380625 0.3125
vt 0.375 0.23428749999999998
vt 0.4503125 0.23428749999999998
vt 0.4446875 0.3125
vt 0.3769375 0.3125
vt 0.375 0.23428749999999998
vt 0.4541875 0.23428749999999998
vt 0.45225 0.3125
vt 0.375 0.3125
vt 0.3769375 0.23428749999999998
vt 0.45225 0.23428749999999998
vt 0.4541875 0.3125
vt 0.375 0.3125
vt 0.380625 0.23428749999999998
vt 0.4446875 0.23428749999999998
vt 0.4503125 0.3125
vt 0.375 0.3125
vt 0.38375625 0.23428749999999998
vt 0.43030625 0.23428749999999998
vt 0.4390625 0.3125
vt 0.375 0.3125
vt 0.3860375 0.23428749999999998
vt 0.4105125 0.23428749999999998
vt 0.42155 0.3125
vt 0.399475 0.3125
vt 0.375 0.3125
vt 0.3872375 0.23428749999999998
vt 0.375 0.23428749999999998
vt 0.399475 0.23428749999999998
vt 0.3872375 0.3125
vt 0.3860375 0.3125
vt 0.375 0.23428749999999998
vt 0.42155 0.23428749999999998
vt 0.4105125 0.3125
vt 0.38375625 0.3125
vt 0.375 0.23428749999999998
vt 0.4390625 0.23428749999999998
vt 0.43030625 0.3125
vt 0.380625 0.3125
vt 0.375 0.23428749999999998
vt 0.4503125 0.23428749999999998
vt 0.4446875 0.3125
vt 0.3769375 0.3125
vt 0.375 0.23428749999999998
vt 0.4541875 0.23428749999999998
vt 0.45225 0.3125
vt 0.375 0.3125
vt 0.3769375 0.23428749999999998
vt 0.45225 0.23428749999999998
vt 0.4541875 0.3125
vt 0.375 0.3125
vt 0.380625 0.23428749999999998
vt 0.4446875 0.23428749999999998
vt 0.4503125 0.3125
vt 0.375 0.3125
vt 0.38375625 0.23428749999999998
vt 0.43030625 0.23428749999999998
vt 0.4390625 0.3125
vt 0.375 0.3125
vt 0.3860375 0.23428749999999998
vt 0.4105125 0.23428749999999998
vt 0.42155 0.3125
vt 0.399475 0.3125
vt 0.375 0.3125
vt 0.3872375 0.23428749999999998
vt 0.375 0.23428749999999998
vt 0.399475 0.23428749999999998
vt 0.3872375 0.3125
vt 0.3860375 0.3125
vt 0.375 0.23428749999999998
vt 0.42155 0.23428749999999998
vt 0.4105125 0.3125
vt 0.38375625 0.3125
vt 0.375 0.23428749999999998
vt 0.4390625 0.23428749999999998
vt 0.43030625 0.3125
vt 0.380625 0.3125
vt 0.375 0.23428749999999998
vt 0.4503125 0.23428749999999998
vt 0.4446875 0.3125
vt 0.3769375 0.3125
vt 0.375 0.23428749999999998
vt 0.4541875 0.23428749999999998
vt 0.45225 0.3125
vt 0.375 0.3125
vt 0.3769375 0.23428749999999998
vt 0.45225 0.23428749999999998
vt 0.4541875 0.3125
vt 0.375 0.3125
vt 0.380625 0.23428749999999998
vt 0.4446875 0.23428749999999998
vt 0.4503125 0.3125
vt 0.375 0.3125
vt 0.38375625 0.23428749999999998
vt 0.43030625 0.23428749999999998
vt 0.4390625 0.3125
vt 0.375 0.3125
vt 0.3860375 0.23428749999999998
vt 0.4105125 0.23428749999999998
vt 0.42155 0.3125
vt 0.399475 0.3125
vt 0.375 0.3125
vt 0.3872375 0.23428749999999998
vt 0.375 0.23428749999999998
vt 0.399475 0.23428749999999998
vt 0.3872375 0.3125
vt 0.3860375 0.3125
vt 0.375 0.23428749999999998
vt 0.42155 0.23428749999999998
vt 0.4105125 0.3125
vt 0.38375625 0.3125
vt 0.375 0.23428749999999998
vt 0.4390625 0.23428749999999998
vt 0.43030625 0.3125
vt 0.380625 0.3125
vt 0.375 0.23428749999999998
vt 0.4503125 0.23428749999999998
vt 0.4446875 0.3125
vt 0.3769375 0.3125
vt 0.375 0.23428749999999998
vt 0.4541875 0.23428749999999998
vt 0.45225 0.3125
vt 0.375 0.3125
vt 0.3769375 0.23428749999999998
vt 0.45225 0.23428749999999998
vt 0.4541875 0.3125
vt 0.375 0.3125
vt 0.380625 0.23428749999999998
vt 0.4446875 0.23428749999999998
vt 0.4503125 0.3125
vt 0.375 0.3125
vt 0.38375625 0.23428749999999998
vt 0.43030625 0.23428749999999998
vt 0.4390625 0.3125
vt 0.375 0.3125
vt 0.3860375 0.23428749999999998
vt 0.4105125 0.23428749999999998
vt 0.42155 0.3125
vt 0.399475 0.3125
vt 0.375 0.3125
vt 0.3872375 0.23428749999999998
vt 0.375 0.23428749999999998
vt 0.399475 0.23428749999999998
vt 0.3872375 0.3125
vt 0.3860375 0.3125
vt 0.375 0.23428749999999998
vt 0.42155 0.23428749999999998
vt 0.4105125 0.3125
vt 0.38375625 0.3125
vt 0.375 0.23428749999999998
vt 0.4390625 0.23428749999999998
vt 0.43030625 0.3125
vt 0.380625 0.3125
vt 0.375 0.23428749999999998
vt 0.4503125 0.23428749999999998
vt 0.4446875 0.3125
vt 0.3769375 0.3125
vt 0.375 0.23428749999999998
vt 0.4541875 0.23428749999999998
vt 0.45225 0.3125
vt 0.375 0.3125
vt 0.3769375 0.23428749999999998
vt 0.45225 0.23428749999999998
vt 0.4541875 0.3125
vt 0.375 0.3125
vt 0.380625 0.23428749999999998
vt 0.4446875 0.23428749999999998
vt 0.4503125 0.3125
vt 0.375 0.3125
vt 0.38375625 0.23428749999999998
vt 0.43030625 0.23428749999999998
vt 0.4390625 0.3125
vt 0.375 0.3125
vt 0.3860375 0.23428749999999998
vt 0.4105125 0.23428749999999998
vt 0.42155 0.3125
vt 0.399475 0.3125
vt 0.375 0.3125
vt 0.3872375 0.23428749999999998
vt 0.375 0.23428749999999998
vt 0.399475 0.23428749999999998
vt 0.3872375 0.3125
vt 0.3860375 0.3125
vt 0.375 0.23428749999999998
vt 0.42155 0.23428749999999998
vt 0.4105125 0.3125
vt 0.38375625 0.3125
vt 0.375 0.23428749999999998
vt 0.4390625 0.23428749999999998
vt 0.43030625 0.3125
vt 0.380625 0.3125
vt 0.375 0.23428749999999998
vt 0.4503125 0.23428749999999998
vt 0.4446875 0.3125
vt 0.3769375 0.3125
vt 0.375 0.23428749999999998
vt 0.4541875 0.23428749999999998
vt 0.45225 0.3125
vt 0.375 0.3125
vt 0.3769375 0.23428749999999998
vt 0.45225 0.23428749999999998
vt 0.4541875 0.3125
vt 0.375 0.3125
vt 0.380625 0.23428749999999998
vt 0.4446875 0.23428749999999998
vt 0.4503125 0.3125
vt 0.375 0.3125
vt 0.38375625 0.23428749999999998
vt 0.43030625 0.23428749999999998
vt 0.4390625 0.3125
vt 0.375 0.3125
vt 0.3860375 0.23428749999999998
vt 0.4105125 0.23428749999999998
vt 0.42155 0.3125
vt 0.399475 0.3125
vt 0.375 0.3125
vt 0.3872375 0.23428749999999998
vt 0.375 0.23428749999999998
vt 0.399475 0.23428749999999998
vt 0.3872375 0.3125
vt 0.3860375 0.3125
vt 0.375 0.23428749999999998
vt 0.42155 0.23428749999999998
vt 0.4105125 0.3125
vt 0.38375625 0.3125
vt 0.375 0.23428749999999998
vt 0.4390625 0.23428749999999998
vt 0.43030625 0.3125
vt 0.380625 0.3125
vt 0.375 0.23428749999999998
vt 0.4503125 0.23428749999999998
vt 0.4446875 0.3125
vt 0.3769375 0.3125
vt 0.375 0.23428749999999998
vt 0.4541875 0.23428749999999998
vt 0.45225 0.3125
vt 0.375 0.3125
vt 0.3769375 0.23428749999999998
vt 0.45225 0.23428749999999998
vt 0.4541875 0.3125
vt 0.375 0.3125
vt 0.380625 0.23428749999999998
vt 0.4446875 0.23428749999999998
vt 0.4503125 0.3125
vt 0.375 0.3125
vt 0.38375625 0.23428749999999998
vt 0.43030625 0.23428749999999998
vt 0.4390625 0.3125
vt 0.375 0.3125
vt 0.3860375 0.23428749999999998
vt 0.4105125 0.23428749999999998
vt 0.42155 0.3125
vt 0.399475 0.3125
vt 0.375 0.3125
vt 0.3872375 0.23428749999999998
vt 0.375 0.23428749999999998
vt 0.399475 0.23428749999999998
vt 0.3872375 0.3125
vt 0.3860375 0.3125
vt 0.375 0.23428749999999998
vt 0.42155 0.23428749999999998
vt 0.4105125 0.3125
vt 0.38375625 0.3125
vt 0.375 0.23428749999999998
vt 0.4390625 0.23428749999999998
vt 0.43030625 0.3125
vt 0.380625 0.3125
vt 0.375 0.23428749999999998
vt 0.4503125 0.23428749999999998
vt 0.4446875 0.3125
vt 0.3769375 0.3125
vt 0.375 0.23428749999999998
vt 0.4541875 0.23428749999999998
vt 0.45225 0.3125
vt 0.375 0.3125
vt 0.3769375 0.23428749999999998
vt 0.45225 0.23428749999999998
vt 0.4541875 0.3125
vt 0.375 0.3125
vt 0.380625 0.23428749999999998
vt 0.4446875 0.23428749999999998
vt 0.4503125 0.3125
vt 0.375 0.3125
vt 0.38375625 0.23428749999999998
vt 0.43030625 0.23428749999999998
vt 0.4390625 0.3125
vt 0.375 0.3125
vt 0.3860375 0.23428749999999998
vt 0.4105125 0.23428749999999998
vt 0.42155 0.3125
vt 0.399475 0.3125
vt 0.375 0.3125
vt 0.3872375 0.23428749999999998
vt 0.375 0.23428749999999998
vt 0.399475 0.23428749999999998
vt 0.3872375 0.3125
vt 0.3860375 0.3125
vt 0.375 0.23428749999999998
vt 0.42155 0.23428749999999998
vt 0.4105125 0.3125
vt 0.38375625 0.3125
vt 0.375 0.23428749999999998
vt 0.4390625 0.23428749999999998
vt 0.43030625 0.3125
vt 0.380625 0.3125
vt 0.375 0.23428749999999998
vt 0.4503125 0.23428749999999998
vt 0.4446875 0.3125
vt 0.3769375 0.3125
vt 0.375 0.23428749999999998
vt 0.4541875 0.23428749999999998
vt 0.45225 0.3125
vt 0.375 0.3125
vt 0.3769375 0.23428749999999998
vt 0.45225 0.23428749999999998
vt 0.4541875 0.3125
vt 0.375 0.3125
vt 0.380625 0.23428749999999998
vt 0.4446875 0.23428749999999998
vt 0.4503125 0.3125
vt 0.375 0.3125
vt 0.38375625 0.23428749999999998
vt 0.43030625 0.23428749999999998
vt 0.4390625 0.3125
vt 0.375 0.3125
vt 0.3860375 0.23428749999999998
vt 0.4105125 0.23428749999999998
vt 0.42155 0.3125
vt 0.399475 0.3125
vt 0.375 0.3125
vt 0.3872375 0.23428749999999998
vt 0.375 0.23428749999999998
vt 0.399475 0.23428749999999998
vt 0.3872375 0.3125
vt 0.3860375 0.3125
vt 0.375 0.23428749999999998
vt 0.42155 0.23428749999999998
vt 0.4105125 0.3125
vt 0.38375625 0.3125
vt 0.375 0.23428749999999998
vt 0.4390625 0.23428749999999998
vt 0.43030625 0.3125
vt 0.380625 0.3125
vt 0.375 0.23428749999999998
vt 0.4503125 0.23428749999999998
vt 0.4446875 0.3125
vt 0.3769375 0.3125
vt 0.375 0.23428749999999998
vt 0.4541875 0.23428749999999998
vt 0.45225 0.3125
vt 0.375 0.3125
vt 0.3769375 0.23428749999999998
vt 0.45225 0.23428749999999998
vt 0.4541875 0.3125
vt 0.375 0.3125
vt 0.380625 0.23428749999999998
vt 0.4446875 0.23428749999999998
vt 0.4503125 0.3125
vt 0.375 0.3125
vt 0.38375625 0.23428749999999998
vt 0.43030625 0.23428749999999998
vt 0.4390625 0.3125
vt 0.375 0.3125
vt 0.3860375 0.23428749999999998
vt 0.4105125 0.23428749999999998
vt 0.42155 0.3125
vt 0.399475 0.3125
vt 0.375 0.3125
vt 0.3872375 0.23428749999999998
vt 0.375 0.23428749999999998
vt 0.399475 0.23428749999999998
vt 0.3872375 0.3125
vt 0.3860375 0.3125
vt 0.375 0.23428749999999998
vt 0.42155 0.23428749999999998
vt 0.4105125 0.3125
vt 0.38375625 0.3125
vt 0.375 0.23428749999999998
vt 0.4390625 0.23428749999999998
vt 0.43030625 0.3125
vt 0.380625 0.3125
vt 0.375 0.23428749999999998
vt 0.4503125 0.23428749999999998
vt 0.4446875 0.3125
vt 0.3769375 0.3125
vt 0.375 0.23428749999999998
vt 0.4541875 0.23428749999999998
vt 0.45225 0.3125
vt 0.375 0.3125
vt 0.3769375 0.23428749999999998
vt 0.45225 0.23428749999999998
vt 0.4541875 0.3125
vt 0.375 0.3125
vt 0.380625 0.23428749999999998
vt 0.4446875 0.23428749999999998
vt 0.4503125 0.3125
vt 0.375 0.3125
vt 0.38375625 0.23428749999999998
vt 0.43030625 0.23428749999999998
vt 0.4390625 0.3125
vt 0.375 0.3125
vt 0.3860375 0.23428749999999998
vt 0.4105125 0.23428749999999998
vt 0.42155 0.3125
vt 0.399475 0.3125
vt 0.375 0.3125
vt 0.3872375 0.23428749999999998
vt 0.375 0.23428749999999998
vt 0.399475 0.23428749999999998
vt 0.3872375 0.3125
vt 0.3860375 0.3125
vt 0.375 0.23428749999999998
vt 0.42155 0.23428749999999998
vt 0.4105125 0.3125
vt 0.38375625 0.3125
vt 0.375 0.23428749999999998
vt 0.4390625 0.23428749999999998
vt 0.43030625 0.3125
vt 0.380625 0.3125
vt 0.375 0.23428749999999998
vt 0.4503125 0.23428749999999998
vt 0.4446875 0.3125
vt 0.3769375 0.3125
vt 0.375 0.23428749999999998
vt 0.4541875 0.23428749999999998
vt 0.45225 0.3125
vt 0.375 0.3125
vt 0.3769375 0.23428749999999998
vt 0.45225 0.23428749999999998
vt 0.4541875 0.3125
vt 0.375 0.3125
vt 0.380625 0.23428749999999998
vt 0.4446875 0.23428749999999998
vt 0.4503125 0.3125
vt 0.375 0.3125
vt 0.38375625 0.23428749999999998
vt 0.43030625 0.23428749999999998
vt 0.4390625 0.3125
vt 0.375 0.3125
vt 0.3860375 0.23428749999999998
vt 0.4105125 0.23428749999999998
vt 0.42155 0.3125
vt 0.399475 0.3125
vt 0.375 0.3125
vt 0.3872375 0.23428749999999998
vt 0.375 0.23428749999999998
vt 0.399475 0.23428749999999998
vt 0.3872375 0.3125
vt 0.3860375 0.3125
vt 0.375 0.23428749999999998
vt 0.42155 0.23428749999999998
vt 0.4105125 0.3125
vt 0.38375625 0.3125
vt 0.375 0.23428749999999998
vt 0.4390625 0.23428749999999998
vt 0.43030625 0.3125
vt 0.380625 0.3125
vt 0.375 0.23428749999999998
vt 0.4503125 0.23428749999999998
vt 0.4446875 0.3125
vt 0.3769375 0.3125
vt 0.375 0.23428749999999998
vt 0.4541875 0.23428749999999998
vt 0.45225 0.3125
vt 0.375 0.3125
vt 0.3769375 0.23428749999999998
vt 0.45225 0.23428749999999998
vt 0.4541875 0.3125
vt 0.375 0.3125
vt 0.380625 0.23428749999999998
vt 0.4446875 0.23428749999999998
vt 0.4503125 0.3125
vt 0.375 0.3125
vt 0.38375625 0.23428749999999998
vt 0.43030625 0.23428749999999998
vt 0.4390625 0.3125
vt 0.375 0.3125
vt 0.3860375 0.23428749999999998
vt 0.4105125 0.23428749999999998
vt 0.42155 0.3125
vt 0.399475 0.3125
vt 0.375 0.3125
vt 0.3872375 0.23428749999999998
vt 0.375 0.23428749999999998
vt 0.399475 0.23428749999999998
vt 0.3872375 0.3125
vt 0.3860375 0.3125
vt 0.375 0.23428749999999998
vt 0.42155 0.23428749999999998
vt 0.4105125 0.3125
vt 0.38375625 0.3125
vt 0.375 0.23428749999999998
vt 0.4390625 0.23428749999999998
vt 0.43030625 0.3125
vt 0.380625 0.3125
vt 0.375 0.23428749999999998
vt 0.4503125 0.23428749999999998
vt 0.4446875 0.3125
vt 0.3769375 0.3125
vt 0.375 0.23428749999999998
vt 0.4541875 0.23428749999999998
vt 0.45225 0.3125
vt 0.375 0.3125
vt 0.3769375 0.23428749999999998
vt 0.45225 0.23428749999999998
vt 0.4541875 0.3125
vt 0.375 0.3125
vt 0.380625 0.23428749999999998
vt 0.4446875 0.23428749999999998
vt 0.4503125 0.3125
vt 0.375 0.3125
vt 0.38375625 0.23428749999999998
vt 0.43030625 0.23428749999999998
vt 0.4390625 0.3125
vt 0.375 0.3125
vt 0.3860375 0.23428749999999998
vt 0.4105125 0.23428749999999998
vt 0.42155 0.3125
vt 0.399475 0.3125
vt 0.375 0.3125
vt 0.3872375 0.23428749999999998
vt 0.375 0.23428749999999998
vt 0.399475 0.23428749999999998
vt 0.3872375 0.3125
vt 0.3860375 0.3125
vt 0.375 0.23428749999999998
vt 0.42155 0.23428749999999998
vt 0.4105125 0.3125
vt 0.38375625 0.3125
vt 0.375 0.23428749999999998
vt 0.4390625 0.23428749999999998
vt 0.43030625 0.3125
vt 0.380625 0.3125
vt 0.375 0.23428749999999998
vt 0.4503125 0.23428749999999998
vt 0.4446875 0.3125
vt 0.3769375 0.3125
vt 0.375 0.23428749999999998
vt 0.4541875 0.23428749999999998
vt 0.45225 0.3125
vt 0.375 0.3125
vt 0.3769375 0.23428749999999998
vt 0.45225 0.23428749999999998
vt 0.4541875 0.3125
vt 0.375 0.3125
vt 0.380625 0.23428749999999998
vt 0.4446875 0.23428749999999998
vt 0.4503125 0.3125
vt 0.375 0.3125
vt 0.38375625 0.23428749999999998
vt 0.43030625 0.23428749999999998
vt 0.4390625 0.3125
vt 0.375 0.3125
vt 0.3860375 0.23428749999999998
vt 0.4105125 0.23428749999999998
vt 0.42155 0.3125
vt 0.399475 0.3125
vt 0.375 0.3125
vt 0.3872375 0.23428749999999998
vt 0.375 0.23428749999999998
vt 0.399475 0.23428749999999998
vt 0.3872375 0.3125
vt 0.3860375 0.3125
vt 0.375 0.23428749999999998
vt 0.42155 0.23428749999999998
vt 0.4105125 0.3125
vt 0.38375625 0.3125
vt 0.375 0.23428749999999998
vt 0.4390625 0.23428749999999998
vt 0.43030625 0.3125
vt 0.380625 0.3125
vt 0.375 0.23428749999999998
vt 0.4503125 0.23428749999999998
vt 0.4446875 0.3125
vt 0.3769375 0.3125
vt 0.375 0.23428749999999998
vt 0.4541875 0.23428749999999998
vt 0.45225 0.3125
vt 0.375 0.3125
vt 0.3769375 0.23428749999999998
vt 0.45225 0.23428749999999998
vt 0.4541875 0.3125
vt 0.375 0.3125
vt 0.380625 0.23428749999999998
vt 0.4446875 0.23428749999999998
vt 0.4503125 0.3125
vt 0.375 0.3125
vt 0.38375625 0.23428749999999998
vt 0.43030625 0.23428749999999998
vt 0.4390625 0.3125
vt 0.375 0.3125
vt 0.3860375 0.23428749999999998
vt 0.4105125 0.23428749999999998
vt 0.42155 0.3125
vt 0.399475 0.3125
vt 0.375 0.3125
vt 0.3872375 0.23428749999999998
vt 0.375 0.23428749999999998
vt 0.399475 0.23428749999999998
vt 0.3872375 0.3125
vt 0.3860375 0.3125
vt 0.375 0.23428749999999998
vt 0.42155 0.23428749999999998
vt 0.4105125 0.3125
vt 0.38375625 0.3125
vt 0.375 0.23428749999999998
vt 0.4390625 0.23428749999999998
vt 0.43030625 0.3125
vt 0.380625 0.3125
vt 0.375 0.23428749999999998
vt 0.4503125 0.23428749999999998
vt 0.4446875 0.3125
vt 0.3769375 0.3125
vt 0.375 0.23428749999999998
vt 0.4541875 0.23428749999999998
vt 0.45225 0.3125
vt 0.375 0.3125
vt 0.3769375 0.23428749999999998
vt 0.45225 0.23428749999999998
vt 0.4541875 0.3125
vt 0.375 0.3125
vt 0.380625 0.23428749999999998
vt 0.4446875 0.23428749999999998
vt 0.4503125 0.3125
vt 0.375 0.3125
vt 0.38375625 0.23428749999999998
vt 0.43030625 0.23428749999999998
vt 0.4390625 0.3125
vt 0.375 0.3125
vt 0.3860375 0.23428749999999998
vt 0.4105125 0.23428749999999998
vt 0.42155 0.3125
vt 0.399475 0.3125
vt 0.375 0.3125
vt 0.3872375 0.23428749999999998
vt 0.375 0.23428749999999998
vt 0.399475 0.23428749999999998
vt 0.3872375 0.3125
vt 0.3860375 0.3125
vt 0.375 0.23428749999999998
vt 0.42155 0.23428749999999998
vt 0.4105125 0.3125
vt 0.38375625 0.3125
vt 0.375 0.23428749999999998
vt 0.4390625 0.23428749999999998
vt 0.43030625 0.3125
vt 0.380625 0.3125
vt 0.375 0.23428749999999998
vt 0.4503125 0.23428749999999998
vt 0.4446875 0.3125
vt 0.3769375 0.3125
vt 0.375 0.23428749999999998
vt 0.4541875 0.23428749999999998
vt 0.45225 0.3125
vt 0.375 0.3125
vt 0.3769375 0.23428749999999998
vt 0.45225 0.23428749999999998
vt 0.4541875 0.3125
vt 0.375 0.3125
vt 0.380625 0.23428749999999998
vt 0.4446875 0.23428749999999998
vt 0.4503125 0.3125
vt 0.375 0.3125
vt 0.38375625 0.23428749999999998
vt 0.43030625 0.23428749999999998
vt 0.4390625 0.3125
vt 0.375 0.3125
vt 0.3860375 0.23428749999999998
vt 0.4105125 0.23428749999999998
vt 0.42155 0.3125
vt 0.399475 0.3125
vt 0.375 0.3125
vt 0.3872375 0.23428749999999998
vt 0.375 0.23428749999999998
vt 0.399475 0.23428749999999998
vt 0.3872375 0.3125
vt 0.3860375 0.3125
vt 0.375 0.23428749999999998
vt 0.42155 0.23428749999999998
vt 0.4105125 0.3125
vt 0.38375625 0.3125
vt 0.375 0.23428749999999998
vt 0.4390625 0.23428749999999998
vt 0.43030625 0.3125
vt 0.380625 0.3125
vt 0.375 0.23428749999999998
vt 0.4503125 0.23428749999999998
vt 0.4446875 0.3125
vt 0.3769375 0.3125
vt 0.375 0.23428749999999998
vt 0.4541875 0.23428749999999998
vt 0.45225 0.3125
vt 0.375 0.3125
vt 0.3769375 0.23428749999999998
vt 0.45225 0.23428749999999998
vt 0.4541875 0.3125
vt 0.375 0.3125
vt 0.380625 0.23428749999999998
vt 0.4446875 0.23428749999999998
vt 0.4503125 0.3125
vt 0.375 0.3125
vt 0.38375625 0.23428749999999998
vt 0.43030625 0.23428749999999998
vt 0.4390625 0.3125
vt 0.375 0.3125
vt 0.3860375 0.23428749999999998
vt 0.4105125 0.23428749999999998
vt 0.42155 0.3125
vt 0.399475 0.3125
vt 0.375 0.3125
vt 0.3872375 0.23428749999999998
vt 0.375 0.23428749999999998
vt 0.399475 0.23428749999999998
vt 0.3872375 0.3125
vt 0.3860375 0.3125
vt 0.375 0.23428749999999998
vt 0.42155 0.23428749999999998
vt 0.4105125 0.3125
vt 0.38375625 0.3125
vt 0.375 0.23428749999999998
vt 0.4390625 0.23428749999999998
vt 0.43030625 0.3125
vt 0.380625 0.3125
vt 0.375 0.23428749999999998
vt 0.4503125 0.23428749999999998
vt 0.4446875 0.3125
vt 0.3769375 0.3125
vt 0.375 0.23428749999999998
vt 0.4541875 0.23428749999999998
vt 0.45225 0.3125
vt 0.375 0.3125
vt 0.3769375 0.23428749999999998
vt 0.45225 0.23428749999999998
vt 0.4541875 0.3125
vt 0.375 0.3125
vt 0.380625 0.23428749999999998
vt 0.4446875 0.23428749999999998
vt 0.4503125 0.3125
vt 0.375 0.3125
vt 0.38375625 0.23428749999999998
vt 0.43030625 0.23428749999999998
vt 0.4390625 0.3125
vt 0.375 0.3125
vt 0.3860375 0.23428749999999998
vt 0.4105125 0.23428749999999998
vt 0.42155 0.3125
vt 0.399475 0.3125
vt 0.375 0.3125
vt 0.3872375 0.23428749999999998
vn -0.048341130471274384 0.9876888108927863 -0.1487748229437813
vn -0.1402931025354081 0.8910053131240778 -0.43177236753369647
vn -0.21850752497123835 0.7071069239193166 -0.6724985202038035
vn -0.27533982048498784 0.45399287105251734 -0.8473951004630526
vn -0.3052142115616071 0.15643184840357788 -0.9393473063068135
vn -0.30521708777915774 -0.15643177449531454 -0.939346384064929
vn -0.2753351775784832 -0.4539931805366024 -0.8473964432389867
vn -0.2185105170728691 -0.7071066810231236 -0.672497803402368
vn -0.14029489251771224 -0.8910051972705887 -0.4317720249972699
vn -0.048341130471275036 -0.9876888108927858 -0.14877482294378266
vn -0.09194616503747254 0.9876888547958221 -0.1265568206262284
vn -0.26684864435678884 0.8910054944253061 -0.3672887282627387
vn -0.4156265103500861 0.7071082888384039 -0.572059849797409
vn -0.5237156658579188 0.4539891047149681 -0.7208438070311062
vn -0.5805515256091343 0.15643517948829033 -0.7990544166271614
vn -0.5805427334190333 -0.15643544467123022 -0.7990607525869806
vn -0.5237216286157114 -0.45398864345270734 -0.7208397653681972
vn -0.4156236138007489 -0.7071085569426654 -0.5720616228603937
vn -0.2668445467248345 -0.8910057917483736 -0.3672909840359165
vn -0.0919461650374735 -0.987688854795822 -0.12655682062622972
vn -0.12655682062622714 0.9876888547958221 -0.09194616503747402
vn -0.36728977493160253 0.8910048352218148 -0.26684940479985975
vn -0.5720610023652712 0.7071068641885485 -0.41562734774107274
vn -0.7208416410548966 0.4539943591542117 -0.523714092208182
vn -0.7990557372562657 0.15642487267274968 -0.5805524851097958
vn -0.7990621411850831 -0.15642460747976925 -0.5805437422791759
vn -0.7208372191204347 -0.45399482042854716 -0.5237197786553127
vn -0.5720632092423256 -0.7071065960768473 -0.41562476636503
vn -0.3672929749402234 -0.8910045378643898 -0.26684599315827395
vn -0.12655682062622775 -0.987688854795822 -0.09194616503747588
vn -0.1487748229437818 0.9876888108927863 -0.04834113047127253
vn -0.4317718881220078 0.8910055699691591 -0.140292946763158
vn -0.6724972926873128 0.7071082146033827 -0.21850712612784803
vn -0.8473968088896446 0.4539893455254353 -0.2753403755954331
vn -0.9393468736030265 0.1564347210055484 -0.30521407096681535
vn -0.9393459290940829 -0.15643479492520662 -0.30521693994777377
vn -0.8473984516093622 -0.4539890360496747 -0.27533583013611324
vn -0.6724961138736179 -0.7071084574969436 -0.21850996810483325
vn -0.43177111311454514 -0.8910056858129034 -0.14029459622132393
vn -0.14877482294378308 -0.9876888108927859 -0.04834113047127294
vn -0.1564311481420912 0.987688865934484 0
vn -0.45399269276228343 0.8910054067840728 0
vn -0.7071067811865476 0.7071067811865476 0
vn -0.8910054067840736 0.45399269276228177 0
vn -0.987688865934484 0.1564311481420912 0
vn -0.987688865934484 -0.1564311481420912 0
vn -0.8910054067840735 -0.45399269276228243 0
vn -0.7071067811865482 -0.7071067811865468 0
vn -0.4539926927622825 -0.8910054067840735 0
vn -0.15643114814209258 -0.9876888659344838 0
vn -0.148774822943782 0.9876888108927863 0.04834113047127231
vn -0.4317723675336967 0.8910053131240782 0.1402931025354058
vn -0.6724985202038051 0.7071069239193166 0.21850752497123357
vn -0.8473951004630536 0.45399287105251723 0.2753398204849851
vn -0.9393473063068133 0.15643184840357824 0.3052142115616077
vn -0.9393463840649299 -0.15643177449531456 0.30521708777915507
vn -0.8473964432389886 -0.45399318053660276 0.2753351775784771
vn -0.6724978034023699 -0.7071066810231216 0.21851051707286998
vn -0.4317720249972699 -0.8910051972705898 0.14029489251770486
vn -0.14877482294378327 -0.9876888108927858 0.04834113047127273
vn -0.12655682062622772 0.9876888547958221 0.09194616503747328
vn -0.36728872826273923 0.891005494425306 0.26684864435678846
vn -0.5720598497974051 0.707108288838405 0.4156265103500898
vn -0.7208438070311078 0.45398910471496556 0.5237156658579188
vn -0.7990544166271655 0.15643517948828695 0.5805515256091295
vn -0.7990607525869818 -0.1564354446712266 0.5805427334190326
vn -0.7208397653681943 -0.4539886434527042 0.5237216286157182
vn -0.5720616228603937 -0.7071085569426668 0.4156236138007462
vn -0.3672909840359141 -0.8910057917483728 0.2668445467248401
vn -0.12655682062622833 -0.987688854795822 0.09194616503747514
vn -0.09194616503747288 0.9876888547958221 0.12655682062622814
vn -0.26684940479985986 0.8910048352218151 0.36728977493160236
vn -0.4156273477410735 0.7071068641885477 0.5720610023652719
vn -0.5237140922081779 0.4539943591542145 0.7208416410548979
vn -0.5805524851097957 0.15642487267274988 0.7990557372562658
vn -0.5805437422791714 -0.15642460747976905 0.7990621411850867
vn -0.5237197786553116 -0.45399482042855016 0.7208372191204337
vn -0.41562476636503076 -0.7071065960768455 0.5720632092423271
vn -0.26684599315826846 -0.8910045378643894 0.36729297494022883
vn -0.09194616503747387 -0.987688854795822 0.1265568206262295
vn -0.04834113047127445 0.9876888108927863 0.1487748229437814
vn -0.14029294676315737 0.89100556996916 0.4317718881220062
vn -0.21850712612784867 0.707108214603382 0.6724972926873133
vn -0.27534037559543645 0.4539893455254347 0.847396808889644
vn -0.30521407096681397 0.1564347210055533 0.939346873603026
vn -0.30521693994777743 -0.1564347949252121 0.9393459290940808
vn -0.27533583013611507 -0.4539890360496728 0.8473984516093627
vn -0.21850996810483003 -0.7071084574969418 0.6724961138736207
vn -0.14029459622132895 -0.8910056858129046 0.4317711131145414
vn -0.04834113047127512 -0.9876888108927859 0.14877482294378275
vn -2.664721243832406e-16 0.987688865934484 0.1564311481420912
vn -1.910638357699474e-15 0.891005406784073 0.4539926927622829
vn -1.561663550290939e-15 0.7071067811865475 0.7071067811865478
vn -1.9926450564996177e-15 0.4539926927622839 0.8910054067840725
vn -1.7371803352872664e-15 0.1564311481420909 0.9876888659344841
vn -1.826586609161201e-15 -0.15643114814209055 0.9876888659344841
vn -1.561671187800249e-15 -0.45399269276228305 0.891005406784073
vn -1.31355744680275e-15 -0.7071067811865477 0.7071067811865475
vn -6.814279942408053e-16 -0.8910054067840727 0.45399269276228355
vn -2.6647212438324304e-16 -0.9876888659344838 0.1564311481420926
vn 0.04834113047127377 0.987688810892786 0.14877482294378164
vn 0.14029310253540533 0.8910053131240786 0.43177236753369574
vn 0.2185075249712366 0.7071069239193163 0.6724985202038044
vn 0.27533982048498834 0.4539928710525193 0.8473951004630514
vn 0.30521421156160916 0.1564318484035782 0.9393473063068128
vn 0.3052170877791582 -0.15643177449531462 0.939346384064929
vn 0.2753351775784812 -0.45399318053660304 0.8473964432389869
vn 0.21851051707286684 -0.707106681023123 0.6724978034023694
vn 0.14029489251770988 -0.8910051972705888 0.4317720249972703
vn 0.04834113047127432 -0.9876888108927858 0.14877482294378291
vn 0.09194616503747223 0.9876888547958222 0.12655682062622867
vn 0.26684864435678884 0.8910054944253072 0.3672887282627365
vn 0.41562651035008824 0.7071082888384033 0.5720598497974082
vn 0.5237156658579181 0.4539891047149674 0.7208438070311071
vn 0.5805515256091306 0.15643517948828886 0.7990544166271643
vn 0.5805427334190332 -0.15643544467122752 0.7990607525869812
vn 0.5237216286157136 -0.453988643452706 0.7208397653681965
vn 0.41562361380074947 -0.7071085569426647 0.5720616228603941
vn 0.26684454672483326 -0.8910057917483738 0.367290984035917
vn 0.0919461650374731 -0.9876888547958219 0.12655682062622975
vn 0.12655682062622725 0.9876888547958221 0.09194616503747391
vn 0.3672897749316028 0.8910048352218154 0.26684940479985814
vn 0.5720610023652719 0.7071068641885475 0.4156273477410737
vn 0.720841641054897 0.453994359154214 0.5237140922081797
vn 0.7990557372562666 0.1564248726727516 0.5805524851097942
vn 0.7990621411850843 -0.1564246074797709 0.5805437422791739
vn 0.7208372191204337 -0.45399482042854766 0.5237197786553136
vn 0.5720632092423272 -0.7071065960768461 0.41562476636502943
vn 0.36729297494022534 -0.8910045378643894 0.2668459931582726
vn 0.12655682062622794 -0.987688854795822 0.09194616503747513
vn 0.14877482294378203 0.9876888108927863 0.04834113047127238
vn 0.4317718881220065 0.8910055699691595 0.1402929467631597
vn 0.6724972926873137 0.7071082146033824 0.21850712612784634
vn 0.8473968088896447 0.45398934552543563 0.2753403755954327
vn 0.9393468736030265 0.156434721005551 0.3052140709668139
vn 0.9393459290940822 -0.15643479492520923 0.3052169399477746
vn 0.8473984516093636 -0.4539890360496725 0.2753358301361126
vn 0.6724961138736176 -0.7071084574969437 0.21850996810483325
vn 0.43177111311454713 -0.8910056858129028 0.14029459622132165
vn 0.14877482294378344 -0.9876888108927859 0.04834113047127213
vn 0.1564311481420914 0.987688865934484 0
vn 0.45399269276228177 0.8910054067840736 0
vn 0.7071067811865499 0.7071067811865452 2.429254411563697e-15
vn 0.8910054067840727 0.4539926927622837 2.583058406573581e-15
vn 0.9876888659344838 0.15643114814209264 2.7724696260140345e-15
vn 0.987688865934484 -0.15643114814209122 1.4575792133710603e-15
vn 0.8910054067840736 -0.4539926927622817 0
vn 0.7071067811865481 -0.7071067811865469 1.671800386839864e-15
vn 0.4539926927622822 -0.8910054067840736 2.04428398272244e-15
vn 0.15643114814209266 -0.9876888659344838 7.105923316886591e-16
vn 0.14877482294378225 0.987688810892786 -0.048341130471271906
vn 0.4317723675336948 0.8910053131240789 -0.14029310253540736
vn 0.6724985202038054 0.7071069239193156 -0.21850752497123563
vn 0.8473951004630528 0.45399287105251895 -0.2753398204849854
vn 0.9393473063068127 0.15643184840357904 -0.30521421156160916
vn 0.9393463840649297 -0.1564317744953155 -0.3052170877791554
vn 0.8473964432389873 -0.45399318053660326 -0.27533517757847936
vn 0.67249780340237 -0.707106681023121 -0.21851051707287159
vn 0.43177202499727024 -0.89100519727059 -0.14029489251770358
vn 0.14877482294378339 -0.9876888108927859 -0.04834113047127227
vn 0.12655682062622803 0.9876888547958221 -0.09194616503747298
vn 0.36728872826273906 0.8910054944253064 -0.26684864435678796
vn 0.5720598497974075 0.7071082888384046 -0.4156265103500873
vn 0.720843807031105 0.45398910471496823 -0.5237156658579202
vn 0.7990544166271645 0.15643517948828656 -0.5805515256091309
vn 0.7990607525869807 -0.15643544467122686 -0.5805427334190342
vn 0.7208397653681965 -0.45398864345270656 -0.523721628615713
vn 0.5720616228603941 -0.707108556942666 -0.41562361380074736
vn 0.36729098403591615 -0.8910057917483727 -0.2668445467248381
vn 0.12655682062622872 -0.987688854795822 -0.09194616503747421
vn 0.09194616503747259 0.9876888547958222 -0.12655682062622844
vn 0.2668494047998581 0.8910048352218148 -0.36728977493160375
vn 0.41562734774107163 0.7071068641885487 -0.5720610023652721
vn 0.5237140922081802 0.45399435915421216 -0.7208416410548977
vn 0.580552485109797 0.15642487267274963 -0.7990557372562651
vn 0.5805437422791737 -0.15642460747976886 -0.7990621411850849
vn 0.5237197786553112 -0.45399482042854794 -0.7208372191204353
vn 0.41562476636503026 -0.7071065960768476 -0.5720632092423249
vn 0.26684599315826885 -0.8910045378643887 -0.3672929749402299
vn 0.09194616503747363 -0.9876888547958219 -0.12655682062622928
vn 0.04834113047127508 0.9876888108927862 -0.1487748229437811
vn 0.14029294676315926 0.8910055699691596 -0.4317718881220064
vn 0.21850712612784912 0.7071082146033832 -0.672497292687312
vn 0.2753403755954348 0.4539893455254351 -0.8473968088896441
vn 0.30521407096681274 0.15643472100555267 -0.9393468736030266
vn 0.30521693994777577 -0.1564347949252113 -0.9393459290940815
vn 0.27533583013611534 -0.45398903604967444 -0.8473984516093619
vn 0.21850996810483278 -0.7071084574969432 -0.6724961138736185
vn 0.14029459622133075 -0.8910056858129042 -0.4317711131145413
vn 0.048341130471275556 -0.9876888108927859 -0.14877482294378236
vn 2.6647212438324027e-16 0.987688865934484 -0.156431148142091
vn 8.359042814935196e-16 0.8910054067840727 -0.4539926927622836
vn 1.5616635502909423e-15 0.7071067811865477 -0.7071067811865474
vn 1.9926450564996165e-15 0.453992692762282 -0.8910054067840736
vn 2.4215241037337654e-15 0.1564311481420902 -0.9876888659344841
vn 1.826586609161201e-15 -0.1564311481420902 -0.9876888659344841
vn 2.342506781700382e-15 -0.4539926927622828 -0.8910054067840731
vn 1.1941431334570452e-15 -0.7071067811865478 -0.7071067811865472
vn 6.814279942408054e-16 -0.8910054067840727 -0.4539926927622836
vn 2.664721243832426e-16 -0.9876888659344838 -0.15643114814209236
usemtl m_fcbd81a2-c005-84a5-dd6c-1a4986d043ff
f 73/217/55 74/218/55 75/219/55
f 73/220/56 76/221/56 77/222/56 74/223/56
f 76/224/57 78/225/57 79/226/57 77/227/57
f 78/228/58 80/229/58 81/230/58 79/231/58
f 80/232/59 82/233/59 83/234/59 81/235/59
f 82/236/60 84/237/60 85/238/60 83/239/60
f 84/240/61 86/241/61 87/242/61 85/243/61
f 86/244/62 88/245/62 89/246/62 87/247/62
f 88/248/63 90/249/63 91/250/63 89/251/63
f 91/252/64 90/253/64 92/254/64
f 74/255/65 93/256/65 75/257/65
f 74/258/66 77/259/66 94/260/66 93/261/66
f 77/262/67 79/263/67 95/264/67 94/265/67
f 79/266/68 81/267/68 96/268/68 95/269/68
f 81/270/69 83/271/69 97/272/69 96/273/69
f 83/274/70 85/275/70 98/276/70 97/277/70
f 85/278/71 87/279/71 99/280/71 98/281/71
f 87/282/72 89/283/72 100/284/72 99/285/72
f 89/286/73 91/287/73 101/288/73 100/289/73
f 101/290/74 91/291/74 92/292/74
f 93/293/75 102/294/75 75/295/75
f 93/296/76 94/297/76 103/298/76 102/299/76
f 94/300/77 95/301/77 104/302/77 103/303/77
f 95/304/78 96/305/78 105/306/78 104/307/78
f 96/308/79 97/309/79 106/310/79 105/311/79
f 97/312/80 98/313/80 107/314/80 106/315/80
f 98/316/81 99/317/81 108/318/81 107/319/81
f 99/320/82 100/321/82 109/322/82 108/323/82
f 100/324/83 101/325/83 110/326/83 109/327/83
f 110/328/84 101/329/84 92/330/84
f 102/331/85 111/332/85 75/333/85
f 102/334/86 103/335/86 112/336/86 111/337/86
f 103/338/87 104/339/87 113/340/87 112/341/87
f 104/342/88 105/343/88 114/344/88 113/345/88
f 105/346/89 106/347/89 115/348/89 114/349/89
f 106/350/90 107/351/90 116/352/90 115/353/90
f 107/354/91 108/355/91 117/356/91 116/357/91
f 108/358/92 109/359/92 118/360/92 117/361/92
f 109/362/93 110/363/93 119/364/93 118/365/93
f 119/366/94 110/367/94 92/368/94
f 111/369/95 120/370/95 75/371/95
f 111/372/96 112/373/96 121/374/96 120/375/96
f 112/376/97 113/377/97 122/378/97 121/379/97
f 113/380/98 114/381/98 123/382/98 122/383/98
f 114/384/99 115/385/99 124/386/99 123/387/99
f 115/388/100 116/389/100 125/390/100 124/391/100
f 116/392/101 117/393/101 126/394/101 125/395/101
f 117/396/102 118/397/102 127/398/102 126/399/102
f 118/400/103 119/401/103 128/402/103 127/403/103
f 128/404/104 119/405/104 92/406/104
f 120/407/105 129/408/105 75/409/105
f 120/410/106 121/411/106 130/412/106 129/413/106
f 121/414/107 122/415/107 131/416/107 130/417/107
f 122/418/108 123/419/108 132/420/108 131/421/108
f 123/422/109 124/423/109 133/424/109 132/425/109
f 124/426/110 125/427/110 134/428/110 133/429/110
f 125/430/111 126/431/111 135/432/111 134/433/111
f 126/434/112 127/435/112 136/436/112 135/437/112
f 127/438/113 128/439/113 137/440/113 136/441/113
f 137/442/114 128/443/114 92/444/114
f 129/445/115 138/446/115 75/447/115
f 129/448/116 130/449/116 139/450/116 138/451/116
f 130/452/117 131/453/117 140/454/117 139/455/117
f 131/456/118 132/457/118 141/458/118 140/459/118
f 132/460/119 133/461/119 142/462/119 141/463/119
f 133/464/120 134/465/120 143/466/120 142/467/120
f 134/468/121 135/469/121 144/470/121 143/471/121
f 135/472/122 136/473/122 145/474/122 144/475/122
f 136/476/123 137/477/123 146/478/123 145/479/123
f 146/480/124 137/481/124 92/482/124
f 138/483/125 147/484/125 75/485/125
f 138/486/126 139/487/126 148/488/126 147/489/126
f 139/490/127 140/491/127 149/492/127 148/493/127
f 140/494/128 141/495/128 150/496/128 149/497/128
f 141/498/129 142/499/129 151/500/129 150/501/129
f 142/502/130 143/503/130 152/504/130 151/505/130
f 143/506/131 144/507/131 153/508/131 152/509/131
f 144/510/132 145/511/132 154/512/132 153/513/132
f 145/514/133 146/515/133 155/516/133 154/517/133
f 155/518/134 146/519/134 92/520/134
f 147/521/135 156/522/135 75/523/135
f 147/524/136 148/525/136 157/526/136 156/527/136
f 148/528/137 149/529/137 158/530/137 157/531/137
f 149/532/138 150/533/138 159/534/138 158/535/138
f 150/536/139 151/537/139 160/538/139 159/539/139
f 151/540/140 152/541/140 161/542/140 160/543/140
f 152/544/141 153/545/141 162/546/141 161/547/141
f 153/548/142 154/549/142 163/550/142 162/551/142
f 154/552/143 155/553/143 164/554/143 163/555/143
f 164/556/144 155/557/144 92/558/144
f 156/559/145 165/560/145 75/561/145
f 156/562/146 157/563/146 166/564/146 165/565/146
f 157/566/147 158/567/147 167/568/147 166/569/147
f 158/570/148 159/571/148 168/572/148 167/573/148
f 159/574/149 160/575/149 169/576/149 168/577/149
f 160/578/150 161/579/150 170/580/150 169/581/150
f 161/582/151 162/583/151 171/584/151 170/585/151
f 162/586/152 163/587/152 172/588/152 171/589/152
f 163/590/153 164/591/153 173/592/153 172/593/153
f 173/594/154 164/595/154 92/596/154
f 165/597/155 174/598/155 75/599/155
f 165/600/156 166/601/156 175/602/156 174/603/156
f 166/604/157 167/605/157 176/606/157 175/607/157
f 167/608/158 168/609/158 177/610/158 176/611/158
f 168/612/159 169/613/159 178/614/159 177/615/159
f 169/616/160 170/617/160 179/618/160 178/619/160
f 170/620/161 171/621/161 180/622/161 179/623/161
f 171/624/162 172/625/162 181/626/162 180/627/162
f 172/628/163 173/629/163 182/630/163 181/631/163
f 182/632/164 173/633/164 92/634/164
f 174/635/165 183/636/165 75/637/165
f 174/638/166 175/639/166 184/640/166 183/641/166
f 175/642/167 176/643/167 185/644/167 184/645/167
f 176/646/168 177/647/168 186/648/168 185/649/168
f 177/650/169 178/651/169 187/652/169 186/653/169
f 178/654/170 179/655/170 188/656/170 187/657/170
f 179/658/171 180/659/171 189/660/171 188/661/171
f 180/662/172 181/663/172 190/664/172 189/665/172
f 181/666/173 182/667/173 191/668/173 190/669/173
f 191/670/174 182/671/174 92/672/174
f 183/673/175 192/674/175 75/675/175
f 183/676/176 184/677/176 193/678/176 192/679/176
f 184/680/177 185/681/177 194/682/177 193/683/177
f 185/684/178 186/685/178 195/686/178 194/687/178
f 186/688/179 187/689/179 196/690/179 195/691/179
f 187/692/180 188/693/180 197/694/180 196/695/180
f 188/696/181 189/697/181 198/698/181 197/699/181
f 189/700/182 190/701/182 199/702/182 198/703/182
f 190/704/183 191/705/183 200/706/183 199/707/183
f 200/708/184 191/709/184 92/710/184
f 192/711/185 201/712/185 75/713/185
f 192/714/186 193/715/186 202/716/186 201/717/186
f 193/718/187 194/719/187 203/720/187 202/721/187
f 194/722/188 195/723/188 204/724/188 203/725/188
f 195/726/189 196/727/189 205/728/189 204/729/189
f 196/730/190 197/731/190 206/732/190 205/733/190
f 197/734/191 198/735/191 207/736/191 206/737/191
f 198/738/192 199/739/192 208/740/192 207/741/192
f 199/742/193 200/743/193 209/744/193 208/745/193
f 209/746/194 200/747/194 92/748/194
f 201/749/195 210/750/195 75/751/195
f 201/752/196 202/753/196 211/754/196 210/755/196
f 202/756/197 203/757/197 212/758/197 211/759/197
f 203/760/198 204/761/198 213/762/198 212/763/198
f 204/764/199 205/765/199 214/766/199 213/767/199
f 205/768/200 206/769/200 215/770/200 214/771/200
f 206/772/201 207/773/201 216/774/201 215/775/201
f 207/776/202 208/777/202 217/778/202 216/779/202
f 208/780/203 209/781/203 218/782/203 217/783/203
f 218/784/204 209/785/204 92/786/204
f 210/787/205 219/788/205 75/789/205
f 210/790/206 211/791/206 220/792/206 219/793/206
f 211/794/207 212/795/207 221/796/207 220/797/207
f 212/798/208 213/799/208 222/800/208 221/801/208
f 213/802/209 214/803/209 223/804/209 222/805/209
f 214/806/210 215/807/210 224/808/210 223/809/210
f 215/810/211 216/811/211 225/812/211 224/813/211
f 216/814/212 217/815/212 226/816/212 225/817/212
f 217/818/213 218/819/213 227/820/213 226/821/213
f 227/822/214 218/823/214 92/824/214
f 219/825/215 228/826/215 75/827/215
f 219/828/216 220/829/216 229/830/216 228/831/216
f 220/832/217 221/833/217 230/834/217 229/835/217
f 221/836/218 222/837/218 231/838/218 230/839/218
f 222/840/219 223/841/219 232/842/219 231/843/219
f 223/844/220 224/845/220 233/846/220 232/847/220
f 224/848/221 225/849/221 234/850/221 233/851/221
f 225/852/222 226/853/222 235/854/222 234/855/222
f 226/856/223 227/857/223 236/858/223 235/859/223
f 236/860/224 227/861/224 92/862/224
f 228/863/225 237/864/225 75/865/225
f 228/866/226 229/867/226 238/868/226 237/869/226
f 229/870/227 230/871/227 239/872/227 238/873/227
f 230/874/228 231/875/228 240/876/228 239/877/228
f 231/878/229 232/879/229 241/880/229 240/881/229
f 232/882/230 233/883/230 242/884/230 241/885/230
f 233/886/231 234/887/231 243/888/231 242/889/231
f 234/890/232 235/891/232 244/892/232 243/893/232
f 235/894/233 236/895/233 245/896/233 244/897/233
f 245/898/234 236/899/234 92/900/234
f 237/901/235 246/902/235 75/903/235
f 237/904/236 238/905/236 247/906/236 246/907/236
f 238/908/237 239/909/237 248/910/237 247/911/237
f 239/912/238 240/913/238 249/914/238 248/915/238
f 240/916/239 241/917/239 250/918/239 249/919/239
f 241/920/240 242/921/240 251/922/240 250/923/240
f 242/924/241 243/925/241 252/926/241 251/927/241
f 243/928/242 244/929/242 253/930/242 252/931/242
f 244/932/243 245/933/243 254/934/243 253/935/243
f 254/936/244 245/937/244 92/938/244
f 246/939/245 73/940/245 75/941/245
f 246/942/246 247/943/246 76/944/246 73/945/246
f 247/946/247 248/947/247 78/948/247 76/949/247
f 248/950/248 249/951/248 80/952/248 78/953/248
f 249/954/249 250/955/249 82/956/249 80/957/249
f 250/958/250 251/959/250 84/960/250 82/961/250
f 251/962/251 252/963/251 86/964/251 84/965/251
f 252/966/252 253/967/252 88/968/252 86/969/252
f 253/970/253 254/971/253 90/972/253 88/973/253
f 90/974/254 254/975/254 92/976/254