# Made in Blockbench 5.1.6
mtllib dc_metro_platform_pole_light_2.mtl

o light
v 0.497235950910155 -0.5624997632095823 0.03125000000000021
v 0.8722359509101549 -0.5624997632095824 0.03125000000000035
v 0.872235950910155 -0.4999997632095824 0.03125000000000034
v 0.497235950910155 -0.4999997632095824 0.0312500000000002
v 0.497235950910155 -0.5624997632095823 -0.031249999999999792
v 0.497235950910155 -0.4999997632095824 -0.0312499999999998
v 0.8722359509101549 -0.5624997632095824 -0.031249999999999657
v 0.872235950910155 -0.4999997632095824 -0.031249999999999663
vt 0.001953125 0.94921875
vt 0.048828125 0.94921875
vt 0.048828125 0.95703125
vt 0.001953125 0.95703125
vt 0.05859375 0.94921875
vt 0.06640625 0.94921875
vt 0.06640625 0.95703125
vt 0.05859375 0.95703125
vt 0.07812499999999994 0.94921875
vt 0.12499999999999994 0.94921875
vt 0.12499999999999994 0.95703125
vt 0.07812499999999994 0.95703125
vt 0.060546875 0.94921875
vt 0.068359375 0.94921875
vt 0.068359375 0.95703125
vt 0.060546875 0.95703125
vt 0.07812499999999994 0.931640625
vt 0.12499999999999994 0.931640625
vt 0.12499999999999994 0.939453125
vt 0.07812499999999994 0.939453125
vt 0.07812499999999994 0.93359375
vt 0.12499999999999994 0.93359375
vt 0.12499999999999994 0.94140625
vt 0.07812499999999994 0.94140625
vn -3.700743415417189e-16 1.110223024625162e-16 1
vn -1 0 0
vn 3.6082248300317592e-16 -1.1102230246251588e-16 -1
vn 1 -1.7763568394002505e-15 0
vn 0 1 0
vn -2.960594732333751e-16 -1 0
usemtl m_233fc6ea-b47e-ca6b-731a-d603999a242b
f 1/1/1 2/2/1 3/3/1 4/4/1
f 5/5/2 1/6/2 4/7/2 6/8/2
f 7/9/3 5/10/3 6/11/3 8/12/3
f 2/13/4 7/14/4 8/15/4 3/16/4
f 8/17/5 6/18/5 4/19/5 3/20/5
f 2/21/6 1/22/6 5/23/6 7/24/6
o light
v -0.031250000000000194 -0.5624997632095823 0.5128609509101549
v -0.03125000000000028 -0.5624997632095823 0.8878609509101549
v -0.03125000000000028 -0.4999997632095823 0.8878609509101549
v -0.031250000000000194 -0.4999997632095823 0.5128609509101549
v 0.031249999999999802 -0.5624997632095823 0.5128609509101549
v 0.031249999999999802 -0.4999997632095823 0.5128609509101549
v 0.03124999999999972 -0.5624997632095823 0.8878609509101549
v 0.03124999999999972 -0.4999997632095823 0.8878609509101549
vt 0.001953125 0.94921875
vt 0.048828125 0.94921875
vt 0.048828125 0.95703125
vt 0.001953125 0.95703125
vt 0.05859375 0.94921875
vt 0.06640625 0.94921875
vt 0.06640625 0.95703125
vt 0.05859375 0.95703125
vt 0.07812499999999994 0.94921875
vt 0.12499999999999994 0.94921875
vt 0.12499999999999994 0.95703125
vt 0.07812499999999994 0.95703125
vt 0.060546875 0.94921875
vt 0.068359375 0.94921875
vt 0.068359375 0.95703125
vt 0.060546875 0.95703125
vt 0.07812499999999994 0.931640625
vt 0.12499999999999994 0.931640625
vt 0.12499999999999994 0.939453125
vt 0.07812499999999994 0.939453125
vt 0.07812499999999994 0.93359375
vt 0.12499999999999994 0.93359375
vt 0.12499999999999994 0.94140625
vt 0.07812499999999994 0.94140625
vn -1 0 -2.220446049250313e-16
vn 0 0 -1
vn 1 0 2.220446049250313e-16
vn 0 0 1
vn 0 1 0
vn 0 -1 0
usemtl m_233fc6ea-b47e-ca6b-731a-d603999a242b
f 9/25/7 10/26/7 11/27/7 12/28/7
f 13/29/8 9/30/8 12/31/8 14/32/8
f 15/33/9 13/34/9 14/35/9 16/36/9
f 10/37/10 15/38/10 16/39/10 11/40/10
f 16/41/11 14/42/11 12/43/11 11/44/11
f 10/45/12 9/46/12 13/47/12 15/48/12
o light
v -0.5284859509101549 -0.5624997632095823 -0.03124999999999921
v -0.9034859509101549 -0.5624997632095823 -0.031249999999998567
v -0.9034859509101549 -0.4999997632095823 -0.03124999999999857
v -0.5284859509101549 -0.4999997632095823 -0.03124999999999921
v -0.5284859509101549 -0.5624997632095823 0.03125000000000079
v -0.5284859509101549 -0.4999997632095823 0.03125000000000079
v -0.9034859509101549 -0.5624997632095823 0.03125000000000143
v -0.9034859509101549 -0.4999997632095823 0.03125000000000143
vt 0.001953125 0.94921875
vt 0.048828125 0.94921875
vt 0.048828125 0.95703125
vt 0.001953125 0.95703125
vt 0.05859375 0.94921875
vt 0.06640625 0.94921875
vt 0.06640625 0.95703125
vt 0.05859375 0.95703125
vt 0.07812499999999994 0.94921875
vt 0.12499999999999994 0.94921875
vt 0.12499999999999994 0.95703125
vt 0.07812499999999994 0.95703125
vt 0.060546875 0.94921875
vt 0.068359375 0.94921875
vt 0.068359375 0.95703125
vt 0.060546875 0.95703125
vt 0.07812499999999994 0.931640625
vt 0.12499999999999994 0.931640625
vt 0.12499999999999994 0.939453125
vt 0.07812499999999994 0.939453125
vt 0.07812499999999994 0.93359375
vt 0.12499999999999994 0.93359375
vt 0.12499999999999994 0.94140625
vt 0.07812499999999994 0.94140625
vn -1.7115938296304496e-15 -5.551115123125783e-17 -1
vn 1 0 0
vn 1.7023419710919068e-15 0 1
vn -1 0 0
vn 0 1 0
vn 0 -1 0
usemtl m_233fc6ea-b47e-ca6b-731a-d603999a242b
f 17/49/13 18/50/13 19/51/13 20/52/13
f 21/53/14 17/54/14 20/55/14 22/56/14
f 23/57/15 21/58/15 22/59/15 24/60/15
f 18/61/16 23/62/16 24/63/16 19/64/16
f 24/65/17 22/66/17 20/67/17 19/68/17
f 18/69/18 17/70/18 21/71/18 23/72/18
o light
v 0.03124999999999997 -0.5624997632095823 -0.5128609509101549
v 0.031249999999999886 -0.5624997632095823 -0.8878609509101549
v 0.031249999999999886 -0.4999997632095823 -0.8878609509101549
v 0.03124999999999997 -0.4999997632095823 -0.5128609509101549
v -0.03125000000000003 -0.5624997632095823 -0.5128609509101549
v -0.03125000000000003 -0.4999997632095823 -0.5128609509101549
v -0.03125000000000011 -0.5624997632095823 -0.8878609509101549
v -0.03125000000000011 -0.4999997632095823 -0.8878609509101549
vt 0.001953125 0.94921875
vt 0.048828125 0.94921875
vt 0.048828125 0.95703125
vt 0.001953125 0.95703125
vt 0.05859375 0.94921875
vt 0.06640625 0.94921875
vt 0.06640625 0.95703125
vt 0.05859375 0.95703125
vt 0.07812499999999994 0.94921875
vt 0.12499999999999994 0.94921875
vt 0.12499999999999994 0.95703125
vt 0.07812499999999994 0.95703125
vt 0.060546875 0.94921875
vt 0.068359375 0.94921875
vt 0.068359375 0.95703125
vt 0.060546875 0.95703125
vt 0.07812499999999994 0.931640625
vt 0.12499999999999994 0.931640625
vt 0.12499999999999994 0.939453125
vt 0.07812499999999994 0.939453125
vt 0.07812499999999994 0.93359375
vt 0.12499999999999994 0.93359375
vt 0.12499999999999994 0.94140625
vt 0.07812499999999994 0.94140625
vn 1 0 -2.220446049250313e-16
vn 0 0 1
vn -1 0 2.220446049250313e-16
vn 0 0 -1
vn 0 1 0
vn 0 -1 0
usemtl m_233fc6ea-b47e-ca6b-731a-d603999a242b
f 25/73/19 26/74/19 27/75/19 28/76/19
f 29/77/20 25/78/20 28/79/20 30/80/20
f 31/81/21 29/82/21 30/83/21 32/84/21
f 26/85/22 31/86/22 32/87/22 27/88/22
f 32/89/23 30/90/23 28/91/23 27/92/23
f 26/93/24 25/94/24 29/95/24 31/96/24