# Made in Blockbench 5.1.6
mtllib dc_metro_fare_gate_1_exit_open_light_layer.mtl

o display_main
v 0.4375 0.59375 0.8131250000000001
v 0.5625 0.59375 0.8131250000000001
v 0.5625 0.71875 0.8131250000000001
v 0.4375 0.71875 0.8131250000000001
vt 0.068359375 0
vt 0.130859375 0
vt 0.130859375 0.0625
vt 0.068359375 0.0625
vn 0 0 1
usemtl m_05f6423e-d20e-5331-5d93-d37f91397759
f 1/1/1 2/2/1 3/3/1 4/4/1
o display_other
v -0.4375 0.59375 -0.813125
v -0.5625 0.59375 -0.813125
v -0.5625 0.71875 -0.813125
v -0.4375 0.71875 -0.813125
vt 0.068359375 0
vt 0.130859375 0
vt 0.130859375 0.0625
vt 0.068359375 0.0625
vn 0 0 -1
usemtl m_05f6423e-d20e-5331-5d93-d37f91397759
f 5/5/2 6/6/2 7/7/2 8/8/2
o cube
v 0.374375 0.046875 -0.03125000000000005
v 0.374375 0.046875 0.031249999999999955
v 0.374375 0.015625 -0.03125000000000005
v 0.374375 0.015625 0.031249999999999955
v 0.374375 0.046875 0.031249999999999955
v 0.374375 0.046875 -0.03125000000000005
v 0.374375 0.015625 0.031249999999999955
v 0.374375 0.015625 -0.03125000000000005
vt 0.125 0.921875
vt 0.125 0.921875
vt 0.125 0.890625
vt 0.125 0.890625
vt 0.03125 0.921875
vt 0.09375 0.921875
vt 0.09375 0.890625
vt 0.03125 0.890625
vt 0 0.921875
vt 0 0.921875
vt 0 0.890625
vt 0 0.890625
vt 0.03125 0.921875
vt 0.09375 0.921875
vt 0.09375 0.890625
vt 0.03125 0.890625
vt 0 0.96875
vt 0 0.96875
vt 0 0.90625
vt 0 0.90625
vt 0 0.96875
vt 0 0.96875
vt 0 0.90625
vt 0 0.90625
vn 1.2246467991473532e-16 0 1
vn -1 0 1.2246467991473532e-16
vn -1.2246467991473532e-16 0 -1
vn 1 0 -1.2246467991473532e-16
vn 0 1 0
vn 0 -1 0
usemtl m_49b7bf91-cedf-9150-1cf8-5f553de0f05c
f 12/12/3 15/11/3 13/10/3 10/9/3
f 11/16/4 12/15/4 10/14/4 9/13/4
f 16/20/5 11/19/5 9/18/5 14/17/5
f 15/24/6 16/23/6 14/22/6 13/21/6
f 14/28/7 9/27/7 10/26/7 13/25/7
f 15/32/8 12/31/8 11/30/8 16/29/8
o cube
v -0.374375 0.046875 0.03125
v -0.374375 0.046875 -0.03125
v -0.374375 0.015625 0.03125
v -0.374375 0.015625 -0.03125
v -0.374375 0.046875 -0.03125
v -0.374375 0.046875 0.03125
v -0.374375 0.015625 -0.03125
v -0.374375 0.015625 0.03125
vt 0.125 0.921875
vt 0.125 0.921875
vt 0.125 0.890625
vt 0.125 0.890625
vt 0.03125 0.921875
vt 0.09375 0.921875
vt 0.09375 0.890625
vt 0.03125 0.890625
vt 0 0.921875
vt 0 0.921875
vt 0 0.890625
vt 0 0.890625
vt 0.03125 0.921875
vt 0.09375 0.921875
vt 0.09375 0.890625
vt 0.03125 0.890625
vt 0 0.96875
vt 0 0.96875
vt 0 0.90625
vt 0 0.90625
vt 0 0.96875
vt 0 0.96875
vt 0 0.90625
vt 0 0.90625
vn 0 0 -1
vn 1 0 0
vn 0 0 1
vn -1 0 0
vn 0 1 0
vn 0 -1 0
usemtl m_49b7bf91-cedf-9150-1cf8-5f553de0f05c
f 20/36/9 23/35/9 21/34/9 18/33/9
f 19/40/10 20/39/10 18/38/10 17/37/10
f 24/44/11 19/43/11 17/42/11 22/41/11
f 23/48/12 24/47/12 22/46/12 21/45/12
f 22/52/13 17/51/13 18/50/13 21/49/13
f 23/56/14 20/55/14 19/54/14 24/53/14