# Made in Blockbench 5.1.6
mtllib dc_metro_roof_d2l.mtl

o part2l
v -0.4752626980777097 0.4577326579106946 0.4999999999999901
v -0.4192081517319166 0.4300896147720069 0.49999999999998995
v -0.19806380662241452 0.8785259855383513 0.4999999999999879
v -0.2541183529682076 0.906169028677039 0.49999999999998807
v -0.47526269807771415 0.4577326579106922 -0.5000000000000097
v -0.25411835296821206 0.9061690286770365 -0.5000000000000118
v -0.41920815173192105 0.43008961477200447 -0.5000000000000099
v -0.19806380662241896 0.8785259855383488 -0.5000000000000119
vt 0.125 0.9218749999999999
vt 0.1328125 0.9218749999999999
vt 0.1328125 0.984375
vt 0.125 0.984375
vt 0 0.9218749999999999
vt 0.125 0.9218749999999999
vt 0.125 0.984375
vt 0 0.984375
vt 0 0.9218749999999999
vt 0.0078125 0.9218749999999999
vt 0.0078125 0.984375
vt 0 0.984375
vt 0 0.9218749999999999
vt 0.125 0.9218749999999999
vt 0.125 0.984375
vt 0 0.984375
vt 0 0.875
vt 0.0078125 0.875
vt 0.0078125 1
vt 0 1
vt 0 0.875
vt 0.0078125 0.875
vt 0.0078125 1
vt 0 1
vn 4.206593666165882e-15 2.5057026311007623e-15 1
vn -0.8968727415326873 0.44228869021900347 2.9026290789257353e-15
vn -5.052280589153746e-15 -2.2124442379516384e-15 -1
vn 0.8968727415326873 -0.44228869021900347 -2.902629078925736e-15
vn 0.44228869021900236 0.8968727415326877 -4.152928001488468e-15
vn -0.44228869021900247 -0.8968727415326878 4.1563974484404235e-15
usemtl m_32030ed9-bd92-22eb-c965-8d2e7a5b1c75
f 1/1/1 2/2/1 3/3/1 4/4/1
f 5/5/2 1/6/2 4/7/2 6/8/2
f 7/9/3 5/10/3 6/11/3 8/12/3
f 2/13/4 7/14/4 8/15/4 3/16/4
f 8/17/5 6/18/5 4/19/5 3/20/5
f 2/21/6 1/22/6 5/23/6 7/24/6
o part2l
v -0.44654434882634897 0.44531250000000183 0.4999999999999961
v 0.054126587736529785 0.1562500000000025 0.4999999999999952
v 0.30412658773652934 0.5892627018922221 0.49999999999999467
v -0.1965443488263494 0.8783252018922214 0.4999999999999956
v -0.44654434882635075 0.4453125000000017 -0.5000000000000039
v -0.1965443488263512 0.8783252018922214 -0.5000000000000044
v 0.05412658773652801 0.1562500000000024 -0.5000000000000048
v 0.30412658773652756 0.5892627018922221 -0.5000000000000053
vt 0.001953125 0.921875
vt 0.07421875 0.921875
vt 0.07421875 0.984375
vt 0.001953125 0.984375
vt 0 0.921875
vt 0.125 0.921875
vt 0.125 0.984375
vt 0 0.984375
vt 0.05859375 0.921875
vt 0.130859375 0.921875
vt 0.130859375 0.984375
vt 0.05859375 0.984375
vt 0 0.921875
vt 0.125 0.921875
vt 0.125 0.984375
vt 0 0.984375
vt 0.05859375 0.875
vt 0.130859375 0.875
vt 0.130859375 1
vt 0.05859375 1
vt 0.05859375 0.875
vt 0.130859375 0.875
vt 0.130859375 1
vt 0.05859375 1
vn 1.8855938034320175e-15 1.933270342619455e-16 1
vn -0.8660254037844392 0.4999999999999991 1.4828589978755944e-15
vn -1.885593803432017e-15 -1.9332703426194563e-16 -1
vn 0.8660254037844394 -0.4999999999999991 -1.4828589978755948e-15
vn 0.49999999999999906 0.8660254037844393 -8.641735975460681e-16
vn -0.49999999999999906 -0.8660254037844393 1.0082025304704128e-15
usemtl m_32030ed9-bd92-22eb-c965-8d2e7a5b1c75
f 9/25/7 10/26/7 11/27/7 12/28/7
f 13/29/8 9/30/8 12/31/8 14/32/8
f 15/33/9 13/34/9 14/35/9 16/36/9
f 10/37/10 15/38/10 16/39/10 11/40/10
f 16/41/11 14/42/11 12/43/11 11/44/11
f 10/45/12 9/46/12 13/47/12 15/48/12
o part2l
v 0.1635015877365289 0.3456930570778487 0.03124999999999498
v 0.4882611141556934 0.15819305707784914 0.031249999999994386
v 0.5195111141556934 0.21231964481437648 0.031249999999994324
v 0.1947515877365289 0.39981964481437604 0.031249999999994917
v 0.1635015877365289 0.3456930570778487 -0.031250000000005024
v 0.1947515877365289 0.39981964481437604 -0.031250000000005086
v 0.4882611141556934 0.15819305707784914 -0.031250000000005614
v 0.5195111141556934 0.21231964481437648 -0.031250000000005676
vt 0.001953125 0.94921875
vt 0.048828125 0.94921875
vt 0.048828125 0.95703125
vt 0.001953125 0.95703125
vt 0.05859375 0.94921875
vt 0.06640625 0.94921875
vt 0.06640625 0.95703125
vt 0.05859375 0.95703125
vt 0.083984375 0.94921875
vt 0.130859375 0.94921875
vt 0.130859375 0.95703125
vt 0.083984375 0.95703125
vt 0.060546875 0.94921875
vt 0.068359375 0.94921875
vt 0.068359375 0.95703125
vt 0.060546875 0.95703125
vt 0.083984375 0.931640625
vt 0.130859375 0.931640625
vt 0.130859375 0.939453125
vt 0.083984375 0.939453125
vt 0.083984375 0.93359375
vt 0.130859375 0.93359375
vt 0.130859375 0.94140625
vt 0.083984375 0.94140625
vn 1.8697112751296094e-15 7.429930382717987e-17 1
vn -0.8660254037844384 0.5000000000000006 0
vn -1.8616989306030112e-15 -7.892523309645136e-17 -1
vn 0.8660254037844384 -0.5000000000000006 0
vn 0.49999999999999906 0.8660254037844392 0
vn -0.49999999999999906 -0.8660254037844392 0
usemtl m_b6ce3249-0bdb-dcc6-4439-c115f11e3540
f 17/49/13 18/50/13 19/51/13 20/52/13
f 21/53/14 17/54/14 20/55/14 22/56/14
f 23/57/15 21/58/15 22/59/15 24/60/15
f 18/61/16 23/62/16 24/63/16 19/64/16
f 24/65/17 22/66/17 20/67/17 19/68/17
f 18/69/18 17/70/18 21/71/18 23/72/18