# Made in Blockbench 5.1.5
mtllib dc_metrobus_wall_1m.mtl

o cube
v 0.5 1 0.03125
v 0.5 1 -0.03125
v 0.5 0 0.03125
v 0.5 0 -0.03125
v -0.5 1 -0.03125
v -0.5 1 0.03125
v -0.5 0 -0.03125
v -0.5 0 0.03125
vt 0.0234375 0.9765625
vt 0.9765625 0.9765625
vt 0.9765625 0.0234375
vt 0.0234375 0.0234375
vt 0.16796875 0.8359375
vt 0.17578125 0.8359375
vt 0.17578125 0.7109375
vt 0.16796875 0.7109375
vt 0.0234375 0.9765625
vt 0.9765625 0.9765625
vt 0.9765625 0.0234375
vt 0.0234375 0.0234375
vt 0.20703125 0.953125
vt 0.21484375 0.953125
vt 0.21484375 0.828125
vt 0.20703125 0.828125
vt 0.109375 0.86328125
vt 0.234375 0.86328125
vt 0.234375 0.85546875
vt 0.109375 0.85546875
vt 0.1953125 0.80078125
vt 0.3203125 0.80078125
vt 0.3203125 0.79296875
vt 0.1953125 0.79296875
vn 0 0 -1
vn 1 0 0
vn 0 0 1
vn -1 0 0
vn 0 1 0
vn 0 -1 0
usemtl m_02d2ae33-eed9-35cf-ff97-8a754b117635
f 4/4/1 7/3/1 5/2/1 2/1/1
f 3/8/2 4/7/2 2/6/2 1/5/2
f 8/12/3 3/11/3 1/10/3 6/9/3
f 7/16/4 8/15/4 6/14/4 5/13/4
f 6/20/5 1/19/5 2/18/5 5/17/5
f 7/24/6 4/23/6 3/22/6 8/21/6
o cube
v 0.5 1.3125 0.0625
v 0.5 1.3125 0.03125
v 0.5 0 0.0625
v 0.5 0 0.03125
v -0.5 1.3125 0.03125
v -0.5 1.3125 0.0625
v -0.5 0 0.03125
v -0.5 0 0.0625
vt 0 1
vt 0.125 1
vt 0.125 0.875
vt 0 0.875
vt 0.00390625 1
vt 0.0078125 1
vt 0.0078125 0.875
vt 0.00390625 0.875
vt 0 1
vt 1 1
vt 1 0
vt 0 0
vt 0.0078125 1
vt 0.01171875 1
vt 0.01171875 0.875
vt 0.0078125 0.875
vt 0 0.9921875
vt 0.125 0.9921875
vt 0.125 0.98828125
vt 0 0.98828125
vt 0 0.99609375
vt 0.125 0.99609375
vt 0.125 0.9921875
vt 0 0.9921875
vn 0 0 -1
vn 1 0 0
vn 0 0 1
vn -1 0 0
vn 0 1 0
vn 0 -1 0
usemtl m_4b82c872-8cba-39b3-1f0c-85ac4b95141a
f 12/28/7 15/27/7 13/26/7 10/25/7
f 11/32/8 12/31/8 10/30/8 9/29/8
usemtl m_806257ce-5ecd-7494-9707-3f53aaa4bb3d
f 16/36/9 11/35/9 9/34/9 14/33/9
usemtl m_4b82c872-8cba-39b3-1f0c-85ac4b95141a
f 15/40/10 16/39/10 14/38/10 13/37/10
f 14/44/11 9/43/11 10/42/11 13/41/11
f 15/48/12 12/47/12 11/46/12 16/45/12