# Made in Blockbench 5.1.5
mtllib dc_metrobus_roof_2.mtl

o part2
v 0.5 0.375 0.5
v 0.5 0.625 -0.5
v 0.5 0.265625 0.5
v 0.5 0.53125 -0.5
v -0.5 0.375 0.5
v -0.5 0.625 -0.5
v -0.5 0.265625 0.5
v -0.5 0.53125 -0.5
vt 0.125 0.984375
vt 0.125 1
vt 0 1
vt 0 0.984375
vt 0.125 0.984375
vt 0.125 1
vt 0 1
vt 0 0.984375
vt 0.125 0.875
vt 0.125 1
vt 0 1
vt 0 0.875
vt 0.125 0.875
vt 0.125 1
vt 0 1
vt 0 0.875
vt 0.125 0.984375
vt 0.125 1
vt 0 1
vt 0 0.984375
vt 0.125 0.984375
vt 0.125 1
vt 0 1
vt 0 0.984375
vn 1 0 0
vn -1 0 0
vn 0 0.9701425001453319 0.24253562503633297
vn 0 -0.9664851269264964 -0.25672261183985057
vn 0 0 1
vn 0 0 -1
usemtl m_c69df7b8-5055-fa29-8eb5-72a76fdcd24b
f 4/1/1 2/2/1 1/3/1 3/4/1
f 7/5/2 5/6/2 6/7/2 8/8/2
f 1/9/3 2/10/3 6/11/3 5/12/3
f 4/13/4 3/14/4 7/15/4 8/16/4
f 3/17/5 1/18/5 5/19/5 7/20/5
f 8/21/6 6/22/6 2/23/6 4/24/6