# Made in Blockbench 5.1.6
mtllib dc_metro_roof_g3l.mtl

o part3l
v -0.5 0 0.5
v -0.5 1 0.5
v -0.5 1 -0.5
v -0.5 0 -0.5
v 0.5 1 0.5
v 0.5 1 -0.5
v 0.25 0.25 -0.5
v 0.5 0.5 -0.5
v 0.5 0.5 0
v 0.25 0.25 0.5
v 0.5 0.5 0.5
v 0 0 0
v 0 0 0.5
v 0 0 -0.5
vt 0.125 0.875
vt 0.125 1
vt 0 1
vt 0 0.875
vt 0.125 0.875
vt 0.125 1
vt 0 1
vt 0 0.875
vt 0.125 0.875
vt 0.125 0.9375
vt 0.0625 0.9375
vt 0 0.875
vt 0.0625 0.9375
vt 0.125 0.9375
vt 0.125 1
vt 0 1
vt 0 1
vt 0 0.9375
vt 0.0625 0.9375
vt 0 0.9375
vt 0 0.875
vt 0.0625 0.9375
vt 0.125 0.9375
vt 0.125 1
vt 0 1
vt 0 0.9375
vt 0.125 0.875
vt 0.125 1
vt 0 1
vt 0.0625 0.9375
vt 0.125 0.875
vt 0.125 1
vt 0.0625 1
vt 0.0625 0.9375
vt 0.0625 1
vt 0 1
vt 0 0.875
vt 0 0.875
vt 0.0625 0.875
vt 0.0625 0.9375
vt 0.0625 0.875
vt 0.125 0.875
vt 0.0625 0.9375
vt 0 0.875
vt 0.0625 0.875
vt 0.125 0.9375
vt 0 1
vt 0.0625 0.875
vt 0.125 0.875
vt 0.125 0.9375
vt 0 0.9375
vt 0 0.875
vt 0.0625 0.875
vt 0.0625 0.875
vt 0.125 0.875
vt 0 0.9375
vn -1 0 0
vn 0 1 0
vn 0.7071067811865476 -0.7071067811865476 0
vn 1 0 0
vn 1 0 0
vn 0.7071067811865476 -0.7071067811865476 0
vn 0 0 1
vn 0 0 -1
vn 0.7071067811865476 -0.7071067811865476 0
vn 0 -1 0
vn 0 -1 0
vn 0.7071067811865476 -0.7071067811865476 0
vn 0 0 1
vn 0 0 0
vn 0 0 0
vn 0 0 -1
usemtl m_918526a1-397b-5973-298b-fe2bc694ba40
f 1/1/1 2/2/1 3/3/1 4/4/1
f 5/5/2 6/6/2 3/7/2 2/8/2
f 7/9/3 8/10/3 9/11/3 10/12/3
f 9/13/4 8/14/4 6/15/4 5/16/4
f 5/17/5 11/18/5 9/19/5
f 11/20/6 10/21/6 9/22/6
f 11/23/7 5/24/7 2/25/7
f 8/26/8 4/27/8 3/28/8 6/29/8
f 12/30/9 7/31/9 10/32/9 13/33/9
f 12/34/10 13/35/10 1/36/10 4/37/10
f 4/38/11 14/39/11 12/40/11
f 14/41/12 7/42/12 12/43/12
f 1/44/13 13/45/13 11/46/13 2/47/13
f 13/48/14 10/49/14 11/50/14
f 8/51/15 7/52/15 14/53/15
f 14/54/16 4/55/16 8/56/16
o part3l
v 0.2328806906885404 0.2459421365094694 0.03125
v 0.4980457336334957 -0.019222906435485965 0.03125
v 0.5422399074576549 0.02497126738867328 0.03125
v 0.2770748645126996 0.2901363103336286 0.03125
v 0.2328806906885404 0.2459421365094694 -0.03125
v 0.2770748645126996 0.2901363103336286 -0.03125
v 0.4980457336334957 -0.019222906435485965 -0.03125
v 0.5422399074576549 0.02497126738867328 -0.03125
vt 0.000244140625 0.99365234375
vt 0.006103515625 0.99365234375
vt 0.006103515625 0.99462890625
vt 0.000244140625 0.99462890625
vt 0.00732421875 0.99365234375
vt 0.00830078125 0.99365234375
vt 0.00830078125 0.99462890625
vt 0.00732421875 0.99462890625
vt 0.009765625 0.99365234375
vt 0.015625 0.99365234375
vt 0.015625 0.99462890625
vt 0.009765625 0.99462890625
vt 0.007568359375 0.99365234375
vt 0.008544921875 0.99365234375
vt 0.008544921875 0.99462890625
vt 0.007568359375 0.99462890625
vt 0.009765625 0.991455078125
vt 0.015625 0.991455078125
vt 0.015625 0.992431640625
vt 0.009765625 0.992431640625
vt 0.009765625 0.99169921875
vt 0.015625 0.99169921875
vt 0.015625 0.99267578125
vt 0.009765625 0.99267578125
vn 0 0 1
vn -0.7071067811865476 0.7071067811865476 0
vn 0 0 -1
vn 0.7071067811865476 -0.7071067811865476 0
vn 0.7071067811865475 0.7071067811865476 0
vn -0.7071067811865476 -0.7071067811865475 0
usemtl m_3207a7dc-735c-cdc5-1877-00d59580db75
f 15/57/17 16/58/17 17/59/17 18/60/17
f 19/61/18 15/62/18 18/63/18 20/64/18
f 21/65/19 19/66/19 20/67/19 22/68/19
f 16/69/20 21/70/20 22/71/20 17/72/20
f 22/73/21 20/74/21 18/75/21 17/76/21
f 16/77/22 15/78/22 19/79/22 21/80/22