# Made in Blockbench 5.1.4
mtllib dc_metro_roof_i3l.mtl

o part3l
v 0.5 0 1
v 0.5 0 -1
v 0.3125 -0.5 1
v 0.3125 -0.5 -1
v -0.5 -0.125 1
v -0.5 -0.125 -1
vt 0.125 0.984375
vt 0.125 1
vt 0 1
vt 0 0.984375
vt 0.125 0.875
vt 0.125 1
vt 0 1
vt 0 0.875
vt 0.125 0.875
vt 0.125 1
vt 0 1
vt 0 0.875
vt 0.09496409366986273 0.9408896967973304
vt 0.12597277731716483 1
vt 0 1
vt 0.11155484342131197 0.9414794264019347
vt 0 1
vt 3.469446951953614e-17 0.9332499707397068
vn 0.9363291775690445 -0.3511234415883917 0
vn -0.12403473458920847 0.9922778767136677 0
vn -0.4190581774617469 -0.9079593845004517 0
vn 0 0 1
vn 0 0 -1
usemtl m_8ce2ccde-ab7a-7a23-d868-1185644816e5
f 4/1/1 2/2/1 1/3/1 3/4/1
f 1/5/2 2/6/2 6/7/2 5/8/2
f 4/9/3 3/10/3 5/11/3 6/12/3
f 3/13/4 1/14/4 5/15/4
f 6/16/5 2/17/5 4/18/5
o part3l
v 0.234375 0.265625 0.5
v 0.234375 0.265625 -0.5
v 0.5 0 0.5
v 0.5 0 -0.5
v -0.5 0.125 0.5
v -0.5 0.125 -0.5
v -0.5 -0.125 0.5
v -0.5 -0.125 -0.5
vt 0.125 0.984375
vt 0.125 1
vt 0 1
vt 0 0.984375
vt 0.125 0.984375
vt 0.125 1
vt 0 1
vt 0 0.984375
vt 0.015625 0.875
vt 0.015625 1
vt 0 1
vt 0 0.875
vt 1.96875 -0.96875
vt 1.96875 1
vt 0 1
vt 0 -0.96875
vt 0.015625 0.984375
vt 0.015625 1
vt 0 1
vt 0 0.984375
vt 0.015625 0.984375
vt 0.015625 1
vt 0 1
vt 0 0.984375
vn 0.7071067811865476 0.7071067811865476 0
vn -1 0 0
vn -0.1880722707878578 0.9821551918921463 0
vn 0.12403473458920847 -0.9922778767136677 0
vn 0 0 1
vn 0 0 -1
usemtl m_8ce2ccde-ab7a-7a23-d868-1185644816e5
f 10/19/6 8/20/6 7/21/6 9/22/6
f 13/23/7 11/24/7 12/25/7 14/26/7
f 7/27/8 8/28/8 12/29/8 11/30/8
f 10/31/9 9/32/9 13/33/9 14/34/9
f 9/35/10 7/36/10 11/37/10 13/38/10
f 14/39/11 12/40/11 8/41/11 10/42/11
o part3l
v 0.2754231302081156 -0.4877227722291434 0.03125
v 0.2754231302081156 -0.4877227722291434 -0.03125
v 0.2754231302081156 -0.4877227722291434 0.03125
v 0.2754231302081156 -0.4877227722291434 -0.03125
v -0.4609519467591625 -0.14434543456482513 -0.03125
v -0.4609519467591625 -0.14434543456482513 0.03125
v -0.4609519467591625 -0.14434543456482513 -0.03125
v -0.4609519467591625 -0.14434543456482513 0.03125
vt 0 0.96875
vt 0.8125 0.96875
vt 0.8125 0.90625
vt 0 0.90625
vn -0.42261826174069944 -0.9063077870366499 0
usemtl m_daaf2d79-1bfd-57f3-5fea-bed5fd4a8ed9
f 21/46/12 18/45/12 17/44/12 22/43/12