# Made in Blockbench 5.1.6
mtllib dc_metro_mezzanine_3d.mtl

o cube
v 0.5 1 0
v 0.5 1 -0.5
v 0.5 0 0
v 0.5 0 -0.5
v 0 1 -0.5
v 0 1 0
v 0 0 -0.5
v 0 0 0
vt 0 1
vt 0.5 1
vt 0.5 0
vt 0 0
vt 0.5 1
vt 1 1
vt 1 0
vt 0.5 0
vt 0 1
vt 0.5 1
vt 0.5 0
vt 0 0
vt 1 1
vt 1 0.5
vt 0.5 0.5
vt 0.5 1
vt 0.5 0.5
vt 1 0.5
vt 1 0
vt 0.5 0
vn 0 0 -1
vn 1 0 0
vn -1 0 0
vn 0 1 0
vn 0 -1 0
usemtl m_6c354b02-c1b0-9c5d-313f-b4e671151156
f 4/4/1 7/3/1 5/2/1 2/1/1
f 3/8/2 4/7/2 2/6/2 1/5/2
f 7/12/3 8/11/3 6/10/3 5/9/3
usemtl m_7348e0d8-c6ae-599c-be56-6538e30fe40e
f 6/16/4 1/15/4 2/14/4 5/13/4
usemtl m_400c3830-a59d-7a16-7011-84d64c2e2917
f 7/20/5 4/19/5 3/18/5 8/17/5
o cube
v 0.5 1 0.5
v 0.5 1 0
v 0.5 0.5 0.5
v 0.5 0.5 0
v 0 1 0
v 0 1 0.5
v 0 0.5 0
v 0 0.5 0.5
vt 0 1
vt 0.5 1
vt 0.5 0.5
vt 0 0.5
vt 0 1
vt 1 1
vt 1 0.5
vt 0 0.5
vt 0.0625 1
vt 0.5625 1
vt 0.5625 0.5
vt 0.0625 0.5
vt 1 0.5
vt 1 0
vt 0.5 0
vt 0.5 0.5
vn 1 0 0
vn 0 0 1
vn -1 0 0
vn 0 1 0
usemtl m_6c354b02-c1b0-9c5d-313f-b4e671151156
f 11/24/6 12/23/6 10/22/6 9/21/6
f 16/28/7 11/27/7 9/26/7 14/25/7
f 15/32/8 16/31/8 14/30/8 13/29/8
usemtl m_7348e0d8-c6ae-599c-be56-6538e30fe40e
f 14/36/9 9/35/9 10/34/9 13/33/9
o cube
v 0.5 0.5 0.5
v 0.5 0.5 0
v 0.5 0.15625 0.34375
v 0.5 0 0
v 0 0.5 0.5
v 0 0.5 0
v 0 0.15625 0.34375
v 0 0 0
v 0 0.3125 0.4375
v 0 0.3125 0
v 0.5 0.3125 0
v 0.5 0.3125 0.4375
v 0 0.0625 0.1875
v 0.5 0.0625 0.1875
v 0.5 0.3125 0.1875
v 0.5 0.5 0.1875
v 0 0.5 0.1875
v 0 0.3125 0.1875
vt 0.5 1
vt 0.25 1
vt 0.25 0.75
vt 0.5 0.75
vt 0.0625 0.75
vt 0.3125 0.75
vt 0.3125 1
vt 0.0625 1
vt 0 0.5
vt 0 0.25
vt 1 0.25
vt 1 0.5
vt 1 0.5
vt 1 0.75
vt 0 0.75
vt 0 0.5
vt 0 1
vt 0 0.75
vt 1 0.75
vt 1 1
vt 0 1
vt 0 0.75
vt 1 0.75
vt 1 1
vt 0.0625 0.5
vt 0.3125 0.5
vt 0.3125 0.75
vt 0.0625 0.75
vt 1 0.5
vt 1 0.75
vt 0 0.75
vt 0 0.5
vt 0.5 0.75
vt 0.25 0.75
vt 0.25 0.5
vt 0.5 0.5
vt 1 0.5
vt 1 0.75
vt 0 0.75
vt 0 0.5
vt 0 1
vt 0 0.75
vt 1 0.75
vt 1 1
vt 0 0.5
vt 0.25 0.5
vt 0.25 0.75
vt 0 0.75
vt 0 0.75
vt 0.25 0.75
vt 0.25 1
vt 0 1
vt 1 0
vt 1 0.25
vt 0 0.25
vt 0 0
vt 0.5625 1
vt 0.3125 1
vt 0.3125 0.75
vt 0.5625 0.75
vt 0.5625 0.75
vt 0.3125 0.75
vt 0.3125 0.5
vt 0.5625 0.5
vn 1 0 0
vn -1 0 0
vn 0 1 0
vn 0 -0.948683298050514 0.316227766016838
vn 0 -0.316227766016838 0.948683298050514
vn 0 0 -1
vn -1 0 0
vn 0 0 -1
vn 1 0 0
vn 0 -0.5144957554275266 0.8574929257125443
vn 0 -0.8574929257125443 0.5144957554275266
vn 1 0 0
vn 1 0 0
vn 0 1 0
vn -1 0 0
vn -1 0 0
usemtl m_6c354b02-c1b0-9c5d-313f-b4e671151156
f 18/37/10 32/38/10 31/39/10 27/40/10
f 26/41/11 34/42/11 33/43/11 22/44/11
f 22/45/12 33/46/12 32/47/12 18/48/12
f 20/49/13 30/50/13 29/51/13 24/52/13
f 21/53/14 25/54/14 28/55/14 17/56/14
f 18/57/15 27/58/15 26/59/15 22/60/15
f 24/61/16 29/62/16 34/63/16 26/64/16
f 24/65/17 26/66/17 27/67/17 20/68/17
f 27/69/18 31/70/18 30/71/18 20/72/18
f 19/73/19 28/74/19 25/75/19 23/76/19
f 23/77/20 29/78/20 30/79/20 19/80/20
f 19/81/21 30/82/21 31/83/21 28/84/21
f 28/85/22 31/86/22 32/87/22 17/88/22
f 17/89/23 32/90/23 33/91/23 21/92/23
f 21/93/24 33/94/24 34/95/24 25/96/24
f 25/97/25 34/98/25 29/99/25 23/100/25
o cube
v -0.4999999999999999 0.5 1.1102230246251565e-16
v 1.1102230246251565e-16 0.5 0
v -0.3437499999999999 0.15625 1.1102230246251565e-16
v 1.1102230246251565e-16 0 0
v -0.5 0.5 -0.4999999999999999
v 0 0.5 -0.5
v -0.34375 0.15625 -0.49999999999999994
v 0 0 -0.5
v -0.4375 0.3125 -0.4999999999999999
v 0 0.3125 -0.5
v 1.1102230246251565e-16 0.3125 0
v -0.4374999999999999 0.3125 1.1102230246251565e-16
v -0.1875 0.0625 -0.49999999999999994
v -0.1874999999999999 0.0625 0
v -0.1874999999999999 0.3125 0
v -0.1874999999999999 0.5 0
v -0.1875 0.5 -0.49999999999999994
v -0.1875 0.3125 -0.49999999999999994
vt 0.5 1
vt 0.25 1
vt 0.25 0.75
vt 0.5 0.75
vt 0.0625 0.75
vt 0.3125 0.75
vt 0.3125 1
vt 0.0625 1
vt 0 0.5
vt 0 0.25
vt 1 0.25
vt 1 0.5
vt 1 0.5
vt 1 0.75
vt 0 0.75
vt 0 0.5
vt 0 1
vt 0 0.75
vt 1 0.75
vt 1 1
vt 0 1
vt 0 0.75
vt 1 0.75
vt 1 1
vt 0.0625 0.5
vt 0.3125 0.5
vt 0.3125 0.75
vt 0.0625 0.75
vt 1 0.5
vt 1 0.75
vt 0 0.75
vt 0 0.5
vt 0.5 0.75
vt 0.25 0.75
vt 0.25 0.5
vt 0.5 0.5
vt 1 0.5
vt 1 0.75
vt 0 0.75
vt 0 0.5
vt 0 1
vt 0 0.75
vt 1 0.75
vt 1 1
vt 0 0.5
vt 0.25 0.5
vt 0.25 0.75
vt 0 0.75
vt 0 0.75
vt 0.25 0.75
vt 0.25 1
vt 0 1
vt 1 0
vt 1 0.25
vt 0 0.25
vt 0 0
vt 0.5625 1
vt 0.3125 1
vt 0.3125 0.75
vt 0.5625 0.75
vt 0.5625 0.75
vt 0.3125 0.75
vt 0.3125 0.5
vt 0.5625 0.5
vn 2.220446049250313e-16 0 1
vn -2.220446049250313e-16 0 -1
vn 0 1 0
vn -0.316227766016838 -0.948683298050514 7.021666937153403e-17
vn -0.948683298050514 -0.316227766016838 2.106500081146021e-16
vn 1 0 -2.220446049250313e-16
vn -2.220446049250313e-16 0 -1
vn 1 0 -2.220446049250313e-16
vn 2.220446049250313e-16 0 1
vn -0.8574929257125443 -0.5144957554275266 1.9040167791585112e-16
vn -0.5144957554275266 -0.8574929257125443 1.1424100674951067e-16
vn 2.220446049250313e-16 0 1
vn 2.220446049250313e-16 0 1
vn 0 1 0
vn -2.220446049250313e-16 0 -1
vn -2.220446049250313e-16 0 -1
usemtl m_6c354b02-c1b0-9c5d-313f-b4e671151156
f 36/101/26 50/102/26 49/103/26 45/104/26
f 44/105/27 52/106/27 51/107/27 40/108/27
f 40/109/28 51/110/28 50/111/28 36/112/28
f 38/113/29 48/114/29 47/115/29 42/116/29
f 39/117/30 43/118/30 46/119/30 35/120/30
f 36/121/31 45/122/31 44/123/31 40/124/31
f 42/125/32 47/126/32 52/127/32 44/128/32
f 42/129/33 44/130/33 45/131/33 38/132/33
f 45/133/34 49/134/34 48/135/34 38/136/34
f 37/137/35 46/138/35 43/139/35 41/140/35
f 41/141/36 47/142/36 48/143/36 37/144/36
f 37/145/37 48/146/37 49/147/37 46/148/37
f 46/149/38 49/150/38 50/151/38 35/152/38
f 35/153/39 50/154/39 51/155/39 39/156/39
f 39/157/40 51/158/40 52/159/40 43/160/40
f 43/161/41 52/162/41 47/163/41 41/164/41
o cube
v -0.4999999999999999 1 1.1102230246251565e-16
v 1.1102230246251565e-16 1 0
v -0.4999999999999999 0.5 1.1102230246251565e-16
v 1.1102230246251565e-16 0.5 0
v 0 1 -0.5
v -0.5 1 -0.4999999999999999
v 0 0.5 -0.5
v -0.5 0.5 -0.4999999999999999
vt 0 1
vt 0.5 1
vt 0.5 0.5
vt 0 0.5
vt 0 1
vt 1 1
vt 1 0.5
vt 0 0.5
vt 0.0625 1
vt 0.5625 1
vt 0.5625 0.5
vt 0.0625 0.5
vt 0.5 0.5
vt 0 0.5
vt 0 1
vt 0.5 1
vn 2.220446049250313e-16 0 1
vn -1 0 2.220446049250313e-16
vn -2.220446049250313e-16 0 -1
vn 0 1 0
usemtl m_6c354b02-c1b0-9c5d-313f-b4e671151156
f 55/168/42 56/167/42 54/166/42 53/165/42
f 60/172/43 55/171/43 53/170/43 58/169/43
f 59/176/44 60/175/44 58/174/44 57/173/44
usemtl m_7348e0d8-c6ae-599c-be56-6538e30fe40e
f 58/180/45 53/179/45 54/178/45 57/177/45
o cube
v 0 1 0.5
v 0 1 0
v 0 0.5 0.5
v 0 0.5 0
v -0.5 1 0
v -0.5 0.5 0
v -0.36155187499999997 1 0.4031875
v -0.375 1 0
v -0.125834375 1 0.491725
v -0.25 1 0
v -0.06428374999999997 1 0.502578125
v -0.125 1 0
v -0.36155187499999997 0.5 0.4031875
v -0.125834375 0.5 0.491725
v -0.06428374999999997 0.5 0.502578125
v -0.40318750000000003 1 0.361551875
v -0.40318750000000003 0.5 0.361551875
v -0.491725 1 0.125834375
v -0.491725 0.5 0.125834375
v -0.502578125 1 0.06428375
v -0.502578125 0.5 0.06428375
v -0.375 1 0.375
v -0.375 1 0.25
v -0.375 1 0.125
v -0.25 1 0.375
v -0.25 1 0.25
v -0.25 1 0.125
v -0.125 1 0.375
v -0.125 1 0.25
v -0.125 1 0.125
v 0 1 0.375
v 0 1 0.25
v 0 1 0.125
v 0 0.5 0.375
v 0 0.5 0.25
v 0 0.5 0.125
vt 0.5 1
vt 0.375 1
vt 0.375 0.5
vt 0.5 0.5
vt 0.0625 0.5
vt 0.1875 0.5
vt 0.1875 1
vt 0.0625 1
vt 0.501340224126398 0.12500194067861736
vt 0.3763401583998524 0.12500131569459338
vt 0.3763401583998525 0.0000012454993005839299
vt 0.5013402241263978 0.000001870483324672989
vt 1 1
vt 0.75 1
vt 0.75 0.5
vt 1 0.5
vt 0.5013389786270972 0.5000015173429764
vt 0.43705515319522276 0.5025794541453041
vt 0.37633890843180423 0.3750014471476839
vt 0.5013389786270972 0.375001447147684
vt 0.5013389786270972 0.375001447147684
vt 0.37633890843180423 0.3750014471476839
vt 0.37633953341582843 0.2500013814211388
vt 0.5013396036111213 0.2500013814211386
vt 0.5013396036111213 0.2500013814211386
vt 0.37633953341582843 0.2500013814211388
vt 0.3763401583998524 0.12500131569459338
vt 0.501340224126398 0.12500194067861736
vt 0.25 0.5
vt 0.5 0.5
vt 0.5 1
vt 0.25 1
vt 0.5 0.5
vt 0.75 0.5
vt 0.75 1
vt 0.5 1
vt 0.4375 1
vt 0.3125 1
vt 0.3125 0.5
vt 0.4375 0.5
vt 0.3125 1
vt 0.1875 1
vt 0.1875 0.5
vt 0.3125 0.5
vt 0.09815170608876139 0.36155269099687404
vt 0.1263393974939903 0.3750008266324074
vt 0.13978695522359824 0.40318769711622227
vt 0.1263393974939903 0.3750008266324074
vt 0.2513394676892832 0.3750008266324074
vt 0.37550430727548506 0.49172596341209107
vt 0.13978695522359824 0.40318769711622227
vt 0.2513394676892832 0.3750008266324074
vt 0.37633890843180423 0.3750014471476839
vt 0.43705515319522276 0.5025794541453041
vt 0.37550430727548506 0.49172596341209107
vt 0.009614824370240138 0.1258348773358714
vt 0.1263393974939903 0.2500007564371147
vt 0.1263393974939903 0.3750008266324074
vt 0.09815170608876139 0.36155269099687404
vt 0.1263393974939903 0.2500007564371147
vt 0.251339467689283 0.2500007564371147
vt 0.2513394676892832 0.3750008266324074
vt 0.1263393974939903 0.3750008266324074
vt 0.251339467689283 0.2500007564371147
vt 0.37633953341582843 0.2500013814211388
vt 0.37633890843180423 0.3750014471476839
vt 0.2513394676892832 0.3750008266324074
vt 0 0.06428383851165065
vt 0.1263400224780144 0.1250006907105694
vt 0.1263393974939903 0.2500007564371147
vt 0.009614824370240138 0.1258348773358714
vt 0.1263400224780144 0.1250006907105694
vt 0.2513400926733072 0.1250006907105694
vt 0.251339467689283 0.2500007564371147
vt 0.1263393974939903 0.2500007564371147
vt 0.2513400926733072 0.1250006907105694
vt 0.3763401583998524 0.12500131569459338
vt 0.37633953341582843 0.2500013814211388
vt 0.251339467689283 0.2500007564371147
vt 0.0013405817354930072 0
vt 0.1263400224780144 6.205152764948707e-7
vt 0.1263400224780144 0.1250006907105694
vt 0 0.06428383851165065
vt 0.1263400224780144 6.205152764948707e-7
vt 0.2513400882045597 0.0000012454993006949522
vt 0.2513400926733072 0.1250006907105694
vt 0.1263400224780144 0.1250006907105694
vt 0.2513400882045597 0.0000012454993006949522
vt 0.3763401583998525 0.0000012454993005839299
vt 0.3763401583998524 0.12500131569459338
vt 0.2513400926733072 0.1250006907105694
vt 0 0.5
vt 0.125 0.5
vt 0.125 1
vt 0 1
vt 0.125 0.5
vt 0.25 0.5
vt 0.25 1
vt 0.125 1
vt 0.25 0.5
vt 0.375 0.5
vt 0.375 1
vt 0.25 1
vt 0 1
vt 0 0.5
vt 0.05888125 0.5
vt 0.05888125 1
vn 1 0 0
vn -0.9991967476210417 0 -0.04007317735758256
vn 0 1 0
vn 0.04007317735758238 0 0.9991967476210419
vn 0 1 0
vn 0 1 0
vn 0 1 0
vn -0.35162281587697714 0 0.9361417602878025
vn -0.1736495607887207 0 0.9848075091295174
vn -0.9361417602878026 0 0.3516228158769769
vn -0.9848075091295174 0 0.17364956078872137
vn 0 1 0
vn 0 1 0
vn 0 1 0
vn 0 1 0
vn 0 1 0
vn 0 1 0
vn 0 1 0
vn 0 1 0
vn 0 1 0
vn 0 1 0
vn 0 1 0
vn 0 1 0
vn 1 0 0
vn 1 0 0
vn 1 0 0
vn -0.707106781186547 0 0.707106781186548
usemtl m_6c354b02-c1b0-9c5d-313f-b4e671151156
f 62/181/46 93/182/46 96/183/46 64/184/46
f 66/185/47 81/186/47 80/187/47 65/188/47
usemtl m_7348e0d8-c6ae-599c-be56-6538e30fe40e
f 72/189/48 90/190/48 93/191/48 62/192/48
usemtl m_6c354b02-c1b0-9c5d-313f-b4e671151156
f 61/193/49 71/194/49 75/195/49 63/196/49
usemtl m_7348e0d8-c6ae-599c-be56-6538e30fe40e
f 65/197/50 80/198/50 84/199/50 68/200/50
f 68/201/51 84/202/51 87/203/51 70/204/51
f 70/205/52 87/206/52 90/207/52 72/208/52
usemtl m_6c354b02-c1b0-9c5d-313f-b4e671151156
f 73/209/53 74/210/53 69/211/53 67/212/53
f 74/213/54 75/214/54 71/215/54 69/216/54
f 76/217/55 78/218/55 79/219/55 77/220/55
f 78/221/56 80/222/56 81/223/56 79/224/56
usemtl m_7348e0d8-c6ae-599c-be56-6538e30fe40e
f 67/225/57 82/226/57 76/227/57
f 82/228/58 83/229/58 78/230/58 76/231/58
f 83/232/59 84/233/59 80/234/59 78/235/59
f 69/236/60 85/237/60 82/238/60 67/239/60
f 85/240/61 86/241/61 83/242/61 82/243/61
f 86/244/62 87/245/62 84/246/62 83/247/62
f 71/248/63 88/249/63 85/250/63 69/251/63
f 88/252/64 89/253/64 86/254/64 85/255/64
f 89/256/65 90/257/65 87/258/65 86/259/65
f 61/260/66 91/261/66 88/262/66 71/263/66
f 91/264/67 92/265/67 89/266/67 88/267/67
f 92/268/68 93/269/68 90/270/68 89/271/68
usemtl m_6c354b02-c1b0-9c5d-313f-b4e671151156
f 63/272/69 94/273/69 91/274/69 61/275/69
f 94/276/70 95/277/70 92/278/70 91/279/70
f 95/280/71 96/281/71 93/282/71 92/283/71
f 76/284/72 77/285/72 73/286/72 67/287/72
o cube
v 0 0.5 0.5
v 0 0.5 0
v 0 0 0
v 0 0 0
v -0.5 0.5 0
v 0 0 0
v -0.36155187499999997 0.5 0.4031875
v -0.375 0.5 0
v -0.125834375 0.5 0.491725
v -0.25 0.5 0
v -0.06428374999999997 0.5 0.502578125
v -0.125 0.5 0
v 0 0 0
v 0 0 0
v -0.40318750000000003 0.5 0.361551875
v -0.491725 0.5 0.125834375
v 0 0 0
v -0.502578125 0.5 0.06428375
v 0 0 0
v -0.375 0.5 0.375
v -0.375 0.5 0.25
v -0.375 0.5 0.125
v -0.25 0.5 0.375
v -0.25 0.5 0.25
v -0.25 0.5 0.125
v -0.125 0.5 0.375
v -0.125 0.5 0.25
v -0.125 0.5 0.125
v 0 0.5 0.375
v 0 0.5 0.25
v 0 0.5 0.125
v 0 0 0
v 0 0 0
v 0 0 0
v -0.06428374999999997 0.3125 0.440078125
v 0 0.3125 0.4375
v -0.06428374999999997 0.15625 0.346328125
v 0 0.15625 0.34375
v -0.06428374999999997 0.0625 0.190078125
v 0 0.0625 0.1875
v 0 0.375 0.375
v 0 0.25 0.375
v 0 0.375 0.25
v 0 0.25 0.25
v 0 0.125 0.25
v 0 0.375 0.125
v 0 0.25 0.125
v 0 0.125 0.125
v 0 0.375 0
v 0 0.25 0
v 0 0.125 0
v -0.125834375 0.3125 0.429225
v -0.125834375 0.15625 0.335475
v -0.125834375 0.0625 0.179225
v -0.343306875 0.3125 0.343306875
v -0.42922499999999997 0.3125 0.125834375
v -0.33547499999999997 0.15625 0.125834375
v -0.17922500000000002 0.0625 0.125834375
v -0.440078125 0.3125 0.06428375
v -0.346328125 0.15625 0.06428375
v -0.190078125 0.0625 0.06428375
v -0.4375 0.3125 0
v -0.34375 0.15625 0
v -0.1875 0.0625 0
v -0.29315437499999997 0.15625 0.293154375
v -0.16815437500000002 0.0625 0.168154375
v -0.382369375 0.5 0.382369375
vt 0.5 0.5
vt 0.375 0.625
vt 0.5 0.625
vt 0.375 0.5
vt 0.1875 0.5
vt 0.0625 0.625
vt 0.1875 0.625
vt 0.0625 0.5
vt 0.875 0.5
vt 0.875 0.375
vt 1 0.375
vt 1 0.5
vt 1 0.5
vt 1 0.625
vt 0.75 0.5
vt 0.5 0.5
vt 0.5 0.375
vt 0.625 0.375
vt 0.625 0.5
vt 0.625 0.5
vt 0.625 0.375
vt 0.75 0.375
vt 0.75 0.5
vt 0.75 0.5
vt 0.75 0.375
vt 0.875 0.375
vt 0.875 0.5
vt 0.75 0.5
vt 0.75 0.625
vt 0.5 0.625
vt 0.5 0.5
vt 0.3125 0.5
vt 0.1875 0.625
vt 0.3125 0.625
vt 0.1875 0.5
vt 0.625 0.125
vt 0.5625 0.0625
vt 0.625 0
vt 0.625 0.125
vt 0.625 0.25
vt 0.5 0.25
vt 0.5 0.125
vt 0.625 0.25
vt 0.625 0.375
vt 0.5 0.375
vt 0.5 0.25
vt 0.75 0
vt 0.75 0.125
vt 0.625 0.125
vt 0.625 0
vt 0.75 0.125
vt 0.75 0.25
vt 0.625 0.25
vt 0.625 0.125
vt 0.75 0.25
vt 0.75 0.375
vt 0.625 0.375
vt 0.625 0.25
vt 0.875 0
vt 0.875 0.125
vt 0.75 0.125
vt 0.75 0
vt 0.875 0.125
vt 0.875 0.25
vt 0.75 0.25
vt 0.75 0.125
vt 0.875 0.25
vt 0.875 0.375
vt 0.75 0.375
vt 0.75 0.25
vt 1 0
vt 1 0.125
vt 0.875 0.125
vt 0.875 0
vt 1 0.125
vt 1 0.25
vt 0.875 0.25
vt 0.875 0.125
vt 1 0.25
vt 1 0.375
vt 0.875 0.375
vt 0.875 0.25
vt 0.375 0.5
vt 0.375 0.625
vt 0.25 0.625
vt 0.25 0.5
vt 0.75 1
vt 0.75 0.875
vt 1 0.875
vt 1 1
vt 0.75 0.875
vt 0.75 0.75
vt 1 0.75
vt 1 0.875
vt 0.75 0.75
vt 0.75 0.625
vt 1 0.625
vt 1 0.75
vt 0 1
vt 0 0.875
vt 0.125 0.875
vt 0.125 1
vt 0.125 0.75
vt 0 0.75
vt 0 0.875
vt 0.125 0.875
vt 0.125 1
vt 0.125 0.875
vt 0.25 0.875
vt 0.25 1
vt 0.125 0.875
vt 0.125 0.75
vt 0.25 0.75
vt 0.25 0.875
vt 0.25 1
vt 0.25 0.875
vt 0.375 0.875
vt 0.375 1
vt 0.25 0.875
vt 0.25 0.75
vt 0.375 0.75
vt 0.375 0.875
vt 0.25 0.75
vt 0.25 0.625
vt 0.375 0.625
vt 0.375 0.75
vt 0.375 1
vt 0.375 0.875
vt 0.5 0.875
vt 0.5 1
vt 0.375 0.875
vt 0.375 0.75
vt 0.5 0.75
vt 0.5 0.875
vt 0.375 0.75
vt 0.375 0.625
vt 0.5 0.625
vt 0.5 0.75
vt 0.5 1
vt 0.5 0.875
vt 0.75 0.875
vt 0.75 1
vt 0.5 0.875
vt 0.5 0.75
vt 0.75 0.75
vt 0.75 0.875
vt 0.5 0.75
vt 0.5 0.625
vt 0.75 0.625
vt 0.75 0.75
vt 0.25 1
vt 0.25 0.875
vt 0.5 0.875
vt 0.5 1
vt 0.05888125 1
vt 0.029440625 1
vt 0 0.875
vt 0.3125 1
vt 0.3125 0.875
vt 0.4375 0.875
vt 0.4375 1
vt 0.1875 1
vt 0.1875 0.875
vt 0.3125 0.875
vt 0.3125 1
vt 0.1875 0.875
vt 0.1875 0.75
vt 0.3125 0.75
vt 0.3125 0.875
vt 0.1875 0.75
vt 0.1875 0.625
vt 0.3125 0.625
vt 0.3125 0.75
vt 0.0625 1
vt 0.0625 0.875
vt 0.1875 0.875
vt 0.1875 1
vt 0.0625 0.875
vt 0.0625 0.75
vt 0.1875 0.75
vt 0.1875 0.875
vt 0.0625 0.75
vt 0.0625 0.625
vt 0.1875 0.625
vt 0.1875 0.75
vt 0 0.989525
vt 0.0331375 0.821125
vt 0.20573125 0.821125
vt 0.22871875 1
vt 0.20519375 0.83023125
vt 0.2304375 1
vt 0 1
vt 0.03389375 0.8220125
vt 0.08205625 0.82155625
vt 0.1725875 1
vt 0 1
vt 0.0383125 0.82185625
vt 0.134275 0.82185625
vt 0.17259375 1
vt 0 1
vt 0.0905375 0.82155625
vt 0.75 0.625
vt 1 0.5
vt 1 0.625
vt 0.0625 1
vt 0 1
vt 0.0928 0.7920375
vt 0.065165625 1
vt 0.0214175 1
vt 0 0.9618525
vt 0.1415575 0.79477
vt 0.07185 1
vt 0.0075125 1
vt 0 0.8025
vt 0.05888125 0.875
vt 0.029440625 1
vt 0 1
vt 0.5 0.125
vt 0.5625 0.0625
vt 0.625 0.125
vn -1 0 0
vn 0.3162023373757835 0.9486070121273505 0.012681418726302334
vn 0 1 0
vn 0 0 0
vn 0 1 0
vn 0 1 0
vn 0 1 0
vn -0.05218664965936112 -0.9537728211048585 0.2959627667782061
vn 0.2959627667782062 0.9537728211048586 -0.05218664965936103
vn 0 1 0
vn 0 1 0
vn 0 1 0
vn 0 1 0
vn 0 1 0
vn 0 1 0
vn 0 1 0
vn 0 1 0
vn 0 1 0
vn 0 1 0
vn 0 1 0
vn 0 1 0
vn 1 0 0
vn 0.038019806905008474 -0.3159991288410311 0.9479973865230934
vn 0.034369771830752134 -0.5141917835462105 0.8569863059103509
vn 0.020629662791516335 -0.8573104390943965 0.5143862634566378
vn 1 0 0
vn -1 0 0
vn 1 0 0
vn 1 0 0
vn 1 0 0
vn 1 0 0
vn 1 0 0
vn 1 0 0
vn 1 0 0
vn 1 0 0
vn -0.16498737871370847 -0.3118940789539262 0.9356822368617785
vn -0.14950112328287815 -0.5087136235653733 0.8478560392756221
vn -0.09034919588562006 -0.8539859065180683 0.5123915439108409
vn -0.3486416129541069 -0.31575295348923565 0.882467618714468
vn -0.67829028444972 -0.28261670944281214 0.6782699208757786
vn -0.8883377166701624 -0.29611257222338744 0.350960746683289
vn -0.9356822368617785 -0.3118940789539262 0.16498737871370908
vn -0.8478560392756221 -0.5087136235653734 0.14950112328287854
vn -0.512391543910841 -0.8539859065180682 0.09034919588561995
vn -0.9479973865230934 -0.31599912884103115 -0.03801980690500873
vn -0.8569863059103509 -0.5141917835462105 -0.03436977183075213
vn -0.514386263456638 -0.8573104390943965 -0.020629662791516328
vn -0.22846024895754727 -0.36325079985257946 0.903246794100437
vn -0.8585677328379084 -0.3844544859235682 0.33919934608253455
vn -0.5093297836674955 -0.8508742862313214 0.12882593100599568
vn -0.12904450778597928 -0.8503232581729774 0.5101939549037863
vn 0.01268141872630234 -0.9486070121273505 0.3162023373757835
vn -0.052186649659361116 -0.9537728211048585 0.2959627667782061
vn 0 -1 0
vn -0.3162023373757835 -0.9486070121273505 -0.012681418726302334
vn -0.6782699208757779 -0.2826167094428122 0.6782902844497208
vn 0 1 0
usemtl m_6c354b02-c1b0-9c5d-313f-b4e671151156
f 100/288/73 144/289/73 147/290/73 130/291/73
f 115/292/74 160/293/74 157/294/74 102/295/74
f 108/296/75 124/297/75 127/298/75 98/299/75
f 99/300/76 136/301/76 110/302/76
f 101/303/77 114/304/77 118/305/77 104/306/77
f 104/307/78 118/308/78 121/309/78 106/310/78
f 106/311/79 121/312/79 124/313/79 108/314/79
f 110/315/80 135/316/80 150/317/80 109/318/80
f 113/319/81 157/320/81 154/321/81 115/322/81
f 116/323/82 163/324/82 103/325/82
f 116/326/83 117/327/83 112/328/83 111/329/83
f 117/330/84 118/331/84 114/332/84 112/333/84
f 105/334/85 119/335/85 116/336/85 103/337/85
f 119/338/86 120/339/86 117/340/86 116/341/86
f 120/342/87 121/343/87 118/344/87 117/345/87
f 107/346/88 122/347/88 119/348/88 105/349/88
f 122/350/89 123/351/89 120/352/89 119/353/89
f 123/354/90 124/355/90 121/356/90 120/357/90
f 97/358/91 125/359/91 122/360/91 107/361/91
f 125/362/92 126/363/92 123/364/92 122/365/92
f 126/366/93 127/367/93 124/368/93 123/369/93
f 130/370/94 144/371/94 141/372/94 129/373/94
f 107/374/95 131/375/95 132/376/95 97/377/95
f 131/378/96 133/379/96 134/380/96 132/381/96
f 133/382/97 135/383/97 136/384/97 134/385/97
f 97/386/98 132/387/98 137/388/98 125/389/98
f 138/390/99 134/391/99 132/392/99 137/393/99
f 125/394/100 137/395/100 139/396/100 126/397/100
f 137/398/101 138/399/101 140/400/101 139/401/101
f 126/402/102 139/403/102 142/404/102 127/405/102
f 139/406/103 140/407/103 143/408/103 142/409/103
f 140/410/104 141/411/104 144/412/104 143/413/104
f 127/414/105 142/415/105 145/416/105 98/417/105
f 142/418/106 143/419/106 146/420/106 145/421/106
f 143/422/107 144/423/107 147/424/107 146/425/107
f 105/426/108 148/427/108 131/428/108 107/429/108
f 148/430/109 149/431/109 133/432/109 131/433/109
f 149/434/110 150/435/110 135/436/110 133/437/110
f 103/438/111 151/439/111 148/440/111 105/441/111
f 103/442/112 163/443/112 151/444/112
f 112/445/113 152/446/113 151/447/113 111/448/113
f 114/449/114 155/450/114 152/451/114 112/452/114
f 155/453/115 156/454/115 153/455/115 152/456/115
f 156/457/116 157/458/116 154/459/116 153/460/116
f 101/461/117 158/462/117 155/463/117 114/464/117
f 158/465/118 159/466/118 156/467/118 155/468/118
f 159/469/119 160/470/119 157/471/119 156/472/119
f 151/473/120 161/474/120 149/475/120 148/476/120
f 161/477/121 151/478/121 152/479/121 153/480/121
f 162/481/122 161/482/122 153/483/122 154/484/122
f 150/485/123 149/486/123 161/487/123 162/488/123
f 135/489/124 99/490/124 136/491/124
f 135/492/125 150/493/125 99/494/125
f 150/495/126 162/496/126 154/497/126 99/498/126
f 157/499/127 160/500/127 99/501/127
f 151/502/128 163/503/128 111/504/128
f 111/505/129 163/506/129 116/507/129