# Made in Blockbench 5.1.5
mtllib dc_metro_roof_k5.mtl

o cube
v 0.5 1 -0.25
v 0.5 1 -0.5
v 0.5 0 -0.25
v 0.5 0 -0.5
v -0.5 1 -0.5
v -0.5 1 -0.25
v -0.5 0 -0.5
v -0.5 0 -0.25
vt 0 1
vt 0.125 1
vt 0.125 0.875
vt 0 0.875
vt 0 1
vt 0.03125 1
vt 0.03125 0.875
vt 0 0.875
vt 0 1
vt 0.125 1
vt 0.125 0.875
vt 0 0.875
vt 0 1
vt 0.03125 1
vt 0.03125 0.875
vt 0 0.875
vt 0 1
vt 0.125 1
vt 0.125 0.96875
vt 0 0.96875
vt 0 1
vt 0.125 1
vt 0.125 0.96875
vt 0 0.96875
vn 0 0 -1
vn 1 0 0
vn 0 0 1
vn -1 0 0
vn 0 1 0
vn 0 -1 0
usemtl m_4241e634-01ba-2682-7c83-45ef0cfe3f89
f 4/4/1 7/3/1 5/2/1 2/1/1
f 3/8/2 4/7/2 2/6/2 1/5/2
f 8/12/3 3/11/3 1/10/3 6/9/3
f 7/16/4 8/15/4 6/14/4 5/13/4
f 6/20/5 1/19/5 2/18/5 5/17/5
f 7/24/6 4/23/6 3/22/6 8/21/6