# Made in Blockbench 5.1.4
mtllib dc_metro_roof_d7.mtl

o part7
v 0.19654434882635122 0.8783252018922193 0.5
v 0.19654434882635122 0.8783252018922193 -0.5
v 0.4465443488263512 0.44531249999999994 0.5
v 0.4465443488263512 0.44531249999999994 -0.5
v -0.6830127018922193 0.3705127018922194 -0.5
v -0.6830127018922193 0.3705127018922194 0.5
v -0.43301270189221935 -0.06249999999999997 -0.5
v -0.43301270189221935 -0.06249999999999997 0.5
vt 0.001953125 0.984375
vt 0.12890625 0.984375
vt 0.12890625 0.921875
vt 0.001953125 0.921875
vt 0 0.984375
vt 0.125 0.984375
vt 0.125 0.921875
vt 0 0.921875
vt 0 0.984375
vt 0.126953125 0.984375
vt 0.126953125 0.921875
vt 0 0.921875
vt 0 0.984375
vt 0.125 0.984375
vt 0.125 0.921875
vt 0 0.921875
vt 0 1
vt 0.126953125 1
vt 0.126953125 0.875
vt 0 0.875
vt 0 1
vt 0.126953125 1
vt 0.126953125 0.875
vt 0 0.875
vn 0 0 -1
vn 0.8660254037844387 0.49999999999999994 0
vn 0 0 1
vn -0.8660254037844387 -0.49999999999999994 0
vn -0.49999999999999994 0.8660254037844387 0
vn 0.49999999999999994 -0.8660254037844387 0
usemtl m_0b7e94d4-2ac3-ef8f-cc87-0a35eb449212
f 4/4/1 7/3/1 5/2/1 2/1/1
f 3/8/2 4/7/2 2/6/2 1/5/2
f 8/12/3 3/11/3 1/10/3 6/9/3
f 7/16/4 8/15/4 6/14/4 5/13/4
f 6/20/5 1/19/5 2/18/5 5/17/5
f 7/24/6 4/23/6 3/22/6 8/21/6
o part7
v 0.2541183529682131 0.9061690286770436 0.5
v 0.2541183529682131 0.9061690286770436 -0.5
v 0.475262698077714 0.457732657910699 0.5
v 0.475262698077714 0.457732657910699 -0.5
v 0.19806380662242007 0.878525985538356 -0.5
v 0.19806380662242007 0.878525985538356 0.5
v 0.41920815173192094 0.4300896147720114 -0.5
v 0.41920815173192094 0.4300896147720114 0.5
vt 0.125 0.984375
vt 0.1328125 0.984375
vt 0.1328125 0.9218749999999999
vt 0.125 0.9218749999999999
vt 0 0.984375
vt 0.125 0.984375
vt 0.125 0.9218749999999999
vt 0 0.9218749999999999
vt 0 0.984375
vt 0.0078125 0.984375
vt 0.0078125 0.9218749999999999
vt 0 0.9218749999999999
vt 0 0.984375
vt 0.125 0.984375
vt 0.125 0.9218749999999999
vt 0 0.9218749999999999
vt 0 1
vt 0.0078125 1
vt 0.0078125 0.875
vt 0 0.875
vt 0 1
vt 0.0078125 1
vt 0.0078125 0.875
vt 0 0.875
vn 0 0 -1
vn 0.8968727415326883 0.4422886902190013 0
vn 0 0 1
vn -0.8968727415326883 -0.4422886902190013 0
vn -0.4422886902190013 0.8968727415326883 0
vn 0.4422886902190013 -0.8968727415326883 0
usemtl m_0b7e94d4-2ac3-ef8f-cc87-0a35eb449212
f 12/28/7 15/27/7 13/26/7 10/25/7
f 11/32/8 12/31/8 10/30/8 9/29/8
f 16/36/9 11/35/9 9/34/9 14/33/9
f 15/40/10 16/39/10 14/38/10 13/37/10
f 14/44/11 9/43/11 10/42/11 13/41/11
f 15/48/12 12/47/12 11/46/12 16/45/12