# Made in Blockbench 5.1.4
mtllib dc_metro_arch_a7.mtl

o part7b
v 1.5 1.9140415178280328 0.11538372225525068
v 1.5 1.1652442226302506 -0.5707625823544042
v 1.5 1.5762464140202028 0.48402239066031266
v 1.5 0.8274491188224206 -0.20212391394934223
v 1.375 1.1652442226302506 -0.5707625823544042
v 1.375 1.9140415178280328 0.11538372225525068
v 1.375 0.8274491188224206 -0.20212391394934223
v 1.375 1.5762464140202028 0.48402239066031266
vt 0.875 1
vt 1 1
vt 1 0.5
vt 0.875 0.5
vt 0 1
vt 1 1
vt 1 0.5
vt 0 0.5
vt 0 1
vt 0.125 1
vt 0.125 0.5
vt 0 0.5
vt 0 1
vt 1 1
vt 1 0.5
vt 0 0.5
vt 0 1
vt 0.125 1
vt 0.125 0
vt 0 0
vt 0 1
vt 0.125 1
vt 0.125 0
vt 0 0
vn 0 -0.7372773368101241 -0.6755902076156604
vn 1 0 0
vn 0 0.7372773368101241 0.6755902076156604
vn -1 0 0
vn 0 0.6755902076156604 -0.7372773368101241
vn 0 -0.6755902076156604 0.7372773368101241
usemtl m_84f0fa66-1fa2-14c6-d6fc-f8fcf686c7cf
f 4/4/1 7/3/1 5/2/1 2/1/1
f 3/8/2 4/7/2 2/6/2 1/5/2
f 8/12/3 3/11/3 1/10/3 6/9/3
f 7/16/4 8/15/4 6/14/4 5/13/4
f 6/20/5 1/19/5 2/18/5 5/17/5
f 7/24/6 4/23/6 3/22/6 8/21/6
o part7b
v -0.375 1.9140415178280328 0.11538372225525068
v -0.375 1.1652442226302506 -0.5707625823544042
v -0.375 1.5762464140202028 0.48402239066031266
v -0.375 0.8274491188224206 -0.20212391394934223
v -0.5 1.1652442226302506 -0.5707625823544042
v -0.5 1.9140415178280328 0.11538372225525068
v -0.5 0.8274491188224206 -0.20212391394934223
v -0.5 1.5762464140202028 0.48402239066031266
vt 0.875 1
vt 1 1
vt 1 0.5
vt 0.875 0.5
vt 0 1
vt 1 1
vt 1 0.5
vt 0 0.5
vt 0 1
vt 0.125 1
vt 0.125 0.5
vt 0 0.5
vt 0 1
vt 1 1
vt 1 0.5
vt 0 0.5
vt 0 1
vt 0.125 1
vt 0.125 0
vt 0 0
vt 0 1
vt 0.125 1
vt 0.125 0
vt 0 0
vn 0 -0.7372773368101241 -0.6755902076156604
vn 1 0 0
vn 0 0.7372773368101241 0.6755902076156604
vn -1 0 0
vn 0 0.6755902076156604 -0.7372773368101241
vn 0 -0.6755902076156604 0.7372773368101241
usemtl m_84f0fa66-1fa2-14c6-d6fc-f8fcf686c7cf
f 12/28/7 15/27/7 13/26/7 10/25/7
f 11/32/8 12/31/8 10/30/8 9/29/8
f 16/36/9 11/35/9 9/34/9 14/33/9
f 15/40/10 16/39/10 14/38/10 13/37/10
f 14/44/11 9/43/11 10/42/11 13/41/11
f 15/48/12 12/47/12 11/46/12 16/45/12
o part7b
v 1.5 2.0062011849292984 0.19983249820720833
v 1.5 1.914041517828033 0.11538372225525079
v 1.5 1.6684060811214683 0.5684711666122704
v 1.5 1.5762464140202028 0.4840223906603128
v -0.5 1.914041517828033 0.11538372225525079
v -0.5 2.0062011849292984 0.19983249820720833
v -0.5 1.5762464140202028 0.4840223906603128
v -0.5 1.6684060811214683 0.5684711666122704
vt 0 1
vt 1 1
vt 1 0.5
vt 0 0.5
vt 0.875 1
vt 1 1
vt 1 0.5
vt 0.875 0.5
vt 0 1
vt 1 1
vt 1 0.5
vt 0 0.5
vt 0 1
vt 0.125 1
vt 0.125 0.5
vt 0 0.5
vt 0 1
vt 1 1
vt 1 0.875
vt 0 0.875
vt 0 0.125
vt 1 0.125
vt 1 0
vt 0 0
vn 0 -0.7372773368101241 -0.6755902076156604
vn 1 0 0
vn 0 0.7372773368101241 0.6755902076156604
vn -1 0 0
vn 0 0.6755902076156604 -0.7372773368101241
vn 0 -0.6755902076156604 0.7372773368101241
usemtl m_84f0fa66-1fa2-14c6-d6fc-f8fcf686c7cf
f 20/52/13 23/51/13 21/50/13 18/49/13
f 19/56/14 20/55/14 18/54/14 17/53/14
f 24/60/15 19/59/15 17/58/15 22/57/15
f 23/64/16 24/63/16 22/62/16 21/61/16
f 22/68/17 17/67/17 18/66/17 21/65/17
f 23/72/18 20/71/18 19/70/18 24/69/18
o part7b
v 1.5 1.1652442226302506 -0.5707625823544042
v 1.5 1.0730845555289852 -0.6552113583063617
v 1.5 0.8274491188224206 -0.2021239139493422
v 1.5 0.7352894517211551 -0.28657268990129975
v -0.5 1.0730845555289852 -0.6552113583063617
v -0.5 1.1652442226302506 -0.5707625823544042
v -0.5 0.7352894517211551 -0.28657268990129975
v -0.5 0.8274491188224206 -0.2021239139493422
vt 0 1
vt 1 1
vt 1 0.5
vt 0 0.5
vt 0.875 1
vt 1 1
vt 1 0.5
vt 0.875 0.5
vt 0 1
vt 1 1
vt 1 0.5
vt 0 0.5
vt 0 1
vt 0.125 1
vt 0.125 0.5
vt 0 0.5
vt 0 1
vt 1 1
vt 1 0.875
vt 0 0.875
vt 0 0.125
vt 1 0.125
vt 1 0
vt 0 0
vn 0 -0.7372773368101241 -0.6755902076156604
vn 1 0 0
vn 0 0.7372773368101241 0.6755902076156604
vn -1 0 0
vn 0 0.6755902076156604 -0.7372773368101241
vn 0 -0.6755902076156604 0.7372773368101241
usemtl m_84f0fa66-1fa2-14c6-d6fc-f8fcf686c7cf
f 28/76/19 31/75/19 29/74/19 26/73/19
f 27/80/20 28/79/20 26/78/20 25/77/20
f 32/84/21 27/83/21 25/82/21 30/81/21
f 31/88/22 32/87/22 30/86/22 29/85/22
f 30/92/23 25/91/23 26/90/23 29/89/23
f 31/96/24 28/95/24 27/94/24 32/93/24
o part7b
v 1.5 2.3439962887371286 -0.16880617019785377
v 1.5 1.4108796593368154 -1.0238500267114237
v 1.5 2.0062011849292984 0.19983249820720822
v 1.5 1.0730845555289852 -0.6552113583063617
v -0.5 1.4108796593368154 -1.0238500267114237
v -0.5 2.3439962887371286 -0.16880617019785377
v -0.5 1.0730845555289852 -0.6552113583063617
v -0.5 2.0062011849292984 0.19983249820720822
vt 0 1
vt 1 1
vt 1 0.5
vt 0 0.5
vt 0 1
vt 1 1
vt 1 0.5
vt 0 0.5
vt 0 1
vt 1 1
vt 1 0.5
vt 0 0.5
vt 0 1
vt 1 1
vt 1 0.5
vt 0 0.5
vt 0 1
vt 1 1
vt 1 0
vt 0 0
vt 0 1
vt 1 1
vt 1 0
vt 0 0
vn 0 -0.7372773368101241 -0.6755902076156604
vn 1 0 0
vn 0 0.7372773368101241 0.6755902076156604
vn -1 0 0
vn 0 0.6755902076156604 -0.7372773368101241
vn 0 -0.6755902076156604 0.7372773368101241
usemtl m_84f0fa66-1fa2-14c6-d6fc-f8fcf686c7cf
f 36/100/25 39/99/25 37/98/25 34/97/25
f 35/104/26 36/103/26 34/102/26 33/101/26
f 40/108/27 35/107/27 33/106/27 38/105/27
f 39/112/28 40/111/28 38/110/28 37/109/28
f 38/116/29 33/115/29 34/114/29 37/113/29
f 39/120/30 36/119/30 35/118/30 40/117/30
o part7
v 1.5 0.9191687057395103 -0.7766161650854408
v 1.5 0.30480467252276655 -1.2067984923487256
v 1.5 0.6323804875639871 -0.3670401429409451
v 1.5 0.018016454347243416 -0.7972224702042299
v 1.375 0.30480467252276655 -1.2067984923487256
v 1.375 0.9191687057395103 -0.7766161650854408
v 1.375 0.018016454347243416 -0.7972224702042299
v 1.375 0.6323804875639871 -0.3670401429409451
vt 0.875 1
vt 1 1
vt 1 0.5
vt 0.875 0.5
vt 0.1875 1
vt 0.9375 1
vt 0.9375 0.5
vt 0.1875 0.5
vt 0 1
vt 0.125 1
vt 0.125 0.5
vt 0 0.5
vt 0.0625 1
vt 0.8125 1
vt 0.8125 0.5
vt 0.0625 0.5
vt 0 0.9375
vt 0.125 0.9375
vt 0.125 0.1875
vt 0 0.1875
vt 0 0.8125
vt 0.125 0.8125
vt 0.125 0.0625
vt 0 0.0625
vn 0 -0.8191520442889917 -0.5735764363510463
vn 1 0 0
vn 0 0.8191520442889917 0.5735764363510463
vn -1 0 0
vn 0 0.5735764363510463 -0.8191520442889917
vn 0 -0.5735764363510463 0.8191520442889917
usemtl m_84f0fa66-1fa2-14c6-d6fc-f8fcf686c7cf
f 44/124/31 47/123/31 45/122/31 42/121/31
f 43/128/32 44/127/32 42/126/32 41/125/32
f 48/132/33 43/131/33 41/130/33 46/129/33
f 47/136/34 48/135/34 46/134/34 45/133/34
f 46/140/35 41/139/35 42/138/35 45/137/35
f 47/144/36 44/143/36 43/142/36 48/141/36
o part7
v -0.375 0.9191687057395103 -0.7766161650854408
v -0.375 0.30480467252276655 -1.2067984923487256
v -0.375 0.6323804875639871 -0.3670401429409451
v -0.375 0.018016454347243416 -0.7972224702042299
v -0.5 0.30480467252276655 -1.2067984923487256
v -0.5 0.9191687057395103 -0.7766161650854408
v -0.5 0.018016454347243416 -0.7972224702042299
v -0.5 0.6323804875639871 -0.3670401429409451
vt 0.875 1
vt 1 1
vt 1 0.5
vt 0.875 0.5
vt 0.1875 1
vt 0.9375 1
vt 0.9375 0.5
vt 0.1875 0.5
vt 0 1
vt 0.125 1
vt 0.125 0.5
vt 0 0.5
vt 0.0625 1
vt 0.8125 1
vt 0.8125 0.5
vt 0.0625 0.5
vt 0 0.9375
vt 0.125 0.9375
vt 0.125 0.1875
vt 0 0.1875
vt 0 0.8125
vt 0.125 0.8125
vt 0.125 0.0625
vt 0 0.0625
vn 0 -0.8191520442889917 -0.5735764363510463
vn 1 0 0
vn 0 0.8191520442889917 0.5735764363510463
vn -1 0 0
vn 0 0.5735764363510463 -0.8191520442889917
vn 0 -0.5735764363510463 0.8191520442889917
usemtl m_84f0fa66-1fa2-14c6-d6fc-f8fcf686c7cf
f 52/148/37 55/147/37 53/146/37 50/145/37
f 51/152/38 52/151/38 50/150/38 49/149/38
f 56/156/39 51/155/39 49/154/39 54/153/39
f 55/160/40 56/159/40 54/158/40 53/157/40
f 54/164/41 49/163/41 50/162/41 53/161/41
f 55/168/42 52/167/42 51/166/42 56/165/42
o part7
v 1.5 1.0215627112756342 -0.7049191105415602
v 1.5 0.9191687057395103 -0.7766161650854411
v 1.5 0.734774493100111 -0.29534308839706436
v 1.5 0.6323804875639871 -0.3670401429409451
v -0.5 0.9191687057395103 -0.7766161650854411
v -0.5 1.0215627112756342 -0.7049191105415602
v -0.5 0.6323804875639871 -0.3670401429409451
v -0.5 0.734774493100111 -0.29534308839706436
vt 0 1
vt 1 1
vt 1 0.5
vt 0 0.5
vt 0.875 1
vt 1 1
vt 1 0.5
vt 0.875 0.5
vt 0 1
vt 1 1
vt 1 0.5
vt 0 0.5
vt 0 1
vt 0.125 1
vt 0.125 0.5
vt 0 0.5
vt 0 1
vt 1 1
vt 1 0.875
vt 0 0.875
vt 0 0.125
vt 1 0.125
vt 1 0
vt 0 0
vn 0 -0.8191520442889917 -0.5735764363510463
vn 1 0 0
vn 0 0.8191520442889917 0.5735764363510463
vn -1 0 0
vn 0 0.5735764363510463 -0.8191520442889917
vn 0 -0.5735764363510463 0.8191520442889917
usemtl m_84f0fa66-1fa2-14c6-d6fc-f8fcf686c7cf
f 60/172/43 63/171/43 61/170/43 58/169/43
f 59/176/44 60/175/44 58/174/44 57/173/44
f 64/180/45 59/179/45 57/178/45 62/177/45
f 63/184/46 64/183/46 62/182/46 61/181/46
f 62/188/47 57/187/47 58/186/47 61/185/47
f 63/192/48 60/191/48 59/190/48 64/189/48
o part7
v 1.5 0.3281479459348643 -1.1904533563390844
v 1.5 0.22575394039874042 -1.2621504108829653
v 1.5 0.04135972775934116 -0.7808773341945887
v 1.5 -0.06103427777678283 -0.8525743887384694
v -0.5 0.22575394039874042 -1.2621504108829653
v -0.5 0.3281479459348643 -1.1904533563390844
v -0.5 -0.06103427777678283 -0.8525743887384694
v -0.5 0.04135972775934116 -0.7808773341945887
vt 0 1
vt 1 1
vt 1 0.5
vt 0 0.5
vt 0.875 1
vt 1 1
vt 1 0.5
vt 0.875 0.5
vt 0 1
vt 1 1
vt 1 0.5
vt 0 0.5
vt 0 1
vt 0.125 1
vt 0.125 0.5
vt 0 0.5
vt 0 1
vt 1 1
vt 1 0.875
vt 0 0.875
vt 0 0.125
vt 1 0.125
vt 1 0
vt 0 0
vn 0 -0.8191520442889917 -0.5735764363510463
vn 1 0 0
vn 0 0.8191520442889917 0.5735764363510463
vn -1 0 0
vn 0 0.5735764363510463 -0.8191520442889917
vn 0 -0.5735764363510463 0.8191520442889917
usemtl m_84f0fa66-1fa2-14c6-d6fc-f8fcf686c7cf
f 68/196/49 71/195/49 69/194/49 66/193/49
f 67/200/50 68/199/50 66/198/50 65/197/50
f 72/204/51 67/203/51 65/202/51 70/201/51
f 71/208/52 72/207/52 70/206/52 69/205/52
f 70/212/53 65/211/53 66/210/53 69/209/53
f 71/216/54 68/215/54 67/214/54 72/213/54
o part7
v 1.5 1.3316942028632552 -1.0981499966764148
v 1.5 0.5125421585742636 -1.671726433027461
v 1.5 1.044905984687732 -0.688573974531919
v 1.5 0.22575394039874042 -1.2621504108829653
v -0.5 0.5125421585742636 -1.671726433027461
v -0.5 1.3316942028632552 -1.0981499966764148
v -0.5 0.22575394039874042 -1.2621504108829653
v -0.5 1.044905984687732 -0.688573974531919
vt 0 1
vt 1 1
vt 1 0.5
vt 0 0.5
vt 0 1
vt 1 1
vt 1 0.5
vt 0 0.5
vt 0 1
vt 1 1
vt 1 0.5
vt 0 0.5
vt 0 1
vt 1 1
vt 1 0.5
vt 0 0.5
vt 0 1
vt 1 1
vt 1 0
vt 0 0
vt 0 1
vt 1 1
vt 1 0
vt 0 0
vn 0 -0.8191520442889917 -0.5735764363510463
vn 1 0 0
vn 0 0.8191520442889917 0.5735764363510463
vn -1 0 0
vn 0 0.5735764363510463 -0.8191520442889917
vn 0 -0.5735764363510463 0.8191520442889917
usemtl m_84f0fa66-1fa2-14c6-d6fc-f8fcf686c7cf
f 76/220/55 79/219/55 77/218/55 74/217/55
f 75/224/56 76/223/56 74/222/56 73/221/56
f 80/228/57 75/227/57 73/226/57 78/225/57
f 79/232/58 80/231/58 78/230/58 77/229/58
f 78/236/59 73/235/59 74/234/59 77/233/59
f 79/240/60 76/239/60 75/238/60 80/237/60