# Made in Blockbench 5.1.5
mtllib dc_metro_roof_j14.mtl

o cube
v 9.375 2 -0.9374999999999978
v -0.9999999999999998 2 -0.9375000000000001
v 8.984375 1 -0.7187499999999979
v -0.9999999999999998 1 -0.7187500000000001
v 8.96875 1 -0.2031249999999979
v 9.328125 2 -0.42187499999999784
v -0.9999999999999999 2 -0.4218750000000001
v -1 1 -0.2031250000000001
vt 1 0.031982421875
vt 1 0.06396484375
vt 0.67578125 0.06396484375
vt 0.687744140625 0.031982421875
vt 4.488583125 -19.125
vt 5.512229375 -19.125
vt 5.402041875 -18.625
vt 4.378395625 -18.625
vt 4.488583125 -19.125
vt 5.512229375 -19.125
vt 5.402041875 -18.625
vt 4.378395625 -18.625
vt 1.765625 -29.625
vt 1.765625 -18.625
vt 1.25 -18.625
vt 1.25 -29.625
vt 2.390625 -29.625
vt 2.390625 -18.625
vt 1.875 -18.625
vt 1.875 -29.625
vt 0.5595703125 0.031982421875
vt 0.57080078125 0.06396484375
vt 0.248046875 0.06396484375
vt 0.248046875 0.031982421875
vn 2.1691537841400915e-16 -0.21369687880543226 -0.9769000173962618
vn 0.9342483618692711 -0.3463619637043746 0.08493166926084303
vn -1 0 -2.220446049250313e-16
vn 0 -1 0
vn 0 1 0
vn -2.1691537841400915e-16 0.21369687880543226 0.9769000173962618
usemtl m_c5494411-8a2b-8aa5-f3b6-e243aa086d7e
f 4/1/1 2/2/1 1/3/1 3/4/1
usemtl m_de2dac8c-139c-b971-2541-ef51e25b50c6
f 3/5/2 1/6/2 6/7/2 5/8/2
f 8/9/3 7/10/3 2/11/3 4/12/3
usemtl m_2005c307-efe8-a367-7dc0-3f45c5f778df
f 4/13/4 3/14/4 5/15/4 8/16/4
f 1/17/5 2/18/5 7/19/5 6/20/5
usemtl m_c5494411-8a2b-8aa5-f3b6-e243aa086d7e
f 5/21/6 6/22/6 7/23/6 8/24/6
o cube
v 9.75 3 -1.1562499999999978
v -0.9999999999999998 3 -1.15625
v 9.375 2 -0.9374999999999978
v -0.9999999999999998 2 -0.9375000000000001
v 9.703125 3 -0.6406249999999978
v -0.9999999999999998 3 -0.6406250000000001
v 9.328125 2 -0.42187499999999784
v -0.9999999999999999 2 -0.4218750000000001
vt 1 0.06396484375
vt 1 0.095947265625
vt 0.663818359375 0.095947265625
vt 0.67578125 0.06396484375
vt 3.015625 -29.625
vt 3.015625 -18.625
vt 2.5 -18.625
vt 2.5 -29.625
vt 3.640625 -29.625
vt 3.640625 -18.625
vt 3.125 -18.625
vt 3.125 -29.625
vt 4.488583125 -19.125
vt 5.512229375 -19.125
vt 5.402041875 -18.625
vt 4.378395625 -18.625
vt 4.488583125 -19.125
vt 5.512229375 -19.125
vt 5.402041875 -18.625
vt 4.378395625 -18.625
vt 0.57080078125 0.06396484375
vt 0.582275390625 0.095947265625
vt 0.248046875 0.095947265625
vt 0.248046875 0.06396484375
vn 2.1691537841400915e-16 -0.21369687880543226 -0.9769000173962618
vn 0 1 0
vn 0 -1 0
vn 0.9389070576474096 -0.33341869944865393 0.08535518705885561
vn -1 0 -2.220446049250313e-16
vn -2.1691537841400915e-16 0.21369687880543226 0.9769000173962618
usemtl m_c5494411-8a2b-8aa5-f3b6-e243aa086d7e
f 12/25/7 10/26/7 9/27/7 11/28/7
usemtl m_2005c307-efe8-a367-7dc0-3f45c5f778df
f 9/29/8 10/30/8 14/31/8 13/32/8
f 12/33/9 11/34/9 15/35/9 16/36/9
usemtl m_de2dac8c-139c-b971-2541-ef51e25b50c6
f 11/37/10 9/38/10 13/39/10 15/40/10
f 16/41/11 14/42/11 10/43/11 12/44/11
usemtl m_c5494411-8a2b-8aa5-f3b6-e243aa086d7e
f 15/45/12 13/46/12 14/47/12 16/48/12
o cube
v 10 4 -1.5781249999999978
v -0.9999999999999997 4 -1.578125
v 10 3.71875 -1.3281249999999978
v -0.9999999999999998 3.71875 -1.328125
v 10 4.140625 -1.0312499999999978
v -0.9999999999999998 4.140625 -1.03125
v 10 3.95051875 -0.8691181249999976
v -0.9999999999999998 3.95051875 -0.8691181250000001
v 10 3.71875 -1.3281249999999978
v -0.9999999999999998 3.71875 -1.328125
v 9.75 3 -1.1562499999999978
v -0.9999999999999998 3 -1.15625
v 10 3.9495125 -0.8726131249999977
v -0.9999999999999998 3.9495125 -0.8726131250000001
v 9.703125 3 -0.6406249999999978
v -0.9999999999999998 3 -0.6406250000000001
vt 1 0.98828125
vt 1 1
vt 0.69140625 1
vt 0.69140625 0.98828125
vt 1 0.978515625
vt 1 0.986328125
vt 0.69140625 0.986328125
vt 0.69140625 0.978515625
vt 15.5625 -13.9375
vt 26.5625 -13.9375
vt 26.5625 -13.375
vt 15.5625 -13.375
vt 15.5625 -19.515625
vt 26.5625 -19.515625
vt 26.5625 -19
vt 15.5625 -19
vt 4.488583125 -19.125
vt 5.512229375 -19.125
vt 5.402041875 -18.625
vt 4.378395625 -18.625
vt 4.488583125 -19.125
vt 5.512229375 -19.125
vt 5.402041875 -18.625
vt 4.378395625 -18.625
vt 1 0.095947265625
vt 1 0.119140625
vt 0.65625 0.119140625
vt 0.663818359375 0.095947265625
vt 15.5625 -20.1328125
vt 26.5625 -20.1328125
vt 26.5625 -19.625
vt 15.5625 -19.625
vt 4.265625 -29.625
vt 4.265625 -18.625
vt 3.75 -18.625
vt 3.75 -29.625
vt 4.488583125 -19.125
vt 5.512229375 -19.125
vt 5.402041875 -18.625
vt 4.378395625 -18.625
vt 4.488583125 -19.125
vt 5.512229375 -19.125
vt 5.402041875 -18.625
vt 4.378395625 -18.625
vt 0.582275390625 0.095947265625
vt 0.591796875 0.12646484375
vt 0.248046875 0.12646484375
vt 0.248046875 0.095947265625
vn 1.6595820688440003e-16 -0.6643638388299198 -0.7474093186836597
vn -1.6894678504641855e-16 0.6489058903753828 0.7608686781804939
vn 5.5298219294867774e-17 0.9684929325968497 -0.24904103981061848
vn -1.0008316715474534e-16 -0.8926580518961245 0.45073451430417016
vn 1 0 2.220446049250313e-16
vn -1 0 -2.220446049250313e-16
vn 2.159558957558294e-16 -0.23257321322170793 -0.9725788916544149
vn 1.0034589982144782e-16 0.8920596061185001 -0.45191775704402953
vn 0 -1 0
vn 0.9445097297109325 -0.29302680827549676 0.14844749951837022
vn -1 0 -2.220446049250313e-16
vn -2.1569992948627928e-16 0.2373421357089185 0.9714261220582496
usemtl m_c5494411-8a2b-8aa5-f3b6-e243aa086d7e
f 20/49/13 18/50/13 17/51/13 19/52/13
f 23/53/14 21/54/14 22/55/14 24/56/14
usemtl m_2005c307-efe8-a367-7dc0-3f45c5f778df
f 17/57/15 18/58/15 22/59/15 21/60/15
f 20/61/16 19/62/16 23/63/16 24/64/16
usemtl m_de2dac8c-139c-b971-2541-ef51e25b50c6
f 19/65/17 17/66/17 21/67/17 23/68/17
f 24/69/18 22/70/18 18/71/18 20/72/18
usemtl m_c5494411-8a2b-8aa5-f3b6-e243aa086d7e
f 28/73/19 26/74/19 25/75/19 27/76/19
usemtl m_2005c307-efe8-a367-7dc0-3f45c5f778df
f 25/77/20 26/78/20 30/79/20 29/80/20
f 28/81/21 27/82/21 31/83/21 32/84/21
usemtl m_de2dac8c-139c-b971-2541-ef51e25b50c6
f 27/85/22 25/86/22 29/87/22 31/88/22
f 32/89/23 30/90/23 26/91/23 28/92/23
usemtl m_c5494411-8a2b-8aa5-f3b6-e243aa086d7e
f 31/93/24 29/94/24 30/95/24 32/96/24
o cube
v 10 5 -2.499999999999998
v -0.9999999999999994 5 -2.5
v 10 4 -1.5781249999999978
v -0.9999999999999997 4 -1.578125
v 10 5 -1.8187499999999979
v -0.9999999999999996 5 -1.81875
v 10 4.140625 -1.0312499999999978
v -0.9999999999999998 4.140625 -1.03125
vt 1 0.119140625
vt 1 0.16162109375
vt 0.65625 0.16162109375
vt 0.65625 0.119140625
vt 0.591796875 0.12646484375
vt 0.591796875 0.162841796875
vt 0.248046875 0.162841796875
vt 0.248046875 0.12646484375
vt 12.4921875 -24.375
vt 12.4921875 -13.375
vt 11.8125 -13.375
vt 11.8125 -24.375
vt 15.5625 -14.5625
vt 26.5625 -14.5625
vt 26.5625 -14
vt 15.5625 -14
vt 4.488583125 -19.125
vt 5.512229375 -19.125
vt 5.402041875 -18.625
vt 4.378395625 -18.625
vt 4.488583125 -19.125
vt 5.512229375 -19.125
vt 5.402041875 -18.625
vt 4.378395625 -18.625
vn 1.6325690382736737e-16 -0.677802814739265 -0.7352437312425926
vn -1.6370580792059948e-16 0.6756032171581771 0.7372654155495978
vn 0 1 0
vn -5.5298219294867774e-17 -0.9684929325968497 0.24904103981061848
vn 1 0 2.220446049250313e-16
vn -1 0 -2.220446049250313e-16
usemtl m_c5494411-8a2b-8aa5-f3b6-e243aa086d7e
f 36/97/25 34/98/25 33/99/25 35/100/25
f 39/101/26 37/102/26 38/103/26 40/104/26
usemtl m_2005c307-efe8-a367-7dc0-3f45c5f778df
f 33/105/27 34/106/27 38/107/27 37/108/27
f 36/109/28 35/110/28 39/111/28 40/112/28
usemtl m_de2dac8c-139c-b971-2541-ef51e25b50c6
f 35/113/29 33/114/29 37/115/29 39/116/29
f 40/117/30 38/118/30 34/119/30 36/120/30
o cube
v 10 6 -3.406249999999998
v -0.9999999999999992 6 -3.40625
v 10 5 -2.499999999999998
v -0.9999999999999994 5 -2.5
v 10 6 -2.740624999999998
v -0.9999999999999993 6 -2.740625
v 10 5 -1.8124999999999978
v -0.9999999999999996 5 -1.8125
vt 1 0.16162109375
vt 1 0.203857421875
vt 0.65625 0.203857421875
vt 0.65625 0.16162109375
vt 0.591796875 0.162841796875
vt 0.591796875 0.20556640625
vt 0.248046875 0.20556640625
vt 0.248046875 0.162841796875
vt 14.7265625 -24.375
vt 14.7265625 -13.375
vt 14.0625 -13.375
vt 14.0625 -24.375
vt 11.75 -24.375
vt 11.75 -13.375
vt 11.0625 -13.375
vt 11.0625 -24.375
vt 4.488583125 -19.125
vt 5.512229375 -19.125
vt 5.402041875 -18.625
vt 4.378395625 -18.625
vt 4.488583125 -19.125
vt 5.512229375 -19.125
vt 5.402041875 -18.625
vt 4.378395625 -18.625
vn 1.6453215488620616e-16 -0.6715194247388594 -0.7409869514359828
vn -1.627490650500448e-16 0.6802753710254397 0.7329566287142784
vn 0 1 0
vn 0 -1 0
vn 1 0 2.220446049250313e-16
vn -1 0 -2.220446049250313e-16
usemtl m_c5494411-8a2b-8aa5-f3b6-e243aa086d7e
f 44/121/31 42/122/31 41/123/31 43/124/31
f 47/125/32 45/126/32 46/127/32 48/128/32
usemtl m_2005c307-efe8-a367-7dc0-3f45c5f778df
f 41/129/33 42/130/33 46/131/33 45/132/33
f 44/133/34 43/134/34 47/135/34 48/136/34
usemtl m_de2dac8c-139c-b971-2541-ef51e25b50c6
f 43/137/35 41/138/35 45/139/35 47/140/35
f 48/141/36 46/142/36 42/143/36 44/144/36
o cube
v 10.000000000000002 7 -4.328124999999997
v -0.9999999999999991 7 -4.328125
v 10 6 -3.406249999999998
v -0.9999999999999992 6 -3.40625
v 10 7 -3.646874999999998
v -0.9999999999999991 7 -3.646875
v 10 6 -2.740624999999998
v -0.9999999999999993 6 -2.740625
vt 1 0.203857421875
vt 1 0.246337890625
vt 0.65625 0.246337890625
vt 0.65625 0.203857421875
vt 0.591796875 0.20556640625
vt 0.591796875 0.247802734375
vt 0.248046875 0.247802734375
vt 0.248046875 0.20556640625
vt 13.2421875 -24.375
vt 13.2421875 -13.375
vt 12.5625 -13.375
vt 12.5625 -24.375
vt 15.4765625 -24.375
vt 15.4765625 -13.375
vt 14.8125 -13.375
vt 14.8125 -24.375
vt 4.488583125 -19.125
vt 5.512229375 -19.125
vt 5.402041875 -18.625
vt 4.378395625 -18.625
vt 4.488583125 -19.125
vt 5.512229375 -19.125
vt 5.402041875 -18.625
vt 4.378395625 -18.625
vn 1.6325690382736737e-16 -0.677802814739265 -0.7352437312425926
vn -1.6453215488620616e-16 0.6715194247388594 0.7409869514359828
vn 0 1 0
vn 0 -1 0
vn 1 0 2.220446049250313e-16
vn -1 0 -2.220446049250313e-16
usemtl m_c5494411-8a2b-8aa5-f3b6-e243aa086d7e
f 52/145/37 50/146/37 49/147/37 51/148/37
f 55/149/38 53/150/38 54/151/38 56/152/38
usemtl m_2005c307-efe8-a367-7dc0-3f45c5f778df
f 49/153/39 50/154/39 54/155/39 53/156/39
f 52/157/40 51/158/40 55/159/40 56/160/40
usemtl m_de2dac8c-139c-b971-2541-ef51e25b50c6
f 51/161/41 49/162/41 53/163/41 55/164/41
f 56/165/42 54/166/42 50/167/42 52/168/42
o cube
v 10.000000000000002 7.640625 -4.912499999999997
v -0.9999999999999989 7.640625 -4.9125
v 10.000000000000002 7 -4.328124999999997
v -0.9999999999999991 7 -4.328125
v 10.000000000000002 8.0756025 -4.6477887499999975
v -0.9999999999999989 8.0756025 -4.64778875
v 10 7 -3.646874999999998
v -0.9999999999999991 7 -3.646875
vt 1 0.246337890625
vt 1 0.2734375
vt 0.65625 0.2734375
vt 0.65625 0.246337890625
vt 0.591796875 0.247802734375
vt 0.591796875 0.293701171875
vt 0.248046875 0.293701171875
vt 0.248046875 0.247802734375
vt 15.5625 -20.7578125
vt 26.5625 -20.7578125
vt 26.5625 -20.25
vt 15.5625 -20.25
vt 13.9921875 -24.375
vt 13.9921875 -13.375
vt 13.3125 -13.375
vt 13.3125 -24.375
vt 4.488583125 -19.125
vt 5.512229375 -19.125
vt 5.402041875 -18.625
vt 4.378395625 -18.625
vt 4.488583125 -19.125
vt 5.512229375 -19.125
vt 5.402041875 -18.625
vt 4.378395625 -18.625
vn 1.6404599995955289e-16 -0.6739274795225827 -0.7387975042894628
vn -1.6255148688426872e-16 0.6812328363065479 0.7320668157605127
vn 1.896813478663844e-16 0.5198643153987546 -0.8542488475701822
vn 0 -1 0
vn 1 0 2.220446049250313e-16
vn -1 0 -2.220446049250313e-16
usemtl m_c5494411-8a2b-8aa5-f3b6-e243aa086d7e
f 60/169/43 58/170/43 57/171/43 59/172/43
f 63/173/44 61/174/44 62/175/44 64/176/44
usemtl m_2005c307-efe8-a367-7dc0-3f45c5f778df
f 57/177/45 58/178/45 62/179/45 61/180/45
f 60/181/46 59/182/46 63/183/46 64/184/46
usemtl m_de2dac8c-139c-b971-2541-ef51e25b50c6
f 59/185/47 57/186/47 61/187/47 63/188/47
f 64/189/48 62/190/48 58/191/48 60/192/48
o cube
v 10.000000000000002 7.828125 -5.499999999999997
v -0.9999999999999988 7.828125 -5.5
v 10.000000000000002 7.640625 -4.914062499999997
v -0.9999999999999989 7.640625 -4.9140625
v 10.000000000000002 8.3515625 -5.499999999999997
v -0.9999999999999988 8.3515625 -5.5
v 10.000000000000002 8.068489375 -4.646020624999998
v -0.9999999999999989 8.068489375 -4.646020625
vt 1 0.2734375
vt 1 0.292724609375
vt 0.65625 0.292724609375
vt 0.65625 0.2734375
vt 0.591796875 0.293701171875
vt 0.591796875 0.32177734375
vt 0.248046875 0.32177734375
vt 0.248046875 0.293701171875
vt 0 -18.5234375
vt 11 -18.5234375
vt 11 -18
vt 0 -18
vt 15.5625 -21.3828125
vt 26.5625 -21.3828125
vt 26.5625 -20.875
vt 15.5625 -20.875
vt 4.488583125 -19.125
vt 5.512229375 -19.125
vt 5.402041875 -18.625
vt 4.378395625 -18.625
vt 4.488583125 -19.125
vt 5.512229375 -19.125
vt 5.402041875 -18.625
vt 4.378395625 -18.625
vn 6.767380591549883e-17 -0.9524241471993243 -0.3047757271037838
vn -6.986413219385119e-17 0.9492110514722581 0.3146400797147913
vn 2.220446049250313e-16 0 -1
vn -1.8816948395214317e-16 -0.5308911528884747 0.8474400178093705
vn 1 0 2.220446049250313e-16
vn -1 0 -2.220446049250313e-16
usemtl m_c5494411-8a2b-8aa5-f3b6-e243aa086d7e
f 68/193/49 66/194/49 65/195/49 67/196/49
f 71/197/50 69/198/50 70/199/50 72/200/50
usemtl m_2005c307-efe8-a367-7dc0-3f45c5f778df
f 65/201/51 66/202/51 70/203/51 69/204/51
f 68/205/52 67/206/52 71/207/52 72/208/52
usemtl m_de2dac8c-139c-b971-2541-ef51e25b50c6
f 67/209/53 65/210/53 69/211/53 71/212/53
f 72/213/54 70/214/54 66/215/54 68/216/54
o cube
v 10.000000000000002 8.134375 -6.499999999999997
v -0.9999999999999986 8.134375 -6.5
v 10.000000000000002 7.828125 -5.499999999999997
v -0.9999999999999988 7.828125 -5.5
v 10.000000000000002 8.6640625 -6.499999999999997
v -0.9999999999999986 8.6640625 -6.5
v 10.000000000000002 8.3515625 -5.499999999999997
v -0.9999999999999988 8.3515625 -5.5
vt 1 0.292724609375
vt 1 0.325439453125
vt 0.65625 0.325439453125
vt 0.65625 0.292724609375
vt 0.591796875 0.32177734375
vt 0.591796875 0.3544921875
vt 0.248046875 0.3544921875
vt 0.248046875 0.32177734375
vt 15.5625 -15.15625
vt 26.5625 -15.15625
vt 26.5625 -14.625
vt 15.5625 -14.625
vt 15.5625 -18.8984375
vt 26.5625 -18.8984375
vt 26.5625 -18.375
vt 15.5625 -18.375
vt 4.488583125 -19.125
vt 5.512229375 -19.125
vt 5.402041875 -18.625
vt 4.378395625 -18.625
vt 4.488583125 -19.125
vt 5.512229375 -19.125
vt 5.402041875 -18.625
vt 4.378395625 -18.625
vn 6.502038469898221e-17 -0.95616581323044 -0.2928257803018226
vn -6.623035300988773e-17 0.9544799780350297 0.2982749931359468
vn 2.220446049250313e-16 0 -1
vn -2.220446049250313e-16 0 1
vn 1 0 2.220446049250313e-16
vn -1 0 -2.220446049250313e-16
usemtl m_c5494411-8a2b-8aa5-f3b6-e243aa086d7e
f 76/217/55 74/218/55 73/219/55 75/220/55
f 79/221/56 77/222/56 78/223/56 80/224/56
usemtl m_2005c307-efe8-a367-7dc0-3f45c5f778df
f 73/225/57 74/226/57 78/227/57 77/228/57
f 76/229/58 75/230/58 79/231/58 80/232/58
usemtl m_de2dac8c-139c-b971-2541-ef51e25b50c6
f 75/233/59 73/234/59 77/235/59 79/236/59
f 80/237/60 78/238/60 74/239/60 76/240/60
o cube
v 10.000000000000002 8.446875 -7.499999999999997
v -0.9999999999999983 8.446875 -7.5
v 10.000000000000002 8.134375 -6.499999999999997
v -0.9999999999999986 8.134375 -6.5
v 10.000000000000002 8.9765625 -7.499999999999997
v -0.9999999999999983 8.9765625 -7.5
v 10.000000000000002 8.6640625 -6.499999999999997
v -0.9999999999999986 8.6640625 -6.5
vt 1 0.325439453125
vt 1 0.358154296875
vt 0.65625 0.358154296875
vt 0.65625 0.325439453125
vt 0.591796875 0.3544921875
vt 0.591796875 0.38720703125
vt 0.248046875 0.38720703125
vt 0.248046875 0.3544921875
vt 0 -15.40625
vt 11 -15.40625
vt 11 -14.875
vt 0 -14.875
vt 15.5625 -15.78125
vt 26.5625 -15.78125
vt 26.5625 -15.25
vt 15.5625 -15.25
vt 4.488583125 -19.125
vt 5.512229375 -19.125
vt 5.402041875 -18.625
vt 4.378395625 -18.625
vt 4.488583125 -19.125
vt 5.512229375 -19.125
vt 5.402041875 -18.625
vt 4.378395625 -18.625
vn 6.623035300988773e-17 -0.9544799780350297 -0.2982749931359468
vn -6.623035300988773e-17 0.9544799780350297 0.2982749931359468
vn 2.220446049250313e-16 0 -1
vn -2.220446049250313e-16 0 1
vn 1 0 2.220446049250313e-16
vn -1 0 -2.220446049250313e-16
usemtl m_c5494411-8a2b-8aa5-f3b6-e243aa086d7e
f 84/241/61 82/242/61 81/243/61 83/244/61
f 87/245/62 85/246/62 86/247/62 88/248/62
usemtl m_2005c307-efe8-a367-7dc0-3f45c5f778df
f 81/249/63 82/250/63 86/251/63 85/252/63
f 84/253/64 83/254/64 87/255/64 88/256/64
usemtl m_de2dac8c-139c-b971-2541-ef51e25b50c6
f 83/257/65 81/258/65 85/259/65 87/260/65
f 88/261/66 86/262/66 82/263/66 84/264/66
o cube
v 10.000000000000002 8.759375 -8.499999999999998
v -0.9999999999999981 8.759375 -8.5
v 10.000000000000002 8.446875 -7.499999999999997
v -0.9999999999999983 8.446875 -7.5
v 10.000000000000002 9.2890625 -8.499999999999998
v -0.9999999999999981 9.2890625 -8.5
v 10.000000000000002 8.9765625 -7.499999999999997
v -0.9999999999999983 8.9765625 -7.5
vt 1 0.358154296875
vt 1 0.390869140625
vt 0.65625 0.390869140625
vt 0.65625 0.358154296875
vt 0.591796875 0.38720703125
vt 0.591796875 0.419921875
vt 0.248046875 0.419921875
vt 0.248046875 0.38720703125
vt 0 -16.03125
vt 11 -16.03125
vt 11 -15.5
vt 0 -15.5
vt 15.5625 -16.40625
vt 26.5625 -16.40625
vt 26.5625 -15.875
vt 15.5625 -15.875
vt 4.488583125 -19.125
vt 5.512229375 -19.125
vt 5.402041875 -18.625
vt 4.378395625 -18.625
vt 4.488583125 -19.125
vt 5.512229375 -19.125
vt 5.402041875 -18.625
vt 4.378395625 -18.625
vn 6.623035300988773e-17 -0.9544799780350297 -0.2982749931359468
vn -6.623035300988773e-17 0.9544799780350297 0.2982749931359468
vn 2.220446049250313e-16 0 -1
vn -2.220446049250313e-16 0 1
vn 1 0 2.220446049250313e-16
vn -1 0 -2.220446049250313e-16
usemtl m_c5494411-8a2b-8aa5-f3b6-e243aa086d7e
f 92/265/67 90/266/67 89/267/67 91/268/67
f 95/269/68 93/270/68 94/271/68 96/272/68
usemtl m_2005c307-efe8-a367-7dc0-3f45c5f778df
f 89/273/69 90/274/69 94/275/69 93/276/69
f 92/277/70 91/278/70 95/279/70 96/280/70
usemtl m_de2dac8c-139c-b971-2541-ef51e25b50c6
f 91/281/71 89/282/71 93/283/71 95/284/71
f 96/285/72 94/286/72 90/287/72 92/288/72
o cube
v 10.000000000000002 9.071875 -9.499999999999998
v -0.9999999999999979 9.071875 -9.5
v 10.000000000000002 8.759375 -8.499999999999998
v -0.9999999999999981 8.759375 -8.5
v 10.000000000000002 9.6015625 -9.499999999999998
v -0.9999999999999979 9.6015625 -9.5
v 10.000000000000002 9.2890625 -8.499999999999998
v -0.9999999999999981 9.2890625 -8.5
vt 1 0.390869140625
vt 1 0.423583984375
vt 0.65625 0.423583984375
vt 0.65625 0.390869140625
vt 0.591796875 0.419921875
vt 0.591796875 0.45263671875
vt 0.248046875 0.45263671875
vt 0.248046875 0.419921875
vt 0 -16.65625
vt 11 -16.65625
vt 11 -16.125
vt 0 -16.125
vt 15.5625 -17.03125
vt 26.5625 -17.03125
vt 26.5625 -16.5
vt 15.5625 -16.5
vt 4.488583125 -19.125
vt 5.512229375 -19.125
vt 5.402041875 -18.625
vt 4.378395625 -18.625
vt 4.488583125 -19.125
vt 5.512229375 -19.125
vt 5.402041875 -18.625
vt 4.378395625 -18.625
vn 6.623035300988773e-17 -0.9544799780350297 -0.2982749931359468
vn -6.623035300988773e-17 0.9544799780350297 0.2982749931359468
vn 2.220446049250313e-16 0 -1
vn -2.220446049250313e-16 0 1
vn 1 0 2.220446049250313e-16
vn -1 0 -2.220446049250313e-16
usemtl m_c5494411-8a2b-8aa5-f3b6-e243aa086d7e
f 100/289/73 98/290/73 97/291/73 99/292/73
f 103/293/74 101/294/74 102/295/74 104/296/74
usemtl m_2005c307-efe8-a367-7dc0-3f45c5f778df
f 97/297/75 98/298/75 102/299/75 101/300/75
f 100/301/76 99/302/76 103/303/76 104/304/76
usemtl m_de2dac8c-139c-b971-2541-ef51e25b50c6
f 99/305/77 97/306/77 101/307/77 103/308/77
f 104/309/78 102/310/78 98/311/78 100/312/78
o cube
v 10.000000000000002 9.259375 -9.999999999999998
v -0.9999999999999978 9.259375 -10
v 10.000000000000002 9.071875 -9.499999999999998
v -0.9999999999999979 9.071875 -9.5
v 10.000000000000002 9.7890625 -9.999999999999998
v -0.9999999999999978 9.7890625 -10
v 10.000000000000002 9.6015625 -9.499999999999998
v -0.9999999999999979 9.6015625 -9.5
vt 1 0.423583984375
vt 1 0.440185546875
vt 0.65625 0.440185546875
vt 0.65625 0.423583984375
vt 0.591796875 0.45263671875
vt 0.591796875 0.46923828125
vt 0.248046875 0.46923828125
vt 0.248046875 0.45263671875
vt 0 -17.28125
vt 11 -17.28125
vt 11 -16.75
vt 0 -16.75
vt 15.5625 -17.65625
vt 26.5625 -17.65625
vt 26.5625 -17.125
vt 15.5625 -17.125
vt 4.488583125 -19.125
vt 5.512229375 -19.125
vt 5.402041875 -18.625
vt 4.378395625 -18.625
vt 4.488583125 -19.125
vt 5.512229375 -19.125
vt 5.402041875 -18.625
vt 4.378395625 -18.625
vn 7.796506586741176e-17 -0.9363291775690447 -0.35112344158839176
vn -7.796506586741176e-17 0.9363291775690447 0.35112344158839176
vn 2.220446049250313e-16 0 -1
vn -2.220446049250313e-16 0 1
vn 1 0 2.220446049250313e-16
vn -1 0 -2.220446049250313e-16
usemtl m_c5494411-8a2b-8aa5-f3b6-e243aa086d7e
f 108/313/79 106/314/79 105/315/79 107/316/79
f 111/317/80 109/318/80 110/319/80 112/320/80
usemtl m_de2dac8c-139c-b971-2541-ef51e25b50c6
f 105/321/81 106/322/81 110/323/81 109/324/81
usemtl m_2005c307-efe8-a367-7dc0-3f45c5f778df
f 108/325/82 107/326/82 111/327/82 112/328/82
usemtl m_de2dac8c-139c-b971-2541-ef51e25b50c6
f 107/329/83 105/330/83 109/331/83 111/332/83
f 112/333/84 110/334/84 106/335/84 108/336/84
o cube
v 8.984375 1 -0.7187499999999979
v -0.9999999999999998 1 -0.7187500000000001
v 8.6328125 0 -0.49999999999999795
v -0.9999999999999999 0 -0.5000000000000001
v 8.96875 1 -0.2031249999999979
v -1 1 -0.2031250000000001
v 8.609375 0 0.015625000000002023
v -1 0 0.015624999999999889
vt 1 0
vt 1 0.031982421875
vt 0.68798828125 0.031982421875
vt 0.698974609375 0
vt 0.515625 -29.625
vt 0.515625 -18.625
vt 0 -18.625
vt 0 -29.625
vt 4.488583125 -19.125
vt 5.512229375 -19.125
vt 5.402041875 -18.625
vt 4.378395625 -18.625
vt 4.488583125 -19.125
vt 5.512229375 -19.125
vt 5.402041875 -18.625
vt 4.378395625 -18.625
vt 0.54833984375 0
vt 0.5595703125 0.031982421875
vt 0.248046875 0.031982421875
vt 0.248046875 0
vt 1.140625 -29.625
vt 1.140625 -18.625
vt 0.625 -18.625
vt 0.625 -29.625
vn 2.1691537841400915e-16 -0.21369687880543226 -0.9769000173962618
vn 0 -1 0
vn 0.9449544069904252 -0.32594663138850605 0.028634982030013093
vn -1 0 -2.220446049250313e-16
vn -2.1691537841400918e-16 0.21369687880543228 0.9769000173962619
vn 0 1 0
usemtl m_c5494411-8a2b-8aa5-f3b6-e243aa086d7e
f 116/337/85 114/338/85 113/339/85 115/340/85
usemtl m_de2dac8c-139c-b971-2541-ef51e25b50c6
f 116/341/86 115/342/86 119/343/86 120/344/86
f 115/345/87 113/346/87 117/347/87 119/348/87
f 120/349/88 118/350/88 114/351/88 116/352/88
usemtl m_c5494411-8a2b-8aa5-f3b6-e243aa086d7e
f 119/353/89 117/354/89 118/355/89 120/356/89
usemtl m_2005c307-efe8-a367-7dc0-3f45c5f778df
f 113/357/90 114/358/90 118/359/90 117/360/90