# Made in Blockbench 5.1.6
mtllib dc_metro_roof_g3l_light_layer.mtl

o part3l
v 0.7209708691207961 0.13829573567553533 0.07725437499999999
v 0.7374283375111748 0.12183826728515679 0.06969187499999996
v 0.7209708691207961 0.1555995224946466 0
v 0.7036666403599465 0.10538124083651623 0.14694624999999994
v 0.734970257563075 0.07407762363338777 0.13256187500000005
v 0.6707521455209274 0.060078235191108775 0.202254375
v 0.7138379294655767 0.01699245124645965 0.18245625
v 0.6254495818172584 0.0068216040825674895 0.23776437500000003
v 0.6760996405536507 -0.04382845465382479 0.21448999999999996
v 0.572192950708717 -0.04917594968654804 0.25
v 0.6254495818172583 -0.10243258079508943 0.22552812499999997
v 0.5161953969396014 -0.10243258079508943 0.23776437500000003
v 0.5668454556759936 -0.1530826395314817 0.21448999999999996
v 0.46293876583106003 -0.14773514449875869 0.202254375
v 0.5060245497757092 -0.1908209284434078 0.18245625
v 0.4176357601856526 -0.18064963933777756 0.14694624999999994
v 0.44893937738878115 -0.21195325654090613 0.13256187500000005
v 0.38472126534663353 -0.19795386809862714 0.07725437499999999
v 0.4011787337370122 -0.21441133648900568 0.06969187499999996
v 0.36741747852752227 -0.19795386809862714 0
v 0.7514277259534536 0.10783887884287768 0.05530812500000004
v 0.7615985731173456 0.04744930807911707 0.105201875
v 0.7504885997596902 -0.01965821904765397 0.144798125
v 0.7191854244983 -0.08691423859847414 0.17022062500000001
v 0.6707521455209275 -0.14773514449875857 0.17898000000000003
v 0.6099312396206431 -0.19616842347613117 0.17022062500000001
v 0.5426752200698228 -0.22747159873752132 0.144798125
v 0.4755676929430518 -0.23858157209517672 0.105201875
v 0.4151781221792912 -0.22841072493128478 0.05530812500000004
v 0.7615985731173456 0.09766803167898575 0.03551000000000004
v 0.7809450146506096 0.028102866545853145 0.06754375000000001
v 0.7771169153139609 -0.046286534601924556 0.09296625000000003
v 0.7504885997596902 -0.1182174138598644 0.10928812499999996
v 0.7036666403599465 -0.18064963933777767 0.11491249999999997
v 0.6412344148820333 -0.22747159873752132 0.10928812499999996
v 0.5693035356240934 -0.254099914291792 0.09296625000000003
v 0.4949141344763157 -0.25792801362844076 0.06754375000000001
v 0.4253489693431831 -0.23858157209517672 0.03551000000000004
v 0.766946068150069 0.09232053664626239 0.012235624999999972
v 0.7911163037562398 0.017931577440223 0.023273749999999982
v 0.7911163037562398 -0.06028592304420355 0.03203374999999997
v 0.7669460681500688 -0.13467488225024304 0.03765812499999999
v 0.7209708691207961 -0.19795386809862714 0.03959625
v 0.6576918832724119 -0.24392906712789997 0.03765812499999999
v 0.5833029240663723 -0.268099302734071 0.03203374999999997
v 0.505085423581946 -0.2680993027340708 0.023273749999999982
v 0.4306964643759065 -0.24392906712790008 0.012235624999999972
v 0.766946068150069 0.09232053664626239 -0.012235624999999972
v 0.7911163037562398 0.017931577440223 -0.023273749999999982
v 0.7911163037562398 -0.06028592304420355 -0.03203375000000008
v 0.7669460681500688 -0.13467488225024304 -0.0376581250000001
v 0.7209708691207961 -0.19795386809862714 -0.03959625
v 0.6576918832724119 -0.24392906712789997 -0.0376581250000001
v 0.5833029240663723 -0.268099302734071 -0.03203375000000008
v 0.505085423581946 -0.2680993027340708 -0.023273749999999982
v 0.4306964643759065 -0.24392906712790008 -0.012235624999999972
v 0.7615985731173456 0.09766803167898575 -0.03550999999999993
v 0.7809450146506096 0.028102866545853145 -0.06754375000000001
v 0.7771169153139609 -0.046286534601924556 -0.09296624999999992
v 0.7504885997596902 -0.1182174138598644 -0.10928812499999996
v 0.7036666403599465 -0.18064963933777767 -0.11491249999999997
v 0.6412344148820333 -0.22747159873752132 -0.10928812499999996
v 0.5693035356240934 -0.254099914291792 -0.09296624999999992
v 0.4949141344763157 -0.25792801362844076 -0.06754375000000001
v 0.4253489693431831 -0.23858157209517672 -0.03550999999999993
v 0.7514277259534536 0.10783887884287768 -0.05530812500000004
v 0.7615985731173456 0.04744930807911707 -0.10520187499999989
v 0.7504885997596902 -0.01965821904765397 -0.1447981250000001
v 0.7191854244983 -0.08691423859847414 -0.17022062500000001
v 0.6707521455209275 -0.14773514449875857 -0.17897999999999992
v 0.6099312396206431 -0.19616842347613117 -0.17022062500000001
v 0.5426752200698228 -0.22747159873752132 -0.1447981250000001
v 0.4755676929430518 -0.23858157209517672 -0.10520187499999989
v 0.4151781221792912 -0.22841072493128478 -0.05530812500000004
v 0.7374283375111748 0.12183826728515679 -0.06969187499999996
v 0.734970257563075 0.07407762363338777 -0.13256187499999994
v 0.7138379294655767 0.01699245124645965 -0.18245625
v 0.6760996405536507 -0.04382845465382479 -0.21449000000000007
v 0.6254495818172583 -0.10243258079508943 -0.22552812500000008
v 0.5668454556759936 -0.1530826395314817 -0.21449000000000007
v 0.5060245497757092 -0.1908209284434078 -0.18245625
v 0.44893937738878115 -0.21195325654090613 -0.13256187499999994
v 0.4011787337370122 -0.21441133648900568 -0.06969187499999996
v 0.7209708691207961 0.13829573567553533 -0.0772543750000001
v 0.7036666403599465 0.10538124083651623 -0.14694625000000006
v 0.6707521455209274 0.060078235191108775 -0.2022543750000001
v 0.6254495818172584 0.0068216040825674895 -0.23776437500000003
v 0.572192950708717 -0.04917594968654804 -0.25
v 0.5161953969396014 -0.10243258079508943 -0.23776437500000003
v 0.46293876583106003 -0.14773514449875869 -0.2022543750000001
v 0.4176357601856526 -0.18064963933777756 -0.14694625000000006
v 0.38472126534663353 -0.19795386809862714 -0.0772543750000001
v 0.7036670823016848 0.1555995224946466 -0.0772543750000001
v 0.6707525874626656 0.138295293733797 -0.14694625000000006
v 0.6254495818172582 0.10538079889477803 -0.2022543750000001
v 0.5721929507087169 0.060078235191109 -0.23776437500000003
v 0.5161953969396014 0.0068216040825674895 -0.25
v 0.46293876583106 -0.04917594968654804 -0.23776437500000003
v 0.4176362021273908 -0.10243258079508943 -0.2022543750000001
v 0.38472170728837185 -0.14773558644049678 -0.14694625000000006
v 0.36741747852752227 -0.18065008127951587 -0.0772543750000001
v 0.6872096139113062 0.17205699088502524 -0.06969187499999996
v 0.6394489702595372 0.16959891093692558 -0.13256187499999994
v 0.5823637978726091 0.14846658283942726 -0.18245625
v 0.5215428919723246 0.11072829392750128 -0.21449000000000007
v 0.4629387658310601 0.060078235191108886 -0.22552812500000008
v 0.4122887070946677 0.001474109049844241 -0.21449000000000007
v 0.3745504181827416 -0.0593467968504402 -0.18245625
v 0.3534180900852434 -0.11643196923736832 -0.13256187499999994
v 0.3509600101371437 -0.16419261288913722 -0.06969187499999996
v 0.6732102254690272 0.18605637932730423 -0.05530812500000004
v 0.6128206547052667 0.19622722649119606 -0.10520187499999989
v 0.5457131275784954 0.18511725313354088 -0.1447981250000001
v 0.47845710802767527 0.15381407787215062 -0.17022062500000001
v 0.417636202127391 0.10538079889477792 -0.17897999999999992
v 0.36920292315001835 0.044559892994493644 -0.17022062500000001
v 0.337899747888628 -0.02269612655632658 -0.1447981250000001
v 0.3267897745309728 -0.08980365368309773 -0.10520187499999989
v 0.3369606216948647 -0.15019322444685823 -0.05530812500000004
v 0.6630393783051353 0.19622722649119617 -0.03550999999999993
v 0.5934742131720027 0.2155736680244601 -0.06754375000000001
v 0.5190848120242249 0.21174556868781141 -0.09296624999999992
v 0.447153932766285 0.18511725313354088 -0.10928812499999996
v 0.38472170728837185 0.13829529373379712 -0.11491249999999997
v 0.3378997478886281 0.0758630682558839 -0.10928812499999996
v 0.3112714323343574 0.003932188997944008 -0.09296624999999992
v 0.3074433329977088 -0.07045721214983369 -0.06754375000000001
v 0.3267897745309727 -0.1400223772829663 -0.03550999999999993
v 0.6576918832724119 0.20157472152391953 -0.012235624999999972
v 0.5833029240663724 0.2257449571300904 -0.023273749999999982
v 0.5050854235819459 0.2257449571300904 -0.03203375000000008
v 0.4306964643759064 0.20157472152391948 -0.0376581250000001
v 0.3674174785275223 0.1555995224946466 -0.03959625
v 0.32144227949824944 0.0923205366462625 -0.0376581250000001
v 0.2972720438920784 0.017931577440223 -0.03203375000000008
v 0.2972720438920785 -0.06028592304420344 -0.023273749999999982
v 0.32144227949824933 -0.13467488225024293 -0.012235624999999972
v 0.6576918832724119 0.20157472152391953 0.012235624999999972
v 0.5833029240663724 0.2257449571300904 0.023273749999999982
v 0.5050854235819459 0.2257449571300904 0.03203374999999997
v 0.4306964643759064 0.20157472152391948 0.03765812499999999
v 0.3674174785275223 0.1555995224946466 0.03959625
v 0.32144227949824944 0.0923205366462625 0.03765812499999999
v 0.2972720438920784 0.017931577440223 0.03203374999999997
v 0.2972720438920785 -0.06028592304420344 0.023273749999999982
v 0.32144227949824933 -0.13467488225024293 0.012235624999999972
v 0.6630393783051353 0.19622722649119617 0.03551000000000004
v 0.5934742131720027 0.2155736680244601 0.06754375000000001
v 0.5190848120242249 0.21174556868781141 0.09296625000000003
v 0.447153932766285 0.18511725313354088 0.10928812499999996
v 0.38472170728837185 0.13829529373379712 0.11491249999999997
v 0.3378997478886281 0.0758630682558839 0.10928812499999996
v 0.3112714323343574 0.003932188997944008 0.09296625000000003
v 0.3074433329977088 -0.07045721214983369 0.06754375000000001
v 0.3267897745309727 -0.1400223772829663 0.03551000000000004
v 0.6732102254690272 0.18605637932730423 0.05530812500000004
v 0.6128206547052667 0.19622722649119606 0.105201875
v 0.5457131275784954 0.18511725313354088 0.144798125
v 0.47845710802767527 0.15381407787215062 0.17022062500000001
v 0.417636202127391 0.10538079889477792 0.17898000000000003
v 0.36920292315001835 0.044559892994493644 0.17022062500000001
v 0.337899747888628 -0.02269612655632658 0.144798125
v 0.3267897745309728 -0.08980365368309773 0.105201875
v 0.3369606216948647 -0.15019322444685823 0.05530812500000004
v 0.6872096139113062 0.17205699088502524 0.06969187499999996
v 0.6394489702595372 0.16959891093692558 0.13256187500000005
v 0.5823637978726091 0.14846658283942726 0.18245625
v 0.5215428919723246 0.11072829392750128 0.21448999999999996
v 0.4629387658310601 0.060078235191108886 0.22552812499999997
v 0.4122887070946677 0.001474109049844241 0.21448999999999996
v 0.3745504181827416 -0.0593467968504402 0.18245625
v 0.3534180900852434 -0.11643196923736832 0.13256187500000005
v 0.3509600101371437 -0.16419261288913722 0.06969187499999996
v 0.7036670823016848 0.1555995224946466 0.07725437499999999
v 0.6707525874626656 0.138295293733797 0.14694624999999994
v 0.6254495818172582 0.10538079889477803 0.202254375
v 0.5721929507087169 0.060078235191109 0.23776437500000003
v 0.5161953969396014 0.0068216040825674895 0.25
v 0.46293876583106 -0.04917594968654804 0.23776437500000003
v 0.4176362021273908 -0.10243258079508943 0.202254375
v 0.38472170728837185 -0.14773558644049678 0.14694624999999994
v 0.36741747852752227 -0.18065008127951587 0.07725437499999999
vt 0.375 0.23428749999999998
vt 0.399475 0.23428749999999998
vt 0.3872375 0.3125
vt 0.3860375 0.3125
vt 0.375 0.23428749999999998
vt 0.42155 0.23428749999999998
vt 0.4105125 0.3125
vt 0.38375625 0.3125
vt 0.375 0.23428749999999998
vt 0.4390625 0.23428749999999998
vt 0.43030625 0.3125
vt 0.380625 0.3125
vt 0.375 0.23428749999999998
vt 0.4503125 0.23428749999999998
vt 0.4446875 0.3125
vt 0.3769375 0.3125
vt 0.375 0.23428749999999998
vt 0.4541875 0.23428749999999998
vt 0.45225 0.3125
vt 0.375 0.3125
vt 0.3769375 0.23428749999999998
vt 0.45225 0.23428749999999998
vt 0.4541875 0.3125
vt 0.375 0.3125
vt 0.380625 0.23428749999999998
vt 0.4446875 0.23428749999999998
vt 0.4503125 0.3125
vt 0.375 0.3125
vt 0.38375625 0.23428749999999998
vt 0.43030625 0.23428749999999998
vt 0.4390625 0.3125
vt 0.375 0.3125
vt 0.3860375 0.23428749999999998
vt 0.4105125 0.23428749999999998
vt 0.42155 0.3125
vt 0.399475 0.3125
vt 0.375 0.3125
vt 0.3872375 0.23428749999999998
vt 0.375 0.23428749999999998
vt 0.399475 0.23428749999999998
vt 0.3872375 0.3125
vt 0.3860375 0.3125
vt 0.375 0.23428749999999998
vt 0.42155 0.23428749999999998
vt 0.4105125 0.3125
vt 0.38375625 0.3125
vt 0.375 0.23428749999999998
vt 0.4390625 0.23428749999999998
vt 0.43030625 0.3125
vt 0.380625 0.3125
vt 0.375 0.23428749999999998
vt 0.4503125 0.23428749999999998
vt 0.4446875 0.3125
vt 0.3769375 0.3125
vt 0.375 0.23428749999999998
vt 0.4541875 0.23428749999999998
vt 0.45225 0.3125
vt 0.375 0.3125
vt 0.3769375 0.23428749999999998
vt 0.45225 0.23428749999999998
vt 0.4541875 0.3125
vt 0.375 0.3125
vt 0.380625 0.23428749999999998
vt 0.4446875 0.23428749999999998
vt 0.4503125 0.3125
vt 0.375 0.3125
vt 0.38375625 0.23428749999999998
vt 0.43030625 0.23428749999999998
vt 0.4390625 0.3125
vt 0.375 0.3125
vt 0.3860375 0.23428749999999998
vt 0.4105125 0.23428749999999998
vt 0.42155 0.3125
vt 0.399475 0.3125
vt 0.375 0.3125
vt 0.3872375 0.23428749999999998
vt 0.375 0.23428749999999998
vt 0.399475 0.23428749999999998
vt 0.3872375 0.3125
vt 0.3860375 0.3125
vt 0.375 0.23428749999999998
vt 0.42155 0.23428749999999998
vt 0.4105125 0.3125
vt 0.38375625 0.3125
vt 0.375 0.23428749999999998
vt 0.4390625 0.23428749999999998
vt 0.43030625 0.3125
vt 0.380625 0.3125
vt 0.375 0.23428749999999998
vt 0.4503125 0.23428749999999998
vt 0.4446875 0.3125
vt 0.3769375 0.3125
vt 0.375 0.23428749999999998
vt 0.4541875 0.23428749999999998
vt 0.45225 0.3125
vt 0.375 0.3125
vt 0.3769375 0.23428749999999998
vt 0.45225 0.23428749999999998
vt 0.4541875 0.3125
vt 0.375 0.3125
vt 0.380625 0.23428749999999998
vt 0.4446875 0.23428749999999998
vt 0.4503125 0.3125
vt 0.375 0.3125
vt 0.38375625 0.23428749999999998
vt 0.43030625 0.23428749999999998
vt 0.4390625 0.3125
vt 0.375 0.3125
vt 0.3860375 0.23428749999999998
vt 0.4105125 0.23428749999999998
vt 0.42155 0.3125
vt 0.399475 0.3125
vt 0.375 0.3125
vt 0.3872375 0.23428749999999998
vt 0.375 0.23428749999999998
vt 0.399475 0.23428749999999998
vt 0.3872375 0.3125
vt 0.3860375 0.3125
vt 0.375 0.23428749999999998
vt 0.42155 0.23428749999999998
vt 0.4105125 0.3125
vt 0.38375625 0.3125
vt 0.375 0.23428749999999998
vt 0.4390625 0.23428749999999998
vt 0.43030625 0.3125
vt 0.380625 0.3125
vt 0.375 0.23428749999999998
vt 0.4503125 0.23428749999999998
vt 0.4446875 0.3125
vt 0.3769375 0.3125
vt 0.375 0.23428749999999998
vt 0.4541875 0.23428749999999998
vt 0.45225 0.3125
vt 0.375 0.3125
vt 0.3769375 0.23428749999999998
vt 0.45225 0.23428749999999998
vt 0.4541875 0.3125
vt 0.375 0.3125
vt 0.380625 0.23428749999999998
vt 0.4446875 0.23428749999999998
vt 0.4503125 0.3125
vt 0.375 0.3125
vt 0.38375625 0.23428749999999998
vt 0.43030625 0.23428749999999998
vt 0.4390625 0.3125
vt 0.375 0.3125
vt 0.3860375 0.23428749999999998
vt 0.4105125 0.23428749999999998
vt 0.42155 0.3125
vt 0.399475 0.3125
vt 0.375 0.3125
vt 0.3872375 0.23428749999999998
vt 0.375 0.23428749999999998
vt 0.399475 0.23428749999999998
vt 0.3872375 0.3125
vt 0.3860375 0.3125
vt 0.375 0.23428749999999998
vt 0.42155 0.23428749999999998
vt 0.4105125 0.3125
vt 0.38375625 0.3125
vt 0.375 0.23428749999999998
vt 0.4390625 0.23428749999999998
vt 0.43030625 0.3125
vt 0.380625 0.3125
vt 0.375 0.23428749999999998
vt 0.4503125 0.23428749999999998
vt 0.4446875 0.3125
vt 0.3769375 0.3125
vt 0.375 0.23428749999999998
vt 0.4541875 0.23428749999999998
vt 0.45225 0.3125
vt 0.375 0.3125
vt 0.3769375 0.23428749999999998
vt 0.45225 0.23428749999999998
vt 0.4541875 0.3125
vt 0.375 0.3125
vt 0.380625 0.23428749999999998
vt 0.4446875 0.23428749999999998
vt 0.4503125 0.3125
vt 0.375 0.3125
vt 0.38375625 0.23428749999999998
vt 0.43030625 0.23428749999999998
vt 0.4390625 0.3125
vt 0.375 0.3125
vt 0.3860375 0.23428749999999998
vt 0.4105125 0.23428749999999998
vt 0.42155 0.3125
vt 0.399475 0.3125
vt 0.375 0.3125
vt 0.3872375 0.23428749999999998
vt 0.375 0.23428749999999998
vt 0.399475 0.23428749999999998
vt 0.3872375 0.3125
vt 0.3860375 0.3125
vt 0.375 0.23428749999999998
vt 0.42155 0.23428749999999998
vt 0.4105125 0.3125
vt 0.38375625 0.3125
vt 0.375 0.23428749999999998
vt 0.4390625 0.23428749999999998
vt 0.43030625 0.3125
vt 0.380625 0.3125
vt 0.375 0.23428749999999998
vt 0.4503125 0.23428749999999998
vt 0.4446875 0.3125
vt 0.3769375 0.3125
vt 0.375 0.23428749999999998
vt 0.4541875 0.23428749999999998
vt 0.45225 0.3125
vt 0.375 0.3125
vt 0.3769375 0.23428749999999998
vt 0.45225 0.23428749999999998
vt 0.4541875 0.3125
vt 0.375 0.3125
vt 0.380625 0.23428749999999998
vt 0.4446875 0.23428749999999998
vt 0.4503125 0.3125
vt 0.375 0.3125
vt 0.38375625 0.23428749999999998
vt 0.43030625 0.23428749999999998
vt 0.4390625 0.3125
vt 0.375 0.3125
vt 0.3860375 0.23428749999999998
vt 0.4105125 0.23428749999999998
vt 0.42155 0.3125
vt 0.399475 0.3125
vt 0.375 0.3125
vt 0.3872375 0.23428749999999998
vt 0.375 0.23428749999999998
vt 0.399475 0.23428749999999998
vt 0.3872375 0.3125
vt 0.3860375 0.3125
vt 0.375 0.23428749999999998
vt 0.42155 0.23428749999999998
vt 0.4105125 0.3125
vt 0.38375625 0.3125
vt 0.375 0.23428749999999998
vt 0.4390625 0.23428749999999998
vt 0.43030625 0.3125
vt 0.380625 0.3125
vt 0.375 0.23428749999999998
vt 0.4503125 0.23428749999999998
vt 0.4446875 0.3125
vt 0.3769375 0.3125
vt 0.375 0.23428749999999998
vt 0.4541875 0.23428749999999998
vt 0.45225 0.3125
vt 0.375 0.3125
vt 0.3769375 0.23428749999999998
vt 0.45225 0.23428749999999998
vt 0.4541875 0.3125
vt 0.375 0.3125
vt 0.380625 0.23428749999999998
vt 0.4446875 0.23428749999999998
vt 0.4503125 0.3125
vt 0.375 0.3125
vt 0.38375625 0.23428749999999998
vt 0.43030625 0.23428749999999998
vt 0.4390625 0.3125
vt 0.375 0.3125
vt 0.3860375 0.23428749999999998
vt 0.4105125 0.23428749999999998
vt 0.42155 0.3125
vt 0.399475 0.3125
vt 0.375 0.3125
vt 0.3872375 0.23428749999999998
vt 0.375 0.23428749999999998
vt 0.399475 0.23428749999999998
vt 0.3872375 0.3125
vt 0.3860375 0.3125
vt 0.375 0.23428749999999998
vt 0.42155 0.23428749999999998
vt 0.4105125 0.3125
vt 0.38375625 0.3125
vt 0.375 0.23428749999999998
vt 0.4390625 0.23428749999999998
vt 0.43030625 0.3125
vt 0.380625 0.3125
vt 0.375 0.23428749999999998
vt 0.4503125 0.23428749999999998
vt 0.4446875 0.3125
vt 0.3769375 0.3125
vt 0.375 0.23428749999999998
vt 0.4541875 0.23428749999999998
vt 0.45225 0.3125
vt 0.375 0.3125
vt 0.3769375 0.23428749999999998
vt 0.45225 0.23428749999999998
vt 0.4541875 0.3125
vt 0.375 0.3125
vt 0.380625 0.23428749999999998
vt 0.4446875 0.23428749999999998
vt 0.4503125 0.3125
vt 0.375 0.3125
vt 0.38375625 0.23428749999999998
vt 0.43030625 0.23428749999999998
vt 0.4390625 0.3125
vt 0.375 0.3125
vt 0.3860375 0.23428749999999998
vt 0.4105125 0.23428749999999998
vt 0.42155 0.3125
vt 0.399475 0.3125
vt 0.375 0.3125
vt 0.3872375 0.23428749999999998
vt 0.375 0.23428749999999998
vt 0.399475 0.23428749999999998
vt 0.3872375 0.3125
vt 0.3860375 0.3125
vt 0.375 0.23428749999999998
vt 0.42155 0.23428749999999998
vt 0.4105125 0.3125
vt 0.38375625 0.3125
vt 0.375 0.23428749999999998
vt 0.4390625 0.23428749999999998
vt 0.43030625 0.3125
vt 0.380625 0.3125
vt 0.375 0.23428749999999998
vt 0.4503125 0.23428749999999998
vt 0.4446875 0.3125
vt 0.3769375 0.3125
vt 0.375 0.23428749999999998
vt 0.4541875 0.23428749999999998
vt 0.45225 0.3125
vt 0.375 0.3125
vt 0.3769375 0.23428749999999998
vt 0.45225 0.23428749999999998
vt 0.4541875 0.3125
vt 0.375 0.3125
vt 0.380625 0.23428749999999998
vt 0.4446875 0.23428749999999998
vt 0.4503125 0.3125
vt 0.375 0.3125
vt 0.38375625 0.23428749999999998
vt 0.43030625 0.23428749999999998
vt 0.4390625 0.3125
vt 0.375 0.3125
vt 0.3860375 0.23428749999999998
vt 0.4105125 0.23428749999999998
vt 0.42155 0.3125
vt 0.399475 0.3125
vt 0.375 0.3125
vt 0.3872375 0.23428749999999998
vt 0.375 0.23428749999999998
vt 0.399475 0.23428749999999998
vt 0.3872375 0.3125
vt 0.3860375 0.3125
vt 0.375 0.23428749999999998
vt 0.42155 0.23428749999999998
vt 0.4105125 0.3125
vt 0.38375625 0.3125
vt 0.375 0.23428749999999998
vt 0.4390625 0.23428749999999998
vt 0.43030625 0.3125
vt 0.380625 0.3125
vt 0.375 0.23428749999999998
vt 0.4503125 0.23428749999999998
vt 0.4446875 0.3125
vt 0.3769375 0.3125
vt 0.375 0.23428749999999998
vt 0.4541875 0.23428749999999998
vt 0.45225 0.3125
vt 0.375 0.3125
vt 0.3769375 0.23428749999999998
vt 0.45225 0.23428749999999998
vt 0.4541875 0.3125
vt 0.375 0.3125
vt 0.380625 0.23428749999999998
vt 0.4446875 0.23428749999999998
vt 0.4503125 0.3125
vt 0.375 0.3125
vt 0.38375625 0.23428749999999998
vt 0.43030625 0.23428749999999998
vt 0.4390625 0.3125
vt 0.375 0.3125
vt 0.3860375 0.23428749999999998
vt 0.4105125 0.23428749999999998
vt 0.42155 0.3125
vt 0.399475 0.3125
vt 0.375 0.3125
vt 0.3872375 0.23428749999999998
vt 0.375 0.23428749999999998
vt 0.399475 0.23428749999999998
vt 0.3872375 0.3125
vt 0.3860375 0.3125
vt 0.375 0.23428749999999998
vt 0.42155 0.23428749999999998
vt 0.4105125 0.3125
vt 0.38375625 0.3125
vt 0.375 0.23428749999999998
vt 0.4390625 0.23428749999999998
vt 0.43030625 0.3125
vt 0.380625 0.3125
vt 0.375 0.23428749999999998
vt 0.4503125 0.23428749999999998
vt 0.4446875 0.3125
vt 0.3769375 0.3125
vt 0.375 0.23428749999999998
vt 0.4541875 0.23428749999999998
vt 0.45225 0.3125
vt 0.375 0.3125
vt 0.3769375 0.23428749999999998
vt 0.45225 0.23428749999999998
vt 0.4541875 0.3125
vt 0.375 0.3125
vt 0.380625 0.23428749999999998
vt 0.4446875 0.23428749999999998
vt 0.4503125 0.3125
vt 0.375 0.3125
vt 0.38375625 0.23428749999999998
vt 0.43030625 0.23428749999999998
vt 0.4390625 0.3125
vt 0.375 0.3125
vt 0.3860375 0.23428749999999998
vt 0.4105125 0.23428749999999998
vt 0.42155 0.3125
vt 0.399475 0.3125
vt 0.375 0.3125
vt 0.3872375 0.23428749999999998
vt 0.375 0.23428749999999998
vt 0.399475 0.23428749999999998
vt 0.3872375 0.3125
vt 0.3860375 0.3125
vt 0.375 0.23428749999999998
vt 0.42155 0.23428749999999998
vt 0.4105125 0.3125
vt 0.38375625 0.3125
vt 0.375 0.23428749999999998
vt 0.4390625 0.23428749999999998
vt 0.43030625 0.3125
vt 0.380625 0.3125
vt 0.375 0.23428749999999998
vt 0.4503125 0.23428749999999998
vt 0.4446875 0.3125
vt 0.3769375 0.3125
vt 0.375 0.23428749999999998
vt 0.4541875 0.23428749999999998
vt 0.45225 0.3125
vt 0.375 0.3125
vt 0.3769375 0.23428749999999998
vt 0.45225 0.23428749999999998
vt 0.4541875 0.3125
vt 0.375 0.3125
vt 0.380625 0.23428749999999998
vt 0.4446875 0.23428749999999998
vt 0.4503125 0.3125
vt 0.375 0.3125
vt 0.38375625 0.23428749999999998
vt 0.43030625 0.23428749999999998
vt 0.4390625 0.3125
vt 0.375 0.3125
vt 0.3860375 0.23428749999999998
vt 0.4105125 0.23428749999999998
vt 0.42155 0.3125
vt 0.399475 0.3125
vt 0.375 0.3125
vt 0.3872375 0.23428749999999998
vt 0.375 0.23428749999999998
vt 0.399475 0.23428749999999998
vt 0.3872375 0.3125
vt 0.3860375 0.3125
vt 0.375 0.23428749999999998
vt 0.42155 0.23428749999999998
vt 0.4105125 0.3125
vt 0.38375625 0.3125
vt 0.375 0.23428749999999998
vt 0.4390625 0.23428749999999998
vt 0.43030625 0.3125
vt 0.380625 0.3125
vt 0.375 0.23428749999999998
vt 0.4503125 0.23428749999999998
vt 0.4446875 0.3125
vt 0.3769375 0.3125
vt 0.375 0.23428749999999998
vt 0.4541875 0.23428749999999998
vt 0.45225 0.3125
vt 0.375 0.3125
vt 0.3769375 0.23428749999999998
vt 0.45225 0.23428749999999998
vt 0.4541875 0.3125
vt 0.375 0.3125
vt 0.380625 0.23428749999999998
vt 0.4446875 0.23428749999999998
vt 0.4503125 0.3125
vt 0.375 0.3125
vt 0.38375625 0.23428749999999998
vt 0.43030625 0.23428749999999998
vt 0.4390625 0.3125
vt 0.375 0.3125
vt 0.3860375 0.23428749999999998
vt 0.4105125 0.23428749999999998
vt 0.42155 0.3125
vt 0.399475 0.3125
vt 0.375 0.3125
vt 0.3872375 0.23428749999999998
vt 0.375 0.23428749999999998
vt 0.399475 0.23428749999999998
vt 0.3872375 0.3125
vt 0.3860375 0.3125
vt 0.375 0.23428749999999998
vt 0.42155 0.23428749999999998
vt 0.4105125 0.3125
vt 0.38375625 0.3125
vt 0.375 0.23428749999999998
vt 0.4390625 0.23428749999999998
vt 0.43030625 0.3125
vt 0.380625 0.3125
vt 0.375 0.23428749999999998
vt 0.4503125 0.23428749999999998
vt 0.4446875 0.3125
vt 0.3769375 0.3125
vt 0.375 0.23428749999999998
vt 0.4541875 0.23428749999999998
vt 0.45225 0.3125
vt 0.375 0.3125
vt 0.3769375 0.23428749999999998
vt 0.45225 0.23428749999999998
vt 0.4541875 0.3125
vt 0.375 0.3125
vt 0.380625 0.23428749999999998
vt 0.4446875 0.23428749999999998
vt 0.4503125 0.3125
vt 0.375 0.3125
vt 0.38375625 0.23428749999999998
vt 0.43030625 0.23428749999999998
vt 0.4390625 0.3125
vt 0.375 0.3125
vt 0.3860375 0.23428749999999998
vt 0.4105125 0.23428749999999998
vt 0.42155 0.3125
vt 0.399475 0.3125
vt 0.375 0.3125
vt 0.3872375 0.23428749999999998
vt 0.375 0.23428749999999998
vt 0.399475 0.23428749999999998
vt 0.3872375 0.3125
vt 0.3860375 0.3125
vt 0.375 0.23428749999999998
vt 0.42155 0.23428749999999998
vt 0.4105125 0.3125
vt 0.38375625 0.3125
vt 0.375 0.23428749999999998
vt 0.4390625 0.23428749999999998
vt 0.43030625 0.3125
vt 0.380625 0.3125
vt 0.375 0.23428749999999998
vt 0.4503125 0.23428749999999998
vt 0.4446875 0.3125
vt 0.3769375 0.3125
vt 0.375 0.23428749999999998
vt 0.4541875 0.23428749999999998
vt 0.45225 0.3125
vt 0.375 0.3125
vt 0.3769375 0.23428749999999998
vt 0.45225 0.23428749999999998
vt 0.4541875 0.3125
vt 0.375 0.3125
vt 0.380625 0.23428749999999998
vt 0.4446875 0.23428749999999998
vt 0.4503125 0.3125
vt 0.375 0.3125
vt 0.38375625 0.23428749999999998
vt 0.43030625 0.23428749999999998
vt 0.4390625 0.3125
vt 0.375 0.3125
vt 0.3860375 0.23428749999999998
vt 0.4105125 0.23428749999999998
vt 0.42155 0.3125
vt 0.399475 0.3125
vt 0.375 0.3125
vt 0.3872375 0.23428749999999998
vt 0.375 0.23428749999999998
vt 0.399475 0.23428749999999998
vt 0.3872375 0.3125
vt 0.3860375 0.3125
vt 0.375 0.23428749999999998
vt 0.42155 0.23428749999999998
vt 0.4105125 0.3125
vt 0.38375625 0.3125
vt 0.375 0.23428749999999998
vt 0.4390625 0.23428749999999998
vt 0.43030625 0.3125
vt 0.380625 0.3125
vt 0.375 0.23428749999999998
vt 0.4503125 0.23428749999999998
vt 0.4446875 0.3125
vt 0.3769375 0.3125
vt 0.375 0.23428749999999998
vt 0.4541875 0.23428749999999998
vt 0.45225 0.3125
vt 0.375 0.3125
vt 0.3769375 0.23428749999999998
vt 0.45225 0.23428749999999998
vt 0.4541875 0.3125
vt 0.375 0.3125
vt 0.380625 0.23428749999999998
vt 0.4446875 0.23428749999999998
vt 0.4503125 0.3125
vt 0.375 0.3125
vt 0.38375625 0.23428749999999998
vt 0.43030625 0.23428749999999998
vt 0.4390625 0.3125
vt 0.375 0.3125
vt 0.3860375 0.23428749999999998
vt 0.4105125 0.23428749999999998
vt 0.42155 0.3125
vt 0.399475 0.3125
vt 0.375 0.3125
vt 0.3872375 0.23428749999999998
vt 0.375 0.23428749999999998
vt 0.399475 0.23428749999999998
vt 0.3872375 0.3125
vt 0.3860375 0.3125
vt 0.375 0.23428749999999998
vt 0.42155 0.23428749999999998
vt 0.4105125 0.3125
vt 0.38375625 0.3125
vt 0.375 0.23428749999999998
vt 0.4390625 0.23428749999999998
vt 0.43030625 0.3125
vt 0.380625 0.3125
vt 0.375 0.23428749999999998
vt 0.4503125 0.23428749999999998
vt 0.4446875 0.3125
vt 0.3769375 0.3125
vt 0.375 0.23428749999999998
vt 0.4541875 0.23428749999999998
vt 0.45225 0.3125
vt 0.375 0.3125
vt 0.3769375 0.23428749999999998
vt 0.45225 0.23428749999999998
vt 0.4541875 0.3125
vt 0.375 0.3125
vt 0.380625 0.23428749999999998
vt 0.4446875 0.23428749999999998
vt 0.4503125 0.3125
vt 0.375 0.3125
vt 0.38375625 0.23428749999999998
vt 0.43030625 0.23428749999999998
vt 0.4390625 0.3125
vt 0.375 0.3125
vt 0.3860375 0.23428749999999998
vt 0.4105125 0.23428749999999998
vt 0.42155 0.3125
vt 0.399475 0.3125
vt 0.375 0.3125
vt 0.3872375 0.23428749999999998
vt 0.375 0.23428749999999998
vt 0.399475 0.23428749999999998
vt 0.3872375 0.3125
vt 0.3860375 0.3125
vt 0.375 0.23428749999999998
vt 0.42155 0.23428749999999998
vt 0.4105125 0.3125
vt 0.38375625 0.3125
vt 0.375 0.23428749999999998
vt 0.4390625 0.23428749999999998
vt 0.43030625 0.3125
vt 0.380625 0.3125
vt 0.375 0.23428749999999998
vt 0.4503125 0.23428749999999998
vt 0.4446875 0.3125
vt 0.3769375 0.3125
vt 0.375 0.23428749999999998
vt 0.4541875 0.23428749999999998
vt 0.45225 0.3125
vt 0.375 0.3125
vt 0.3769375 0.23428749999999998
vt 0.45225 0.23428749999999998
vt 0.4541875 0.3125
vt 0.375 0.3125
vt 0.380625 0.23428749999999998
vt 0.4446875 0.23428749999999998
vt 0.4503125 0.3125
vt 0.375 0.3125
vt 0.38375625 0.23428749999999998
vt 0.43030625 0.23428749999999998
vt 0.4390625 0.3125
vt 0.375 0.3125
vt 0.3860375 0.23428749999999998
vt 0.4105125 0.23428749999999998
vt 0.42155 0.3125
vt 0.399475 0.3125
vt 0.375 0.3125
vt 0.3872375 0.23428749999999998
vt 0.375 0.23428749999999998
vt 0.399475 0.23428749999999998
vt 0.3872375 0.3125
vt 0.3860375 0.3125
vt 0.375 0.23428749999999998
vt 0.42155 0.23428749999999998
vt 0.4105125 0.3125
vt 0.38375625 0.3125
vt 0.375 0.23428749999999998
vt 0.4390625 0.23428749999999998
vt 0.43030625 0.3125
vt 0.380625 0.3125
vt 0.375 0.23428749999999998
vt 0.4503125 0.23428749999999998
vt 0.4446875 0.3125
vt 0.3769375 0.3125
vt 0.375 0.23428749999999998
vt 0.4541875 0.23428749999999998
vt 0.45225 0.3125
vt 0.375 0.3125
vt 0.3769375 0.23428749999999998
vt 0.45225 0.23428749999999998
vt 0.4541875 0.3125
vt 0.375 0.3125
vt 0.380625 0.23428749999999998
vt 0.4446875 0.23428749999999998
vt 0.4503125 0.3125
vt 0.375 0.3125
vt 0.38375625 0.23428749999999998
vt 0.43030625 0.23428749999999998
vt 0.4390625 0.3125
vt 0.375 0.3125
vt 0.3860375 0.23428749999999998
vt 0.4105125 0.23428749999999998
vt 0.42155 0.3125
vt 0.399475 0.3125
vt 0.375 0.3125
vt 0.3872375 0.23428749999999998
vt 0.375 0.23428749999999998
vt 0.399475 0.23428749999999998
vt 0.3872375 0.3125
vt 0.3860375 0.3125
vt 0.375 0.23428749999999998
vt 0.42155 0.23428749999999998
vt 0.4105125 0.3125
vt 0.38375625 0.3125
vt 0.375 0.23428749999999998
vt 0.4390625 0.23428749999999998
vt 0.43030625 0.3125
vt 0.380625 0.3125
vt 0.375 0.23428749999999998
vt 0.4503125 0.23428749999999998
vt 0.4446875 0.3125
vt 0.3769375 0.3125
vt 0.375 0.23428749999999998
vt 0.4541875 0.23428749999999998
vt 0.45225 0.3125
vt 0.375 0.3125
vt 0.3769375 0.23428749999999998
vt 0.45225 0.23428749999999998
vt 0.4541875 0.3125
vt 0.375 0.3125
vt 0.380625 0.23428749999999998
vt 0.4446875 0.23428749999999998
vt 0.4503125 0.3125
vt 0.375 0.3125
vt 0.38375625 0.23428749999999998
vt 0.43030625 0.23428749999999998
vt 0.4390625 0.3125
vt 0.375 0.3125
vt 0.3860375 0.23428749999999998
vt 0.4105125 0.23428749999999998
vt 0.42155 0.3125
vt 0.399475 0.3125
vt 0.375 0.3125
vt 0.3872375 0.23428749999999998
vn 0.7325837970508258 0.6642191147179078 0.14877482294378136
vn 0.7292381031397647 0.5308336948267928 0.4317723675336965
vn 0.6545082535747595 0.3454919482798579 0.6724985202038041
vn 0.5157160919272094 0.12632678353596324 0.8473951004630511
vn 0.32643305950943474 -0.10520501791000444 0.939347306306813
vn 0.10520710396397343 -0.32643504104133503 0.9393463840649282
vn -0.12633028540493252 -0.5157130277348282 0.8473964432389863
vn -0.345489660790961 -0.6545101975565669 0.6724978034023683
vn -0.530832347197378 -0.7292392869276034 0.4317720249972696
vn -0.6642191147179031 -0.7325837970508302 0.14877482294378028
vn 0.7634172437305985 0.6333857301264041 0.12655682062622442
vn 0.8187265131577308 0.44134554120748193 0.3672887282627375
vn 0.7938933899802996 0.2061087421614029 0.5720598497974074
vn 0.6913416732705255 -0.049304124212998963 0.7208438070311066
vn 0.5211282968187175 -0.2998955443541096 0.7990544166271625
vn 0.29988913982421195 -0.521122267314131 0.799060752586982
vn 0.04930866668114491 -0.6913455634153244 0.7208397653681958
vn -0.2061109799094222 -0.7938915313889624 0.5720616228603927
vn -0.441348648909988 -0.818723825933541 0.36729098403591814
vn -0.6333857301264094 -0.7634172437305928 0.12655682062623053
vn 0.787890672998717 0.6089123008582852 0.09194616503747223
vn 0.8897486515699646 0.37032247054073014 0.2668494047998605
vn 0.9045082727161354 0.09549184466642079 0.41562734774107163
vn 0.8307345025299445 -0.1886895225731731 0.5237140922081758
vn 0.6756268185730655 -0.4544086421467793 0.5805524851097948
vn 0.45441335792803095 -0.6756311593148057 0.5805437422791696
vn 0.18868606962311568 -0.830731701920309 0.5237197786553109
vn -0.09549009458508827 -0.9045096436302626 0.41562476636503054
vn -0.37031999752947625 -0.8897507040543136 0.2668459931582675
vn -0.608912300858286 -0.7878906729987166 0.09194616503747165
vn 0.8036011420577414 0.5932017697109919 0.04834113047127758
vn 0.9353449106169682 0.32472725058338775 0.1402929467631561
vn 0.9755284095675583 0.024473617589970176 0.218507126127846
vn 0.9202189747291858 -0.278181085114232 0.275340375595434
vn 0.7748345962471359 -0.5536024921750302 0.3052140709668109
vn 0.5536017720372585 -0.7748339806475476 0.3052169399477742
vn 0.27818246552489406 -0.9202199174750287 0.27533583013611257
vn -0.024474622888808955 -0.975527747772086 0.21850996810482634
vn -0.32472788051031926 -0.9353444445178315 0.1402945962213279
vn -0.5932017697109916 -0.8036011420577418 0.04834113047127395
vn 0.809015020444794 0.5877879691646554 0
vn 0.9510572768722481 0.3090146535495432 0
vn 1 0 0
vn 0.9510572768722473 -0.3090146535495454 0
vn 0.8090150204447948 -0.5877879691646541 0
vn 0.5877879691646544 -0.8090150204447948 0
vn 0.30901465354954627 -0.9510572768722472 0
vn -2.8388097746647117e-15 -1 0
vn -0.3090146535495428 -0.9510572768722482 0
vn -0.5877879691646554 -0.809015020444794 0
vn 0.8036011420577414 0.5932017697109919 -0.04834113047127779
vn 0.9353450679953261 0.32472672997123053 -0.14029310253540697
vn 0.9755283649013371 0.02447183695328099 -0.21850752497123757
vn 0.920220259613265 -0.27817738415009413 -0.2753398204849891
vn 0.7748328709785806 -0.5536048293791482 -0.305214211561609
vn 0.5536042295166925 -0.7748321665940554 -0.3052170877791596
vn 0.27817811479776877 -0.9202214279375286 -0.2753351775784839
vn -0.0244721720548927 -0.9755276862926368 -0.21851051707286476
vn -0.32472689026027246 -0.9353447438647084 -0.1402948925177121
vn -0.5932017697109916 -0.8036011420577419 -0.048341130471274175
vn 0.7878906729987173 0.6089123008582851 -0.09194616503747198
vn 0.8897483775905706 0.37032367677464323 -0.2668486443567909
vn 0.9045084651071562 0.09549366703454656 -0.415626510350088
vn 0.8307323186567858 -0.18869476959925957 -0.5237156658579186
vn 0.6756331727664311 -0.4544004203018225 -0.580551525609134
vn 0.4544047129893214 -0.67563784047924 -0.5805427334190324
vn 0.18869223787368117 -0.8307291346078615 -0.5237216286157141
vn -0.0954926028680276 -0.9045099084303566 -0.4156236138007526
vn -0.37032229194128724 -0.889750182902241 -0.26684454672483177
vn -0.6089123008582857 -0.7878906729987166 -0.09194616503747129
vn 0.7634172437305983 0.6333857301264041 -0.12655682062622445
vn 0.818726584744923 0.4413445373657717 -0.36728977493160325
vn 0.7938929747255683 0.20610714265698926 -0.572061002365272
vn 0.6913442759817439 -0.04929929602497365 -0.7208416410548996
vn 0.5211216872689814 -0.29990351084269706 -0.7990557372562658
vn 0.29989751624763 -0.5211153176344032 -0.7990621411850882
vn 0.049302990780091115 -0.6913486230772826 -0.7208372191204361
vn -0.20610877838188926 -0.7938909598334633 -0.5720632092423247
vn -0.44134673949722675 -0.8187239620865623 -0.36729297494023544
vn -0.6333857301264094 -0.7634172437305928 -0.12655682062623053
vn 0.7325837970508262 0.6642191147179073 -0.14877482294378103
vn 0.7292381746090504 0.5308339865913042 -0.4317718881220074
vn 0.6545088842013499 0.3454931429561795 -0.6724972926873127
vn 0.5157139915254603 0.1263238980894958 -0.8473968088896444
vn 0.3264349913302359 -0.10520288725813119 -0.9393468736030273
vn 0.10520486366493417 -0.32643707227522295 -0.9393459290940818
vn -0.12632689338219438 -0.5157105585679419 -0.8473984516093626
vn -0.34549130512666615 -0.6545110655342303 -0.6724961138736189
vn -0.5308329021621436 -0.7292394228660075 -0.4317711131145397
vn -0.6642191147179027 -0.7325837970508305 -0.14877482294378003
vn 0.6984014948047246 0.6984014948047246 -0.1564311481420901
vn 0.6300359652108949 0.630035965210897 -0.45399269276228393
vn 0.49999999999999983 0.49999999999999983 -0.7071067811865478
vn 0.32102131166135095 0.32102131166135095 -0.8910054067840731
vn 0.11061352564006938 0.11061352564006963 -0.9876888659344842
vn -0.11061352564006936 -0.11061352564006938 -0.9876888659344841
vn -0.32102131166135023 -0.32102131166135023 -0.8910054067840736
vn -0.5000000000000008 -0.5000000000000007 -0.7071067811865466
vn -0.630035965210896 -0.630035965210896 -0.4539926927622838
vn -0.6984014948047246 -0.6984014948047246 -0.1564311481420901
vn 0.6642191147179052 0.7325837970508284 -0.14877482294378058
vn 0.530833694826792 0.7292381031397648 -0.431772367533697
vn 0.3454919482798577 0.6545082535747607 -0.6724985202038031
vn 0.12632678353596327 0.5157160919272078 -0.8473951004630518
vn -0.10520501791000367 0.32643305950943335 -0.9393473063068135
vn -0.3264350410413341 0.1052071039639726 -0.9393463840649287
vn -0.5157130277348285 -0.1263302854049311 -0.8473964432389864
vn -0.6545101975565697 -0.3454896607909576 -0.6724978034023674
vn -0.7292392869276035 -0.5308323471973779 -0.4317720249972695
vn -0.7325837970508294 -0.664219114717904 -0.14877482294378028
vn 0.6333857301264079 0.7634172437305948 -0.1265568206262281
vn 0.4413455412074825 0.8187265131577308 -0.3672887282627371
vn 0.20610874216140512 0.7938933899802987 -0.5720598497974082
vn -0.04930412421299877 0.6913416732705265 -0.7208438070311055
vn -0.2998955443541122 0.5211282968187194 -0.7990544166271603
vn -0.5211222673141318 0.2998891398242138 -0.7990607525869807
vn -0.6913455634153235 0.04930866668114255 -0.7208397653681968
vn -0.7938915313889626 -0.20611097990942367 -0.5720616228603917
vn -0.8187238259335433 -0.44134864890998426 -0.3672909840359178
vn -0.7634172437305948 -0.6333857301264074 -0.12655682062622847
vn 0.6089123008582857 0.7878906729987166 -0.09194616503747129
vn 0.3703224705407292 0.8897486515699649 -0.26684940479986097
vn 0.09549184466642195 0.9045082727161372 -0.41562734774106724
vn -0.18868952257317423 0.8307345025299434 -0.5237140922081773
vn -0.4544086421467809 0.675626818573062 -0.5805524851097976
vn -0.6756311593148037 0.4544133579280321 -0.5805437422791712
vn -0.8307317019203091 0.18868606962312012 -0.5237197786553092
vn -0.9045096436302631 -0.09549009458509142 -0.415624766365029
vn -0.8897507040543134 -0.3703199975294764 -0.2668459931582684
vn -0.787890672998716 -0.6089123008582864 -0.09194616503747292
vn 0.5932017697109916 0.8036011420577419 -0.048341130471274175
vn 0.3247272505833876 0.9353449106169678 -0.14029294676315873
vn 0.02447361758997132 0.9755284095675577 -0.21850712612784817
vn -0.27818108511422995 0.9202189747291867 -0.2753403755954332
vn -0.5536024921750318 0.774834596247135 -0.30521407096681036
vn -0.7748339806475468 0.5536017720372597 -0.30521693994777443
vn -0.9202199174750287 0.2781824655248931 -0.2753358301361138
vn -0.9755277477720848 -0.02447462288881258 -0.2185099681048313
vn -0.9353444445178318 -0.32472788051031787 -0.14029459622132892
vn -0.8036011420577419 -0.5932017697109916 -0.048341130471274175
vn 0.5877879691646554 0.809015020444794 0
vn 0.30901465354954466 0.9510572768722475 0
vn 0 1 0
vn -0.3090146535495456 0.9510572768722474 0
vn -0.5877879691646555 0.8090150204447939 0
vn -0.8090150204447939 0.5877879691646556 0
vn -0.9510572768722468 0.30901465354954666 0
vn -1 -1.4194048873323539e-15 0
vn -0.9510572768722477 -0.30901465354954405 0
vn -0.809015020444794 -0.5877879691646554 0
vn 0.5932017697109916 0.8036011420577418 0.04834113047127395
vn 0.3247267299712322 0.9353450679953252 0.14029310253540908
vn 0.02447183695328078 0.9755283649013368 0.21850752497123854
vn -0.2781773841500946 0.9202202596132654 0.275339820484988
vn -0.5536048293791493 0.77483287097858 0.30521421156160833
vn -0.7748321665940551 0.5536042295166933 0.30521708777915885
vn -0.9202214279375286 0.2781781147977692 0.27533517757848347
vn -0.9755276862926355 -0.024472172054891647 0.2185105170728708
vn -0.9353447438647081 -0.3247268902602736 0.14029489251771118
vn -0.8036011420577418 -0.5932017697109916 0.04834113047127395
vn 0.608912300858286 0.7878906729987166 0.09194616503747165
vn 0.37032367677464145 0.8897483775905716 0.26684864435679045
vn 0.09549366703454727 0.9045084651071568 0.41562651035008685
vn -0.1886947695992582 0.8307323186567858 0.5237156658579193
vn -0.4544004203018231 0.6756331727664295 0.5805515256091353
vn -0.6756378404792385 0.45440471298932167 0.5805427334190338
vn -0.830729134607861 0.18869223787368158 0.5237216286157148
vn -0.9045099084303578 -0.09549260286802916 0.4156236138007495
vn -0.8897501829022401 -0.3703222919412863 0.2668445467248357
vn -0.787890672998716 -0.6089123008582866 0.09194616503747322
vn 0.6333857301264079 0.7634172437305948 0.12655682062622808
vn 0.4413445373657716 0.8187265847449228 0.3672897749316033
vn 0.20610714265698943 0.7938929747255681 0.5720610023652722
vn -0.04929929602497309 0.6913442759817433 0.7208416410549
vn -0.29990351084269745 0.5211216872689804 0.7990557372562661
vn -0.5211153176344031 0.2998975162476298 0.7990621411850882
vn -0.6913486230772823 0.04930299078009193 0.7208372191204364
vn -0.7938909598334631 -0.20610877838188965 0.5720632092423246
vn -0.8187239620865643 -0.4413467394972254 0.3672929749402325
vn -0.7634172437305948 -0.6333857301264074 0.1265568206262285
vn 0.6642191147179055 0.7325837970508279 0.14877482294378083
vn 0.5308339865913074 0.7292381746090479 0.4317718881220076
vn 0.3454931429561796 0.6545088842013486 0.6724972926873137
vn 0.12632389808949412 0.5157139915254605 0.8473968088896445
vn -0.10520288725813197 0.32643499133023646 0.939346873603027
vn -0.3264370722752236 0.10520486366493544 0.9393459290940814
vn -0.51571055856794 -0.1263268933821946 0.8473984516093636
vn -0.6545110655342288 -0.34549130512666715 0.6724961138736198
vn -0.729239422866005 -0.5308329021621455 0.43177111311454175
vn -0.7325837970508291 -0.6642191147179044 0.1487748229437806
vn 0.6984014948047246 0.6984014948047246 0.15643114814209033
vn 0.6300359652108948 0.6300359652108969 0.4539926927622844
vn 0.5000000000000002 0.5000000000000002 0.7071067811865472
vn 0.3210213116613518 0.3210213116613517 0.8910054067840725
vn 0.11061352564006928 0.1106135256400695 0.9876888659344842
vn -0.11061352564006949 -0.11061352564006949 0.9876888659344842
vn -0.3210213116613511 -0.32102131166135106 0.8910054067840731
vn -0.500000000000001 -0.5000000000000008 0.7071067811865465
vn -0.630035965210896 -0.630035965210896 0.4539926927622838
vn -0.6984014948047246 -0.6984014948047246 0.15643114814209033
usemtl m_2adc4aa4-9c68-a8ca-af4d-73c6f663bee6
f 1/1/1 2/2/1 3/3/1
f 1/4/2 4/5/2 5/6/2 2/7/2
f 4/8/3 6/9/3 7/10/3 5/11/3
f 6/12/4 8/13/4 9/14/4 7/15/4
f 8/16/5 10/17/5 11/18/5 9/19/5
f 10/20/6 12/21/6 13/22/6 11/23/6
f 12/24/7 14/25/7 15/26/7 13/27/7
f 14/28/8 16/29/8 17/30/8 15/31/8
f 16/32/9 18/33/9 19/34/9 17/35/9
f 19/36/10 18/37/10 20/38/10
f 2/39/11 21/40/11 3/41/11
f 2/42/12 5/43/12 22/44/12 21/45/12
f 5/46/13 7/47/13 23/48/13 22/49/13
f 7/50/14 9/51/14 24/52/14 23/53/14
f 9/54/15 11/55/15 25/56/15 24/57/15
f 11/58/16 13/59/16 26/60/16 25/61/16
f 13/62/17 15/63/17 27/64/17 26/65/17
f 15/66/18 17/67/18 28/68/18 27/69/18
f 17/70/19 19/71/19 29/72/19 28/73/19
f 29/74/20 19/75/20 20/76/20
f 21/77/21 30/78/21 3/79/21
f 21/80/22 22/81/22 31/82/22 30/83/22
f 22/84/23 23/85/23 32/86/23 31/87/23
f 23/88/24 24/89/24 33/90/24 32/91/24
f 24/92/25 25/93/25 34/94/25 33/95/25
f 25/96/26 26/97/26 35/98/26 34/99/26
f 26/100/27 27/101/27 36/102/27 35/103/27
f 27/104/28 28/105/28 37/106/28 36/107/28
f 28/108/29 29/109/29 38/110/29 37/111/29
f 38/112/30 29/113/30 20/114/30
f 30/115/31 39/116/31 3/117/31
f 30/118/32 31/119/32 40/120/32 39/121/32
f 31/122/33 32/123/33 41/124/33 40/125/33
f 32/126/34 33/127/34 42/128/34 41/129/34
f 33/130/35 34/131/35 43/132/35 42/133/35
f 34/134/36 35/135/36 44/136/36 43/137/36
f 35/138/37 36/139/37 45/140/37 44/141/37
f 36/142/38 37/143/38 46/144/38 45/145/38
f 37/146/39 38/147/39 47/148/39 46/149/39
f 47/150/40 38/151/40 20/152/40
f 39/153/41 48/154/41 3/155/41
f 39/156/42 40/157/42 49/158/42 48/159/42
f 40/160/43 41/161/43 50/162/43 49/163/43
f 41/164/44 42/165/44 51/166/44 50/167/44
f 42/168/45 43/169/45 52/170/45 51/171/45
f 43/172/46 44/173/46 53/174/46 52/175/46
f 44/176/47 45/177/47 54/178/47 53/179/47
f 45/180/48 46/181/48 55/182/48 54/183/48
f 46/184/49 47/185/49 56/186/49 55/187/49
f 56/188/50 47/189/50 20/190/50
f 48/191/51 57/192/51 3/193/51
f 48/194/52 49/195/52 58/196/52 57/197/52
f 49/198/53 50/199/53 59/200/53 58/201/53
f 50/202/54 51/203/54 60/204/54 59/205/54
f 51/206/55 52/207/55 61/208/55 60/209/55
f 52/210/56 53/211/56 62/212/56 61/213/56
f 53/214/57 54/215/57 63/216/57 62/217/57
f 54/218/58 55/219/58 64/220/58 63/221/58
f 55/222/59 56/223/59 65/224/59 64/225/59
f 65/226/60 56/227/60 20/228/60
f 57/229/61 66/230/61 3/231/61
f 57/232/62 58/233/62 67/234/62 66/235/62
f 58/236/63 59/237/63 68/238/63 67/239/63
f 59/240/64 60/241/64 69/242/64 68/243/64
f 60/244/65 61/245/65 70/246/65 69/247/65
f 61/248/66 62/249/66 71/250/66 70/251/66
f 62/252/67 63/253/67 72/254/67 71/255/67
f 63/256/68 64/257/68 73/258/68 72/259/68
f 64/260/69 65/261/69 74/262/69 73/263/69
f 74/264/70 65/265/70 20/266/70
f 66/267/71 75/268/71 3/269/71
f 66/270/72 67/271/72 76/272/72 75/273/72
f 67/274/73 68/275/73 77/276/73 76/277/73
f 68/278/74 69/279/74 78/280/74 77/281/74
f 69/282/75 70/283/75 79/284/75 78/285/75
f 70/286/76 71/287/76 80/288/76 79/289/76
f 71/290/77 72/291/77 81/292/77 80/293/77
f 72/294/78 73/295/78 82/296/78 81/297/78
f 73/298/79 74/299/79 83/300/79 82/301/79
f 83/302/80 74/303/80 20/304/80
f 75/305/81 84/306/81 3/307/81
f 75/308/82 76/309/82 85/310/82 84/311/82
f 76/312/83 77/313/83 86/314/83 85/315/83
f 77/316/84 78/317/84 87/318/84 86/319/84
f 78/320/85 79/321/85 88/322/85 87/323/85
f 79/324/86 80/325/86 89/326/86 88/327/86
f 80/328/87 81/329/87 90/330/87 89/331/87
f 81/332/88 82/333/88 91/334/88 90/335/88
f 82/336/89 83/337/89 92/338/89 91/339/89
f 92/340/90 83/341/90 20/342/90
f 84/343/91 93/344/91 3/345/91
f 84/346/92 85/347/92 94/348/92 93/349/92
f 85/350/93 86/351/93 95/352/93 94/353/93
f 86/354/94 87/355/94 96/356/94 95/357/94
f 87/358/95 88/359/95 97/360/95 96/361/95
f 88/362/96 89/363/96 98/364/96 97/365/96
f 89/366/97 90/367/97 99/368/97 98/369/97
f 90/370/98 91/371/98 100/372/98 99/373/98
f 91/374/99 92/375/99 101/376/99 100/377/99
f 101/378/100 92/379/100 20/380/100
f 93/381/101 102/382/101 3/383/101
f 93/384/102 94/385/102 103/386/102 102/387/102
f 94/388/103 95/389/103 104/390/103 103/391/103
f 95/392/104 96/393/104 105/394/104 104/395/104
f 96/396/105 97/397/105 106/398/105 105/399/105
f 97/400/106 98/401/106 107/402/106 106/403/106
f 98/404/107 99/405/107 108/406/107 107/407/107
f 99/408/108 100/409/108 109/410/108 108/411/108
f 100/412/109 101/413/109 110/414/109 109/415/109
f 110/416/110 101/417/110 20/418/110
f 102/419/111 111/420/111 3/421/111
f 102/422/112 103/423/112 112/424/112 111/425/112
f 103/426/113 104/427/113 113/428/113 112/429/113
f 104/430/114 105/431/114 114/432/114 113/433/114
f 105/434/115 106/435/115 115/436/115 114/437/115
f 106/438/116 107/439/116 116/440/116 115/441/116
f 107/442/117 108/443/117 117/444/117 116/445/117
f 108/446/118 109/447/118 118/448/118 117/449/118
f 109/450/119 110/451/119 119/452/119 118/453/119
f 119/454/120 110/455/120 20/456/120
f 111/457/121 120/458/121 3/459/121
f 111/460/122 112/461/122 121/462/122 120/463/122
f 112/464/123 113/465/123 122/466/123 121/467/123
f 113/468/124 114/469/124 123/470/124 122/471/124
f 114/472/125 115/473/125 124/474/125 123/475/125
f 115/476/126 116/477/126 125/478/126 124/479/126
f 116/480/127 117/481/127 126/482/127 125/483/127
f 117/484/128 118/485/128 127/486/128 126/487/128
f 118/488/129 119/489/129 128/490/129 127/491/129
f 128/492/130 119/493/130 20/494/130
f 120/495/131 129/496/131 3/497/131
f 120/498/132 121/499/132 130/500/132 129/501/132
f 121/502/133 122/503/133 131/504/133 130/505/133
f 122/506/134 123/507/134 132/508/134 131/509/134
f 123/510/135 124/511/135 133/512/135 132/513/135
f 124/514/136 125/515/136 134/516/136 133/517/136
f 125/518/137 126/519/137 135/520/137 134/521/137
f 126/522/138 127/523/138 136/524/138 135/525/138
f 127/526/139 128/527/139 137/528/139 136/529/139
f 137/530/140 128/531/140 20/532/140
f 129/533/141 138/534/141 3/535/141
f 129/536/142 130/537/142 139/538/142 138/539/142
f 130/540/143 131/541/143 140/542/143 139/543/143
f 131/544/144 132/545/144 141/546/144 140/547/144
f 132/548/145 133/549/145 142/550/145 141/551/145
f 133/552/146 134/553/146 143/554/146 142/555/146
f 134/556/147 135/557/147 144/558/147 143/559/147
f 135/560/148 136/561/148 145/562/148 144/563/148
f 136/564/149 137/565/149 146/566/149 145/567/149
f 146/568/150 137/569/150 20/570/150
f 138/571/151 147/572/151 3/573/151
f 138/574/152 139/575/152 148/576/152 147/577/152
f 139/578/153 140/579/153 149/580/153 148/581/153
f 140/582/154 141/583/154 150/584/154 149/585/154
f 141/586/155 142/587/155 151/588/155 150/589/155
f 142/590/156 143/591/156 152/592/156 151/593/156
f 143/594/157 144/595/157 153/596/157 152/597/157
f 144/598/158 145/599/158 154/600/158 153/601/158
f 145/602/159 146/603/159 155/604/159 154/605/159
f 155/606/160 146/607/160 20/608/160
f 147/609/161 156/610/161 3/611/161
f 147/612/162 148/613/162 157/614/162 156/615/162
f 148/616/163 149/617/163 158/618/163 157/619/163
f 149/620/164 150/621/164 159/622/164 158/623/164
f 150/624/165 151/625/165 160/626/165 159/627/165
f 151/628/166 152/629/166 161/630/166 160/631/166
f 152/632/167 153/633/167 162/634/167 161/635/167
f 153/636/168 154/637/168 163/638/168 162/639/168
f 154/640/169 155/641/169 164/642/169 163/643/169
f 164/644/170 155/645/170 20/646/170
f 156/647/171 165/648/171 3/649/171
f 156/650/172 157/651/172 166/652/172 165/653/172
f 157/654/173 158/655/173 167/656/173 166/657/173
f 158/658/174 159/659/174 168/660/174 167/661/174
f 159/662/175 160/663/175 169/664/175 168/665/175
f 160/666/176 161/667/176 170/668/176 169/669/176
f 161/670/177 162/671/177 171/672/177 170/673/177
f 162/674/178 163/675/178 172/676/178 171/677/178
f 163/678/179 164/679/179 173/680/179 172/681/179
f 173/682/180 164/683/180 20/684/180
f 165/685/181 174/686/181 3/687/181
f 165/688/182 166/689/182 175/690/182 174/691/182
f 166/692/183 167/693/183 176/694/183 175/695/183
f 167/696/184 168/697/184 177/698/184 176/699/184
f 168/700/185 169/701/185 178/702/185 177/703/185
f 169/704/186 170/705/186 179/706/186 178/707/186
f 170/708/187 171/709/187 180/710/187 179/711/187
f 171/712/188 172/713/188 181/714/188 180/715/188
f 172/716/189 173/717/189 182/718/189 181/719/189
f 182/720/190 173/721/190 20/722/190
f 174/723/191 1/724/191 3/725/191
f 174/726/192 175/727/192 4/728/192 1/729/192
f 175/730/193 176/731/193 6/732/193 4/733/193
f 176/734/194 177/735/194 8/736/194 6/737/194
f 177/738/195 178/739/195 10/740/195 8/741/195
f 178/742/196 179/743/196 12/744/196 10/745/196
f 179/746/197 180/747/197 14/748/197 12/749/197
f 180/750/198 181/751/198 16/752/198 14/753/198
f 181/754/199 182/755/199 18/756/199 16/757/199
f 18/758/200 182/759/200 20/760/200