# Made in Blockbench 5.1.6
mtllib dc_metro_signal_light_1r.mtl

o pole
v 7.806255641895632e-19 0 7.806255641895632e-19
v 7.806255641895632e-19 0.15625 7.806255641895632e-19
v 0.018840177592813312 0 0.0703125
v 0.018840177592813312 0.15625 0.0703125
v 0.051472322407186674 0 0.051472322407186695
v 0.051472322407186674 0.15625 0.051472322407186695
v 0.0703125 0 0.018840177592813312
v 0.0703125 0.15625 0.018840177592813312
v 0.0703125 0 -0.01884017759281332
v 0.0703125 0.15625 -0.01884017759281332
v 0.051472322407186695 0 -0.05147232240718669
v 0.051472322407186695 0.15625 -0.05147232240718669
v 0.018840177592813336 0 -0.07031249999999999
v 0.018840177592813336 0.15625 -0.07031249999999999
v -0.01884017759281328 0 -0.0703125
v -0.01884017759281328 0.15625 -0.0703125
v -0.05147232240718669 0 -0.051472322407186695
v -0.05147232240718669 0.15625 -0.051472322407186695
v -0.07031249999999999 0 -0.0188401775928133
v -0.07031249999999999 0.15625 -0.0188401775928133
v -0.0703125 0 0.01884017759281328
v -0.0703125 0.15625 0.01884017759281328
v -0.051472322407186695 0 0.051472322407186674
v -0.051472322407186695 0.15625 0.051472322407186674
v -0.01884017759281331 0 0.0703125
v -0.01884017759281331 0.15625 0.0703125
vt 0.59214375 0.45933124999999997
vt 0.575825 0.46875
vt 0.56640625 0.43359375
vt 0.663715625 0.296875
vt 0.682553125 0.296875
vt 0.682553125 0.375
vt 0.663715625 0.375
vt 0.669575 0.9296875
vt 0.68589375 0.93910625
vt 0.66015625 0.96484375
vt 0.6015625 0.44301250000000003
vt 0.59214375 0.45933124999999997
vt 0.56640625 0.43359375
vt 0.626040625 0.609375
vt 0.644878125 0.609375
vt 0.644878125 0.6875
vt 0.626040625 0.6875
vt 0.68589375 0.93910625
vt 0.6953125 0.955425
vt 0.66015625 0.96484375
vt 0.6015625 0.42417499999999997
vt 0.6015625 0.44301250000000003
vt 0.56640625 0.43359375
vt 0.644878125 0.609375
vt 0.663715625 0.609375
vt 0.663715625 0.6875
vt 0.644878125 0.6875
vt 0.6953125 0.955425
vt 0.6953125 0.9742625
vt 0.66015625 0.96484375
vt 0.59214375 0.40785625000000003
vt 0.6015625 0.42417499999999997
vt 0.56640625 0.43359375
vt 0.663715625 0.609375
vt 0.682553125 0.609375
vt 0.682553125 0.6875
vt 0.663715625 0.6875
vt 0.6953125 0.9742625
vt 0.68589375 0.99058125
vt 0.66015625 0.96484375
vt 0.575825 0.3984375
vt 0.59214375 0.40785625000000003
vt 0.56640625 0.43359375
vt 0.094790625 0.265625
vt 0.113628125 0.265625
vt 0.113628125 0.34375
vt 0.094790625 0.34375
vt 0.68589375 0.99058125
vt 0.669575 1
vt 0.66015625 0.96484375
vt 0.5569875 0.3984375
vt 0.575825 0.3984375
vt 0.56640625 0.43359375
vt 0.113628125 0.265625
vt 0.132465625 0.265625
vt 0.132465625 0.34375
vt 0.113628125 0.34375
vt 0.669575 1
vt 0.6507375 1
vt 0.66015625 0.96484375
vt 0.54066875 0.40785625000000003
vt 0.5569875 0.3984375
vt 0.56640625 0.43359375
vt 0.132465625 0.265625
vt 0.15130312499999998 0.265625
vt 0.15130312499999998 0.34375
vt 0.132465625 0.34375
vt 0.6507375 1
vt 0.63441875 0.99058125
vt 0.66015625 0.96484375
vt 0.53125 0.42417499999999997
vt 0.54066875 0.40785625000000003
vt 0.56640625 0.43359375
vt 0.0010406249999999999 0.265625
vt 0.019878125 0.265625
vt 0.019878125 0.34375
vt 0.0010406249999999999 0.34375
vt 0.63441875 0.99058125
vt 0.625 0.9742625
vt 0.66015625 0.96484375
vt 0.53125 0.44301250000000003
vt 0.53125 0.42417499999999997
vt 0.56640625 0.43359375
vt 0.019878125 0.265625
vt 0.038715625000000004 0.265625
vt 0.038715625000000004 0.34375
vt 0.019878125 0.34375
vt 0.625 0.9742625
vt 0.625 0.955425
vt 0.66015625 0.96484375
vt 0.54066875 0.45933124999999997
vt 0.53125 0.44301250000000003
vt 0.56640625 0.43359375
vt 0.038715625000000004 0.265625
vt 0.057553125 0.265625
vt 0.057553125 0.34375
vt 0.038715625000000004 0.34375
vt 0.625 0.955425
vt 0.63441875 0.93910625
vt 0.66015625 0.96484375
vt 0.5569875 0.46875
vt 0.54066875 0.45933124999999997
vt 0.56640625 0.43359375
vt 0.626040625 0.296875
vt 0.644878125 0.296875
vt 0.644878125 0.375
vt 0.626040625 0.375
vt 0.63441875 0.93910625
vt 0.6507375 0.9296875
vt 0.66015625 0.96484375
vt 0.575825 0.46875
vt 0.5569875 0.46875
vt 0.56640625 0.43359375
vt 0.644878125 0.296875
vt 0.663715625 0.296875
vt 0.663715625 0.375
vt 0.644878125 0.375
vt 0.6507375 0.9296875
vt 0.669575 0.9296875
vt 0.66015625 0.96484375
vn 0 -1 0
vn 0.49999999999999994 0 0.8660254037844388
vn 0 1 0
vn 0 -1 0
vn 0.8660254037844386 0 0.5000000000000001
vn 0 1 0
vn 0 -1 0
vn 1 0 0
vn 0 1 0
vn 0 -1 0
vn 0.8660254037844389 0 -0.4999999999999999
vn 0 1 0
vn 0 -1 0
vn 0.4999999999999997 0 -0.8660254037844388
vn 0 1 0
vn 0 -1 0
vn 3.6830299872301143e-16 0 -1
vn 0 1 0
vn 0 -1 0
vn -0.4999999999999995 0 -0.8660254037844392
vn 0 1 0
vn 0 -1 0
vn -0.8660254037844392 0 -0.4999999999999995
vn 0 1 0
vn 0 -1 0
vn -1 0 -3.683029987230118e-16
vn 0 1 0
vn 0 -1 0
vn -0.8660254037844389 0 0.4999999999999996
vn 0 1 0
vn 0 -1 0
vn -0.5000000000000001 0 0.8660254037844388
vn 0 1 0
vn 0 -1 0
vn 0 0 1
vn 0 1 0
usemtl m_7f2020ae-d844-bc1c-4a4e-974d1b18d26e
f 5/1/1 3/2/1 1/3/1
f 3/4/2 5/5/2 6/6/2 4/7/2
f 4/8/3 6/9/3 2/10/3
f 7/11/4 5/12/4 1/13/4
f 5/14/5 7/15/5 8/16/5 6/17/5
f 6/18/6 8/19/6 2/20/6
f 9/21/7 7/22/7 1/23/7
f 7/24/8 9/25/8 10/26/8 8/27/8
f 8/28/9 10/29/9 2/30/9
f 11/31/10 9/32/10 1/33/10
f 9/34/11 11/35/11 12/36/11 10/37/11
f 10/38/12 12/39/12 2/40/12
f 13/41/13 11/42/13 1/43/13
f 11/44/14 13/45/14 14/46/14 12/47/14
f 12/48/15 14/49/15 2/50/15
f 15/51/16 13/52/16 1/53/16
f 13/54/17 15/55/17 16/56/17 14/57/17
f 14/58/18 16/59/18 2/60/18
f 17/61/19 15/62/19 1/63/19
f 15/64/20 17/65/20 18/66/20 16/67/20
f 16/68/21 18/69/21 2/70/21
f 19/71/22 17/72/22 1/73/22
f 17/74/23 19/75/23 20/76/23 18/77/23
f 18/78/24 20/79/24 2/80/24
f 21/81/25 19/82/25 1/83/25
f 19/84/26 21/85/26 22/86/26 20/87/26
f 20/88/27 22/89/27 2/90/27
f 23/91/28 21/92/28 1/93/28
f 21/94/29 23/95/29 24/96/29 22/97/29
f 22/98/30 24/99/30 2/100/30
f 25/101/31 23/102/31 1/103/31
f 23/104/32 25/105/32 26/106/32 24/107/32
f 24/108/33 26/109/33 2/110/33
f 3/111/34 25/112/34 1/113/34
f 25/114/35 3/115/35 4/116/35 26/117/35
f 26/118/36 4/119/36 2/120/36
o box
v 0.15625 1.15625 0.09375
v 0.15625 1.15625 -0.09375
v 0.15625 0.15625 0.09375
v 0.15625 0.15625 -0.09375
v -0.15625 1.15625 -0.09375
v -0.15625 1.15625 0.09375
v -0.15625 0.15625 -0.09375
v -0.15625 0.15625 0.09375
vt 0 1
vt 0.15625 1
vt 0.15625 0.5
vt 0 0.5
vt 0.375 1
vt 0.46875 1
vt 0.46875 0.5
vt 0.375 0.5
vt 0.1875 1
vt 0.34375 1
vt 0.34375 0.5
vt 0.1875 0.5
vt 0.5 1
vt 0.59375 1
vt 0.59375 0.5
vt 0.5 0.5
vt 0.15625 0.375
vt 0 0.375
vt 0 0.46875
vt 0.15625 0.46875
vt 0.34375 0.46875
vt 0.1875 0.46875
vt 0.1875 0.375
vt 0.34375 0.375
vn 0 0 -1
vn 1 0 0
vn 0 0 1
vn -1 0 0
vn 0 1 0
vn 0 -1 0
usemtl m_7f2020ae-d844-bc1c-4a4e-974d1b18d26e
f 30/124/37 33/123/37 31/122/37 28/121/37
f 29/128/38 30/127/38 28/126/38 27/125/38
f 34/132/39 29/131/39 27/130/39 32/129/39
f 33/136/40 34/135/40 32/134/40 31/133/40
f 32/140/41 27/139/41 28/138/41 31/137/41
f 33/144/42 30/143/42 29/142/42 34/141/42
o light
v -1.879283765641541e-18 0.8828125 0.0875000000000001
v -1.879283765641541e-18 1.0859375 0.0875000000000001
v 0.013606794928142941 1.0723307050718571 0.09921875000000009
v 0.023567660143714093 1.03515625 0.10779747040119789
v 0.02721358985628589 0.984375 0.1109375000000001
v 0.023567660143714097 0.93359375 0.10779747040119789
v 0.013606794928142941 0.896419294928143 0.09921875000000009
v 0.03717445507185703 1.0723307050718571 0.09607872040119787
v 0.06438804492814294 1.03515625 0.10235877959880232
v 0.07434891014371407 0.984375 0.10465744080239567
v 0.06438804492814294 0.93359375 0.10235877959880232
v 0.03717445507185703 0.896419294928143 0.09607872040119787
v 0.05078124999999998 1.0723307050718571 0.09064002959880232
v 0.08795570507185704 1.03515625 0.09293869080239565
v 0.1015625 0.984375 0.09378005919760454
v 0.08795570507185704 0.93359375 0.09293869080239567
v 0.05078124999999998 0.896419294928143 0.09064002959880232
v -0.050781249999999986 1.0723307050718571 0.09064002959880231
v -0.08795570507185704 1.03515625 0.09293869080239565
v -0.1015625 0.984375 0.09378005919760453
v -0.08795570507185707 0.93359375 0.09293869080239565
v -0.050781249999999986 0.896419294928143 0.09064002959880231
v -0.03717445507185704 1.0723307050718571 0.09607872040119787
v -0.06438804492814296 1.03515625 0.10235877959880231
v -0.0743489101437141 0.984375 0.10465744080239565
v -0.06438804492814296 0.93359375 0.10235877959880231
v -0.03717445507185704 0.896419294928143 0.09607872040119787
v -0.013606794928142943 1.0723307050718571 0.09921875000000009
v -0.02356766014371409 1.03515625 0.10779747040119789
v -0.027213589856285886 0.984375 0.1109375000000001
v -0.023567660143714093 0.93359375 0.10779747040119789
v -0.013606794928142943 0.896419294928143 0.09921875000000009
v 0.05078124999999998 1.0723307050718571 0.08435997040119789
v 0.08795570507185704 1.03515625 0.08206130919760454
v 0.1015625 0.984375 0.08121994080239565
v 0.08795570507185704 0.93359375 0.08206130919760454
v 0.05078124999999998 0.896419294928143 0.08435997040119789
v -0.050781249999999986 1.0723307050718571 0.08435997040119789
v -0.08795570507185704 1.03515625 0.08206130919760454
v -0.10156249999999996 0.984375 0.08121994080239567
v -0.08795570507185704 0.93359375 0.08206130919760454
v -0.050781249999999986 0.896419294928143 0.08435997040119789
vt 0.726390625 0.584196875
vt 0.73828125 0.584196875
vt 0.720421875 0.59375
vt 0.43575868202689216 0.4560866467091741
vt 0.43996272236960593 0.4368242491218419
vt 0.4605525642691697 0.4366446706108944
vt 0.4476488548039206 0.45598294413910956
vt 0.43996272236960593 0.4368242491218419
vt 0.44134067533377497 0.4113581379563309
vt 0.4651147711255311 0.41115078732478016
vt 0.4605525642691697 0.4366446706108944
vt 0.44134067533377497 0.4113581379563309
vt 0.43951875 0.3859199351828688
vt 0.46010859189956377 0.3857403566719214
vt 0.4651147711255311 0.41115078732478016
vt 0.4395433417206539 0.3847228517874942
vt 0.4361271427028235 0.3653052437914974
vt 0.44800323127766206 0.36589302185608685
vt 0.4601087944459132 0.3857406887566348
vt 0.44800323127766206 0.36589302185608685
vt 0.4361271427028235 0.3653052437914974
vt 0.4306379201970438 0.35546875
vt 0.7194961320239469 0.44905990985987465
vt 0.7226788679760531 0.4424625
vt 0.7242475502110822 0.46874886446427366
vt 0.4509119459985184 0.45740930884874564
vt 0.46173250846624525 0.4368333062495976
vt 0.47441672831188303 0.4364301564038161
vt 0.45823324895793116 0.45717661167107704
vt 0.46173250846624525 0.4368333062495976
vt 0.4651153069552984 0.41115350709659193
vt 0.47976103629688804 0.4106880134677149
vt 0.47441672831188303 0.4364301564038161
vt 0.4651153069552984 0.41115350709659193
vt 0.46010859189956377 0.3857403566719214
vt 0.47279281174520155 0.3853372068261399
vt 0.47976103629688804 0.4106880134677149
vt 0.46010859189956377 0.3857403566719214
vt 0.44800323127766206 0.36589302185608685
vt 0.4553245342370748 0.36566032467841836
vt 0.47279281174520155 0.3853372068261399
vt 0.6596038679760531 0.44035
vt 0.6564211320239469 0.43375259014012535
vt 0.6611725502110822 0.41406363553572634
vt 0.7232086320239469 0.6612125
vt 0.7263913679760531 0.6678099098598747
vt 0.7216399497889178 0.6874988644642737
vt 0.3972355010420689 0.45717661167107704
vt 0.38105202168811697 0.4364301564038161
vt 0.39373624153375475 0.4368333062495976
vt 0.4045568040014816 0.45740930884874553
vt 0.38105202168811697 0.4364301564038161
vt 0.37570771370311196 0.4106880134677149
vt 0.3903534430447016 0.41115350709659193
vt 0.39373624153375475 0.4368333062495976
vt 0.37570771370311196 0.4106880134677149
vt 0.38267593825479845 0.3853372068261399
vt 0.39536015810043623 0.3857403566719214
vt 0.3903534430447016 0.41115350709659193
vt 0.38267593825479845 0.3853372068261399
vt 0.4001442157629252 0.36566032467841836
vt 0.40746551872233794 0.36589302185608685
vt 0.39536015810043623 0.3857403566719214
vt 0.7258163679760531 0.39859634014012535
vt 0.7226336320239469 0.40519375
vt 0.7210649497889178 0.37890738553572634
vt 0.71875 0.521696875
vt 0.730640625 0.521696875
vt 0.736609375 0.53125
vt 0.4078198951960795 0.45598294413910956
vt 0.3949161857308303 0.4366446706108944
vt 0.41550602763039407 0.4368242491218419
vt 0.41971006797310784 0.4560866467091741
vt 0.3949161857308303 0.4366446706108944
vt 0.3903539788744689 0.41115078732478016
vt 0.41412807466622503 0.4113581379563309
vt 0.41550602763039407 0.4368242491218419
vt 0.3903539788744689 0.41115078732478016
vt 0.39536015810043623 0.3857403566719214
vt 0.41595 0.3859199351828688
vt 0.41412807466622503 0.4113581379563309
vt 0.3953599555540868 0.3857406887566348
vt 0.40746551872233794 0.36589302185608685
vt 0.4193416072971765 0.3653052437914974
vt 0.4159254082793461 0.3847228517874942
vt 0.4193416072971765 0.3653052437914974
vt 0.40746551872233794 0.36589302185608685
vt 0.4248308298029562 0.35546875
vt 0.4217107957628003 0.45621984849181607
vt 0.4353149759164125 0.4559825271683663
vt 0.42866948302891994 0.4650779470357246
vt 0.4217107957628003 0.45621984849181607
vt 0.41639759582637526 0.4372346336392505
vt 0.43996276043789184 0.43682354557736314
vt 0.4353149759164125 0.4559825271683663
vt 0.41639759582637526 0.4372346336392505
vt 0.41413231502655057 0.41183278060323025
vt 0.44134067533377497 0.4113581379563309
vt 0.43996276043789184 0.43682354557736314
vt 0.414128125 0.4113574351828688
vt 0.41595 0.3859199351828688
vt 0.43951875 0.3859199351828688
vt 0.441340625 0.4113574351828688
vt 0.4160522114120072 0.38280804113703637
vt 0.42256581785947434 0.3642004779540182
vt 0.4361271427028235 0.3653052437914974
vt 0.4395431420432748 0.38472171682520084
vt 0.4361271427028235 0.3653052437914974
vt 0.42256581785947434 0.3642004779540182
vt 0.43007546334294905 0.35580437987254143
vt 0.7226788679760531 0.4424625
vt 0.7258163679760531 0.4424625
vt 0.7242476179760531 0.46875
vt 0.26015 0.28125
vt 0.259 0.2549625
vt 0.2644375 0.2549625
vt 0.2632875 0.28125
vt 0.259 0.2549625
vt 0.258578125 0.22867499999999996
vt 0.264859375 0.22867499999999996
vt 0.2644375 0.2549625
vt 0.258578125 0.22867499999999996
vt 0.259 0.20238749999999994
vt 0.2644375 0.20238749999999994
vt 0.264859375 0.22867499999999996
vt 0.6584538679760531 0.46663750000000004
vt 0.6596038679760531 0.44035
vt 0.6627413679760531 0.44035
vt 0.6638913679760531 0.46663750000000004
vt 0.6627413679760531 0.44035
vt 0.6596038679760531 0.44035
vt 0.6611726179760531 0.4140625
vt 0.7200711320239469 0.6612125
vt 0.7232086320239469 0.6612125
vt 0.7216398820239469 0.6875
vt 0.7200711320239469 0.6612125
vt 0.7189211320239469 0.634925
vt 0.7243586320239469 0.634925
vt 0.7232086320239469 0.6612125
vt 0.3215 0.27808125000000006
vt 0.321078125 0.25179375000000004
vt 0.327359375 0.25179375000000004
vt 0.3269375 0.27808125000000006
vt 0.321078125 0.25179375000000004
vt 0.3215 0.22550625000000002
vt 0.3269375 0.22550625000000002
vt 0.327359375 0.25179375000000004
vt 0.3215 0.22550625000000002
vt 0.32265 0.19921875
vt 0.3257875 0.19921875
vt 0.3269375 0.22550625000000002
vt 0.7226336320239469 0.40519375
vt 0.7194961320239469 0.40519375
vt 0.7210648820239469 0.37890625
vn 0.09405288442543687 0.702020286548267 0.7059189558341272
vn 0.12768847961381227 0.25537695922762477 0.9583727150068313
vn 0.13173810494196755 0.07059823766321335 0.9887673945600896
vn 0.13173810494196758 -0.07059823766321331 0.9887673945600894
vn 0.1276884796138124 -0.25537695922762466 0.9583727150068315
vn 0.09405288442543687 -0.702020286548267 0.7059189558341272
vn 0.1967596954282177 0.8479164433410358 0.49226347352498456
vn 0.34114411961050645 0.393919298579168 0.8534918135881967
vn 0.36873045332435467 0.11408559929220616 0.9225087147693262
vn 0.368730453324355 -0.11408559929220628 0.922508714769326
vn 0.34114411961050645 -0.3939192985791677 0.8534918135881968
vn 0.1967596954282177 -0.8479164433410358 0.49226347352498456
vn -0.1967596954282178 0.8479164433410359 0.4922634735249843
vn -0.3411441196105069 0.3939192985791682 0.8534918135881964
vn -0.3687304533243553 0.11408559929220646 0.9225087147693259
vn -0.368730453324355 -0.11408559929220626 0.9225087147693263
vn -0.3411441196105067 -0.39391929857916796 0.8534918135881966
vn -0.1967596954282178 -0.8479164433410359 0.4922634735249843
vn -0.09405288442543686 0.702020286548267 0.7059189558341272
vn -0.12768847961381233 0.25537695922762477 0.9583727150068313
vn -0.13173810494196755 0.0705982376632134 0.9887673945600896
vn -0.13173810494196767 -0.07059823766321345 0.9887673945600894
vn -0.12768847961381238 -0.2553769592276246 0.9583727150068315
vn -0.09405288442543686 -0.702020286548267 0.7059189558341272
vn 0 0.6525802972828822 0.7577195758314453
vn 0 0.2248595066987586 0.9743911956946198
vn 0 0.06171655506811717 0.9980937164567885
vn 0 -0.06171655506811713 0.9980937164567885
vn 0 -0.2248595066987585 0.97439119569462
vn 0 -0.6525802972828822 0.7577195758314453
vn 0.258819045102521 0.9659258262890683 0
vn 0.7071067811865472 0.7071067811865479 0
vn 0.9659258262890684 0.2588190451025209 0
vn 0.9659258262890682 -0.25881904510252096 0
vn 0.7071067811865476 -0.7071067811865475 0
vn 0.258819045102521 -0.9659258262890683 0
vn -0.25881904510252096 0.9659258262890683 0
vn -0.7071067811865472 0.7071067811865478 0
vn -0.9659258262890685 0.2588190451025202 -3.28387733876554e-15
vn -0.9659258262890685 -0.2588190451025203 -2.4647317051785963e-15
vn -0.7071067811865478 -0.7071067811865474 0
vn -0.25881904510252096 -0.9659258262890683 0
usemtl m_7f2020ae-d844-bc1c-4a4e-974d1b18d26e
f 37/145/43 42/146/43 36/147/43
f 37/148/44 38/149/44 43/150/44 42/151/44
f 38/152/45 39/153/45 44/154/45 43/155/45
f 39/156/46 40/157/46 45/158/46 44/159/46
f 40/160/47 41/161/47 46/162/47 45/163/47
f 46/164/48 41/165/48 35/166/48
f 42/167/49 47/168/49 36/169/49
f 42/170/50 43/171/50 48/172/50 47/173/50
f 43/174/51 44/175/51 49/176/51 48/177/51
f 44/178/52 45/179/52 50/180/52 49/181/52
f 45/182/53 46/183/53 51/184/53 50/185/53
f 51/186/54 46/187/54 35/188/54
f 52/189/55 57/190/55 36/191/55
f 52/192/56 53/193/56 58/194/56 57/195/56
f 53/196/57 54/197/57 59/198/57 58/199/57
f 54/200/58 55/201/58 60/202/58 59/203/58
f 55/204/59 56/205/59 61/206/59 60/207/59
f 61/208/60 56/209/60 35/210/60
f 57/211/61 62/212/61 36/213/61
f 57/214/62 58/215/62 63/216/62 62/217/62
f 58/218/63 59/219/63 64/220/63 63/221/63
f 59/222/64 60/223/64 65/224/64 64/225/64
f 60/226/65 61/227/65 66/228/65 65/229/65
f 66/230/66 61/231/66 35/232/66
f 62/233/67 37/234/67 36/235/67
f 62/236/68 63/237/68 38/238/68 37/239/68
f 63/240/69 64/241/69 39/242/69 38/243/69
f 64/244/70 65/245/70 40/246/70 39/247/70
f 65/248/71 66/249/71 41/250/71 40/251/71
f 41/252/72 66/253/72 35/254/72
f 47/255/73 67/256/73 36/257/73
f 47/258/74 48/259/74 68/260/74 67/261/74
f 48/262/75 49/263/75 69/264/75 68/265/75
f 49/266/76 50/267/76 70/268/76 69/269/76
f 50/270/77 51/271/77 71/272/77 70/273/77
f 71/274/78 51/275/78 35/276/78
f 72/277/79 52/278/79 36/279/79
f 72/280/80 73/281/80 53/282/80 52/283/80
f 73/284/81 74/285/81 54/286/81 53/287/81
f 74/288/82 75/289/82 55/290/82 54/291/82
f 75/292/83 76/293/83 56/294/83 55/295/83
f 56/296/84 76/297/84 35/298/84
o shade
v 0.10156249999999999 0.9571614101437141 0.09375
v 0.10156249999999999 0.9571614101437141 0.15625
v 0.10156249999999999 1.011588589856286 0.09375
v 0.10156249999999999 1.011588589856286 0.171875
v 0.0743489101437141 1.058723910143714 0.09374999999999999
v 0.0743489101437141 1.058723910143714 0.18749999999999997
v 0.027213589856285924 1.0859375 0.09374999999999997
v 0.027213589856285924 1.0859375 0.20312499999999997
v -0.027213589856285855 1.0859375 0.09374999999999997
v -0.027213589856285855 1.0859375 0.20312499999999997
v -0.07434891014371409 1.058723910143714 0.09374999999999999
v -0.07434891014371409 1.0587239101437143 0.18749999999999997
v -0.10156249999999999 1.011588589856286 0.09375
v -0.10156249999999999 1.011588589856286 0.171875
v -0.10156250000000001 0.9571614101437141 0.09375
v -0.10156250000000001 0.9571614101437141 0.15625
vt 0.62513125 0.515625
vt 0.65234375 0.515625
vt 0.65234375 0.5546875
vt 0.62513125 0.546875
vt 0.65234375 0.515625
vt 0.67955625 0.515625
vt 0.67955625 0.5625
vt 0.65234375 0.5546875
vt 0.625196875 0.8203125
vt 0.652409375 0.8203125
vt 0.652409375 0.875
vt 0.625196875 0.8671875
vt 0.652409375 0.8203125
vt 0.679621875 0.8203125
vt 0.679621875 0.875
vt 0.652409375 0.875
vt 0.679621875 0.8203125
vt 0.706834375 0.8203125
vt 0.706834375 0.8671875
vt 0.679621875 0.875
vt 0.18763125 0.296875
vt 0.21484375 0.296875
vt 0.21484375 0.3359375
vt 0.18763125 0.34375
vt 0.21484375 0.296875
vt 0.24205625 0.296875
vt 0.24205625 0.328125
vt 0.21484375 0.3359375
vn 1 0 0
vn 0.8660254037844388 0.4999999999999999 -1.1102230246251563e-16
vn 0.5000000000000001 0.8660254037844388 -1.9229626863835643e-16
vn 5.099579982318619e-16 1 -3.4892723631076353e-16
vn -0.5 0.8660254037844387 -3.197857681963218e-16
vn -0.8660254037844387 0.4999999999999999 -2.1301390210888796e-16
vn -1 5.099579982318624e-16 -2.264668444915074e-31
usemtl m_7f2020ae-d844-bc1c-4a4e-974d1b18d26e
f 77/299/85 79/300/85 80/301/85 78/302/85
f 79/303/86 81/304/86 82/305/86 80/306/86
f 81/307/87 83/308/87 84/309/87 82/310/87
f 83/311/88 85/312/88 86/313/88 84/314/88
f 85/315/89 87/316/89 88/317/89 86/318/89
f 87/319/90 89/320/90 90/321/90 88/322/90
f 89/323/91 91/324/91 92/325/91 90/326/91
o shade
v 0.10156249999999999 0.9565364101437142 0.09375
v 0.10156249999999999 0.9565364101437142 0.15625
v 0.10156249999999999 1.0109635898562859 0.09375
v 0.10156249999999999 1.0109635898562859 0.171875
v 0.0743489101437141 1.0580989101437142 0.09374999999999999
v 0.0743489101437141 1.0580989101437142 0.18749999999999997
v 0.027213589856285924 1.0853125000000001 0.09374999999999997
v 0.027213589856285924 1.0853125000000001 0.20312499999999997
v -0.027213589856285855 1.0853125000000001 0.09374999999999997
v -0.027213589856285855 1.0853125000000001 0.20312499999999997
v -0.07434891014371409 1.0580989101437142 0.09374999999999999
v -0.07434891014371409 1.0580989101437142 0.18749999999999997
v -0.10156249999999999 1.0109635898562859 0.09375
v -0.10156249999999999 1.0109635898562859 0.171875
v -0.10156250000000001 0.9565364101437142 0.09375
v -0.10156250000000001 0.9565364101437142 0.15625
vt 0.30859375 0.3359375
vt 0.30859375 0.296875
vt 0.33580625 0.296875
vt 0.33580625 0.328125
vt 0.28138125 0.34375
vt 0.28138125 0.296875
vt 0.30859375 0.296875
vt 0.30859375 0.3359375
vt 0.679621875 0.78125
vt 0.679621875 0.7265625
vt 0.706834375 0.7265625
vt 0.706834375 0.7734375
vt 0.652409375 0.78125
vt 0.652409375 0.7265625
vt 0.679621875 0.7265625
vt 0.679621875 0.78125
vt 0.625196875 0.7734375
vt 0.625196875 0.7265625
vt 0.652409375 0.7265625
vt 0.652409375 0.78125
vt 0.52734375 0.3359375
vt 0.52734375 0.296875
vt 0.55455625 0.296875
vt 0.55455625 0.34375
vt 0.50013125 0.328125
vt 0.50013125 0.296875
vt 0.52734375 0.296875
vt 0.52734375 0.3359375
vn -1 0 0
vn -0.8660254037844388 -0.4999999999999999 1.1102230246251563e-16
vn -0.5000000000000001 -0.8660254037844388 1.9229626863835643e-16
vn -5.099579982318619e-16 -1 3.489272363107635e-16
vn 0.5 -0.8660254037844387 3.2049378106392735e-16
vn 0.8660254037844388 -0.5 1.7763568394002506e-16
vn 1 -5.099579982318624e-16 2.264668444915074e-31
usemtl m_7f2020ae-d844-bc1c-4a4e-974d1b18d26e
f 96/327/92 95/328/92 93/329/92 94/330/92
f 98/331/93 97/332/93 95/333/93 96/334/93
f 100/335/94 99/336/94 97/337/94 98/338/94
f 102/339/95 101/340/95 99/341/95 100/342/95
f 104/343/96 103/344/96 101/345/96 102/346/96
f 106/347/97 105/348/97 103/349/97 104/350/97
f 108/351/98 107/352/98 105/353/98 106/354/98
o light
v -1.879283765641541e-18 0.6328125 0.0875000000000001
v -1.879283765641541e-18 0.8359375 0.0875000000000001
v 0.013606794928142941 0.822330705071857 0.09921875000000009
v 0.023567660143714093 0.78515625 0.10779747040119789
v 0.02721358985628589 0.734375 0.1109375000000001
v 0.023567660143714097 0.68359375 0.10779747040119789
v 0.013606794928142941 0.646419294928143 0.09921875000000009
v 0.03717445507185703 0.822330705071857 0.09607872040119787
v 0.06438804492814294 0.78515625 0.10235877959880232
v 0.07434891014371407 0.734375 0.10465744080239567
v 0.06438804492814294 0.68359375 0.10235877959880232
v 0.03717445507185703 0.646419294928143 0.09607872040119787
v 0.05078124999999998 0.822330705071857 0.09064002959880232
v 0.08795570507185704 0.78515625 0.09293869080239565
v 0.1015625 0.734375 0.09378005919760454
v 0.08795570507185704 0.68359375 0.09293869080239567
v 0.05078124999999998 0.646419294928143 0.09064002959880232
v -0.050781249999999986 0.822330705071857 0.09064002959880231
v -0.08795570507185704 0.78515625 0.09293869080239565
v -0.1015625 0.734375 0.09378005919760453
v -0.08795570507185707 0.68359375 0.09293869080239565
v -0.050781249999999986 0.646419294928143 0.09064002959880231
v -0.03717445507185704 0.822330705071857 0.09607872040119787
v -0.06438804492814296 0.78515625 0.10235877959880231
v -0.0743489101437141 0.734375 0.10465744080239565
v -0.06438804492814296 0.68359375 0.10235877959880231
v -0.03717445507185704 0.646419294928143 0.09607872040119787
v -0.013606794928142943 0.822330705071857 0.09921875000000009
v -0.02356766014371409 0.78515625 0.10779747040119789
v -0.027213589856285886 0.734375 0.1109375000000001
v -0.023567660143714093 0.68359375 0.10779747040119789
v -0.013606794928142943 0.646419294928143 0.09921875000000009
v 0.05078124999999998 0.822330705071857 0.08435997040119789
v 0.08795570507185704 0.78515625 0.08206130919760454
v 0.1015625 0.734375 0.08121994080239565
v 0.08795570507185704 0.68359375 0.08206130919760454
v 0.05078124999999998 0.646419294928143 0.08435997040119789
v -0.050781249999999986 0.822330705071857 0.08435997040119789
v -0.08795570507185704 0.78515625 0.08206130919760454
v -0.10156249999999996 0.734375 0.08121994080239567
v -0.08795570507185704 0.68359375 0.08206130919760454
v -0.050781249999999986 0.646419294928143 0.08435997040119789
vt 0.726390625 0.584196875
vt 0.73828125 0.584196875
vt 0.720421875 0.59375
vt 0.43575868202689216 0.4560866467091741
vt 0.43996272236960593 0.4368242491218419
vt 0.4605525642691697 0.4366446706108944
vt 0.4476488548039206 0.45598294413910956
vt 0.43996272236960593 0.4368242491218419
vt 0.44134067533377497 0.4113581379563309
vt 0.4651147711255311 0.41115078732478016
vt 0.4605525642691697 0.4366446706108944
vt 0.44134067533377497 0.4113581379563309
vt 0.43951875 0.3859199351828688
vt 0.46010859189956377 0.3857403566719214
vt 0.4651147711255311 0.41115078732478016
vt 0.4395433417206539 0.3847228517874942
vt 0.4361271427028235 0.3653052437914974
vt 0.44800323127766206 0.36589302185608685
vt 0.4601087944459132 0.3857406887566348
vt 0.44800323127766206 0.36589302185608685
vt 0.4361271427028235 0.3653052437914974
vt 0.4306379201970438 0.35546875
vt 0.7194961320239469 0.44905990985987465
vt 0.7226788679760531 0.4424625
vt 0.7242475502110822 0.46874886446427366
vt 0.4509119459985184 0.45740930884874564
vt 0.46173250846624525 0.4368333062495976
vt 0.47441672831188303 0.4364301564038161
vt 0.45823324895793116 0.45717661167107704
vt 0.46173250846624525 0.4368333062495976
vt 0.4651153069552984 0.41115350709659193
vt 0.47976103629688804 0.4106880134677149
vt 0.47441672831188303 0.4364301564038161
vt 0.4651153069552984 0.41115350709659193
vt 0.46010859189956377 0.3857403566719214
vt 0.47279281174520155 0.3853372068261399
vt 0.47976103629688804 0.4106880134677149
vt 0.46010859189956377 0.3857403566719214
vt 0.44800323127766206 0.36589302185608685
vt 0.4553245342370748 0.36566032467841836
vt 0.47279281174520155 0.3853372068261399
vt 0.6596038679760531 0.44035
vt 0.6564211320239469 0.43375259014012535
vt 0.6611725502110822 0.41406363553572634
vt 0.7232086320239469 0.6612125
vt 0.7263913679760531 0.6678099098598747
vt 0.7216399497889178 0.6874988644642737
vt 0.3972355010420689 0.45717661167107704
vt 0.38105202168811697 0.4364301564038161
vt 0.39373624153375475 0.4368333062495976
vt 0.4045568040014816 0.45740930884874553
vt 0.38105202168811697 0.4364301564038161
vt 0.37570771370311196 0.4106880134677149
vt 0.3903534430447016 0.41115350709659193
vt 0.39373624153375475 0.4368333062495976
vt 0.37570771370311196 0.4106880134677149
vt 0.38267593825479845 0.3853372068261399
vt 0.39536015810043623 0.3857403566719214
vt 0.3903534430447016 0.41115350709659193
vt 0.38267593825479845 0.3853372068261399
vt 0.4001442157629252 0.36566032467841836
vt 0.40746551872233794 0.36589302185608685
vt 0.39536015810043623 0.3857403566719214
vt 0.7258163679760531 0.39859634014012535
vt 0.7226336320239469 0.40519375
vt 0.7210649497889178 0.37890738553572634
vt 0.71875 0.521696875
vt 0.730640625 0.521696875
vt 0.736609375 0.53125
vt 0.4078198951960795 0.45598294413910956
vt 0.3949161857308303 0.4366446706108944
vt 0.41550602763039407 0.4368242491218419
vt 0.41971006797310784 0.4560866467091741
vt 0.3949161857308303 0.4366446706108944
vt 0.3903539788744689 0.41115078732478016
vt 0.41412807466622503 0.4113581379563309
vt 0.41550602763039407 0.4368242491218419
vt 0.3903539788744689 0.41115078732478016
vt 0.39536015810043623 0.3857403566719214
vt 0.41595 0.3859199351828688
vt 0.41412807466622503 0.4113581379563309
vt 0.3953599555540868 0.3857406887566348
vt 0.40746551872233794 0.36589302185608685
vt 0.4193416072971765 0.3653052437914974
vt 0.4159254082793461 0.3847228517874942
vt 0.4193416072971765 0.3653052437914974
vt 0.40746551872233794 0.36589302185608685
vt 0.4248308298029562 0.35546875
vt 0.4217107957628003 0.45621984849181607
vt 0.4353149759164125 0.4559825271683663
vt 0.42866948302891994 0.4650779470357246
vt 0.4217107957628003 0.45621984849181607
vt 0.41639759582637526 0.4372346336392505
vt 0.43996276043789184 0.43682354557736314
vt 0.4353149759164125 0.4559825271683663
vt 0.41639759582637526 0.4372346336392505
vt 0.41413231502655057 0.41183278060323025
vt 0.44134067533377497 0.4113581379563309
vt 0.43996276043789184 0.43682354557736314
vt 0.414128125 0.4113574351828688
vt 0.41595 0.3859199351828688
vt 0.43951875 0.3859199351828688
vt 0.441340625 0.4113574351828688
vt 0.4160522114120072 0.38280804113703637
vt 0.42256581785947434 0.3642004779540182
vt 0.4361271427028235 0.3653052437914974
vt 0.4395431420432748 0.38472171682520084
vt 0.4361271427028235 0.3653052437914974
vt 0.42256581785947434 0.3642004779540182
vt 0.43007546334294905 0.35580437987254143
vt 0.7226788679760531 0.4424625
vt 0.7258163679760531 0.4424625
vt 0.7242476179760531 0.46875
vt 0.26015 0.28125
vt 0.259 0.2549625
vt 0.2644375 0.2549625
vt 0.2632875 0.28125
vt 0.259 0.2549625
vt 0.258578125 0.22867499999999996
vt 0.264859375 0.22867499999999996
vt 0.2644375 0.2549625
vt 0.258578125 0.22867499999999996
vt 0.259 0.20238749999999994
vt 0.2644375 0.20238749999999994
vt 0.264859375 0.22867499999999996
vt 0.6584538679760531 0.46663750000000004
vt 0.6596038679760531 0.44035
vt 0.6627413679760531 0.44035
vt 0.6638913679760531 0.46663750000000004
vt 0.6627413679760531 0.44035
vt 0.6596038679760531 0.44035
vt 0.6611726179760531 0.4140625
vt 0.7200711320239469 0.6612125
vt 0.7232086320239469 0.6612125
vt 0.7216398820239469 0.6875
vt 0.7200711320239469 0.6612125
vt 0.7189211320239469 0.634925
vt 0.7243586320239469 0.634925
vt 0.7232086320239469 0.6612125
vt 0.3215 0.27808125000000006
vt 0.321078125 0.25179375000000004
vt 0.327359375 0.25179375000000004
vt 0.3269375 0.27808125000000006
vt 0.321078125 0.25179375000000004
vt 0.3215 0.22550625000000002
vt 0.3269375 0.22550625000000002
vt 0.327359375 0.25179375000000004
vt 0.3215 0.22550625000000002
vt 0.32265 0.19921875
vt 0.3257875 0.19921875
vt 0.3269375 0.22550625000000002
vt 0.7226336320239469 0.40519375
vt 0.7194961320239469 0.40519375
vt 0.7210648820239469 0.37890625
vn 0.09405288442543687 0.702020286548267 0.7059189558341272
vn 0.12768847961381227 0.25537695922762477 0.9583727150068313
vn 0.13173810494196755 0.07059823766321335 0.9887673945600896
vn 0.13173810494196758 -0.07059823766321331 0.9887673945600894
vn 0.1276884796138124 -0.25537695922762466 0.9583727150068315
vn 0.09405288442543687 -0.702020286548267 0.7059189558341272
vn 0.1967596954282177 0.8479164433410358 0.49226347352498456
vn 0.34114411961050645 0.393919298579168 0.8534918135881967
vn 0.36873045332435467 0.11408559929220616 0.9225087147693262
vn 0.368730453324355 -0.11408559929220628 0.922508714769326
vn 0.34114411961050645 -0.3939192985791677 0.8534918135881968
vn 0.1967596954282177 -0.8479164433410358 0.49226347352498456
vn -0.1967596954282178 0.8479164433410359 0.4922634735249843
vn -0.3411441196105069 0.3939192985791682 0.8534918135881964
vn -0.3687304533243553 0.11408559929220646 0.9225087147693259
vn -0.368730453324355 -0.11408559929220626 0.9225087147693263
vn -0.3411441196105067 -0.39391929857916796 0.8534918135881966
vn -0.1967596954282178 -0.8479164433410359 0.4922634735249843
vn -0.09405288442543686 0.702020286548267 0.7059189558341272
vn -0.12768847961381233 0.25537695922762477 0.9583727150068313
vn -0.13173810494196755 0.0705982376632134 0.9887673945600896
vn -0.13173810494196767 -0.07059823766321345 0.9887673945600894
vn -0.12768847961381238 -0.2553769592276246 0.9583727150068315
vn -0.09405288442543686 -0.702020286548267 0.7059189558341272
vn 0 0.6525802972828822 0.7577195758314453
vn 0 0.2248595066987586 0.9743911956946198
vn 0 0.06171655506811717 0.9980937164567885
vn 0 -0.06171655506811713 0.9980937164567885
vn 0 -0.2248595066987585 0.97439119569462
vn 0 -0.6525802972828822 0.7577195758314453
vn 0.258819045102521 0.9659258262890683 0
vn 0.7071067811865472 0.7071067811865479 0
vn 0.9659258262890684 0.2588190451025209 0
vn 0.9659258262890682 -0.25881904510252096 0
vn 0.7071067811865476 -0.7071067811865475 0
vn 0.258819045102521 -0.9659258262890683 0
vn -0.25881904510252096 0.9659258262890683 0
vn -0.7071067811865472 0.7071067811865478 0
vn -0.9659258262890685 0.2588190451025202 -3.28387733876554e-15
vn -0.9659258262890685 -0.2588190451025203 -2.4647317051785963e-15
vn -0.7071067811865478 -0.7071067811865474 0
vn -0.25881904510252096 -0.9659258262890683 0
usemtl m_7f2020ae-d844-bc1c-4a4e-974d1b18d26e
f 111/355/99 116/356/99 110/357/99
f 111/358/100 112/359/100 117/360/100 116/361/100
f 112/362/101 113/363/101 118/364/101 117/365/101
f 113/366/102 114/367/102 119/368/102 118/369/102
f 114/370/103 115/371/103 120/372/103 119/373/103
f 120/374/104 115/375/104 109/376/104
f 116/377/105 121/378/105 110/379/105
f 116/380/106 117/381/106 122/382/106 121/383/106
f 117/384/107 118/385/107 123/386/107 122/387/107
f 118/388/108 119/389/108 124/390/108 123/391/108
f 119/392/109 120/393/109 125/394/109 124/395/109
f 125/396/110 120/397/110 109/398/110
f 126/399/111 131/400/111 110/401/111
f 126/402/112 127/403/112 132/404/112 131/405/112
f 127/406/113 128/407/113 133/408/113 132/409/113
f 128/410/114 129/411/114 134/412/114 133/413/114
f 129/414/115 130/415/115 135/416/115 134/417/115
f 135/418/116 130/419/116 109/420/116
f 131/421/117 136/422/117 110/423/117
f 131/424/118 132/425/118 137/426/118 136/427/118
f 132/428/119 133/429/119 138/430/119 137/431/119
f 133/432/120 134/433/120 139/434/120 138/435/120
f 134/436/121 135/437/121 140/438/121 139/439/121
f 140/440/122 135/441/122 109/442/122
f 136/443/123 111/444/123 110/445/123
f 136/446/124 137/447/124 112/448/124 111/449/124
f 137/450/125 138/451/125 113/452/125 112/453/125
f 138/454/126 139/455/126 114/456/126 113/457/126
f 139/458/127 140/459/127 115/460/127 114/461/127
f 115/462/128 140/463/128 109/464/128
f 121/465/129 141/466/129 110/467/129
f 121/468/130 122/469/130 142/470/130 141/471/130
f 122/472/131 123/473/131 143/474/131 142/475/131
f 123/476/132 124/477/132 144/478/132 143/479/132
f 124/480/133 125/481/133 145/482/133 144/483/133
f 145/484/134 125/485/134 109/486/134
f 146/487/135 126/488/135 110/489/135
f 146/490/136 147/491/136 127/492/136 126/493/136
f 147/494/137 148/495/137 128/496/137 127/497/137
f 148/498/138 149/499/138 129/500/138 128/501/138
f 149/502/139 150/503/139 130/504/139 129/505/139
f 130/506/140 150/507/140 109/508/140
o shade
v 0.10156249999999999 0.7071614101437141 0.09375
v 0.10156249999999999 0.7071614101437141 0.15625
v 0.10156249999999999 0.761588589856286 0.09375
v 0.10156249999999999 0.761588589856286 0.171875
v 0.0743489101437141 0.8087239101437141 0.09374999999999999
v 0.0743489101437141 0.8087239101437141 0.18749999999999997
v 0.027213589856285924 0.8359375 0.09374999999999997
v 0.027213589856285924 0.8359375 0.20312499999999997
v -0.027213589856285855 0.8359375 0.09374999999999997
v -0.027213589856285855 0.8359375 0.20312499999999997
v -0.07434891014371409 0.8087239101437141 0.09374999999999999
v -0.07434891014371409 0.8087239101437141 0.18749999999999997
v -0.10156249999999999 0.7615885898562859 0.09375
v -0.10156249999999999 0.761588589856286 0.171875
v -0.10156250000000001 0.7071614101437141 0.09375
v -0.10156250000000001 0.7071614101437141 0.15625
vt 0.62513125 0.515625
vt 0.65234375 0.515625
vt 0.65234375 0.5546875
vt 0.62513125 0.546875
vt 0.65234375 0.515625
vt 0.67955625 0.515625
vt 0.67955625 0.5625
vt 0.65234375 0.5546875
vt 0.625196875 0.8203125
vt 0.652409375 0.8203125
vt 0.652409375 0.875
vt 0.625196875 0.8671875
vt 0.652409375 0.8203125
vt 0.679621875 0.8203125
vt 0.679621875 0.875
vt 0.652409375 0.875
vt 0.679621875 0.8203125
vt 0.706834375 0.8203125
vt 0.706834375 0.8671875
vt 0.679621875 0.875
vt 0.18763125 0.296875
vt 0.21484375 0.296875
vt 0.21484375 0.3359375
vt 0.18763125 0.34375
vt 0.21484375 0.296875
vt 0.24205625 0.296875
vt 0.24205625 0.328125
vt 0.21484375 0.3359375
vn 1 0 0
vn 0.8660254037844388 0.4999999999999999 -1.1102230246251563e-16
vn 0.5000000000000001 0.8660254037844388 -1.9229626863835643e-16
vn 5.099579982318619e-16 1 -3.4892723631076353e-16
vn -0.5 0.8660254037844387 -3.197857681963218e-16
vn -0.8660254037844387 0.4999999999999999 -2.1301390210888796e-16
vn -1 5.099579982318624e-16 -2.264668444915074e-31
usemtl m_7f2020ae-d844-bc1c-4a4e-974d1b18d26e
f 151/509/141 153/510/141 154/511/141 152/512/141
f 153/513/142 155/514/142 156/515/142 154/516/142
f 155/517/143 157/518/143 158/519/143 156/520/143
f 157/521/144 159/522/144 160/523/144 158/524/144
f 159/525/145 161/526/145 162/527/145 160/528/145
f 161/529/146 163/530/146 164/531/146 162/532/146
f 163/533/147 165/534/147 166/535/147 164/536/147
o shade
v 0.10156249999999999 0.7065364101437142 0.09375
v 0.10156249999999999 0.7065364101437142 0.15625
v 0.10156249999999999 0.760963589856286 0.09375
v 0.10156249999999999 0.760963589856286 0.171875
v 0.0743489101437141 0.8080989101437142 0.09374999999999999
v 0.0743489101437141 0.8080989101437142 0.18749999999999997
v 0.027213589856285924 0.8353125 0.09374999999999997
v 0.027213589856285924 0.8353125 0.20312499999999997
v -0.027213589856285855 0.8353125 0.09374999999999997
v -0.027213589856285855 0.8353125000000001 0.20312499999999997
v -0.07434891014371409 0.8080989101437142 0.09374999999999999
v -0.07434891014371409 0.8080989101437142 0.18749999999999997
v -0.10156249999999999 0.7609635898562859 0.09375
v -0.10156249999999999 0.760963589856286 0.171875
v -0.10156250000000001 0.7065364101437142 0.09375
v -0.10156250000000001 0.7065364101437142 0.15625
vt 0.30859375 0.3359375
vt 0.30859375 0.296875
vt 0.33580625 0.296875
vt 0.33580625 0.328125
vt 0.28138125 0.34375
vt 0.28138125 0.296875
vt 0.30859375 0.296875
vt 0.30859375 0.3359375
vt 0.679621875 0.78125
vt 0.679621875 0.7265625
vt 0.706834375 0.7265625
vt 0.706834375 0.7734375
vt 0.652409375 0.78125
vt 0.652409375 0.7265625
vt 0.679621875 0.7265625
vt 0.679621875 0.78125
vt 0.625196875 0.7734375
vt 0.625196875 0.7265625
vt 0.652409375 0.7265625
vt 0.652409375 0.78125
vt 0.52734375 0.3359375
vt 0.52734375 0.296875
vt 0.55455625 0.296875
vt 0.55455625 0.34375
vt 0.50013125 0.328125
vt 0.50013125 0.296875
vt 0.52734375 0.296875
vt 0.52734375 0.3359375
vn -1 0 0
vn -0.8660254037844388 -0.4999999999999999 1.1102230246251563e-16
vn -0.5000000000000001 -0.8660254037844388 1.9229626863835643e-16
vn -5.099579982318619e-16 -1 3.489272363107635e-16
vn 0.5 -0.8660254037844387 3.2049378106392735e-16
vn 0.8660254037844388 -0.5 1.7763568394002506e-16
vn 1 -5.099579982318624e-16 2.264668444915074e-31
usemtl m_7f2020ae-d844-bc1c-4a4e-974d1b18d26e
f 170/537/148 169/538/148 167/539/148 168/540/148
f 172/541/149 171/542/149 169/543/149 170/544/149
f 174/545/150 173/546/150 171/547/150 172/548/150
f 176/549/151 175/550/151 173/551/151 174/552/151
f 178/553/152 177/554/152 175/555/152 176/556/152
f 180/557/153 179/558/153 177/559/153 178/560/153
f 182/561/154 181/562/154 179/563/154 180/564/154
o light
v -1.879283765641541e-18 0.3828125 0.0875000000000001
v -1.879283765641541e-18 0.5859375 0.0875000000000001
v 0.013606794928142941 0.572330705071857 0.09921875000000009
v 0.023567660143714093 0.53515625 0.10779747040119789
v 0.02721358985628589 0.484375 0.1109375000000001
v 0.023567660143714097 0.43359375 0.10779747040119789
v 0.013606794928142941 0.396419294928143 0.09921875000000009
v 0.03717445507185703 0.572330705071857 0.09607872040119787
v 0.06438804492814294 0.53515625 0.10235877959880232
v 0.07434891014371407 0.484375 0.10465744080239567
v 0.06438804492814294 0.43359375 0.10235877959880232
v 0.03717445507185703 0.396419294928143 0.09607872040119787
v 0.05078124999999998 0.572330705071857 0.09064002959880232
v 0.08795570507185704 0.53515625 0.09293869080239565
v 0.1015625 0.484375 0.09378005919760454
v 0.08795570507185704 0.43359375 0.09293869080239567
v 0.05078124999999998 0.396419294928143 0.09064002959880232
v -0.050781249999999986 0.572330705071857 0.09064002959880231
v -0.08795570507185704 0.53515625 0.09293869080239565
v -0.1015625 0.484375 0.09378005919760453
v -0.08795570507185707 0.43359375 0.09293869080239565
v -0.050781249999999986 0.396419294928143 0.09064002959880231
v -0.03717445507185704 0.572330705071857 0.09607872040119787
v -0.06438804492814296 0.53515625 0.10235877959880231
v -0.0743489101437141 0.484375 0.10465744080239565
v -0.06438804492814296 0.43359375 0.10235877959880231
v -0.03717445507185704 0.396419294928143 0.09607872040119787
v -0.013606794928142943 0.572330705071857 0.09921875000000009
v -0.02356766014371409 0.53515625 0.10779747040119789
v -0.027213589856285886 0.484375 0.1109375000000001
v -0.023567660143714093 0.43359375 0.10779747040119789
v -0.013606794928142943 0.396419294928143 0.09921875000000009
v 0.05078124999999998 0.572330705071857 0.08435997040119789
v 0.08795570507185704 0.53515625 0.08206130919760454
v 0.1015625 0.484375 0.08121994080239565
v 0.08795570507185704 0.43359375 0.08206130919760454
v 0.05078124999999998 0.396419294928143 0.08435997040119789
v -0.050781249999999986 0.572330705071857 0.08435997040119789
v -0.08795570507185704 0.53515625 0.08206130919760454
v -0.10156249999999996 0.484375 0.08121994080239567
v -0.08795570507185704 0.43359375 0.08206130919760454
v -0.050781249999999986 0.396419294928143 0.08435997040119789
vt 0.726390625 0.584196875
vt 0.73828125 0.584196875
vt 0.720421875 0.59375
vt 0.43575868202689216 0.4560866467091741
vt 0.43996272236960593 0.4368242491218419
vt 0.4605525642691697 0.4366446706108944
vt 0.4476488548039206 0.45598294413910956
vt 0.43996272236960593 0.4368242491218419
vt 0.44134067533377497 0.4113581379563309
vt 0.4651147711255311 0.41115078732478016
vt 0.4605525642691697 0.4366446706108944
vt 0.44134067533377497 0.4113581379563309
vt 0.43951875 0.3859199351828688
vt 0.46010859189956377 0.3857403566719214
vt 0.4651147711255311 0.41115078732478016
vt 0.4395433417206539 0.3847228517874942
vt 0.4361271427028235 0.3653052437914974
vt 0.44800323127766206 0.36589302185608685
vt 0.4601087944459132 0.3857406887566348
vt 0.44800323127766206 0.36589302185608685
vt 0.4361271427028235 0.3653052437914974
vt 0.4306379201970438 0.35546875
vt 0.7194961320239469 0.44905990985987465
vt 0.7226788679760531 0.4424625
vt 0.7242475502110822 0.46874886446427366
vt 0.4509119459985184 0.45740930884874564
vt 0.46173250846624525 0.4368333062495976
vt 0.47441672831188303 0.4364301564038161
vt 0.45823324895793116 0.45717661167107704
vt 0.46173250846624525 0.4368333062495976
vt 0.4651153069552984 0.41115350709659193
vt 0.47976103629688804 0.4106880134677149
vt 0.47441672831188303 0.4364301564038161
vt 0.4651153069552984 0.41115350709659193
vt 0.46010859189956377 0.3857403566719214
vt 0.47279281174520155 0.3853372068261399
vt 0.47976103629688804 0.4106880134677149
vt 0.46010859189956377 0.3857403566719214
vt 0.44800323127766206 0.36589302185608685
vt 0.4553245342370748 0.36566032467841836
vt 0.47279281174520155 0.3853372068261399
vt 0.6596038679760531 0.44035
vt 0.6564211320239469 0.43375259014012535
vt 0.6611725502110822 0.41406363553572634
vt 0.7232086320239469 0.6612125
vt 0.7263913679760531 0.6678099098598747
vt 0.7216399497889178 0.6874988644642737
vt 0.3972355010420689 0.45717661167107704
vt 0.38105202168811697 0.4364301564038161
vt 0.39373624153375475 0.4368333062495976
vt 0.4045568040014816 0.45740930884874553
vt 0.38105202168811697 0.4364301564038161
vt 0.37570771370311196 0.4106880134677149
vt 0.3903534430447016 0.41115350709659193
vt 0.39373624153375475 0.4368333062495976
vt 0.37570771370311196 0.4106880134677149
vt 0.38267593825479845 0.3853372068261399
vt 0.39536015810043623 0.3857403566719214
vt 0.3903534430447016 0.41115350709659193
vt 0.38267593825479845 0.3853372068261399
vt 0.4001442157629252 0.36566032467841836
vt 0.40746551872233794 0.36589302185608685
vt 0.39536015810043623 0.3857403566719214
vt 0.7258163679760531 0.39859634014012535
vt 0.7226336320239469 0.40519375
vt 0.7210649497889178 0.37890738553572634
vt 0.71875 0.521696875
vt 0.730640625 0.521696875
vt 0.736609375 0.53125
vt 0.4078198951960795 0.45598294413910956
vt 0.3949161857308303 0.4366446706108944
vt 0.41550602763039407 0.4368242491218419
vt 0.41971006797310784 0.4560866467091741
vt 0.3949161857308303 0.4366446706108944
vt 0.3903539788744689 0.41115078732478016
vt 0.41412807466622503 0.4113581379563309
vt 0.41550602763039407 0.4368242491218419
vt 0.3903539788744689 0.41115078732478016
vt 0.39536015810043623 0.3857403566719214
vt 0.41595 0.3859199351828688
vt 0.41412807466622503 0.4113581379563309
vt 0.3953599555540868 0.3857406887566348
vt 0.40746551872233794 0.36589302185608685
vt 0.4193416072971765 0.3653052437914974
vt 0.4159254082793461 0.3847228517874942
vt 0.4193416072971765 0.3653052437914974
vt 0.40746551872233794 0.36589302185608685
vt 0.4248308298029562 0.35546875
vt 0.4217107957628003 0.45621984849181607
vt 0.4353149759164125 0.4559825271683663
vt 0.42866948302891994 0.4650779470357246
vt 0.4217107957628003 0.45621984849181607
vt 0.41639759582637526 0.4372346336392505
vt 0.43996276043789184 0.43682354557736314
vt 0.4353149759164125 0.4559825271683663
vt 0.41639759582637526 0.4372346336392505
vt 0.41413231502655057 0.41183278060323025
vt 0.44134067533377497 0.4113581379563309
vt 0.43996276043789184 0.43682354557736314
vt 0.414128125 0.4113574351828688
vt 0.41595 0.3859199351828688
vt 0.43951875 0.3859199351828688
vt 0.441340625 0.4113574351828688
vt 0.4160522114120072 0.38280804113703637
vt 0.42256581785947434 0.3642004779540182
vt 0.4361271427028235 0.3653052437914974
vt 0.4395431420432748 0.38472171682520084
vt 0.4361271427028235 0.3653052437914974
vt 0.42256581785947434 0.3642004779540182
vt 0.43007546334294905 0.35580437987254143
vt 0.7226788679760531 0.4424625
vt 0.7258163679760531 0.4424625
vt 0.7242476179760531 0.46875
vt 0.26015 0.28125
vt 0.259 0.2549625
vt 0.2644375 0.2549625
vt 0.2632875 0.28125
vt 0.259 0.2549625
vt 0.258578125 0.22867499999999996
vt 0.264859375 0.22867499999999996
vt 0.2644375 0.2549625
vt 0.258578125 0.22867499999999996
vt 0.259 0.20238749999999994
vt 0.2644375 0.20238749999999994
vt 0.264859375 0.22867499999999996
vt 0.6584538679760531 0.46663750000000004
vt 0.6596038679760531 0.44035
vt 0.6627413679760531 0.44035
vt 0.6638913679760531 0.46663750000000004
vt 0.6627413679760531 0.44035
vt 0.6596038679760531 0.44035
vt 0.6611726179760531 0.4140625
vt 0.7200711320239469 0.6612125
vt 0.7232086320239469 0.6612125
vt 0.7216398820239469 0.6875
vt 0.7200711320239469 0.6612125
vt 0.7189211320239469 0.634925
vt 0.7243586320239469 0.634925
vt 0.7232086320239469 0.6612125
vt 0.3215 0.27808125000000006
vt 0.321078125 0.25179375000000004
vt 0.327359375 0.25179375000000004
vt 0.3269375 0.27808125000000006
vt 0.321078125 0.25179375000000004
vt 0.3215 0.22550625000000002
vt 0.3269375 0.22550625000000002
vt 0.327359375 0.25179375000000004
vt 0.3215 0.22550625000000002
vt 0.32265 0.19921875
vt 0.3257875 0.19921875
vt 0.3269375 0.22550625000000002
vt 0.7226336320239469 0.40519375
vt 0.7194961320239469 0.40519375
vt 0.7210648820239469 0.37890625
vn 0.09405288442543687 0.702020286548267 0.7059189558341272
vn 0.12768847961381227 0.25537695922762477 0.9583727150068313
vn 0.13173810494196755 0.07059823766321335 0.9887673945600896
vn 0.13173810494196758 -0.07059823766321331 0.9887673945600894
vn 0.1276884796138124 -0.25537695922762466 0.9583727150068315
vn 0.09405288442543687 -0.702020286548267 0.7059189558341272
vn 0.1967596954282177 0.8479164433410358 0.49226347352498456
vn 0.34114411961050645 0.393919298579168 0.8534918135881967
vn 0.36873045332435467 0.11408559929220616 0.9225087147693262
vn 0.368730453324355 -0.11408559929220628 0.922508714769326
vn 0.34114411961050645 -0.3939192985791677 0.8534918135881968
vn 0.1967596954282177 -0.8479164433410358 0.49226347352498456
vn -0.1967596954282178 0.8479164433410359 0.4922634735249843
vn -0.3411441196105069 0.3939192985791682 0.8534918135881964
vn -0.3687304533243553 0.11408559929220646 0.9225087147693259
vn -0.368730453324355 -0.11408559929220626 0.9225087147693263
vn -0.3411441196105067 -0.39391929857916796 0.8534918135881966
vn -0.1967596954282178 -0.8479164433410359 0.4922634735249843
vn -0.09405288442543686 0.702020286548267 0.7059189558341272
vn -0.12768847961381233 0.25537695922762477 0.9583727150068313
vn -0.13173810494196755 0.0705982376632134 0.9887673945600896
vn -0.13173810494196767 -0.07059823766321345 0.9887673945600894
vn -0.12768847961381238 -0.2553769592276246 0.9583727150068315
vn -0.09405288442543686 -0.702020286548267 0.7059189558341272
vn 0 0.6525802972828822 0.7577195758314453
vn 0 0.2248595066987586 0.9743911956946198
vn 0 0.06171655506811717 0.9980937164567885
vn 0 -0.06171655506811713 0.9980937164567885
vn 0 -0.2248595066987585 0.97439119569462
vn 0 -0.6525802972828822 0.7577195758314453
vn 0.258819045102521 0.9659258262890683 0
vn 0.7071067811865472 0.7071067811865479 0
vn 0.9659258262890684 0.2588190451025209 0
vn 0.9659258262890682 -0.25881904510252096 0
vn 0.7071067811865476 -0.7071067811865475 0
vn 0.258819045102521 -0.9659258262890683 0
vn -0.25881904510252096 0.9659258262890683 0
vn -0.7071067811865472 0.7071067811865478 0
vn -0.9659258262890685 0.2588190451025202 -3.28387733876554e-15
vn -0.9659258262890685 -0.2588190451025203 -2.4647317051785963e-15
vn -0.7071067811865478 -0.7071067811865474 0
vn -0.25881904510252096 -0.9659258262890683 0
usemtl m_7f2020ae-d844-bc1c-4a4e-974d1b18d26e
f 185/565/155 190/566/155 184/567/155
f 185/568/156 186/569/156 191/570/156 190/571/156
f 186/572/157 187/573/157 192/574/157 191/575/157
f 187/576/158 188/577/158 193/578/158 192/579/158
f 188/580/159 189/581/159 194/582/159 193/583/159
f 194/584/160 189/585/160 183/586/160
f 190/587/161 195/588/161 184/589/161
f 190/590/162 191/591/162 196/592/162 195/593/162
f 191/594/163 192/595/163 197/596/163 196/597/163
f 192/598/164 193/599/164 198/600/164 197/601/164
f 193/602/165 194/603/165 199/604/165 198/605/165
f 199/606/166 194/607/166 183/608/166
f 200/609/167 205/610/167 184/611/167
f 200/612/168 201/613/168 206/614/168 205/615/168
f 201/616/169 202/617/169 207/618/169 206/619/169
f 202/620/170 203/621/170 208/622/170 207/623/170
f 203/624/171 204/625/171 209/626/171 208/627/171
f 209/628/172 204/629/172 183/630/172
f 205/631/173 210/632/173 184/633/173
f 205/634/174 206/635/174 211/636/174 210/637/174
f 206/638/175 207/639/175 212/640/175 211/641/175
f 207/642/176 208/643/176 213/644/176 212/645/176
f 208/646/177 209/647/177 214/648/177 213/649/177
f 214/650/178 209/651/178 183/652/178
f 210/653/179 185/654/179 184/655/179
f 210/656/180 211/657/180 186/658/180 185/659/180
f 211/660/181 212/661/181 187/662/181 186/663/181
f 212/664/182 213/665/182 188/666/182 187/667/182
f 213/668/183 214/669/183 189/670/183 188/671/183
f 189/672/184 214/673/184 183/674/184
f 195/675/185 215/676/185 184/677/185
f 195/678/186 196/679/186 216/680/186 215/681/186
f 196/682/187 197/683/187 217/684/187 216/685/187
f 197/686/188 198/687/188 218/688/188 217/689/188
f 198/690/189 199/691/189 219/692/189 218/693/189
f 219/694/190 199/695/190 183/696/190
f 220/697/191 200/698/191 184/699/191
f 220/700/192 221/701/192 201/702/192 200/703/192
f 221/704/193 222/705/193 202/706/193 201/707/193
f 222/708/194 223/709/194 203/710/194 202/711/194
f 223/712/195 224/713/195 204/714/195 203/715/195
f 204/716/196 224/717/196 183/718/196
o shade
v 0.10156249999999999 0.45716141014371414 0.09375
v 0.10156249999999999 0.45716141014371414 0.15625
v 0.10156249999999999 0.511588589856286 0.09375
v 0.10156249999999999 0.511588589856286 0.171875
v 0.0743489101437141 0.5587239101437141 0.09374999999999999
v 0.0743489101437141 0.5587239101437141 0.18749999999999997
v 0.027213589856285924 0.5859375 0.09374999999999997
v 0.027213589856285924 0.5859375 0.20312499999999997
v -0.027213589856285855 0.5859375 0.09374999999999997
v -0.027213589856285855 0.5859375 0.20312499999999997
v -0.07434891014371409 0.5587239101437141 0.09374999999999999
v -0.07434891014371409 0.5587239101437141 0.18749999999999997
v -0.10156249999999999 0.5115885898562859 0.09375
v -0.10156249999999999 0.511588589856286 0.171875
v -0.10156250000000001 0.45716141014371414 0.09375
v -0.10156250000000001 0.4571614101437142 0.15625
vt 0.62513125 0.515625
vt 0.65234375 0.515625
vt 0.65234375 0.5546875
vt 0.62513125 0.546875
vt 0.65234375 0.515625
vt 0.67955625 0.515625
vt 0.67955625 0.5625
vt 0.65234375 0.5546875
vt 0.625196875 0.8203125
vt 0.652409375 0.8203125
vt 0.652409375 0.875
vt 0.625196875 0.8671875
vt 0.652409375 0.8203125
vt 0.679621875 0.8203125
vt 0.679621875 0.875
vt 0.652409375 0.875
vt 0.679621875 0.8203125
vt 0.706834375 0.8203125
vt 0.706834375 0.8671875
vt 0.679621875 0.875
vt 0.18763125 0.296875
vt 0.21484375 0.296875
vt 0.21484375 0.3359375
vt 0.18763125 0.34375
vt 0.21484375 0.296875
vt 0.24205625 0.296875
vt 0.24205625 0.328125
vt 0.21484375 0.3359375
vn 1 0 0
vn 0.8660254037844388 0.4999999999999999 -1.1102230246251563e-16
vn 0.5000000000000001 0.8660254037844388 -1.9229626863835643e-16
vn 5.099579982318619e-16 1 -3.4892723631076353e-16
vn -0.5 0.8660254037844387 -3.197857681963218e-16
vn -0.8660254037844387 0.4999999999999999 -2.1301390210888796e-16
vn -1 5.099579982318624e-16 -2.264668444915074e-31
usemtl m_7f2020ae-d844-bc1c-4a4e-974d1b18d26e
f 225/719/197 227/720/197 228/721/197 226/722/197
f 227/723/198 229/724/198 230/725/198 228/726/198
f 229/727/199 231/728/199 232/729/199 230/730/199
f 231/731/200 233/732/200 234/733/200 232/734/200
f 233/735/201 235/736/201 236/737/201 234/738/201
f 235/739/202 237/740/202 238/741/202 236/742/202
f 237/743/203 239/744/203 240/745/203 238/746/203
o shade
v 0.10156249999999999 0.45653641014371416 0.09375
v 0.10156249999999999 0.45653641014371416 0.15625
v 0.10156249999999999 0.510963589856286 0.09375
v 0.10156249999999999 0.510963589856286 0.171875
v 0.0743489101437141 0.5580989101437142 0.09374999999999999
v 0.0743489101437141 0.5580989101437142 0.18749999999999997
v 0.027213589856285924 0.5853125 0.09374999999999997
v 0.027213589856285924 0.5853125 0.20312499999999997
v -0.027213589856285855 0.5853125 0.09374999999999997
v -0.027213589856285855 0.5853125000000001 0.20312499999999997
v -0.07434891014371409 0.5580989101437142 0.09374999999999999
v -0.07434891014371409 0.5580989101437142 0.18749999999999997
v -0.10156249999999999 0.5109635898562859 0.09375
v -0.10156249999999999 0.510963589856286 0.171875
v -0.10156250000000001 0.45653641014371416 0.09375
v -0.10156250000000001 0.4565364101437142 0.15625
vt 0.30859375 0.3359375
vt 0.30859375 0.296875
vt 0.33580625 0.296875
vt 0.33580625 0.328125
vt 0.28138125 0.34375
vt 0.28138125 0.296875
vt 0.30859375 0.296875
vt 0.30859375 0.3359375
vt 0.679621875 0.78125
vt 0.679621875 0.7265625
vt 0.706834375 0.7265625
vt 0.706834375 0.7734375
vt 0.652409375 0.78125
vt 0.652409375 0.7265625
vt 0.679621875 0.7265625
vt 0.679621875 0.78125
vt 0.625196875 0.7734375
vt 0.625196875 0.7265625
vt 0.652409375 0.7265625
vt 0.652409375 0.78125
vt 0.52734375 0.3359375
vt 0.52734375 0.296875
vt 0.55455625 0.296875
vt 0.55455625 0.34375
vt 0.50013125 0.328125
vt 0.50013125 0.296875
vt 0.52734375 0.296875
vt 0.52734375 0.3359375
vn -1 0 0
vn -0.8660254037844388 -0.4999999999999999 1.1102230246251563e-16
vn -0.5000000000000001 -0.8660254037844388 1.9229626863835643e-16
vn -5.099579982318619e-16 -1 3.489272363107635e-16
vn 0.5 -0.8660254037844387 3.2049378106392735e-16
vn 0.8660254037844388 -0.5 1.7763568394002506e-16
vn 1 -5.099579982318624e-16 2.264668444915074e-31
usemtl m_7f2020ae-d844-bc1c-4a4e-974d1b18d26e
f 244/747/204 243/748/204 241/749/204 242/750/204
f 246/751/205 245/752/205 243/753/205 244/754/205
f 248/755/206 247/756/206 245/757/206 246/758/206
f 250/759/207 249/760/207 247/761/207 248/762/207
f 252/763/208 251/764/208 249/765/208 250/766/208
f 254/767/209 253/768/209 251/769/209 252/770/209
f 256/771/210 255/772/210 253/773/210 254/774/210