# Made in Blockbench 5.1.6
mtllib dc_metro_roof_f3l_light_layer.mtl

o part3l
v 1.1085043749999999 0.38430374999999994 0.032033750000001415
v 0.9184856250000002 0.769014375 0.07725437500000121
v 0.9417599999999999 0.769014375 0.06969187500000107
v 0.90625 0.78125 1.1102230246251565e-15
v 0.9295237499999998 0.733504375 0.14694625000000117
v 0.97379375 0.733504375 0.13256187500000105
v 0.9382837499999999 0.6781962500000001 0.2022543750000012
v 0.9992162499999997 0.6781962500000001 0.1824562500000011
v 0.9439081249999999 0.608504375 0.23776437500000114
v 1.0155381249999997 0.608504375 0.21449000000000118
v 0.9458462499999998 0.53125 0.2500000000000011
v 1.0211624999999998 0.53125 0.2255281250000012
v 0.9439081249999999 0.453995625 0.23776437500000114
v 1.0155381249999997 0.453995625 0.21449000000000118
v 0.9382837499999999 0.38430374999999994 0.2022543750000012
v 0.9992162499999997 0.38430374999999994 0.1824562500000011
v 0.9295237499999998 0.328995625 0.14694625000000117
v 0.97379375 0.328995625 0.13256187500000105
v 0.9184856250000002 0.29348562499999997 0.07725437500000121
v 0.9417599999999999 0.29348562499999997 0.06969187500000107
v 0.90625 0.28125 1.1102230246251565e-15
v 0.9615581249999998 0.769014375 0.05530812500000115
v 1.011451875 0.733504375 0.105201875000001
v 1.0510481249999997 0.6781962500000001 0.14479812500000122
v 1.0764706249999996 0.608504375 0.17022062500000112
v 1.08523 0.53125 0.17898000000000103
v 1.0764706249999996 0.453995625 0.17022062500000112
v 1.0510481249999997 0.38430374999999994 0.14479812500000122
v 1.011451875 0.328995625 0.105201875000001
v 0.9615581249999998 0.29348562499999997 0.05530812500000115
v 0.9759418750000002 0.769014375 0.03551000000000104
v 1.038811875 0.733504375 0.06754375000000135
v 1.08870625 0.6781962500000001 0.09296625000000125
v 1.1207399999999998 0.608504375 0.10928812500000129
v 1.1317781249999996 0.53125 0.1149125000000013
v 1.1207399999999998 0.453995625 0.10928812500000129
v 1.08870625 0.38430374999999994 0.09296625000000125
v 1.038811875 0.328995625 0.06754375000000135
v 0.9759418750000002 0.29348562499999997 0.03551000000000104
v 0.9835043749999999 0.769014375 0.012235625000001082
v 1.05319625 0.733504375 0.023273750000001314
v 1.1085043749999999 0.6781962500000001 0.032033750000001415
v 1.1440143749999998 0.608504375 0.03765812500000143
v 1.15625 0.53125 0.03959625000000133
v 1.1440143749999998 0.453995625 0.03765812500000143
v 1.05319625 0.328995625 0.023273750000001314
v 0.9835043749999999 0.29348562499999997 0.012235625000001082
v 0.9835043749999999 0.769014375 -0.012235624999998862
v 1.05319625 0.733504375 -0.02327374999999865
v 1.1085043749999999 0.6781962500000001 -0.03203374999999875
v 1.1440143749999998 0.608504375 -0.037658124999998766
v 1.15625 0.53125 -0.03959624999999867
v 1.1440143749999998 0.453995625 -0.037658124999998766
v 1.1085043749999999 0.38430374999999994 -0.03203374999999875
v 1.05319625 0.328995625 -0.02327374999999865
v 0.9835043749999999 0.29348562499999997 -0.012235624999998862
v 0.9759418750000002 0.769014375 -0.03550999999999904
v 1.038811875 0.733504375 -0.06754374999999868
v 1.08870625 0.6781962500000001 -0.0929662499999988
v 1.1207400000000003 0.608504375 -0.10928812499999863
v 1.131778125 0.53125 -0.11491249999999864
v 1.1207400000000003 0.453995625 -0.10928812499999863
v 1.08870625 0.38430374999999994 -0.0929662499999988
v 1.038811875 0.328995625 -0.06754374999999868
v 0.9759418750000002 0.29348562499999997 -0.03550999999999904
v 0.9615581249999998 0.769014375 -0.05530812499999893
v 1.0114518750000003 0.733504375 -0.10520187499999878
v 1.051048125 0.6781962500000001 -0.14479812499999878
v 1.076470625 0.608504375 -0.1702206249999989
v 1.0852300000000004 0.53125 -0.1789799999999988
v 1.076470625 0.453995625 -0.1702206249999989
v 1.051048125 0.38430374999999994 -0.14479812499999878
v 1.0114518750000003 0.328995625 -0.10520187499999878
v 0.9615581249999998 0.29348562499999997 -0.05530812499999893
v 0.9417599999999999 0.769014375 -0.06969187499999885
v 0.97379375 0.733504375 -0.13256187499999905
v 0.9992162500000001 0.6781962500000001 -0.18245624999999888
v 1.0155381250000002 0.608504375 -0.21448999999999874
v 1.0211625000000002 0.53125 -0.22552812499999875
v 1.0155381250000002 0.453995625 -0.21448999999999874
v 0.9992162500000001 0.38430374999999994 -0.18245624999999888
v 0.97379375 0.328995625 -0.13256187499999905
v 0.9417599999999999 0.29348562499999997 -0.06969187499999885
v 0.9184856250000002 0.769014375 -0.07725437499999899
v 0.9295237500000002 0.733504375 -0.14694624999999895
v 0.9382837500000003 0.6781962500000001 -0.202254374999999
v 0.9439081250000003 0.608504375 -0.23776437499999892
v 0.9458462500000007 0.53125 -0.2499999999999989
v 0.9439081250000003 0.453995625 -0.23776437499999892
v 0.9382837500000003 0.38430374999999994 -0.202254374999999
v 0.9295237500000002 0.328995625 -0.14694624999999895
v 0.9184856250000002 0.29348562499999997 -0.07725437499999899
v 0.8940143749999998 0.769014375 -0.07725437499999899
v 0.8829762500000002 0.733504375 -0.14694624999999895
v 0.8742162500000001 0.6781962500000001 -0.202254374999999
v 0.8685918750000001 0.608504375 -0.23776437499999892
v 0.8666537500000002 0.53125 -0.2499999999999991
v 0.8685918750000001 0.453995625 -0.23776437499999892
v 0.8742162500000001 0.38430374999999994 -0.202254374999999
v 0.8829762500000002 0.328995625 -0.14694624999999895
v 0.8940143749999998 0.29348562499999997 -0.07725437499999899
v 0.8707400000000001 0.769014375 -0.06969187499999885
v 0.83870625 0.733504375 -0.13256187499999905
v 0.8132837500000003 0.6781962500000001 -0.1824562499999991
v 0.7969618750000003 0.608504375 -0.21448999999999918
v 0.7913375000000002 0.53125 -0.22552812499999897
v 0.7969618750000003 0.453995625 -0.21448999999999918
v 0.8132837500000003 0.38430374999999994 -0.1824562499999991
v 0.83870625 0.328995625 -0.13256187499999905
v 0.8707400000000001 0.29348562499999997 -0.06969187499999885
v 0.8509418750000002 0.769014375 -0.05530812499999893
v 0.8010481249999999 0.733504375 -0.10520187499999922
v 0.7614518750000001 0.6781962500000001 -0.144798124999999
v 0.7360293750000004 0.608504375 -0.17022062499999913
v 0.7272700000000001 0.53125 -0.17897999999999925
v 0.7360293750000004 0.453995625 -0.17022062499999913
v 0.7614518750000001 0.38430374999999994 -0.144798124999999
v 0.8010481249999999 0.328995625 -0.10520187499999922
v 0.8509418750000002 0.29348562499999997 -0.05530812499999893
v 0.8365581249999998 0.769014375 -0.03550999999999904
v 0.7736881250000001 0.733504375 -0.06754374999999913
v 0.72379375 0.6781962500000001 -0.09296624999999925
v 0.6917599999999999 0.608504375 -0.10928812499999907
v 0.6807218750000001 0.53125 -0.11491249999999908
v 0.6917599999999999 0.453995625 -0.10928812499999907
v 0.72379375 0.38430374999999994 -0.09296624999999925
v 0.7736881250000001 0.328995625 -0.06754374999999913
v 0.8365581249999998 0.29348562499999997 -0.03550999999999904
v 0.8289956250000001 0.769014375 -0.012235624999999084
v 0.7593037499999999 0.733504375 -0.023273749999999094
v 0.7039956250000001 0.6781962500000001 -0.032033749999999195
v 0.6684856250000002 0.608504375 -0.03765812499999921
v 0.65625 0.53125 -0.03959624999999933
v 0.6684856250000002 0.453995625 -0.03765812499999921
v 0.7039956250000001 0.38430374999999994 -0.032033749999999195
v 0.7593037499999999 0.328995625 -0.023273749999999094
v 0.8289956250000001 0.29348562499999997 -0.012235624999999084
v 0.8289956250000001 0.769014375 0.01223562500000086
v 0.7593037499999999 0.733504375 0.02327375000000087
v 0.7039956250000001 0.6781962500000001 0.03203375000000097
v 0.6684856250000002 0.608504375 0.037658125000000986
v 0.65625 0.53125 0.039596250000000666
v 0.6684856250000002 0.453995625 0.037658125000000986
v 0.7039956250000001 0.38430374999999994 0.03203375000000097
v 0.7593037499999999 0.328995625 0.02327375000000087
v 0.8289956250000001 0.29348562499999997 0.01223562500000086
v 0.8365581249999998 0.769014375 0.03551000000000082
v 0.7736881250000001 0.733504375 0.0675437500000009
v 0.72379375 0.6781962500000001 0.0929662500000008
v 0.6917599999999999 0.608504375 0.10928812500000085
v 0.6807218750000001 0.53125 0.11491250000000086
v 0.6917599999999999 0.453995625 0.10928812500000085
v 0.72379375 0.38430374999999994 0.0929662500000008
v 0.7736881250000001 0.328995625 0.0675437500000009
v 0.8365581249999998 0.29348562499999997 0.03551000000000082
v 0.8509418750000002 0.769014375 0.05530812500000115
v 0.8010481249999999 0.733504375 0.10520187500000078
v 0.7614518750000001 0.6781962500000001 0.144798125000001
v 0.736029375 0.608504375 0.1702206250000009
v 0.7272699999999996 0.53125 0.1789800000000008
v 0.736029375 0.453995625 0.1702206250000009
v 0.7614518750000001 0.38430374999999994 0.144798125000001
v 0.8010481249999999 0.328995625 0.10520187500000078
v 0.8509418750000002 0.29348562499999997 0.05530812500000115
v 0.8707400000000001 0.769014375 0.06969187500000107
v 0.83870625 0.733504375 0.13256187500000083
v 0.8132837499999999 0.6781962500000001 0.18245625000000087
v 0.7969618749999998 0.608504375 0.21449000000000096
v 0.7913374999999998 0.53125 0.22552812500000097
v 0.7969618749999998 0.453995625 0.21449000000000096
v 0.8132837499999999 0.38430374999999994 0.18245625000000087
v 0.83870625 0.328995625 0.13256187500000083
v 0.8707400000000001 0.29348562499999997 0.06969187500000107
v 0.8940143749999998 0.769014375 0.07725437500000121
v 0.8829762499999998 0.733504375 0.14694625000000094
v 0.8742162499999997 0.6781962500000001 0.2022543750000011
v 0.8685918749999997 0.608504375 0.23776437500000103
v 0.8666537499999993 0.53125 0.250000000000001
v 0.8685918749999997 0.453995625 0.23776437500000103
v 0.8742162499999997 0.38430374999999994 0.2022543750000011
v 0.8829762499999998 0.328995625 0.14694625000000094
v 0.8940143749999998 0.29348562499999997 0.07725437500000121
vt 0.375 0.23428749999999998
vt 0.399475 0.23428749999999998
vt 0.3872375 0.3125
vt 0.3860375 0.3125
vt 0.375 0.23428749999999998
vt 0.42155 0.23428749999999998
vt 0.4105125 0.3125
vt 0.38375625 0.3125
vt 0.375 0.23428749999999998
vt 0.4390625 0.23428749999999998
vt 0.43030625 0.3125
vt 0.380625 0.3125
vt 0.375 0.23428749999999998
vt 0.4503125 0.23428749999999998
vt 0.4446875 0.3125
vt 0.3769375 0.3125
vt 0.375 0.23428749999999998
vt 0.4541875 0.23428749999999998
vt 0.45225 0.3125
vt 0.375 0.3125
vt 0.3769375 0.23428749999999998
vt 0.45225 0.23428749999999998
vt 0.4541875 0.3125
vt 0.375 0.3125
vt 0.380625 0.23428749999999998
vt 0.4446875 0.23428749999999998
vt 0.4503125 0.3125
vt 0.375 0.3125
vt 0.38375625 0.23428749999999998
vt 0.43030625 0.23428749999999998
vt 0.4390625 0.3125
vt 0.375 0.3125
vt 0.3860375 0.23428749999999998
vt 0.4105125 0.23428749999999998
vt 0.42155 0.3125
vt 0.399475 0.3125
vt 0.375 0.3125
vt 0.3872375 0.23428749999999998
vt 0.375 0.23428749999999998
vt 0.399475 0.23428749999999998
vt 0.3872375 0.3125
vt 0.3860375 0.3125
vt 0.375 0.23428749999999998
vt 0.42155 0.23428749999999998
vt 0.4105125 0.3125
vt 0.38375625 0.3125
vt 0.375 0.23428749999999998
vt 0.4390625 0.23428749999999998
vt 0.43030625 0.3125
vt 0.380625 0.3125
vt 0.375 0.23428749999999998
vt 0.4503125 0.23428749999999998
vt 0.4446875 0.3125
vt 0.3769375 0.3125
vt 0.375 0.23428749999999998
vt 0.4541875 0.23428749999999998
vt 0.45225 0.3125
vt 0.375 0.3125
vt 0.3769375 0.23428749999999998
vt 0.45225 0.23428749999999998
vt 0.4541875 0.3125
vt 0.375 0.3125
vt 0.380625 0.23428749999999998
vt 0.4446875 0.23428749999999998
vt 0.4503125 0.3125
vt 0.375 0.3125
vt 0.38375625 0.23428749999999998
vt 0.43030625 0.23428749999999998
vt 0.4390625 0.3125
vt 0.375 0.3125
vt 0.3860375 0.23428749999999998
vt 0.4105125 0.23428749999999998
vt 0.42155 0.3125
vt 0.399475 0.3125
vt 0.375 0.3125
vt 0.3872375 0.23428749999999998
vt 0.375 0.23428749999999998
vt 0.399475 0.23428749999999998
vt 0.3872375 0.3125
vt 0.3860375 0.3125
vt 0.375 0.23428749999999998
vt 0.42155 0.23428749999999998
vt 0.4105125 0.3125
vt 0.38375625 0.3125
vt 0.375 0.23428749999999998
vt 0.4390625 0.23428749999999998
vt 0.43030625 0.3125
vt 0.380625 0.3125
vt 0.375 0.23428749999999998
vt 0.4503125 0.23428749999999998
vt 0.4446875 0.3125
vt 0.3769375 0.3125
vt 0.375 0.23428749999999998
vt 0.4541875 0.23428749999999998
vt 0.45225 0.3125
vt 0.375 0.3125
vt 0.3769375 0.23428749999999998
vt 0.45225 0.23428749999999998
vt 0.4541875 0.3125
vt 0.375 0.3125
vt 0.380625 0.23428749999999998
vt 0.4446875 0.23428749999999998
vt 0.4503125 0.3125
vt 0.375 0.3125
vt 0.38375625 0.23428749999999998
vt 0.43030625 0.23428749999999998
vt 0.4390625 0.3125
vt 0.375 0.3125
vt 0.3860375 0.23428749999999998
vt 0.4105125 0.23428749999999998
vt 0.42155 0.3125
vt 0.399475 0.3125
vt 0.375 0.3125
vt 0.3872375 0.23428749999999998
vt 0.375 0.23428749999999998
vt 0.399475 0.23428749999999998
vt 0.3872375 0.3125
vt 0.3860375 0.3125
vt 0.375 0.23428749999999998
vt 0.42155 0.23428749999999998
vt 0.4105125 0.3125
vt 0.38375625 0.3125
vt 0.375 0.23428749999999998
vt 0.4390625 0.23428749999999998
vt 0.43030625 0.3125
vt 0.380625 0.3125
vt 0.375 0.23428749999999998
vt 0.4503125 0.23428749999999998
vt 0.4446875 0.3125
vt 0.3769375 0.3125
vt 0.375 0.23428749999999998
vt 0.4541875 0.23428749999999998
vt 0.45225 0.3125
vt 0.375 0.3125
vt 0.3769375 0.23428749999999998
vt 0.45225 0.23428749999999998
vt 0.4541875 0.3125
vt 0.375 0.3125
vt 0.380625 0.23428749999999998
vt 0.4446875 0.23428749999999998
vt 0.4503125 0.3125
vt 0.375 0.3125
vt 0.38375625 0.23428749999999998
vt 0.43030625 0.23428749999999998
vt 0.4390625 0.3125
vt 0.375 0.3125
vt 0.3860375 0.23428749999999998
vt 0.4105125 0.23428749999999998
vt 0.42155 0.3125
vt 0.399475 0.3125
vt 0.375 0.3125
vt 0.3872375 0.23428749999999998
vt 0.375 0.23428749999999998
vt 0.399475 0.23428749999999998
vt 0.3872375 0.3125
vt 0.3860375 0.3125
vt 0.375 0.23428749999999998
vt 0.42155 0.23428749999999998
vt 0.4105125 0.3125
vt 0.38375625 0.3125
vt 0.375 0.23428749999999998
vt 0.4390625 0.23428749999999998
vt 0.43030625 0.3125
vt 0.380625 0.3125
vt 0.375 0.23428749999999998
vt 0.4503125 0.23428749999999998
vt 0.4446875 0.3125
vt 0.3769375 0.3125
vt 0.375 0.23428749999999998
vt 0.4541875 0.23428749999999998
vt 0.45225 0.3125
vt 0.375 0.3125
vt 0.3769375 0.23428749999999998
vt 0.45225 0.23428749999999998
vt 0.4541875 0.3125
vt 0.375 0.3125
vt 0.380625 0.23428749999999998
vt 0.4446875 0.23428749999999998
vt 0.4503125 0.3125
vt 0.375 0.3125
vt 0.38375625 0.23428749999999998
vt 0.43030625 0.23428749999999998
vt 0.4390625 0.3125
vt 0.375 0.3125
vt 0.3860375 0.23428749999999998
vt 0.4105125 0.23428749999999998
vt 0.42155 0.3125
vt 0.399475 0.3125
vt 0.375 0.3125
vt 0.3872375 0.23428749999999998
vt 0.375 0.23428749999999998
vt 0.399475 0.23428749999999998
vt 0.3872375 0.3125
vt 0.3860375 0.3125
vt 0.375 0.23428749999999998
vt 0.42155 0.23428749999999998
vt 0.4105125 0.3125
vt 0.38375625 0.3125
vt 0.375 0.23428749999999998
vt 0.4390625 0.23428749999999998
vt 0.43030625 0.3125
vt 0.380625 0.3125
vt 0.375 0.23428749999999998
vt 0.4503125 0.23428749999999998
vt 0.4446875 0.3125
vt 0.3769375 0.3125
vt 0.375 0.23428749999999998
vt 0.4541875 0.23428749999999998
vt 0.45225 0.3125
vt 0.375 0.3125
vt 0.3769375 0.23428749999999998
vt 0.45225 0.23428749999999998
vt 0.4541875 0.3125
vt 0.375 0.3125
vt 0.380625 0.23428749999999998
vt 0.4446875 0.23428749999999998
vt 0.4503125 0.3125
vt 0.375 0.3125
vt 0.38375625 0.23428749999999998
vt 0.43030625 0.23428749999999998
vt 0.4390625 0.3125
vt 0.375 0.3125
vt 0.3860375 0.23428749999999998
vt 0.4105125 0.23428749999999998
vt 0.42155 0.3125
vt 0.399475 0.3125
vt 0.375 0.3125
vt 0.3872375 0.23428749999999998
vt 0.375 0.23428749999999998
vt 0.399475 0.23428749999999998
vt 0.3872375 0.3125
vt 0.3860375 0.3125
vt 0.375 0.23428749999999998
vt 0.42155 0.23428749999999998
vt 0.4105125 0.3125
vt 0.38375625 0.3125
vt 0.375 0.23428749999999998
vt 0.4390625 0.23428749999999998
vt 0.43030625 0.3125
vt 0.380625 0.3125
vt 0.375 0.23428749999999998
vt 0.4503125 0.23428749999999998
vt 0.4446875 0.3125
vt 0.3769375 0.3125
vt 0.375 0.23428749999999998
vt 0.4541875 0.23428749999999998
vt 0.45225 0.3125
vt 0.375 0.3125
vt 0.3769375 0.23428749999999998
vt 0.45225 0.23428749999999998
vt 0.4541875 0.3125
vt 0.375 0.3125
vt 0.380625 0.23428749999999998
vt 0.4446875 0.23428749999999998
vt 0.4503125 0.3125
vt 0.375 0.3125
vt 0.38375625 0.23428749999999998
vt 0.43030625 0.23428749999999998
vt 0.4390625 0.3125
vt 0.375 0.3125
vt 0.3860375 0.23428749999999998
vt 0.4105125 0.23428749999999998
vt 0.42155 0.3125
vt 0.399475 0.3125
vt 0.375 0.3125
vt 0.3872375 0.23428749999999998
vt 0.375 0.23428749999999998
vt 0.399475 0.23428749999999998
vt 0.3872375 0.3125
vt 0.3860375 0.3125
vt 0.375 0.23428749999999998
vt 0.42155 0.23428749999999998
vt 0.4105125 0.3125
vt 0.38375625 0.3125
vt 0.375 0.23428749999999998
vt 0.4390625 0.23428749999999998
vt 0.43030625 0.3125
vt 0.380625 0.3125
vt 0.375 0.23428749999999998
vt 0.4503125 0.23428749999999998
vt 0.4446875 0.3125
vt 0.3769375 0.3125
vt 0.375 0.23428749999999998
vt 0.4541875 0.23428749999999998
vt 0.45225 0.3125
vt 0.375 0.3125
vt 0.3769375 0.23428749999999998
vt 0.45225 0.23428749999999998
vt 0.4541875 0.3125
vt 0.375 0.3125
vt 0.380625 0.23428749999999998
vt 0.4446875 0.23428749999999998
vt 0.4503125 0.3125
vt 0.375 0.3125
vt 0.38375625 0.23428749999999998
vt 0.43030625 0.23428749999999998
vt 0.4390625 0.3125
vt 0.375 0.3125
vt 0.3860375 0.23428749999999998
vt 0.4105125 0.23428749999999998
vt 0.42155 0.3125
vt 0.399475 0.3125
vt 0.375 0.3125
vt 0.3872375 0.23428749999999998
vt 0.375 0.23428749999999998
vt 0.399475 0.23428749999999998
vt 0.3872375 0.3125
vt 0.3860375 0.3125
vt 0.375 0.23428749999999998
vt 0.42155 0.23428749999999998
vt 0.4105125 0.3125
vt 0.38375625 0.3125
vt 0.375 0.23428749999999998
vt 0.4390625 0.23428749999999998
vt 0.43030625 0.3125
vt 0.380625 0.3125
vt 0.375 0.23428749999999998
vt 0.4503125 0.23428749999999998
vt 0.4446875 0.3125
vt 0.3769375 0.3125
vt 0.375 0.23428749999999998
vt 0.4541875 0.23428749999999998
vt 0.45225 0.3125
vt 0.375 0.3125
vt 0.3769375 0.23428749999999998
vt 0.45225 0.23428749999999998
vt 0.4541875 0.3125
vt 0.375 0.3125
vt 0.380625 0.23428749999999998
vt 0.4446875 0.23428749999999998
vt 0.4503125 0.3125
vt 0.375 0.3125
vt 0.38375625 0.23428749999999998
vt 0.43030625 0.23428749999999998
vt 0.4390625 0.3125
vt 0.375 0.3125
vt 0.3860375 0.23428749999999998
vt 0.4105125 0.23428749999999998
vt 0.42155 0.3125
vt 0.399475 0.3125
vt 0.375 0.3125
vt 0.3872375 0.23428749999999998
vt 0.375 0.23428749999999998
vt 0.399475 0.23428749999999998
vt 0.3872375 0.3125
vt 0.3860375 0.3125
vt 0.375 0.23428749999999998
vt 0.42155 0.23428749999999998
vt 0.4105125 0.3125
vt 0.38375625 0.3125
vt 0.375 0.23428749999999998
vt 0.4390625 0.23428749999999998
vt 0.43030625 0.3125
vt 0.380625 0.3125
vt 0.375 0.23428749999999998
vt 0.4503125 0.23428749999999998
vt 0.4446875 0.3125
vt 0.3769375 0.3125
vt 0.375 0.23428749999999998
vt 0.4541875 0.23428749999999998
vt 0.45225 0.3125
vt 0.375 0.3125
vt 0.3769375 0.23428749999999998
vt 0.45225 0.23428749999999998
vt 0.4541875 0.3125
vt 0.375 0.3125
vt 0.380625 0.23428749999999998
vt 0.4446875 0.23428749999999998
vt 0.4503125 0.3125
vt 0.375 0.3125
vt 0.38375625 0.23428749999999998
vt 0.43030625 0.23428749999999998
vt 0.4390625 0.3125
vt 0.375 0.3125
vt 0.3860375 0.23428749999999998
vt 0.4105125 0.23428749999999998
vt 0.42155 0.3125
vt 0.399475 0.3125
vt 0.375 0.3125
vt 0.3872375 0.23428749999999998
vt 0.375 0.23428749999999998
vt 0.399475 0.23428749999999998
vt 0.3872375 0.3125
vt 0.3860375 0.3125
vt 0.375 0.23428749999999998
vt 0.42155 0.23428749999999998
vt 0.4105125 0.3125
vt 0.38375625 0.3125
vt 0.375 0.23428749999999998
vt 0.4390625 0.23428749999999998
vt 0.43030625 0.3125
vt 0.380625 0.3125
vt 0.375 0.23428749999999998
vt 0.4503125 0.23428749999999998
vt 0.4446875 0.3125
vt 0.3769375 0.3125
vt 0.375 0.23428749999999998
vt 0.4541875 0.23428749999999998
vt 0.45225 0.3125
vt 0.375 0.3125
vt 0.3769375 0.23428749999999998
vt 0.45225 0.23428749999999998
vt 0.4541875 0.3125
vt 0.375 0.3125
vt 0.380625 0.23428749999999998
vt 0.4446875 0.23428749999999998
vt 0.4503125 0.3125
vt 0.375 0.3125
vt 0.38375625 0.23428749999999998
vt 0.43030625 0.23428749999999998
vt 0.4390625 0.3125
vt 0.375 0.3125
vt 0.3860375 0.23428749999999998
vt 0.4105125 0.23428749999999998
vt 0.42155 0.3125
vt 0.399475 0.3125
vt 0.375 0.3125
vt 0.3872375 0.23428749999999998
vt 0.375 0.23428749999999998
vt 0.399475 0.23428749999999998
vt 0.3872375 0.3125
vt 0.3860375 0.3125
vt 0.375 0.23428749999999998
vt 0.42155 0.23428749999999998
vt 0.4105125 0.3125
vt 0.38375625 0.3125
vt 0.375 0.23428749999999998
vt 0.4390625 0.23428749999999998
vt 0.43030625 0.3125
vt 0.380625 0.3125
vt 0.375 0.23428749999999998
vt 0.4503125 0.23428749999999998
vt 0.4446875 0.3125
vt 0.3769375 0.3125
vt 0.375 0.23428749999999998
vt 0.4541875 0.23428749999999998
vt 0.45225 0.3125
vt 0.375 0.3125
vt 0.3769375 0.23428749999999998
vt 0.45225 0.23428749999999998
vt 0.4541875 0.3125
vt 0.375 0.3125
vt 0.380625 0.23428749999999998
vt 0.4446875 0.23428749999999998
vt 0.4503125 0.3125
vt 0.375 0.3125
vt 0.38375625 0.23428749999999998
vt 0.43030625 0.23428749999999998
vt 0.4390625 0.3125
vt 0.375 0.3125
vt 0.3860375 0.23428749999999998
vt 0.4105125 0.23428749999999998
vt 0.42155 0.3125
vt 0.399475 0.3125
vt 0.375 0.3125
vt 0.3872375 0.23428749999999998
vt 0.375 0.23428749999999998
vt 0.399475 0.23428749999999998
vt 0.3872375 0.3125
vt 0.3860375 0.3125
vt 0.375 0.23428749999999998
vt 0.42155 0.23428749999999998
vt 0.4105125 0.3125
vt 0.38375625 0.3125
vt 0.375 0.23428749999999998
vt 0.4390625 0.23428749999999998
vt 0.43030625 0.3125
vt 0.380625 0.3125
vt 0.375 0.23428749999999998
vt 0.4503125 0.23428749999999998
vt 0.4446875 0.3125
vt 0.3769375 0.3125
vt 0.375 0.23428749999999998
vt 0.4541875 0.23428749999999998
vt 0.45225 0.3125
vt 0.375 0.3125
vt 0.3769375 0.23428749999999998
vt 0.45225 0.23428749999999998
vt 0.4541875 0.3125
vt 0.375 0.3125
vt 0.380625 0.23428749999999998
vt 0.4446875 0.23428749999999998
vt 0.4503125 0.3125
vt 0.375 0.3125
vt 0.38375625 0.23428749999999998
vt 0.43030625 0.23428749999999998
vt 0.4390625 0.3125
vt 0.375 0.3125
vt 0.3860375 0.23428749999999998
vt 0.4105125 0.23428749999999998
vt 0.42155 0.3125
vt 0.399475 0.3125
vt 0.375 0.3125
vt 0.3872375 0.23428749999999998
vt 0.375 0.23428749999999998
vt 0.399475 0.23428749999999998
vt 0.3872375 0.3125
vt 0.3860375 0.3125
vt 0.375 0.23428749999999998
vt 0.42155 0.23428749999999998
vt 0.4105125 0.3125
vt 0.38375625 0.3125
vt 0.375 0.23428749999999998
vt 0.4390625 0.23428749999999998
vt 0.43030625 0.3125
vt 0.380625 0.3125
vt 0.375 0.23428749999999998
vt 0.4503125 0.23428749999999998
vt 0.4446875 0.3125
vt 0.3769375 0.3125
vt 0.375 0.23428749999999998
vt 0.4541875 0.23428749999999998
vt 0.45225 0.3125
vt 0.375 0.3125
vt 0.3769375 0.23428749999999998
vt 0.45225 0.23428749999999998
vt 0.4541875 0.3125
vt 0.375 0.3125
vt 0.380625 0.23428749999999998
vt 0.4446875 0.23428749999999998
vt 0.4503125 0.3125
vt 0.375 0.3125
vt 0.38375625 0.23428749999999998
vt 0.43030625 0.23428749999999998
vt 0.4390625 0.3125
vt 0.375 0.3125
vt 0.3860375 0.23428749999999998
vt 0.4105125 0.23428749999999998
vt 0.42155 0.3125
vt 0.399475 0.3125
vt 0.375 0.3125
vt 0.3872375 0.23428749999999998
vt 0.375 0.23428749999999998
vt 0.399475 0.23428749999999998
vt 0.3872375 0.3125
vt 0.3860375 0.3125
vt 0.375 0.23428749999999998
vt 0.42155 0.23428749999999998
vt 0.4105125 0.3125
vt 0.38375625 0.3125
vt 0.375 0.23428749999999998
vt 0.4390625 0.23428749999999998
vt 0.43030625 0.3125
vt 0.380625 0.3125
vt 0.375 0.23428749999999998
vt 0.4503125 0.23428749999999998
vt 0.4446875 0.3125
vt 0.3769375 0.3125
vt 0.375 0.23428749999999998
vt 0.4541875 0.23428749999999998
vt 0.45225 0.3125
vt 0.375 0.3125
vt 0.3769375 0.23428749999999998
vt 0.45225 0.23428749999999998
vt 0.4541875 0.3125
vt 0.375 0.3125
vt 0.380625 0.23428749999999998
vt 0.4446875 0.23428749999999998
vt 0.4503125 0.3125
vt 0.375 0.3125
vt 0.38375625 0.23428749999999998
vt 0.43030625 0.23428749999999998
vt 0.4390625 0.3125
vt 0.375 0.3125
vt 0.3860375 0.23428749999999998
vt 0.4105125 0.23428749999999998
vt 0.42155 0.3125
vt 0.399475 0.3125
vt 0.375 0.3125
vt 0.3872375 0.23428749999999998
vt 0.375 0.23428749999999998
vt 0.399475 0.23428749999999998
vt 0.3872375 0.3125
vt 0.3860375 0.3125
vt 0.375 0.23428749999999998
vt 0.42155 0.23428749999999998
vt 0.4105125 0.3125
vt 0.38375625 0.3125
vt 0.375 0.23428749999999998
vt 0.4390625 0.23428749999999998
vt 0.43030625 0.3125
vt 0.380625 0.3125
vt 0.375 0.23428749999999998
vt 0.4503125 0.23428749999999998
vt 0.4446875 0.3125
vt 0.3769375 0.3125
vt 0.375 0.23428749999999998
vt 0.4541875 0.23428749999999998
vt 0.45225 0.3125
vt 0.375 0.3125
vt 0.3769375 0.23428749999999998
vt 0.45225 0.23428749999999998
vt 0.4541875 0.3125
vt 0.375 0.3125
vt 0.380625 0.23428749999999998
vt 0.4446875 0.23428749999999998
vt 0.4503125 0.3125
vt 0.375 0.3125
vt 0.38375625 0.23428749999999998
vt 0.43030625 0.23428749999999998
vt 0.4390625 0.3125
vt 0.375 0.3125
vt 0.3860375 0.23428749999999998
vt 0.4105125 0.23428749999999998
vt 0.42155 0.3125
vt 0.399475 0.3125
vt 0.375 0.3125
vt 0.3872375 0.23428749999999998
vt 0.375 0.23428749999999998
vt 0.399475 0.23428749999999998
vt 0.3872375 0.3125
vt 0.3860375 0.3125
vt 0.375 0.23428749999999998
vt 0.42155 0.23428749999999998
vt 0.4105125 0.3125
vt 0.38375625 0.3125
vt 0.375 0.23428749999999998
vt 0.4390625 0.23428749999999998
vt 0.43030625 0.3125
vt 0.380625 0.3125
vt 0.375 0.23428749999999998
vt 0.4503125 0.23428749999999998
vt 0.4446875 0.3125
vt 0.3769375 0.3125
vt 0.375 0.23428749999999998
vt 0.4541875 0.23428749999999998
vt 0.45225 0.3125
vt 0.375 0.3125
vt 0.3769375 0.23428749999999998
vt 0.45225 0.23428749999999998
vt 0.4541875 0.3125
vt 0.375 0.3125
vt 0.380625 0.23428749999999998
vt 0.4446875 0.23428749999999998
vt 0.4503125 0.3125
vt 0.375 0.3125
vt 0.38375625 0.23428749999999998
vt 0.43030625 0.23428749999999998
vt 0.4390625 0.3125
vt 0.375 0.3125
vt 0.3860375 0.23428749999999998
vt 0.4105125 0.23428749999999998
vt 0.42155 0.3125
vt 0.399475 0.3125
vt 0.375 0.3125
vt 0.3872375 0.23428749999999998
vt 0.375 0.23428749999999998
vt 0.399475 0.23428749999999998
vt 0.3872375 0.3125
vt 0.3860375 0.3125
vt 0.375 0.23428749999999998
vt 0.42155 0.23428749999999998
vt 0.4105125 0.3125
vt 0.38375625 0.3125
vt 0.375 0.23428749999999998
vt 0.4390625 0.23428749999999998
vt 0.43030625 0.3125
vt 0.380625 0.3125
vt 0.375 0.23428749999999998
vt 0.4503125 0.23428749999999998
vt 0.4446875 0.3125
vt 0.3769375 0.3125
vt 0.375 0.23428749999999998
vt 0.4541875 0.23428749999999998
vt 0.45225 0.3125
vt 0.375 0.3125
vt 0.3769375 0.23428749999999998
vt 0.45225 0.23428749999999998
vt 0.4541875 0.3125
vt 0.375 0.3125
vt 0.380625 0.23428749999999998
vt 0.4446875 0.23428749999999998
vt 0.4503125 0.3125
vt 0.375 0.3125
vt 0.38375625 0.23428749999999998
vt 0.43030625 0.23428749999999998
vt 0.4390625 0.3125
vt 0.375 0.3125
vt 0.3860375 0.23428749999999998
vt 0.4105125 0.23428749999999998
vt 0.42155 0.3125
vt 0.399475 0.3125
vt 0.375 0.3125
vt 0.3872375 0.23428749999999998
vt 0.375 0.23428749999999998
vt 0.399475 0.23428749999999998
vt 0.3872375 0.3125
vt 0.3860375 0.3125
vt 0.375 0.23428749999999998
vt 0.42155 0.23428749999999998
vt 0.4105125 0.3125
vt 0.38375625 0.3125
vt 0.375 0.23428749999999998
vt 0.4390625 0.23428749999999998
vt 0.43030625 0.3125
vt 0.380625 0.3125
vt 0.375 0.23428749999999998
vt 0.4503125 0.23428749999999998
vt 0.4446875 0.3125
vt 0.3769375 0.3125
vt 0.375 0.23428749999999998
vt 0.4541875 0.23428749999999998
vt 0.45225 0.3125
vt 0.375 0.3125
vt 0.3769375 0.23428749999999998
vt 0.45225 0.23428749999999998
vt 0.4541875 0.3125
vt 0.375 0.3125
vt 0.380625 0.23428749999999998
vt 0.4446875 0.23428749999999998
vt 0.4503125 0.3125
vt 0.375 0.3125
vt 0.38375625 0.23428749999999998
vt 0.43030625 0.23428749999999998
vt 0.4390625 0.3125
vt 0.375 0.3125
vt 0.3860375 0.23428749999999998
vt 0.4105125 0.23428749999999998
vt 0.42155 0.3125
vt 0.399475 0.3125
vt 0.375 0.3125
vt 0.3872375 0.23428749999999998
vt 0.375 0.23428749999999998
vt 0.399475 0.23428749999999998
vt 0.3872375 0.3125
vt 0.3860375 0.3125
vt 0.375 0.23428749999999998
vt 0.42155 0.23428749999999998
vt 0.4105125 0.3125
vt 0.38375625 0.3125
vt 0.375 0.23428749999999998
vt 0.4390625 0.23428749999999998
vt 0.43030625 0.3125
vt 0.380625 0.3125
vt 0.375 0.23428749999999998
vt 0.4503125 0.23428749999999998
vt 0.4446875 0.3125
vt 0.3769375 0.3125
vt 0.375 0.23428749999999998
vt 0.4541875 0.23428749999999998
vt 0.45225 0.3125
vt 0.375 0.3125
vt 0.3769375 0.23428749999999998
vt 0.45225 0.23428749999999998
vt 0.4541875 0.3125
vt 0.375 0.3125
vt 0.380625 0.23428749999999998
vt 0.4446875 0.23428749999999998
vt 0.4503125 0.3125
vt 0.375 0.3125
vt 0.38375625 0.23428749999999998
vt 0.43030625 0.23428749999999998
vt 0.4390625 0.3125
vt 0.375 0.3125
vt 0.3860375 0.23428749999999998
vt 0.4105125 0.23428749999999998
vt 0.42155 0.3125
vt 0.399475 0.3125
vt 0.375 0.3125
vt 0.3872375 0.23428749999999998
vn 0.04834113047127461 0.9876888108927864 0.1487748229437803
vn 0.14029310253540844 0.8910053131240776 0.43177236753369685
vn 0.2185075249712391 0.7071069239193174 0.6724985202038026
vn 0.27533982048498895 0.45399287105251734 0.8473951004630522
vn 0.30521421156160833 0.15643184840357705 0.9393473063068134
vn 0.30521708777915924 -0.15643177449531334 0.9393463840649287
vn 0.2753351775784843 -0.4539931805366022 0.8473964432389866
vn 0.21851051707287011 -0.7071066810231234 0.672497803402368
vn 0.1402948925177133 -0.8910051972705884 0.4317720249972701
vn 0.048341130471274606 -0.9876888108927864 0.1487748229437803
vn 0.0919461650374721 0.9876888547958224 0.1265568206262277
vn 0.26684864435679023 0.8910054944253061 0.36728872826273756
vn 0.41562651035008746 0.7071082888384044 0.5720598497974076
vn 0.5237156658579206 0.4539891047149679 0.7208438070311048
vn 0.5805515256091345 0.15643517948828892 0.7990544166271615
vn 0.5805427334190352 -0.15643544467122877 0.7990607525869796
vn 0.523721628615714 -0.45398864345270656 0.7208397653681958
vn 0.41562361380075125 -0.707108556942665 0.5720616228603924
vn 0.26684454672483465 -0.8910057917483732 0.3672909840359167
vn 0.0919461650374721 -0.9876888547958224 0.1265568206262277
vn 0.12655682062622675 0.9876888547958224 0.09194616503747322
vn 0.3672897749316024 0.8910048352218148 0.2668494047998607
vn 0.5720610023652702 0.7071068641885494 0.4156273477410732
vn 0.7208416410548978 0.45399435915421205 0.5237140922081804
vn 0.7990557372562664 0.15642487267275076 0.5805524851097948
vn 0.7990621411850847 -0.1564246074797701 0.580543742279174
vn 0.7208372191204333 -0.4539948204285478 0.5237197786553143
vn 0.5720632092423242 -0.7071065960768473 0.4156247663650319
vn 0.3672929749402277 -0.8910045378643887 0.2668459931582715
vn 0.12655682062622675 -0.9876888547958224 0.09194616503747322
vn 0.14877482294378133 0.9876888108927864 0.04834113047127165
vn 0.4317718881220073 0.8910055699691593 0.14029294676315893
vn 0.6724972926873127 0.7071082146033835 0.2185071261278458
vn 0.8473968088896456 0.4539893455254328 0.2753403755954341
vn 0.939346873603026 0.1564347210055507 0.30521407096681535
vn 0.9393459290940822 -0.15643479492520895 0.30521693994777443
vn 0.8473984516093646 -0.4539890360496714 0.2753358301361114
vn 0.6724961138736182 -0.7071084574969437 0.2185099681048317
vn 0.43177111311454636 -0.8910056858129034 0.14029459622132187
vn 0.14877482294378133 -0.9876888108927864 0.04834113047127165
vn 0.15643114814209053 0.9876888659344842 0
vn 0.45399269276228243 0.8910054067840733 0
vn 0.7071067811865482 0.7071067811865468 0
vn 0.8910054067840735 0.45399269276228194 0
vn 0.9876888659344837 0.15643114814209308 0
vn 0.9876888659344837 -0.15643114814209308 0
vn 0.8910054067840735 -0.45399269276228194 0
vn 0.7071067811865482 -0.7071067811865469 0
vn 0.4539926927622826 -0.8910054067840734 0
vn 0.15643114814209053 -0.9876888659344842 0
vn 0.14877482294378142 0.9876888108927864 -0.04834113047127121
vn 0.43177236753369536 0.8910053131240783 -0.14029310253540864
vn 0.6724985202038046 0.7071069239193162 -0.21850752497123643
vn 0.8473951004630538 0.4539928710525177 -0.2753398204849842
vn 0.939347306306813 0.15643184840357965 -0.30521421156160816
vn 0.93934638406493 -0.1564317744953161 -0.3052170877791539
vn 0.8473964432389874 -0.4539931805366024 -0.2753351775784806
vn 0.6724978034023691 -0.7071066810231219 -0.21851051707287159
vn 0.43177202499727074 -0.8910051972705899 -0.14029489251770266
vn 0.14877482294378142 -0.9876888108927864 -0.04834113047127121
vn 0.1265568206262261 0.9876888547958224 -0.09194616503747381
vn 0.3672887282627418 0.8910054944253053 -0.26684864435678735
vn 0.5720598497974062 0.7071082888384059 -0.4156265103500864
vn 0.7208438070311053 0.4539891047149685 -0.5237156658579197
vn 0.7990544166271643 0.1564351794882868 -0.580551525609131
vn 0.7990607525869806 -0.15643544467122655 -0.5805427334190345
vn 0.7208397653681955 -0.45398864345270706 -0.5237216286157139
vn 0.5720616228603951 -0.7071085569426673 -0.4156236138007441
vn 0.36729098403591537 -0.8910057917483717 -0.26684454672484187
vn 0.1265568206262261 -0.9876888547958224 -0.09194616503747381
vn 0.0919461650374721 0.9876888547958224 -0.1265568206262277
vn 0.2668494047998585 0.8910048352218151 -0.367289774931603
vn 0.41562734774107196 0.7071068641885487 -0.5720610023652719
vn 0.5237140922081763 0.45399435915421354 -0.7208416410548996
vn 0.5805524851097941 0.1564248726727495 -0.7990557372562669
vn 0.5805437422791703 -0.15642460747976872 -0.7990621411850874
vn 0.5237197786553117 -0.45399482042854933 -0.7208372191204341
vn 0.4156247663650296 -0.7071065960768466 -0.5720632092423267
vn 0.26684599315826774 -0.891004537864389 -0.36729297494022983
vn 0.0919461650374721 -0.9876888547958224 -0.1265568206262277
vn 0.048341130471274606 0.9876888108927864 -0.1487748229437803
vn 0.14029294676315707 0.8910055699691602 -0.43177188812200634
vn 0.21850712612784823 0.7071082146033827 -0.6724972926873127
vn 0.27534037559543645 0.453989345525433 -0.8473968088896449
vn 0.3052140709668143 0.1564347210055533 -0.9393468736030259
vn 0.305216939947777 -0.15643479492521165 -0.939345929094081
vn 0.2753358301361141 -0.45398903604967156 -0.8473984516093636
vn 0.21850996810483003 -0.7071084574969426 -0.67249611387362
vn 0.14029459622132973 -0.8910056858129047 -0.4317711131145406
vn 0.04834113047127461 -0.9876888108927864 -0.1487748229437803
vn 0 0.9876888659344842 -0.15643114814209008
vn 0 0.8910054067840728 -0.4539926927622837
vn 0 0.7071067811865482 -0.7071067811865468
vn 0 0.45399269276228194 -0.8910054067840735
vn 2.765542783932774e-15 0.15643114814209036 -0.9876888659344842
vn 0 -0.15643114814209028 -0.9876888659344841
vn 0 -0.45399269276228194 -0.8910054067840735
vn 0 -0.7071067811865482 -0.7071067811865468
vn 0 -0.8910054067840727 -0.4539926927622836
vn 0 -0.9876888659344842 -0.15643114814209008
vn -0.04834113047127461 0.9876888108927864 -0.1487748229437803
vn -0.14029310253540642 0.8910053131240777 -0.4317723675336973
vn -0.2185075249712367 0.7071069239193175 -0.6724985202038031
vn -0.27533982048498656 0.4539928710525175 -0.847395100463053
vn -0.3052142115616107 0.1564318484035796 -0.9393473063068121
vn -0.30521708777915646 -0.15643177449531603 -0.9393463840649291
vn -0.2753351775784815 -0.4539931805366023 -0.8473964432389872
vn -0.2185105170728669 -0.7071066810231236 -0.6724978034023688
vn -0.1402948925177133 -0.8910051972705884 -0.4317720249972701
vn -0.048341130471274606 -0.9876888108927864 -0.1487748229437803
vn -0.0919461650374721 0.9876888547958224 -0.1265568206262277
vn -0.2668486443567872 0.891005494425307 -0.3672887282627383
vn -0.41562651035008796 0.7071082888384043 -0.5720598497974073
vn -0.5237156658579206 0.4539891047149679 -0.7208438070311048
vn -0.580551525609131 0.1564351794882868 -0.7990544166271643
vn -0.5805427334190353 -0.1564354446712265 -0.7990607525869798
vn -0.5237216286157147 -0.4539886434527066 -0.7208397653681954
vn -0.4156236138007474 -0.7071085569426654 -0.572061622860395
vn -0.26684454672483404 -0.8910057917483739 -0.3672909840359161
vn -0.0919461650374721 -0.9876888547958224 -0.1265568206262277
vn -0.1265568206262261 0.9876888547958224 -0.09194616503747381
vn -0.36728977493160353 0.8910048352218155 -0.2668494047998562
vn -0.5720610023652719 0.7071068641885475 -0.4156273477410737
vn -0.7208416410548977 0.45399435915421155 -0.523714092208181
vn -0.7990557372562667 0.15642487267275235 -0.5805524851097938
vn -0.7990621411850841 -0.15642460747977172 -0.5805437422791744
vn -0.720837219120434 -0.45399482042854716 -0.5237197786553138
vn -0.57206320924233 -0.7071065960768451 -0.41562476636502776
vn -0.36729297494022417 -0.89100453786439 -0.26684599315827195
vn -0.1265568206262261 -0.9876888547958224 -0.09194616503747381
vn -0.1487748229437812 0.9876888108927864 -0.04834113047127161
vn -0.4317718881220077 0.8910055699691591 -0.14029294676315907
vn -0.6724972926873126 0.7071082146033839 -0.21850712612784504
vn -0.8473968088896459 0.45398934552543413 -0.2753403755954316
vn -0.9393468736030266 0.15643472100555067 -0.30521407096681363
vn -0.9393459290940832 -0.1564347949252089 -0.3052169399477719
vn -0.8473984516093642 -0.4539890360496728 -0.27533583013611024
vn -0.6724961138736179 -0.7071084574969442 -0.2185099681048316
vn -0.4317711131145467 -0.8910056858129032 -0.14029459622132198
vn -0.14877482294378122 -0.9876888108927864 -0.04834113047127161
vn -0.15643114814209053 0.9876888659344842 0
vn -0.45399269276228243 0.8910054067840733 0
vn -0.7071067811865482 0.7071067811865468 0
vn -0.8910054067840735 0.45399269276228194 0
vn -0.9876888659344837 0.15643114814209308 0
vn -0.9876888659344837 -0.15643114814209308 0
vn -0.8910054067840735 -0.45399269276228194 0
vn -0.7071067811865482 -0.7071067811865469 0
vn -0.45399269276228255 -0.8910054067840734 0
vn -0.15643114814209053 -0.9876888659344842 0
vn -0.14877482294378144 0.9876888108927862 0.04834113047127168
vn -0.43177236753369497 0.8910053131240785 0.14029310253540853
vn -0.6724985202038044 0.7071069239193163 0.21850752497123718
vn -0.847395100463053 0.4539928710525175 0.27533982048498656
vn -0.9393473063068125 0.15643184840357877 0.30521421156160994
vn -0.9393463840649294 -0.1564317744953152 0.30521708777915657
vn -0.8473964432389872 -0.4539931805366023 0.2753351775784815
vn -0.6724978034023691 -0.7071066810231219 0.21851051707287159
vn -0.43177202499727024 -0.89100519727059 0.14029489251770383
vn -0.14877482294378144 -0.9876888108927862 0.04834113047127168
vn -0.12655682062622733 0.9876888547958222 0.09194616503747262
vn -0.3672887282627392 0.8910054944253057 0.2668486443567893
vn -0.5720598497974066 0.707108288838405 0.41562651035008746
vn -0.7208438070311058 0.45398910471496806 0.5237156658579194
vn -0.7990544166271647 0.1564351794882868 0.5805515256091306
vn -0.799060752586981 -0.15643544467122655 0.580542733419034
vn -0.7208397653681953 -0.4539886434527065 0.5237216286157146
vn -0.5720616228603932 -0.7071085569426661 0.41562361380074847
vn -0.3672909840359167 -0.8910057917483727 0.2668445467248368
vn -0.12655682062622733 -0.9876888547958222 0.09194616503747262
vn -0.0919461650374721 0.9876888547958224 0.1265568206262277
vn -0.26684940479985914 0.8910048352218142 0.3672897749316046
vn -0.41562734774107074 0.7071068641885497 0.5720610023652714
vn -0.5237140922081782 0.4539943591542132 0.7208416410548985
vn -0.580552485109796 0.15642487267274957 0.7990557372562658
vn -0.5805437422791722 -0.15642460747976877 0.799062141185086
vn -0.5237197786553113 -0.45399482042854883 0.7208372191204347
vn -0.4156247663650284 -0.7071065960768476 0.5720632092423262
vn -0.2668459931582687 -0.8910045378643883 0.36729297494023105
vn -0.0919461650374721 -0.9876888547958224 0.1265568206262277
vn -0.048341130471274606 0.9876888108927864 0.1487748229437803
vn -0.14029294676315968 0.8910055699691591 0.4317718881220074
vn -0.21850712612784898 0.7071082146033842 0.672497292687311
vn -0.275340375595435 0.453989345525435 0.8473968088896441
vn -0.305214070966813 0.15643472100555328 0.9393468736030264
vn -0.30521693994777566 -0.1564347949252116 0.9393459290940813
vn -0.2753358301361152 -0.4539890360496739 0.8473984516093622
vn -0.21850996810483253 -0.7071084574969443 0.6724961138736174
vn -0.14029459622133017 -0.8910056858129036 0.4317711131145427
vn -0.04834113047127461 -0.9876888108927864 0.1487748229437803
vn 0 0.9876888659344842 0.15643114814209008
vn -2.144097840574867e-15 0.8910054067840724 0.45399269276228454
vn -1.2115925356223958e-15 0.707106781186549 0.7071067811865461
vn -1.251493758341723e-15 0.4539926927622821 0.8910054067840735
vn -1.382771391966387e-15 0.15643114814209033 0.9876888659344842
vn -1.4539375428051505e-15 -0.15643114814209033 0.9876888659344841
vn -1.5577694499419832e-15 -0.453992692762282 0.8910054067840735
vn -3.335246996121729e-15 -0.7071067811865492 0.7071067811865459
vn 0 -0.8910054067840721 0.4539926927622847
vn 0 -0.9876888659344842 0.15643114814209008
usemtl m_a1b5a835-8d0d-aa83-bcea-05675cdae655
f 2/1/1 3/2/1 4/3/1
f 2/4/2 5/5/2 6/6/2 3/7/2
f 5/8/3 7/9/3 8/10/3 6/11/3
f 7/12/4 9/13/4 10/14/4 8/15/4
f 9/16/5 11/17/5 12/18/5 10/19/5
f 11/20/6 13/21/6 14/22/6 12/23/6
f 13/24/7 15/25/7 16/26/7 14/27/7
f 15/28/8 17/29/8 18/30/8 16/31/8
f 17/32/9 19/33/9 20/34/9 18/35/9
f 20/36/10 19/37/10 21/38/10
f 3/39/11 22/40/11 4/41/11
f 3/42/12 6/43/12 23/44/12 22/45/12
f 6/46/13 8/47/13 24/48/13 23/49/13
f 8/50/14 10/51/14 25/52/14 24/53/14
f 10/54/15 12/55/15 26/56/15 25/57/15
f 12/58/16 14/59/16 27/60/16 26/61/16
f 14/62/17 16/63/17 28/64/17 27/65/17
f 16/66/18 18/67/18 29/68/18 28/69/18
f 18/70/19 20/71/19 30/72/19 29/73/19
f 30/74/20 20/75/20 21/76/20
f 22/77/21 31/78/21 4/79/21
f 22/80/22 23/81/22 32/82/22 31/83/22
f 23/84/23 24/85/23 33/86/23 32/87/23
f 24/88/24 25/89/24 34/90/24 33/91/24
f 25/92/25 26/93/25 35/94/25 34/95/25
f 26/96/26 27/97/26 36/98/26 35/99/26
f 27/100/27 28/101/27 37/102/27 36/103/27
f 28/104/28 29/105/28 38/106/28 37/107/28
f 29/108/29 30/109/29 39/110/29 38/111/29
f 39/112/30 30/113/30 21/114/30
f 31/115/31 40/116/31 4/117/31
f 31/118/32 32/119/32 41/120/32 40/121/32
f 32/122/33 33/123/33 42/124/33 41/125/33
f 33/126/34 34/127/34 43/128/34 42/129/34
f 34/130/35 35/131/35 44/132/35 43/133/35
f 35/134/36 36/135/36 45/136/36 44/137/36
f 36/138/37 37/139/37 1/140/37 45/141/37
f 37/142/38 38/143/38 46/144/38 1/145/38
f 38/146/39 39/147/39 47/148/39 46/149/39
f 47/150/40 39/151/40 21/152/40
f 40/153/41 48/154/41 4/155/41
f 40/156/42 41/157/42 49/158/42 48/159/42
f 41/160/43 42/161/43 50/162/43 49/163/43
f 42/164/44 43/165/44 51/166/44 50/167/44
f 43/168/45 44/169/45 52/170/45 51/171/45
f 44/172/46 45/173/46 53/174/46 52/175/46
f 45/176/47 1/177/47 54/178/47 53/179/47
f 1/180/48 46/181/48 55/182/48 54/183/48
f 46/184/49 47/185/49 56/186/49 55/187/49
f 56/188/50 47/189/50 21/190/50
f 48/191/51 57/192/51 4/193/51
f 48/194/52 49/195/52 58/196/52 57/197/52
f 49/198/53 50/199/53 59/200/53 58/201/53
f 50/202/54 51/203/54 60/204/54 59/205/54
f 51/206/55 52/207/55 61/208/55 60/209/55
f 52/210/56 53/211/56 62/212/56 61/213/56
f 53/214/57 54/215/57 63/216/57 62/217/57
f 54/218/58 55/219/58 64/220/58 63/221/58
f 55/222/59 56/223/59 65/224/59 64/225/59
f 65/226/60 56/227/60 21/228/60
f 57/229/61 66/230/61 4/231/61
f 57/232/62 58/233/62 67/234/62 66/235/62
f 58/236/63 59/237/63 68/238/63 67/239/63
f 59/240/64 60/241/64 69/242/64 68/243/64
f 60/244/65 61/245/65 70/246/65 69/247/65
f 61/248/66 62/249/66 71/250/66 70/251/66
f 62/252/67 63/253/67 72/254/67 71/255/67
f 63/256/68 64/257/68 73/258/68 72/259/68
f 64/260/69 65/261/69 74/262/69 73/263/69
f 74/264/70 65/265/70 21/266/70
f 66/267/71 75/268/71 4/269/71
f 66/270/72 67/271/72 76/272/72 75/273/72
f 67/274/73 68/275/73 77/276/73 76/277/73
f 68/278/74 69/279/74 78/280/74 77/281/74
f 69/282/75 70/283/75 79/284/75 78/285/75
f 70/286/76 71/287/76 80/288/76 79/289/76
f 71/290/77 72/291/77 81/292/77 80/293/77
f 72/294/78 73/295/78 82/296/78 81/297/78
f 73/298/79 74/299/79 83/300/79 82/301/79
f 83/302/80 74/303/80 21/304/80
f 75/305/81 84/306/81 4/307/81
f 75/308/82 76/309/82 85/310/82 84/311/82
f 76/312/83 77/313/83 86/314/83 85/315/83
f 77/316/84 78/317/84 87/318/84 86/319/84
f 78/320/85 79/321/85 88/322/85 87/323/85
f 79/324/86 80/325/86 89/326/86 88/327/86
f 80/328/87 81/329/87 90/330/87 89/331/87
f 81/332/88 82/333/88 91/334/88 90/335/88
f 82/336/89 83/337/89 92/338/89 91/339/89
f 92/340/90 83/341/90 21/342/90
f 84/343/91 93/344/91 4/345/91
f 84/346/92 85/347/92 94/348/92 93/349/92
f 85/350/93 86/351/93 95/352/93 94/353/93
f 86/354/94 87/355/94 96/356/94 95/357/94
f 87/358/95 88/359/95 97/360/95 96/361/95
f 88/362/96 89/363/96 98/364/96 97/365/96
f 89/366/97 90/367/97 99/368/97 98/369/97
f 90/370/98 91/371/98 100/372/98 99/373/98
f 91/374/99 92/375/99 101/376/99 100/377/99
f 101/378/100 92/379/100 21/380/100
f 93/381/101 102/382/101 4/383/101
f 93/384/102 94/385/102 103/386/102 102/387/102
f 94/388/103 95/389/103 104/390/103 103/391/103
f 95/392/104 96/393/104 105/394/104 104/395/104
f 96/396/105 97/397/105 106/398/105 105/399/105
f 97/400/106 98/401/106 107/402/106 106/403/106
f 98/404/107 99/405/107 108/406/107 107/407/107
f 99/408/108 100/409/108 109/410/108 108/411/108
f 100/412/109 101/413/109 110/414/109 109/415/109
f 110/416/110 101/417/110 21/418/110
f 102/419/111 111/420/111 4/421/111
f 102/422/112 103/423/112 112/424/112 111/425/112
f 103/426/113 104/427/113 113/428/113 112/429/113
f 104/430/114 105/431/114 114/432/114 113/433/114
f 105/434/115 106/435/115 115/436/115 114/437/115
f 106/438/116 107/439/116 116/440/116 115/441/116
f 107/442/117 108/443/117 117/444/117 116/445/117
f 108/446/118 109/447/118 118/448/118 117/449/118
f 109/450/119 110/451/119 119/452/119 118/453/119
f 119/454/120 110/455/120 21/456/120
f 111/457/121 120/458/121 4/459/121
f 111/460/122 112/461/122 121/462/122 120/463/122
f 112/464/123 113/465/123 122/466/123 121/467/123
f 113/468/124 114/469/124 123/470/124 122/471/124
f 114/472/125 115/473/125 124/474/125 123/475/125
f 115/476/126 116/477/126 125/478/126 124/479/126
f 116/480/127 117/481/127 126/482/127 125/483/127
f 117/484/128 118/485/128 127/486/128 126/487/128
f 118/488/129 119/489/129 128/490/129 127/491/129
f 128/492/130 119/493/130 21/494/130
f 120/495/131 129/496/131 4/497/131
f 120/498/132 121/499/132 130/500/132 129/501/132
f 121/502/133 122/503/133 131/504/133 130/505/133
f 122/506/134 123/507/134 132/508/134 131/509/134
f 123/510/135 124/511/135 133/512/135 132/513/135
f 124/514/136 125/515/136 134/516/136 133/517/136
f 125/518/137 126/519/137 135/520/137 134/521/137
f 126/522/138 127/523/138 136/524/138 135/525/138
f 127/526/139 128/527/139 137/528/139 136/529/139
f 137/530/140 128/531/140 21/532/140
f 129/533/141 138/534/141 4/535/141
f 129/536/142 130/537/142 139/538/142 138/539/142
f 130/540/143 131/541/143 140/542/143 139/543/143
f 131/544/144 132/545/144 141/546/144 140/547/144
f 132/548/145 133/549/145 142/550/145 141/551/145
f 133/552/146 134/553/146 143/554/146 142/555/146
f 134/556/147 135/557/147 144/558/147 143/559/147
f 135/560/148 136/561/148 145/562/148 144/563/148
f 136/564/149 137/565/149 146/566/149 145/567/149
f 146/568/150 137/569/150 21/570/150
f 138/571/151 147/572/151 4/573/151
f 138/574/152 139/575/152 148/576/152 147/577/152
f 139/578/153 140/579/153 149/580/153 148/581/153
f 140/582/154 141/583/154 150/584/154 149/585/154
f 141/586/155 142/587/155 151/588/155 150/589/155
f 142/590/156 143/591/156 152/592/156 151/593/156
f 143/594/157 144/595/157 153/596/157 152/597/157
f 144/598/158 145/599/158 154/600/158 153/601/158
f 145/602/159 146/603/159 155/604/159 154/605/159
f 155/606/160 146/607/160 21/608/160
f 147/609/161 156/610/161 4/611/161
f 147/612/162 148/613/162 157/614/162 156/615/162
f 148/616/163 149/617/163 158/618/163 157/619/163
f 149/620/164 150/621/164 159/622/164 158/623/164
f 150/624/165 151/625/165 160/626/165 159/627/165
f 151/628/166 152/629/166 161/630/166 160/631/166
f 152/632/167 153/633/167 162/634/167 161/635/167
f 153/636/168 154/637/168 163/638/168 162/639/168
f 154/640/169 155/641/169 164/642/169 163/643/169
f 164/644/170 155/645/170 21/646/170
f 156/647/171 165/648/171 4/649/171
f 156/650/172 157/651/172 166/652/172 165/653/172
f 157/654/173 158/655/173 167/656/173 166/657/173
f 158/658/174 159/659/174 168/660/174 167/661/174
f 159/662/175 160/663/175 169/664/175 168/665/175
f 160/666/176 161/667/176 170/668/176 169/669/176
f 161/670/177 162/671/177 171/672/177 170/673/177
f 162/674/178 163/675/178 172/676/178 171/677/178
f 163/678/179 164/679/179 173/680/179 172/681/179
f 173/682/180 164/683/180 21/684/180
f 165/685/181 174/686/181 4/687/181
f 165/688/182 166/689/182 175/690/182 174/691/182
f 166/692/183 167/693/183 176/694/183 175/695/183
f 167/696/184 168/697/184 177/698/184 176/699/184
f 168/700/185 169/701/185 178/702/185 177/703/185
f 169/704/186 170/705/186 179/706/186 178/707/186
f 170/708/187 171/709/187 180/710/187 179/711/187
f 171/712/188 172/713/188 181/714/188 180/715/188
f 172/716/189 173/717/189 182/718/189 181/719/189
f 182/720/190 173/721/190 21/722/190
f 174/723/191 2/724/191 4/725/191
f 174/726/192 175/727/192 5/728/192 2/729/192
f 175/730/193 176/731/193 7/732/193 5/733/193
f 176/734/194 177/735/194 9/736/194 7/737/194
f 177/738/195 178/739/195 11/740/195 9/741/195
f 178/742/196 179/743/196 13/744/196 11/745/196
f 179/746/197 180/747/197 15/748/197 13/749/197
f 180/750/198 181/751/198 17/752/198 15/753/198
f 181/754/199 182/755/199 19/756/199 17/757/199
f 19/758/200 182/759/200 21/760/200