# Made in Blockbench 5.1.6
mtllib dc_metro_roof_k1l.mtl

o cube
v 0.5 0 -0.5
v -0.5 0 -0.5
v -0.5 0.5 -0.5
v 0.5 0.5 -0.5
v 0.5 0 -0.375
v 0.5 0.5 -0.375
v -0.5 0 -0.375
v -0.5 0.5 -0.375
vt 0 0.8984375
vt 0.125 0.8984375
vt 0.125 0.9609375
vt 0 0.9609375
vt 0.0234375 0.8984375
vt 0.0390625 0.8984375
vt 0.0390625 0.9609375
vt 0.0234375 0.9609375
vt 0 0.8984375
vt 0.125 0.8984375
vt 0.125 0.9609375
vt 0 0.9609375
vt 0.0859375 0.8984375
vt 0.1015625 0.8984375
vt 0.1015625 0.9609375
vt 0.0859375 0.9609375
vt 0 0.8984375
vt 0.125 0.8984375
vt 0.125 0.9140625
vt 0 0.9140625
vt 0 0.9609375
vt 0.125 0.9609375
vt 0.125 0.9765625
vt 0 0.9765625
vn 0 0 -1
vn 1 0 0
vn 0 0 1
vn -1 0 0
vn 0 1 0
vn 0 -1 0
usemtl m_9ee6805c-d53d-fc3b-bad8-759169b8b4ca
f 1/1/1 2/2/1 3/3/1 4/4/1
f 5/5/2 1/6/2 4/7/2 6/8/2
f 7/9/3 5/10/3 6/11/3 8/12/3
f 2/13/4 7/14/4 8/15/4 3/16/4
f 8/17/5 6/18/5 4/19/5 3/20/5
f 2/21/6 1/22/6 5/23/6 7/24/6
o cube
v 0.5 0 0.375
v -0.5 0 0.375
v -0.5 0.5 0.375
v 0.5 0.5 0.375
v 0.5 0 0.5
v 0.5 0.5 0.5
v -0.5 0 0.5
v -0.5 0.5 0.5
vt 0 0.8984375
vt 0.125 0.8984375
vt 0.125 0.9609375
vt 0 0.9609375
vt 0 0.8984375
vt 0.015625 0.8984375
vt 0.015625 0.9609375
vt 0 0.9609375
vt 0 0.8984375
vt 0.125 0.8984375
vt 0.125 0.9609375
vt 0 0.9609375
vt 0.109375 0.8984375
vt 0.125 0.8984375
vt 0.125 0.9609375
vt 0.109375 0.9609375
vt 0 0.875
vt 0.125 0.875
vt 0.125 0.890625
vt 0 0.890625
vt 0 0.984375
vt 0.125 0.984375
vt 0.125 1
vt 0 1
vn 0 0 -1
vn 1 0 0
vn 0 0 1
vn -1 0 0
vn 0 1 0
vn 0 -1 0
usemtl m_9ee6805c-d53d-fc3b-bad8-759169b8b4ca
f 9/25/7 10/26/7 11/27/7 12/28/7
f 13/29/8 9/30/8 12/31/8 14/32/8
f 15/33/9 13/34/9 14/35/9 16/36/9
f 10/37/10 15/38/10 16/39/10 11/40/10
f 16/41/11 14/42/11 12/43/11 11/44/11
f 10/45/12 9/46/12 13/47/12 15/48/12
o cube
v 0.5 0.5 -0.5
v -0.5 0.5 -0.5
v -0.5 1 -0.5
v 0.5 1 -0.5
v 0.5 0.5 0.5
v 0.5 1 0.5
v -0.5 0.5 0.5
v -0.5 1 0.5
vt 0 0.9375
vt 0.125 0.9375
vt 0.125 1
vt 0 1
vt 0 0.9375
vt 0.125 0.9375
vt 0.125 1
vt 0 1
vt 0 0.9375
vt 0.125 0.9375
vt 0.125 1
vt 0 1
vt 0 0.9375
vt 0.125 0.9375
vt 0.125 1
vt 0 1
vt 0 0.875
vt 0.125 0.875
vt 0.125 1
vt 0 1
vt 0 0.875
vt 0.125 0.875
vt 0.125 1
vt 0 1
vn 0 0 -1
vn 1 0 0
vn 0 0 1
vn -1 0 0
vn 0 1 0
vn 0 -1 0
usemtl m_9ee6805c-d53d-fc3b-bad8-759169b8b4ca
f 17/49/13 18/50/13 19/51/13 20/52/13
f 21/53/14 17/54/14 20/55/14 22/56/14
f 23/57/15 21/58/15 22/59/15 24/60/15
f 18/61/16 23/62/16 24/63/16 19/64/16
f 24/65/17 22/66/17 20/67/17 19/68/17
f 18/69/18 17/70/18 21/71/18 23/72/18
o part3l
v -0.03125000000000039 0.1875 -0.37776374999999995
v -0.031250000000000305 0.1875 -0.0027637499999999537
v -0.031250000000000305 0.25 -0.0027637499999999537
v -0.03125000000000039 0.25 -0.37776374999999995
v 0.03124999999999961 0.1875 -0.37776374999999995
v 0.03124999999999961 0.25 -0.37776374999999995
v 0.031249999999999695 0.1875 -0.0027637499999999537
v 0.031249999999999695 0.25 -0.0027637499999999537
vt 0.000244140625 0.99365234375
vt 0.006103515625 0.99365234375
vt 0.006103515625 0.99462890625
vt 0.000244140625 0.99462890625
vt 0.00732421875 0.99365234375
vt 0.00830078125 0.99365234375
vt 0.00830078125 0.99462890625
vt 0.00732421875 0.99462890625
vt 0.009765625 0.99365234375
vt 0.015625 0.99365234375
vt 0.015625 0.99462890625
vt 0.009765625 0.99462890625
vt 0.007568359375 0.99365234375
vt 0.008544921875 0.99365234375
vt 0.008544921875 0.99462890625
vt 0.007568359375 0.99462890625
vt 0.009765625 0.991455078125
vt 0.015625 0.991455078125
vt 0.015625 0.992431640625
vt 0.009765625 0.992431640625
vt 0.009765625 0.99169921875
vt 0.015625 0.99169921875
vt 0.015625 0.99267578125
vt 0.009765625 0.99267578125
vn -1 0 2.220446049250313e-16
vn 0 0 -1
vn 1 0 -2.220446049250313e-16
vn 0 0 1
vn 0 1 0
vn 0 -1 0
usemtl m_6f217574-a598-5f2f-142c-2945208479a2
f 25/73/19 26/74/19 27/75/19 28/76/19
f 29/77/20 25/78/20 28/79/20 30/80/20
f 31/81/21 29/82/21 30/83/21 32/84/21
f 26/85/22 31/86/22 32/87/22 27/88/22
f 32/89/23 30/90/23 28/91/23 27/92/23
f 26/93/24 25/94/24 29/95/24 31/96/24
o part3l
v 0.1514379632812498 0.1087239953125 -0.06976472968749994
v -0.05784421328125035 0.39677607578124996 -0.08458857578124997
v -0.05218179140625024 0.39677607578124996 -0.06716188750000016
v -3.261395783068129e-16 0.4059375 -0.09375
v -0.11002600468750026 0.37018796328125003 -0.0763237796874999
v -0.0992557039062504 0.37018796328125003 -0.0431766171875001
v -0.15143796328125037 0.32877600468749996 -0.06976472968749994
v -0.1366141171875003 0.32877600468749996 -0.024141520312500053
v -0.17802607578125032 0.27659421328125 -0.06555347890624992
v -0.16059938750000025 0.27659421328125 -0.011920516406250026
v -0.18718750000000034 0.21875 -0.06410230781249994
v -0.16886418359375033 0.21875 -0.007709265625000017
v -0.17802607578125032 0.16090578671874997 -0.06555347890624992
v -0.16059938750000025 0.16090578671874997 -0.011920516406250026
v -0.15143796328125037 0.1087239953125 -0.06976472968749994
v -0.1366141171875003 0.1087239953125 -0.024141520312500053
v -0.11002600468750026 0.06731203671874997 -0.0763237796874999
v -0.0992557039062504 0.06731203671874997 -0.0431766171875001
v -0.05784421328125035 0.04072392421875001 -0.08458857578124997
v -0.05218179140625024 0.04072392421875001 -0.06716188750000016
v -3.261395783068129e-16 0.03156249999999999 -0.09375
v -0.04141195859375041 0.39677607578124996 -0.05233804140624991
v -0.07876990390625029 0.37018796328125003 -0.01498009609375002
v -0.10841759609375035 0.32877600468749996 0.01466759609375004
v -0.1274526929687504 0.27659421328125 0.033702692968750086
v -0.13401127500000032 0.21875 0.0402612749999999
v -0.1274526929687504 0.16090578671874997 0.033702692968750086
v -0.10841759609375035 0.1087239953125 0.01466759609375004
v -0.07876990390625029 0.06731203671874997 -0.01498009609375002
v -0.04141195859375041 0.04072392421875001 -0.05233804140624991
v -0.026588112500000375 0.39677607578124996 -0.04156820859375008
v -0.05057338281250032 0.37018796328125003 0.005505703906250076
v -0.06960847968750035 0.32877600468749996 0.042864117187500106
v -0.08182948359375027 0.27659421328125 0.06684938749999994
v -0.08604073437500027 0.21875 0.07511418359375002
v -0.08182948359375027 0.16090578671874997 0.06684938749999994
v -0.06960847968750035 0.1087239953125 0.042864117187500106
v -0.05057338281250032 0.06731203671874997 0.005505703906250076
v -0.026588112500000375 0.04072392421875001 -0.04156820859375008
v -0.009161424218750349 0.39677607578124996 -0.03590578671874987
v -0.01742622031250029 0.37018796328125003 0.01627600468749983
v -0.023985270312500244 0.32877600468749996 0.05768796328125014
v -0.028196521093750253 0.27659421328125 0.08427607578124999
v -0.02964769218750034 0.21875 0.0934375
v -0.028196521093750253 0.16090578671874997 0.08427607578124999
v -0.023985270312500244 0.1087239953125 0.05768796328125014
v -0.01742622031250029 0.06731203671874997 0.01627600468749983
v -0.009161424218750349 0.04072392421875001 -0.03590578671874987
v 0.009161424218749721 0.39677607578124996 -0.03590578671874987
v 0.017426220312499796 0.37018796328125003 0.01627600468749983
v 0.023985270312499772 0.32877600468749996 0.05768796328125014
v 0.028196521093749788 0.27659421328125 0.08427607578124999
v 0.029647692187499772 0.21875 0.0934375
v 0.028196521093749788 0.16090578671874997 0.08427607578124999
v 0.023985270312499772 0.1087239953125 0.05768796328125014
v 0.017426220312499796 0.06731203671874997 0.01627600468749983
v 0.009161424218749721 0.04072392421875001 -0.03590578671874987
v 0.026588112499999525 0.39677607578124996 -0.04156820859375008
v 0.050573382812499595 0.37018796328125003 0.005505703906250076
v 0.06960847968749966 0.32877600468749996 0.042864117187500106
v 0.08182948359374968 0.27659421328125 0.06684938749999994
v 0.08604073437499969 0.21875 0.07511418359375002
v 0.08182948359374968 0.16090578671874997 0.06684938749999994
v 0.06960847968749966 0.1087239953125 0.042864117187500106
v 0.050573382812499595 0.06731203671874997 0.005505703906250076
v 0.026588112499999525 0.04072392421875001 -0.04156820859375008
v 0.04141195859374977 0.39677607578124996 -0.05233804140624991
v 0.07876990390624967 0.37018796328125003 -0.01498009609375002
v 0.10841759609374974 0.32877600468749996 0.01466759609375004
v 0.12745269296874978 0.27659421328125 0.033702692968750086
v 0.1340112749999996 0.21875 0.0402612749999999
v 0.12745269296874978 0.16090578671874997 0.033702692968750086
v 0.10841759609374974 0.1087239953125 0.01466759609375004
v 0.07876990390624967 0.06731203671874997 -0.01498009609375002
v 0.04141195859374977 0.04072392421875001 -0.05233804140624991
v 0.0521817914062496 0.39677607578124996 -0.06716188750000016
v 0.09925570390624953 0.37018796328125003 -0.0431766171875001
v 0.1366141171874998 0.32877600468749996 -0.024141520312500053
v 0.16059938749999986 0.27659421328125 -0.011920516406250026
v 0.16886418359374972 0.21875 -0.007709265625000017
v 0.16059938749999986 0.16090578671874997 -0.011920516406250026
v 0.1366141171874998 0.1087239953125 -0.024141520312500053
v 0.09925570390624953 0.06731203671874997 -0.0431766171875001
v 0.0521817914062496 0.04072392421875001 -0.06716188750000016
v 0.05784421328124981 0.39677607578124996 -0.08458857578124997
v 0.11002600468749973 0.37018796328125003 -0.0763237796874999
v 0.1514379632812498 0.32877600468749996 -0.06976472968749994
v 0.17802607578124965 0.27659421328125 -0.06555347890624992
v 0.18718749999999967 0.21875 -0.06410230781249994
v 0.17802607578124965 0.16090578671874997 -0.06555347890624992
v 0.11002600468749973 0.06731203671874997 -0.0763237796874999
v 0.05784421328124981 0.04072392421875001 -0.08458857578124997
v 0.05784421328124981 0.39677607578124996 -0.10291142421875003
v 0.11002600468749972 0.37018796328125003 -0.1111762203125001
v 0.1514379632812498 0.32877600468749996 -0.11773527031250006
v 0.17802607578124965 0.27659421328125 -0.12194652109375008
v 0.18718749999999967 0.21875 -0.12339769218750006
v 0.17802607578124965 0.16090578671874997 -0.12194652109375008
v 0.1514379632812498 0.1087239953125 -0.11773527031250006
v 0.11002600468749972 0.06731203671874997 -0.1111762203125001
v 0.05784421328124981 0.04072392421875001 -0.10291142421875003
v 0.05218179140624959 0.39677607578124996 -0.12033811249999984
v 0.09925570390624952 0.37018796328125003 -0.1443233828124999
v 0.13661411718749977 0.32877600468749996 -0.16335847968749995
v 0.16059938749999983 0.27659421328125 -0.17557948359374997
v 0.1688641835937497 0.21875 -0.17979073437499998
v 0.16059938749999983 0.16090578671874997 -0.17557948359374997
v 0.13661411718749977 0.1087239953125 -0.16335847968749995
v 0.09925570390624952 0.06731203671874997 -0.1443233828124999
v 0.05218179140624959 0.04072392421875001 -0.12033811249999984
v 0.041411958593749756 0.39677607578124996 -0.13516195859375008
v 0.07876990390624963 0.37018796328125003 -0.17251990390625
v 0.1084175960937497 0.32877600468749996 -0.20216759609375004
v 0.12745269296874973 0.27659421328125 -0.2212026929687501
v 0.13401127499999954 0.21875 -0.2277612749999999
v 0.12745269296874973 0.16090578671874997 -0.2212026929687501
v 0.1084175960937497 0.1087239953125 -0.20216759609375004
v 0.07876990390624963 0.06731203671874997 -0.17251990390625
v 0.041411958593749756 0.04072392421875001 -0.13516195859375008
v 0.026588112499999504 0.39677607578124996 -0.14593179140624993
v 0.050573382812499554 0.37018796328125003 -0.19300570390624985
v 0.06960847968749959 0.32877600468749996 -0.2303641171875001
v 0.08182948359374961 0.27659421328125 -0.25434938750000013
v 0.08604073437499962 0.21875 -0.26261418359375
v 0.08182948359374961 0.16090578671874997 -0.25434938750000013
v 0.06960847968749959 0.1087239953125 -0.2303641171875001
v 0.050573382812499554 0.06731203671874997 -0.19300570390624985
v 0.026588112499999504 0.04072392421875001 -0.14593179140624993
v 0.009161424218749697 0.39677607578124996 -0.15159421328125014
v 0.017426220312499748 0.37018796328125003 -0.20377600468750007
v 0.023985270312499703 0.32877600468749996 -0.24518796328125014
v 0.02819652109374971 0.27659421328125 -0.27177607578124996
v 0.02964769218749969 0.21875 -0.2809375
v 0.02819652109374971 0.16090578671874997 -0.27177607578124996
v 0.023985270312499703 0.1087239953125 -0.24518796328125014
v 0.017426220312499748 0.06731203671874997 -0.20377600468750007
v 0.009161424218749697 0.04072392421875001 -0.15159421328125014
v -0.009161424218750373 0.39677607578124996 -0.15159421328125014
v -0.017426220312500337 0.37018796328125003 -0.20377600468750007
v -0.023985270312500313 0.32877600468749996 -0.24518796328125014
v -0.02819652109375033 0.27659421328125 -0.27177607578124996
v -0.029647692187500425 0.21875 -0.2809375
v -0.02819652109375033 0.16090578671874997 -0.27177607578124996
v -0.023985270312500313 0.1087239953125 -0.24518796328125014
v -0.017426220312500337 0.06731203671874997 -0.20377600468750007
v -0.009161424218750373 0.04072392421875001 -0.15159421328125014
v -0.026588112500000396 0.39677607578124996 -0.14593179140624993
v -0.05057338281250036 0.37018796328125003 -0.19300570390624985
v -0.06960847968750042 0.32877600468749996 -0.2303641171875001
v -0.08182948359375034 0.27659421328125 -0.25434938750000013
v -0.08604073437500034 0.21875 -0.26261418359375
v -0.08182948359375034 0.16090578671874997 -0.25434938750000013
v -0.06960847968750042 0.1087239953125 -0.2303641171875001
v -0.05057338281250036 0.06731203671874997 -0.19300570390624985
v -0.026588112500000396 0.04072392421875001 -0.14593179140624993
v -0.04141195859375042 0.39677607578124996 -0.13516195859375008
v -0.07876990390625033 0.37018796328125003 -0.17251990390625
v -0.10841759609375039 0.32877600468749996 -0.20216759609375004
v -0.12745269296875045 0.27659421328125 -0.2212026929687501
v -0.13401127500000037 0.21875 -0.2277612749999999
v -0.12745269296875045 0.16090578671874997 -0.2212026929687501
v -0.10841759609375039 0.1087239953125 -0.20216759609375004
v -0.07876990390625033 0.06731203671874997 -0.17251990390625
v -0.04141195859375042 0.04072392421875001 -0.13516195859375008
v -0.052181791406250254 0.39677607578124996 -0.12033811249999984
v -0.09925570390625041 0.37018796328125003 -0.1443233828124999
v -0.13661411718750033 0.32877600468749996 -0.16335847968749995
v -0.16059938750000027 0.27659421328125 -0.17557948359374997
v -0.16886418359375036 0.21875 -0.17979073437499998
v -0.16059938750000027 0.16090578671874997 -0.17557948359374997
v -0.13661411718750033 0.1087239953125 -0.16335847968749995
v -0.09925570390625041 0.06731203671874997 -0.1443233828124999
v -0.052181791406250254 0.04072392421875001 -0.12033811249999984
v -0.05784421328125035 0.39677607578124996 -0.10291142421875003
v -0.11002600468750028 0.37018796328125003 -0.1111762203125001
v -0.15143796328125037 0.32877600468749996 -0.11773527031250006
v -0.17802607578125032 0.27659421328125 -0.12194652109375008
v -0.18718750000000034 0.21875 -0.12339769218750006
v -0.17802607578125032 0.16090578671874997 -0.12194652109375008
v -0.15143796328125037 0.1087239953125 -0.11773527031250006
v -0.11002600468750028 0.06731203671874997 -0.1111762203125001
v -0.05784421328125035 0.04072392421875001 -0.10291142421875003
vt 0.375 0.23428749999999998
vt 0.399475 0.23428749999999998
vt 0.3872375 0.3125
vt 0.3860375 0.3125
vt 0.375 0.23428749999999998
vt 0.42155 0.23428749999999998
vt 0.4105125 0.3125
vt 0.38375625 0.3125
vt 0.375 0.23428749999999998
vt 0.4390625 0.23428749999999998
vt 0.43030625 0.3125
vt 0.380625 0.3125
vt 0.375 0.23428749999999998
vt 0.4503125 0.23428749999999998
vt 0.4446875 0.3125
vt 0.3769375 0.3125
vt 0.375 0.23428749999999998
vt 0.4541875 0.23428749999999998
vt 0.45225 0.3125
vt 0.375 0.3125
vt 0.3769375 0.23428749999999998
vt 0.45225 0.23428749999999998
vt 0.4541875 0.3125
vt 0.375 0.3125
vt 0.380625 0.23428749999999998
vt 0.4446875 0.23428749999999998
vt 0.4503125 0.3125
vt 0.375 0.3125
vt 0.38375625 0.23428749999999998
vt 0.43030625 0.23428749999999998
vt 0.4390625 0.3125
vt 0.375 0.3125
vt 0.3860375 0.23428749999999998
vt 0.4105125 0.23428749999999998
vt 0.42155 0.3125
vt 0.399475 0.3125
vt 0.375 0.3125
vt 0.3872375 0.23428749999999998
vt 0.375 0.23428749999999998
vt 0.399475 0.23428749999999998
vt 0.3872375 0.3125
vt 0.3860375 0.3125
vt 0.375 0.23428749999999998
vt 0.42155 0.23428749999999998
vt 0.4105125 0.3125
vt 0.38375625 0.3125
vt 0.375 0.23428749999999998
vt 0.4390625 0.23428749999999998
vt 0.43030625 0.3125
vt 0.380625 0.3125
vt 0.375 0.23428749999999998
vt 0.4503125 0.23428749999999998
vt 0.4446875 0.3125
vt 0.3769375 0.3125
vt 0.375 0.23428749999999998
vt 0.4541875 0.23428749999999998
vt 0.45225 0.3125
vt 0.375 0.3125
vt 0.3769375 0.23428749999999998
vt 0.45225 0.23428749999999998
vt 0.4541875 0.3125
vt 0.375 0.3125
vt 0.380625 0.23428749999999998
vt 0.4446875 0.23428749999999998
vt 0.4503125 0.3125
vt 0.375 0.3125
vt 0.38375625 0.23428749999999998
vt 0.43030625 0.23428749999999998
vt 0.4390625 0.3125
vt 0.375 0.3125
vt 0.3860375 0.23428749999999998
vt 0.4105125 0.23428749999999998
vt 0.42155 0.3125
vt 0.399475 0.3125
vt 0.375 0.3125
vt 0.3872375 0.23428749999999998
vt 0.375 0.23428749999999998
vt 0.399475 0.23428749999999998
vt 0.3872375 0.3125
vt 0.3860375 0.3125
vt 0.375 0.23428749999999998
vt 0.42155 0.23428749999999998
vt 0.4105125 0.3125
vt 0.38375625 0.3125
vt 0.375 0.23428749999999998
vt 0.4390625 0.23428749999999998
vt 0.43030625 0.3125
vt 0.380625 0.3125
vt 0.375 0.23428749999999998
vt 0.4503125 0.23428749999999998
vt 0.4446875 0.3125
vt 0.3769375 0.3125
vt 0.375 0.23428749999999998
vt 0.4541875 0.23428749999999998
vt 0.45225 0.3125
vt 0.375 0.3125
vt 0.3769375 0.23428749999999998
vt 0.45225 0.23428749999999998
vt 0.4541875 0.3125
vt 0.375 0.3125
vt 0.380625 0.23428749999999998
vt 0.4446875 0.23428749999999998
vt 0.4503125 0.3125
vt 0.375 0.3125
vt 0.38375625 0.23428749999999998
vt 0.43030625 0.23428749999999998
vt 0.4390625 0.3125
vt 0.375 0.3125
vt 0.3860375 0.23428749999999998
vt 0.4105125 0.23428749999999998
vt 0.42155 0.3125
vt 0.399475 0.3125
vt 0.375 0.3125
vt 0.3872375 0.23428749999999998
vt 0.375 0.23428749999999998
vt 0.399475 0.23428749999999998
vt 0.3872375 0.3125
vt 0.3860375 0.3125
vt 0.375 0.23428749999999998
vt 0.42155 0.23428749999999998
vt 0.4105125 0.3125
vt 0.38375625 0.3125
vt 0.375 0.23428749999999998
vt 0.4390625 0.23428749999999998
vt 0.43030625 0.3125
vt 0.380625 0.3125
vt 0.375 0.23428749999999998
vt 0.4503125 0.23428749999999998
vt 0.4446875 0.3125
vt 0.3769375 0.3125
vt 0.375 0.23428749999999998
vt 0.4541875 0.23428749999999998
vt 0.45225 0.3125
vt 0.375 0.3125
vt 0.3769375 0.23428749999999998
vt 0.45225 0.23428749999999998
vt 0.4541875 0.3125
vt 0.375 0.3125
vt 0.380625 0.23428749999999998
vt 0.4446875 0.23428749999999998
vt 0.4503125 0.3125
vt 0.375 0.3125
vt 0.38375625 0.23428749999999998
vt 0.43030625 0.23428749999999998
vt 0.4390625 0.3125
vt 0.375 0.3125
vt 0.3860375 0.23428749999999998
vt 0.4105125 0.23428749999999998
vt 0.42155 0.3125
vt 0.399475 0.3125
vt 0.375 0.3125
vt 0.3872375 0.23428749999999998
vt 0.375 0.23428749999999998
vt 0.399475 0.23428749999999998
vt 0.3872375 0.3125
vt 0.3860375 0.3125
vt 0.375 0.23428749999999998
vt 0.42155 0.23428749999999998
vt 0.4105125 0.3125
vt 0.38375625 0.3125
vt 0.375 0.23428749999999998
vt 0.4390625 0.23428749999999998
vt 0.43030625 0.3125
vt 0.380625 0.3125
vt 0.375 0.23428749999999998
vt 0.4503125 0.23428749999999998
vt 0.4446875 0.3125
vt 0.3769375 0.3125
vt 0.375 0.23428749999999998
vt 0.4541875 0.23428749999999998
vt 0.45225 0.3125
vt 0.375 0.3125
vt 0.3769375 0.23428749999999998
vt 0.45225 0.23428749999999998
vt 0.4541875 0.3125
vt 0.375 0.3125
vt 0.380625 0.23428749999999998
vt 0.4446875 0.23428749999999998
vt 0.4503125 0.3125
vt 0.375 0.3125
vt 0.38375625 0.23428749999999998
vt 0.43030625 0.23428749999999998
vt 0.4390625 0.3125
vt 0.375 0.3125
vt 0.3860375 0.23428749999999998
vt 0.4105125 0.23428749999999998
vt 0.42155 0.3125
vt 0.399475 0.3125
vt 0.375 0.3125
vt 0.3872375 0.23428749999999998
vt 0.375 0.23428749999999998
vt 0.399475 0.23428749999999998
vt 0.3872375 0.3125
vt 0.3860375 0.3125
vt 0.375 0.23428749999999998
vt 0.42155 0.23428749999999998
vt 0.4105125 0.3125
vt 0.38375625 0.3125
vt 0.375 0.23428749999999998
vt 0.4390625 0.23428749999999998
vt 0.43030625 0.3125
vt 0.380625 0.3125
vt 0.375 0.23428749999999998
vt 0.4503125 0.23428749999999998
vt 0.4446875 0.3125
vt 0.3769375 0.3125
vt 0.375 0.23428749999999998
vt 0.4541875 0.23428749999999998
vt 0.45225 0.3125
vt 0.375 0.3125
vt 0.3769375 0.23428749999999998
vt 0.45225 0.23428749999999998
vt 0.4541875 0.3125
vt 0.375 0.3125
vt 0.380625 0.23428749999999998
vt 0.4446875 0.23428749999999998
vt 0.4503125 0.3125
vt 0.375 0.3125
vt 0.38375625 0.23428749999999998
vt 0.43030625 0.23428749999999998
vt 0.4390625 0.3125
vt 0.375 0.3125
vt 0.3860375 0.23428749999999998
vt 0.4105125 0.23428749999999998
vt 0.42155 0.3125
vt 0.399475 0.3125
vt 0.375 0.3125
vt 0.3872375 0.23428749999999998
vt 0.375 0.23428749999999998
vt 0.399475 0.23428749999999998
vt 0.3872375 0.3125
vt 0.3860375 0.3125
vt 0.375 0.23428749999999998
vt 0.42155 0.23428749999999998
vt 0.4105125 0.3125
vt 0.38375625 0.3125
vt 0.375 0.23428749999999998
vt 0.4390625 0.23428749999999998
vt 0.43030625 0.3125
vt 0.380625 0.3125
vt 0.375 0.23428749999999998
vt 0.4503125 0.23428749999999998
vt 0.4446875 0.3125
vt 0.3769375 0.3125
vt 0.375 0.23428749999999998
vt 0.4541875 0.23428749999999998
vt 0.45225 0.3125
vt 0.375 0.3125
vt 0.3769375 0.23428749999999998
vt 0.45225 0.23428749999999998
vt 0.4541875 0.3125
vt 0.375 0.3125
vt 0.380625 0.23428749999999998
vt 0.4446875 0.23428749999999998
vt 0.4503125 0.3125
vt 0.375 0.3125
vt 0.38375625 0.23428749999999998
vt 0.43030625 0.23428749999999998
vt 0.4390625 0.3125
vt 0.375 0.3125
vt 0.3860375 0.23428749999999998
vt 0.4105125 0.23428749999999998
vt 0.42155 0.3125
vt 0.399475 0.3125
vt 0.375 0.3125
vt 0.3872375 0.23428749999999998
vt 0.375 0.23428749999999998
vt 0.399475 0.23428749999999998
vt 0.3872375 0.3125
vt 0.3860375 0.3125
vt 0.375 0.23428749999999998
vt 0.42155 0.23428749999999998
vt 0.4105125 0.3125
vt 0.38375625 0.3125
vt 0.375 0.23428749999999998
vt 0.4390625 0.23428749999999998
vt 0.43030625 0.3125
vt 0.380625 0.3125
vt 0.375 0.23428749999999998
vt 0.4503125 0.23428749999999998
vt 0.4446875 0.3125
vt 0.3769375 0.3125
vt 0.375 0.23428749999999998
vt 0.4541875 0.23428749999999998
vt 0.45225 0.3125
vt 0.375 0.3125
vt 0.3769375 0.23428749999999998
vt 0.45225 0.23428749999999998
vt 0.4541875 0.3125
vt 0.375 0.3125
vt 0.380625 0.23428749999999998
vt 0.4446875 0.23428749999999998
vt 0.4503125 0.3125
vt 0.375 0.3125
vt 0.38375625 0.23428749999999998
vt 0.43030625 0.23428749999999998
vt 0.4390625 0.3125
vt 0.375 0.3125
vt 0.3860375 0.23428749999999998
vt 0.4105125 0.23428749999999998
vt 0.42155 0.3125
vt 0.399475 0.3125
vt 0.375 0.3125
vt 0.3872375 0.23428749999999998
vt 0.375 0.23428749999999998
vt 0.399475 0.23428749999999998
vt 0.3872375 0.3125
vt 0.3860375 0.3125
vt 0.375 0.23428749999999998
vt 0.42155 0.23428749999999998
vt 0.4105125 0.3125
vt 0.38375625 0.3125
vt 0.375 0.23428749999999998
vt 0.4390625 0.23428749999999998
vt 0.43030625 0.3125
vt 0.380625 0.3125
vt 0.375 0.23428749999999998
vt 0.4503125 0.23428749999999998
vt 0.4446875 0.3125
vt 0.3769375 0.3125
vt 0.375 0.23428749999999998
vt 0.4541875 0.23428749999999998
vt 0.45225 0.3125
vt 0.375 0.3125
vt 0.3769375 0.23428749999999998
vt 0.45225 0.23428749999999998
vt 0.4541875 0.3125
vt 0.375 0.3125
vt 0.380625 0.23428749999999998
vt 0.4446875 0.23428749999999998
vt 0.4503125 0.3125
vt 0.375 0.3125
vt 0.38375625 0.23428749999999998
vt 0.43030625 0.23428749999999998
vt 0.4390625 0.3125
vt 0.375 0.3125
vt 0.3860375 0.23428749999999998
vt 0.4105125 0.23428749999999998
vt 0.42155 0.3125
vt 0.399475 0.3125
vt 0.375 0.3125
vt 0.3872375 0.23428749999999998
vt 0.375 0.23428749999999998
vt 0.399475 0.23428749999999998
vt 0.3872375 0.3125
vt 0.3860375 0.3125
vt 0.375 0.23428749999999998
vt 0.42155 0.23428749999999998
vt 0.4105125 0.3125
vt 0.38375625 0.3125
vt 0.375 0.23428749999999998
vt 0.4390625 0.23428749999999998
vt 0.43030625 0.3125
vt 0.380625 0.3125
vt 0.375 0.23428749999999998
vt 0.4503125 0.23428749999999998
vt 0.4446875 0.3125
vt 0.3769375 0.3125
vt 0.375 0.23428749999999998
vt 0.4541875 0.23428749999999998
vt 0.45225 0.3125
vt 0.375 0.3125
vt 0.3769375 0.23428749999999998
vt 0.45225 0.23428749999999998
vt 0.4541875 0.3125
vt 0.375 0.3125
vt 0.380625 0.23428749999999998
vt 0.4446875 0.23428749999999998
vt 0.4503125 0.3125
vt 0.375 0.3125
vt 0.38375625 0.23428749999999998
vt 0.43030625 0.23428749999999998
vt 0.4390625 0.3125
vt 0.375 0.3125
vt 0.3860375 0.23428749999999998
vt 0.4105125 0.23428749999999998
vt 0.42155 0.3125
vt 0.399475 0.3125
vt 0.375 0.3125
vt 0.3872375 0.23428749999999998
vt 0.375 0.23428749999999998
vt 0.399475 0.23428749999999998
vt 0.3872375 0.3125
vt 0.3860375 0.3125
vt 0.375 0.23428749999999998
vt 0.42155 0.23428749999999998
vt 0.4105125 0.3125
vt 0.38375625 0.3125
vt 0.375 0.23428749999999998
vt 0.4390625 0.23428749999999998
vt 0.43030625 0.3125
vt 0.380625 0.3125
vt 0.375 0.23428749999999998
vt 0.4503125 0.23428749999999998
vt 0.4446875 0.3125
vt 0.3769375 0.3125
vt 0.375 0.23428749999999998
vt 0.4541875 0.23428749999999998
vt 0.45225 0.3125
vt 0.375 0.3125
vt 0.3769375 0.23428749999999998
vt 0.45225 0.23428749999999998
vt 0.4541875 0.3125
vt 0.375 0.3125
vt 0.380625 0.23428749999999998
vt 0.4446875 0.23428749999999998
vt 0.4503125 0.3125
vt 0.375 0.3125
vt 0.38375625 0.23428749999999998
vt 0.43030625 0.23428749999999998
vt 0.4390625 0.3125
vt 0.375 0.3125
vt 0.3860375 0.23428749999999998
vt 0.4105125 0.23428749999999998
vt 0.42155 0.3125
vt 0.399475 0.3125
vt 0.375 0.3125
vt 0.3872375 0.23428749999999998
vt 0.375 0.23428749999999998
vt 0.399475 0.23428749999999998
vt 0.3872375 0.3125
vt 0.3860375 0.3125
vt 0.375 0.23428749999999998
vt 0.42155 0.23428749999999998
vt 0.4105125 0.3125
vt 0.38375625 0.3125
vt 0.375 0.23428749999999998
vt 0.4390625 0.23428749999999998
vt 0.43030625 0.3125
vt 0.380625 0.3125
vt 0.375 0.23428749999999998
vt 0.4503125 0.23428749999999998
vt 0.4446875 0.3125
vt 0.3769375 0.3125
vt 0.375 0.23428749999999998
vt 0.4541875 0.23428749999999998
vt 0.45225 0.3125
vt 0.375 0.3125
vt 0.3769375 0.23428749999999998
vt 0.45225 0.23428749999999998
vt 0.4541875 0.3125
vt 0.375 0.3125
vt 0.380625 0.23428749999999998
vt 0.4446875 0.23428749999999998
vt 0.4503125 0.3125
vt 0.375 0.3125
vt 0.38375625 0.23428749999999998
vt 0.43030625 0.23428749999999998
vt 0.4390625 0.3125
vt 0.375 0.3125
vt 0.3860375 0.23428749999999998
vt 0.4105125 0.23428749999999998
vt 0.42155 0.3125
vt 0.399475 0.3125
vt 0.375 0.3125
vt 0.3872375 0.23428749999999998
vt 0.375 0.23428749999999998
vt 0.399475 0.23428749999999998
vt 0.3872375 0.3125
vt 0.3860375 0.3125
vt 0.375 0.23428749999999998
vt 0.42155 0.23428749999999998
vt 0.4105125 0.3125
vt 0.38375625 0.3125
vt 0.375 0.23428749999999998
vt 0.4390625 0.23428749999999998
vt 0.43030625 0.3125
vt 0.380625 0.3125
vt 0.375 0.23428749999999998
vt 0.4503125 0.23428749999999998
vt 0.4446875 0.3125
vt 0.3769375 0.3125
vt 0.375 0.23428749999999998
vt 0.4541875 0.23428749999999998
vt 0.45225 0.3125
vt 0.375 0.3125
vt 0.3769375 0.23428749999999998
vt 0.45225 0.23428749999999998
vt 0.4541875 0.3125
vt 0.375 0.3125
vt 0.380625 0.23428749999999998
vt 0.4446875 0.23428749999999998
vt 0.4503125 0.3125
vt 0.375 0.3125
vt 0.38375625 0.23428749999999998
vt 0.43030625 0.23428749999999998
vt 0.4390625 0.3125
vt 0.375 0.3125
vt 0.3860375 0.23428749999999998
vt 0.4105125 0.23428749999999998
vt 0.42155 0.3125
vt 0.399475 0.3125
vt 0.375 0.3125
vt 0.3872375 0.23428749999999998
vt 0.375 0.23428749999999998
vt 0.399475 0.23428749999999998
vt 0.3872375 0.3125
vt 0.3860375 0.3125
vt 0.375 0.23428749999999998
vt 0.42155 0.23428749999999998
vt 0.4105125 0.3125
vt 0.38375625 0.3125
vt 0.375 0.23428749999999998
vt 0.4390625 0.23428749999999998
vt 0.43030625 0.3125
vt 0.380625 0.3125
vt 0.375 0.23428749999999998
vt 0.4503125 0.23428749999999998
vt 0.4446875 0.3125
vt 0.3769375 0.3125
vt 0.375 0.23428749999999998
vt 0.4541875 0.23428749999999998
vt 0.45225 0.3125
vt 0.375 0.3125
vt 0.3769375 0.23428749999999998
vt 0.45225 0.23428749999999998
vt 0.4541875 0.3125
vt 0.375 0.3125
vt 0.380625 0.23428749999999998
vt 0.4446875 0.23428749999999998
vt 0.4503125 0.3125
vt 0.375 0.3125
vt 0.38375625 0.23428749999999998
vt 0.43030625 0.23428749999999998
vt 0.4390625 0.3125
vt 0.375 0.3125
vt 0.3860375 0.23428749999999998
vt 0.4105125 0.23428749999999998
vt 0.42155 0.3125
vt 0.399475 0.3125
vt 0.375 0.3125
vt 0.3872375 0.23428749999999998
vt 0.375 0.23428749999999998
vt 0.399475 0.23428749999999998
vt 0.3872375 0.3125
vt 0.3860375 0.3125
vt 0.375 0.23428749999999998
vt 0.42155 0.23428749999999998
vt 0.4105125 0.3125
vt 0.38375625 0.3125
vt 0.375 0.23428749999999998
vt 0.4390625 0.23428749999999998
vt 0.43030625 0.3125
vt 0.380625 0.3125
vt 0.375 0.23428749999999998
vt 0.4503125 0.23428749999999998
vt 0.4446875 0.3125
vt 0.3769375 0.3125
vt 0.375 0.23428749999999998
vt 0.4541875 0.23428749999999998
vt 0.45225 0.3125
vt 0.375 0.3125
vt 0.3769375 0.23428749999999998
vt 0.45225 0.23428749999999998
vt 0.4541875 0.3125
vt 0.375 0.3125
vt 0.380625 0.23428749999999998
vt 0.4446875 0.23428749999999998
vt 0.4503125 0.3125
vt 0.375 0.3125
vt 0.38375625 0.23428749999999998
vt 0.43030625 0.23428749999999998
vt 0.4390625 0.3125
vt 0.375 0.3125
vt 0.3860375 0.23428749999999998
vt 0.4105125 0.23428749999999998
vt 0.42155 0.3125
vt 0.399475 0.3125
vt 0.375 0.3125
vt 0.3872375 0.23428749999999998
vt 0.375 0.23428749999999998
vt 0.399475 0.23428749999999998
vt 0.3872375 0.3125
vt 0.3860375 0.3125
vt 0.375 0.23428749999999998
vt 0.42155 0.23428749999999998
vt 0.4105125 0.3125
vt 0.38375625 0.3125
vt 0.375 0.23428749999999998
vt 0.4390625 0.23428749999999998
vt 0.43030625 0.3125
vt 0.380625 0.3125
vt 0.375 0.23428749999999998
vt 0.4503125 0.23428749999999998
vt 0.4446875 0.3125
vt 0.3769375 0.3125
vt 0.375 0.23428749999999998
vt 0.4541875 0.23428749999999998
vt 0.45225 0.3125
vt 0.375 0.3125
vt 0.3769375 0.23428749999999998
vt 0.45225 0.23428749999999998
vt 0.4541875 0.3125
vt 0.375 0.3125
vt 0.380625 0.23428749999999998
vt 0.4446875 0.23428749999999998
vt 0.4503125 0.3125
vt 0.375 0.3125
vt 0.38375625 0.23428749999999998
vt 0.43030625 0.23428749999999998
vt 0.4390625 0.3125
vt 0.375 0.3125
vt 0.3860375 0.23428749999999998
vt 0.4105125 0.23428749999999998
vt 0.42155 0.3125
vt 0.399475 0.3125
vt 0.375 0.3125
vt 0.3872375 0.23428749999999998
vt 0.375 0.23428749999999998
vt 0.399475 0.23428749999999998
vt 0.3872375 0.3125
vt 0.3860375 0.3125
vt 0.375 0.23428749999999998
vt 0.42155 0.23428749999999998
vt 0.4105125 0.3125
vt 0.38375625 0.3125
vt 0.375 0.23428749999999998
vt 0.4390625 0.23428749999999998
vt 0.43030625 0.3125
vt 0.380625 0.3125
vt 0.375 0.23428749999999998
vt 0.4503125 0.23428749999999998
vt 0.4446875 0.3125
vt 0.3769375 0.3125
vt 0.375 0.23428749999999998
vt 0.4541875 0.23428749999999998
vt 0.45225 0.3125
vt 0.375 0.3125
vt 0.3769375 0.23428749999999998
vt 0.45225 0.23428749999999998
vt 0.4541875 0.3125
vt 0.375 0.3125
vt 0.380625 0.23428749999999998
vt 0.4446875 0.23428749999999998
vt 0.4503125 0.3125
vt 0.375 0.3125
vt 0.38375625 0.23428749999999998
vt 0.43030625 0.23428749999999998
vt 0.4390625 0.3125
vt 0.375 0.3125
vt 0.3860375 0.23428749999999998
vt 0.4105125 0.23428749999999998
vt 0.42155 0.3125
vt 0.399475 0.3125
vt 0.375 0.3125
vt 0.3872375 0.23428749999999998
vt 0.375 0.23428749999999998
vt 0.399475 0.23428749999999998
vt 0.3872375 0.3125
vt 0.3860375 0.3125
vt 0.375 0.23428749999999998
vt 0.42155 0.23428749999999998
vt 0.4105125 0.3125
vt 0.38375625 0.3125
vt 0.375 0.23428749999999998
vt 0.4390625 0.23428749999999998
vt 0.43030625 0.3125
vt 0.380625 0.3125
vt 0.375 0.23428749999999998
vt 0.4503125 0.23428749999999998
vt 0.4446875 0.3125
vt 0.3769375 0.3125
vt 0.375 0.23428749999999998
vt 0.4541875 0.23428749999999998
vt 0.45225 0.3125
vt 0.375 0.3125
vt 0.3769375 0.23428749999999998
vt 0.45225 0.23428749999999998
vt 0.4541875 0.3125
vt 0.375 0.3125
vt 0.380625 0.23428749999999998
vt 0.4446875 0.23428749999999998
vt 0.4503125 0.3125
vt 0.375 0.3125
vt 0.38375625 0.23428749999999998
vt 0.43030625 0.23428749999999998
vt 0.4390625 0.3125
vt 0.375 0.3125
vt 0.3860375 0.23428749999999998
vt 0.4105125 0.23428749999999998
vt 0.42155 0.3125
vt 0.399475 0.3125
vt 0.375 0.3125
vt 0.3872375 0.23428749999999998
vt 0.375 0.23428749999999998
vt 0.399475 0.23428749999999998
vt 0.3872375 0.3125
vt 0.3860375 0.3125
vt 0.375 0.23428749999999998
vt 0.42155 0.23428749999999998
vt 0.4105125 0.3125
vt 0.38375625 0.3125
vt 0.375 0.23428749999999998
vt 0.4390625 0.23428749999999998
vt 0.43030625 0.3125
vt 0.380625 0.3125
vt 0.375 0.23428749999999998
vt 0.4503125 0.23428749999999998
vt 0.4446875 0.3125
vt 0.3769375 0.3125
vt 0.375 0.23428749999999998
vt 0.4541875 0.23428749999999998
vt 0.45225 0.3125
vt 0.375 0.3125
vt 0.3769375 0.23428749999999998
vt 0.45225 0.23428749999999998
vt 0.4541875 0.3125
vt 0.375 0.3125
vt 0.380625 0.23428749999999998
vt 0.4446875 0.23428749999999998
vt 0.4503125 0.3125
vt 0.375 0.3125
vt 0.38375625 0.23428749999999998
vt 0.43030625 0.23428749999999998
vt 0.4390625 0.3125
vt 0.375 0.3125
vt 0.3860375 0.23428749999999998
vt 0.4105125 0.23428749999999998
vt 0.42155 0.3125
vt 0.399475 0.3125
vt 0.375 0.3125
vt 0.3872375 0.23428749999999998
vt 0.375 0.23428749999999998
vt 0.399475 0.23428749999999998
vt 0.3872375 0.3125
vt 0.3860375 0.3125
vt 0.375 0.23428749999999998
vt 0.42155 0.23428749999999998
vt 0.4105125 0.3125
vt 0.38375625 0.3125
vt 0.375 0.23428749999999998
vt 0.4390625 0.23428749999999998
vt 0.43030625 0.3125
vt 0.380625 0.3125
vt 0.375 0.23428749999999998
vt 0.4503125 0.23428749999999998
vt 0.4446875 0.3125
vt 0.3769375 0.3125
vt 0.375 0.23428749999999998
vt 0.4541875 0.23428749999999998
vt 0.45225 0.3125
vt 0.375 0.3125
vt 0.3769375 0.23428749999999998
vt 0.45225 0.23428749999999998
vt 0.4541875 0.3125
vt 0.375 0.3125
vt 0.380625 0.23428749999999998
vt 0.4446875 0.23428749999999998
vt 0.4503125 0.3125
vt 0.375 0.3125
vt 0.38375625 0.23428749999999998
vt 0.43030625 0.23428749999999998
vt 0.4390625 0.3125
vt 0.375 0.3125
vt 0.3860375 0.23428749999999998
vt 0.4105125 0.23428749999999998
vt 0.42155 0.3125
vt 0.399475 0.3125
vt 0.375 0.3125
vt 0.3872375 0.23428749999999998
vn -0.14877482294378158 0.987688810892786 0.048341130471275036
vn -0.43177236753369536 0.8910053131240788 0.14029310253540678
vn -0.6724985202038035 0.7071069239193165 0.218507524971239
vn -0.8473951004630514 0.4539928710525181 0.27533982048499034
vn -0.939347306306813 0.15643184840357788 0.30521421156160966
vn -0.939346384064928 -0.1564317744953141 0.3052170877791609
vn -0.8473964432389863 -0.453993180536603 0.27533517757848397
vn -0.6724978034023688 -0.707106681023123 0.2185105170728685
vn -0.43177202499726874 -0.8910051972705891 0.14029489251771277
vn -0.14877482294378114 -0.9876888108927862 0.04834113047127489
vn -0.12655682062622997 0.9876888547958222 0.0919461650374708
vn -0.367288728262736 0.8910054944253075 0.2668486443567884
vn -0.5720598497974083 0.7071082888384037 0.4156265103500874
vn -0.7208438070311077 0.4539891047149676 0.5237156658579171
vn -0.7990544166271611 0.1564351794882899 0.5805515256091348
vn -0.7990607525869825 -0.15643544467122977 0.5805427334190311
vn -0.7208397653681963 -0.4539886434527059 0.5237216286157138
vn -0.572061622860393 -0.7071085569426648 0.4156236138007507
vn -0.3672909840359185 -0.8910057917483747 0.26684454672482755
vn -0.12655682062622955 -0.9876888547958222 0.0919461650374705
vn -0.09194616503747155 0.9876888547958221 0.12655682062622917
vn -0.26684940479985964 0.891004835221815 0.36728977493160286
vn -0.41562734774107146 0.7071068641885491 0.5720610023652717
vn -0.5237140922081741 0.45399435915421454 0.7208416410549008
vn -0.580552485109797 0.1564248726727448 0.7990557372562659
vn -0.5805437422791684 -0.15642460747976378 0.7990621411850899
vn -0.523719778655311 -0.4539948204285503 0.7208372191204339
vn -0.4156247663650302 -0.7071065960768476 0.5720632092423251
vn -0.2668459931582655 -0.8910045378643882 0.3672929749402334
vn -0.09194616503747127 -0.9876888547958221 0.1265568206262288
vn -0.04834113047127524 0.9876888108927862 0.1487748229437813
vn -0.14029294676315426 0.8910055699691605 0.43177188812200623
vn -0.21850712612784667 0.7071082146033827 0.6724972926873133
vn -0.27534037559543484 0.45398934552543224 0.8473968088896459
vn -0.305214070966811 0.1564347210055544 0.9393468736030269
vn -0.3052169399477749 -0.15643479492521262 0.9393459290940814
vn -0.2753358301361122 -0.45398903604967067 0.8473984516093649
vn -0.21850996810482592 -0.7071084574969427 0.6724961138736212
vn -0.14029459622133023 -0.8910056858129052 0.4317711131145395
vn -0.04834113047127509 -0.9876888108927862 0.14877482294378083
vn 0 0.987688865934484 0.15643114814209108
vn 0 0.8910054067840726 0.45399269276228416
vn 0 0.7071067811865496 0.7071067811865456
vn 0 0.4539926927622812 0.8910054067840739
vn 0 0.15643114814209094 0.987688865934484
vn 0 -0.15643114814209086 0.9876888659344841
vn 0 -0.4539926927622811 0.8910054067840739
vn 0 -0.7071067811865499 0.7071067811865451
vn 0 -0.8910054067840724 0.4539926927622845
vn 0 -0.9876888659344842 0.1564311481420906
vn 0.04834113047127581 0.987688810892786 0.1487748229437812
vn 0.14029310253540592 0.891005313124078 0.4317723675336969
vn 0.21850752497123802 0.7071069239193184 0.6724985202038017
vn 0.2753398204849901 0.4539928710525167 0.8473951004630522
vn 0.3052142115616092 0.1564318484035779 0.9393473063068128
vn 0.30521708777916046 -0.15643177449531415 0.9393463840649281
vn 0.27533517757848364 -0.4539931805366015 0.847396443238987
vn 0.21851051707286578 -0.7071066810231249 0.6724978034023676
vn 0.14029489251771574 -0.8910051972705882 0.4317720249972696
vn 0.04834113047127568 -0.9876888108927863 0.14877482294378075
vn 0.09194616503747077 0.9876888547958222 0.12655682062622994
vn 0.26684864435678823 0.8910054944253075 0.36728872826273606
vn 0.4156265103500881 0.7071082888384046 0.5720598497974066
vn 0.5237156658579175 0.4539891047149664 0.7208438070311082
vn 0.5805515256091361 0.1564351794882898 0.79905441662716
vn 0.5805427334190311 -0.15643544467122977 0.7990607525869823
vn 0.5237216286157157 -0.4539886434527045 0.7208397653681958
vn 0.41562361380074997 -0.7071085569426658 0.5720616228603924
vn 0.2668445467248275 -0.8910057917483747 0.3672909840359185
vn 0.0919461650374705 -0.9876888547958222 0.12655682062622955
vn 0.12655682062622994 0.9876888547958222 0.09194616503747077
vn 0.367289774931605 0.8910048352218146 0.266849404799857
vn 0.5720610023652722 0.707106864188549 0.4156273477410708
vn 0.7208416410548989 0.45399435915421466 0.5237140922081764
vn 0.7990557372562654 0.15642487267274374 0.5805524851097982
vn 0.7990621411850881 -0.15642460747976278 0.5805437422791713
vn 0.7208372191204346 -0.4539948204285502 0.5237197786553103
vn 0.5720632092423285 -0.707106596076847 0.4156247663650263
vn 0.3672929749402352 -0.8910045378643882 0.2668459931582632
vn 0.12655682062622955 -0.9876888547958222 0.0919461650374705
vn 0.14877482294378117 0.987688810892786 0.04834113047127574
vn 0.4317718881220047 0.8910055699691605 0.14029294676316048
vn 0.6724972926873111 0.7071082146033847 0.21850712612784662
vn 0.8473968088896451 0.45398934552543535 0.2753403755954313
vn 0.9393468736030275 0.15643472100555084 0.30521407096681075
vn 0.9393459290940831 -0.15643479492520904 0.3052169399477717
vn 0.847398451609363 -0.45398903604967417 0.27533583013611246
vn 0.6724961138736154 -0.7071084574969454 0.21850996810483447
vn 0.43177111311454 -0.8910056858129047 0.1402945962213319
vn 0.14877482294378075 -0.987688810892786 0.04834113047127559
vn 0.15643114814209105 0.987688865934484 0
vn 0.4539926927622826 0.8910054067840734 -2.1247039413799252e-16
vn 0.7071067811865476 0.7071067811865476 0
vn 0.891005406784074 0.4539926927622812 0
vn 0.987688865934484 0.15643114814209094 0
vn 0.9876888659344841 -0.1564311481420909 0
vn 0.8910054067840739 -0.45399269276228105 0
vn 0.7071067811865472 -0.7071067811865478 -2.1246935503025474e-16
vn 0.4539926927622829 -0.891005406784073 0
vn 0.15643114814209064 -0.9876888659344842 0
vn 0.14877482294378117 0.987688810892786 -0.04834113047127585
vn 0.4317723675336945 0.8910053131240784 -0.14029310253541089
vn 0.6724985202038036 0.7071069239193164 -0.21850752497123857
vn 0.8473951004630533 0.453992871052517 -0.27533982048498695
vn 0.939347306306813 0.15643184840357788 -0.3052142115616092
vn 0.9393463840649294 -0.15643177449531423 -0.3052170877791569
vn 0.8473964432389871 -0.45399318053660154 -0.27533517757848364
vn 0.6724978034023674 -0.7071066810231225 -0.21851051707287478
vn 0.4317720249972682 -0.8910051972705889 -0.14029489251771543
vn 0.14877482294378072 -0.9876888108927863 -0.04834113047127571
vn 0.1265568206262299 0.987688854795822 -0.09194616503747084
vn 0.3672887282627382 0.8910054944253069 -0.26684864435678696
vn 0.5720598497974055 0.707108288838406 -0.4156265103500874
vn 0.7208438070311055 0.45398910471496856 -0.5237156658579193
vn 0.7990544166271604 0.15643517948828684 -0.5805515256091366
vn 0.7990607525869808 -0.15643544467122672 -0.5805427334190341
vn 0.7208397653681948 -0.453988643452707 -0.523721628615715
vn 0.5720616228603932 -0.7071085569426675 -0.4156236138007459
vn 0.36729098403591937 -0.8910057917483741 -0.2668445467248282
vn 0.12655682062622955 -0.9876888547958222 -0.09194616503747058
vn 0.09194616503747088 0.9876888547958222 -0.1265568206262299
vn 0.2668494047998571 0.8910048352218147 -0.36728977493160503
vn 0.41562734774107074 0.707106864188549 -0.5720610023652724
vn 0.5237140922081762 0.4539943591542146 -0.7208416410548992
vn 0.5805524851097977 0.15642487267274374 -0.7990557372562656
vn 0.5805437422791708 -0.15642460747976275 -0.7990621411850882
vn 0.52371977865531 -0.45399482042855 -0.7208372191204347
vn 0.41562476636502643 -0.707106596076847 -0.5720632092423286
vn 0.2668459931582633 -0.8910045378643883 -0.36729297494023505
vn 0.0919461650374706 -0.9876888547958222 -0.12655682062622953
vn 0.0483411304712758 0.987688810892786 -0.14877482294378117
vn 0.14029294676316065 0.8910055699691605 -0.4317718881220047
vn 0.21850712612784698 0.7071082146033846 -0.6724972926873112
vn 0.2753403755954317 0.45398934552543513 -0.8473968088896453
vn 0.3052140709668116 0.15643472100555084 -0.9393468736030273
vn 0.30521693994777216 -0.15643479492520906 -0.9393459290940831
vn 0.2753358301361129 -0.4539890360496738 -0.8473984516093629
vn 0.2185099681048348 -0.7071084574969454 -0.6724961138736154
vn 0.1402945962213321 -0.8910056858129047 -0.4317711131145398
vn 0.04834113047127567 -0.9876888108927863 -0.14877482294378075
vn 0 0.987688865934484 -0.15643114814209103
vn 0 0.8910054067840734 -0.45399269276228255
vn 0 0.7071067811865476 -0.7071067811865476
vn 0 0.4539926927622808 -0.891005406784074
vn 0 0.15643114814209141 -0.9876888659344841
vn 0 -0.15643114814209136 -0.9876888659344841
vn 0 -0.4539926927622807 -0.8910054067840741
vn 0 -0.7071067811865479 -0.7071067811865471
vn 0 -0.891005406784073 -0.4539926927622829
vn 0 -0.9876888659344842 -0.15643114814209058
vn -0.04834113047127524 0.9876888108927862 -0.14877482294378128
vn -0.14029310253541022 0.8910053131240785 -0.43177236753369475
vn -0.2185075249712377 0.7071069239193164 -0.672498520203804
vn -0.27533982048498645 0.4539928710525165 -0.8473951004630536
vn -0.30521421156160955 0.15643184840357893 -0.9393473063068126
vn -0.30521708777915635 -0.15643177449531528 -0.9393463840649294
vn -0.2753351775784825 -0.45399318053660115 -0.8473964432389876
vn -0.21851051707287358 -0.7071066810231225 -0.6724978034023678
vn -0.14029489251771368 -0.8910051972705891 -0.4317720249972688
vn -0.04834113047127509 -0.9876888108927862 -0.14877482294378083
vn -0.09194616503747166 0.9876888547958221 -0.12655682062622906
vn -0.2668486443567878 0.8910054944253066 -0.3672887282627382
vn -0.415626510350088 0.707108288838406 -0.5720598497974049
vn -0.5237156658579191 0.4539891047149674 -0.7208438070311063
vn -0.5805515256091351 0.15643517948828692 -0.7990544166271616
vn -0.5805427334190334 -0.1564354446712267 -0.7990607525869812
vn -0.5237216286157163 -0.4539886434527057 -0.7208397653681947
vn -0.41562361380074697 -0.7071085569426675 -0.5720616228603925
vn -0.2668445467248316 -0.8910057917483737 -0.3672909840359181
vn -0.09194616503747141 -0.9876888547958221 -0.1265568206262287
vn -0.1265568206262299 0.9876888547958222 -0.09194616503747083
vn -0.3672897749316034 0.8910048352218148 -0.2668494047998586
vn -0.5720610023652732 0.7071068641885488 -0.41562734774106974
vn -0.7208416410549009 0.4539943591542146 -0.5237140922081738
vn -0.7990557372562662 0.15642487267274519 -0.5805524851097963
vn -0.7990621411850899 -0.1564246074797642 -0.5805437422791682
vn -0.7208372191204356 -0.45399482042855016 -0.5237197786553087
vn -0.5720632092423262 -0.7071065960768472 -0.415624766365029
vn -0.3672929749402352 -0.8910045378643883 -0.26684599315826335
vn -0.12655682062622953 -0.9876888547958222 -0.09194616503747055
vn -0.14877482294378158 0.987688810892786 -0.048341130471274925
vn -0.43177188812200495 0.8910055699691608 -0.1402929467631562
vn -0.6724972926873137 0.707108214603382 -0.21850712612784792
vn -0.8473968088896445 0.4539893455254342 -0.275340375595435
vn -0.9393468736030268 0.15643472100555436 -0.305214070966811
vn -0.9393459290940813 -0.15643479492521264 -0.3052169399477755
vn -0.8473984516093636 -0.4539890360496728 -0.2753358301361131
vn -0.6724961138736206 -0.7071084574969422 -0.2185099681048295
vn -0.43177111311453986 -0.8910056858129054 -0.140294596221329
vn -0.14877482294378117 -0.9876888108927862 -0.04834113047127478
vn -0.15643114814209133 0.987688865934484 0
vn -0.4539926927622826 0.8910054067840734 2.1247039413799252e-16
vn -0.7071067811865474 0.7071067811865477 0
vn -0.8910054067840731 0.4539926927622827 0
vn -0.987688865934484 0.15643114814209094 0
vn -0.9876888659344841 -0.1564311481420909 0
vn -0.8910054067840731 -0.45399269276228266 0
vn -0.7071067811865472 -0.707106781186548 3.187040325453821e-16
vn -0.4539926927622829 -0.891005406784073 0
vn -0.1564311481420909 -0.987688865934484 0
usemtl m_536b43f7-37f7-0f26-a105-dcab92ed2fa7
f 34/97/25 35/98/25 36/99/25
f 34/100/26 37/101/26 38/102/26 35/103/26
f 37/104/27 39/105/27 40/106/27 38/107/27
f 39/108/28 41/109/28 42/110/28 40/111/28
f 41/112/29 43/113/29 44/114/29 42/115/29
f 43/116/30 45/117/30 46/118/30 44/119/30
f 45/120/31 47/121/31 48/122/31 46/123/31
f 47/124/32 49/125/32 50/126/32 48/127/32
f 49/128/33 51/129/33 52/130/33 50/131/33
f 52/132/34 51/133/34 53/134/34
f 35/135/35 54/136/35 36/137/35
f 35/138/36 38/139/36 55/140/36 54/141/36
f 38/142/37 40/143/37 56/144/37 55/145/37
f 40/146/38 42/147/38 57/148/38 56/149/38
f 42/150/39 44/151/39 58/152/39 57/153/39
f 44/154/40 46/155/40 59/156/40 58/157/40
f 46/158/41 48/159/41 60/160/41 59/161/41
f 48/162/42 50/163/42 61/164/42 60/165/42
f 50/166/43 52/167/43 62/168/43 61/169/43
f 62/170/44 52/171/44 53/172/44
f 54/173/45 63/174/45 36/175/45
f 54/176/46 55/177/46 64/178/46 63/179/46
f 55/180/47 56/181/47 65/182/47 64/183/47
f 56/184/48 57/185/48 66/186/48 65/187/48
f 57/188/49 58/189/49 67/190/49 66/191/49
f 58/192/50 59/193/50 68/194/50 67/195/50
f 59/196/51 60/197/51 69/198/51 68/199/51
f 60/200/52 61/201/52 70/202/52 69/203/52
f 61/204/53 62/205/53 71/206/53 70/207/53
f 71/208/54 62/209/54 53/210/54
f 63/211/55 72/212/55 36/213/55
f 63/214/56 64/215/56 73/216/56 72/217/56
f 64/218/57 65/219/57 74/220/57 73/221/57
f 65/222/58 66/223/58 75/224/58 74/225/58
f 66/226/59 67/227/59 76/228/59 75/229/59
f 67/230/60 68/231/60 77/232/60 76/233/60
f 68/234/61 69/235/61 78/236/61 77/237/61
f 69/238/62 70/239/62 79/240/62 78/241/62
f 70/242/63 71/243/63 80/244/63 79/245/63
f 80/246/64 71/247/64 53/248/64
f 72/249/65 81/250/65 36/251/65
f 72/252/66 73/253/66 82/254/66 81/255/66
f 73/256/67 74/257/67 83/258/67 82/259/67
f 74/260/68 75/261/68 84/262/68 83/263/68
f 75/264/69 76/265/69 85/266/69 84/267/69
f 76/268/70 77/269/70 86/270/70 85/271/70
f 77/272/71 78/273/71 87/274/71 86/275/71
f 78/276/72 79/277/72 88/278/72 87/279/72
f 79/280/73 80/281/73 89/282/73 88/283/73
f 89/284/74 80/285/74 53/286/74
f 81/287/75 90/288/75 36/289/75
f 81/290/76 82/291/76 91/292/76 90/293/76
f 82/294/77 83/295/77 92/296/77 91/297/77
f 83/298/78 84/299/78 93/300/78 92/301/78
f 84/302/79 85/303/79 94/304/79 93/305/79
f 85/306/80 86/307/80 95/308/80 94/309/80
f 86/310/81 87/311/81 96/312/81 95/313/81
f 87/314/82 88/315/82 97/316/82 96/317/82
f 88/318/83 89/319/83 98/320/83 97/321/83
f 98/322/84 89/323/84 53/324/84
f 90/325/85 99/326/85 36/327/85
f 90/328/86 91/329/86 100/330/86 99/331/86
f 91/332/87 92/333/87 101/334/87 100/335/87
f 92/336/88 93/337/88 102/338/88 101/339/88
f 93/340/89 94/341/89 103/342/89 102/343/89
f 94/344/90 95/345/90 104/346/90 103/347/90
f 95/348/91 96/349/91 105/350/91 104/351/91
f 96/352/92 97/353/92 106/354/92 105/355/92
f 97/356/93 98/357/93 107/358/93 106/359/93
f 107/360/94 98/361/94 53/362/94
f 99/363/95 108/364/95 36/365/95
f 99/366/96 100/367/96 109/368/96 108/369/96
f 100/370/97 101/371/97 110/372/97 109/373/97
f 101/374/98 102/375/98 111/376/98 110/377/98
f 102/378/99 103/379/99 112/380/99 111/381/99
f 103/382/100 104/383/100 113/384/100 112/385/100
f 104/386/101 105/387/101 114/388/101 113/389/101
f 105/390/102 106/391/102 115/392/102 114/393/102
f 106/394/103 107/395/103 116/396/103 115/397/103
f 116/398/104 107/399/104 53/400/104
f 108/401/105 117/402/105 36/403/105
f 108/404/106 109/405/106 118/406/106 117/407/106
f 109/408/107 110/409/107 119/410/107 118/411/107
f 110/412/108 111/413/108 120/414/108 119/415/108
f 111/416/109 112/417/109 121/418/109 120/419/109
f 112/420/110 113/421/110 122/422/110 121/423/110
f 113/424/111 114/425/111 33/426/111 122/427/111
f 114/428/112 115/429/112 123/430/112 33/431/112
f 115/432/113 116/433/113 124/434/113 123/435/113
f 124/436/114 116/437/114 53/438/114
f 117/439/115 125/440/115 36/441/115
f 117/442/116 118/443/116 126/444/116 125/445/116
f 118/446/117 119/447/117 127/448/117 126/449/117
f 119/450/118 120/451/118 128/452/118 127/453/118
f 120/454/119 121/455/119 129/456/119 128/457/119
f 121/458/120 122/459/120 130/460/120 129/461/120
f 122/462/121 33/463/121 131/464/121 130/465/121
f 33/466/122 123/467/122 132/468/122 131/469/122
f 123/470/123 124/471/123 133/472/123 132/473/123
f 133/474/124 124/475/124 53/476/124
f 125/477/125 134/478/125 36/479/125
f 125/480/126 126/481/126 135/482/126 134/483/126
f 126/484/127 127/485/127 136/486/127 135/487/127
f 127/488/128 128/489/128 137/490/128 136/491/128
f 128/492/129 129/493/129 138/494/129 137/495/129
f 129/496/130 130/497/130 139/498/130 138/499/130
f 130/500/131 131/501/131 140/502/131 139/503/131
f 131/504/132 132/505/132 141/506/132 140/507/132
f 132/508/133 133/509/133 142/510/133 141/511/133
f 142/512/134 133/513/134 53/514/134
f 134/515/135 143/516/135 36/517/135
f 134/518/136 135/519/136 144/520/136 143/521/136
f 135/522/137 136/523/137 145/524/137 144/525/137
f 136/526/138 137/527/138 146/528/138 145/529/138
f 137/530/139 138/531/139 147/532/139 146/533/139
f 138/534/140 139/535/140 148/536/140 147/537/140
f 139/538/141 140/539/141 149/540/141 148/541/141
f 140/542/142 141/543/142 150/544/142 149/545/142
f 141/546/143 142/547/143 151/548/143 150/549/143
f 151/550/144 142/551/144 53/552/144
f 143/553/145 152/554/145 36/555/145
f 143/556/146 144/557/146 153/558/146 152/559/146
f 144/560/147 145/561/147 154/562/147 153/563/147
f 145/564/148 146/565/148 155/566/148 154/567/148
f 146/568/149 147/569/149 156/570/149 155/571/149
f 147/572/150 148/573/150 157/574/150 156/575/150
f 148/576/151 149/577/151 158/578/151 157/579/151
f 149/580/152 150/581/152 159/582/152 158/583/152
f 150/584/153 151/585/153 160/586/153 159/587/153
f 160/588/154 151/589/154 53/590/154
f 152/591/155 161/592/155 36/593/155
f 152/594/156 153/595/156 162/596/156 161/597/156
f 153/598/157 154/599/157 163/600/157 162/601/157
f 154/602/158 155/603/158 164/604/158 163/605/158
f 155/606/159 156/607/159 165/608/159 164/609/159
f 156/610/160 157/611/160 166/612/160 165/613/160
f 157/614/161 158/615/161 167/616/161 166/617/161
f 158/618/162 159/619/162 168/620/162 167/621/162
f 159/622/163 160/623/163 169/624/163 168/625/163
f 169/626/164 160/627/164 53/628/164
f 161/629/165 170/630/165 36/631/165
f 161/632/166 162/633/166 171/634/166 170/635/166
f 162/636/167 163/637/167 172/638/167 171/639/167
f 163/640/168 164/641/168 173/642/168 172/643/168
f 164/644/169 165/645/169 174/646/169 173/647/169
f 165/648/170 166/649/170 175/650/170 174/651/170
f 166/652/171 167/653/171 176/654/171 175/655/171
f 167/656/172 168/657/172 177/658/172 176/659/172
f 168/660/173 169/661/173 178/662/173 177/663/173
f 178/664/174 169/665/174 53/666/174
f 170/667/175 179/668/175 36/669/175
f 170/670/176 171/671/176 180/672/176 179/673/176
f 171/674/177 172/675/177 181/676/177 180/677/177
f 172/678/178 173/679/178 182/680/178 181/681/178
f 173/682/179 174/683/179 183/684/179 182/685/179
f 174/686/180 175/687/180 184/688/180 183/689/180
f 175/690/181 176/691/181 185/692/181 184/693/181
f 176/694/182 177/695/182 186/696/182 185/697/182
f 177/698/183 178/699/183 187/700/183 186/701/183
f 187/702/184 178/703/184 53/704/184
f 179/705/185 188/706/185 36/707/185
f 179/708/186 180/709/186 189/710/186 188/711/186
f 180/712/187 181/713/187 190/714/187 189/715/187
f 181/716/188 182/717/188 191/718/188 190/719/188
f 182/720/189 183/721/189 192/722/189 191/723/189
f 183/724/190 184/725/190 193/726/190 192/727/190
f 184/728/191 185/729/191 194/730/191 193/731/191
f 185/732/192 186/733/192 195/734/192 194/735/192
f 186/736/193 187/737/193 196/738/193 195/739/193
f 196/740/194 187/741/194 53/742/194
f 188/743/195 197/744/195 36/745/195
f 188/746/196 189/747/196 198/748/196 197/749/196
f 189/750/197 190/751/197 199/752/197 198/753/197
f 190/754/198 191/755/198 200/756/198 199/757/198
f 191/758/199 192/759/199 201/760/199 200/761/199
f 192/762/200 193/763/200 202/764/200 201/765/200
f 193/766/201 194/767/201 203/768/201 202/769/201
f 194/770/202 195/771/202 204/772/202 203/773/202
f 195/774/203 196/775/203 205/776/203 204/777/203
f 205/778/204 196/779/204 53/780/204
f 197/781/205 206/782/205 36/783/205
f 197/784/206 198/785/206 207/786/206 206/787/206
f 198/788/207 199/789/207 208/790/207 207/791/207
f 199/792/208 200/793/208 209/794/208 208/795/208
f 200/796/209 201/797/209 210/798/209 209/799/209
f 201/800/210 202/801/210 211/802/210 210/803/210
f 202/804/211 203/805/211 212/806/211 211/807/211
f 203/808/212 204/809/212 213/810/212 212/811/212
f 204/812/213 205/813/213 214/814/213 213/815/213
f 214/816/214 205/817/214 53/818/214
f 206/819/215 34/820/215 36/821/215
f 206/822/216 207/823/216 37/824/216 34/825/216
f 207/826/217 208/827/217 39/828/217 37/829/217
f 208/830/218 209/831/218 41/832/218 39/833/218
f 209/834/219 210/835/219 43/836/219 41/837/219
f 210/838/220 211/839/220 45/840/220 43/841/220
f 211/842/221 212/843/221 47/844/221 45/845/221
f 212/846/222 213/847/222 49/848/222 47/849/222
f 213/850/223 214/851/223 51/852/223 49/853/223
f 51/854/224 214/855/224 53/856/224