# Made in Blockbench 5.1.4
mtllib dc_metro_roof_d1.mtl

o part1
v 0.6660185013934337 0.5893043574911923 -0.4999999999999992
v 0.6660185013934337 0.5893043574911909 0.5000000000000008
v 0.6895130902050415 0.5963130063498109 -0.4999999999999992
v 0.6895130902050415 0.5963130063498095 0.5000000000000008
v 0.4875593818008759 0.9334270990810761 -0.4999999999999988
v 0.4875593818008759 0.9334270990810748 0.5000000000000012
v 0.5047586145139129 0.9525750838552322 -0.4999999999999987
v 0.5047586145139129 0.9525750838552308 0.5000000000000012
v 0.17845911959255734 1.132106456572268 -0.4999999999999985
v 0.17845911959255734 1.1321064565722667 0.5000000000000016
v 0.18475447569112857 1.1582630902050421 -0.49999999999999845
v 0.18475447569112857 1.1582630902050408 0.5000000000000016
v -0.1784591195925569 1.132106456572268 -0.4999999999999985
v -0.1784591195925569 1.1321064565722667 0.5000000000000016
v -0.18475447569112857 1.1582630902050421 -0.49999999999999845
v -0.18475447569112857 1.1582630902050408 0.5000000000000016
v -0.4875593818008759 0.9334270990810761 -0.4999999999999988
v -0.4875593818008759 0.9334270990810748 0.5000000000000012
v -0.5047586145139129 0.9525750838552322 -0.4999999999999987
v -0.5047586145139129 0.9525750838552308 0.5000000000000012
v -0.6660185013934337 0.5893043574911921 -0.4999999999999992
v -0.6660185013934337 0.5893043574911908 0.5000000000000008
v -0.6895130902050415 0.5963130063498108 -0.4999999999999992
v -0.6895130902050415 0.5963130063498094 0.5000000000000008
vt 1 0.21733281250000003
vt 1 0.8168033221431142
vt 0 0.8168033221431142
vt 0 0.21733281250000003
vt 0 0.8379453124999995
vt 0 0.21733281250000003
vt 1 0.21733281250000003
vt 1 0.8379453125
vt 0.01392359819213447 0.9536060277570546
vt 0.01392359819213447 0.98828125
vt 0.01171875 0.9876904539628992
vt 0.011718968123376694 0.9541968670949548
vt 0.04580311854690662 0.98828125
vt 0.012309531678251828 0.98828125
vt 0.01171875 0.9860763979604168
vt 0.04639397224221009 0.9860766237790665
vt 1 0.21733281250000003
vt 1 0.8168033221431148
vt 0 0.8168033221431142
vt 0 0.21733281250000003
vt 0 0.8379453124999995
vt 0 0.21733281250000003
vt 1 0.21733281250000003
vt 1 0.8379453125
vt 0.013923598192134456 0.9536060277570546
vt 0.013923598192134429 0.98828125
vt 0.011718968123376639 0.9876904106620998
vt 0.01171875 0.9541968237941553
vt 0.04580319056395826 0.98828125
vt 0.01230960369530347 0.98828125
vt 0.01171875 0.9860766237790665
vt 0.046393972242210105 0.9860763979604168
vt 1 0.21733281250000003
vt 1 0.8168033221431148
vt 0 0.8168033221431142
vt 0 0.21733281250000003
vt 0 0.8379453124999995
vt 0 0.21733281250000003
vt 1 0.21733281250000003
vt 1 0.8379453125
vt 0.04639375 0.98828125
vt 0.01171875 0.98828125
vt 0.012309374999999997 0.9860765625
vt 0.045803125 0.9860765625
vt 0.045803125 0.98828125
vt 0.012309374999999997 0.98828125
vt 0.01171875 0.9860765625
vt 0.04639375 0.9860765625
vt 1 0.21733281250000003
vt 1 0.8168033221431148
vt 0 0.8168033221431142
vt 0 0.21733281250000003
vt 0 0.8379453124999995
vt 0 0.21733281250000003
vt 1 0.21733281250000003
vt 1 0.8379453125
vt 0.04639397224294542 0.98828125
vt 0.01171875 0.98828125
vt 0.012309546037100716 0.9860764018078655
vt 0.04580313290504526 0.9860766199312422
vt 0.01392360203958326 0.9541968814530933
vt 0.013923602039583247 0.9876904683217481
vt 0.01171875 0.98828125
vt 0.011718975818649766 0.9536060277577899
vt 1 0.21733281250000003
vt 1 0.8168033221431148
vt 0 0.8168033221431142
vt 0 0.21733281250000003
vt 0 0.8379453124999995
vt 0 0.21733281250000003
vt 1 0.21733281250000003
vt 1 0.8379453125
vt 0.04639397224294542 0.98828125
vt 0.01171875 0.98828125
vt 0.012309589337900162 0.9860766199312422
vt 0.0458031762058447 0.9860764018078656
vt 0.013923602039583247 0.9541968094360418
vt 0.013923602039583233 0.9876903963046966
vt 0.011718975818649752 0.98828125
vt 0.01171875 0.9536060277577899
vn 0.8877280642203733 0.46036820480518503 6.133336569360792e-16
vn -0.8877280642203744 -0.4603682048051831 -6.1333365693607665e-16
vn 0 -1.3322676295501878e-15 1
vn 0 1.3322676295501878e-15 -1
vn 0.5407037600309355 0.8412130787668536 1.1207209543953314e-15
vn -0.5407037600309329 -0.8412130787668552 -1.1207209543953338e-15
vn 0 -1.3322676295501878e-15 1
vn 0 1.3322676295501878e-15 -1
vn 0 1 1.3322676295501878e-15
vn 0 -1 -1.3322676295501878e-15
vn 0 -1.3322676295501878e-15 1
vn 0 1.3322676295501878e-15 -1
vn -0.5407037600309349 0.8412130787668539 1.1207209543953318e-15
vn 0.5407037600309329 -0.8412130787668552 -1.1207209543953338e-15
vn 0 -1.3322676295501878e-15 1
vn 0 1.3322676295501878e-15 -1
vn -0.8877280642203734 0.4603682048051849 6.133336569360791e-16
vn 0.8877280642203745 -0.46036820480518303 -6.133336569360766e-16
vn 0 -1.3322676295501878e-15 1
vn 0 1.3322676295501878e-15 -1
usemtl m_2e17608e-1363-15d2-48f6-0e012a64c2cb
f 1/1/1 5/2/1 6/3/1 2/4/1
f 4/5/2 8/6/2 7/7/2 3/8/2
f 3/9/3 7/10/3 5/11/3 1/12/3
f 2/13/4 6/14/4 8/15/4 4/16/4
f 5/17/5 9/18/5 10/19/5 6/20/5
f 8/21/6 12/22/6 11/23/6 7/24/6
f 7/25/7 11/26/7 9/27/7 5/28/7
f 6/29/8 10/30/8 12/31/8 8/32/8
f 9/33/9 13/34/9 14/35/9 10/36/9
f 12/37/10 16/38/10 15/39/10 11/40/10
f 11/41/11 15/42/11 13/43/11 9/44/11
f 10/45/12 14/46/12 16/47/12 12/48/12
f 13/49/13 17/50/13 18/51/13 14/52/13
f 16/53/14 20/54/14 19/55/14 15/56/14
f 15/57/15 19/58/15 17/59/15 13/60/15
f 14/61/16 18/62/16 20/63/16 16/64/16
f 17/65/17 21/66/17 22/67/17 18/68/17
f 20/69/18 24/70/18 23/71/18 19/72/18
f 19/73/19 23/74/19 21/75/19 17/76/19
f 18/77/20 22/78/20 24/79/20 20/80/20
o part1
v 0.6660185013934337 0.5893043574911909 0.5000000000000008
v 0.6660185013934337 0.5893043574911909 0.5000000000000008
v 0.6895130902050415 0.5963130063498095 0.5000000000000008
v 0.6895130902050415 0.5963130063498095 0.5000000000000008
v 0.4875593818008759 0.9334270990810748 0.5000000000000012
v 0.4875593818008759 0.9334270990810748 0.5000000000000012
v 0.5047586145139129 0.9525750838552308 0.5000000000000012
v 0.5047586145139129 0.9525750838552308 0.5000000000000012
v 0.17845911959255734 1.1321064565722667 0.5000000000000016
v 0.17845911959255734 1.1321064565722667 0.5000000000000016
v 0.18475447569112857 1.1582630902050408 0.5000000000000016
v 0.18475447569112857 1.1582630902050408 0.5000000000000016
v -0.1784591195925569 1.1321064565722667 0.5000000000000016
v -0.1784591195925569 1.1321064565722667 0.5000000000000016
v -0.18475447569112857 1.1582630902050408 0.5000000000000016
v -0.18475447569112857 1.1582630902050408 0.5000000000000016
v -0.4875593818008759 0.9334270990810748 0.5000000000000012
v -0.4875593818008759 0.9334270990810748 0.5000000000000012
v -0.5047586145139129 0.9525750838552308 0.5000000000000012
v -0.5047586145139129 0.9525750838552308 0.5000000000000012
v -0.6660185013934337 0.5893043574911908 0.5000000000000008
v -0.6660185013934337 0.5893043574911908 0.5000000000000008
v -0.6895130902050415 0.5963130063498094 0.5000000000000008
v -0.6895130902050415 0.5963130063498094 0.5000000000000008
vt 0.0703125 0.8828125
vt 0.10380625 0.8828125
vt 0.10380625 0.9453125
vt 0.0703125 0.9453125
vt 0.1049875 0.9453125
vt 0.0703125 0.9453125
vt 0.0703125 0.8828125
vt 0.1049875 0.8828125
vt 0.01001734819213447 0.9575122777570546
vt 0.01001734819213447 0.9921875
vt 0.0078125 0.9915967039628992
vt 0.007812718123376694 0.9581031170949548
vt 0.08095936854690662 0.9609375
vt 0.04746578167825183 0.9609375
vt 0.046875 0.9587326479604168
vt 0.08155022224221009 0.9587328737790665
vt 0.0703125 0.8828125
vt 0.10380625 0.8828125
vt 0.10380625 0.9453125
vt 0.0703125 0.9453125
vt 0.1049875 0.9453125
vt 0.0703125 0.9453125
vt 0.0703125 0.8828125
vt 0.1049875 0.8828125
vt 0.010017348192134456 0.9575122777570546
vt 0.010017348192134429 0.9921875
vt 0.007812718123376639 0.9915966606620998
vt 0.0078125 0.9581030737941553
vt 0.08095944056395826 0.9609375
vt 0.04746585369530347 0.9609375
vt 0.046875 0.9587328737790665
vt 0.0815502222422101 0.9587326479604168
vt 0.0703125 0.8828125
vt 0.10380625 0.8828125
vt 0.10380625 0.9453125
vt 0.0703125 0.9453125
vt 0.1049875 0.9453125
vt 0.0703125 0.9453125
vt 0.0703125 0.8828125
vt 0.1049875 0.8828125
vt 0.0424875 0.9921875
vt 0.0078125 0.9921875
vt 0.008403124999999997 0.9899828125
vt 0.041896875 0.9899828125
vt 0.080959375 0.9609375
vt 0.047465625 0.9609375
vt 0.046875 0.9587328125
vt 0.08155 0.9587328125
vt 0.0703125 0.8828125
vt 0.10380625 0.8828125
vt 0.10380625 0.9453125
vt 0.0703125 0.9453125
vt 0.1049875 0.9453125
vt 0.0703125 0.9453125
vt 0.0703125 0.8828125
vt 0.1049875 0.8828125
vt 0.04248772224294542 0.9921875
vt 0.0078125 0.9921875
vt 0.008403296037100716 0.9899826518078655
vt 0.04189688290504526 0.9899828699312422
vt 0.04907985203958326 0.9268531314530933
vt 0.04907985203958325 0.9603467183217481
vt 0.046875 0.9609375
vt 0.046875225818649766 0.9262622777577899
vt 0.0703125 0.8828125
vt 0.10380625 0.8828125
vt 0.10380625 0.9453125
vt 0.0703125 0.9453125
vt 0.1049875 0.9453125
vt 0.0703125 0.9453125
vt 0.0703125 0.8828125
vt 0.1049875 0.8828125
vt 0.04248772224294542 0.9921875
vt 0.0078125 0.9921875
vt 0.008403339337900162 0.9899828699312422
vt 0.0418969262058447 0.9899826518078656
vt 0.04907985203958325 0.9268530594360418
vt 0.04907985203958323 0.9603466463046966
vt 0.04687522581864975 0.9609375
vt 0.046875 0.9262622777577899
vn 0 0 0
vn 0 0 0
vn 0 -1.3322676295501878e-15 1
vn 0 1.3322676295501878e-15 -1
vn 0 0 0
vn 0 0 0
vn 0 -1.3322676295501878e-15 1
vn 0 1.3322676295501878e-15 -1
vn 0 0 0
vn 0 0 0
vn 0 -1.3322676295501878e-15 1
vn 0 1.3322676295501878e-15 -1
vn 0 0 0
vn 0 0 0
vn 0 -1.3322676295501878e-15 1
vn 0 1.3322676295501878e-15 -1
vn 0 0 0
vn 0 0 0
vn 0 -1.3322676295501878e-15 1
vn 0 1.3322676295501878e-15 -1
usemtl m_2e17608e-1363-15d2-48f6-0e012a64c2cb
f 25/81/21 29/82/21 30/83/21 26/84/21
f 28/85/22 32/86/22 31/87/22 27/88/22
f 27/89/23 31/90/23 29/91/23 25/92/23
f 26/93/24 30/94/24 32/95/24 28/96/24
f 29/97/25 33/98/25 34/99/25 30/100/25
f 32/101/26 36/102/26 35/103/26 31/104/26
f 31/105/27 35/106/27 33/107/27 29/108/27
f 30/109/28 34/110/28 36/111/28 32/112/28
f 33/113/29 37/114/29 38/115/29 34/116/29
f 36/117/30 40/118/30 39/119/30 35/120/30
f 35/121/31 39/122/31 37/123/31 33/124/31
f 34/125/32 38/126/32 40/127/32 36/128/32
f 37/129/33 41/130/33 42/131/33 38/132/33
f 40/133/34 44/134/34 43/135/34 39/136/34
f 39/137/35 43/138/35 41/139/35 37/140/35
f 38/141/36 42/142/36 44/143/36 40/144/36
f 41/145/37 45/146/37 46/147/37 42/148/37
f 44/149/38 48/150/38 47/151/38 43/152/38
f 43/153/39 47/154/39 45/155/39 41/156/39
f 42/157/40 46/158/40 48/159/40 44/160/40
o part1
v 0.6660185013934337 0.5893043574911923 -0.4999999999999992
v 0.6660185013934337 0.5893043574911923 -0.4999999999999992
v 0.6895130902050415 0.5963130063498109 -0.4999999999999992
v 0.6895130902050415 0.5963130063498109 -0.4999999999999992
v 0.4875593818008759 0.9334270990810761 -0.4999999999999988
v 0.4875593818008759 0.9334270990810761 -0.4999999999999988
v 0.5047586145139129 0.9525750838552322 -0.4999999999999987
v 0.5047586145139129 0.9525750838552322 -0.4999999999999987
v 0.17845911959255734 1.132106456572268 -0.4999999999999985
v 0.17845911959255734 1.132106456572268 -0.4999999999999985
v 0.18475447569112857 1.1582630902050421 -0.49999999999999845
v 0.18475447569112857 1.1582630902050421 -0.49999999999999845
v -0.1784591195925569 1.132106456572268 -0.4999999999999985
v -0.1784591195925569 1.132106456572268 -0.4999999999999985
v -0.18475447569112857 1.1582630902050421 -0.49999999999999845
v -0.18475447569112857 1.1582630902050421 -0.49999999999999845
v -0.4875593818008759 0.9334270990810761 -0.4999999999999988
v -0.4875593818008759 0.9334270990810761 -0.4999999999999988
v -0.5047586145139129 0.9525750838552322 -0.4999999999999987
v -0.5047586145139129 0.9525750838552322 -0.4999999999999987
v -0.6660185013934337 0.5893043574911921 -0.4999999999999992
v -0.6660185013934337 0.5893043574911921 -0.4999999999999992
v -0.6895130902050415 0.5963130063498108 -0.4999999999999992
v -0.6895130902050415 0.5963130063498108 -0.4999999999999992
vt 0.0703125 0.8828125
vt 0.10380625 0.8828125
vt 0.10380625 0.9453125
vt 0.0703125 0.9453125
vt 0.1049875 0.9453125
vt 0.0703125 0.9453125
vt 0.0703125 0.8828125
vt 0.1049875 0.8828125
vt 0.04907984819213447 0.9262622777570546
vt 0.04907984819213447 0.9609375
vt 0.046875 0.9603467039628992
vt 0.046875218123376694 0.9268531170949548
vt 0.04970936854690662 0.984375
vt 0.016215781678251828 0.984375
vt 0.015625 0.9821701479604168
vt 0.05030022224221009 0.9821703737790665
vt 0.0703125 0.8828125
vt 0.10380625 0.8828125
vt 0.10380625 0.9453125
vt 0.0703125 0.9453125
vt 0.1049875 0.9453125
vt 0.0703125 0.9453125
vt 0.0703125 0.8828125
vt 0.1049875 0.8828125
vt 0.049079848192134456 0.9262622777570546
vt 0.04907984819213443 0.9609375
vt 0.04687521812337664 0.9603466606620998
vt 0.046875 0.9268530737941553
vt 0.04970944056395826 0.984375
vt 0.01621585369530347 0.984375
vt 0.015625 0.9821703737790665
vt 0.050300222242210105 0.9821701479604168
vt 0.0703125 0.8828125
vt 0.10380625 0.8828125
vt 0.10380625 0.9453125
vt 0.0703125 0.9453125
vt 0.1049875 0.9453125
vt 0.0703125 0.9453125
vt 0.0703125 0.8828125
vt 0.1049875 0.8828125
vt 0.08155 0.9609375
vt 0.046875 0.9609375
vt 0.047465625 0.9587328125
vt 0.080959375 0.9587328125
vt 0.049709375 0.984375
vt 0.016215624999999997 0.984375
vt 0.015625 0.9821703125
vt 0.0503 0.9821703125
vt 0.0703125 0.8828125
vt 0.10380625 0.8828125
vt 0.10380625 0.9453125
vt 0.0703125 0.9453125
vt 0.1049875 0.9453125
vt 0.0703125 0.9453125
vt 0.0703125 0.8828125
vt 0.1049875 0.8828125
vt 0.08155022224294542 0.9609375
vt 0.046875 0.9609375
vt 0.047465796037100716 0.9587326518078655
vt 0.08095938290504526 0.9587328699312422
vt 0.01782985203958326 0.9502906314530933
vt 0.017829852039583247 0.9837842183217481
vt 0.015625 0.984375
vt 0.015625225818649766 0.9496997777577899
vt 0.0703125 0.8828125
vt 0.10380625 0.8828125
vt 0.10380625 0.9453125
vt 0.0703125 0.9453125
vt 0.1049875 0.9453125
vt 0.0703125 0.9453125
vt 0.0703125 0.8828125
vt 0.1049875 0.8828125
vt 0.08155022224294542 0.9609375
vt 0.046875 0.9609375
vt 0.04746583933790016 0.9587328699312422
vt 0.0809594262058447 0.9587326518078656
vt 0.017829852039583247 0.9502905594360418
vt 0.017829852039583233 0.9837841463046966
vt 0.01562522581864975 0.984375
vt 0.015625 0.9496997777577899
vn 0 0 0
vn 0 0 0
vn 0 -1.3322676295501878e-15 1
vn 0 1.3322676295501878e-15 -1
vn 0 0 0
vn 0 0 0
vn 0 -1.3322676295501878e-15 1
vn 0 1.3322676295501878e-15 -1
vn 0 0 0
vn 0 0 0
vn 0 -1.3322676295501878e-15 1
vn 0 1.3322676295501878e-15 -1
vn 0 0 0
vn 0 0 0
vn 0 -1.3322676295501878e-15 1
vn 0 1.3322676295501878e-15 -1
vn 0 0 0
vn 0 0 0
vn 0 -1.3322676295501878e-15 1
vn 0 1.3322676295501878e-15 -1
usemtl m_2e17608e-1363-15d2-48f6-0e012a64c2cb
f 49/161/41 53/162/41 54/163/41 50/164/41
f 52/165/42 56/166/42 55/167/42 51/168/42
f 51/169/43 55/170/43 53/171/43 49/172/43
f 50/173/44 54/174/44 56/175/44 52/176/44
f 53/177/45 57/178/45 58/179/45 54/180/45
f 56/181/46 60/182/46 59/183/46 55/184/46
f 55/185/47 59/186/47 57/187/47 53/188/47
f 54/189/48 58/190/48 60/191/48 56/192/48
f 57/193/49 61/194/49 62/195/49 58/196/49
f 60/197/50 64/198/50 63/199/50 59/200/50
f 59/201/51 63/202/51 61/203/51 57/204/51
f 58/205/52 62/206/52 64/207/52 60/208/52
f 61/209/53 65/210/53 66/211/53 62/212/53
f 64/213/54 68/214/54 67/215/54 63/216/54
f 63/217/55 67/218/55 65/219/55 61/220/55
f 62/221/56 66/222/56 68/223/56 64/224/56
f 65/225/57 69/226/57 70/227/57 66/228/57
f 68/229/58 72/230/58 71/231/58 67/232/58
f 67/233/59 71/234/59 69/235/59 65/236/59
f 66/237/60 70/238/60 72/239/60 68/240/60