# Made in Blockbench 5.1.6
mtllib dc_metro_roof_m2l.mtl

o cube
v 0.5 0 -0.5
v -0.5 0 -0.5
v -0.5 1 -0.5
v 0.5 1 -0.5
v 0.5 0 0.5
v 0.5 1 0.5
v -0.5 0 0.5
v -0.5 1 0.5
vt 0 0.875
vt 0.125 0.875
vt 0.125 1
vt 0 1
vt 0 0.875
vt 0.125 0.875
vt 0.125 1
vt 0 1
vt 0 0.875
vt 0.125 0.875
vt 0.125 1
vt 0 1
vt 0 0.875
vt 0.125 0.875
vt 0.125 1
vt 0 1
vt 0 0.875
vt 0.125 0.875
vt 0.125 1
vt 0 1
vt 0 0
vt 1 0
vt 1 1
vt 0 1
vn 0 0 -1
vn 1 0 0
vn 0 0 1
vn -1 0 0
vn 0 1 0
vn 0 -1 0
usemtl m_dde5ac84-8511-11f4-3f59-2c86a115db84
f 1/1/1 2/2/1 3/3/1 4/4/1
f 5/5/2 1/6/2 4/7/2 6/8/2
f 7/9/3 5/10/3 6/11/3 8/12/3
f 2/13/4 7/14/4 8/15/4 3/16/4
f 8/17/5 6/18/5 4/19/5 3/20/5
usemtl m_42b437de-700e-7b33-cc07-7dbe3baf5ab3
f 2/21/6 1/22/6 5/23/6 7/24/6
o part3l
v -0.031249999999999455 0.03401375000000001 0.03125
v -0.031249999999999955 -0.34098625 0.03125
v 0.03125000000000005 -0.3409862500000001 0.03125
v 0.03125000000000055 0.0340137499999999 0.03125
v -0.031249999999999455 0.03401375000000001 -0.03125
v 0.03125000000000055 0.0340137499999999 -0.03125
v -0.031249999999999955 -0.34098625 -0.03125
v 0.03125000000000005 -0.3409862500000001 -0.03125
vt 0.000244140625 0.99365234375
vt 0.006103515625 0.99365234375
vt 0.006103515625 0.99462890625
vt 0.000244140625 0.99462890625
vt 0.00732421875 0.99365234375
vt 0.00830078125 0.99365234375
vt 0.00830078125 0.99462890625
vt 0.00732421875 0.99462890625
vt 0.009765625 0.99365234375
vt 0.015625 0.99365234375
vt 0.015625 0.99462890625
vt 0.009765625 0.99462890625
vt 0.007568359375 0.99365234375
vt 0.008544921875 0.99365234375
vt 0.008544921875 0.99462890625
vt 0.007568359375 0.99462890625
vt 0.009765625 0.991455078125
vt 0.015625 0.991455078125
vt 0.015625 0.992431640625
vt 0.009765625 0.992431640625
vt 0.009765625 0.99169921875
vt 0.015625 0.99169921875
vt 0.015625 0.99267578125
vt 0.009765625 0.99267578125
vn 0 0 1
vn 1.7763568394002505e-15 1 0
vn 0 0 -1
vn -1.7763568394002505e-15 -1 0
vn 1 -1.3322676295501878e-15 0
vn -1 1.3322676295501878e-15 0
usemtl m_1eaabb31-51b7-31aa-da25-fb7291b20ae2
f 9/25/7 10/26/7 11/27/7 12/28/7
f 13/29/8 9/30/8 12/31/8 14/32/8
f 15/33/9 13/34/9 14/35/9 16/36/9
f 10/37/10 15/38/10 16/39/10 11/40/10
f 16/41/11 14/42/11 12/43/11 11/44/11
f 10/45/12 9/46/12 13/47/12 15/48/12
o part3l
v 0.012220330468749973 -0.16878283046874998 0.07715780703124998
v 0.03546561249999993 -0.16878283046874998 0.06960476015624996
v 0 -0.1565625 0
v 0.023244657812499982 -0.20424844296875 0.14676256718749994
v 0.06745932031250002 -0.20424844296875 0.13239617265625006
v 0.031993707812500084 -0.2594874328125001 0.20200155703125
v 0.09285004218749993 -0.2594874328125001 0.1822281796875
v 0.0376110523437501 -0.32909219296875003 0.23746716953125002
v 0.10915151484374996 -0.32909219296875003 0.21422188749999996
v 0.0395467546875 -0.40625 0.2496875
v 0.11476885937499998 -0.40625 0.22524621484375
v 0.0376110523437501 -0.48340780703124997 0.23746716953125002
v 0.10915151484374996 -0.48340780703124997 0.21422188749999996
v 0.031993707812500084 -0.5530125671875 0.20200155703125
v 0.09285004218749993 -0.5530125671875 0.1822281796875
v 0.023244657812499982 -0.60825155703125 0.14676256718749994
v 0.06745932031250002 -0.60825155703125 0.13239617265625006
v 0.012220330468749973 -0.64371716953125 0.07715780703124998
v 0.03546561249999993 -0.64371716953125 0.06960476015624996
v 0 -0.6559375000000001 0
v 0.055238989843750044 -0.16878283046874998 0.055238989843750044
v 0.10507037265625001 -0.20424844296875 0.10507037265625001
v 0.14461712734375 -0.2594874328125001 0.14461712734375
v 0.17000784921875 -0.32909219296875003 0.17000784921875
v 0.17875627500000002 -0.40625 0.17875627500000002
v 0.17000784921875 -0.48340780703124997 0.17000784921875
v 0.14461712734375 -0.5530125671875 0.14461712734375
v 0.10507037265625001 -0.60825155703125 0.10507037265625001
v 0.055238989843750044 -0.64371716953125 0.055238989843750044
v 0.06960476015624996 -0.16878283046874998 0.03546561250000004
v 0.13239617265625006 -0.20424844296875 0.06745932031250002
v 0.1822281796875 -0.2594874328125001 0.09285004218750004
v 0.21422188749999996 -0.32909219296875003 0.10915151484374996
v 0.22524621484375 -0.40625 0.11476885937499998
v 0.21422188749999996 -0.48340780703124997 0.10915151484374996
v 0.1822281796875 -0.5530125671875 0.09285004218750004
v 0.13239617265625006 -0.60825155703125 0.06745932031250002
v 0.06960476015624996 -0.64371716953125 0.03546561250000004
v 0.0771578070312501 -0.16878283046874998 0.012220330468749973
v 0.14676256718749994 -0.20424844296875 0.023244657812499982
v 0.20200155703125 -0.2594874328125001 0.03199370781249997
v 0.23746716953125002 -0.32909219296875003 0.037611052343749986
v 0.2496875 -0.40625 0.0395467546875
v 0.23746716953125002 -0.48340780703124997 0.037611052343749986
v 0.20200155703125 -0.5530125671875 0.03199370781249997
v 0.14676256718749994 -0.60825155703125 0.023244657812499982
v 0.0771578070312501 -0.64371716953125 0.012220330468749973
v 0.0771578070312501 -0.16878283046874998 -0.012220330468749973
v 0.14676256718749994 -0.20424844296875 -0.023244657812499982
v 0.20200155703125 -0.2594874328125001 -0.031993707812500084
v 0.23746716953125002 -0.32909219296875003 -0.0376110523437501
v 0.2496875 -0.40625 -0.0395467546875
v 0.23746716953125002 -0.48340780703124997 -0.0376110523437501
v 0.20200155703125 -0.5530125671875 -0.031993707812500084
v 0.14676256718749994 -0.60825155703125 -0.023244657812499982
v 0.0771578070312501 -0.64371716953125 -0.012220330468749973
v 0.06960476015624996 -0.16878283046874998 -0.03546561249999993
v 0.13239617265625006 -0.20424844296875 -0.06745932031250002
v 0.1822281796875 -0.2594874328125001 -0.09285004218749993
v 0.21422188749999996 -0.32909219296875003 -0.10915151484374996
v 0.22524621484375 -0.40625 -0.11476885937499998
v 0.21422188749999996 -0.48340780703124997 -0.10915151484374996
v 0.1822281796875 -0.5530125671875 -0.09285004218749993
v 0.13239617265625006 -0.60825155703125 -0.06745932031250002
v 0.06960476015624996 -0.64371716953125 -0.03546561249999993
v 0.055238989843750044 -0.16878283046874998 -0.055238989843750044
v 0.10507037265625001 -0.20424844296875 -0.1050703726562499
v 0.14461712734375 -0.2594874328125001 -0.14461712734375012
v 0.17000784921875 -0.32909219296875003 -0.17000784921875
v 0.17875627500000002 -0.40625 -0.1787562749999999
v 0.17000784921875 -0.48340780703124997 -0.17000784921875
v 0.14461712734375 -0.5530125671875 -0.14461712734375012
v 0.10507037265625001 -0.60825155703125 -0.1050703726562499
v 0.055238989843750044 -0.64371716953125 -0.055238989843750044
v 0.03546561249999993 -0.16878283046874998 -0.06960476015624996
v 0.06745932031250002 -0.20424844296875 -0.13239617265624995
v 0.09285004218749993 -0.2594874328125001 -0.1822281796875
v 0.10915151484374996 -0.32909219296875003 -0.21422188750000007
v 0.11476885937499998 -0.40625 -0.2252462148437501
v 0.10915151484374996 -0.48340780703124997 -0.21422188750000007
v 0.09285004218749993 -0.5530125671875 -0.1822281796875
v 0.06745932031250002 -0.60825155703125 -0.13239617265624995
v 0.03546561249999993 -0.64371716953125 -0.06960476015624996
v 0.012220330468749973 -0.16878283046874998 -0.0771578070312501
v 0.023244657812499982 -0.20424844296875 -0.14676256718750005
v 0.031993707812500084 -0.2594874328125001 -0.2020015570312501
v 0.0376110523437501 -0.32909219296875003 -0.23746716953125002
v 0.0395467546875 -0.40625 -0.2496875
v 0.0376110523437501 -0.48340780703124997 -0.23746716953125002
v 0.031993707812500084 -0.5530125671875 -0.2020015570312501
v 0.023244657812499982 -0.60825155703125 -0.14676256718750005
v 0.012220330468749973 -0.64371716953125 -0.0771578070312501
v -0.012220330468749973 -0.16878283046874998 -0.0771578070312501
v -0.023244657812499982 -0.20424844296875 -0.14676256718750005
v -0.031993707812500084 -0.2594874328125001 -0.2020015570312501
v -0.0376110523437501 -0.32909219296875003 -0.23746716953125002
v -0.0395467546875 -0.40625 -0.2496875
v -0.0376110523437501 -0.48340780703124997 -0.23746716953125002
v -0.031993707812500084 -0.5530125671875 -0.2020015570312501
v -0.023244657812499982 -0.60825155703125 -0.14676256718750005
v -0.012220330468749973 -0.64371716953125 -0.0771578070312501
v -0.03546561249999993 -0.16878283046874998 -0.06960476015624996
v -0.06745932031250002 -0.20424844296875 -0.13239617265624995
v -0.09285004218749993 -0.2594874328125001 -0.1822281796875
v -0.10915151484374996 -0.32909219296875003 -0.21422188750000007
v -0.11476885937499998 -0.40625 -0.2252462148437501
v -0.10915151484374996 -0.48340780703124997 -0.21422188750000007
v -0.09285004218749993 -0.5530125671875 -0.1822281796875
v -0.06745932031250002 -0.60825155703125 -0.13239617265624995
v -0.03546561249999993 -0.64371716953125 -0.06960476015624996
v -0.055238989843750044 -0.16878283046874998 -0.055238989843750044
v -0.1050703726562499 -0.20424844296875 -0.1050703726562499
v -0.14461712734375012 -0.2594874328125001 -0.14461712734375012
v -0.17000784921875 -0.32909219296875003 -0.17000784921875
v -0.1787562749999999 -0.40625 -0.1787562749999999
v -0.17000784921875 -0.48340780703124997 -0.17000784921875
v -0.14461712734375012 -0.5530125671875 -0.14461712734375012
v -0.1050703726562499 -0.60825155703125 -0.1050703726562499
v -0.055238989843750044 -0.64371716953125 -0.055238989843750044
v -0.06960476015624996 -0.16878283046874998 -0.03546561249999993
v -0.13239617265624995 -0.20424844296875 -0.06745932031250002
v -0.1822281796875 -0.2594874328125001 -0.09285004218749993
v -0.21422188750000007 -0.32909219296875003 -0.10915151484374996
v -0.2252462148437501 -0.40625 -0.11476885937499998
v -0.21422188750000007 -0.48340780703124997 -0.10915151484374996
v -0.1822281796875 -0.5530125671875 -0.09285004218749993
v -0.13239617265624995 -0.60825155703125 -0.06745932031250002
v -0.06960476015624996 -0.64371716953125 -0.03546561249999993
v -0.0771578070312501 -0.16878283046874998 -0.012220330468749973
v -0.14676256718750005 -0.20424844296875 -0.023244657812499982
v -0.2020015570312501 -0.2594874328125001 -0.031993707812500084
v -0.23746716953125002 -0.32909219296875003 -0.0376110523437501
v -0.2496875 -0.40625 -0.0395467546875
v -0.23746716953125002 -0.48340780703124997 -0.0376110523437501
v -0.2020015570312501 -0.5530125671875 -0.031993707812500084
v -0.14676256718750005 -0.60825155703125 -0.023244657812499982
v -0.0771578070312501 -0.64371716953125 -0.012220330468749973
v -0.0771578070312501 -0.16878283046874998 0.012220330468749973
v -0.14676256718750005 -0.20424844296875 0.023244657812499982
v -0.2020015570312501 -0.2594874328125001 0.03199370781249997
v -0.23746716953125002 -0.32909219296875003 0.037611052343749986
v -0.2496875 -0.40625 0.0395467546875
v -0.23746716953125002 -0.48340780703124997 0.037611052343749986
v -0.2020015570312501 -0.5530125671875 0.03199370781249997
v -0.14676256718750005 -0.60825155703125 0.023244657812499982
v -0.0771578070312501 -0.64371716953125 0.012220330468749973
v -0.06960476015624996 -0.16878283046874998 0.03546561250000004
v -0.13239617265624995 -0.20424844296875 0.06745932031250002
v -0.1822281796875 -0.2594874328125001 0.09285004218750004
v -0.21422188750000007 -0.32909219296875003 0.10915151484374996
v -0.2252462148437501 -0.40625 0.11476885937499998
v -0.21422188750000007 -0.48340780703124997 0.10915151484374996
v -0.1822281796875 -0.5530125671875 0.09285004218750004
v -0.13239617265624995 -0.60825155703125 0.06745932031250002
v -0.06960476015624996 -0.64371716953125 0.03546561250000004
v -0.055238989843750044 -0.16878283046874998 0.055238989843750044
v -0.1050703726562499 -0.20424844296875 0.10507037265625001
v -0.14461712734375012 -0.2594874328125001 0.14461712734375
v -0.17000784921875 -0.32909219296875003 0.17000784921875
v -0.1787562749999999 -0.40625 0.17875627500000002
v -0.17000784921875 -0.48340780703124997 0.17000784921875
v -0.14461712734375012 -0.5530125671875 0.14461712734375
v -0.1050703726562499 -0.60825155703125 0.10507037265625001
v -0.055238989843750044 -0.64371716953125 0.055238989843750044
v -0.03546561249999993 -0.16878283046874998 0.06960476015624996
v -0.06745932031250002 -0.20424844296875 0.13239617265625006
v -0.09285004218749993 -0.2594874328125001 0.1822281796875
v -0.10915151484374996 -0.32909219296875003 0.21422188749999996
v -0.11476885937499998 -0.40625 0.22524621484375
v -0.10915151484374996 -0.48340780703124997 0.21422188749999996
v -0.09285004218749993 -0.5530125671875 0.1822281796875
v -0.06745932031250002 -0.60825155703125 0.13239617265625006
v -0.03546561249999993 -0.64371716953125 0.06960476015624996
v -0.012220330468749973 -0.16878283046874998 0.07715780703124998
v -0.023244657812499982 -0.20424844296875 0.14676256718749994
v -0.031993707812500084 -0.2594874328125001 0.20200155703125
v -0.0376110523437501 -0.32909219296875003 0.23746716953125002
v -0.0395467546875 -0.40625 0.2496875
v -0.0376110523437501 -0.48340780703124997 0.23746716953125002
v -0.031993707812500084 -0.5530125671875 0.20200155703125
v -0.023244657812499982 -0.60825155703125 0.14676256718749994
v -0.012220330468749973 -0.64371716953125 0.07715780703124998
vt 0.375 0.23428749999999998
vt 0.399475 0.23428749999999998
vt 0.3872375 0.3125
vt 0.3860375 0.3125
vt 0.375 0.23428749999999998
vt 0.42155 0.23428749999999998
vt 0.4105125 0.3125
vt 0.38375625 0.3125
vt 0.375 0.23428749999999998
vt 0.4390625 0.23428749999999998
vt 0.43030625 0.3125
vt 0.380625 0.3125
vt 0.375 0.23428749999999998
vt 0.4503125 0.23428749999999998
vt 0.4446875 0.3125
vt 0.3769375 0.3125
vt 0.375 0.23428749999999998
vt 0.4541875 0.23428749999999998
vt 0.45225 0.3125
vt 0.375 0.3125
vt 0.3769375 0.23428749999999998
vt 0.45225 0.23428749999999998
vt 0.4541875 0.3125
vt 0.375 0.3125
vt 0.380625 0.23428749999999998
vt 0.4446875 0.23428749999999998
vt 0.4503125 0.3125
vt 0.375 0.3125
vt 0.38375625 0.23428749999999998
vt 0.43030625 0.23428749999999998
vt 0.4390625 0.3125
vt 0.375 0.3125
vt 0.3860375 0.23428749999999998
vt 0.4105125 0.23428749999999998
vt 0.42155 0.3125
vt 0.399475 0.3125
vt 0.375 0.3125
vt 0.3872375 0.23428749999999998
vt 0.375 0.23428749999999998
vt 0.399475 0.23428749999999998
vt 0.3872375 0.3125
vt 0.3860375 0.3125
vt 0.375 0.23428749999999998
vt 0.42155 0.23428749999999998
vt 0.4105125 0.3125
vt 0.38375625 0.3125
vt 0.375 0.23428749999999998
vt 0.4390625 0.23428749999999998
vt 0.43030625 0.3125
vt 0.380625 0.3125
vt 0.375 0.23428749999999998
vt 0.4503125 0.23428749999999998
vt 0.4446875 0.3125
vt 0.3769375 0.3125
vt 0.375 0.23428749999999998
vt 0.4541875 0.23428749999999998
vt 0.45225 0.3125
vt 0.375 0.3125
vt 0.3769375 0.23428749999999998
vt 0.45225 0.23428749999999998
vt 0.4541875 0.3125
vt 0.375 0.3125
vt 0.380625 0.23428749999999998
vt 0.4446875 0.23428749999999998
vt 0.4503125 0.3125
vt 0.375 0.3125
vt 0.38375625 0.23428749999999998
vt 0.43030625 0.23428749999999998
vt 0.4390625 0.3125
vt 0.375 0.3125
vt 0.3860375 0.23428749999999998
vt 0.4105125 0.23428749999999998
vt 0.42155 0.3125
vt 0.399475 0.3125
vt 0.375 0.3125
vt 0.3872375 0.23428749999999998
vt 0.375 0.23428749999999998
vt 0.399475 0.23428749999999998
vt 0.3872375 0.3125
vt 0.3860375 0.3125
vt 0.375 0.23428749999999998
vt 0.42155 0.23428749999999998
vt 0.4105125 0.3125
vt 0.38375625 0.3125
vt 0.375 0.23428749999999998
vt 0.4390625 0.23428749999999998
vt 0.43030625 0.3125
vt 0.380625 0.3125
vt 0.375 0.23428749999999998
vt 0.4503125 0.23428749999999998
vt 0.4446875 0.3125
vt 0.3769375 0.3125
vt 0.375 0.23428749999999998
vt 0.4541875 0.23428749999999998
vt 0.45225 0.3125
vt 0.375 0.3125
vt 0.3769375 0.23428749999999998
vt 0.45225 0.23428749999999998
vt 0.4541875 0.3125
vt 0.375 0.3125
vt 0.380625 0.23428749999999998
vt 0.4446875 0.23428749999999998
vt 0.4503125 0.3125
vt 0.375 0.3125
vt 0.38375625 0.23428749999999998
vt 0.43030625 0.23428749999999998
vt 0.4390625 0.3125
vt 0.375 0.3125
vt 0.3860375 0.23428749999999998
vt 0.4105125 0.23428749999999998
vt 0.42155 0.3125
vt 0.399475 0.3125
vt 0.375 0.3125
vt 0.3872375 0.23428749999999998
vt 0.375 0.23428749999999998
vt 0.399475 0.23428749999999998
vt 0.3872375 0.3125
vt 0.3860375 0.3125
vt 0.375 0.23428749999999998
vt 0.42155 0.23428749999999998
vt 0.4105125 0.3125
vt 0.38375625 0.3125
vt 0.375 0.23428749999999998
vt 0.4390625 0.23428749999999998
vt 0.43030625 0.3125
vt 0.380625 0.3125
vt 0.375 0.23428749999999998
vt 0.4503125 0.23428749999999998
vt 0.4446875 0.3125
vt 0.3769375 0.3125
vt 0.375 0.23428749999999998
vt 0.4541875 0.23428749999999998
vt 0.45225 0.3125
vt 0.375 0.3125
vt 0.3769375 0.23428749999999998
vt 0.45225 0.23428749999999998
vt 0.4541875 0.3125
vt 0.375 0.3125
vt 0.380625 0.23428749999999998
vt 0.4446875 0.23428749999999998
vt 0.4503125 0.3125
vt 0.375 0.3125
vt 0.38375625 0.23428749999999998
vt 0.43030625 0.23428749999999998
vt 0.4390625 0.3125
vt 0.375 0.3125
vt 0.3860375 0.23428749999999998
vt 0.4105125 0.23428749999999998
vt 0.42155 0.3125
vt 0.399475 0.3125
vt 0.375 0.3125
vt 0.3872375 0.23428749999999998
vt 0.375 0.23428749999999998
vt 0.399475 0.23428749999999998
vt 0.3872375 0.3125
vt 0.3860375 0.3125
vt 0.375 0.23428749999999998
vt 0.42155 0.23428749999999998
vt 0.4105125 0.3125
vt 0.38375625 0.3125
vt 0.375 0.23428749999999998
vt 0.4390625 0.23428749999999998
vt 0.43030625 0.3125
vt 0.380625 0.3125
vt 0.375 0.23428749999999998
vt 0.4503125 0.23428749999999998
vt 0.4446875 0.3125
vt 0.3769375 0.3125
vt 0.375 0.23428749999999998
vt 0.4541875 0.23428749999999998
vt 0.45225 0.3125
vt 0.375 0.3125
vt 0.3769375 0.23428749999999998
vt 0.45225 0.23428749999999998
vt 0.4541875 0.3125
vt 0.375 0.3125
vt 0.380625 0.23428749999999998
vt 0.4446875 0.23428749999999998
vt 0.4503125 0.3125
vt 0.375 0.3125
vt 0.38375625 0.23428749999999998
vt 0.43030625 0.23428749999999998
vt 0.4390625 0.3125
vt 0.375 0.3125
vt 0.3860375 0.23428749999999998
vt 0.4105125 0.23428749999999998
vt 0.42155 0.3125
vt 0.399475 0.3125
vt 0.375 0.3125
vt 0.3872375 0.23428749999999998
vt 0.375 0.23428749999999998
vt 0.399475 0.23428749999999998
vt 0.3872375 0.3125
vt 0.3860375 0.3125
vt 0.375 0.23428749999999998
vt 0.42155 0.23428749999999998
vt 0.4105125 0.3125
vt 0.38375625 0.3125
vt 0.375 0.23428749999999998
vt 0.4390625 0.23428749999999998
vt 0.43030625 0.3125
vt 0.380625 0.3125
vt 0.375 0.23428749999999998
vt 0.4503125 0.23428749999999998
vt 0.4446875 0.3125
vt 0.3769375 0.3125
vt 0.375 0.23428749999999998
vt 0.4541875 0.23428749999999998
vt 0.45225 0.3125
vt 0.375 0.3125
vt 0.3769375 0.23428749999999998
vt 0.45225 0.23428749999999998
vt 0.4541875 0.3125
vt 0.375 0.3125
vt 0.380625 0.23428749999999998
vt 0.4446875 0.23428749999999998
vt 0.4503125 0.3125
vt 0.375 0.3125
vt 0.38375625 0.23428749999999998
vt 0.43030625 0.23428749999999998
vt 0.4390625 0.3125
vt 0.375 0.3125
vt 0.3860375 0.23428749999999998
vt 0.4105125 0.23428749999999998
vt 0.42155 0.3125
vt 0.399475 0.3125
vt 0.375 0.3125
vt 0.3872375 0.23428749999999998
vt 0.375 0.23428749999999998
vt 0.399475 0.23428749999999998
vt 0.3872375 0.3125
vt 0.3860375 0.3125
vt 0.375 0.23428749999999998
vt 0.42155 0.23428749999999998
vt 0.4105125 0.3125
vt 0.38375625 0.3125
vt 0.375 0.23428749999999998
vt 0.4390625 0.23428749999999998
vt 0.43030625 0.3125
vt 0.380625 0.3125
vt 0.375 0.23428749999999998
vt 0.4503125 0.23428749999999998
vt 0.4446875 0.3125
vt 0.3769375 0.3125
vt 0.375 0.23428749999999998
vt 0.4541875 0.23428749999999998
vt 0.45225 0.3125
vt 0.375 0.3125
vt 0.3769375 0.23428749999999998
vt 0.45225 0.23428749999999998
vt 0.4541875 0.3125
vt 0.375 0.3125
vt 0.380625 0.23428749999999998
vt 0.4446875 0.23428749999999998
vt 0.4503125 0.3125
vt 0.375 0.3125
vt 0.38375625 0.23428749999999998
vt 0.43030625 0.23428749999999998
vt 0.4390625 0.3125
vt 0.375 0.3125
vt 0.3860375 0.23428749999999998
vt 0.4105125 0.23428749999999998
vt 0.42155 0.3125
vt 0.399475 0.3125
vt 0.375 0.3125
vt 0.3872375 0.23428749999999998
vt 0.375 0.23428749999999998
vt 0.399475 0.23428749999999998
vt 0.3872375 0.3125
vt 0.3860375 0.3125
vt 0.375 0.23428749999999998
vt 0.42155 0.23428749999999998
vt 0.4105125 0.3125
vt 0.38375625 0.3125
vt 0.375 0.23428749999999998
vt 0.4390625 0.23428749999999998
vt 0.43030625 0.3125
vt 0.380625 0.3125
vt 0.375 0.23428749999999998
vt 0.4503125 0.23428749999999998
vt 0.4446875 0.3125
vt 0.3769375 0.3125
vt 0.375 0.23428749999999998
vt 0.4541875 0.23428749999999998
vt 0.45225 0.3125
vt 0.375 0.3125
vt 0.3769375 0.23428749999999998
vt 0.45225 0.23428749999999998
vt 0.4541875 0.3125
vt 0.375 0.3125
vt 0.380625 0.23428749999999998
vt 0.4446875 0.23428749999999998
vt 0.4503125 0.3125
vt 0.375 0.3125
vt 0.38375625 0.23428749999999998
vt 0.43030625 0.23428749999999998
vt 0.4390625 0.3125
vt 0.375 0.3125
vt 0.3860375 0.23428749999999998
vt 0.4105125 0.23428749999999998
vt 0.42155 0.3125
vt 0.399475 0.3125
vt 0.375 0.3125
vt 0.3872375 0.23428749999999998
vt 0.375 0.23428749999999998
vt 0.399475 0.23428749999999998
vt 0.3872375 0.3125
vt 0.3860375 0.3125
vt 0.375 0.23428749999999998
vt 0.42155 0.23428749999999998
vt 0.4105125 0.3125
vt 0.38375625 0.3125
vt 0.375 0.23428749999999998
vt 0.4390625 0.23428749999999998
vt 0.43030625 0.3125
vt 0.380625 0.3125
vt 0.375 0.23428749999999998
vt 0.4503125 0.23428749999999998
vt 0.4446875 0.3125
vt 0.3769375 0.3125
vt 0.375 0.23428749999999998
vt 0.4541875 0.23428749999999998
vt 0.45225 0.3125
vt 0.375 0.3125
vt 0.3769375 0.23428749999999998
vt 0.45225 0.23428749999999998
vt 0.4541875 0.3125
vt 0.375 0.3125
vt 0.380625 0.23428749999999998
vt 0.4446875 0.23428749999999998
vt 0.4503125 0.3125
vt 0.375 0.3125
vt 0.38375625 0.23428749999999998
vt 0.43030625 0.23428749999999998
vt 0.4390625 0.3125
vt 0.375 0.3125
vt 0.3860375 0.23428749999999998
vt 0.4105125 0.23428749999999998
vt 0.42155 0.3125
vt 0.399475 0.3125
vt 0.375 0.3125
vt 0.3872375 0.23428749999999998
vt 0.375 0.23428749999999998
vt 0.399475 0.23428749999999998
vt 0.3872375 0.3125
vt 0.3860375 0.3125
vt 0.375 0.23428749999999998
vt 0.42155 0.23428749999999998
vt 0.4105125 0.3125
vt 0.38375625 0.3125
vt 0.375 0.23428749999999998
vt 0.4390625 0.23428749999999998
vt 0.43030625 0.3125
vt 0.380625 0.3125
vt 0.375 0.23428749999999998
vt 0.4503125 0.23428749999999998
vt 0.4446875 0.3125
vt 0.3769375 0.3125
vt 0.375 0.23428749999999998
vt 0.4541875 0.23428749999999998
vt 0.45225 0.3125
vt 0.375 0.3125
vt 0.3769375 0.23428749999999998
vt 0.45225 0.23428749999999998
vt 0.4541875 0.3125
vt 0.375 0.3125
vt 0.380625 0.23428749999999998
vt 0.4446875 0.23428749999999998
vt 0.4503125 0.3125
vt 0.375 0.3125
vt 0.38375625 0.23428749999999998
vt 0.43030625 0.23428749999999998
vt 0.4390625 0.3125
vt 0.375 0.3125
vt 0.3860375 0.23428749999999998
vt 0.4105125 0.23428749999999998
vt 0.42155 0.3125
vt 0.399475 0.3125
vt 0.375 0.3125
vt 0.3872375 0.23428749999999998
vt 0.375 0.23428749999999998
vt 0.399475 0.23428749999999998
vt 0.3872375 0.3125
vt 0.3860375 0.3125
vt 0.375 0.23428749999999998
vt 0.42155 0.23428749999999998
vt 0.4105125 0.3125
vt 0.38375625 0.3125
vt 0.375 0.23428749999999998
vt 0.4390625 0.23428749999999998
vt 0.43030625 0.3125
vt 0.380625 0.3125
vt 0.375 0.23428749999999998
vt 0.4503125 0.23428749999999998
vt 0.4446875 0.3125
vt 0.3769375 0.3125
vt 0.375 0.23428749999999998
vt 0.4541875 0.23428749999999998
vt 0.45225 0.3125
vt 0.375 0.3125
vt 0.3769375 0.23428749999999998
vt 0.45225 0.23428749999999998
vt 0.4541875 0.3125
vt 0.375 0.3125
vt 0.380625 0.23428749999999998
vt 0.4446875 0.23428749999999998
vt 0.4503125 0.3125
vt 0.375 0.3125
vt 0.38375625 0.23428749999999998
vt 0.43030625 0.23428749999999998
vt 0.4390625 0.3125
vt 0.375 0.3125
vt 0.3860375 0.23428749999999998
vt 0.4105125 0.23428749999999998
vt 0.42155 0.3125
vt 0.399475 0.3125
vt 0.375 0.3125
vt 0.3872375 0.23428749999999998
vt 0.375 0.23428749999999998
vt 0.399475 0.23428749999999998
vt 0.3872375 0.3125
vt 0.3860375 0.3125
vt 0.375 0.23428749999999998
vt 0.42155 0.23428749999999998
vt 0.4105125 0.3125
vt 0.38375625 0.3125
vt 0.375 0.23428749999999998
vt 0.4390625 0.23428749999999998
vt 0.43030625 0.3125
vt 0.380625 0.3125
vt 0.375 0.23428749999999998
vt 0.4503125 0.23428749999999998
vt 0.4446875 0.3125
vt 0.3769375 0.3125
vt 0.375 0.23428749999999998
vt 0.4541875 0.23428749999999998
vt 0.45225 0.3125
vt 0.375 0.3125
vt 0.3769375 0.23428749999999998
vt 0.45225 0.23428749999999998
vt 0.4541875 0.3125
vt 0.375 0.3125
vt 0.380625 0.23428749999999998
vt 0.4446875 0.23428749999999998
vt 0.4503125 0.3125
vt 0.375 0.3125
vt 0.38375625 0.23428749999999998
vt 0.43030625 0.23428749999999998
vt 0.4390625 0.3125
vt 0.375 0.3125
vt 0.3860375 0.23428749999999998
vt 0.4105125 0.23428749999999998
vt 0.42155 0.3125
vt 0.399475 0.3125
vt 0.375 0.3125
vt 0.3872375 0.23428749999999998
vt 0.375 0.23428749999999998
vt 0.399475 0.23428749999999998
vt 0.3872375 0.3125
vt 0.3860375 0.3125
vt 0.375 0.23428749999999998
vt 0.42155 0.23428749999999998
vt 0.4105125 0.3125
vt 0.38375625 0.3125
vt 0.375 0.23428749999999998
vt 0.4390625 0.23428749999999998
vt 0.43030625 0.3125
vt 0.380625 0.3125
vt 0.375 0.23428749999999998
vt 0.4503125 0.23428749999999998
vt 0.4446875 0.3125
vt 0.3769375 0.3125
vt 0.375 0.23428749999999998
vt 0.4541875 0.23428749999999998
vt 0.45225 0.3125
vt 0.375 0.3125
vt 0.3769375 0.23428749999999998
vt 0.45225 0.23428749999999998
vt 0.4541875 0.3125
vt 0.375 0.3125
vt 0.380625 0.23428749999999998
vt 0.4446875 0.23428749999999998
vt 0.4503125 0.3125
vt 0.375 0.3125
vt 0.38375625 0.23428749999999998
vt 0.43030625 0.23428749999999998
vt 0.4390625 0.3125
vt 0.375 0.3125
vt 0.3860375 0.23428749999999998
vt 0.4105125 0.23428749999999998
vt 0.42155 0.3125
vt 0.399475 0.3125
vt 0.375 0.3125
vt 0.3872375 0.23428749999999998
vt 0.375 0.23428749999999998
vt 0.399475 0.23428749999999998
vt 0.3872375 0.3125
vt 0.3860375 0.3125
vt 0.375 0.23428749999999998
vt 0.42155 0.23428749999999998
vt 0.4105125 0.3125
vt 0.38375625 0.3125
vt 0.375 0.23428749999999998
vt 0.4390625 0.23428749999999998
vt 0.43030625 0.3125
vt 0.380625 0.3125
vt 0.375 0.23428749999999998
vt 0.4503125 0.23428749999999998
vt 0.4446875 0.3125
vt 0.3769375 0.3125
vt 0.375 0.23428749999999998
vt 0.4541875 0.23428749999999998
vt 0.45225 0.3125
vt 0.375 0.3125
vt 0.3769375 0.23428749999999998
vt 0.45225 0.23428749999999998
vt 0.4541875 0.3125
vt 0.375 0.3125
vt 0.380625 0.23428749999999998
vt 0.4446875 0.23428749999999998
vt 0.4503125 0.3125
vt 0.375 0.3125
vt 0.38375625 0.23428749999999998
vt 0.43030625 0.23428749999999998
vt 0.4390625 0.3125
vt 0.375 0.3125
vt 0.3860375 0.23428749999999998
vt 0.4105125 0.23428749999999998
vt 0.42155 0.3125
vt 0.399475 0.3125
vt 0.375 0.3125
vt 0.3872375 0.23428749999999998
vt 0.375 0.23428749999999998
vt 0.399475 0.23428749999999998
vt 0.3872375 0.3125
vt 0.3860375 0.3125
vt 0.375 0.23428749999999998
vt 0.42155 0.23428749999999998
vt 0.4105125 0.3125
vt 0.38375625 0.3125
vt 0.375 0.23428749999999998
vt 0.4390625 0.23428749999999998
vt 0.43030625 0.3125
vt 0.380625 0.3125
vt 0.375 0.23428749999999998
vt 0.4503125 0.23428749999999998
vt 0.4446875 0.3125
vt 0.3769375 0.3125
vt 0.375 0.23428749999999998
vt 0.4541875 0.23428749999999998
vt 0.45225 0.3125
vt 0.375 0.3125
vt 0.3769375 0.23428749999999998
vt 0.45225 0.23428749999999998
vt 0.4541875 0.3125
vt 0.375 0.3125
vt 0.380625 0.23428749999999998
vt 0.4446875 0.23428749999999998
vt 0.4503125 0.3125
vt 0.375 0.3125
vt 0.38375625 0.23428749999999998
vt 0.43030625 0.23428749999999998
vt 0.4390625 0.3125
vt 0.375 0.3125
vt 0.3860375 0.23428749999999998
vt 0.4105125 0.23428749999999998
vt 0.42155 0.3125
vt 0.399475 0.3125
vt 0.375 0.3125
vt 0.3872375 0.23428749999999998
vt 0.375 0.23428749999999998
vt 0.399475 0.23428749999999998
vt 0.3872375 0.3125
vt 0.3860375 0.3125
vt 0.375 0.23428749999999998
vt 0.42155 0.23428749999999998
vt 0.4105125 0.3125
vt 0.38375625 0.3125
vt 0.375 0.23428749999999998
vt 0.4390625 0.23428749999999998
vt 0.43030625 0.3125
vt 0.380625 0.3125
vt 0.375 0.23428749999999998
vt 0.4503125 0.23428749999999998
vt 0.4446875 0.3125
vt 0.3769375 0.3125
vt 0.375 0.23428749999999998
vt 0.4541875 0.23428749999999998
vt 0.45225 0.3125
vt 0.375 0.3125
vt 0.3769375 0.23428749999999998
vt 0.45225 0.23428749999999998
vt 0.4541875 0.3125
vt 0.375 0.3125
vt 0.380625 0.23428749999999998
vt 0.4446875 0.23428749999999998
vt 0.4503125 0.3125
vt 0.375 0.3125
vt 0.38375625 0.23428749999999998
vt 0.43030625 0.23428749999999998
vt 0.4390625 0.3125
vt 0.375 0.3125
vt 0.3860375 0.23428749999999998
vt 0.4105125 0.23428749999999998
vt 0.42155 0.3125
vt 0.399475 0.3125
vt 0.375 0.3125
vt 0.3872375 0.23428749999999998
vt 0.375 0.23428749999999998
vt 0.399475 0.23428749999999998
vt 0.3872375 0.3125
vt 0.3860375 0.3125
vt 0.375 0.23428749999999998
vt 0.42155 0.23428749999999998
vt 0.4105125 0.3125
vt 0.38375625 0.3125
vt 0.375 0.23428749999999998
vt 0.4390625 0.23428749999999998
vt 0.43030625 0.3125
vt 0.380625 0.3125
vt 0.375 0.23428749999999998
vt 0.4503125 0.23428749999999998
vt 0.4446875 0.3125
vt 0.3769375 0.3125
vt 0.375 0.23428749999999998
vt 0.4541875 0.23428749999999998
vt 0.45225 0.3125
vt 0.375 0.3125
vt 0.3769375 0.23428749999999998
vt 0.45225 0.23428749999999998
vt 0.4541875 0.3125
vt 0.375 0.3125
vt 0.380625 0.23428749999999998
vt 0.4446875 0.23428749999999998
vt 0.4503125 0.3125
vt 0.375 0.3125
vt 0.38375625 0.23428749999999998
vt 0.43030625 0.23428749999999998
vt 0.4390625 0.3125
vt 0.375 0.3125
vt 0.3860375 0.23428749999999998
vt 0.4105125 0.23428749999999998
vt 0.42155 0.3125
vt 0.399475 0.3125
vt 0.375 0.3125
vt 0.3872375 0.23428749999999998
vt 0.375 0.23428749999999998
vt 0.399475 0.23428749999999998
vt 0.3872375 0.3125
vt 0.3860375 0.3125
vt 0.375 0.23428749999999998
vt 0.42155 0.23428749999999998
vt 0.4105125 0.3125
vt 0.38375625 0.3125
vt 0.375 0.23428749999999998
vt 0.4390625 0.23428749999999998
vt 0.43030625 0.3125
vt 0.380625 0.3125
vt 0.375 0.23428749999999998
vt 0.4503125 0.23428749999999998
vt 0.4446875 0.3125
vt 0.3769375 0.3125
vt 0.375 0.23428749999999998
vt 0.4541875 0.23428749999999998
vt 0.45225 0.3125
vt 0.375 0.3125
vt 0.3769375 0.23428749999999998
vt 0.45225 0.23428749999999998
vt 0.4541875 0.3125
vt 0.375 0.3125
vt 0.380625 0.23428749999999998
vt 0.4446875 0.23428749999999998
vt 0.4503125 0.3125
vt 0.375 0.3125
vt 0.38375625 0.23428749999999998
vt 0.43030625 0.23428749999999998
vt 0.4390625 0.3125
vt 0.375 0.3125
vt 0.3860375 0.23428749999999998
vt 0.4105125 0.23428749999999998
vt 0.42155 0.3125
vt 0.399475 0.3125
vt 0.375 0.3125
vt 0.3872375 0.23428749999999998
vt 0.375 0.23428749999999998
vt 0.399475 0.23428749999999998
vt 0.3872375 0.3125
vt 0.3860375 0.3125
vt 0.375 0.23428749999999998
vt 0.42155 0.23428749999999998
vt 0.4105125 0.3125
vt 0.38375625 0.3125
vt 0.375 0.23428749999999998
vt 0.4390625 0.23428749999999998
vt 0.43030625 0.3125
vt 0.380625 0.3125
vt 0.375 0.23428749999999998
vt 0.4503125 0.23428749999999998
vt 0.4446875 0.3125
vt 0.3769375 0.3125
vt 0.375 0.23428749999999998
vt 0.4541875 0.23428749999999998
vt 0.45225 0.3125
vt 0.375 0.3125
vt 0.3769375 0.23428749999999998
vt 0.45225 0.23428749999999998
vt 0.4541875 0.3125
vt 0.375 0.3125
vt 0.380625 0.23428749999999998
vt 0.4446875 0.23428749999999998
vt 0.4503125 0.3125
vt 0.375 0.3125
vt 0.38375625 0.23428749999999998
vt 0.43030625 0.23428749999999998
vt 0.4390625 0.3125
vt 0.375 0.3125
vt 0.3860375 0.23428749999999998
vt 0.4105125 0.23428749999999998
vt 0.42155 0.3125
vt 0.399475 0.3125
vt 0.375 0.3125
vt 0.3872375 0.23428749999999998
vt 0.375 0.23428749999999998
vt 0.399475 0.23428749999999998
vt 0.3872375 0.3125
vt 0.3860375 0.3125
vt 0.375 0.23428749999999998
vt 0.42155 0.23428749999999998
vt 0.4105125 0.3125
vt 0.38375625 0.3125
vt 0.375 0.23428749999999998
vt 0.4390625 0.23428749999999998
vt 0.43030625 0.3125
vt 0.380625 0.3125
vt 0.375 0.23428749999999998
vt 0.4503125 0.23428749999999998
vt 0.4446875 0.3125
vt 0.3769375 0.3125
vt 0.375 0.23428749999999998
vt 0.4541875 0.23428749999999998
vt 0.45225 0.3125
vt 0.375 0.3125
vt 0.3769375 0.23428749999999998
vt 0.45225 0.23428749999999998
vt 0.4541875 0.3125
vt 0.375 0.3125
vt 0.380625 0.23428749999999998
vt 0.4446875 0.23428749999999998
vt 0.4503125 0.3125
vt 0.375 0.3125
vt 0.38375625 0.23428749999999998
vt 0.43030625 0.23428749999999998
vt 0.4390625 0.3125
vt 0.375 0.3125
vt 0.3860375 0.23428749999999998
vt 0.4105125 0.23428749999999998
vt 0.42155 0.3125
vt 0.399475 0.3125
vt 0.375 0.3125
vt 0.3872375 0.23428749999999998
vn 0.04834113047127364 0.9876888108927864 0.148774822943781
vn 0.14029310253540675 0.8910053131240782 0.4317723675336962
vn 0.21850752497123827 0.7071069239193165 0.6724985202038036
vn 0.27533982048498984 0.45399287105251884 0.8473951004630512
vn 0.3052142115616094 0.15643184840357718 0.9393473063068131
vn 0.30521708777916046 -0.15643177449531348 0.9393463840649282
vn 0.2753351775784828 -0.45399318053660315 0.8473964432389863
vn 0.21851051707286787 -0.7071066810231234 0.6724978034023686
vn 0.14029489251770966 -0.891005197270589 0.4317720249972699
vn 0.048341130471273835 -0.987688810892786 0.14877482294378164
vn 0.09194616503747143 0.9876888547958222 0.12655682062622822
vn 0.2668486443567891 0.8910054944253065 0.36728872826273734
vn 0.4156265103500881 0.7071082888384035 0.5720598497974081
vn 0.5237156658579187 0.45398910471496784 0.7208438070311064
vn 0.5805515256091336 0.15643517948828914 0.799054416627162
vn 0.580542733419033 -0.15643544467122902 0.7990607525869811
vn 0.5237216286157144 -0.4539886434527057 0.720839765368196
vn 0.4156236138007504 -0.7071085569426652 0.5720616228603931
vn 0.26684454672483215 -0.8910057917483739 0.36729098403591737
vn 0.09194616503747183 -0.9876888547958222 0.12655682062622878
vn 0.12655682062622794 0.9876888547958222 0.09194616503747173
vn 0.3672897749316037 0.8910048352218145 0.2668494047998592
vn 0.5720610023652727 0.7071068641885484 0.41562734774107113
vn 0.7208416410548997 0.4539943591542137 0.5237140922081762
vn 0.7990557372562664 0.15642487267274824 0.5805524851097952
vn 0.799062141185088 -0.15642460747976744 0.5805437422791702
vn 0.7208372191204352 -0.4539948204285488 0.5237197786553108
vn 0.572063209242326 -0.7071065960768471 0.4156247663650295
vn 0.36729297494023155 -0.8910045378643886 0.26684599315826735
vn 0.1265568206262285 -0.9876888547958221 0.09194616503747213
vn 0.1487748229437807 0.9876888108927863 0.04834113047127402
vn 0.43177188812200706 0.8910055699691599 0.14029294676315657
vn 0.672497292687314 0.707108214603382 0.2185071261278467
vn 0.8473968088896449 0.45398934552543424 0.27534037559543467
vn 0.9393468736030269 0.1564347210055535 0.30521407096681125
vn 0.9393459290940815 -0.1564347949252118 0.30521693994777505
vn 0.8473984516093642 -0.45398903604967217 0.2753358301361118
vn 0.6724961138736202 -0.7071084574969426 0.21850996810482876
vn 0.4317711131145419 -0.8910056858129045 0.14029459622132798
vn 0.14877482294378136 -0.9876888108927862 0.04834113047127424
vn 0.15643114814209025 0.9876888659344841 0
vn 0.453992692762284 0.8910054067840725 0
vn 0.7071067811865477 0.7071067811865474 0
vn 0.8910054067840727 0.4539926927622835 0
vn 0.9876888659344842 0.1564311481420905 0
vn 0.9876888659344841 -0.1564311481420905 0
vn 0.8910054067840731 -0.453992692762283 0
vn 0.7071067811865469 -0.7071067811865481 0
vn 0.45399269276228416 -0.8910054067840726 0
vn 0.15643114814209094 -0.987688865934484 0
vn 0.14877482294378067 0.9876888108927864 -0.04834113047127425
vn 0.4317723675336968 0.891005313124078 -0.14029310253540694
vn 0.6724985202038036 0.7071069239193165 -0.2185075249712383
vn 0.8473951004630512 0.45399287105251884 -0.27533982048498984
vn 0.9393473063068131 0.15643184840357718 -0.3052142115616094
vn 0.9393463840649282 -0.15643177449531348 -0.30521708777916046
vn 0.8473964432389863 -0.45399318053660315 -0.2753351775784828
vn 0.6724978034023686 -0.7071066810231234 -0.21851051707286787
vn 0.4317720249972701 -0.8910051972705888 -0.14029489251771174
vn 0.14877482294378136 -0.9876888108927863 -0.04834113047127447
vn 0.12655682062622822 0.9876888547958222 -0.09194616503747143
vn 0.36728872826273706 0.8910054944253065 -0.26684864435678973
vn 0.5720598497974084 0.7071082888384036 -0.4156265103500874
vn 0.7208438070311064 0.45398910471496784 -0.5237156658579187
vn 0.7990544166271615 0.15643517948828914 -0.5805515256091343
vn 0.7990607525869811 -0.15643544467122902 -0.580542733419033
vn 0.7208397653681965 -0.4539886434527057 -0.5237216286157136
vn 0.5720616228603925 -0.7071085569426651 -0.4156236138007512
vn 0.36729098403591737 -0.8910057917483739 -0.26684454672483215
vn 0.12655682062622878 -0.9876888547958222 -0.09194616503747183
vn 0.09194616503747143 0.9876888547958222 -0.12655682062622822
vn 0.2668494047998595 0.8910048352218143 -0.36728977493160403
vn 0.4156273477410692 0.7071068641885495 -0.5720610023652729
vn 0.5237140922081773 0.4539943591542128 -0.7208416410548995
vn 0.5805524851097971 0.1564248726727472 -0.7990557372562653
vn 0.5805437422791713 -0.15642460747976633 -0.7990621411850874
vn 0.5237197786553093 -0.45399482042854766 -0.7208372191204369
vn 0.4156247663650287 -0.7071065960768483 -0.572063209242325
vn 0.2668459931582666 -0.8910045378643882 -0.3672929749402327
vn 0.09194616503747183 -0.9876888547958222 -0.12655682062622878
vn 0.04834113047127424 0.9876888108927862 -0.14877482294378067
vn 0.1402929467631585 0.8910055699691598 -0.43177188812200645
vn 0.2185071261278483 0.7071082146033827 -0.6724972926873128
vn 0.2753403755954336 0.4539893455254355 -0.8473968088896443
vn 0.30521407096680997 0.15643472100555347 -0.9393468736030273
vn 0.3052169399477742 -0.1564347949252118 -0.9393459290940819
vn 0.2753358301361139 -0.4539890360496737 -0.8473984516093627
vn 0.2185099681048316 -0.7071084574969434 -0.6724961138736185
vn 0.14029459622132864 -0.8910056858129043 -0.4317711131145419
vn 0.04834113047127447 -0.9876888108927863 -0.14877482294378133
vn 0 0.9876888659344841 -0.15643114814209025
vn 0 0.8910054067840728 -0.45399269276228343
vn 0 0.7071067811865474 -0.7071067811865477
vn 0 0.45399269276228243 -0.8910054067840735
vn 0 0.1564311481420905 -0.9876888659344842
vn 0 -0.1564311481420905 -0.9876888659344841
vn 0 -0.45399269276228177 -0.8910054067840736
vn 0 -0.7071067811865481 -0.707106781186547
vn 0 -0.8910054067840727 -0.4539926927622835
vn 0 -0.987688865934484 -0.15643114814209094
vn -0.04834113047127425 0.9876888108927864 -0.14877482294378067
vn -0.1402931025354088 0.891005313124078 -0.43177236753369586
vn -0.21850752497123938 0.7071069239193164 -0.6724985202038033
vn -0.2753398204849888 0.4539928710525178 -0.8473951004630521
vn -0.3052142115616081 0.1564318484035772 -0.9393473063068133
vn -0.30521708777915907 -0.1564317744953135 -0.9393463840649287
vn -0.2753351775784844 -0.453993180536602 -0.8473964432389864
vn -0.21851051707287114 -0.7071066810231231 -0.672497803402368
vn -0.14029489251771157 -0.8910051972705889 -0.4317720249972695
vn -0.04834113047127447 -0.9876888108927863 -0.14877482294378136
vn -0.09194616503747143 0.9876888547958222 -0.12655682062622822
vn -0.26684864435679 0.8910054944253064 -0.36728872826273745
vn -0.4156265103500863 0.7071082888384042 -0.5720598497974084
vn -0.5237156658579193 0.4539891047149686 -0.7208438070311054
vn -0.5805515256091361 0.15643517948828908 -0.7990544166271603
vn -0.5805427334190338 -0.156435444671229 -0.7990607525869804
vn -0.5237216286157124 -0.4539886434527068 -0.7208397653681969
vn -0.4156236138007509 -0.7071085569426656 -0.5720616228603921
vn -0.26684454672483243 -0.8910057917483737 -0.36729098403591776
vn -0.09194616503747183 -0.9876888547958222 -0.12655682062622878
vn -0.12655682062622822 0.9876888547958222 -0.09194616503747143
vn -0.36728977493160386 0.8910048352218142 -0.2668494047998602
vn -0.5720610023652727 0.7071068641885503 -0.4156273477410681
vn -0.7208416410548997 0.45399435915421216 -0.5237140922081776
vn -0.7990557372562649 0.15642487267274638 -0.5805524851097978
vn -0.7990621411850876 -0.15642460747976553 -0.5805437422791713
vn -0.7208372191204377 -0.453994820428547 -0.5237197786553088
vn -0.5720632092423238 -0.7071065960768492 -0.41562476636502904
vn -0.3672929749402331 -0.8910045378643879 -0.2668459931582668
vn -0.12655682062622878 -0.9876888547958222 -0.09194616503747183
vn -0.14877482294378067 0.9876888108927862 -0.04834113047127424
vn -0.43177188812200645 0.8910055699691598 -0.1402929467631585
vn -0.6724972926873128 0.7071082146033827 -0.2185071261278483
vn -0.8473968088896443 0.4539893455254355 -0.2753403755954336
vn -0.9393468736030273 0.15643472100555347 -0.30521407096680997
vn -0.9393459290940819 -0.1564347949252118 -0.3052169399477742
vn -0.8473984516093627 -0.4539890360496737 -0.2753358301361139
vn -0.6724961138736185 -0.7071084574969434 -0.2185099681048316
vn -0.4317711131145419 -0.8910056858129043 -0.14029459622132864
vn -0.14877482294378133 -0.9876888108927863 -0.04834113047127447
vn -0.15643114814209025 0.9876888659344841 0
vn -0.45399269276228343 0.8910054067840728 0
vn -0.7071067811865477 0.7071067811865474 0
vn -0.8910054067840734 0.4539926927622823 0
vn -0.9876888659344842 0.1564311481420905 0
vn -0.9876888659344841 -0.15643114814209047 0
vn -0.8910054067840736 -0.4539926927622818 0
vn -0.707106781186547 -0.7071067811865481 0
vn -0.4539926927622835 -0.8910054067840727 0
vn -0.15643114814209094 -0.987688865934484 0
vn -0.1487748229437807 0.9876888108927863 0.04834113047127402
vn -0.43177236753369586 0.891005313124078 0.1402931025354088
vn -0.6724985202038037 0.7071069239193163 0.21850752497123874
vn -0.8473951004630523 0.4539928710525179 0.27533982048498845
vn -0.9393473063068133 0.15643184840357766 0.3052142115616081
vn -0.9393463840649288 -0.15643177449531395 0.3052170877791586
vn -0.8473964432389869 -0.4539931805366021 0.2753351775784835
vn -0.6724978034023681 -0.7071066810231228 0.21851051707287114
vn -0.4317720249972697 -0.8910051972705891 0.14029489251771096
vn -0.14877482294378136 -0.9876888108927862 0.04834113047127424
vn -0.12655682062622794 0.9876888547958222 0.09194616503747173
vn -0.367288728262738 0.8910054944253061 0.2668486443567896
vn -0.5720598497974074 0.7071082888384046 0.4156265103500873
vn -0.7208438070311057 0.453989104714968 0.5237156658579195
vn -0.7990544166271609 0.1564351794882891 0.5805515256091355
vn -0.7990607525869804 -0.156435444671229 0.5805427334190338
vn -0.720839765368196 -0.45398864345270595 0.523721628615714
vn -0.5720616228603922 -0.7071085569426661 0.41562361380074975
vn -0.3672909840359175 -0.8910057917483734 0.2668445467248337
vn -0.1265568206262285 -0.9876888547958221 0.09194616503747213
vn -0.09194616503747143 0.9876888547958222 0.12655682062622822
vn -0.2668494047998599 0.8910048352218144 0.36728977493160353
vn -0.4156273477410695 0.7071068641885492 0.5720610023652729
vn -0.5237140922081764 0.453994359154213 0.7208416410549
vn -0.5805524851097958 0.15642487267274743 0.799055737256266
vn -0.5805437422791702 -0.1564246074797666 0.7990621411850879
vn -0.5237197786553095 -0.453994820428548 0.7208372191204366
vn -0.4156247663650297 -0.707106596076848 0.5720632092423247
vn -0.2668459931582666 -0.8910045378643882 0.3672929749402327
vn -0.09194616503747183 -0.9876888547958222 0.12655682062622878
vn -0.04834113047127364 0.9876888108927864 0.148774822943781
vn -0.14029294676315648 0.89100556996916 0.43177188812200684
vn -0.21850712612784742 0.7071082146033818 0.6724972926873138
vn -0.275340375595435 0.4539893455254345 0.8473968088896444
vn -0.30521407096681125 0.1564347210055535 0.9393468736030269
vn -0.30521693994777555 -0.15643479492521187 0.9393459290940815
vn -0.27533583013611257 -0.4539890360496725 0.8473984516093636
vn -0.2185099681048289 -0.7071084574969425 0.6724961138736204
vn -0.1402945962213267 -0.8910056858129044 0.4317711131145422
vn -0.048341130471273835 -0.987688810892786 0.14877482294378164
vn 0 0.9876888659344841 0.1564311481420905
vn 0 0.8910054067840728 0.45399269276228343
vn 0 0.7071067811865474 0.7071067811865477
vn 0 0.45399269276228355 0.8910054067840727
vn 0 0.1564311481420905 0.9876888659344842
vn 0 -0.1564311481420905 0.9876888659344841
vn 0 -0.4539926927622829 0.891005406784073
vn 0 -0.7071067811865481 0.707106781186547
vn 0 -0.8910054067840727 0.4539926927622835
vn 0 -0.9876888659344841 0.1564311481420912
usemtl m_e6d3c20c-743a-dff9-159d-715f2920e03e
f 17/49/13 18/50/13 19/51/13
f 17/52/14 20/53/14 21/54/14 18/55/14
f 20/56/15 22/57/15 23/58/15 21/59/15
f 22/60/16 24/61/16 25/62/16 23/63/16
f 24/64/17 26/65/17 27/66/17 25/67/17
f 26/68/18 28/69/18 29/70/18 27/71/18
f 28/72/19 30/73/19 31/74/19 29/75/19
f 30/76/20 32/77/20 33/78/20 31/79/20
f 32/80/21 34/81/21 35/82/21 33/83/21
f 35/84/22 34/85/22 36/86/22
f 18/87/23 37/88/23 19/89/23
f 18/90/24 21/91/24 38/92/24 37/93/24
f 21/94/25 23/95/25 39/96/25 38/97/25
f 23/98/26 25/99/26 40/100/26 39/101/26
f 25/102/27 27/103/27 41/104/27 40/105/27
f 27/106/28 29/107/28 42/108/28 41/109/28
f 29/110/29 31/111/29 43/112/29 42/113/29
f 31/114/30 33/115/30 44/116/30 43/117/30
f 33/118/31 35/119/31 45/120/31 44/121/31
f 45/122/32 35/123/32 36/124/32
f 37/125/33 46/126/33 19/127/33
f 37/128/34 38/129/34 47/130/34 46/131/34
f 38/132/35 39/133/35 48/134/35 47/135/35
f 39/136/36 40/137/36 49/138/36 48/139/36
f 40/140/37 41/141/37 50/142/37 49/143/37
f 41/144/38 42/145/38 51/146/38 50/147/38
f 42/148/39 43/149/39 52/150/39 51/151/39
f 43/152/40 44/153/40 53/154/40 52/155/40
f 44/156/41 45/157/41 54/158/41 53/159/41
f 54/160/42 45/161/42 36/162/42
f 46/163/43 55/164/43 19/165/43
f 46/166/44 47/167/44 56/168/44 55/169/44
f 47/170/45 48/171/45 57/172/45 56/173/45
f 48/174/46 49/175/46 58/176/46 57/177/46
f 49/178/47 50/179/47 59/180/47 58/181/47
f 50/182/48 51/183/48 60/184/48 59/185/48
f 51/186/49 52/187/49 61/188/49 60/189/49
f 52/190/50 53/191/50 62/192/50 61/193/50
f 53/194/51 54/195/51 63/196/51 62/197/51
f 63/198/52 54/199/52 36/200/52
f 55/201/53 64/202/53 19/203/53
f 55/204/54 56/205/54 65/206/54 64/207/54
f 56/208/55 57/209/55 66/210/55 65/211/55
f 57/212/56 58/213/56 67/214/56 66/215/56
f 58/216/57 59/217/57 68/218/57 67/219/57
f 59/220/58 60/221/58 69/222/58 68/223/58
f 60/224/59 61/225/59 70/226/59 69/227/59
f 61/228/60 62/229/60 71/230/60 70/231/60
f 62/232/61 63/233/61 72/234/61 71/235/61
f 72/236/62 63/237/62 36/238/62
f 64/239/63 73/240/63 19/241/63
f 64/242/64 65/243/64 74/244/64 73/245/64
f 65/246/65 66/247/65 75/248/65 74/249/65
f 66/250/66 67/251/66 76/252/66 75/253/66
f 67/254/67 68/255/67 77/256/67 76/257/67
f 68/258/68 69/259/68 78/260/68 77/261/68
f 69/262/69 70/263/69 79/264/69 78/265/69
f 70/266/70 71/267/70 80/268/70 79/269/70
f 71/270/71 72/271/71 81/272/71 80/273/71
f 81/274/72 72/275/72 36/276/72
f 73/277/73 82/278/73 19/279/73
f 73/280/74 74/281/74 83/282/74 82/283/74
f 74/284/75 75/285/75 84/286/75 83/287/75
f 75/288/76 76/289/76 85/290/76 84/291/76
f 76/292/77 77/293/77 86/294/77 85/295/77
f 77/296/78 78/297/78 87/298/78 86/299/78
f 78/300/79 79/301/79 88/302/79 87/303/79
f 79/304/80 80/305/80 89/306/80 88/307/80
f 80/308/81 81/309/81 90/310/81 89/311/81
f 90/312/82 81/313/82 36/314/82
f 82/315/83 91/316/83 19/317/83
f 82/318/84 83/319/84 92/320/84 91/321/84
f 83/322/85 84/323/85 93/324/85 92/325/85
f 84/326/86 85/327/86 94/328/86 93/329/86
f 85/330/87 86/331/87 95/332/87 94/333/87
f 86/334/88 87/335/88 96/336/88 95/337/88
f 87/338/89 88/339/89 97/340/89 96/341/89
f 88/342/90 89/343/90 98/344/90 97/345/90
f 89/346/91 90/347/91 99/348/91 98/349/91
f 99/350/92 90/351/92 36/352/92
f 91/353/93 100/354/93 19/355/93
f 91/356/94 92/357/94 101/358/94 100/359/94
f 92/360/95 93/361/95 102/362/95 101/363/95
f 93/364/96 94/365/96 103/366/96 102/367/96
f 94/368/97 95/369/97 104/370/97 103/371/97
f 95/372/98 96/373/98 105/374/98 104/375/98
f 96/376/99 97/377/99 106/378/99 105/379/99
f 97/380/100 98/381/100 107/382/100 106/383/100
f 98/384/101 99/385/101 108/386/101 107/387/101
f 108/388/102 99/389/102 36/390/102
f 100/391/103 109/392/103 19/393/103
f 100/394/104 101/395/104 110/396/104 109/397/104
f 101/398/105 102/399/105 111/400/105 110/401/105
f 102/402/106 103/403/106 112/404/106 111/405/106
f 103/406/107 104/407/107 113/408/107 112/409/107
f 104/410/108 105/411/108 114/412/108 113/413/108
f 105/414/109 106/415/109 115/416/109 114/417/109
f 106/418/110 107/419/110 116/420/110 115/421/110
f 107/422/111 108/423/111 117/424/111 116/425/111
f 117/426/112 108/427/112 36/428/112
f 109/429/113 118/430/113 19/431/113
f 109/432/114 110/433/114 119/434/114 118/435/114
f 110/436/115 111/437/115 120/438/115 119/439/115
f 111/440/116 112/441/116 121/442/116 120/443/116
f 112/444/117 113/445/117 122/446/117 121/447/117
f 113/448/118 114/449/118 123/450/118 122/451/118
f 114/452/119 115/453/119 124/454/119 123/455/119
f 115/456/120 116/457/120 125/458/120 124/459/120
f 116/460/121 117/461/121 126/462/121 125/463/121
f 126/464/122 117/465/122 36/466/122
f 118/467/123 127/468/123 19/469/123
f 118/470/124 119/471/124 128/472/124 127/473/124
f 119/474/125 120/475/125 129/476/125 128/477/125
f 120/478/126 121/479/126 130/480/126 129/481/126
f 121/482/127 122/483/127 131/484/127 130/485/127
f 122/486/128 123/487/128 132/488/128 131/489/128
f 123/490/129 124/491/129 133/492/129 132/493/129
f 124/494/130 125/495/130 134/496/130 133/497/130
f 125/498/131 126/499/131 135/500/131 134/501/131
f 135/502/132 126/503/132 36/504/132
f 127/505/133 136/506/133 19/507/133
f 127/508/134 128/509/134 137/510/134 136/511/134
f 128/512/135 129/513/135 138/514/135 137/515/135
f 129/516/136 130/517/136 139/518/136 138/519/136
f 130/520/137 131/521/137 140/522/137 139/523/137
f 131/524/138 132/525/138 141/526/138 140/527/138
f 132/528/139 133/529/139 142/530/139 141/531/139
f 133/532/140 134/533/140 143/534/140 142/535/140
f 134/536/141 135/537/141 144/538/141 143/539/141
f 144/540/142 135/541/142 36/542/142
f 136/543/143 145/544/143 19/545/143
f 136/546/144 137/547/144 146/548/144 145/549/144
f 137/550/145 138/551/145 147/552/145 146/553/145
f 138/554/146 139/555/146 148/556/146 147/557/146
f 139/558/147 140/559/147 149/560/147 148/561/147
f 140/562/148 141/563/148 150/564/148 149/565/148
f 141/566/149 142/567/149 151/568/149 150/569/149
f 142/570/150 143/571/150 152/572/150 151/573/150
f 143/574/151 144/575/151 153/576/151 152/577/151
f 153/578/152 144/579/152 36/580/152
f 145/581/153 154/582/153 19/583/153
f 145/584/154 146/585/154 155/586/154 154/587/154
f 146/588/155 147/589/155 156/590/155 155/591/155
f 147/592/156 148/593/156 157/594/156 156/595/156
f 148/596/157 149/597/157 158/598/157 157/599/157
f 149/600/158 150/601/158 159/602/158 158/603/158
f 150/604/159 151/605/159 160/606/159 159/607/159
f 151/608/160 152/609/160 161/610/160 160/611/160
f 152/612/161 153/613/161 162/614/161 161/615/161
f 162/616/162 153/617/162 36/618/162
f 154/619/163 163/620/163 19/621/163
f 154/622/164 155/623/164 164/624/164 163/625/164
f 155/626/165 156/627/165 165/628/165 164/629/165
f 156/630/166 157/631/166 166/632/166 165/633/166
f 157/634/167 158/635/167 167/636/167 166/637/167
f 158/638/168 159/639/168 168/640/168 167/641/168
f 159/642/169 160/643/169 169/644/169 168/645/169
f 160/646/170 161/647/170 170/648/170 169/649/170
f 161/650/171 162/651/171 171/652/171 170/653/171
f 171/654/172 162/655/172 36/656/172
f 163/657/173 172/658/173 19/659/173
f 163/660/174 164/661/174 173/662/174 172/663/174
f 164/664/175 165/665/175 174/666/175 173/667/175
f 165/668/176 166/669/176 175/670/176 174/671/176
f 166/672/177 167/673/177 176/674/177 175/675/177
f 167/676/178 168/677/178 177/678/178 176/679/178
f 168/680/179 169/681/179 178/682/179 177/683/179
f 169/684/180 170/685/180 179/686/180 178/687/180
f 170/688/181 171/689/181 180/690/181 179/691/181
f 180/692/182 171/693/182 36/694/182
f 172/695/183 181/696/183 19/697/183
f 172/698/184 173/699/184 182/700/184 181/701/184
f 173/702/185 174/703/185 183/704/185 182/705/185
f 174/706/186 175/707/186 184/708/186 183/709/186
f 175/710/187 176/711/187 185/712/187 184/713/187
f 176/714/188 177/715/188 186/716/188 185/717/188
f 177/718/189 178/719/189 187/720/189 186/721/189
f 178/722/190 179/723/190 188/724/190 187/725/190
f 179/726/191 180/727/191 189/728/191 188/729/191
f 189/730/192 180/731/192 36/732/192
f 181/733/193 190/734/193 19/735/193
f 181/736/194 182/737/194 191/738/194 190/739/194
f 182/740/195 183/741/195 192/742/195 191/743/195
f 183/744/196 184/745/196 193/746/196 192/747/196
f 184/748/197 185/749/197 194/750/197 193/751/197
f 185/752/198 186/753/198 195/754/198 194/755/198
f 186/756/199 187/757/199 196/758/199 195/759/199
f 187/760/200 188/761/200 197/762/200 196/763/200
f 188/764/201 189/765/201 198/766/201 197/767/201
f 198/768/202 189/769/202 36/770/202
f 190/771/203 17/772/203 19/773/203
f 190/774/204 191/775/204 20/776/204 17/777/204
f 191/778/205 192/779/205 22/780/205 20/781/205
f 192/782/206 193/783/206 24/784/206 22/785/206
f 193/786/207 194/787/207 26/788/207 24/789/207
f 194/790/208 195/791/208 28/792/208 26/793/208
f 195/794/209 196/795/209 30/796/209 28/797/209
f 196/798/210 197/799/210 32/800/210 30/801/210
f 197/802/211 198/803/211 34/804/211 32/805/211
f 34/806/212 198/807/212 36/808/212