# Made in Blockbench 5.1.4
mtllib dc_metro_roof_g1e.mtl

o part1e
v -6.720851824935671e-13 2.500000000000675 -0.5
v -6.7442611007364e-13 2.5000000000006715 0.5
v -6.720851824935671e-13 2.500000000000675 -0.5
v -6.7442611007364e-13 2.5000000000006715 0.5
v 0.4999999999999997 1.9999999999999987 0.49999999999999944
v 0.5000000000000021 2.000000000000002 -0.5000000000000006
v 0.4999999999999997 1.9999999999999987 0.49999999999999944
v 0.5000000000000021 2.000000000000002 -0.5000000000000006
vt 0 0.2553616523515625
vt 0 0.8515625
vt 1 0.8515625
vt 1 0.2553616523515625
vt 0 0.2553616523515625
vt 0 0.8046875
vt 1 0.8046875
vt 1 0.2553616523515625
vn 0.7071067811865467 0.7071067811865485 4.1192675685652995e-15
vn -0.7071067811865467 -0.7071067811865485 -4.1192675685652995e-15
usemtl m_9cd3b345-b0bc-e367-e166-09c23204c692
f 6/4/1 1/3/1 2/2/1 5/1/1
f 7/8/2 4/7/2 3/6/2 8/5/2
o part1e
v 6.7346128673762e-13 2.5000000000006737 0.5
v 6.7346128673762e-13 2.5000000000006737 -0.5
v 6.7346128673762e-13 2.5000000000006737 0.5
v 6.7346128673762e-13 2.5000000000006737 -0.5
v -0.5 2 -0.5
v -0.5 2 0.5
v -0.5 2 -0.5
v -0.5 2 0.5
vt 0 0.2084866523515625
vt 0 0.8671875
vt 1 0.8671875
vt 1 0.2084866523515625
vt 0 0.25
vt 0 0.828125
vt 1 0.828125
vt 1 0.25
vn -0.7071067811865476 0.7071067811865475 0
vn 0.7071067811865476 -0.7071067811865475 0
usemtl m_9cd3b345-b0bc-e367-e166-09c23204c692
f 14/12/3 9/11/3 10/10/3 13/9/3
f 15/16/4 12/15/4 11/14/4 16/13/4
o part1e
v 0.0234375 2 0.5
v 0.0234375 2 0.5
v 0.0234375 1 0.5
v 0.0234375 1 0.5
v -0.0234375 2 0.5
v -0.0234375 2 0.5
v -0.0234375 1 0.5
v -0.0234375 1 0.5
vt 0 1
vt 1 1
vt 1 0.984375
vt 0 0.984375
vt 0 1
vt 1 1
vt 1 0.984375
vt 0 0.984375
vn 0 0 -1
vn 0 0 1
usemtl m_9cd3b345-b0bc-e367-e166-09c23204c692
f 20/20/5 23/19/5 21/18/5 18/17/5
f 24/24/6 19/23/6 17/22/6 22/21/6
o part1e
v 0.5 2 0.5
v 0.5 2 0.5
v 0.5 1 0.5
v 0.5 1 0.5
v -0.5 2 0.5
v -0.5 2 0.5
v -0.5 1 0.5
v -0.5 1 0.5
vt 0 0.9453125
vt 1 0.9453125
vt 1 0
vt 0 0
vt 0 0.9453125
vt 1 0.9453125
vt 1 0
vt 0 0
vn 0 0 -1
vn 0 0 1
usemtl m_9cd3b345-b0bc-e367-e166-09c23204c692
f 28/28/7 31/27/7 29/26/7 26/25/7
f 32/32/8 27/31/8 25/30/8 30/29/8
o part1e
v 0 2.5 0.5
v 0 2.5 0.5
v 0 2 0.5
v 0 2 0.5
v -0.5 2 0.5
v -0.5 2 0.5
vt 0.0625 1
vt 0 1
vt 0.0625 0
vt 0 0
vt 1 1
vt 0 1
vt 1 0.9375
vt 0 0.9375
vt 1 0.46875
vt 1 1
vt 0.46875 0.46875
vt 0.46875 0.46875
vt 1 1
vt 1 0.46875
vt 0 1
vt 0 -0.4142125000000001
vt 0.0625 1
vt 0.0625 -0.4142125000000001
vn 0 0 0
vn 0 0 0
vn 0 0 1
vn 0 0 -1
vn 0 0 0
usemtl none
f 34/33/9 33/34/9 36/35/9 35/36/9
f 35/37/10 37/38/10 36/39/10 38/40/10
usemtl m_f7583603-78d4-1289-78d8-67faf107f67b
f 35/41/11 33/42/11 37/43/11
f 38/44/12 34/45/12 36/46/12
usemtl none
f 34/47/13 38/48/13 33/49/13 37/50/13
o part1e
v -6.123233995736766e-17 2.5 0.49999999999999994
v -6.123233995736766e-17 2.5 0.49999999999999994
v 0 2 0.5
v 0 2 0.5
v 0.5 2 0.49999999999999944
v 0.5 2 0.49999999999999944
vt 0.0625 1
vt 0 1
vt 0.0625 0
vt 0 0
vt 1 1
vt 0 1
vt 1 0.9375
vt 0 0.9375
vt 1 0.46875
vt 1 1
vt 0.46875 0.46875
vt 0.46875 0.46875
vt 1 1
vt 1 0.46875
vt 0 1
vt 0 -0.4142125000000001
vt 0.0625 1
vt 0.0625 -0.4142125000000001
vn 0 0 0
vn 0 0 0
vn -1.1449174941446927e-15 -1.2246467991473532e-16 -1
vn 1.1449174941446927e-15 1.2246467991473532e-16 1
vn 0 0 0
usemtl none
f 40/51/14 39/52/14 42/53/14 41/54/14
f 41/55/15 43/56/15 42/57/15 44/58/15
usemtl m_f7583603-78d4-1289-78d8-67faf107f67b
f 41/59/16 39/60/16 43/61/16
f 44/62/17 40/63/17 42/64/17
usemtl none
f 40/65/18 44/66/18 39/67/18 43/68/18