# Made in Blockbench 5.1.6
mtllib dc_metro_roof_j_light_pole_2_light_layer.mtl

o cylinder
v -0.21143274201335308 0.343125 0.6389803629121934
v -0.23437499999999986 0.343125 0.5683713532010632
v 1.1796119636642288e-16 0.343125 0.53125
v -0.21143274201335308 0.343125 0.6389803629121934
v -0.23437499999999986 0.343125 0.5683713532010632
v 1.1796119636642288e-16 0.343125 0.53125
v -0.16779397409990324 0.343125 0.6990439740999034
v -0.16779397409990324 0.343125 0.6990439740999034
v -0.10773036291219325 0.343125 0.7426827420133533
v -0.10773036291219325 0.343125 0.7426827420133533
v -0.03712135320106302 0.343125 0.765625
v -0.03712135320106302 0.343125 0.765625
v 0.03712135320106337 0.343125 0.765625
v 0.03712135320106337 0.343125 0.765625
v 0.10773036291219353 0.343125 0.7426827420133533
v 0.10773036291219353 0.343125 0.7426827420133533
v 0.16779397409990351 0.343125 0.6990439740999034
v 0.16779397409990351 0.343125 0.6990439740999034
v 0.21143274201335327 0.343125 0.6389803629121935
v 0.21143274201335327 0.343125 0.6389803629121935
v 0.23437500000000014 0.343125 0.5683713532010632
v 0.23437500000000014 0.343125 0.5683713532010632
v 0.2343750000000001 0.343125 0.4941286467989367
v 0.2343750000000001 0.343125 0.4941286467989367
v 0.21143274201335335 0.343125 0.4235196370878067
v 0.21143274201335335 0.343125 0.4235196370878067
v 0.1677939740999035 0.343125 0.36345602590009657
v 0.1677939740999035 0.343125 0.36345602590009657
v 0.10773036291219348 0.343125 0.31981725798664684
v 0.10773036291219348 0.343125 0.31981725798664684
v 0.03712135320106326 0.343125 0.296875
v 0.03712135320106326 0.343125 0.296875
v -0.037121353201063065 0.343125 0.296875
v -0.037121353201063065 0.343125 0.296875
v -0.10773036291219329 0.343125 0.31981725798664673
v -0.10773036291219329 0.343125 0.31981725798664673
v -0.1677939740999032 0.343125 0.3634560259000967
v -0.1677939740999032 0.343125 0.3634560259000967
v -0.21143274201335305 0.343125 0.4235196370878066
v -0.21143274201335305 0.343125 0.4235196370878066
v -0.2343749999999999 0.343125 0.4941286467989368
v -0.2343749999999999 0.343125 0.4941286467989368
vt 0.1265567148369161 0.9608923654791622
vt 0.12036458333822525 1
vt 0 0.9608923654791621
vt 0 0.9877625
vt 0.03765625 1
vt 0.03765625 1
vt 0 0.9877625
vt 0 0.8734415550032318
vt 0.03910709988674708 0.8796370621463547
vt 2.0816681711721685e-17 1
vt 0.12655443616286233 0.9608925755830016
vt 0.12036283241009763 1
vt 0 0.9608925755830015
vt 0 0.976725
vt 0.03203125 1
vt 0.03203125 1
vt 0 0.976725
vt 4.85722573273506e-17 0.8734432851630839
vt 0.03910672028151713 0.8796393347421045
vt 0 1
vt 0.1265567148369161 0.9608932797184829
vt 0.12036066525789556 1
vt 0 0.960893279718483
vt 0 0.96796875
vt 0.023275000000000004 1
vt 0.023275000000000004 1
vt 0 0.96796875
vt 1.3877787807814457e-17 0.8734455638371377
vt 0.03910742441699851 0.8796371675899024
vt 0 1
vt 0.1265584449967682 0.9608929001132529
vt 0.12036293785364532 1
vt 0 0.9608929001132529
vt 0 0.96234375
vt 0.012237499999999998 1
vt 0.012237499999999998 1
vt 0 0.96234375
vt 0 0.8734432851630839
vt 0.03910763452083776 0.8796354166617747
vt 5.551115123125783e-17 1
vt 0.125 0.9604
vt 0.125 1
vt 0 0.9802
vt 0 0.9604
vt 0 1
vt 0 1
vt 0 0.9604
vt 0.125 0.9604
vt 0.125 1
vt 0 0.9802
vt 0 0.8734432851630839
vt 0.03910763452083776 0.8796354166617747
vt 5.551115123125783e-17 1
vt 0.012237499999999998 0.9623437499999987
vt 0 0.9999999999999987
vt 0 0.9999999999999987
vt 0.012237499999999998 0.9623437499999987
vt 0.1265584449967682 0.9608929001132529
vt 0.12036293785364532 1
vt 0 0.9608929001132529
vt 1.3877787807814457e-17 0.8734455638371377
vt 0.03910742441699851 0.8796371675899024
vt 0 1
vt 0.023275000000000004 0.96796875
vt 0 1
vt 0 1
vt 0.023275000000000004 0.96796875
vt 0.1265567148369161 0.9608932797184829
vt 0.12036066525789556 1
vt 0 0.960893279718483
vt 4.85722573273506e-17 0.8734432851630839
vt 0.03910672028151713 0.8796393347421045
vt 0 1
vt 0.03203125 0.9767249999999976
vt 0 0.9999999999999977
vt 0 0.9999999999999977
vt 0.03203125 0.9767249999999976
vt 0.12655443616286233 0.9608925755830016
vt 0.12036283241009763 1
vt 0 0.9608925755830015
vt 0 0.8734415550032318
vt 0.03910709988674708 0.8796370621463547
vt 2.0816681711721685e-17 1
vt 0.03765625 0.9877625
vt 0 1
vt 0 1
vt 0.03765625 0.9877625
vt 0.1265567148369161 0.9608923654791622
vt 0.12036458333822525 1
vt 0 0.9608923654791621
vt 0 0.875
vt 0.039599999999999996 0.875
vt 0.0198 1
vt 0.039599999999999996 1
vt 0 1
vt 0 1
vt 0.039599999999999996 1
vt 0.039599999999999996 1
vt 0 1
vt 0.0198 0.875
vt 0 1
vt 0.0061921314986908005 0.9608923654791622
vt 0.1265567148369161 1
vt 0.03765625000000132 1
vt 1.3183898417423734e-15 0.9877625
vt 1.3183898417423734e-15 0.9877625
vt 0.03765625000000132 1
vt 0.03910709988674708 1
vt 0 0.9938044928568771
vt 0.03910709988674706 0.8734415550032318
vt 0 1
vt 0.006191603752764702 0.9608925755830015
vt 0.12655443616286233 1
vt 0.03203125 0.9999999999999977
vt 0 0.9767249999999976
vt 0 0.9767249999999976
vt 0.03203125 0.9999999999999977
vt 0.03910672028151708 1
vt 0 0.9938039504209795
vt 0.03910672028151707 0.8734432851630839
vt 0 1
vt 0.0061960495790205905 0.9608932797184828
vt 0.1265567148369161 1
vt 0.02327500000000232 1
vt 2.3175905639050143e-15 0.96796875
vt 2.3175905639050143e-15 0.96796875
vt 0.02327500000000232 1
vt 0.03910742441699849 1
vt 0 0.9938083962472353
vt 0.03910742441699851 0.8734455638371377
vt 0 1
vt 0.006195507143122864 0.9608929001132529
vt 0.1265584449967682 1
vt 0.012237499999999998 0.9999999999999987
vt 0 0.9623437499999987
vt 0 0.9623437499999987
vt 0.012237499999999998 0.9999999999999987
vt 0.03910763452083776 1
vt 0 0.9938078685013092
vt 0.03910763452083783 0.8734432851630839
vt 0 1
vt 0 0.9604
vt 0.125 0.9802
vt 0 1
vt 0 0.9604
vt 0 0.9604
vt 0 1
vt 0 1
vt 0 0.9604
vt 0.125 0.9802
vt 0.03910763452083776 1
vt 0 0.9938078685013092
vt 0.03910763452083783 0.8734432851630839
vt 0 1
vt 0.012237499999999998 0.96234375
vt 0.012237499999999998 0.96234375
vt 0 1
vt 0 1
vt 0.006195507143122864 0.9608929001132529
vt 0.1265584449967682 1
vt 0.03910742441699849 1
vt 0 0.9938083962472353
vt 0.03910742441699851 0.8734455638371377
vt 2.3175905639050143e-15 1
vt 0.02327500000000232 0.96796875
vt 0.02327500000000232 0.96796875
vt 2.3175905639050143e-15 1
vt 0 1
vt 0.0061960495790205905 0.9608932797184828
vt 0.1265567148369161 1
vt 0.03910672028151708 1
vt 0 0.9938039504209795
vt 0.03910672028151707 0.8734432851630839
vt 0 1
vt 0.03203125 0.976725
vt 0.03203125 0.976725
vt 0 1
vt 0 1
vt 0.006191603752764702 0.9608925755830015
vt 0.12655443616286233 1
vt 0.03910709988674708 1
vt 0 0.9938044928568771
vt 0.03910709988674706 0.8734415550032318
vt 1.3183898417423734e-15 1
vt 0.03765625000000132 0.9877625
vt 0.03765625000000132 0.9877625
vt 1.3183898417423734e-15 1
vt 0 1
vt 0.0061921314986908005 0.9608923654791622
vt 0.1265567148369161 1
vt 0.039599999999999996 1
vt 0 1
vt 0.0198 0.875
vt 0 1
vt 0.039599999999999996 1
vt 0.039599999999999996 1
vt 0 1
vt 0 0.875
vt 0.039599999999999996 0.875
vt 0.0198 1
vn 0 -1 0
vn 0 0 0
vn 0 1 0
vn 0 -1 0
vn 0 0 0
vn 0 1 0
vn 0 -1 0
vn 0 0 0
vn 0 1 0
vn 0 -1 0
vn 0 0 0
vn 0 1 0
vn 0 -1 0
vn 0 0 0
vn 0 1 0
vn 0 -1 0
vn 0 0 0
vn 0 1 0
vn 0 -1 0
vn 0 0 0
vn 0 1 0
vn 0 -1 0
vn 0 0 0
vn 0 1 0
vn 0 -1 0
vn 0 0 0
vn 0 1 0
vn 0 -1 0
vn 0 0 0
vn 0 1 0
vn 0 -1 0
vn 0 0 0
vn 0 1 0
vn 0 -1 0
vn 0 0 0
vn 0 1 0
vn 0 -1 0
vn 0 0 0
vn 0 1 0
vn 0 -1 0
vn 0 0 0
vn 0 1 0
vn 0 -1 0
vn 0 0 0
vn 0 1 0
vn 0 -1 0
vn 0 0 0
vn 0 1 0
vn 0 -1 0
vn 0 0 0
vn 0 1 0
vn 0 -1 0
vn 0 0 0
vn 0 1 0
vn 0 -1 0
vn 0 0 0
vn 0 1 0
vn 0 -1 0
vn 0 0 0
vn 0 1 0
usemtl m_f08cfe10-7d67-e3d3-c9ca-a98861eaac23
f 1/1/1 2/2/1 3/3/1
f 2/4/2 1/5/2 4/6/2 5/7/2
f 5/8/3 4/9/3 6/10/3
f 7/11/4 1/12/4 3/13/4
f 1/14/5 7/15/5 8/16/5 4/17/5
f 4/18/6 8/19/6 6/20/6
f 9/21/7 7/22/7 3/23/7
f 7/24/8 9/25/8 10/26/8 8/27/8
f 8/28/9 10/29/9 6/30/9
f 11/31/10 9/32/10 3/33/10
f 9/34/11 12/35/11 11/36/11 10/37/11
f 10/38/12 12/39/12 6/40/12
f 13/41/13 11/42/13 3/43/13
f 11/44/14 13/45/14 14/46/14 12/47/14
f 12/48/15 14/49/15 6/50/15
f 15/51/16 13/52/16 3/53/16
f 13/54/17 16/55/17 15/56/17 14/57/17
f 14/58/18 16/59/18 6/60/18
f 17/61/19 15/62/19 3/63/19
f 15/64/20 17/65/20 18/66/20 16/67/20
f 16/68/21 18/69/21 6/70/21
f 19/71/22 17/72/22 3/73/22
f 17/74/23 19/75/23 20/76/23 18/77/23
f 18/78/24 20/79/24 6/80/24
f 21/81/25 19/82/25 3/83/25
f 19/84/26 21/85/26 22/86/26 20/87/26
f 20/88/27 22/89/27 6/90/27
f 23/91/28 21/92/28 3/93/28
f 21/94/29 23/95/29 24/96/29 22/97/29
f 22/98/30 24/99/30 6/100/30
f 25/101/31 23/102/31 3/103/31
f 23/104/32 25/105/32 26/106/32 24/107/32
f 24/108/33 26/109/33 6/110/33
f 27/111/34 25/112/34 3/113/34
f 25/114/35 27/115/35 28/116/35 26/117/35
f 26/118/36 28/119/36 6/120/36
f 29/121/37 27/122/37 3/123/37
f 27/124/38 29/125/38 30/126/38 28/127/38
f 28/128/39 30/129/39 6/130/39
f 31/131/40 29/132/40 3/133/40
f 29/134/41 32/135/41 31/136/41 30/137/41
f 30/138/42 32/139/42 6/140/42
f 33/141/43 31/142/43 3/143/43
f 31/144/44 34/145/44 33/146/44 32/147/44
f 32/148/45 34/149/45 6/150/45
f 35/151/46 33/152/46 3/153/46
f 33/154/47 35/155/47 36/156/47 34/157/47
f 34/158/48 36/159/48 6/160/48
f 37/161/49 35/162/49 3/163/49
f 35/164/50 37/165/50 38/166/50 36/167/50
f 36/168/51 38/169/51 6/170/51
f 39/171/52 37/172/52 3/173/52
f 37/174/53 39/175/53 40/176/53 38/177/53
f 38/178/54 40/179/54 6/180/54
f 41/181/55 39/182/55 3/183/55
f 39/184/56 41/185/56 42/186/56 40/187/56
f 40/188/57 42/189/57 6/190/57
f 2/191/58 41/192/58 3/193/58
f 41/194/59 2/195/59 5/196/59 42/197/59
f 42/198/60 5/199/60 6/200/60
o cylinder
v -0.6389803629121937 0.34312500000000007 -0.21143274201335216
v -0.5683713532010636 0.3431250000000001 -0.23437499999999906
v -0.53125 0.34312500000000007 8.861805047929574e-16
v -0.6389803629121937 0.34312500000000007 -0.21143274201335216
v -0.5683713532010636 0.3431250000000001 -0.23437499999999906
v -0.53125 0.34312500000000007 8.861805047929574e-16
v -0.6990439740999036 0.3431250000000001 -0.16779397409990224
v -0.6990439740999036 0.3431250000000001 -0.16779397409990224
v -0.7426827420133535 0.3431250000000001 -0.10773036291219219
v -0.7426827420133535 0.3431250000000001 -0.10773036291219219
v -0.7656250000000001 0.3431250000000001 -0.03712135320106194
v -0.7656250000000001 0.3431250000000001 -0.03712135320106194
v -0.7656249999999999 0.3431250000000001 0.03712135320106445
v -0.7656249999999999 0.3431250000000001 0.03712135320106445
v -0.742682742013353 0.3431250000000001 0.10773036291219458
v -0.742682742013353 0.3431250000000001 0.10773036291219458
v -0.6990439740999032 0.3431250000000001 0.1677939740999045
v -0.6990439740999032 0.3431250000000001 0.1677939740999045
v -0.6389803629121932 0.34312500000000007 0.21143274201335419
v -0.6389803629121932 0.34312500000000007 0.21143274201335419
v -0.5683713532010629 0.343125 0.23437500000000094
v -0.5683713532010629 0.343125 0.23437500000000094
v -0.4941286467989363 0.343125 0.23437500000000083
v -0.4941286467989363 0.343125 0.23437500000000083
v -0.4235196370878064 0.34312500000000007 0.211432742013354
v -0.4235196370878064 0.34312500000000007 0.211432742013354
v -0.3634560259000963 0.34312500000000007 0.16779397409990401
v -0.3634560259000963 0.34312500000000007 0.16779397409990401
v -0.3198172579866466 0.34312500000000007 0.10773036291219397
v -0.3198172579866466 0.34312500000000007 0.10773036291219397
v -0.2968749999999999 0.34312500000000007 0.03712135320106371
v -0.2968749999999999 0.34312500000000007 0.03712135320106371
v -0.296875 0.34312500000000007 -0.03712135320106262
v -0.296875 0.34312500000000007 -0.03712135320106262
v -0.31981725798664684 0.34312500000000007 -0.1077303629121928
v -0.31981725798664684 0.34312500000000007 -0.1077303629121928
v -0.36345602590009685 0.34312500000000007 -0.16779397409990268
v -0.36345602590009685 0.34312500000000007 -0.16779397409990268
v -0.4235196370878068 0.34312500000000007 -0.2114327420133524
v -0.4235196370878068 0.34312500000000007 -0.2114327420133524
v -0.4941286467989371 0.3431250000000001 -0.23437499999999917
v -0.4941286467989371 0.3431250000000001 -0.23437499999999917
vt 0.1265567148369161 0.9608923654791622
vt 0.12036458333822525 1
vt 0 0.9608923654791621
vt 0 0.9877625
vt 0.03765625 1
vt 0.03765625 1
vt 0 0.9877625
vt 0 0.8734415550032318
vt 0.03910709988674708 0.8796370621463547
vt 2.0816681711721685e-17 1
vt 0.12655443616286233 0.9608925755830016
vt 0.12036283241009763 1
vt 0 0.9608925755830015
vt 0 0.976725
vt 0.03203125 1
vt 0.03203125 1
vt 0 0.976725
vt 4.85722573273506e-17 0.8734432851630839
vt 0.03910672028151713 0.8796393347421045
vt 0 1
vt 0.1265567148369161 0.9608932797184829
vt 0.12036066525789556 1
vt 0 0.960893279718483
vt 0 0.96796875
vt 0.023275000000000004 1
vt 0.023275000000000004 1
vt 0 0.96796875
vt 1.3877787807814457e-17 0.8734455638371377
vt 0.03910742441699851 0.8796371675899024
vt 0 1
vt 0.1265584449967682 0.9608929001132529
vt 0.12036293785364532 1
vt 0 0.9608929001132529
vt 0 0.96234375
vt 0.012237499999999998 1
vt 0.012237499999999998 1
vt 0 0.96234375
vt 0 0.8734432851630839
vt 0.03910763452083776 0.8796354166617747
vt 5.551115123125783e-17 1
vt 0.125 0.9604
vt 0.125 1
vt 0 0.9802
vt 0 0.9604
vt 0 1
vt 0 1
vt 0 0.9604
vt 0.125 0.9604
vt 0.125 1
vt 0 0.9802
vt 0 0.8734432851630839
vt 0.03910763452083776 0.8796354166617747
vt 5.551115123125783e-17 1
vt 0.012237499999999998 0.9623437499999987
vt 0 0.9999999999999987
vt 0 0.9999999999999987
vt 0.012237499999999998 0.9623437499999987
vt 0.1265584449967682 0.9608929001132529
vt 0.12036293785364532 1
vt 0 0.9608929001132529
vt 1.3877787807814457e-17 0.8734455638371377
vt 0.03910742441699851 0.8796371675899024
vt 0 1
vt 0.023275000000000004 0.96796875
vt 0 1
vt 0 1
vt 0.023275000000000004 0.96796875
vt 0.1265567148369161 0.9608932797184829
vt 0.12036066525789556 1
vt 0 0.960893279718483
vt 4.85722573273506e-17 0.8734432851630839
vt 0.03910672028151713 0.8796393347421045
vt 0 1
vt 0.03203125 0.9767249999999976
vt 0 0.9999999999999977
vt 0 0.9999999999999977
vt 0.03203125 0.9767249999999976
vt 0.12655443616286233 0.9608925755830016
vt 0.12036283241009763 1
vt 0 0.9608925755830015
vt 0 0.8734415550032318
vt 0.03910709988674708 0.8796370621463547
vt 2.0816681711721685e-17 1
vt 0.03765625 0.9877625
vt 0 1
vt 0 1
vt 0.03765625 0.9877625
vt 0.1265567148369161 0.9608923654791622
vt 0.12036458333822525 1
vt 0 0.9608923654791621
vt 0 0.875
vt 0.039599999999999996 0.875
vt 0.0198 1
vt 0.039599999999999996 1
vt 0 1
vt 0 1
vt 0.039599999999999996 1
vt 0.039599999999999996 1
vt 0 1
vt 0.0198 0.875
vt 0 1
vt 0.0061921314986908005 0.9608923654791622
vt 0.1265567148369161 1
vt 0.03765625000000132 1
vt 1.3183898417423734e-15 0.9877625
vt 1.3183898417423734e-15 0.9877625
vt 0.03765625000000132 1
vt 0.03910709988674708 1
vt 0 0.9938044928568771
vt 0.03910709988674706 0.8734415550032318
vt 0 1
vt 0.006191603752764702 0.9608925755830015
vt 0.12655443616286233 1
vt 0.03203125 0.9999999999999977
vt 0 0.9767249999999976
vt 0 0.9767249999999976
vt 0.03203125 0.9999999999999977
vt 0.03910672028151708 1
vt 0 0.9938039504209795
vt 0.03910672028151707 0.8734432851630839
vt 0 1
vt 0.0061960495790205905 0.9608932797184828
vt 0.1265567148369161 1
vt 0.02327500000000232 1
vt 2.3175905639050143e-15 0.96796875
vt 2.3175905639050143e-15 0.96796875
vt 0.02327500000000232 1
vt 0.03910742441699849 1
vt 0 0.9938083962472353
vt 0.03910742441699851 0.8734455638371377
vt 0 1
vt 0.006195507143122864 0.9608929001132529
vt 0.1265584449967682 1
vt 0.012237499999999998 0.9999999999999987
vt 0 0.9623437499999987
vt 0 0.9623437499999987
vt 0.012237499999999998 0.9999999999999987
vt 0.03910763452083776 1
vt 0 0.9938078685013092
vt 0.03910763452083783 0.8734432851630839
vt 0 1
vt 0 0.9604
vt 0.125 0.9802
vt 0 1
vt 0 0.9604
vt 0 0.9604
vt 0 1
vt 0 1
vt 0 0.9604
vt 0.125 0.9802
vt 0.03910763452083776 1
vt 0 0.9938078685013092
vt 0.03910763452083783 0.8734432851630839
vt 0 1
vt 0.012237499999999998 0.96234375
vt 0.012237499999999998 0.96234375
vt 0 1
vt 0 1
vt 0.006195507143122864 0.9608929001132529
vt 0.1265584449967682 1
vt 0.03910742441699849 1
vt 0 0.9938083962472353
vt 0.03910742441699851 0.8734455638371377
vt 2.3175905639050143e-15 1
vt 0.02327500000000232 0.96796875
vt 0.02327500000000232 0.96796875
vt 2.3175905639050143e-15 1
vt 0 1
vt 0.0061960495790205905 0.9608932797184828
vt 0.1265567148369161 1
vt 0.03910672028151708 1
vt 0 0.9938039504209795
vt 0.03910672028151707 0.8734432851630839
vt 0 1
vt 0.03203125 0.976725
vt 0.03203125 0.976725
vt 0 1
vt 0 1
vt 0.006191603752764702 0.9608925755830015
vt 0.12655443616286233 1
vt 0.03910709988674708 1
vt 0 0.9938044928568771
vt 0.03910709988674706 0.8734415550032318
vt 1.3183898417423734e-15 1
vt 0.03765625000000132 0.9877625
vt 0.03765625000000132 0.9877625
vt 1.3183898417423734e-15 1
vt 0 1
vt 0.0061921314986908005 0.9608923654791622
vt 0.1265567148369161 1
vt 0.039599999999999996 1
vt 0 1
vt 0.0198 0.875
vt 0 1
vt 0.039599999999999996 1
vt 0.039599999999999996 1
vt 0 1
vt 0 0.875
vt 0.039599999999999996 0.875
vt 0.0198 1
vn 6.745084521646003e-16 -1 -3.436792222769607e-16
vn 0 0 0
vn -6.745084521646004e-16 1 3.4367922227696076e-16
vn -6.745084521646005e-16 -1 3.4367922227696086e-16
vn 0 0 0
vn 6.745084521646005e-16 1 -3.4367922227696086e-16
vn -1.9161371615319626e-16 -1 -1.3921551373444474e-16
vn 0 0 0
vn 1.9161371615319626e-16 1 1.3921551373444474e-16
vn -2.2525543298360967e-16 -1 -7.318992685984575e-17
vn 0 0 0
vn 2.252554329836096e-16 1 7.318992685984574e-17
vn -2.3684757858670006e-16 -1 7.083622023405637e-31
vn 0 0 0
vn 2.3684757858670006e-16 1 -7.083622023405636e-31
vn -2.252554329836095e-16 -1 7.318992685984654e-17
vn 0 0 0
vn 2.252554329836095e-16 1 -7.318992685984654e-17
vn -1.916137161531962e-16 -1 1.3921551373444496e-16
vn 0 0 0
vn 1.9161371615319616e-16 1 -1.3921551373444494e-16
vn -6.745084521646019e-16 -1 -3.4367922227695933e-16
vn 0 0 0
vn 6.745084521646019e-16 1 3.4367922227695933e-16
vn -6.745084521646007e-16 -1 -3.4367922227695874e-16
vn 0 0 0
vn 6.745084521646005e-16 1 3.4367922227695864e-16
vn -3.541811011702809e-31 -1 -2.368475785867001e-16
vn 0 0 0
vn 3.541811011702808e-31 1 2.3684757858670006e-16
vn 6.745084521646024e-16 -1 -3.436792222769614e-16
vn 0 0 0
vn -6.745084521646025e-16 1 3.4367922227696145e-16
vn 0 -1 0
vn 0 0 0
vn 0 1 0
vn 0 -1 0
vn 0 0 0
vn 0 1 0
vn 0 -1 0
vn 0 0 0
vn 0 1 0
vn 0 -1 0
vn 0 0 0
vn 0 1 0
vn 0 -1 0
vn 0 0 0
vn 0 1 0
vn 0 -1 0
vn 0 0 0
vn 0 1 0
vn 0 -1 0
vn 0 0 0
vn 0 1 0
vn -6.745084521646007e-16 -1 -3.4367922227695874e-16
vn 0 0 0
vn 6.745084521646005e-16 1 3.4367922227695864e-16
vn -3.541811011702814e-31 -1 -2.3684757858670006e-16
vn 0 0 0
vn 3.541811011702814e-31 1 2.3684757858670006e-16
usemtl m_f08cfe10-7d67-e3d3-c9ca-a98861eaac23
f 43/201/61 44/202/61 45/203/61
f 44/204/62 43/205/62 46/206/62 47/207/62
f 47/208/63 46/209/63 48/210/63
f 49/211/64 43/212/64 45/213/64
f 43/214/65 49/215/65 50/216/65 46/217/65
f 46/218/66 50/219/66 48/220/66
f 51/221/67 49/222/67 45/223/67
f 49/224/68 51/225/68 52/226/68 50/227/68
f 50/228/69 52/229/69 48/230/69
f 53/231/70 51/232/70 45/233/70
f 51/234/71 53/235/71 54/236/71 52/237/71
f 52/238/72 54/239/72 48/240/72
f 55/241/73 53/242/73 45/243/73
f 53/244/74 55/245/74 56/246/74 54/247/74
f 54/248/75 56/249/75 48/250/75
f 57/251/76 55/252/76 45/253/76
f 55/254/77 57/255/77 58/256/77 56/257/77
f 56/258/78 58/259/78 48/260/78
f 59/261/79 57/262/79 45/263/79
f 57/264/80 59/265/80 60/266/80 58/267/80
f 58/268/81 60/269/81 48/270/81
f 61/271/82 59/272/82 45/273/82
f 59/274/83 61/275/83 62/276/83 60/277/83
f 60/278/84 62/279/84 48/280/84
f 63/281/85 61/282/85 45/283/85
f 61/284/86 63/285/86 64/286/86 62/287/86
f 62/288/87 64/289/87 48/290/87
f 65/291/88 63/292/88 45/293/88
f 63/294/89 65/295/89 66/296/89 64/297/89
f 64/298/90 66/299/90 48/300/90
f 67/301/91 65/302/91 45/303/91
f 65/304/92 67/305/92 68/306/92 66/307/92
f 66/308/93 68/309/93 48/310/93
f 69/311/94 67/312/94 45/313/94
f 67/314/95 69/315/95 70/316/95 68/317/95
f 68/318/96 70/319/96 48/320/96
f 71/321/97 69/322/97 45/323/97
f 69/324/98 71/325/98 72/326/98 70/327/98
f 70/328/99 72/329/99 48/330/99
f 73/331/100 71/332/100 45/333/100
f 71/334/101 73/335/101 74/336/101 72/337/101
f 72/338/102 74/339/102 48/340/102
f 75/341/103 73/342/103 45/343/103
f 73/344/104 76/345/104 75/346/104 74/347/104
f 74/348/105 76/349/105 48/350/105
f 77/351/106 75/352/106 45/353/106
f 75/354/107 77/355/107 78/356/107 76/357/107
f 76/358/108 78/359/108 48/360/108
f 79/361/109 77/362/109 45/363/109
f 77/364/110 79/365/110 80/366/110 78/367/110
f 78/368/111 80/369/111 48/370/111
f 81/371/112 79/372/112 45/373/112
f 79/374/113 81/375/113 82/376/113 80/377/113
f 80/378/114 82/379/114 48/380/114
f 83/381/115 81/382/115 45/383/115
f 81/384/116 83/385/116 84/386/116 82/387/116
f 82/388/117 84/389/117 48/390/117
f 44/391/118 83/392/118 45/393/118
f 83/394/119 44/395/119 47/396/119 84/397/119
f 84/398/120 47/399/120 48/400/120
o cylinder
v 0.21143274201335335 0.343125 -0.6389803629121934
v 0.23437500000000014 0.343125 -0.5683713532010632
v 1.1796119636642288e-16 0.343125 -0.53125
v 0.21143274201335335 0.343125 -0.6389803629121934
v 0.23437500000000014 0.343125 -0.5683713532010632
v 1.1796119636642288e-16 0.343125 -0.53125
v 0.16779397409990357 0.343125 -0.6990439740999034
v 0.16779397409990357 0.343125 -0.6990439740999034
v 0.10773036291219358 0.343125 -0.7426827420133533
v 0.10773036291219358 0.343125 -0.7426827420133533
v 0.03712135320106337 0.343125 -0.765625
v 0.03712135320106337 0.343125 -0.765625
v -0.03712135320106302 0.343125 -0.765625
v -0.03712135320106302 0.343125 -0.765625
v -0.10773036291219319 0.343125 -0.7426827420133533
v -0.10773036291219319 0.343125 -0.7426827420133533
v -0.16779397409990318 0.343125 -0.6990439740999034
v -0.16779397409990318 0.343125 -0.6990439740999034
v -0.211432742013353 0.343125 -0.6389803629121935
v -0.211432742013353 0.343125 -0.6389803629121935
v -0.23437499999999986 0.343125 -0.5683713532010632
v -0.23437499999999986 0.343125 -0.5683713532010632
v -0.2343749999999999 0.343125 -0.4941286467989368
v -0.2343749999999999 0.343125 -0.4941286467989368
v -0.2114327420133532 0.343125 -0.4235196370878068
v -0.2114327420133532 0.343125 -0.4235196370878068
v -0.16779397409990332 0.343125 -0.3634560259000967
v -0.16779397409990332 0.343125 -0.3634560259000967
v -0.10773036291219334 0.343125 -0.31981725798664684
v -0.10773036291219334 0.343125 -0.31981725798664684
v -0.037121353201063134 0.343125 -0.296875
v -0.037121353201063134 0.343125 -0.296875
v 0.037121353201063204 0.343125 -0.296875
v 0.037121353201063204 0.343125 -0.296875
v 0.10773036291219343 0.343125 -0.31981725798664673
v 0.10773036291219343 0.343125 -0.31981725798664673
v 0.16779397409990338 0.343125 -0.36345602590009657
v 0.16779397409990338 0.343125 -0.36345602590009657
v 0.21143274201335321 0.343125 -0.4235196370878065
v 0.21143274201335321 0.343125 -0.4235196370878065
v 0.2343750000000001 0.343125 -0.4941286467989367
v 0.2343750000000001 0.343125 -0.4941286467989367
vt 0.1265567148369161 0.9608923654791622
vt 0.12036458333822525 1
vt 0 0.9608923654791621
vt 0 0.9877625
vt 0.03765625 1
vt 0.03765625 1
vt 0 0.9877625
vt 0 0.8734415550032318
vt 0.03910709988674708 0.8796370621463547
vt 2.0816681711721685e-17 1
vt 0.12655443616286233 0.9608925755830016
vt 0.12036283241009763 1
vt 0 0.9608925755830015
vt 0 0.976725
vt 0.03203125 1
vt 0.03203125 1
vt 0 0.976725
vt 4.85722573273506e-17 0.8734432851630839
vt 0.03910672028151713 0.8796393347421045
vt 0 1
vt 0.1265567148369161 0.9608932797184829
vt 0.12036066525789556 1
vt 0 0.960893279718483
vt 0 0.96796875
vt 0.023275000000000004 1
vt 0.023275000000000004 1
vt 0 0.96796875
vt 1.3877787807814457e-17 0.8734455638371377
vt 0.03910742441699851 0.8796371675899024
vt 0 1
vt 0.1265584449967682 0.9608929001132529
vt 0.12036293785364532 1
vt 0 0.9608929001132529
vt 0 0.96234375
vt 0.012237499999999998 1
vt 0.012237499999999998 1
vt 0 0.96234375
vt 0 0.8734432851630839
vt 0.03910763452083776 0.8796354166617747
vt 5.551115123125783e-17 1
vt 0.125 0.9604
vt 0.125 1
vt 0 0.9802
vt 0 0.9604
vt 0 1
vt 0 1
vt 0 0.9604
vt 0.125 0.9604
vt 0.125 1
vt 0 0.9802
vt 0 0.8734432851630839
vt 0.03910763452083776 0.8796354166617747
vt 5.551115123125783e-17 1
vt 0.012237499999999998 0.9623437499999987
vt 0 0.9999999999999987
vt 0 0.9999999999999987
vt 0.012237499999999998 0.9623437499999987
vt 0.1265584449967682 0.9608929001132529
vt 0.12036293785364532 1
vt 0 0.9608929001132529
vt 1.3877787807814457e-17 0.8734455638371377
vt 0.03910742441699851 0.8796371675899024
vt 0 1
vt 0.023275000000000004 0.96796875
vt 0 1
vt 0 1
vt 0.023275000000000004 0.96796875
vt 0.1265567148369161 0.9608932797184829
vt 0.12036066525789556 1
vt 0 0.960893279718483
vt 4.85722573273506e-17 0.8734432851630839
vt 0.03910672028151713 0.8796393347421045
vt 0 1
vt 0.03203125 0.9767249999999976
vt 0 0.9999999999999977
vt 0 0.9999999999999977
vt 0.03203125 0.9767249999999976
vt 0.12655443616286233 0.9608925755830016
vt 0.12036283241009763 1
vt 0 0.9608925755830015
vt 0 0.8734415550032318
vt 0.03910709988674708 0.8796370621463547
vt 2.0816681711721685e-17 1
vt 0.03765625 0.9877625
vt 0 1
vt 0 1
vt 0.03765625 0.9877625
vt 0.1265567148369161 0.9608923654791622
vt 0.12036458333822525 1
vt 0 0.9608923654791621
vt 0 0.875
vt 0.039599999999999996 0.875
vt 0.0198 1
vt 0.039599999999999996 1
vt 0 1
vt 0 1
vt 0.039599999999999996 1
vt 0.039599999999999996 1
vt 0 1
vt 0.0198 0.875
vt 0 1
vt 0.0061921314986908005 0.9608923654791622
vt 0.1265567148369161 1
vt 0.03765625000000132 1
vt 1.3183898417423734e-15 0.9877625
vt 1.3183898417423734e-15 0.9877625
vt 0.03765625000000132 1
vt 0.03910709988674708 1
vt 0 0.9938044928568771
vt 0.03910709988674706 0.8734415550032318
vt 0 1
vt 0.006191603752764702 0.9608925755830015
vt 0.12655443616286233 1
vt 0.03203125 0.9999999999999977
vt 0 0.9767249999999976
vt 0 0.9767249999999976
vt 0.03203125 0.9999999999999977
vt 0.03910672028151708 1
vt 0 0.9938039504209795
vt 0.03910672028151707 0.8734432851630839
vt 0 1
vt 0.0061960495790205905 0.9608932797184828
vt 0.1265567148369161 1
vt 0.02327500000000232 1
vt 2.3175905639050143e-15 0.96796875
vt 2.3175905639050143e-15 0.96796875
vt 0.02327500000000232 1
vt 0.03910742441699849 1
vt 0 0.9938083962472353
vt 0.03910742441699851 0.8734455638371377
vt 0 1
vt 0.006195507143122864 0.9608929001132529
vt 0.1265584449967682 1
vt 0.012237499999999998 0.9999999999999987
vt 0 0.9623437499999987
vt 0 0.9623437499999987
vt 0.012237499999999998 0.9999999999999987
vt 0.03910763452083776 1
vt 0 0.9938078685013092
vt 0.03910763452083783 0.8734432851630839
vt 0 1
vt 0 0.9604
vt 0.125 0.9802
vt 0 1
vt 0 0.9604
vt 0 0.9604
vt 0 1
vt 0 1
vt 0 0.9604
vt 0.125 0.9802
vt 0.03910763452083776 1
vt 0 0.9938078685013092
vt 0.03910763452083783 0.8734432851630839
vt 0 1
vt 0.012237499999999998 0.96234375
vt 0.012237499999999998 0.96234375
vt 0 1
vt 0 1
vt 0.006195507143122864 0.9608929001132529
vt 0.1265584449967682 1
vt 0.03910742441699849 1
vt 0 0.9938083962472353
vt 0.03910742441699851 0.8734455638371377
vt 2.3175905639050143e-15 1
vt 0.02327500000000232 0.96796875
vt 0.02327500000000232 0.96796875
vt 2.3175905639050143e-15 1
vt 0 1
vt 0.0061960495790205905 0.9608932797184828
vt 0.1265567148369161 1
vt 0.03910672028151708 1
vt 0 0.9938039504209795
vt 0.03910672028151707 0.8734432851630839
vt 0 1
vt 0.03203125 0.976725
vt 0.03203125 0.976725
vt 0 1
vt 0 1
vt 0.006191603752764702 0.9608925755830015
vt 0.12655443616286233 1
vt 0.03910709988674708 1
vt 0 0.9938044928568771
vt 0.03910709988674706 0.8734415550032318
vt 1.3183898417423734e-15 1
vt 0.03765625000000132 0.9877625
vt 0.03765625000000132 0.9877625
vt 1.3183898417423734e-15 1
vt 0 1
vt 0.0061921314986908005 0.9608923654791622
vt 0.1265567148369161 1
vt 0.039599999999999996 1
vt 0 1
vt 0.0198 0.875
vt 0 1
vt 0.039599999999999996 1
vt 0.039599999999999996 1
vt 0 1
vt 0 0.875
vt 0.039599999999999996 0.875
vt 0.0198 1
vn 0 -1 0
vn 0 0 0
vn 0 1 0
vn 0 -1 0
vn 0 0 0
vn 0 1 0
vn 0 -1 0
vn 0 0 0
vn 0 1 0
vn 0 -1 0
vn 0 0 0
vn 0 1 0
vn 0 -1 0
vn 0 0 0
vn 0 1 0
vn 0 -1 0
vn 0 0 0
vn 0 1 0
vn 0 -1 0
vn 0 0 0
vn 0 1 0
vn 0 -1 0
vn 0 0 0
vn 0 1 0
vn 0 -1 0
vn 0 0 0
vn 0 1 0
vn 0 -1 0
vn 0 0 0
vn 0 1 0
vn 0 -1 0
vn 0 0 0
vn 0 1 0
vn 0 -1 0
vn 0 0 0
vn 0 1 0
vn 0 -1 0
vn 0 0 0
vn 0 1 0
vn 0 -1 0
vn 0 0 0
vn 0 1 0
vn 0 -1 0
vn 0 0 0
vn 0 1 0
vn 0 -1 0
vn 0 0 0
vn 0 1 0
vn 0 -1 0
vn 0 0 0
vn 0 1 0
vn 0 -1 0
vn 0 0 0
vn 0 1 0
vn 0 -1 0
vn 0 0 0
vn 0 1 0
vn 0 -1 0
vn 0 0 0
vn 0 1 0
usemtl m_f08cfe10-7d67-e3d3-c9ca-a98861eaac23
f 85/401/121 86/402/121 87/403/121
f 86/404/122 85/405/122 88/406/122 89/407/122
f 89/408/123 88/409/123 90/410/123
f 91/411/124 85/412/124 87/413/124
f 85/414/125 91/415/125 92/416/125 88/417/125
f 88/418/126 92/419/126 90/420/126
f 93/421/127 91/422/127 87/423/127
f 91/424/128 93/425/128 94/426/128 92/427/128
f 92/428/129 94/429/129 90/430/129
f 95/431/130 93/432/130 87/433/130
f 93/434/131 95/435/131 96/436/131 94/437/131
f 94/438/132 96/439/132 90/440/132
f 97/441/133 95/442/133 87/443/133
f 95/444/134 97/445/134 98/446/134 96/447/134
f 96/448/135 98/449/135 90/450/135
f 99/451/136 97/452/136 87/453/136
f 97/454/137 99/455/137 100/456/137 98/457/137
f 98/458/138 100/459/138 90/460/138
f 101/461/139 99/462/139 87/463/139
f 99/464/140 101/465/140 102/466/140 100/467/140
f 100/468/141 102/469/141 90/470/141
f 103/471/142 101/472/142 87/473/142
f 101/474/143 103/475/143 104/476/143 102/477/143
f 102/478/144 104/479/144 90/480/144
f 105/481/145 103/482/145 87/483/145
f 103/484/146 105/485/146 106/486/146 104/487/146
f 104/488/147 106/489/147 90/490/147
f 107/491/148 105/492/148 87/493/148
f 105/494/149 107/495/149 108/496/149 106/497/149
f 106/498/150 108/499/150 90/500/150
f 109/501/151 107/502/151 87/503/151
f 107/504/152 109/505/152 110/506/152 108/507/152
f 108/508/153 110/509/153 90/510/153
f 111/511/154 109/512/154 87/513/154
f 109/514/155 111/515/155 112/516/155 110/517/155
f 110/518/156 112/519/156 90/520/156
f 113/521/157 111/522/157 87/523/157
f 111/524/158 113/525/158 114/526/158 112/527/158
f 112/528/159 114/529/159 90/530/159
f 115/531/160 113/532/160 87/533/160
f 113/534/161 115/535/161 116/536/161 114/537/161
f 114/538/162 116/539/162 90/540/162
f 117/541/163 115/542/163 87/543/163
f 115/544/164 117/545/164 118/546/164 116/547/164
f 116/548/165 118/549/165 90/550/165
f 119/551/166 117/552/166 87/553/166
f 117/554/167 119/555/167 120/556/167 118/557/167
f 118/558/168 120/559/168 90/560/168
f 121/561/169 119/562/169 87/563/169
f 119/564/170 121/565/170 122/566/170 120/567/170
f 120/568/171 122/569/171 90/570/171
f 123/571/172 121/572/172 87/573/172
f 121/574/173 123/575/173 124/576/173 122/577/173
f 122/578/174 124/579/174 90/580/174
f 125/581/175 123/582/175 87/583/175
f 123/584/176 125/585/176 126/586/176 124/587/176
f 124/588/177 126/589/177 90/590/177
f 86/591/178 125/592/178 87/593/178
f 125/594/179 86/595/179 89/596/179 126/597/179
f 126/598/180 89/599/180 90/600/180
o cylinder
v 0.6389803629121934 0.343125 0.21143274201335321
v 0.5683713532010632 0.343125 0.234375
v 0.53125 0.343125 0
v 0.6389803629121934 0.343125 0.21143274201335321
v 0.5683713532010632 0.343125 0.234375
v 0.53125 0.343125 0
v 0.6990439740999034 0.343125 0.1677939740999034
v 0.6990439740999034 0.343125 0.1677939740999034
v 0.7426827420133533 0.343125 0.10773036291219341
v 0.7426827420133533 0.343125 0.10773036291219341
v 0.765625 0.343125 0.0371213532010632
v 0.765625 0.343125 0.0371213532010632
v 0.765625 0.343125 -0.0371213532010632
v 0.765625 0.343125 -0.0371213532010632
v 0.7426827420133533 0.343125 -0.10773036291219336
v 0.7426827420133533 0.343125 -0.10773036291219336
v 0.6990439740999034 0.343125 -0.16779397409990335
v 0.6990439740999034 0.343125 -0.16779397409990335
v 0.6389803629121935 0.343125 -0.21143274201335313
v 0.6389803629121935 0.343125 -0.21143274201335313
v 0.5683713532010632 0.343125 -0.234375
v 0.5683713532010632 0.343125 -0.234375
v 0.49412864679893675 0.343125 -0.234375
v 0.49412864679893675 0.343125 -0.234375
v 0.42351963708780677 0.343125 -0.21143274201335327
v 0.42351963708780677 0.343125 -0.21143274201335327
v 0.3634560259000966 0.343125 -0.1677939740999034
v 0.3634560259000966 0.343125 -0.1677939740999034
v 0.31981725798664684 0.343125 -0.10773036291219341
v 0.31981725798664684 0.343125 -0.10773036291219341
v 0.296875 0.343125 -0.0371213532010632
v 0.296875 0.343125 -0.0371213532010632
v 0.296875 0.343125 0.037121353201063134
v 0.296875 0.343125 0.037121353201063134
v 0.31981725798664673 0.343125 0.10773036291219336
v 0.31981725798664673 0.343125 0.10773036291219336
v 0.3634560259000966 0.343125 0.1677939740999033
v 0.3634560259000966 0.343125 0.1677939740999033
v 0.42351963708780654 0.343125 0.21143274201335313
v 0.42351963708780654 0.343125 0.21143274201335313
v 0.49412864679893675 0.343125 0.234375
v 0.49412864679893675 0.343125 0.234375
vt 0.1265567148369161 0.9608923654791622
vt 0.12036458333822525 1
vt 0 0.9608923654791621
vt 0 0.9877625
vt 0.03765625 1
vt 0.03765625 1
vt 0 0.9877625
vt 0 0.8734415550032318
vt 0.03910709988674708 0.8796370621463547
vt 2.0816681711721685e-17 1
vt 0.12655443616286233 0.9608925755830016
vt 0.12036283241009763 1
vt 0 0.9608925755830015
vt 0 0.976725
vt 0.03203125 1
vt 0.03203125 1
vt 0 0.976725
vt 4.85722573273506e-17 0.8734432851630839
vt 0.03910672028151713 0.8796393347421045
vt 0 1
vt 0.1265567148369161 0.9608932797184829
vt 0.12036066525789556 1
vt 0 0.960893279718483
vt 0 0.96796875
vt 0.023275000000000004 1
vt 0.023275000000000004 1
vt 0 0.96796875
vt 1.3877787807814457e-17 0.8734455638371377
vt 0.03910742441699851 0.8796371675899024
vt 0 1
vt 0.1265584449967682 0.9608929001132529
vt 0.12036293785364532 1
vt 0 0.9608929001132529
vt 0 0.96234375
vt 0.012237499999999998 1
vt 0.012237499999999998 1
vt 0 0.96234375
vt 0 0.8734432851630839
vt 0.03910763452083776 0.8796354166617747
vt 5.551115123125783e-17 1
vt 0.125 0.9604
vt 0.125 1
vt 0 0.9802
vt 0 0.9604
vt 0 1
vt 0 1
vt 0 0.9604
vt 0.125 0.9604
vt 0.125 1
vt 0 0.9802
vt 0 0.8734432851630839
vt 0.03910763452083776 0.8796354166617747
vt 5.551115123125783e-17 1
vt 0.012237499999999998 0.9623437499999987
vt 0 0.9999999999999987
vt 0 0.9999999999999987
vt 0.012237499999999998 0.9623437499999987
vt 0.1265584449967682 0.9608929001132529
vt 0.12036293785364532 1
vt 0 0.9608929001132529
vt 1.3877787807814457e-17 0.8734455638371377
vt 0.03910742441699851 0.8796371675899024
vt 0 1
vt 0.023275000000000004 0.96796875
vt 0 1
vt 0 1
vt 0.023275000000000004 0.96796875
vt 0.1265567148369161 0.9608932797184829
vt 0.12036066525789556 1
vt 0 0.960893279718483
vt 4.85722573273506e-17 0.8734432851630839
vt 0.03910672028151713 0.8796393347421045
vt 0 1
vt 0.03203125 0.9767249999999976
vt 0 0.9999999999999977
vt 0 0.9999999999999977
vt 0.03203125 0.9767249999999976
vt 0.12655443616286233 0.9608925755830016
vt 0.12036283241009763 1
vt 0 0.9608925755830015
vt 0 0.8734415550032318
vt 0.03910709988674708 0.8796370621463547
vt 2.0816681711721685e-17 1
vt 0.03765625 0.9877625
vt 0 1
vt 0 1
vt 0.03765625 0.9877625
vt 0.1265567148369161 0.9608923654791622
vt 0.12036458333822525 1
vt 0 0.9608923654791621
vt 0 0.875
vt 0.039599999999999996 0.875
vt 0.0198 1
vt 0.039599999999999996 1
vt 0 1
vt 0 1
vt 0.039599999999999996 1
vt 0.039599999999999996 1
vt 0 1
vt 0.0198 0.875
vt 0 1
vt 0.0061921314986908005 0.9608923654791622
vt 0.1265567148369161 1
vt 0.03765625000000132 1
vt 1.3183898417423734e-15 0.9877625
vt 1.3183898417423734e-15 0.9877625
vt 0.03765625000000132 1
vt 0.03910709988674708 1
vt 0 0.9938044928568771
vt 0.03910709988674706 0.8734415550032318
vt 0 1
vt 0.006191603752764702 0.9608925755830015
vt 0.12655443616286233 1
vt 0.03203125 0.9999999999999977
vt 0 0.9767249999999976
vt 0 0.9767249999999976
vt 0.03203125 0.9999999999999977
vt 0.03910672028151708 1
vt 0 0.9938039504209795
vt 0.03910672028151707 0.8734432851630839
vt 0 1
vt 0.0061960495790205905 0.9608932797184828
vt 0.1265567148369161 1
vt 0.02327500000000232 1
vt 2.3175905639050143e-15 0.96796875
vt 2.3175905639050143e-15 0.96796875
vt 0.02327500000000232 1
vt 0.03910742441699849 1
vt 0 0.9938083962472353
vt 0.03910742441699851 0.8734455638371377
vt 0 1
vt 0.006195507143122864 0.9608929001132529
vt 0.1265584449967682 1
vt 0.012237499999999998 0.9999999999999987
vt 0 0.9623437499999987
vt 0 0.9623437499999987
vt 0.012237499999999998 0.9999999999999987
vt 0.03910763452083776 1
vt 0 0.9938078685013092
vt 0.03910763452083783 0.8734432851630839
vt 0 1
vt 0 0.9604
vt 0.125 0.9802
vt 0 1
vt 0 0.9604
vt 0 0.9604
vt 0 1
vt 0 1
vt 0 0.9604
vt 0.125 0.9802
vt 0.03910763452083776 1
vt 0 0.9938078685013092
vt 0.03910763452083783 0.8734432851630839
vt 0 1
vt 0.012237499999999998 0.96234375
vt 0.012237499999999998 0.96234375
vt 0 1
vt 0 1
vt 0.006195507143122864 0.9608929001132529
vt 0.1265584449967682 1
vt 0.03910742441699849 1
vt 0 0.9938083962472353
vt 0.03910742441699851 0.8734455638371377
vt 2.3175905639050143e-15 1
vt 0.02327500000000232 0.96796875
vt 0.02327500000000232 0.96796875
vt 2.3175905639050143e-15 1
vt 0 1
vt 0.0061960495790205905 0.9608932797184828
vt 0.1265567148369161 1
vt 0.03910672028151708 1
vt 0 0.9938039504209795
vt 0.03910672028151707 0.8734432851630839
vt 0 1
vt 0.03203125 0.976725
vt 0.03203125 0.976725
vt 0 1
vt 0 1
vt 0.006191603752764702 0.9608925755830015
vt 0.12655443616286233 1
vt 0.03910709988674708 1
vt 0 0.9938044928568771
vt 0.03910709988674706 0.8734415550032318
vt 1.3183898417423734e-15 1
vt 0.03765625000000132 0.9877625
vt 0.03765625000000132 0.9877625
vt 1.3183898417423734e-15 1
vt 0 1
vt 0.0061921314986908005 0.9608923654791622
vt 0.1265567148369161 1
vt 0.039599999999999996 1
vt 0 1
vt 0.0198 0.875
vt 0 1
vt 0.039599999999999996 1
vt 0.039599999999999996 1
vt 0 1
vt 0 0.875
vt 0.039599999999999996 0.875
vt 0.0198 1
vn 0 -1 0
vn 0 0 0
vn 0 1 0
vn 0 -1 0
vn 0 0 0
vn 0 1 0
vn 0 -1 0
vn 0 0 0
vn 0 1 0
vn 0 -1 0
vn 0 0 0
vn 0 1 0
vn 0 -1 0
vn 0 0 0
vn 0 1 0
vn 0 -1 0
vn 0 0 0
vn 0 1 0
vn 0 -1 0
vn 0 0 0
vn 0 1 0
vn 0 -1 0
vn 0 0 0
vn 0 1 0
vn 0 -1 0
vn 0 0 0
vn 0 1 0
vn 0 -1 0
vn 0 0 0
vn 0 1 0
vn 0 -1 0
vn 0 0 0
vn 0 1 0
vn 0 -1 0
vn 0 0 0
vn 0 1 0
vn 0 -1 0
vn 0 0 0
vn 0 1 0
vn 0 -1 0
vn 0 0 0
vn 0 1 0
vn 0 -1 0
vn 0 0 0
vn 0 1 0
vn 0 -1 0
vn 0 0 0
vn 0 1 0
vn 0 -1 0
vn 0 0 0
vn 0 1 0
vn 0 -1 0
vn 0 0 0
vn 0 1 0
vn 0 -1 0
vn 0 0 0
vn 0 1 0
vn 0 -1 0
vn 0 0 0
vn 0 1 0
usemtl m_f08cfe10-7d67-e3d3-c9ca-a98861eaac23
f 127/601/181 128/602/181 129/603/181
f 128/604/182 127/605/182 130/606/182 131/607/182
f 131/608/183 130/609/183 132/610/183
f 133/611/184 127/612/184 129/613/184
f 127/614/185 133/615/185 134/616/185 130/617/185
f 130/618/186 134/619/186 132/620/186
f 135/621/187 133/622/187 129/623/187
f 133/624/188 135/625/188 136/626/188 134/627/188
f 134/628/189 136/629/189 132/630/189
f 137/631/190 135/632/190 129/633/190
f 135/634/191 137/635/191 138/636/191 136/637/191
f 136/638/192 138/639/192 132/640/192
f 139/641/193 137/642/193 129/643/193
f 137/644/194 139/645/194 140/646/194 138/647/194
f 138/648/195 140/649/195 132/650/195
f 141/651/196 139/652/196 129/653/196
f 139/654/197 141/655/197 142/656/197 140/657/197
f 140/658/198 142/659/198 132/660/198
f 143/661/199 141/662/199 129/663/199
f 141/664/200 143/665/200 144/666/200 142/667/200
f 142/668/201 144/669/201 132/670/201
f 145/671/202 143/672/202 129/673/202
f 143/674/203 145/675/203 146/676/203 144/677/203
f 144/678/204 146/679/204 132/680/204
f 147/681/205 145/682/205 129/683/205
f 145/684/206 147/685/206 148/686/206 146/687/206
f 146/688/207 148/689/207 132/690/207
f 149/691/208 147/692/208 129/693/208
f 147/694/209 149/695/209 150/696/209 148/697/209
f 148/698/210 150/699/210 132/700/210
f 151/701/211 149/702/211 129/703/211
f 149/704/212 151/705/212 152/706/212 150/707/212
f 150/708/213 152/709/213 132/710/213
f 153/711/214 151/712/214 129/713/214
f 151/714/215 153/715/215 154/716/215 152/717/215
f 152/718/216 154/719/216 132/720/216
f 155/721/217 153/722/217 129/723/217
f 153/724/218 155/725/218 156/726/218 154/727/218
f 154/728/219 156/729/219 132/730/219
f 157/731/220 155/732/220 129/733/220
f 155/734/221 157/735/221 158/736/221 156/737/221
f 156/738/222 158/739/222 132/740/222
f 159/741/223 157/742/223 129/743/223
f 157/744/224 159/745/224 160/746/224 158/747/224
f 158/748/225 160/749/225 132/750/225
f 161/751/226 159/752/226 129/753/226
f 159/754/227 161/755/227 162/756/227 160/757/227
f 160/758/228 162/759/228 132/760/228
f 163/761/229 161/762/229 129/763/229
f 161/764/230 163/765/230 164/766/230 162/767/230
f 162/768/231 164/769/231 132/770/231
f 165/771/232 163/772/232 129/773/232
f 163/774/233 165/775/233 166/776/233 164/777/233
f 164/778/234 166/779/234 132/780/234
f 167/781/235 165/782/235 129/783/235
f 165/784/236 167/785/236 168/786/236 166/787/236
f 166/788/237 168/789/237 132/790/237
f 128/791/238 167/792/238 129/793/238
f 167/794/239 128/795/239 131/796/239 168/797/239
f 168/798/240 131/799/240 132/800/240