# Made in Blockbench 5.1.4
mtllib dc_metro_roof_i1b.mtl

o part1b
v -6.729061752253074e-13 2.0303300858905824 -0.5000000000000042
v -6.766809335090329e-13 2.0303300858905846 0.4999999999999958
v -0.2651650429456278 1.7651650429456267 -0.5000000000000046
v -0.2651650429456316 1.765165042945629 0.4999999999999954
v 0.765165042944953 1.2651650429449568 0.5000000000000003
v 0.7651650429449568 1.2651650429449546 -0.4999999999999996
v 0.4999999999999981 1.000000000000001 0.5
v 0.5000000000000019 0.9999999999999989 -0.5
vt 0 1
vt 0.125 1
vt 0.125 0.953125
vt 0 0.953125
vt 0 1
vt 0.125 1
vt 0.125 0.953125
vt 0 0.953125
vt 0 1
vt 0.125 1
vt 0.125 0.953125
vt 0 0.953125
vt 0 1
vt 0.125 1
vt 0.125 0.953125
vt 0 0.953125
vt 0 1
vt 0.125 1
vt 0.125 0.875
vt 0 0.875
vt 0 1
vt 1 1
vt 1 0.019841269841269882
vt 0 0.019841269841269882
vn -3.724693596975004e-15 2.2954284187808768e-15 1
vn -0.7071067811865486 0.7071067811865467 -4.256869100911412e-15
vn 3.724693596975004e-15 -2.2954284187808768e-15 -1
vn 0.7071067811865486 -0.7071067811865467 4.256869100911412e-15
vn 0.7071067811865467 0.7071067811865485 1.0106430996148608e-15
vn -0.7071067811865467 -0.7071067811865485 -1.0106430996148608e-15
usemtl m_8ce2ccde-ab7a-7a23-d868-1185644816e5
f 4/4/1 7/3/1 5/2/1 2/1/1
f 3/8/2 4/7/2 2/6/2 1/5/2
f 8/12/3 3/11/3 1/10/3 6/9/3
f 7/16/4 8/15/4 6/14/4 5/13/4
f 6/20/5 1/19/5 2/18/5 5/17/5
usemtl m_84b5fed0-c2a1-cc52-4959-02c7ae42e8ad
f 7/24/6 4/23/6 3/22/6 8/21/6
o part1b
v -0.26516504294562926 1.7651650429456276 -0.1250000000000046
v -0.26516504294563015 1.765165042945628 0.12499999999999539
v -0.5303300858905842 1.500000000000672 -0.125000000000005
v -0.5303300858905851 1.5000000000006724 0.12499999999999502
v 0.49999999999999956 1.0000000000000002 0.125
v 0.5000000000000004 0.9999999999999997 -0.125
v 0.2348349570550446 0.7348349570550445 0.12499999999999963
v 0.23483495705504548 0.7348349570550441 -0.1250000000000004
vt 0 1
vt 0.125 1
vt 0.125 0.953125
vt 0 0.953125
vt 0 1
vt 0.125 1
vt 0.125 0.953125
vt 0 0.953125
vt 0 1
vt 0.125 1
vt 0.125 0.953125
vt 0 0.953125
vt 0 1
vt 0.125 1
vt 0.125 0.953125
vt 0 0.953125
vt 0 1
vt 0.125 1
vt 0.125 0.875
vt 0 0.875
vt 0 1
vt 1.96875 1
vt 1.96875 -0.9296875
vt 0 -0.9296875
vn -3.724693596975004e-15 2.2954284187808768e-15 1
vn -0.7071067811865486 0.7071067811865467 -4.256869100911412e-15
vn 3.724693596975004e-15 -2.2954284187808768e-15 -1
vn 0.7071067811865486 -0.7071067811865467 4.256869100911412e-15
vn 0.7071067811865467 0.7071067811865485 1.0106430996148608e-15
vn -0.7071067811865467 -0.7071067811865485 -1.0106430996148608e-15
usemtl m_8ce2ccde-ab7a-7a23-d868-1185644816e5
f 12/28/7 15/27/7 13/26/7 10/25/7
f 11/32/8 12/31/8 10/30/8 9/29/8
f 16/36/9 11/35/9 9/34/9 14/33/9
f 15/40/10 16/39/10 14/38/10 13/37/10
f 14/44/11 9/43/11 10/42/11 13/41/11
f 15/48/12 12/47/12 11/46/12 16/45/12
o part1b
v -0.2651650429442819 1.765165042945629 0.5
v -0.2651650429442819 1.765165042945629 -0.5
v 6.7346128673762e-13 1.5000000000006737 0.5
v 6.7346128673762e-13 1.5000000000006737 -0.5
v -0.7651650429449554 1.2651650429449552 -0.5
v -0.7651650429449554 1.2651650429449552 0.5
v -0.5 1 -0.5
v -0.5 1 0.5
vt 0.036611652351562496 1
vt 0.125 1
vt 0.125 0.953125
vt 0.036611652351562496 0.953125
vt 0 1
vt 0.125 1
vt 0.125 0.953125
vt 0 0.953125
vt 0 1
vt 0.0883883476484375 1
vt 0.0883883476484375 0.953125
vt 0 0.953125
vt 0 1
vt 0.125 1
vt 0.125 0.953125
vt 0 0.953125
vt 0 1
vt 0.0883883476484375 1
vt 0.0883883476484375 0.875
vt 0 0.875
vt 0 1
vt 0.5 1
vt 0.5 0
vt 0 0
vn 0 0 -1
vn 0.7071067811865475 0.7071067811865476 0
vn 0 0 1
vn -0.7071067811865475 -0.7071067811865476 0
vn -0.7071067811865476 0.7071067811865475 0
vn 0.7071067811865476 -0.7071067811865475 0
usemtl m_8ce2ccde-ab7a-7a23-d868-1185644816e5
f 20/52/13 23/51/13 21/50/13 18/49/13
f 19/56/14 20/55/14 18/54/14 17/53/14
f 24/60/15 19/59/15 17/58/15 22/57/15
f 23/64/16 24/63/16 22/62/16 21/61/16
f 22/68/17 17/67/17 18/66/17 21/65/17
usemtl m_84b5fed0-c2a1-cc52-4959-02c7ae42e8ad
f 23/72/18 20/71/18 19/70/18 24/69/18
o part1b
v -0.2651650429442818 1.2348349570557182 0.125
v -0.2651650429442818 1.2348349570557182 -0.125
v 6.735723090400825e-13 0.969669914110763 0.125
v 6.735723090400825e-13 0.969669914110763 -0.125
v -0.5 1 -0.125
v -0.5 1 0.125
v -0.23483495705504465 0.7348349570550448 -0.125
v -0.23483495705504465 0.7348349570550448 0.125
vt 0.036611652351562496 1
vt 0.125 1
vt 0.125 0.953125
vt 0.036611652351562496 0.953125
vt 0 1
vt 0.125 1
vt 0.125 0.953125
vt 0 0.953125
vt 0 1
vt 0.0883883476484375 1
vt 0.0883883476484375 0.953125
vt 0 0.953125
vt 0 1
vt 0.125 1
vt 0.125 0.953125
vt 0 0.953125
vt 0 1
vt 0.0883883476484375 1
vt 0.0883883476484375 0.875
vt 0 0.875
vt 0 1
vt 0.984375 1
vt 0.984375 -0.96875
vt 0 -0.96875
vn 0 0 -1
vn 0.7071067811865475 0.7071067811865476 0
vn 0 0 1
vn -0.7071067811865475 -0.7071067811865476 0
vn -0.7071067811865476 0.7071067811865475 0
vn 0.7071067811865476 -0.7071067811865475 0
usemtl m_8ce2ccde-ab7a-7a23-d868-1185644816e5
f 28/76/19 31/75/19 29/74/19 26/73/19
f 27/80/20 28/79/20 26/78/20 25/77/20
f 32/84/21 27/83/21 25/82/21 30/81/21
f 31/88/22 32/87/22 30/86/22 29/85/22
f 30/92/23 25/91/23 26/90/23 29/89/23
f 31/96/24 28/95/24 27/94/24 32/93/24