# Made in Blockbench 5.1.6
mtllib dc_metro_fare_gate_1_twoway_closed_light_layer.mtl

o display_main
v 0.4375 0.59375 0.8131250000000001
v 0.5625 0.59375 0.8131250000000001
v 0.5625 0.71875 0.8131250000000001
v 0.4375 0.71875 0.8131250000000001
vt 0 0
vt 0.0625 0
vt 0.0625 0.0625
vt 0 0.0625
vn 0 0 1
usemtl m_5c4446b0-c313-6e62-c9d2-f4c8bd9984ce
f 1/1/1 2/2/1 3/3/1 4/4/1
o display_other
v -0.4375 0.59375 -0.813125
v -0.5625 0.59375 -0.813125
v -0.5625 0.71875 -0.813125
v -0.4375 0.71875 -0.813125
vt 0 0
vt 0.0625 0
vt 0.0625 0.0625
vt 0 0.0625
vn 0 0 -1
usemtl m_5c4446b0-c313-6e62-c9d2-f4c8bd9984ce
f 5/5/2 6/6/2 7/7/2 8/8/2
o cube
v 0.374375 0.015625 0.031249999999999955
v 0.374375 0.015625 0.031249999999999955
v 0.374375 0.046875 0.031249999999999955
v 0.374375 0.046875 0.031249999999999955
v 0.374375 0.015625 -0.03125000000000005
v 0.374375 0.046875 -0.03125000000000005
v 0.374375 0.015625 -0.03125000000000005
v 0.374375 0.046875 -0.03125000000000005
vt 0.125 0.890625
vt 0.125 0.890625
vt 0.125 0.921875
vt 0.125 0.921875
vt 0.03125 0.890625
vt 0.09375 0.890625
vt 0.09375 0.921875
vt 0.03125 0.921875
vt 0 0.890625
vt 0 0.890625
vt 0 0.921875
vt 0 0.921875
vt 0.03125 0.890625
vt 0.09375 0.890625
vt 0.09375 0.921875
vt 0.03125 0.921875
vt 0 0.90625
vt 0 0.90625
vt 0 0.96875
vt 0 0.96875
vt 0 0.90625
vt 0 0.90625
vt 0 0.96875
vt 0 0.96875
vn 0 0 0
vn -1 0 0
vn 0 0 0
vn 1 0 0
vn 0 0 0
vn 0 0 0
usemtl m_df4acac3-24aa-6667-0665-29bb61919a9e
f 9/9/3 10/10/3 11/11/3 12/12/3
f 13/13/4 9/14/4 12/15/4 14/16/4
f 15/17/5 13/18/5 14/19/5 16/20/5
f 10/21/6 15/22/6 16/23/6 11/24/6
f 16/25/7 14/26/7 12/27/7 11/28/7
f 10/29/8 9/30/8 13/31/8 15/32/8
o cube
v -0.374375 0.015625 -0.03125
v -0.374375 0.015625 -0.03125
v -0.374375 0.046875 -0.03125
v -0.374375 0.046875 -0.03125
v -0.374375 0.015625 0.03125
v -0.374375 0.046875 0.03125
v -0.374375 0.015625 0.03125
v -0.374375 0.046875 0.03125
vt 0.125 0.890625
vt 0.125 0.890625
vt 0.125 0.921875
vt 0.125 0.921875
vt 0.03125 0.890625
vt 0.09375 0.890625
vt 0.09375 0.921875
vt 0.03125 0.921875
vt 0 0.890625
vt 0 0.890625
vt 0 0.921875
vt 0 0.921875
vt 0.03125 0.890625
vt 0.09375 0.890625
vt 0.09375 0.921875
vt 0.03125 0.921875
vt 0 0.90625
vt 0 0.90625
vt 0 0.96875
vt 0 0.96875
vt 0 0.90625
vt 0 0.90625
vt 0 0.96875
vt 0 0.96875
vn 0 0 0
vn 1 0 0
vn 0 0 0
vn -1 0 0
vn 0 0 0
vn 0 0 0
usemtl m_df4acac3-24aa-6667-0665-29bb61919a9e
f 17/33/9 18/34/9 19/35/9 20/36/9
f 21/37/10 17/38/10 20/39/10 22/40/10
f 23/41/11 21/42/11 22/43/11 24/44/11
f 18/45/12 23/46/12 24/47/12 19/48/12
f 24/49/13 22/50/13 20/51/13 19/52/13
f 18/53/14 17/54/14 21/55/14 23/56/14