# Made in Blockbench 5.1.6
mtllib dc_metro_roof_f3l.mtl

o part3l
v 0.5 0.125 -0.5
v 0.5 1.4375 -0.5
v 0.5 1.4375 0.5
v 0.5 0.125 0.5
v -0.5 0 0.5
v -0.5 1.0625 0.5
v -0.5 1.0625 -0.5
v -0.5 0 -0.5
vt 1 0
vt 1 1
vt 0 1
vt 0 0
vt 0.125 0.875
vt 0.125 1
vt 0 1
vt 0 0.875
vt 1 1
vt 0 1
vt 0 0
vt 1 0
vt 1 1
vt 0 1
vt 0 0
vt 1 0
vt 1 0
vt 1 1
vt 0 1
vt 0 0
vt 1 0
vt 1 1
vt 0 1
vt 0 0
vn 1 0 0
vn -1 0 0
vn -0.3511234415883917 0.9363291775690445 0
vn 0.12403473458920847 -0.9922778767136677 0
vn 0 0 1
vn 0 0 -1
usemtl m_941463d1-1fd6-17f1-84b5-6577c08d8b1b
f 1/1/1 2/2/1 3/3/1 4/4/1
usemtl m_6ff78c2b-2d5b-fb74-3987-66bbc044e74a
f 5/5/2 6/6/2 7/7/2 8/8/2
usemtl m_47713cc5-e125-fcac-172c-b42239d5ad60
f 3/9/3 2/10/3 7/11/3 6/12/3
usemtl m_941463d1-1fd6-17f1-84b5-6577c08d8b1b
f 1/13/4 4/14/4 5/15/4 8/16/4
f 4/17/5 3/18/5 6/19/5 5/20/5
f 8/21/6 7/22/6 2/23/6 1/24/6
o part3l
v 0.49723595091015493 0.5000002367904177 0.03125000000000022
v 0.8722359509101549 0.5000002367904176 0.031250000000000444
v 0.8722359509101549 0.5625002367904176 0.031250000000000444
v 0.49723595091015493 0.5625002367904176 0.03125000000000022
v 0.49723595091015493 0.5000002367904177 -0.031249999999999778
v 0.49723595091015493 0.5625002367904176 -0.031249999999999778
v 0.8722359509101549 0.5000002367904176 -0.031249999999999556
v 0.8722359509101549 0.5625002367904176 -0.031249999999999556
vt 0.000244140625 0.99365234375
vt 0.006103515625 0.99365234375
vt 0.006103515625 0.99462890625
vt 0.000244140625 0.99462890625
vt 0.00732421875 0.99365234375
vt 0.00830078125 0.99365234375
vt 0.00830078125 0.99462890625
vt 0.00732421875 0.99462890625
vt 0.009765624999999993 0.99365234375
vt 0.015624999999999993 0.99365234375
vt 0.015624999999999993 0.99462890625
vt 0.009765624999999993 0.99462890625
vt 0.007568359375 0.99365234375
vt 0.008544921875 0.99365234375
vt 0.008544921875 0.99462890625
vt 0.007568359375 0.99462890625
vt 0.009765624999999993 0.991455078125
vt 0.015624999999999993 0.991455078125
vt 0.015624999999999993 0.992431640625
vt 0.009765624999999993 0.992431640625
vt 0.009765624999999993 0.99169921875
vt 0.015624999999999993 0.99169921875
vt 0.015624999999999993 0.99267578125
vt 0.009765624999999993 0.99267578125
vn -5.921189464667501e-16 0 1
vn -1 0 0
vn 5.921189464667501e-16 0 -1
vn 1 0 0
vn 0 1 0
vn -2.9605947323337506e-16 -1 0
usemtl m_8cabf908-097c-ecbf-8317-98bd97c19ce8
f 9/25/7 10/26/7 11/27/7 12/28/7
f 13/29/8 9/30/8 12/31/8 14/32/8
f 15/33/9 13/34/9 14/35/9 16/36/9
f 10/37/10 15/38/10 16/39/10 11/40/10
f 16/41/11 14/42/11 12/43/11 11/44/11
f 10/45/12 9/46/12 13/47/12 15/48/12