# Made in Blockbench 5.1.6
mtllib dc_metro_platform_end_fence.mtl

o cube
v 0.421875 0.1875 0.03125
v 0.421875 0.1875 -0.03125
v 0.421875 0.125 0.03125
v 0.421875 0.125 -0.03125
v -0.5 0.1875 -0.03125
v -0.5 0.1875 0.03125
v -0.5 0.125 -0.03125
v -0.5 0.125 0.03125
vt 0.6875 0.53125
vt 0.91796875 0.53125
vt 0.91796875 0.515625
vt 0.6875 0.515625
vt 0.71875 0.703125
vt 0.734375 0.703125
vt 0.734375 0.6875
vt 0.71875 0.6875
vt 0.6875 0.5
vt 0.91796875 0.5
vt 0.91796875 0.484375
vt 0.6875 0.484375
vt 0.3125 0.28125
vt 0.328125 0.28125
vt 0.328125 0.265625
vt 0.3125 0.265625
vt 0.91796875 0.453125
vt 0.6875 0.453125
vt 0.6875 0.46875
vt 0.91796875 0.46875
vt 0.91796875 0.4375
vt 0.6875 0.4375
vt 0.6875 0.421875
vt 0.91796875 0.421875
vn 0 0 -1
vn 1 0 0
vn 0 0 1
vn -1 0 0
vn 0 1 0
vn 0 -1 0
usemtl m_4275c328-1cb1-af25-b68a-b6cc4b94f84d
f 4/4/1 7/3/1 5/2/1 2/1/1
f 3/8/2 4/7/2 2/6/2 1/5/2
f 8/12/3 3/11/3 1/10/3 6/9/3
f 7/16/4 8/15/4 6/14/4 5/13/4
f 6/20/5 1/19/5 2/18/5 5/17/5
f 7/24/6 4/23/6 3/22/6 8/21/6
o cube
v -0.453125 1.953125 0.03125
v -0.453125 1.953125 -0.03125
v -0.453125 0.1875 0.03125
v -0.453125 0.1875 -0.03125
v -0.5 1.953125 -0.03125
v -0.5 1.953125 0.03125
v -0.5 0.1875 -0.03125
v -0.5 0.1875 0.03125
vt 0.40625 0.53125
vt 0.41796875 0.53125
vt 0.41796875 0.08984375
vt 0.40625 0.08984375
vt 0 0.75
vt 0.015625 0.75
vt 0.015625 0.30859375
vt 0 0.30859375
vt 0.4375 0.53125
vt 0.44921875 0.53125
vt 0.44921875 0.08984375
vt 0.4375 0.08984375
vt 0.03125 0.75
vt 0.046875 0.75
vt 0.046875 0.30859375
vt 0.03125 0.30859375
vt 0.73046875 0.625
vt 0.71875 0.625
vt 0.71875 0.640625
vt 0.73046875 0.640625
vt 0.38671875 0.28125
vt 0.375 0.28125
vt 0.375 0.265625
vt 0.38671875 0.265625
vn 0 0 -1
vn 1 0 0
vn 0 0 1
vn -1 0 0
vn 0 1 0
vn 0 -1 0
usemtl m_4275c328-1cb1-af25-b68a-b6cc4b94f84d
f 12/28/7 15/27/7 13/26/7 10/25/7
f 11/32/8 12/31/8 10/30/8 9/29/8
f 16/36/9 11/35/9 9/34/9 14/33/9
f 15/40/10 16/39/10 14/38/10 13/37/10
f 14/44/11 9/43/11 10/42/11 13/41/11
f 15/48/12 12/47/12 11/46/12 16/45/12
o cube
v -0.328125 1.953125 0.03125
v -0.328125 1.953125 -0.03125
v -0.328125 0.1875 0.03125
v -0.328125 0.1875 -0.03125
v -0.375 1.953125 -0.03125
v -0.375 1.953125 0.03125
v -0.375 0.1875 -0.03125
v -0.375 0.1875 0.03125
vt 0.46875 0.53125
vt 0.48046875 0.53125
vt 0.48046875 0.08984375
vt 0.46875 0.08984375
vt 0.0625 0.75
vt 0.078125 0.75
vt 0.078125 0.30859375
vt 0.0625 0.30859375
vt 0.5 1
vt 0.51171875 1
vt 0.51171875 0.55859375
vt 0.5 0.55859375
vt 0.09375 0.75
vt 0.109375 0.75
vt 0.109375 0.30859375
vt 0.09375 0.30859375
vt 0.73046875 0.59375
vt 0.71875 0.59375
vt 0.71875 0.609375
vt 0.73046875 0.609375
vt 0.73046875 0.578125
vt 0.71875 0.578125
vt 0.71875 0.5625
vt 0.73046875 0.5625
vn 0 0 -1
vn 1 0 0
vn 0 0 1
vn -1 0 0
vn 0 1 0
vn 0 -1 0
usemtl m_4275c328-1cb1-af25-b68a-b6cc4b94f84d
f 20/52/13 23/51/13 21/50/13 18/49/13
f 19/56/14 20/55/14 18/54/14 17/53/14
f 24/60/15 19/59/15 17/58/15 22/57/15
f 23/64/16 24/63/16 22/62/16 21/61/16
f 22/68/17 17/67/17 18/66/17 21/65/17
f 23/72/18 20/71/18 19/70/18 24/69/18
o cube
v -0.203125 1.953125 0.03125
v -0.203125 1.953125 -0.03125
v -0.203125 0.1875 0.03125
v -0.203125 0.1875 -0.03125
v -0.25 1.953125 -0.03125
v -0.25 1.953125 0.03125
v -0.25 0.1875 -0.03125
v -0.25 0.1875 0.03125
vt 0.5 0.53125
vt 0.51171875 0.53125
vt 0.51171875 0.08984375
vt 0.5 0.08984375
vt 0.125 0.75
vt 0.140625 0.75
vt 0.140625 0.30859375
vt 0.125 0.30859375
vt 0.53125 1
vt 0.54296875 1
vt 0.54296875 0.55859375
vt 0.53125 0.55859375
vt 0.15625 0.75
vt 0.171875 0.75
vt 0.171875 0.30859375
vt 0.15625 0.30859375
vt 0.73046875 0.328125
vt 0.71875 0.328125
vt 0.71875 0.34375
vt 0.73046875 0.34375
vt 0.73046875 0.3125
vt 0.71875 0.3125
vt 0.71875 0.296875
vt 0.73046875 0.296875
vn 0 0 -1
vn 1 0 0
vn 0 0 1
vn -1 0 0
vn 0 1 0
vn 0 -1 0
usemtl m_4275c328-1cb1-af25-b68a-b6cc4b94f84d
f 28/76/19 31/75/19 29/74/19 26/73/19
f 27/80/20 28/79/20 26/78/20 25/77/20
f 32/84/21 27/83/21 25/82/21 30/81/21
f 31/88/22 32/87/22 30/86/22 29/85/22
f 30/92/23 25/91/23 26/90/23 29/89/23
f 31/96/24 28/95/24 27/94/24 32/93/24
o cube
v -0.078125 1.953125 0.03125
v -0.078125 1.953125 -0.03125
v -0.078125 0.1875 0.03125
v -0.078125 0.1875 -0.03125
v -0.125 1.953125 -0.03125
v -0.125 1.953125 0.03125
v -0.125 0.1875 -0.03125
v -0.125 0.1875 0.03125
vt 0.53125 0.53125
vt 0.54296875 0.53125
vt 0.54296875 0.08984375
vt 0.53125 0.08984375
vt 0.1875 0.75
vt 0.203125 0.75
vt 0.203125 0.30859375
vt 0.1875 0.30859375
vt 0.5625 1
vt 0.57421875 1
vt 0.57421875 0.55859375
vt 0.5625 0.55859375
vt 0.21875 0.75
vt 0.234375 0.75
vt 0.234375 0.30859375
vt 0.21875 0.30859375
vt 0.73046875 0.265625
vt 0.71875 0.265625
vt 0.71875 0.28125
vt 0.73046875 0.28125
vt 0.76171875 1
vt 0.75 1
vt 0.75 0.984375
vt 0.76171875 0.984375
vn 0 0 -1
vn 1 0 0
vn 0 0 1
vn -1 0 0
vn 0 1 0
vn 0 -1 0
usemtl m_4275c328-1cb1-af25-b68a-b6cc4b94f84d
f 36/100/25 39/99/25 37/98/25 34/97/25
f 35/104/26 36/103/26 34/102/26 33/101/26
f 40/108/27 35/107/27 33/106/27 38/105/27
f 39/112/28 40/111/28 38/110/28 37/109/28
f 38/116/29 33/115/29 34/114/29 37/113/29
f 39/120/30 36/119/30 35/118/30 40/117/30
o cube
v 0.046875 1.953125 0.03125
v 0.046875 1.953125 -0.03125
v 0.046875 0.1875 0.03125
v 0.046875 0.1875 -0.03125
v 0 1.953125 -0.03125
v 0 1.953125 0.03125
v 0 0.1875 -0.03125
v 0 0.1875 0.03125
vt 0.5625 0.53125
vt 0.57421875 0.53125
vt 0.57421875 0.08984375
vt 0.5625 0.08984375
vt 0.25 0.75
vt 0.265625 0.75
vt 0.265625 0.30859375
vt 0.25 0.30859375
vt 0.59375 1
vt 0.60546875 1
vt 0.60546875 0.55859375
vt 0.59375 0.55859375
vt 0.28125 0.75
vt 0.296875 0.75
vt 0.296875 0.30859375
vt 0.28125 0.30859375
vt 0.76171875 0.953125
vt 0.75 0.953125
vt 0.75 0.96875
vt 0.76171875 0.96875
vt 0.07421875 0.25
vt 0.0625 0.25
vt 0.0625 0.234375
vt 0.07421875 0.234375
vn 0 0 -1
vn 1 0 0
vn 0 0 1
vn -1 0 0
vn 0 1 0
vn 0 -1 0
usemtl m_4275c328-1cb1-af25-b68a-b6cc4b94f84d
f 44/124/31 47/123/31 45/122/31 42/121/31
f 43/128/32 44/127/32 42/126/32 41/125/32
f 48/132/33 43/131/33 41/130/33 46/129/33
f 47/136/34 48/135/34 46/134/34 45/133/34
f 46/140/35 41/139/35 42/138/35 45/137/35
f 47/144/36 44/143/36 43/142/36 48/141/36
o cube
v 0.171875 1.953125 0.03125
v 0.171875 1.953125 -0.03125
v 0.171875 0.1875 0.03125
v 0.171875 0.1875 -0.03125
v 0.125 1.953125 -0.03125
v 0.125 1.953125 0.03125
v 0.125 0.1875 -0.03125
v 0.125 0.1875 0.03125
vt 0.59375 0.53125
vt 0.60546875 0.53125
vt 0.60546875 0.08984375
vt 0.59375 0.08984375
vt 0.3125 0.75
vt 0.328125 0.75
vt 0.328125 0.30859375
vt 0.3125 0.30859375
vt 0.625 1
vt 0.63671875 1
vt 0.63671875 0.55859375
vt 0.625 0.55859375
vt 0.34375 0.75
vt 0.359375 0.75
vt 0.359375 0.30859375
vt 0.34375 0.30859375
vt 0.76171875 0.921875
vt 0.75 0.921875
vt 0.75 0.9375
vt 0.76171875 0.9375
vt 0.10546875 0.25
vt 0.09375 0.25
vt 0.09375 0.234375
vt 0.10546875 0.234375
vn 0 0 -1
vn 1 0 0
vn 0 0 1
vn -1 0 0
vn 0 1 0
vn 0 -1 0
usemtl m_4275c328-1cb1-af25-b68a-b6cc4b94f84d
f 52/148/37 55/147/37 53/146/37 50/145/37
f 51/152/38 52/151/38 50/150/38 49/149/38
f 56/156/39 51/155/39 49/154/39 54/153/39
f 55/160/40 56/159/40 54/158/40 53/157/40
f 54/164/41 49/163/41 50/162/41 53/161/41
f 55/168/42 52/167/42 51/166/42 56/165/42
o cube
v 0.296875 1.953125 0.03125
v 0.296875 1.953125 -0.03125
v 0.296875 0.1875 0.03125
v 0.296875 0.1875 -0.03125
v 0.25 1.953125 -0.03125
v 0.25 1.953125 0.03125
v 0.25 0.1875 -0.03125
v 0.25 0.1875 0.03125
vt 0.625 0.53125
vt 0.63671875 0.53125
vt 0.63671875 0.08984375
vt 0.625 0.08984375
vt 0.375 0.75
vt 0.390625 0.75
vt 0.390625 0.30859375
vt 0.375 0.30859375
vt 0.65625 1
vt 0.66796875 1
vt 0.66796875 0.55859375
vt 0.65625 0.55859375
vt 0.40625 1
vt 0.421875 1
vt 0.421875 0.55859375
vt 0.40625 0.55859375
vt 0.76171875 0.890625
vt 0.75 0.890625
vt 0.75 0.90625
vt 0.76171875 0.90625
vt 0.13671875 0.25
vt 0.125 0.25
vt 0.125 0.234375
vt 0.13671875 0.234375
vn 0 0 -1
vn 1 0 0
vn 0 0 1
vn -1 0 0
vn 0 1 0
vn 0 -1 0
usemtl m_4275c328-1cb1-af25-b68a-b6cc4b94f84d
f 60/172/43 63/171/43 61/170/43 58/169/43
f 59/176/44 60/175/44 58/174/44 57/173/44
f 64/180/45 59/179/45 57/178/45 62/177/45
f 63/184/46 64/183/46 62/182/46 61/181/46
f 62/188/47 57/187/47 58/186/47 61/185/47
f 63/192/48 60/191/48 59/190/48 64/189/48
o cube
v 0.421875 1.953125 0.03125
v 0.421875 1.953125 -0.03125
v 0.421875 0.1875 0.03125
v 0.421875 0.1875 -0.03125
v 0.375 1.953125 -0.03125
v 0.375 1.953125 0.03125
v 0.375 0.1875 -0.03125
v 0.375 0.1875 0.03125
vt 0.65625 0.53125
vt 0.66796875 0.53125
vt 0.66796875 0.08984375
vt 0.65625 0.08984375
vt 0.4375 1
vt 0.453125 1
vt 0.453125 0.55859375
vt 0.4375 0.55859375
vt 0.6875 1
vt 0.69921875 1
vt 0.69921875 0.55859375
vt 0.6875 0.55859375
vt 0.46875 1
vt 0.484375 1
vt 0.484375 0.55859375
vt 0.46875 0.55859375
vt 0.76171875 0.859375
vt 0.75 0.859375
vt 0.75 0.875
vt 0.76171875 0.875
vt 0.16796875 0.25
vt 0.15625 0.25
vt 0.15625 0.234375
vt 0.16796875 0.234375
vn 0 0 -1
vn 1 0 0
vn 0 0 1
vn -1 0 0
vn 0 1 0
vn 0 -1 0
usemtl m_4275c328-1cb1-af25-b68a-b6cc4b94f84d
f 68/196/49 71/195/49 69/194/49 66/193/49
f 67/200/50 68/199/50 66/198/50 65/197/50
f 72/204/51 67/203/51 65/202/51 70/201/51
f 71/208/52 72/207/52 70/206/52 69/205/52
f 70/212/53 65/211/53 66/210/53 69/209/53
f 71/216/54 68/215/54 67/214/54 72/213/54
o cube
v 0.421875 2 0.03125
v 0.421875 2 -0.03125
v 0.421875 1.953125 0.03125
v 0.421875 1.953125 -0.03125
v -0.5 2 -0.03125
v -0.5 2 0.03125
v -0.5 1.953125 -0.03125
v -0.5 1.953125 0.03125
vt 0.0625 0.28125
vt 0.29296875 0.28125
vt 0.29296875 0.26953125
vt 0.0625 0.26953125
vt 0.75 0.84375
vt 0.765625 0.84375
vt 0.765625 0.83203125
vt 0.75 0.83203125
vt 0.71875 0.734375
vt 0.94921875 0.734375
vt 0.94921875 0.72265625
vt 0.71875 0.72265625
vt 0.1875 0.25
vt 0.203125 0.25
vt 0.203125 0.23828125
vt 0.1875 0.23828125
vt 0.91796875 0.390625
vt 0.6875 0.390625
vt 0.6875 0.40625
vt 0.91796875 0.40625
vt 0.91796875 0.375
vt 0.6875 0.375
vt 0.6875 0.359375
vt 0.91796875 0.359375
vn 0 0 -1
vn 1 0 0
vn 0 0 1
vn -1 0 0
vn 0 1 0
vn 0 -1 0
usemtl m_4275c328-1cb1-af25-b68a-b6cc4b94f84d
f 76/220/55 79/219/55 77/218/55 74/217/55
f 75/224/56 76/223/56 74/222/56 73/221/56
f 80/228/57 75/227/57 73/226/57 78/225/57
f 79/232/58 80/231/58 78/230/58 77/229/58
f 78/236/59 73/235/59 74/234/59 77/233/59
f 79/240/60 76/239/60 75/238/60 80/237/60
o cube
v 0.3125 1.34375 0.031875
v 0.3125 1.34375 0.031875
v 0.3125 0.4375 0.031875
v 0.3125 0.4375 0.031875
v -0.390625 1.34375 0.031875
v -0.390625 1.34375 0.031875
v -0.390625 0.4375 0.031875
v -0.390625 0.4375 0.031875
vt 0 1
vt 0.17578125 1
vt 0.17578125 0.7734375
vt 0 0.7734375
vt 0.203125 1
vt 0.37890625 1
vt 0.37890625 0.7734375
vt 0.203125 0.7734375
vn 0 0 -1
vn 0 0 1
usemtl m_4275c328-1cb1-af25-b68a-b6cc4b94f84d
f 84/244/61 87/243/61 85/242/61 82/241/61
f 88/248/62 83/247/62 81/246/62 86/245/62
o cylinder
v 0.46875 0 0
v 0.46875 1 0
v 0.4771234122634726 0 0.031249999999999997
v 0.4771234122634726 1 0.031249999999999997
v 0.4916265877365274 0 0.022876587736527416
v 0.4916265877365274 1 0.022876587736527416
v 0.5 0 0.008373412263472583
v 0.5 1 0.008373412263472583
v 0.5 0 -0.008373412263472586
v 0.5 1 -0.008373412263472586
v 0.4916265877365274 0 -0.022876587736527412
v 0.4916265877365274 1 -0.022876587736527412
v 0.4771234122634726 0 -0.031249999999999993
v 0.4771234122634726 1 -0.031249999999999993
v 0.46037658773652745 0 -0.03125
v 0.46037658773652745 1 -0.03125
v 0.4458734122634726 0 -0.02287658773652742
v 0.4458734122634726 1 -0.02287658773652742
v 0.4375 0 -0.008373412263472579
v 0.4375 1 -0.008373412263472579
v 0.4375 0 0.008373412263472569
v 0.4375 1 0.008373412263472569
v 0.4458734122634726 0 0.02287658773652741
v 0.4458734122634726 1 0.02287658773652741
v 0.4603765877365274 0 0.031249999999999997
v 0.4603765877365274 1 0.031249999999999997
vt 0.73228125 0.66978125
vt 0.72865625 0.671875
vt 0.7265625 0.6640625
vt 0.0089296875 0.03125
vt 0.0131171875 0.03125
vt 0.0131171875 0.28125
vt 0.0089296875 0.28125
vt 0.35365625 0.265625
vt 0.35728125 0.26771875
vt 0.3515625 0.2734375
vt 0.734375 0.66615625
vt 0.73228125 0.66978125
vt 0.7265625 0.6640625
vt 0.6880546875 0.09375
vt 0.6922421875 0.09375
vt 0.6922421875 0.34375
vt 0.6880546875 0.34375
vt 0.35728125 0.26771875
vt 0.359375 0.27134375
vt 0.3515625 0.2734375
vt 0.734375 0.66196875
vt 0.734375 0.66615625
vt 0.7265625 0.6640625
vt 0.6922421875 0.09375
vt 0.6964296875 0.09375
vt 0.6964296875 0.34375
vt 0.6922421875 0.34375
vt 0.359375 0.27134375
vt 0.359375 0.27553125
vt 0.3515625 0.2734375
vt 0.73228125 0.65834375
vt 0.734375 0.66196875
vt 0.7265625 0.6640625
vt 0.6964296875 0.09375
vt 0.7006171875 0.09375
vt 0.7006171875 0.34375
vt 0.6964296875 0.34375
vt 0.359375 0.27553125
vt 0.35728125 0.27915625
vt 0.3515625 0.2734375
vt 0.72865625 0.65625
vt 0.73228125 0.65834375
vt 0.7265625 0.6640625
vt 0.0318046875 0.03125
vt 0.0359921875 0.03125
vt 0.0359921875 0.28125
vt 0.0318046875 0.28125
vt 0.35728125 0.27915625
vt 0.35365625 0.28125
vt 0.3515625 0.2734375
vt 0.72446875 0.65625
vt 0.72865625 0.65625
vt 0.7265625 0.6640625
vt 0.0359921875 0.03125
vt 0.0401796875 0.03125
vt 0.0401796875 0.28125
vt 0.0359921875 0.28125
vt 0.35365625 0.28125
vt 0.34946875 0.28125
vt 0.3515625 0.2734375
vt 0.72084375 0.65834375
vt 0.72446875 0.65625
vt 0.7265625 0.6640625
vt 0.0401796875 0.03125
vt 0.0443671875 0.03125
vt 0.0443671875 0.28125
vt 0.0401796875 0.28125
vt 0.34946875 0.28125
vt 0.34584375 0.27915625
vt 0.3515625 0.2734375
vt 0.71875 0.66196875
vt 0.72084375 0.65834375
vt 0.7265625 0.6640625
vt 0.7193046875 0.75
vt 0.7234921875 0.75
vt 0.7234921875 1
vt 0.7193046875 1
vt 0.34584375 0.27915625
vt 0.34375 0.27553125
vt 0.3515625 0.2734375
vt 0.71875 0.66615625
vt 0.71875 0.66196875
vt 0.7265625 0.6640625
vt 0.7234921875 0.75
vt 0.7276796875 0.75
vt 0.7276796875 1
vt 0.7234921875 1
vt 0.34375 0.27553125
vt 0.34375 0.27134375
vt 0.3515625 0.2734375
vt 0.72084375 0.66978125
vt 0.71875 0.66615625
vt 0.7265625 0.6640625
vt 0.7276796875 0.75
vt 0.7318671875 0.75
vt 0.7318671875 1
vt 0.7276796875 1
vt 0.34375 0.27134375
vt 0.34584375 0.26771875
vt 0.3515625 0.2734375
vt 0.72446875 0.671875
vt 0.72084375 0.66978125
vt 0.7265625 0.6640625
vt 0.0005546874999999996 0.03125
vt 0.0047421875 0.03125
vt 0.0047421875 0.28125
vt 0.0005546874999999996 0.28125
vt 0.34584375 0.26771875
vt 0.34946875 0.265625
vt 0.3515625 0.2734375
vt 0.72865625 0.671875
vt 0.72446875 0.671875
vt 0.7265625 0.6640625
vt 0.0047421875 0.03125
vt 0.0089296875 0.03125
vt 0.0089296875 0.28125
vt 0.0047421875 0.28125
vt 0.34946875 0.265625
vt 0.35365625 0.265625
vt 0.3515625 0.2734375
vn 0 -1 0
vn 0.4999999999999999 0 0.8660254037844388
vn 0 1 0
vn 0 -1 0
vn 0.8660254037844388 0 0.5
vn 0 1 0
vn 0 -1 0
vn 1 0 0
vn 0 1 0
vn 0 -1 0
vn 0.8660254037844388 0 -0.5
vn 0 1 0
vn 0 -1 0
vn 0.5000000000000001 0 -0.8660254037844388
vn 0 1 0
vn 0 -1 0
vn 4.143408735633879e-16 0 -1
vn 0 1 0
vn 0 -1 0
vn -0.4999999999999996 0 -0.8660254037844389
vn 0 1 0
vn 0 -1 0
vn -0.8660254037844389 0 -0.4999999999999998
vn 0 1 0
vn 0 -1 0
vn -1 0 -2.0717043678169412e-16
vn 0 1 0
vn 0 -1 0
vn -0.8660254037844389 0 0.4999999999999996
vn 0 1 0
vn 0 -1 0
vn -0.4999999999999999 0 0.8660254037844386
vn 0 1 0
vn 0 -1 0
vn 0 0 1
vn 0 1 0
usemtl m_4275c328-1cb1-af25-b68a-b6cc4b94f84d
f 93/249/63 91/250/63 89/251/63
f 91/252/64 93/253/64 94/254/64 92/255/64
f 92/256/65 94/257/65 90/258/65
f 95/259/66 93/260/66 89/261/66
f 93/262/67 95/263/67 96/264/67 94/265/67
f 94/266/68 96/267/68 90/268/68
f 97/269/69 95/270/69 89/271/69
f 95/272/70 97/273/70 98/274/70 96/275/70
f 96/276/71 98/277/71 90/278/71
f 99/279/72 97/280/72 89/281/72
f 97/282/73 99/283/73 100/284/73 98/285/73
f 98/286/74 100/287/74 90/288/74
f 101/289/75 99/290/75 89/291/75
f 99/292/76 101/293/76 102/294/76 100/295/76
f 100/296/77 102/297/77 90/298/77
f 103/299/78 101/300/78 89/301/78
f 101/302/79 103/303/79 104/304/79 102/305/79
f 102/306/80 104/307/80 90/308/80
f 105/309/81 103/310/81 89/311/81
f 103/312/82 105/313/82 106/314/82 104/315/82
f 104/316/83 106/317/83 90/318/83
f 107/319/84 105/320/84 89/321/84
f 105/322/85 107/323/85 108/324/85 106/325/85
f 106/326/86 108/327/86 90/328/86
f 109/329/87 107/330/87 89/331/87
f 107/332/88 109/333/88 110/334/88 108/335/88
f 108/336/89 110/337/89 90/338/89
f 111/339/90 109/340/90 89/341/90
f 109/342/91 111/343/91 112/344/91 110/345/91
f 110/346/92 112/347/92 90/348/92
f 113/349/93 111/350/93 89/351/93
f 111/352/94 113/353/94 114/354/94 112/355/94
f 112/356/95 114/357/95 90/358/95
f 91/359/96 113/360/96 89/361/96
f 113/362/97 91/363/97 92/364/97 114/365/97
f 114/366/98 92/367/98 90/368/98
o cube
v 0.5 1.03125 0.03125
v 0.5 1.03125 -0.03125
v 0.5 1 0.03125
v 0.5 1 -0.03125
v 0.421875 1.03125 -0.03125
v 0.421875 1.03125 0.03125
v 0.421875 1 -0.03125
v 0.421875 1 0.03125
vt 0.0625 0.765625
vt 0.08203125 0.765625
vt 0.08203125 0.7578125
vt 0.0625 0.7578125
vt 0.1875 1
vt 0.203125 1
vt 0.203125 0.9921875
vt 0.1875 0.9921875
vt 0.09375 0.765625
vt 0.11328125 0.765625
vt 0.11328125 0.7578125
vt 0.09375 0.7578125
vt 0.1875 0.984375
vt 0.203125 0.984375
vt 0.203125 0.9765625
vt 0.1875 0.9765625
vt 0.01953125 0.75390625
vt 0 0.75390625
vt 0 0.76953125
vt 0.01953125 0.76953125
vt 0.05078125 0.76953125
vt 0.03125 0.76953125
vt 0.03125 0.75390625
vt 0.05078125 0.75390625
vn 0 0 -1
vn 1 0 0
vn 0 0 1
vn -1 0 0
vn 0 1 0
vn 0 -1 0
usemtl m_4275c328-1cb1-af25-b68a-b6cc4b94f84d
f 118/372/99 121/371/99 119/370/99 116/369/99
f 117/376/100 118/375/100 116/374/100 115/373/100
f 122/380/101 117/379/101 115/378/101 120/377/101
f 121/384/102 122/383/102 120/382/102 119/381/102
f 120/388/103 115/387/103 116/386/103 119/385/103
f 121/392/104 118/391/104 117/390/104 122/389/104