# Made in Blockbench 5.1.6
mtllib dc_metro_mezzanine_1.mtl

o cube
v 0.5 1 0.5
v 0.5 1 -0.5
v 0.5 0 0.5
v 0.5 0 -0.5
v -0.5 1 -0.5
v -0.5 1 0.5
v -0.5 0 -0.5
v -0.5 0 0.5
vt 0 1
vt 1 1
vt 1 0
vt 0 0
vt 0 1
vt 1 1
vt 1 0
vt 0 0
vt 0 1
vt 1 1
vt 1 0
vt 0 0
vt 0 1
vt 1 1
vt 1 0
vt 0 0
vt 0 1
vt 1 1
vt 1 0
vt 0 0
vt 0 1
vt 1 1
vt 1 0
vt 0 0
vn 0 0 -1
vn 1 0 0
vn 0 0 1
vn -1 0 0
vn 0 1 0
vn 0 -1 0
usemtl m_349c9511-0513-57b7-1145-68a5a92d8cd1
f 4/4/1 7/3/1 5/2/1 2/1/1
f 3/8/2 4/7/2 2/6/2 1/5/2
f 8/12/3 3/11/3 1/10/3 6/9/3
f 7/16/4 8/15/4 6/14/4 5/13/4
usemtl m_7348e0d8-c6ae-599c-be56-6538e30fe40e
f 6/20/5 1/19/5 2/18/5 5/17/5
usemtl m_400c3830-a59d-7a16-7011-84d64c2e2917
f 7/24/6 4/23/6 3/22/6 8/21/6