# Made in Blockbench 5.1.6
mtllib dc_metro_roof_o3l_light_layer.mtl

o part3l
v 0.0625 -0.0390625 -0.0625
v -0.06202433726146819 -0.028168032156542722 -0.0625
v -0.06202433726146819 -0.028168032156542722 -0.0625
v 0.0625 -0.0390625 -0.0625
v 0.0625 -0.0390625 0.0625
v 0.0625 -0.0390625 0.0625
v -0.06202433726146819 -0.028168032156542722 0.0625
v -0.06202433726146819 -0.028168032156542722 0.0625
vt 0 0.875
vt 0.125 0.875
vt 0.125 0.875
vt 0 0.875
vt 0 0.875
vt 0.125 0.875
vt 0.125 0.875
vt 0 0.875
vt 0 0.875
vt 0.125 0.875
vt 0.125 0.875
vt 0 0.875
vt 0 0.875
vt 0.125 0.875
vt 0.125 0.875
vt 0 0.875
vt 0 0.875
vt 0.125 0.875
vt 0.125 1
vt 0 1
vt 0 0.875
vt 0.125 0.875
vt 0.125 1
vt 0 1
vn 0 0 0
vn 0 0 0
vn 0 0 0
vn 0 0 0
vn 0.08715574274765822 0.9961946980917455 0
vn -0.08715574274765822 -0.9961946980917455 0
usemtl m_ade4f383-d675-5f21-4144-ae9fe28d91a9
f 1/1/1 2/2/1 3/3/1 4/4/1
f 5/5/2 1/6/2 4/7/2 6/8/2
f 7/9/3 5/10/3 6/11/3 8/12/3
f 2/13/4 7/14/4 8/15/4 3/16/4
f 8/17/5 6/18/5 4/19/5 3/20/5
f 2/21/6 1/22/6 5/23/6 7/24/6