# Made in Blockbench 5.1.6
mtllib dc_metro_arch_a7.mtl

o part7b
v 1.5 1.9140415937074884 0.11538356103292702
v 1.5 1.1652442985097062 -0.5707627435767278
v 1.5 1.5762464898996584 0.484022229437989
v 1.5 0.8274491947018762 -0.20212407517166586
v 1.375 1.1652442985097062 -0.5707627435767278
v 1.375 1.9140415937074884 0.11538356103292702
v 1.375 0.8274491947018762 -0.20212407517166586
v 1.375 1.5762464898996584 0.484022229437989
vt 0.109375 1
vt 0.125 1
vt 0.125 0.9375
vt 0.109375 0.9375
vt 0 1
vt 0.125 1
vt 0.125 0.9375
vt 0 0.9375
vt 0 1
vt 0.015625 1
vt 0.015625 0.9375
vt 0 0.9375
vt 0 1
vt 0.125 1
vt 0.125 0.9375
vt 0 0.9375
vt 0 1
vt 0.015625 1
vt 0.015625 0.875
vt 0 0.875
vt 0 1
vt 0.015625 1
vt 0.015625 0.875
vt 0 0.875
vn 0 -0.7372773368101241 -0.6755902076156604
vn 1 0 0
vn 0 0.7372773368101241 0.6755902076156604
vn -1 0 0
vn 0 0.6755902076156604 -0.7372773368101241
vn 0 -0.6755902076156604 0.7372773368101241
usemtl m_64674904-f5e4-951b-8d82-2cb3e46440cf
f 4/4/1 7/3/1 5/2/1 2/1/1
f 3/8/2 4/7/2 2/6/2 1/5/2
f 8/12/3 3/11/3 1/10/3 6/9/3
f 7/16/4 8/15/4 6/14/4 5/13/4
f 6/20/5 1/19/5 2/18/5 5/17/5
f 7/24/6 4/23/6 3/22/6 8/21/6
o part7b
v -0.375 1.9140415937074884 0.11538356103292702
v -0.375 1.1652442985097062 -0.5707627435767278
v -0.375 1.5762464898996584 0.484022229437989
v -0.375 0.8274491947018762 -0.20212407517166586
v -0.5 1.1652442985097062 -0.5707627435767278
v -0.5 1.9140415937074884 0.11538356103292702
v -0.5 0.8274491947018762 -0.20212407517166586
v -0.5 1.5762464898996584 0.484022229437989
vt 0.109375 1
vt 0.125 1
vt 0.125 0.9375
vt 0.109375 0.9375
vt 0 1
vt 0.125 1
vt 0.125 0.9375
vt 0 0.9375
vt 0 1
vt 0.015625 1
vt 0.015625 0.9375
vt 0 0.9375
vt 0 1
vt 0.125 1
vt 0.125 0.9375
vt 0 0.9375
vt 0 1
vt 0.015625 1
vt 0.015625 0.875
vt 0 0.875
vt 0 1
vt 0.015625 1
vt 0.015625 0.875
vt 0 0.875
vn 0 -0.7372773368101241 -0.6755902076156604
vn 1 0 0
vn 0 0.7372773368101241 0.6755902076156604
vn -1 0 0
vn 0 0.6755902076156604 -0.7372773368101241
vn 0 -0.6755902076156604 0.7372773368101241
usemtl m_64674904-f5e4-951b-8d82-2cb3e46440cf
f 12/28/7 15/27/7 13/26/7 10/25/7
f 11/32/8 12/31/8 10/30/8 9/29/8
f 16/36/9 11/35/9 9/34/9 14/33/9
f 15/40/10 16/39/10 14/38/10 13/37/10
f 14/44/11 9/43/11 10/42/11 13/41/11
f 15/48/12 12/47/12 11/46/12 16/45/12
o part7b
v 1.5 2.006201260808754 0.19983233698488456
v 1.5 1.9140415937074884 0.11538356103292702
v 1.5 1.6684061570009239 0.5684710053899465
v 1.5 1.5762464898996584 0.484022229437989
v -0.5 1.9140415937074884 0.11538356103292702
v -0.5 2.006201260808754 0.19983233698488456
v -0.5 1.5762464898996584 0.484022229437989
v -0.5 1.6684061570009239 0.5684710053899465
vt 0 1
vt 0.125 1
vt 0.125 0.9375
vt 0 0.9375
vt 0.109375 1
vt 0.125 1
vt 0.125 0.9375
vt 0.109375 0.9375
vt 0 1
vt 0.125 1
vt 0.125 0.9375
vt 0 0.9375
vt 0 1
vt 0.015625 1
vt 0.015625 0.9375
vt 0 0.9375
vt 0 1
vt 0.125 1
vt 0.125 0.984375
vt 0 0.984375
vt 0 0.890625
vt 0.125 0.890625
vt 0.125 0.875
vt 0 0.875
vn 0 -0.7372773368101241 -0.6755902076156604
vn 1 0 0
vn 0 0.7372773368101241 0.6755902076156604
vn -1 0 0
vn 0 0.6755902076156604 -0.7372773368101241
vn 0 -0.6755902076156604 0.7372773368101241
usemtl m_64674904-f5e4-951b-8d82-2cb3e46440cf
f 20/52/13 23/51/13 21/50/13 18/49/13
f 19/56/14 20/55/14 18/54/14 17/53/14
f 24/60/15 19/59/15 17/58/15 22/57/15
f 23/64/16 24/63/16 22/62/16 21/61/16
f 22/68/17 17/67/17 18/66/17 21/65/17
f 23/72/18 20/71/18 19/70/18 24/69/18
o part7b
v 1.5 1.1652442985097062 -0.5707627435767278
v 1.5 1.0730846314084408 -0.6552115195286854
v 1.5 0.8274491947018762 -0.20212407517166586
v 1.5 0.7352895276006107 -0.28657285112362335
v -0.5 1.0730846314084408 -0.6552115195286854
v -0.5 1.1652442985097062 -0.5707627435767278
v -0.5 0.7352895276006107 -0.28657285112362335
v -0.5 0.8274491947018762 -0.20212407517166586
vt 0 1
vt 0.125 1
vt 0.125 0.9375
vt 0 0.9375
vt 0.109375 1
vt 0.125 1
vt 0.125 0.9375
vt 0.109375 0.9375
vt 0 1
vt 0.125 1
vt 0.125 0.9375
vt 0 0.9375
vt 0 1
vt 0.015625 1
vt 0.015625 0.9375
vt 0 0.9375
vt 0 1
vt 0.125 1
vt 0.125 0.984375
vt 0 0.984375
vt 0 0.890625
vt 0.125 0.890625
vt 0.125 0.875
vt 0 0.875
vn 0 -0.7372773368101241 -0.6755902076156604
vn 1 0 0
vn 0 0.7372773368101241 0.6755902076156604
vn -1 0 0
vn 0 0.6755902076156604 -0.7372773368101241
vn 0 -0.6755902076156604 0.7372773368101241
usemtl m_64674904-f5e4-951b-8d82-2cb3e46440cf
f 28/76/19 31/75/19 29/74/19 26/73/19
f 27/80/20 28/79/20 26/78/20 25/77/20
f 32/84/21 27/83/21 25/82/21 30/81/21
f 31/88/22 32/87/22 30/86/22 29/85/22
f 30/92/23 25/91/23 26/90/23 29/89/23
f 31/96/24 28/95/24 27/94/24 32/93/24
o part7b
v 1.5 2.343996364616584 -0.16880633142017742
v 1.5 1.410879735216271 -1.0238501879337474
v 1.5 2.006201260808754 0.19983233698488456
v 1.5 1.0730846314084408 -0.6552115195286854
v -0.5 1.410879735216271 -1.0238501879337474
v -0.5 2.343996364616584 -0.16880633142017742
v -0.5 1.0730846314084408 -0.6552115195286854
v -0.5 2.006201260808754 0.19983233698488456
vt 0 1
vt 0.125 1
vt 0.125 0.9375
vt 0 0.9375
vt 0 1
vt 0.125 1
vt 0.125 0.9375
vt 0 0.9375
vt 0 1
vt 0.125 1
vt 0.125 0.9375
vt 0 0.9375
vt 0 1
vt 0.125 1
vt 0.125 0.9375
vt 0 0.9375
vt 0 1
vt 0.125 1
vt 0.125 0.875
vt 0 0.875
vt 0 1
vt 0.125 1
vt 0.125 0.875
vt 0 0.875
vn 0 -0.7372773368101241 -0.6755902076156604
vn 1 0 0
vn 0 0.7372773368101241 0.6755902076156604
vn -1 0 0
vn 0 0.6755902076156604 -0.7372773368101241
vn 0 -0.6755902076156604 0.7372773368101241
usemtl m_64674904-f5e4-951b-8d82-2cb3e46440cf
f 36/100/25 39/99/25 37/98/25 34/97/25
f 35/104/26 36/103/26 34/102/26 33/101/26
f 40/108/27 35/107/27 33/106/27 38/105/27
f 39/112/28 40/111/28 38/110/28 37/109/28
f 38/116/29 33/115/29 34/114/29 37/113/29
f 39/120/30 36/119/30 35/118/30 40/117/30
o part7
v 1.5 0.9242890228169762 -0.7730310340662658
v 1.5 0.29968558904661996 -1.2103830667839386
v 1.5 0.637500804641453 -0.3634550119217701
v 1.5 0.012897370871096811 -0.8008070446394429
v 1.375 0.29968558904661996 -1.2103830667839386
v 1.375 0.9242890228169762 -0.7730310340662658
v 1.375 0.012897370871096811 -0.8008070446394429
v 1.375 0.637500804641453 -0.3634550119217701
vt 0.109375 1
vt 0.125 1
vt 0.125 0.9375
vt 0.109375 0.9375
vt 0.02265624999999999 1
vt 0.11796875 1
vt 0.11796875 0.9375
vt 0.02265624999999999 0.9375
vt 0 1
vt 0.015625 1
vt 0.015625 0.9375
vt 0 0.9375
vt 0.007031250000000003 1
vt 0.10234375000000001 1
vt 0.10234375000000001 0.9375
vt 0.007031250000000003 0.9375
vt 0 0.99296875
vt 0.015625 0.99296875
vt 0.015625 0.89765625
vt 0 0.89765625
vt 0 0.97734375
vt 0.015625 0.97734375
vt 0.015625 0.88203125
vt 0 0.88203125
vn 0 -0.8191520442889917 -0.5735764363510463
vn 1 0 0
vn 0 0.8191520442889917 0.5735764363510463
vn -1 0 0
vn 0 0.5735764363510463 -0.8191520442889917
vn 0 -0.5735764363510463 0.8191520442889917
usemtl m_64674904-f5e4-951b-8d82-2cb3e46440cf
f 44/124/31 47/123/31 45/122/31 42/121/31
f 43/128/32 44/127/32 42/126/32 41/125/32
f 48/132/33 43/131/33 41/130/33 46/129/33
f 47/136/34 48/135/34 46/134/34 45/133/34
f 46/140/35 41/139/35 42/138/35 45/137/35
f 47/144/36 44/143/36 43/142/36 48/141/36
o part7
v -0.375 0.9242890228169762 -0.7730310340662658
v -0.375 0.29968558904661996 -1.2103830667839386
v -0.375 0.637500804641453 -0.3634550119217701
v -0.375 0.012897370871096811 -0.8008070446394429
v -0.5 0.29968558904661996 -1.2103830667839386
v -0.5 0.9242890228169762 -0.7730310340662658
v -0.5 0.012897370871096811 -0.8008070446394429
v -0.5 0.637500804641453 -0.3634550119217701
vt 0.109375 1
vt 0.125 1
vt 0.125 0.9375
vt 0.109375 0.9375
vt 0.02265624999999999 1
vt 0.11796875 1
vt 0.11796875 0.9375
vt 0.02265624999999999 0.9375
vt 0 1
vt 0.015625 1
vt 0.015625 0.9375
vt 0 0.9375
vt 0.007031250000000003 1
vt 0.10234375000000001 1
vt 0.10234375000000001 0.9375
vt 0.007031250000000003 0.9375
vt 0 0.99296875
vt 0.015625 0.99296875
vt 0.015625 0.89765625
vt 0 0.89765625
vt 0 0.97734375
vt 0.015625 0.97734375
vt 0.015625 0.88203125
vt 0 0.88203125
vn 0 -0.8191520442889917 -0.5735764363510463
vn 1 0 0
vn 0 0.8191520442889917 0.5735764363510463
vn -1 0 0
vn 0 0.5735764363510463 -0.8191520442889917
vn 0 -0.5735764363510463 0.8191520442889917
usemtl m_64674904-f5e4-951b-8d82-2cb3e46440cf
f 52/148/37 55/147/37 53/146/37 50/145/37
f 51/152/38 52/151/38 50/150/38 49/149/38
f 56/156/39 51/155/39 49/154/39 54/153/39
f 55/160/40 56/159/40 54/158/40 53/157/40
f 54/164/41 49/163/41 50/162/41 53/161/41
f 55/168/42 52/167/42 51/166/42 56/165/42
o part7
v 1.5 1.0266830283531 -0.7013339795223851
v 1.5 0.9140496222633638 -0.780200739520654
v 1.5 0.739894810177577 -0.29175795737788923
v 1.5 0.6272614040878406 -0.3706247173761582
v -0.5 0.9140496222633638 -0.780200739520654
v -0.5 1.0266830283531 -0.7013339795223851
v -0.5 0.6272614040878406 -0.3706247173761582
v -0.5 0.739894810177577 -0.29175795737788923
vt 0 1
vt 0.25 1
vt 0.25 0.9375
vt 0 0.9375
vt 0.10859374999999999 1
vt 0.12578125 1
vt 0.12578125 0.9375
vt 0.10859374999999999 0.9375
vt 0 1
vt 0.25 1
vt 0.25 0.9375
vt 0 0.9375
vt 0 1
vt 0.01718750000000001 1
vt 0.01718750000000001 0.9375
vt 0 0.9375
vt 0 1
vt 0.25 1
vt 0.25 0.9828125
vt 0 0.9828125
vt 0 0.89140625
vt 0.25 0.89140625
vt 0.25 0.87421875
vt 0 0.87421875
vn 0 -0.8191520442889917 -0.5735764363510463
vn 1 0 0
vn 0 0.8191520442889917 0.5735764363510463
vn -1 0 0
vn 0 0.5735764363510463 -0.8191520442889917
vn 0 -0.5735764363510463 0.8191520442889917
usemtl m_64674904-f5e4-951b-8d82-2cb3e46440cf
f 60/172/43 63/171/43 61/170/43 58/169/43
f 59/176/44 60/175/44 58/174/44 57/173/44
f 64/180/45 59/179/45 57/178/45 62/177/45
f 63/184/46 64/183/46 62/182/46 61/181/46
f 62/188/47 57/187/47 58/186/47 61/185/47
f 63/192/48 60/191/48 59/190/48 64/189/48
o part7
v 1.5 0.3099249896002324 -1.2032133613295506
v 1.5 0.19729158351049592 -1.2820801213278195
v 1.5 0.023136771424709268 -0.7936373391850547
v 1.5 -0.08949663466502725 -0.8725040991833237
v -0.5 0.19729158351049592 -1.2820801213278195
v -0.5 0.3099249896002324 -1.2032133613295506
v -0.5 -0.08949663466502725 -0.8725040991833237
v -0.5 0.023136771424709268 -0.7936373391850547
vt 0 1
vt 0.25 1
vt 0.25 0.9375
vt 0 0.9375
vt 0.10859374999999999 1
vt 0.12578124999999998 1
vt 0.12578124999999998 0.9375
vt 0.10859374999999999 0.9375
vt 0 1
vt 0.25 1
vt 0.25 0.9375
vt 0 0.9375
vt 0 1
vt 0.017187500000000005 1
vt 0.017187500000000005 0.9375
vt 0 0.9375
vt 0 1
vt 0.25 1
vt 0.25 0.9828125
vt 0 0.9828125
vt 0 0.89140625
vt 0.25 0.89140625
vt 0.25 0.87421875
vt 0 0.87421875
vn 0 -0.8191520442889917 -0.5735764363510463
vn 1 0 0
vn 0 0.8191520442889917 0.5735764363510463
vn -1 0 0
vn 0 0.5735764363510463 -0.8191520442889917
vn 0 -0.5735764363510463 0.8191520442889917
usemtl m_64674904-f5e4-951b-8d82-2cb3e46440cf
f 68/196/49 71/195/49 69/194/49 66/193/49
f 67/200/50 68/199/50 66/198/50 65/197/50
f 72/204/51 67/203/51 65/202/51 70/201/51
f 71/208/52 72/207/52 70/206/52 69/205/52
f 70/212/53 65/211/53 66/210/53 69/209/53
f 71/216/54 68/215/54 67/214/54 72/213/54
o part7
v 1.5 1.3134712465286231 -1.110910001666881
v 1.5 0.48407980168601894 -1.6916561434723154
v 1.5 1.0266830283531 -0.7013339795223851
v 1.5 0.19729158351049592 -1.2820801213278195
v -0.5 0.48407980168601894 -1.6916561434723154
v -0.5 1.3134712465286231 -1.110910001666881
v -0.5 0.19729158351049592 -1.2820801213278195
v -0.5 1.0266830283531 -0.7013339795223851
vt 0 1
vt 0.25 1
vt 0.25 0.9375
vt 0 0.9375
vt 0.0015624999999999944 1
vt 0.12812500000000002 1
vt 0.12812500000000002 0.9375
vt 0.0015624999999999944 0.9375
vt 0 1
vt 0.25 1
vt 0.25 0.9375
vt 0 0.9375
vt 0 1
vt 0.12656250000000002 1
vt 0.12656250000000002 0.9375
vt 0 0.9375
vt 0 1
vt 0.25 1
vt 0.25 0.8734375
vt 0 0.8734375
vt 0 0.9984375
vt 0.25 0.9984375
vt 0.25 0.871875
vt 0 0.871875
vn 0 -0.8191520442889917 -0.5735764363510463
vn 1 0 0
vn 0 0.8191520442889917 0.5735764363510463
vn -1 0 0
vn 0 0.5735764363510463 -0.8191520442889917
vn 0 -0.5735764363510463 0.8191520442889917
usemtl m_64674904-f5e4-951b-8d82-2cb3e46440cf
f 76/220/55 79/219/55 77/218/55 74/217/55
f 75/224/56 76/223/56 74/222/56 73/221/56
f 80/228/57 75/227/57 73/226/57 78/225/57
f 79/232/58 80/231/58 78/230/58 77/229/58
f 78/236/59 73/235/59 74/234/59 77/233/59
f 79/240/60 76/239/60 75/238/60 80/237/60