# Made in Blockbench 5.1.6
mtllib dc_metro_entrance_ceiling_2.mtl

o cube
v 0.5 1 0
v 0.5 1 -0.5
v 0.5 0.5 0
v -0.5 1 0
v -0.5 1 -0.5
v -0.5 0.5 0
v 0.5 0 -0.5
v -0.5 0 -0.5
vt 0.125 0.875
vt 0.125 1
vt 0 1
vt 0 0.875
vt 0.125 0.875
vt 0.125 1
vt 0 1
vt 0 0.875
vt 0.125 0.875
vt 0.125 1
vt 0 1
vt 0 0.875
vt 0.125 0.875
vt 0.125 1
vt 0 1
vt 0 0.875
vt 0.125 0.875
vt 0.125 1
vt 0 1
vt 0 0.875
vt 0.125 0.875
vt 0.125 1
vt 0 1
vt 0 0.875
vn 1 0 0
vn -1 0 0
vn 0 1 0
vn 0 0 1
vn 0 0 -1
vn 0 -0.7071067811865476 0.7071067811865476
usemtl m_36d547c1-a48f-be2c-b885-fbdec8a9f934
f 7/1/1 2/2/1 1/3/1 3/4/1
f 6/5/2 4/6/2 5/7/2 8/8/2
f 1/9/3 2/10/3 5/11/3 4/12/3
f 3/13/4 1/14/4 4/15/4 6/16/4
f 8/17/5 5/18/5 2/19/5 7/20/5
f 7/21/6 3/22/6 6/23/6 8/24/6