# Made in Blockbench 5.1.6
mtllib dc_metro_roof_l1l.mtl

o part1l
v 0.0625 0.5625 -0.5
v 0.109375 0.875 -0.5
v 0.109375 0.875 0.5
v 0.0625 0.5625 0.5
v -0.0625 0.5625 0.5
v -0.109375 0.875 0.5
v -0.109375 0.875 -0.5
v -0.0625 0.5625 -0.5
vt 0.125 0.9609375
vt 0.125 1
vt 0 1
vt 0 0.9609375
vt 0.125 0.9609375
vt 0.125 1
vt 0 1
vt 0 0.9609375
vt 0.015625 0.875
vt 0.015625 1
vt 0 1
vt 0 0.875
vt 0.015625 0.875
vt 0.015625 1
vt 0 1
vt 0 0.875
vt 0.015625 0.9609375
vt 0.015625 1
vt 0 1
vt 0 0.9609375
vt 0.015625 0.9609375
vt 0.015625 1
vt 0 1
vt 0 0.9609375
vn 0.9889363528682975 -0.14834045293024462 0
vn -0.9889363528682975 -0.14834045293024462 0
vn 0 1 0
vn 0 -1 0
vn 0 0 1
vn 0 0 -1
usemtl m_d9b89aaa-89bb-3732-6e88-7e31effdedd6
f 1/1/1 2/2/1 3/3/1 4/4/1
f 5/5/2 6/6/2 7/7/2 8/8/2
f 3/9/3 2/10/3 7/11/3 6/12/3
f 1/13/4 4/14/4 5/15/4 8/16/4
f 4/17/5 3/18/5 6/19/5 5/20/5
f 8/21/6 7/22/6 2/23/6 1/24/6
o part1l
v 0.5 0.875 -0.5
v -0.5 0.875 -0.5
v -0.5 1.125 -0.5
v 0.5 1.125 -0.5
v 0.5 0.875 0.5
v 0.5 1.125 0.5
v -0.5 0.875 0.5
v -0.5 1.125 0.5
vt 0 0.953125
vt 0.125 0.953125
vt 0.125 0.984375
vt 0 0.984375
vt 0 0.953125
vt 0.125 0.953125
vt 0.125 0.984375
vt 0 0.984375
vt 0 0.953125
vt 0.125 0.953125
vt 0.125 0.984375
vt 0 0.984375
vt 0 0.953125
vt 0.125 0.953125
vt 0.125 0.984375
vt 0 0.984375
vt 0 0.875
vt 0.125 0.875
vt 0.125 1
vt 0 1
vt 0 0
vt 1 0
vt 1 1
vt 0 1
vn 0 0 -1
vn 1 0 0
vn 0 0 1
vn -1 0 0
vn 0 1 0
vn 0 -1 0
usemtl m_d9b89aaa-89bb-3732-6e88-7e31effdedd6
f 9/25/7 10/26/7 11/27/7 12/28/7
f 13/29/8 9/30/8 12/31/8 14/32/8
f 15/33/9 13/34/9 14/35/9 16/36/9
f 10/37/10 15/38/10 16/39/10 11/40/10
f 16/41/11 14/42/11 12/43/11 11/44/11
usemtl m_0de9a8eb-c727-ef30-d234-6c8fbe87bb18
f 10/45/12 9/46/12 13/47/12 15/48/12