# Made in Blockbench 5.1.4
mtllib dc_metro_roof_e_pillar_light.mtl

o pole
v 0.25 1.125 0.125
v 0.25 1.125 -0.125
v 0.25 0 0.125
v 0.25 0 -0.125
v -0.25 1.125 -0.125
v -0.25 1.125 0.125
v -0.25 0 -0.125
v -0.25 0 0.125
vt 0 1
vt 0.0625 1
vt 0.0625 0.875
vt 0 0.875
vt 0 1
vt 0.03125 1
vt 0.03125 0.875
vt 0 0.875
vt 0 1
vt 0.0625 1
vt 0.0625 0.875
vt 0 0.875
vt 0 1
vt 0.03125 1
vt 0.03125 0.875
vt 0 0.875
vt 0 1
vt 0.0625 1
vt 0.0625 0.96875
vt 0 0.96875
vt 0 1
vt 0.0625 1
vt 0.0625 0.96875
vt 0 0.96875
vn 0 0 -1
vn 1 0 0
vn 0 0 1
vn -1 0 0
vn 0 1 0
vn 0 -1 0
usemtl m_d5e41e6d-b20e-86ce-4b8a-6dd5ef661bcd
f 4/4/1 7/3/1 5/2/1 2/1/1
f 3/8/2 4/7/2 2/6/2 1/5/2
f 8/12/3 3/11/3 1/10/3 6/9/3
f 7/16/4 8/15/4 6/14/4 5/13/4
f 6/20/5 1/19/5 2/18/5 5/17/5
f 7/24/6 4/23/6 3/22/6 8/21/6
o pole
v 0.125 1.125 0.25
v 0.125 1.125 -0.25
v 0.125 0 0.25
v 0.125 0 -0.25
v -0.125 1.125 -0.25
v -0.125 1.125 0.25
v -0.125 0 -0.25
v -0.125 0 0.25
vt 0 1
vt 0.03125 1
vt 0.03125 0.875
vt 0 0.875
vt 0 1
vt 0.0625 1
vt 0.0625 0.875
vt 0 0.875
vt 0 1
vt 0.03125 1
vt 0.03125 0.875
vt 0 0.875
vt 0 1
vt 0.0625 1
vt 0.0625 0.875
vt 0 0.875
vt 0 0.96875
vt 0 1
vt 0.0625 1
vt 0.0625 0.96875
vt 0.0625 1
vt 0.0625 0.96875
vt 0 0.96875
vt 0 1
vn 0 0 -1
vn 1 0 0
vn 0 0 1
vn -1 0 0
vn 0 1 0
vn 0 -1 0
usemtl m_d5e41e6d-b20e-86ce-4b8a-6dd5ef661bcd
f 12/28/7 15/27/7 13/26/7 10/25/7
f 11/32/8 12/31/8 10/30/8 9/29/8
f 16/36/9 11/35/9 9/34/9 14/33/9
f 15/40/10 16/39/10 14/38/10 13/37/10
f 14/44/11 9/43/11 10/42/11 13/41/11
f 15/48/12 12/47/12 11/46/12 16/45/12
o pole
v -0.12418562844588746 1.125 0.2514648490594659
v 0.251464849059466 1.125 -0.12418562844588742
v -0.12418562844588746 0 0.2514648490594659
v 0.251464849059466 0 -0.12418562844588742
v 0.1255114536606122 1.125 -0.2501390238447412
v -0.2501390238447412 1.125 0.12551145366061217
v 0.1255114536606122 0 -0.2501390238447412
v -0.2501390238447412 0 0.12551145366061217
vt 0.003125 1
vt 0.025390625 1
vt 0.025390625 0.875
vt 0.003125 0.875
vt 0 1
vt 0.06640625 1
vt 0.06640625 0.875
vt 0 0.875
vt 0.005859375 1
vt 0.028125 1
vt 0.028125 0.875
vt 0.005859375 0.875
vt 0 1
vt 0.06640625 1
vt 0.06640625 0.875
vt 0 0.875
vt 0 0.971875
vt 0 0.994140625
vt 0.06640625 0.994140625
vt 0.06640625 0.971875
vt 0.06640625 0.994140625
vt 0.06640625 0.971875
vt 0 0.971875
vt 0 0.994140625
vn 0.7071067811865476 0 -0.7071067811865475
vn 0.7071067811865475 0 0.7071067811865476
vn -0.7071067811865476 0 0.7071067811865475
vn -0.7071067811865475 0 -0.7071067811865476
vn 0 1 0
vn 0 -1 0
usemtl m_d5e41e6d-b20e-86ce-4b8a-6dd5ef661bcd
f 20/52/13 23/51/13 21/50/13 18/49/13
f 19/56/14 20/55/14 18/54/14 17/53/14
f 24/60/15 19/59/15 17/58/15 22/57/15
f 23/64/16 24/63/16 22/62/16 21/61/16
f 22/68/17 17/67/17 18/66/17 21/65/17
f 23/72/18 20/71/18 19/70/18 24/69/18
o pole
v 0.251464849059466 1.125 0.12418562844588742
v -0.12418562844588746 1.125 -0.2514648490594659
v 0.251464849059466 0 0.12418562844588742
v -0.12418562844588746 0 -0.2514648490594659
v -0.2501390238447412 1.125 -0.12551145366061217
v 0.1255114536606122 1.125 0.2501390238447412
v -0.2501390238447412 0 -0.12551145366061217
v 0.1255114536606122 0 0.2501390238447412
vt 0.003125 1
vt 0.025390625 1
vt 0.025390625 0.875
vt 0.003125 0.875
vt 0 1
vt 0.06640625 1
vt 0.06640625 0.875
vt 0 0.875
vt 0.005859375 1
vt 0.028125 1
vt 0.028125 0.875
vt 0.005859375 0.875
vt 0 1
vt 0.06640625 1
vt 0.06640625 0.875
vt 0 0.875
vt 0 0.971875
vt 0 0.994140625
vt 0.06640625 0.994140625
vt 0.06640625 0.971875
vt 0.06640625 0.994140625
vt 0.06640625 0.971875
vt 0 0.971875
vt 0 0.994140625
vn -0.7071067811865476 0 -0.7071067811865475
vn 0.7071067811865475 0 -0.7071067811865476
vn 0.7071067811865476 0 0.7071067811865475
vn -0.7071067811865475 0 0.7071067811865476
vn 0 1 0
vn 0 -1 0
usemtl m_d5e41e6d-b20e-86ce-4b8a-6dd5ef661bcd
f 28/76/19 31/75/19 29/74/19 26/73/19
f 27/80/20 28/79/20 26/78/20 25/77/20
f 32/84/21 27/83/21 25/82/21 30/81/21
f 31/88/22 32/87/22 30/86/22 29/85/22
f 30/92/23 25/91/23 26/90/23 29/89/23
f 31/96/24 28/95/24 27/94/24 32/93/24
o bar
v 1.75 1.0625 0
v 1.75 1.0625 0
v 1.75 0.0625 0
v 1.75 0.0625 0
v -1.75 1.0625 0
v -1.75 1.0625 0
v -1.75 0.0625 0
v -1.75 0.0625 0
vt 0 1
vt 0.875 1
vt 0.875 0.5
vt 0 0.5
vt 0 1
vt 0.875 1
vt 0.875 0.5
vt 0 0.5
vn 0 0 -1
vn 0 0 1
usemtl m_bea50127-7f0f-24e7-b6b3-12a07afc3b12
f 36/100/25 39/99/25 37/98/25 34/97/25
f 40/104/26 35/103/26 33/102/26 38/101/26
o bar
v 3.885780586188048e-16 1.0625 1.75
v 3.885780586188048e-16 1.0625 1.75
v 3.885780586188048e-16 0.0625 1.75
v 3.885780586188048e-16 0.0625 1.75
v -3.885780586188048e-16 1.0625 -1.75
v -3.885780586188048e-16 1.0625 -1.75
v -3.885780586188048e-16 0.0625 -1.75
v -3.885780586188048e-16 0.0625 -1.75
vt 0 1
vt 0.875 1
vt 0.875 0.5
vt 0 0.5
vt 0 1
vt 0.875 1
vt 0.875 0.5
vt 0 0.5
vn 1 0 -2.220446049250313e-16
vn -1 0 2.220446049250313e-16
usemtl m_bea50127-7f0f-24e7-b6b3-12a07afc3b12
f 44/108/27 47/107/27 45/106/27 42/105/27
f 48/112/28 43/111/28 41/110/28 46/109/28
o lamp
v -1.75 1.015625 0.1875
v -1.75 1.015625 -0.1875
v -1.75 0.828125 0.1875
v -1.75 0.828125 -0.1875
v -2 1.015625 -0.1875
v -2 1.015625 0.1875
v -2 0.828125 -0.1875
v -2 0.828125 0.1875
vt 0.005859375 0.2265625
vt 0.013671875 0.2265625
vt 0.013671875 0.21484375
vt 0.005859375 0.21484375
vt 0.0078125 0.2265625
vt 0.01953125 0.2265625
vt 0.01953125 0.21484375
vt 0.0078125 0.21484375
vt 0.01953125 0.2265625
vt 0.02734375 0.2265625
vt 0.02734375 0.21484375
vt 0.01953125 0.21484375
vt 0.005859375 0.2265625
vt 0.017578125 0.2265625
vt 0.017578125 0.21484375
vt 0.005859375 0.21484375
vt 0.01953125 0.2265625
vt 0.02734375 0.2265625
vt 0.02734375 0.203125
vt 0.01953125 0.203125
vt 0.01953125 0.22265625
vt 0.02734375 0.22265625
vt 0.02734375 0.19921875
vt 0.01953125 0.19921875
vn 0 0 -1
vn 1 0 0
vn 0 0 1
vn -1 0 0
vn 0 1 0
vn 0 -1 0
usemtl m_bea50127-7f0f-24e7-b6b3-12a07afc3b12
f 52/116/29 55/115/29 53/114/29 50/113/29
f 51/120/30 52/119/30 50/118/30 49/117/30
f 56/124/31 51/123/31 49/122/31 54/121/31
f 55/128/32 56/127/32 54/126/32 53/125/32
f 54/132/33 49/131/33 50/130/33 53/129/33
f 55/136/34 52/135/34 51/134/34 56/133/34
o lamp
v -2 1.015625 0.1875
v -2 1.015625 -0.1875
v -2 0.828125 0.1875
v -2 0.828125 -0.1875
v -2.4375 1.015625 0.1875
v -2.4375 1.015625 -0.1875
v -2.4375 0.984375 0.1875
v -2.4375 0.984375 -0.1875
vt 0.013671875 0.98828125
vt 0.013671875 1
vt 0.001953125 1
vt 0.001953125 0.98828125
vt 0.01953125 0.17578125
vt 0.01953125 0.1875
vt 0.0078125 0.1875
vt 0.0078125 0.17578125
vt 0.01953125 0.1640625
vt 0.01953125 0.1875
vt 0.0078125 0.1875
vt 0.0078125 0.1640625
vt 0.22265625 0.21875
vt 0.12890625 0.21875
vt 0.12890625 0
vt 0.22265625 0
vt 0.01953125 0.17578125
vt 0.01953125 0.1875
vt 0.0078125 0.1875
vt 0.0078125 0.17578125
vt 0.029296875 0.17578125
vt 0.029296875 0.1875
vt 0.017578125 0.1875
vt 0.017578125 0.17578125
vn 1 0 0
vn -1 0 0
vn 0 1 0
vn -0.33633639699815626 -0.9417419115948374 0
vn 0 0 1
vn 0 0 -1
usemtl none
f 60/137/35 58/138/35 57/139/35 59/140/35
usemtl m_bea50127-7f0f-24e7-b6b3-12a07afc3b12
f 63/141/36 61/142/36 62/143/36 64/144/36
f 57/145/37 58/146/37 62/147/37 61/148/37
f 60/149/38 59/150/38 63/151/38 64/152/38
f 59/153/39 57/154/39 61/155/39 63/156/39
f 64/157/40 62/158/40 58/159/40 60/160/40
o lamp
v 0.18749999999999956 1.015625 2
v -0.18750000000000044 1.015625 2
v 0.18749999999999956 0.828125 2
v -0.18750000000000044 0.828125 2
v 0.18749999999999944 1.015625 2.4375
v -0.18750000000000056 1.015625 2.4375
v 0.18749999999999944 0.984375 2.4375
v -0.18750000000000056 0.984375 2.4375
vt 0.013671875 0.98828125
vt 0.013671875 1
vt 0.001953125 1
vt 0.001953125 0.98828125
vt 0.01953125 0.17578125
vt 0.01953125 0.1875
vt 0.0078125 0.1875
vt 0.0078125 0.17578125
vt 0.01953125 0.1640625
vt 0.01953125 0.1875
vt 0.0078125 0.1875
vt 0.0078125 0.1640625
vt 0.22265625 0.21875
vt 0.12890625 0.21875
vt 0.12890625 0
vt 0.22265625 0
vt 0.01953125 0.17578125
vt 0.01953125 0.1875
vt 0.0078125 0.1875
vt 0.0078125 0.17578125
vt 0.029296875 0.17578125
vt 0.029296875 0.1875
vt 0.017578125 0.1875
vt 0.017578125 0.17578125
vn 2.220446049250313e-16 0 -1
vn -2.220446049250313e-16 0 1
vn 0 1 0
vn -7.468168239336409e-17 -0.9417419115948374 0.33633639699815626
vn 1 0 2.220446049250313e-16
vn -1 0 -2.220446049250313e-16
usemtl none
f 68/161/41 66/162/41 65/163/41 67/164/41
usemtl m_bea50127-7f0f-24e7-b6b3-12a07afc3b12
f 71/165/42 69/166/42 70/167/42 72/168/42
f 65/169/43 66/170/43 70/171/43 69/172/43
f 68/173/44 67/174/44 71/175/44 72/176/44
f 67/177/45 65/178/45 69/179/45 71/180/45
f 72/181/46 70/182/46 66/183/46 68/184/46
o lamp
v 0.1874999999999996 1.015625 1.75
v -0.1875000000000004 1.015625 1.75
v 0.1874999999999996 0.828125 1.75
v -0.1875000000000004 0.828125 1.75
v -0.18750000000000044 1.015625 2
v 0.18749999999999956 1.015625 2
v -0.18750000000000044 0.828125 2
v 0.18749999999999956 0.828125 2
vt 0.005859375 0.2265625
vt 0.013671875 0.2265625
vt 0.013671875 0.21484375
vt 0.005859375 0.21484375
vt 0.0078125 0.2265625
vt 0.01953125 0.2265625
vt 0.01953125 0.21484375
vt 0.0078125 0.21484375
vt 0.01953125 0.2265625
vt 0.02734375 0.2265625
vt 0.02734375 0.21484375
vt 0.01953125 0.21484375
vt 0.005859375 0.2265625
vt 0.017578125 0.2265625
vt 0.017578125 0.21484375
vt 0.005859375 0.21484375
vt 0.01953125 0.2265625
vt 0.02734375 0.2265625
vt 0.02734375 0.203125
vt 0.01953125 0.203125
vt 0.01953125 0.22265625
vt 0.02734375 0.22265625
vt 0.02734375 0.19921875
vt 0.01953125 0.19921875
vn -1 0 -2.220446049250313e-16
vn 2.220446049250313e-16 0 -1
vn 1 0 2.220446049250313e-16
vn -2.220446049250313e-16 0 1
vn 0 1 0
vn 0 -1 0
usemtl m_bea50127-7f0f-24e7-b6b3-12a07afc3b12
f 76/188/47 79/187/47 77/186/47 74/185/47
f 75/192/48 76/191/48 74/190/48 73/189/48
f 80/196/49 75/195/49 73/194/49 78/193/49
f 79/200/50 80/199/50 78/198/50 77/197/50
f 78/204/51 73/203/51 74/202/51 77/201/51
f 79/208/52 76/207/52 75/206/52 80/205/52
o lamp
v 1.9999999999999998 1.0156249999999998 -0.18750000000000328
v 2.0000000000000004 1.0156249999999998 0.18749999999999672
v 1.9999999999999998 0.8281249999999998 -0.18750000000000328
v 2.0000000000000004 0.8281249999999998 0.18749999999999672
v 2.4374999999999996 1.0156249999999998 -0.187500000000004
v 2.4375000000000004 1.0156249999999996 0.187499999999996
v 2.4374999999999996 0.9843749999999998 -0.187500000000004
v 2.4375000000000004 0.9843749999999997 0.187499999999996
vt 0.013671875 0.98828125
vt 0.013671875 1
vt 0.001953125 1
vt 0.001953125 0.98828125
vt 0.01953125 0.17578125
vt 0.01953125 0.1875
vt 0.0078125 0.1875
vt 0.0078125 0.17578125
vt 0.01953125 0.1640625
vt 0.01953125 0.1875
vt 0.0078125 0.1875
vt 0.0078125 0.1640625
vt 0.22265625 0.21875
vt 0.12890625 0.21875
vt 0.12890625 0
vt 0.22265625 0
vt 0.01953125 0.17578125
vt 0.01953125 0.1875
vt 0.0078125 0.1875
vt 0.0078125 0.17578125
vt 0.029296875 0.17578125
vt 0.029296875 0.1875
vt 0.017578125 0.1875
vt 0.017578125 0.17578125
vn -1 1.2246467991473512e-16 1.6445178552260131e-15
vn 1 -1.2246467991473512e-16 -1.6445178552260131e-15
vn 1.2246467991473532e-16 1 1.2246467991473512e-16
vn 0.3363363969981562 -0.9417419115948377 -6.684413319916056e-16
vn -1.6445178552260131e-15 1.2246467991473532e-16 -1
vn 1.6445178552260131e-15 -1.2246467991473532e-16 1
usemtl none
f 84/209/53 82/210/53 81/211/53 83/212/53
usemtl m_bea50127-7f0f-24e7-b6b3-12a07afc3b12
f 87/213/54 85/214/54 86/215/54 88/216/54
f 81/217/55 82/218/55 86/219/55 85/220/55
f 84/221/56 83/222/56 87/223/56 88/224/56
f 83/225/57 81/226/57 85/227/57 87/228/57
f 88/229/58 86/230/58 82/231/58 84/232/58
o lamp
v 1.7499999999999998 1.0156249999999998 -0.18750000000000286
v 1.7500000000000002 1.0156249999999998 0.18749999999999714
v 1.7499999999999998 0.8281249999999998 -0.1875000000000029
v 1.7500000000000002 0.8281249999999998 0.1874999999999971
v 2.0000000000000004 1.0156249999999998 0.18749999999999672
v 1.9999999999999998 1.0156249999999998 -0.18750000000000328
v 2.0000000000000004 0.8281249999999998 0.18749999999999672
v 1.9999999999999998 0.8281249999999998 -0.18750000000000328
vt 0.005859375 0.2265625
vt 0.013671875 0.2265625
vt 0.013671875 0.21484375
vt 0.005859375 0.21484375
vt 0.0078125 0.2265625
vt 0.01953125 0.2265625
vt 0.01953125 0.21484375
vt 0.0078125 0.21484375
vt 0.01953125 0.2265625
vt 0.02734375 0.2265625
vt 0.02734375 0.21484375
vt 0.01953125 0.21484375
vt 0.005859375 0.2265625
vt 0.017578125 0.2265625
vt 0.017578125 0.21484375
vt 0.005859375 0.21484375
vt 0.01953125 0.2265625
vt 0.02734375 0.2265625
vt 0.02734375 0.203125
vt 0.01953125 0.203125
vt 0.01953125 0.22265625
vt 0.02734375 0.22265625
vt 0.02734375 0.19921875
vt 0.01953125 0.19921875
vn 1.6445178552260131e-15 -1.2246467991473552e-16 1
vn -1 1.2246467991473532e-16 1.6445178552260131e-15
vn -1.6445178552260131e-15 1.2246467991473552e-16 -1
vn 1 -1.2246467991473532e-16 -1.6445178552260131e-15
vn 1.2246467991473552e-16 1 1.2246467991473532e-16
vn -1.2246467991473552e-16 -1 -1.2246467991473532e-16
usemtl m_bea50127-7f0f-24e7-b6b3-12a07afc3b12
f 92/236/59 95/235/59 93/234/59 90/233/59
f 91/240/60 92/239/60 90/238/60 89/237/60
f 96/244/61 91/243/61 89/242/61 94/241/61
f 95/248/62 96/247/62 94/246/62 93/245/62
f 94/252/63 89/251/63 90/250/63 93/249/63
f 95/256/64 92/255/64 91/254/64 96/253/64
o lamp
v -0.18750000000000044 1.015625 -2
v 0.18749999999999956 1.015625 -2
v -0.18750000000000044 0.828125 -2
v 0.18749999999999956 0.828125 -2
v -0.18750000000000056 1.015625 -2.4375
v 0.18749999999999944 1.015625 -2.4375
v -0.18750000000000056 0.984375 -2.4375
v 0.18749999999999944 0.984375 -2.4375
vt 0.013671875 0.98828125
vt 0.013671875 1
vt 0.001953125 1
vt 0.001953125 0.98828125
vt 0.01953125 0.17578125
vt 0.01953125 0.1875
vt 0.0078125 0.1875
vt 0.0078125 0.17578125
vt 0.01953125 0.1640625
vt 0.01953125 0.1875
vt 0.0078125 0.1875
vt 0.0078125 0.1640625
vt 0.22265625 0.21875
vt 0.12890625 0.21875
vt 0.12890625 0
vt 0.22265625 0
vt 0.01953125 0.17578125
vt 0.01953125 0.1875
vt 0.0078125 0.1875
vt 0.0078125 0.17578125
vt 0.029296875 0.17578125
vt 0.029296875 0.1875
vt 0.017578125 0.1875
vt 0.017578125 0.17578125
vn 2.220446049250313e-16 1.1655923932754172e-19 1
vn -2.220446049250313e-16 -1.1655923932754172e-19 -1
vn -1.384428809442595e-35 1 -1.1655923932754172e-19
vn -7.468168239336409e-17 -0.9417419115948374 -0.33633639699815626
vn -1 2.5881350246846173e-35 2.220446049250313e-16
vn 1 -2.5881350246846173e-35 -2.220446049250313e-16
usemtl none
f 100/257/65 98/258/65 97/259/65 99/260/65
usemtl m_bea50127-7f0f-24e7-b6b3-12a07afc3b12
f 103/261/66 101/262/66 102/263/66 104/264/66
f 97/265/67 98/266/67 102/267/67 101/268/67
f 100/269/68 99/270/68 103/271/68 104/272/68
f 99/273/69 97/274/69 101/275/69 103/276/69
f 104/277/70 102/278/70 98/279/70 100/280/70
o lamp
v -0.1875000000000004 1.015625 -1.75
v 0.1874999999999996 1.015625 -1.75
v -0.1875000000000004 0.828125 -1.75
v 0.1874999999999996 0.828125 -1.75
v 0.18749999999999956 1.015625 -2
v -0.18750000000000044 1.015625 -2
v 0.18749999999999956 0.828125 -2
v -0.18750000000000044 0.828125 -2
vt 0.005859375 0.2265625
vt 0.013671875 0.2265625
vt 0.013671875 0.21484375
vt 0.005859375 0.21484375
vt 0.0078125 0.2265625
vt 0.01953125 0.2265625
vt 0.01953125 0.21484375
vt 0.0078125 0.21484375
vt 0.01953125 0.2265625
vt 0.02734375 0.2265625
vt 0.02734375 0.21484375
vt 0.01953125 0.21484375
vt 0.005859375 0.2265625
vt 0.017578125 0.2265625
vt 0.017578125 0.21484375
vt 0.005859375 0.21484375
vt 0.01953125 0.2265625
vt 0.02734375 0.2265625
vt 0.02734375 0.203125
vt 0.01953125 0.203125
vt 0.01953125 0.22265625
vt 0.02734375 0.22265625
vt 0.02734375 0.19921875
vt 0.01953125 0.19921875
vn 1 1.1655923932754172e-19 -2.220446049250313e-16
vn 2.220446049250313e-16 2.5881350246846173e-35 1
vn -1 -1.1655923932754172e-19 2.220446049250313e-16
vn -2.220446049250313e-16 -2.5881350246846173e-35 -1
vn -1.1655923932754172e-19 1 1.384428809442595e-35
vn 1.1655923932754172e-19 -1 -1.384428809442595e-35
usemtl m_bea50127-7f0f-24e7-b6b3-12a07afc3b12
f 108/284/71 111/283/71 109/282/71 106/281/71
f 107/288/72 108/287/72 106/286/72 105/285/72
f 112/292/73 107/291/73 105/290/73 110/289/73
f 111/296/74 112/295/74 110/294/74 109/293/74
f 110/300/75 105/299/75 106/298/75 109/297/75
f 111/304/76 108/303/76 107/302/76 112/301/76