# Made in Blockbench 5.1.5
mtllib dc_metro_roof_l1b.mtl

o part1b
v 0.5 1.125 0.5
v 0.5 1.125 -0.5
v 0.5 0.875 0.5
v 0.5 0.875 -0.5
v -0.5 1.125 -0.5
v -0.5 1.125 0.5
v -0.5 0.875 -0.5
v -0.5 0.875 0.5
vt 0 0.984375
vt 0.125 0.984375
vt 0.125 0.953125
vt 0 0.953125
vt 0 0.984375
vt 0.125 0.984375
vt 0.125 0.953125
vt 0 0.953125
vt 0 0.984375
vt 0.125 0.984375
vt 0.125 0.953125
vt 0 0.953125
vt 0 0.984375
vt 0.125 0.984375
vt 0.125 0.953125
vt 0 0.953125
vt 0 1
vt 0.125 1
vt 0.125 0.875
vt 0 0.875
vt 0 1
vt 1 1
vt 1 0
vt 0 0
vn 0 0 -1
vn 1 0 0
vn 0 0 1
vn -1 0 0
vn 0 1 0
vn 0 -1 0
usemtl m_76ba16bf-14fa-fd3d-ad5c-b899852a3bf6
f 4/4/1 7/3/1 5/2/1 2/1/1
f 3/8/2 4/7/2 2/6/2 1/5/2
f 8/12/3 3/11/3 1/10/3 6/9/3
f 7/16/4 8/15/4 6/14/4 5/13/4
f 6/20/5 1/19/5 2/18/5 5/17/5
usemtl m_700ace31-c71b-29ff-aff3-655afd640216
f 7/24/6 4/23/6 3/22/6 8/21/6
o part1b
v 0 0 0
v 0 0.875 0
v 0.07919222016226814 0 0.5
v 0.07919222016226814 0.875 0.5
v 0.22982477421267924 0 0.45105651629515353
v 0.22982477421267924 0.875 0.45105651629515353
v 0.3579604780797938 0 0.3579604780797938
v 0.3579604780797938 0.875 0.3579604780797938
v 0.4510565162951535 0 0.22982477421267933
v 0.4510565162951535 0.875 0.22982477421267933
v 0.5 0 0.07919222016226812
v 0.5 0.875 0.07919222016226812
v 0.49999999999999994 0 -0.07919222016226835
v 0.49999999999999994 0.875 -0.07919222016226835
v 0.45105651629515353 0 -0.2298247742126791
v 0.45105651629515353 0.875 -0.2298247742126791
v 0.35796047807979386 0 -0.3579604780797938
v 0.35796047807979386 0.875 -0.3579604780797938
v 0.2298247742126793 0 -0.4510565162951534
v 0.2298247742126793 0.875 -0.4510565162951534
v 0.07919222016226819 0 -0.5
v 0.07919222016226819 0.875 -0.5
v -0.07919222016226807 0 -0.5
v -0.07919222016226807 0.875 -0.5
v -0.229824774212679 0 -0.45105651629515364
v -0.229824774212679 0.875 -0.45105651629515364
v -0.3579604780797938 0 -0.3579604780797938
v -0.3579604780797938 0.875 -0.3579604780797938
v -0.4510565162951535 0 -0.22982477421267933
v -0.4510565162951535 0.875 -0.22982477421267933
v -0.49999999999999994 0 -0.07919222016226835
v -0.49999999999999994 0.875 -0.07919222016226835
v -0.5 0 0.07919222016226801
v -0.5 0.875 0.07919222016226801
v -0.45105651629515353 0 0.22982477421267922
v -0.45105651629515353 0.875 0.22982477421267922
v -0.3579604780797939 0 0.3579604780797938
v -0.3579604780797939 0.875 0.3579604780797938
v -0.22982477421267936 0 0.4510565162951534
v -0.22982477421267936 0.875 0.4510565162951534
v -0.07919222016226826 0 0.5
v -0.07919222016226826 0.875 0.5
vt 0.06327905351608541 0.9804458239680786
vt 0.060182046588438454 1
vt 0 0.9804458239680784
vt 0 0.875
vt 0.0197984375 0.875
vt 0.0197984375 1
vt 0 1
vt 0 0.9367208997230495
vt 0.01955416158212396 0.9398179978838208
vt 1.214306433183765e-17 1
vt 0.06327942779012238 0.980445735364328
vt 0.06018196863222161 1
vt 0 0.980445735364328
vt 0 0.875
vt 0.0197984375 0.875
vt 0.0197984375 1
vt 0 1
vt 0 0.9367209464839146
vt 0.019554380292483565 0.939817675411943
vt 3.469446951953614e-18 1
vt 0.06327905351608541 0.9804456197075164
vt 0.060182324588056946 1
vt 0 0.9804456197075164
vt 0 0.875
vt 0.0197984375 0.875
vt 0.0197984375 1
vt 0 1
vt 0 0.9367205722098776
vt 0.01955426463567205 0.9398180313677784
vt 0 1
vt 0.06327910027695047 0.980445838417876
vt 0.060182002116179134 1
vt 0 0.980445838417876
vt 0 0.875
vt 0.0197984375 0.875
vt 0.0197984375 1
vt 0 1
vt 6.938893903907228e-18 0.9367209464839146
vt 0.01955417603192149 0.9398179534115615
vt 0 1
vt 0.0625 0.9802015625
vt 0.0625 1
vt 0 0.99010078125
vt 0 0.875
vt 0.0197984375 0.875
vt 0.0197984375 1
vt 0 1
vt 0.0625 0.9802015625
vt 0.0625 1
vt 0 0.99010078125
vt 6.938893903907228e-18 0.9367209464839146
vt 0.01955417603192149 0.9398179534115615
vt 0 1
vt 0 0.875
vt 0.0197984375 0.875
vt 0.0197984375 1
vt 0 1
vt 0.06327910027695047 0.980445838417876
vt 0.060182002116179134 1
vt 0 0.980445838417876
vt 0 0.9367205722098776
vt 0.01955426463567205 0.9398180313677784
vt 0 1
vt 0 0.875
vt 0.0197984375 0.875
vt 0.0197984375 1
vt 0 1
vt 0.06327905351608541 0.9804456197075164
vt 0.060182324588056946 1
vt 0 0.9804456197075164
vt 0 0.9367209464839146
vt 0.019554380292483565 0.939817675411943
vt 3.469446951953614e-18 1
vt 0 0.875
vt 0.0197984375 0.875
vt 0.0197984375 1
vt 0 1
vt 0.06327942779012238 0.980445735364328
vt 0.06018196863222161 1
vt 0 0.980445735364328
vt 0 0.9367208997230495
vt 0.01955416158212396 0.9398179978838208
vt 1.214306433183765e-17 1
vt 0 0.875
vt 0.0197984375 0.875
vt 0.0197984375 1
vt 0 1
vt 0.06327905351608541 0.9804458239680786
vt 0.060182046588438454 1
vt 0 0.9804458239680784
vt 0 0.9375
vt 0.0197984375 0.9375
vt 0.00989921875 1
vt 0 0.875
vt 0.0197984375 0.875
vt 0.0197984375 1
vt 0 1
vt 0.0197984375 1
vt 0 1
vt 0.00989921875 0.9375
vt 0 1
vt 0.003097006927646938 0.9804458239680786
vt 0.06327905351608541 1
vt 0 0.875
vt 0.0197984375 0.875
vt 0.0197984375 1
vt 0 1
vt 0.019554161582123957 1
vt 0 0.9969029018392287
vt 0.019554161582123974 0.9367208997230495
vt 0 1
vt 0.0030974591579007726 0.980445735364328
vt 0.06327942779012238 1
vt 0 0.875
vt 0.0197984375 0.875
vt 0.0197984375 1
vt 0 1
vt 0.019554380292483565 1
vt 0 0.9969032710719715
vt 0.01955438029248356 0.9367209464839146
vt 0 1
vt 0.0030967289280284666 0.9804456197075164
vt 0.06327905351608541 1
vt 0 0.875
vt 0.0197984375 0.875
vt 0.0197984375 1
vt 0 1
vt 0.01955426463567205 1
vt 0 0.9969025408420993
vt 0.01955426463567205 0.9367205722098776
vt 0 1
vt 0.00309709816077134 0.980445838417876
vt 0.06327910027695045 1
vt 0 0.875
vt 0.0197984375 0.875
vt 0.0197984375 1
vt 0 1
vt 0.019554176031921482 1
vt 0 0.9969029930723531
vt 0.01955417603192149 0.9367209464839146
vt 0 1
vt 0 0.9802015625
vt 0.0625 0.99010078125
vt 0 0.875
vt 0.0197984375 0.875
vt 0.0197984375 1
vt 0 1
vt 0 1
vt 0 0.9802015625
vt 0.0625 0.99010078125
vt 0.019554176031921482 1
vt 0 0.9969029930723531
vt 0.01955417603192149 0.9367209464839146
vt 0 0.875
vt 0.0197984375 0.875
vt 0.0197984375 1
vt 0 1
vt 0 1
vt 0.00309709816077134 0.980445838417876
vt 0.06327910027695045 1
vt 0.01955426463567205 1
vt 0 0.9969025408420993
vt 0.01955426463567205 0.9367205722098776
vt 0 0.875
vt 0.0197984375 0.875
vt 0.0197984375 1
vt 0 1
vt 0 1
vt 0.0030967289280284666 0.9804456197075164
vt 0.06327905351608541 1
vt 0.019554380292483565 1
vt 0 0.9969032710719715
vt 0.01955438029248356 0.9367209464839146
vt 0 0.875
vt 0.0197984375 0.875
vt 0.0197984375 1
vt 0 1
vt 0 1
vt 0.0030974591579007726 0.980445735364328
vt 0.06327942779012238 1
vt 0.019554161582123957 1
vt 0 0.9969029018392287
vt 0.019554161582123974 0.9367208997230495
vt 0 0.875
vt 0.0197984375 0.875
vt 0.0197984375 1
vt 0 1
vt 0 1
vt 0.003097006927646938 0.9804458239680786
vt 0.06327905351608541 1
vt 0.0197984375 1
vt 0 1
vt 0.00989921875 0.9375
vt 0 0.875
vt 0.0197984375 0.875
vt 0.0197984375 1
vt 0 1
vt 0 0.9375
vt 0.0197984375 0.9375
vt 0.00989921875 1
vn 0 -1 0
vn 0.3090169943749478 0 0.9510565162951535
vn 0 1 0
vn 0 -1 0
vn 0.5877852522924732 0 0.8090169943749475
vn 0 1 0
vn 0 -1 0
vn 0.8090169943749475 0 0.5877852522924732
vn 0 1 0
vn 0 -1 0
vn 0.9510565162951536 0 0.3090169943749479
vn 0 1 0
vn 0 -1 0
vn 1 0 -3.504836151677091e-16
vn 0 1 0
vn 0 -1 0
vn 0.9510565162951534 0 -0.30901699437494806
vn 0 1 0
vn 0 -1 0
vn 0.8090169943749478 0 -0.5877852522924726
vn 0 1 0
vn 0 -1 0
vn 0.5877852522924727 0 -0.8090169943749478
vn 0 1 0
vn 0 -1 0
vn 0.3090169943749484 0 -0.9510565162951533
vn 0 1 0
vn 0 -1 0
vn 0 0 -1
vn 0 1 0
vn 0 -1 0
vn -0.30901699437494745 0 -0.9510565162951536
vn 0 1 0
vn 0 -1 0
vn -0.5877852522924729 0 -0.8090169943749478
vn 0 1 0
vn 0 -1 0
vn -0.8090169943749475 0 -0.5877852522924732
vn 0 1 0
vn 0 -1 0
vn -0.9510565162951535 0 -0.30901699437494795
vn 0 1 0
vn 0 -1 0
vn -1 0 -3.5048361516770933e-16
vn 0 1 0
vn 0 -1 0
vn -0.9510565162951535 0 0.3090169943749475
vn 0 1 0
vn 0 -1 0
vn -0.8090169943749478 0 0.5877852522924726
vn 0 1 0
vn 0 -1 0
vn -0.5877852522924727 0 0.8090169943749478
vn 0 1 0
vn 0 -1 0
vn -0.3090169943749484 0 0.9510565162951533
vn 0 1 0
vn 0 -1 0
vn 0 0 1
vn 0 1 0
usemtl m_76ba16bf-14fa-fd3d-ad5c-b899852a3bf6
f 13/25/7 11/26/7 9/27/7
f 11/28/8 13/29/8 14/30/8 12/31/8
f 12/32/9 14/33/9 10/34/9
f 15/35/10 13/36/10 9/37/10
f 13/38/11 15/39/11 16/40/11 14/41/11
f 14/42/12 16/43/12 10/44/12
f 17/45/13 15/46/13 9/47/13
f 15/48/14 17/49/14 18/50/14 16/51/14
f 16/52/15 18/53/15 10/54/15
f 19/55/16 17/56/16 9/57/16
f 17/58/17 19/59/17 20/60/17 18/61/17
f 18/62/18 20/63/18 10/64/18
f 21/65/19 19/66/19 9/67/19
f 19/68/20 21/69/20 22/70/20 20/71/20
f 20/72/21 22/73/21 10/74/21
f 23/75/22 21/76/22 9/77/22
f 21/78/23 23/79/23 24/80/23 22/81/23
f 22/82/24 24/83/24 10/84/24
f 25/85/25 23/86/25 9/87/25
f 23/88/26 25/89/26 26/90/26 24/91/26
f 24/92/27 26/93/27 10/94/27
f 27/95/28 25/96/28 9/97/28
f 25/98/29 27/99/29 28/100/29 26/101/29
f 26/102/30 28/103/30 10/104/30
f 29/105/31 27/106/31 9/107/31
f 27/108/32 29/109/32 30/110/32 28/111/32
f 28/112/33 30/113/33 10/114/33
f 31/115/34 29/116/34 9/117/34
f 29/118/35 31/119/35 32/120/35 30/121/35
f 30/122/36 32/123/36 10/124/36
f 33/125/37 31/126/37 9/127/37
f 31/128/38 33/129/38 34/130/38 32/131/38
f 32/132/39 34/133/39 10/134/39
f 35/135/40 33/136/40 9/137/40
f 33/138/41 35/139/41 36/140/41 34/141/41
f 34/142/42 36/143/42 10/144/42
f 37/145/43 35/146/43 9/147/43
f 35/148/44 37/149/44 38/150/44 36/151/44
f 36/152/45 38/153/45 10/154/45
f 39/155/46 37/156/46 9/157/46
f 37/158/47 39/159/47 40/160/47 38/161/47
f 38/162/48 40/163/48 10/164/48
f 41/165/49 39/166/49 9/167/49
f 39/168/50 41/169/50 42/170/50 40/171/50
f 40/172/51 42/173/51 10/174/51
f 43/175/52 41/176/52 9/177/52
f 41/178/53 43/179/53 44/180/53 42/181/53
f 42/182/54 44/183/54 10/184/54
f 45/185/55 43/186/55 9/187/55
f 43/188/56 45/189/56 46/190/56 44/191/56
f 44/192/57 46/193/57 10/194/57
f 47/195/58 45/196/58 9/197/58
f 45/198/59 47/199/59 48/200/59 46/201/59
f 46/202/60 48/203/60 10/204/60
f 49/205/61 47/206/61 9/207/61
f 47/208/62 49/209/62 50/210/62 48/211/62
f 48/212/63 50/213/63 10/214/63
f 11/215/64 49/216/64 9/217/64
f 49/218/65 11/219/65 12/220/65 50/221/65
f 50/222/66 12/223/66 10/224/66