# Made in Blockbench 5.1.5
mtllib dc_metro_roof_o3l.mtl

o part3l
v 0.5 1.5625 0.5
v 0.5 1.5625 -0.5
v 0.5 -0.0625 0.5
v 0.5 -0.0625 -0.5
v -0.5 1.5625 0.5
v -0.5 1.5625 -0.5
v -0.5 0 0.5
v -0.5 0 -0.5
vt 0.125 0.984375
vt 0.125 1
vt 0 1
vt 0 0.984375
vt 0.125 0.984375
vt 0.125 1
vt 0 1
vt 0 0.984375
vt 0.125 0.875
vt 0.125 1
vt 0 1
vt 0 0.875
vt 0.125 0.875
vt 0.125 1
vt 0 1
vt 0 0.875
vt 0.125 0.984375
vt 0.125 1
vt 0 1
vt 0 0.984375
vt 0.125 0.984375
vt 0.125 1
vt 0 1
vt 0 0.984375
vn 1 0 0
vn -1 0 0
vn 0 1 0
vn -0.06237828615518055 -0.9980525784828888 0
vn 0 0 1
vn 0 0 -1
usemtl m_c8e005b3-8deb-2500-6d42-00211b480f22
f 4/1/1 2/2/1 1/3/1 3/4/1
f 7/5/2 5/6/2 6/7/2 8/8/2
f 1/9/3 2/10/3 6/11/3 5/12/3
f 4/13/4 3/14/4 7/15/4 8/16/4
f 3/17/5 1/18/5 5/19/5 7/20/5
f 8/21/6 6/22/6 2/23/6 4/24/6
o part3l
v 0.0625 -0.0390625 0.0625
v 0.0625 -0.0390625 -0.0625
v 0.0625 -0.0390625 0.0625
v 0.0625 -0.0390625 -0.0625
v -0.06202433726146819 -0.028168032156542722 -0.0625
v -0.06202433726146819 -0.028168032156542722 0.0625
v -0.06202433726146819 -0.028168032156542722 -0.0625
v -0.06202433726146819 -0.028168032156542722 0.0625
vt 0 0.875
vt 0.125 0.875
vt 0.125 0.875
vt 0 0.875
vt 0 0.875
vt 0.125 0.875
vt 0.125 0.875
vt 0 0.875
vt 0 0.875
vt 0.125 0.875
vt 0.125 0.875
vt 0 0.875
vt 0 0.875
vt 0.125 0.875
vt 0.125 0.875
vt 0 0.875
vt 0 1
vt 0.125 1
vt 0.125 0.875
vt 0 0.875
vt 0 1
vt 0.125 1
vt 0.125 0.875
vt 0 0.875
vn 0 0 -1
vn 0.9961946980917455 -0.08715574274765822 0
vn 0 0 1
vn -0.9961946980917455 0.08715574274765822 0
vn 0.08715574274765822 0.9961946980917455 0
vn -0.08715574274765822 -0.9961946980917455 0
usemtl m_971415d3-0dc8-24de-da42-d3079cb88d50
f 12/28/7 15/27/7 13/26/7 10/25/7
f 11/32/8 12/31/8 10/30/8 9/29/8
f 16/36/9 11/35/9 9/34/9 14/33/9
f 15/40/10 16/39/10 14/38/10 13/37/10
f 14/44/11 9/43/11 10/42/11 13/41/11
f 15/48/12 12/47/12 11/46/12 16/45/12