# Made in Blockbench 5.1.6
mtllib dc_metro_fare_gate_2_exit_open.mtl

o card_reader_main
v 0.37437499999999996 0.8768912704945433 0.8097650546330337
v 0.6256250000000001 0.8768912704945433 0.8097650546330337
v 0.6256250000000001 1.0024592717393384 0.5066170830277678
v 0.37437499999999996 1.0024592717393384 0.5066170830277678
vt 0.138671875 0
vt 0.263671875 0
vt 0.263671875 0.1640625
vt 0.138671875 0.1640625
vn 0 0.923879532511287 0.3826834323650898
usemtl m_b2ea77d5-6752-41f6-40d2-53375ca588a0
f 1/1/1 2/2/1 3/3/1 4/4/1
o card_reader_other
v -0.374375 1.0009747239533286 -0.5095981122479587
v -0.374375 0.8754067227085336 -0.8127460838532247
v -0.374375 0.8754067227085336 -0.8127460838532247
v -0.374375 1.0009747239533286 -0.5095981122479587
v -0.625625 0.8754067227085336 -0.8127460838532247
v -0.625625 1.0009747239533286 -0.5095981122479587
v -0.625625 1.0009747239533286 -0.5095981122479587
v -0.625625 0.8754067227085336 -0.8127460838532247
vt 0.13671875 0.67578125
vt 0.21875 0.67578125
vt 0.21875 0.69140625
vt 0.13671875 0.69140625
vt 0.13671875 0.67578125
vt 0.21875 0.67578125
vt 0.21875 0.69140625
vt 0.13671875 0.69140625
vt 0.263671875 0.1640625
vt 0.138671875 0.1640625
vt 0.138671875 0
vt 0.263671875 0
vn 0 0 0
vn 0 0 0
vn 0 0.9238795325112867 -0.3826834323650897
usemtl m_b2ea77d5-6752-41f6-40d2-53375ca588a0
f 5/5/2 6/6/2 7/7/2 8/8/2
f 9/9/3 10/10/3 11/11/3 12/12/3
f 11/13/4 8/14/4 7/15/4 12/16/4
o cube
v 0.625 1 0.5109375000000003
v 0.625 0.875 0.8125
v 0.625 0.875 -0.8125
v 0.625 1 -0.5109375
v 0.375 1 -0.5109375
v 0.375 0.875 -0.8125
v 0.375 0.875 0.8125
v 0.375 1 0.5109375000000003
v 0.625 0 -0.75
v 0.625 0 0.75
v 0.375 0 0.75
v 0.375 0 -0.75
v 0.375 0.234375 0.75
v 0.375 0.234375 -0.75
v 0.375 0.375 0.8125
v 0.375 0.375 -0.8125
v 0.625 0.234375 -0.75
v 0.625 0.375 -0.8125
v 0.625 0.234375 0.75
v 0.625 0.375 0.8125
vt 0.07539062499999988 0.619140625
vt 0 0.587890625
vt 0.40625000000000006 0.587890625
vt 0.330859375 0.619140625
vt 0.07539062499999995 0.619140625
vt 0 0.587890625
vt 0.40625 0.587890625
vt 0.330859375 0.619140625
vt 0.39453125 0.7421875
vt 0.39453125 1
vt 0.33203125 1
vt 0.33203125 0.7421875
vt 0.0078125 0.9677734375
vt 0.0078125 1
vt 0 1
vt 0 0.9677734375
vt 0.2890625 0.712890625
vt 0.2890625 0.6796875
vt 0.306640625 0.6796875
vt 0.306640625 0.712890625
vt 0.2890625 0.712890625
vt 0.2890625 0.6796875
vt 0.306640625 0.6796875
vt 0.306640625 0.712890625
vt 0.390625 0.369140625
vt 0.390625 0.427734375
vt 0.015625000000000014 0.427734375
vt 0.015625000000000014 0.369140625
vt 0.390625 0.427734375
vt 0.40625 0.462890625
vt 0 0.462890625
vt 0.015625000000000014 0.427734375
vt 0.40625 0.462890625
vt 0.40625 0.587890625
vt 0 0.587890625
vt 0 0.462890625
vt 0.0078125 0.96875
vt 0.0078125 0.9765625
vt 0 0.9765625
vt 0 0.96875
vt 0.0078125 0.9765625
vt 0.0078125 0.984375
vt 0 0.984375
vt 0 0.9765625
vt 0.46484375 0.650390625
vt 0.46484375 0.775390625
vt 0.40234375 0.775390625
vt 0.40234375 0.650390625
vt 0.39062500000000006 0.369140625
vt 0.39062500000000006 0.427734375
vt 0.015625 0.427734375
vt 0.015625 0.369140625
vt 0.39062500000000006 0.427734375
vt 0.40625000000000006 0.462890625
vt 0 0.462890625
vt 0.015625 0.427734375
vt 0.40625000000000006 0.462890625
vt 0.40625000000000006 0.587890625
vt 0 0.587890625
vt 0 0.462890625
vt 0.0078125 0.96875
vt 0.0078125 0.9765625
vt 0 0.9765625
vt 0 0.96875
vt 0.0078125 0.9765625
vt 0.0078125 0.984375
vt 0 0.984375
vt 0 0.9765625
vt 0.46484375 0.650390625
vt 0.46484375 0.775390625
vt 0.40234375 0.775390625
vt 0.40234375 0.650390625
vn 1 0 0
vn -1 0 0
vn 0 1 0
vn 0 -1 0
vn 0 0.9237834125269129 0.38291540415623365
vn 0 0.9237834125269129 -0.3829154041562334
vn -1 0 0
vn -1 0 0
vn -1 0 0
vn 0 0 -1
vn 0 -0.40613846605344767 -0.9138115486202573
vn 0 0 -1
vn 1 0 0
vn 1 0 0
vn 1 0 0
vn 0 0 1
vn 0 -0.40613846605344767 0.9138115486202573
vn 0 0 1
usemtl m_b2ea77d5-6752-41f6-40d2-53375ca588a0
f 13/17/5 14/18/5 15/19/5 16/20/5
f 17/21/6 18/22/6 19/23/6 20/24/6
f 13/25/7 16/26/7 17/27/7 20/28/7
f 21/29/8 22/30/8 23/31/8 24/32/8
f 20/33/9 19/34/9 14/35/9 13/36/9
f 16/37/10 15/38/10 18/39/10 17/40/10
f 23/41/11 25/42/11 26/43/11 24/44/11
f 25/45/12 27/46/12 28/47/12 26/48/12
f 27/49/13 19/50/13 18/51/13 28/52/13
f 24/53/14 26/54/14 29/55/14 21/56/14
f 26/57/15 28/58/15 30/59/15 29/60/15
f 28/61/16 18/62/16 15/63/16 30/64/16
f 21/65/17 29/66/17 31/67/17 22/68/17
f 29/69/18 30/70/18 32/71/18 31/72/18
f 30/73/19 15/74/19 14/75/19 32/76/19
f 22/77/20 31/78/20 25/79/20 23/80/20
f 31/81/21 32/82/21 27/83/21 25/84/21
f 32/85/22 14/86/22 19/87/22 27/88/22
o cube
v -0.375 1 0.5109375000000003
v -0.375 0.875 0.8125
v -0.375 0.875 -0.8125
v -0.375 1 -0.5109375
v -0.625 1 -0.5109375
v -0.625 0.875 -0.8125
v -0.625 0.875 0.8125
v -0.625 1 0.5109375000000003
v -0.375 0 -0.75
v -0.375 0 0.75
v -0.625 0 0.75
v -0.625 0 -0.75
v -0.625 0.234375 0.75
v -0.625 0.234375 -0.75
v -0.625 0.375 0.8125
v -0.625 0.375 -0.8125
v -0.375 0.234375 -0.75
v -0.375 0.375 -0.8125
v -0.375 0.234375 0.75
v -0.375 0.375 0.8125
vt 0.07539062499999988 0.619140625
vt 0 0.587890625
vt 0.40625000000000006 0.587890625
vt 0.330859375 0.619140625
vt 0.07539062499999995 0.619140625
vt 0 0.587890625
vt 0.40625 0.587890625
vt 0.330859375 0.619140625
vt 0.39453125 0.7421875
vt 0.39453125 1
vt 0.33203125 1
vt 0.33203125 0.7421875
vt 0.0078125 0.9677734375
vt 0.0078125 1
vt 0 1
vt 0 0.9677734375
vt 0.2890625 0.712890625
vt 0.2890625 0.6796875
vt 0.306640625 0.6796875
vt 0.306640625 0.712890625
vt 0.2890625 0.712890625
vt 0.2890625 0.6796875
vt 0.306640625 0.6796875
vt 0.306640625 0.712890625
vt 0.390625 0.369140625
vt 0.390625 0.427734375
vt 0.015625000000000014 0.427734375
vt 0.015625000000000014 0.369140625
vt 0.390625 0.427734375
vt 0.40625 0.462890625
vt 0 0.462890625
vt 0.015625000000000014 0.427734375
vt 0.40625 0.462890625
vt 0.40625 0.587890625
vt 0 0.587890625
vt 0 0.462890625
vt 0.0078125 0.96875
vt 0.0078125 0.9765625
vt 0 0.9765625
vt 0 0.96875
vt 0.0078125 0.9765625
vt 0.0078125 0.984375
vt 0 0.984375
vt 0 0.9765625
vt 0.46484375 0.650390625
vt 0.46484375 0.775390625
vt 0.40234375 0.775390625
vt 0.40234375 0.650390625
vt 0.39062500000000006 0.369140625
vt 0.39062500000000006 0.427734375
vt 0.015625 0.427734375
vt 0.015625 0.369140625
vt 0.39062500000000006 0.427734375
vt 0.40625000000000006 0.462890625
vt 0 0.462890625
vt 0.015625 0.427734375
vt 0.40625000000000006 0.462890625
vt 0.40625000000000006 0.587890625
vt 0 0.587890625
vt 0 0.462890625
vt 0.0078125 0.96875
vt 0.0078125 0.9765625
vt 0 0.9765625
vt 0 0.96875
vt 0.0078125 0.9765625
vt 0.0078125 0.984375
vt 0 0.984375
vt 0 0.9765625
vt 0.46484375 0.650390625
vt 0.46484375 0.775390625
vt 0.40234375 0.775390625
vt 0.40234375 0.650390625
vn 1 0 0
vn -1 0 0
vn 0 1 0
vn 0 -1 0
vn 0 0.9237834125269129 0.38291540415623365
vn 0 0.9237834125269129 -0.3829154041562334
vn -1 0 0
vn -1 0 0
vn -1 0 0
vn 0 0 -1
vn 0 -0.40613846605344767 -0.9138115486202573
vn 0 0 -1
vn 1 0 0
vn 1 0 0
vn 1 0 0
vn 0 0 1
vn 0 -0.40613846605344767 0.9138115486202573
vn 0 0 1
usemtl m_b2ea77d5-6752-41f6-40d2-53375ca588a0
f 33/89/23 34/90/23 35/91/23 36/92/23
f 37/93/24 38/94/24 39/95/24 40/96/24
f 33/97/25 36/98/25 37/99/25 40/100/25
f 41/101/26 42/102/26 43/103/26 44/104/26
f 40/105/27 39/106/27 34/107/27 33/108/27
f 36/109/28 35/110/28 38/111/28 37/112/28
f 43/113/29 45/114/29 46/115/29 44/116/29
f 45/117/30 47/118/30 48/119/30 46/120/30
f 47/121/31 39/122/31 38/123/31 48/124/31
f 44/125/32 46/126/32 49/127/32 41/128/32
f 46/129/33 48/130/33 50/131/33 49/132/33
f 48/133/34 38/134/34 35/135/34 50/136/34
f 41/137/35 49/138/35 51/139/35 42/140/35
f 49/141/36 50/142/36 52/143/36 51/144/36
f 50/145/37 35/146/37 34/147/37 52/148/37
f 42/149/38 51/150/38 45/151/38 43/152/38
f 51/153/39 52/154/39 47/155/39 45/156/39
f 52/157/40 34/158/40 39/159/40 47/160/40
o cube
v 0.34375 0.25 -0.03125
v 0.34374999999999983 0.25 -0.65625
v 0.34374999999999983 1 -0.65625
v 0.34375 1 -0.03125
v 0.34374999999999983 0.25 -0.65625
v 0.34375 0.25 -0.03125
v 0.34375 1 -0.03125
v 0.34374999999999983 1 -0.65625
vt 0.4375 0
vt 0.28125 0
vt 0.28125 0.1875
vt 0.4375 0.1875
vt 0.28125 0
vt 0.4375 0
vt 0.4375 0.1875
vt 0.28125 0.1875
vn 1 0 -2.6645352591003756e-16
vn -1 0 2.6645352591003756e-16
usemtl m_b2ea77d5-6752-41f6-40d2-53375ca588a0
f 53/161/41 54/162/41 55/163/41 56/164/41
f 57/165/42 58/166/42 59/167/42 60/168/42
o cube
v 0.375 0.25 -0.03125
v 0.3125 0.25 -0.03125
v 0.3125 0.75 -0.03125
v 0.375 0.75 -0.03125
v 0.375 0.25 0.03125
v 0.375 0.75 0.03125
v 0.3125 0.25 0.03125
v 0.3125 0.75 0.03125
vt 0.04296875 0.076171875
vt 0.05596127717391304 0.076171875
vt 0.05596127717391304 0.09899573863636357
vt 0.04296875 0.09899573863636357
vt 0.06317934782608696 0.076171875
vt 0.076171875 0.076171875
vt 0.076171875 0.09899573863636357
vt 0.06317934782608696 0.09899573863636357
vt 0.05307404891304348 0.076171875
vt 0.06606657608695651 0.076171875
vt 0.06606657608695651 0.09899573863636357
vt 0.05307404891304348 0.09899573863636357
vt 0.05307404891304348 0.076171875
vt 0.06606657608695651 0.076171875
vt 0.06606657608695651 0.09899573863636357
vt 0.05307404891304348 0.09899573863636357
vt 0.05307404891304348 0.11274857954545459
vt 0.06606657608695651 0.11274857954545459
vt 0.06606657608695651 0.10996875000000006
vt 0.05307404891304348 0.10996875000000006
vt 0.05307404891304348 0.10909090909090913
vt 0.06606657608695651 0.10909090909090913
vt 0.06606657608695651 0.1063110795454546
vt 0.05307404891304348 0.1063110795454546
vn 0 0 -1
vn 1 0 0
vn 0 0 1
vn -1 0 0
vn 0 1 0
vn 0 -1 0
usemtl m_b2ea77d5-6752-41f6-40d2-53375ca588a0
f 61/169/43 62/170/43 63/171/43 64/172/43
f 65/173/44 61/174/44 64/175/44 66/176/44
f 67/177/45 65/178/45 66/179/45 68/180/45
f 62/181/46 67/182/46 68/183/46 63/184/46
f 68/185/47 66/186/47 64/187/47 63/188/47
f 62/189/48 61/190/48 65/191/48 67/192/48