# Made in Blockbench 5.1.6
mtllib dc_metro_roof_d2l_light_layer.mtl

o part2l
v 0.5591108709262116 0.3940141290737884 0.07725424859373686
v 0.5823848804800518 0.3940141290737884 0.06969206447938148
v 0.546875 0.40625 0
v 0.5701490095538402 0.35850424859373686 0.14694631307311834
v 0.6144188064468299 0.35850424859373686 0.13256218411435539
v 0.5789089259667786 0.3031963130731183 0.20225424859373686
v 0.6398410740332214 0.3031963130731183 0.1824561935531699
v 0.5845331385126027 0.23350424859373686 0.2377641290737884
v 0.6561631745605156 0.23350424859373686 0.21449011951994845
v 0.586471110081134 0.15625 0.25
v 0.6617873871063393 0.15625 0.22552825814757682
v 0.5845331385126027 0.07899575140626316 0.2377641290737884
v 0.6561631745605156 0.07899575140626316 0.21449011951994845
v 0.5789089259667786 0.009303686926881743 0.20225424859373686
v 0.6398410740332214 0.009303686926881743 0.1824561935531699
v 0.5701490095538402 -0.046004248593736835 0.14694631307311834
v 0.6144188064468299 -0.046004248593736835 0.13256218411435539
v 0.5591108709262116 -0.08151412907378838 0.07725424859373686
v 0.5823848804800518 -0.08151412907378838 0.06969206447938148
v 0.546875 -0.09375 0
v 0.6021829355206183 0.3940141290737884 0.05530793552061852
v 0.652076944959433 0.35850424859373686 0.10520194495943302
v 0.691673055040567 0.3031963130731183 0.14479805504056698
v 0.7170953226269581 0.23350424859373686 0.17022032262695808
v 0.7258552390398969 0.15625 0.1789802390398969
v 0.7170953226269581 0.07899575140626316 0.17022032262695808
v 0.691673055040567 0.009303686926881743 0.14479805504056698
v 0.652076944959433 -0.046004248593736835 0.10520194495943302
v 0.6021829355206183 -0.08151412907378838 0.05530793552061852
v 0.6165670644793817 0.3940141290737884 0.03550988048005155
v 0.6794371841143554 0.35850424859373686 0.06754380644683011
v 0.7293311935531697 0.3031963130731183 0.09296607403322144
v 0.7613651195199482 0.23350424859373686 0.10928817456051543
v 0.7724032581475768 0.15625 0.11491238710633978
v 0.7613651195199482 0.07899575140626316 0.10928817456051543
v 0.7293311935531697 0.009303686926881743 0.09296607403322144
v 0.6794371841143554 -0.046004248593736835 0.06754380644683033
v 0.6165670644793817 -0.08151412907378838 0.03550988048005155
v 0.6241292485937366 0.3940141290737884 0.01223587092621159
v 0.6938213130731183 0.35850424859373686 0.02327400955383996
v 0.7491292485937366 0.3031963130731183 0.032033925966778565
v 0.7846391290737884 0.23350424859373686 0.03765813851260269
v 0.796875 0.15625 0.03959611008113395
v 0.7846391290737884 0.07899575140626316 0.03765813851260269
v 0.7491292485937366 0.009303686926881743 0.032033925966778565
v 0.6938213130731183 -0.046004248593736835 0.02327400955383996
v 0.6241292485937366 -0.08151412907378838 0.01223587092621159
v 0.6241292485937366 0.3940141290737884 -0.01223587092621159
v 0.6938213130731183 0.35850424859373686 -0.02327400955383996
v 0.7491292485937366 0.3031963130731183 -0.032033925966778676
v 0.7846391290737884 0.23350424859373686 -0.0376581385126028
v 0.796875 0.15625 -0.03959611008113417
v 0.7846391290737884 0.07899575140626316 -0.0376581385126028
v 0.7491292485937366 0.009303686926881743 -0.032033925966778676
v 0.6938213130731183 -0.046004248593736835 -0.02327400955383996
v 0.6241292485937366 -0.08151412907378838 -0.01223587092621159
v 0.6165670644793817 0.3940141290737884 -0.03550988048005155
v 0.6794371841143554 0.35850424859373686 -0.06754380644683011
v 0.7293311935531701 0.3031963130731183 -0.09296607403322132
v 0.7613651195199482 0.23350424859373686 -0.10928817456051543
v 0.7724032581475768 0.15625 -0.11491238710633955
v 0.7613651195199482 0.07899575140626316 -0.10928817456051543
v 0.7293311935531701 0.009303686926881743 -0.09296607403322132
v 0.6794371841143554 -0.046004248593736835 -0.06754380644683011
v 0.6165670644793817 -0.08151412907378838 -0.03550988048005155
v 0.6021829355206183 0.3940141290737884 -0.05530793552061852
v 0.652076944959433 0.35850424859373686 -0.10520194495943302
v 0.691673055040567 0.3031963130731183 -0.14479805504056698
v 0.7170953226269581 0.23350424859373686 -0.1702203226269582
v 0.7258552390398969 0.15625 -0.1789802390398969
v 0.7170953226269581 0.07899575140626316 -0.1702203226269582
v 0.691673055040567 0.009303686926881743 -0.14479805504056698
v 0.652076944959433 -0.046004248593736835 -0.10520194495943302
v 0.6021829355206183 -0.08151412907378838 -0.05530793552061852
v 0.5823848804800518 0.3940141290737884 -0.06969206447938148
v 0.6144188064468299 0.35850424859373686 -0.13256218411435539
v 0.6398410740332214 0.3031963130731183 -0.18245619355316978
v 0.6561631745605156 0.23350424859373686 -0.21449011951994845
v 0.6617873871063398 0.15625 -0.2255282581475767
v 0.6561631745605156 0.07899575140626316 -0.21449011951994845
v 0.6398410740332214 0.009303686926881743 -0.18245619355316978
v 0.6144188064468303 -0.046004248593736835 -0.13256218411435539
v 0.5823848804800518 -0.08151412907378838 -0.06969206447938148
v 0.5591108709262116 0.3940141290737884 -0.07725424859373686
v 0.5701490095538402 0.35850424859373686 -0.14694631307311823
v 0.5789089259667786 0.3031963130731183 -0.20225424859373686
v 0.5845331385126027 0.23350424859373686 -0.2377641290737883
v 0.586471110081134 0.15625 -0.25
v 0.5845331385126027 0.07899575140626316 -0.2377641290737884
v 0.5789089259667786 0.009303686926881743 -0.20225424859373686
v 0.5701490095538402 -0.046004248593736835 -0.14694631307311834
v 0.5591108709262116 -0.08151412907378838 -0.07725424859373686
v 0.5346391290737884 0.3940141290737884 -0.07725424859373686
v 0.5236009904461598 0.35850424859373686 -0.14694631307311834
v 0.5148410740332214 0.3031963130731183 -0.20225424859373686
v 0.5092168614873973 0.23350424859373686 -0.2377641290737884
v 0.507278889918866 0.15625 -0.25
v 0.5092168614873973 0.07899575140626316 -0.2377641290737884
v 0.5148410740332214 0.009303686926881743 -0.20225424859373686
v 0.5236009904461598 -0.046004248593736835 -0.14694631307311834
v 0.5346391290737884 -0.08151412907378838 -0.07725424859373686
v 0.5113651195199482 0.3940141290737884 -0.06969206447938148
v 0.4793311935531701 0.35850424859373686 -0.1325621841143555
v 0.453908925966779 0.3031963130731183 -0.1824561935531699
v 0.4375868254394848 0.23350424859373686 -0.21449011951994845
v 0.43196261289366067 0.15625 -0.22552825814757682
v 0.43758682543948435 0.07899575140626316 -0.21449011951994845
v 0.453908925966779 0.009303686926881743 -0.1824561935531699
v 0.4793311935531701 -0.046004248593736835 -0.1325621841143555
v 0.5113651195199482 -0.08151412907378838 -0.06969206447938148
v 0.4915670644793817 0.3940141290737884 -0.05530793552061852
v 0.441673055040567 0.35850424859373686 -0.10520194495943302
v 0.402076944959433 0.3031963130731183 -0.1447980550405671
v 0.3766546773730419 0.23350424859373686 -0.1702203226269582
v 0.3678947609601031 0.15625 -0.1789802390398969
v 0.3766546773730419 0.07899575140626316 -0.1702203226269583
v 0.402076944959433 0.009303686926881743 -0.1447980550405671
v 0.441673055040567 -0.046004248593736835 -0.10520194495943302
v 0.4915670644793817 -0.08151412907378838 -0.055307935520618634
v 0.4771829355206183 0.3940141290737884 -0.03550988048005155
v 0.4143128158856446 0.35850424859373686 -0.06754380644683022
v 0.36441880644683033 0.3031963130731183 -0.09296607403322144
v 0.33238488048005177 0.23350424859373686 -0.10928817456051554
v 0.3213467418524232 0.15625 -0.11491238710633966
v 0.33238488048005177 0.07899575140626316 -0.10928817456051554
v 0.36441880644683033 0.009303686926881743 -0.09296607403322144
v 0.4143128158856446 -0.046004248593736835 -0.06754380644683022
v 0.4771829355206183 -0.08151412907378838 -0.03550988048005155
v 0.46962075140626336 0.3940141290737884 -0.01223587092621159
v 0.39992868692688166 0.35850424859373686 -0.02327400955383996
v 0.34462075140626336 0.3031963130731183 -0.032033925966778676
v 0.3091108709262116 0.23350424859373686 -0.0376581385126028
v 0.296875 0.15625 -0.03959611008113417
v 0.3091108709262116 0.07899575140626316 -0.0376581385126028
v 0.34462075140626336 0.009303686926881743 -0.032033925966778676
v 0.39992868692688166 -0.046004248593736835 -0.02327400955383996
v 0.46962075140626336 -0.08151412907378838 -0.01223587092621159
v 0.46962075140626336 0.3940141290737884 0.01223587092621159
v 0.39992868692688166 0.35850424859373686 0.02327400955383996
v 0.34462075140626336 0.3031963130731183 0.032033925966778565
v 0.3091108709262116 0.23350424859373686 0.03765813851260269
v 0.296875 0.15625 0.03959611008113395
v 0.3091108709262116 0.07899575140626316 0.03765813851260269
v 0.34462075140626336 0.009303686926881743 0.032033925966778565
v 0.39992868692688166 -0.046004248593736835 0.02327400955383996
v 0.46962075140626336 -0.08151412907378838 0.01223587092621159
v 0.4771829355206183 0.3940141290737884 0.03550988048005155
v 0.4143128158856446 0.35850424859373686 0.06754380644683011
v 0.3644188064468299 0.3031963130731183 0.09296607403322144
v 0.33238488048005177 0.23350424859373686 0.10928817456051543
v 0.3213467418524232 0.15625 0.11491238710633955
v 0.33238488048005177 0.07899575140626316 0.10928817456051543
v 0.3644188064468299 0.009303686926881743 0.09296607403322144
v 0.4143128158856446 -0.046004248593736835 0.06754380644683011
v 0.4771829355206183 -0.08151412907378838 0.03550988048005155
v 0.4915670644793817 0.3940141290737884 0.05530793552061852
v 0.441673055040567 0.35850424859373686 0.10520194495943302
v 0.402076944959433 0.3031963130731183 0.14479805504056698
v 0.3766546773730419 0.23350424859373686 0.17022032262695808
v 0.3678947609601031 0.15625 0.1789802390398969
v 0.3766546773730415 0.07899575140626316 0.17022032262695808
v 0.402076944959433 0.009303686926881743 0.14479805504056698
v 0.441673055040567 -0.046004248593736835 0.10520194495943302
v 0.4915670644793817 -0.08151412907378838 0.05530793552061852
v 0.5113651195199482 0.3940141290737884 0.06969206447938148
v 0.47933119355316967 0.35850424859373686 0.13256218411435539
v 0.45390892596677856 0.3031963130731183 0.18245619355316967
v 0.43758682543948435 0.23350424859373686 0.21449011951994845
v 0.4319626128936602 0.15625 0.22552825814757682
v 0.43758682543948435 0.07899575140626316 0.21449011951994845
v 0.45390892596677856 0.009303686926881743 0.18245619355316967
v 0.47933119355316967 -0.046004248593736835 0.13256218411435539
v 0.5113651195199482 -0.08151412907378838 0.06969206447938148
v 0.5346391290737884 0.3940141290737884 0.07725424859373686
v 0.5236009904461598 0.35850424859373686 0.14694631307311834
v 0.5148410740332214 0.3031963130731183 0.20225424859373686
v 0.5092168614873973 0.23350424859373686 0.2377641290737884
v 0.507278889918866 0.15625 0.25
v 0.5092168614873973 0.07899575140626316 0.2377641290737884
v 0.5148410740332214 0.009303686926881743 0.20225424859373686
v 0.5236009904461598 -0.046004248593736835 0.14694631307311834
v 0.5346391290737884 -0.08151412907378838 0.07725424859373686
vt 0.046875 0.9042859375
vt 0.049934375 0.9042859375
vt 0.0484046875 0.9140625
vt 0.048254687500000004 0.9140625
vt 0.046875 0.9042859375
vt 0.05269375 0.9042859375
vt 0.0513140625 0.9140625
vt 0.04796953125 0.9140625
vt 0.046875 0.9042859375
vt 0.0548828125 0.9042859375
vt 0.05378828125 0.9140625
vt 0.047578125 0.9140625
vt 0.046875 0.9042859375
vt 0.0562890625 0.9042859375
vt 0.0555859375 0.9140625
vt 0.0471171875 0.9140625
vt 0.046875 0.9042859375
vt 0.056773437499999996 0.9042859375
vt 0.05653125 0.9140625
vt 0.046875 0.9140625
vt 0.0471171875 0.9042859375
vt 0.05653125 0.9042859375
vt 0.056773437499999996 0.9140625
vt 0.046875 0.9140625
vt 0.047578125 0.9042859375
vt 0.0555859375 0.9042859375
vt 0.0562890625 0.9140625
vt 0.046875 0.9140625
vt 0.04796953125 0.9042859375
vt 0.05378828125 0.9042859375
vt 0.0548828125 0.9140625
vt 0.046875 0.9140625
vt 0.048254687500000004 0.9042859375
vt 0.0513140625 0.9042859375
vt 0.05269375 0.9140625
vt 0.049934375 0.9140625
vt 0.046875 0.9140625
vt 0.0484046875 0.9042859375
vt 0.046875 0.9042859375
vt 0.049934375 0.9042859375
vt 0.0484046875 0.9140625
vt 0.048254687500000004 0.9140625
vt 0.046875 0.9042859375
vt 0.05269375 0.9042859375
vt 0.0513140625 0.9140625
vt 0.04796953125 0.9140625
vt 0.046875 0.9042859375
vt 0.0548828125 0.9042859375
vt 0.05378828125 0.9140625
vt 0.047578125 0.9140625
vt 0.046875 0.9042859375
vt 0.0562890625 0.9042859375
vt 0.0555859375 0.9140625
vt 0.0471171875 0.9140625
vt 0.046875 0.9042859375
vt 0.056773437499999996 0.9042859375
vt 0.05653125 0.9140625
vt 0.046875 0.9140625
vt 0.0471171875 0.9042859375
vt 0.05653125 0.9042859375
vt 0.056773437499999996 0.9140625
vt 0.046875 0.9140625
vt 0.047578125 0.9042859375
vt 0.0555859375 0.9042859375
vt 0.0562890625 0.9140625
vt 0.046875 0.9140625
vt 0.04796953125 0.9042859375
vt 0.05378828125 0.9042859375
vt 0.0548828125 0.9140625
vt 0.046875 0.9140625
vt 0.048254687500000004 0.9042859375
vt 0.0513140625 0.9042859375
vt 0.05269375 0.9140625
vt 0.049934375 0.9140625
vt 0.046875 0.9140625
vt 0.0484046875 0.9042859375
vt 0.046875 0.9042859375
vt 0.049934375 0.9042859375
vt 0.0484046875 0.9140625
vt 0.048254687500000004 0.9140625
vt 0.046875 0.9042859375
vt 0.05269375 0.9042859375
vt 0.0513140625 0.9140625
vt 0.04796953125 0.9140625
vt 0.046875 0.9042859375
vt 0.0548828125 0.9042859375
vt 0.05378828125 0.9140625
vt 0.047578125 0.9140625
vt 0.046875 0.9042859375
vt 0.0562890625 0.9042859375
vt 0.0555859375 0.9140625
vt 0.0471171875 0.9140625
vt 0.046875 0.9042859375
vt 0.056773437499999996 0.9042859375
vt 0.05653125 0.9140625
vt 0.046875 0.9140625
vt 0.0471171875 0.9042859375
vt 0.05653125 0.9042859375
vt 0.056773437499999996 0.9140625
vt 0.046875 0.9140625
vt 0.047578125 0.9042859375
vt 0.0555859375 0.9042859375
vt 0.0562890625 0.9140625
vt 0.046875 0.9140625
vt 0.04796953125 0.9042859375
vt 0.05378828125 0.9042859375
vt 0.0548828125 0.9140625
vt 0.046875 0.9140625
vt 0.048254687500000004 0.9042859375
vt 0.0513140625 0.9042859375
vt 0.05269375 0.9140625
vt 0.049934375 0.9140625
vt 0.046875 0.9140625
vt 0.0484046875 0.9042859375
vt 0.046875 0.9042859375
vt 0.049934375 0.9042859375
vt 0.0484046875 0.9140625
vt 0.048254687500000004 0.9140625
vt 0.046875 0.9042859375
vt 0.05269375 0.9042859375
vt 0.0513140625 0.9140625
vt 0.04796953125 0.9140625
vt 0.046875 0.9042859375
vt 0.0548828125 0.9042859375
vt 0.05378828125 0.9140625
vt 0.047578125 0.9140625
vt 0.046875 0.9042859375
vt 0.0562890625 0.9042859375
vt 0.0555859375 0.9140625
vt 0.0471171875 0.9140625
vt 0.046875 0.9042859375
vt 0.056773437499999996 0.9042859375
vt 0.05653125 0.9140625
vt 0.046875 0.9140625
vt 0.0471171875 0.9042859375
vt 0.05653125 0.9042859375
vt 0.056773437499999996 0.9140625
vt 0.046875 0.9140625
vt 0.047578125 0.9042859375
vt 0.0555859375 0.9042859375
vt 0.0562890625 0.9140625
vt 0.046875 0.9140625
vt 0.04796953125 0.9042859375
vt 0.05378828125 0.9042859375
vt 0.0548828125 0.9140625
vt 0.046875 0.9140625
vt 0.048254687500000004 0.9042859375
vt 0.0513140625 0.9042859375
vt 0.05269375 0.9140625
vt 0.049934375 0.9140625
vt 0.046875 0.9140625
vt 0.0484046875 0.9042859375
vt 0.046875 0.9042859375
vt 0.049934375 0.9042859375
vt 0.0484046875 0.9140625
vt 0.048254687500000004 0.9140625
vt 0.046875 0.9042859375
vt 0.05269375 0.9042859375
vt 0.0513140625 0.9140625
vt 0.04796953125 0.9140625
vt 0.046875 0.9042859375
vt 0.0548828125 0.9042859375
vt 0.05378828125 0.9140625
vt 0.047578125 0.9140625
vt 0.046875 0.9042859375
vt 0.0562890625 0.9042859375
vt 0.0555859375 0.9140625
vt 0.0471171875 0.9140625
vt 0.046875 0.9042859375
vt 0.056773437499999996 0.9042859375
vt 0.05653125 0.9140625
vt 0.046875 0.9140625
vt 0.0471171875 0.9042859375
vt 0.05653125 0.9042859375
vt 0.056773437499999996 0.9140625
vt 0.046875 0.9140625
vt 0.047578125 0.9042859375
vt 0.0555859375 0.9042859375
vt 0.0562890625 0.9140625
vt 0.046875 0.9140625
vt 0.04796953125 0.9042859375
vt 0.05378828125 0.9042859375
vt 0.0548828125 0.9140625
vt 0.046875 0.9140625
vt 0.048254687500000004 0.9042859375
vt 0.0513140625 0.9042859375
vt 0.05269375 0.9140625
vt 0.049934375 0.9140625
vt 0.046875 0.9140625
vt 0.0484046875 0.9042859375
vt 0.046875 0.9042859375
vt 0.049934375 0.9042859375
vt 0.0484046875 0.9140625
vt 0.048254687500000004 0.9140625
vt 0.046875 0.9042859375
vt 0.05269375 0.9042859375
vt 0.0513140625 0.9140625
vt 0.04796953125 0.9140625
vt 0.046875 0.9042859375
vt 0.0548828125 0.9042859375
vt 0.05378828125 0.9140625
vt 0.047578125 0.9140625
vt 0.046875 0.9042859375
vt 0.0562890625 0.9042859375
vt 0.0555859375 0.9140625
vt 0.0471171875 0.9140625
vt 0.046875 0.9042859375
vt 0.056773437499999996 0.9042859375
vt 0.05653125 0.9140625
vt 0.046875 0.9140625
vt 0.0471171875 0.9042859375
vt 0.05653125 0.9042859375
vt 0.056773437499999996 0.9140625
vt 0.046875 0.9140625
vt 0.047578125 0.9042859375
vt 0.0555859375 0.9042859375
vt 0.0562890625 0.9140625
vt 0.046875 0.9140625
vt 0.04796953125 0.9042859375
vt 0.05378828125 0.9042859375
vt 0.0548828125 0.9140625
vt 0.046875 0.9140625
vt 0.048254687500000004 0.9042859375
vt 0.0513140625 0.9042859375
vt 0.05269375 0.9140625
vt 0.049934375 0.9140625
vt 0.046875 0.9140625
vt 0.0484046875 0.9042859375
vt 0.046875 0.9042859375
vt 0.049934375 0.9042859375
vt 0.0484046875 0.9140625
vt 0.048254687500000004 0.9140625
vt 0.046875 0.9042859375
vt 0.05269375 0.9042859375
vt 0.0513140625 0.9140625
vt 0.04796953125 0.9140625
vt 0.046875 0.9042859375
vt 0.0548828125 0.9042859375
vt 0.05378828125 0.9140625
vt 0.047578125 0.9140625
vt 0.046875 0.9042859375
vt 0.0562890625 0.9042859375
vt 0.0555859375 0.9140625
vt 0.0471171875 0.9140625
vt 0.046875 0.9042859375
vt 0.056773437499999996 0.9042859375
vt 0.05653125 0.9140625
vt 0.046875 0.9140625
vt 0.0471171875 0.9042859375
vt 0.05653125 0.9042859375
vt 0.056773437499999996 0.9140625
vt 0.046875 0.9140625
vt 0.047578125 0.9042859375
vt 0.0555859375 0.9042859375
vt 0.0562890625 0.9140625
vt 0.046875 0.9140625
vt 0.04796953125 0.9042859375
vt 0.05378828125 0.9042859375
vt 0.0548828125 0.9140625
vt 0.046875 0.9140625
vt 0.048254687500000004 0.9042859375
vt 0.0513140625 0.9042859375
vt 0.05269375 0.9140625
vt 0.049934375 0.9140625
vt 0.046875 0.9140625
vt 0.0484046875 0.9042859375
vt 0.046875 0.9042859375
vt 0.049934375 0.9042859375
vt 0.0484046875 0.9140625
vt 0.048254687500000004 0.9140625
vt 0.046875 0.9042859375
vt 0.05269375 0.9042859375
vt 0.0513140625 0.9140625
vt 0.04796953125 0.9140625
vt 0.046875 0.9042859375
vt 0.0548828125 0.9042859375
vt 0.05378828125 0.9140625
vt 0.047578125 0.9140625
vt 0.046875 0.9042859375
vt 0.0562890625 0.9042859375
vt 0.0555859375 0.9140625
vt 0.0471171875 0.9140625
vt 0.046875 0.9042859375
vt 0.056773437499999996 0.9042859375
vt 0.05653125 0.9140625
vt 0.046875 0.9140625
vt 0.0471171875 0.9042859375
vt 0.05653125 0.9042859375
vt 0.056773437499999996 0.9140625
vt 0.046875 0.9140625
vt 0.047578125 0.9042859375
vt 0.0555859375 0.9042859375
vt 0.0562890625 0.9140625
vt 0.046875 0.9140625
vt 0.04796953125 0.9042859375
vt 0.05378828125 0.9042859375
vt 0.0548828125 0.9140625
vt 0.046875 0.9140625
vt 0.048254687500000004 0.9042859375
vt 0.0513140625 0.9042859375
vt 0.05269375 0.9140625
vt 0.049934375 0.9140625
vt 0.046875 0.9140625
vt 0.0484046875 0.9042859375
vt 0.046875 0.9042859375
vt 0.049934375 0.9042859375
vt 0.0484046875 0.9140625
vt 0.048254687500000004 0.9140625
vt 0.046875 0.9042859375
vt 0.05269375 0.9042859375
vt 0.0513140625 0.9140625
vt 0.04796953125 0.9140625
vt 0.046875 0.9042859375
vt 0.0548828125 0.9042859375
vt 0.05378828125 0.9140625
vt 0.047578125 0.9140625
vt 0.046875 0.9042859375
vt 0.0562890625 0.9042859375
vt 0.0555859375 0.9140625
vt 0.0471171875 0.9140625
vt 0.046875 0.9042859375
vt 0.056773437499999996 0.9042859375
vt 0.05653125 0.9140625
vt 0.046875 0.9140625
vt 0.0471171875 0.9042859375
vt 0.05653125 0.9042859375
vt 0.056773437499999996 0.9140625
vt 0.046875 0.9140625
vt 0.047578125 0.9042859375
vt 0.0555859375 0.9042859375
vt 0.0562890625 0.9140625
vt 0.046875 0.9140625
vt 0.04796953125 0.9042859375
vt 0.05378828125 0.9042859375
vt 0.0548828125 0.9140625
vt 0.046875 0.9140625
vt 0.048254687500000004 0.9042859375
vt 0.0513140625 0.9042859375
vt 0.05269375 0.9140625
vt 0.049934375 0.9140625
vt 0.046875 0.9140625
vt 0.0484046875 0.9042859375
vt 0.046875 0.9042859375
vt 0.049934375 0.9042859375
vt 0.0484046875 0.9140625
vt 0.048254687500000004 0.9140625
vt 0.046875 0.9042859375
vt 0.05269375 0.9042859375
vt 0.0513140625 0.9140625
vt 0.04796953125 0.9140625
vt 0.046875 0.9042859375
vt 0.0548828125 0.9042859375
vt 0.05378828125 0.9140625
vt 0.047578125 0.9140625
vt 0.046875 0.9042859375
vt 0.0562890625 0.9042859375
vt 0.0555859375 0.9140625
vt 0.0471171875 0.9140625
vt 0.046875 0.9042859375
vt 0.056773437499999996 0.9042859375
vt 0.05653125 0.9140625
vt 0.046875 0.9140625
vt 0.0471171875 0.9042859375
vt 0.05653125 0.9042859375
vt 0.056773437499999996 0.9140625
vt 0.046875 0.9140625
vt 0.047578125 0.9042859375
vt 0.0555859375 0.9042859375
vt 0.0562890625 0.9140625
vt 0.046875 0.9140625
vt 0.04796953125 0.9042859375
vt 0.05378828125 0.9042859375
vt 0.0548828125 0.9140625
vt 0.046875 0.9140625
vt 0.048254687500000004 0.9042859375
vt 0.0513140625 0.9042859375
vt 0.05269375 0.9140625
vt 0.049934375 0.9140625
vt 0.046875 0.9140625
vt 0.0484046875 0.9042859375
vt 0.046875 0.9042859375
vt 0.049934375 0.9042859375
vt 0.0484046875 0.9140625
vt 0.048254687500000004 0.9140625
vt 0.046875 0.9042859375
vt 0.05269375 0.9042859375
vt 0.0513140625 0.9140625
vt 0.04796953125 0.9140625
vt 0.046875 0.9042859375
vt 0.0548828125 0.9042859375
vt 0.05378828125 0.9140625
vt 0.047578125 0.9140625
vt 0.046875 0.9042859375
vt 0.0562890625 0.9042859375
vt 0.0555859375 0.9140625
vt 0.0471171875 0.9140625
vt 0.046875 0.9042859375
vt 0.056773437499999996 0.9042859375
vt 0.05653125 0.9140625
vt 0.046875 0.9140625
vt 0.0471171875 0.9042859375
vt 0.05653125 0.9042859375
vt 0.056773437499999996 0.9140625
vt 0.046875 0.9140625
vt 0.047578125 0.9042859375
vt 0.0555859375 0.9042859375
vt 0.0562890625 0.9140625
vt 0.046875 0.9140625
vt 0.04796953125 0.9042859375
vt 0.05378828125 0.9042859375
vt 0.0548828125 0.9140625
vt 0.046875 0.9140625
vt 0.048254687500000004 0.9042859375
vt 0.0513140625 0.9042859375
vt 0.05269375 0.9140625
vt 0.049934375 0.9140625
vt 0.046875 0.9140625
vt 0.0484046875 0.9042859375
vt 0.046875 0.9042859375
vt 0.049934375 0.9042859375
vt 0.0484046875 0.9140625
vt 0.048254687500000004 0.9140625
vt 0.046875 0.9042859375
vt 0.05269375 0.9042859375
vt 0.0513140625 0.9140625
vt 0.04796953125 0.9140625
vt 0.046875 0.9042859375
vt 0.0548828125 0.9042859375
vt 0.05378828125 0.9140625
vt 0.047578125 0.9140625
vt 0.046875 0.9042859375
vt 0.0562890625 0.9042859375
vt 0.0555859375 0.9140625
vt 0.0471171875 0.9140625
vt 0.046875 0.9042859375
vt 0.056773437499999996 0.9042859375
vt 0.05653125 0.9140625
vt 0.046875 0.9140625
vt 0.0471171875 0.9042859375
vt 0.05653125 0.9042859375
vt 0.056773437499999996 0.9140625
vt 0.046875 0.9140625
vt 0.047578125 0.9042859375
vt 0.0555859375 0.9042859375
vt 0.0562890625 0.9140625
vt 0.046875 0.9140625
vt 0.04796953125 0.9042859375
vt 0.05378828125 0.9042859375
vt 0.0548828125 0.9140625
vt 0.046875 0.9140625
vt 0.048254687500000004 0.9042859375
vt 0.0513140625 0.9042859375
vt 0.05269375 0.9140625
vt 0.049934375 0.9140625
vt 0.046875 0.9140625
vt 0.0484046875 0.9042859375
vt 0.046875 0.9042859375
vt 0.049934375 0.9042859375
vt 0.0484046875 0.9140625
vt 0.048254687500000004 0.9140625
vt 0.046875 0.9042859375
vt 0.05269375 0.9042859375
vt 0.0513140625 0.9140625
vt 0.04796953125 0.9140625
vt 0.046875 0.9042859375
vt 0.0548828125 0.9042859375
vt 0.05378828125 0.9140625
vt 0.047578125 0.9140625
vt 0.046875 0.9042859375
vt 0.0562890625 0.9042859375
vt 0.0555859375 0.9140625
vt 0.0471171875 0.9140625
vt 0.046875 0.9042859375
vt 0.056773437499999996 0.9042859375
vt 0.05653125 0.9140625
vt 0.046875 0.9140625
vt 0.0471171875 0.9042859375
vt 0.05653125 0.9042859375
vt 0.056773437499999996 0.9140625
vt 0.046875 0.9140625
vt 0.047578125 0.9042859375
vt 0.0555859375 0.9042859375
vt 0.0562890625 0.9140625
vt 0.046875 0.9140625
vt 0.04796953125 0.9042859375
vt 0.05378828125 0.9042859375
vt 0.0548828125 0.9140625
vt 0.046875 0.9140625
vt 0.048254687500000004 0.9042859375
vt 0.0513140625 0.9042859375
vt 0.05269375 0.9140625
vt 0.049934375 0.9140625
vt 0.046875 0.9140625
vt 0.0484046875 0.9042859375
vt 0.046875 0.9042859375
vt 0.049934375 0.9042859375
vt 0.0484046875 0.9140625
vt 0.048254687500000004 0.9140625
vt 0.046875 0.9042859375
vt 0.05269375 0.9042859375
vt 0.0513140625 0.9140625
vt 0.04796953125 0.9140625
vt 0.046875 0.9042859375
vt 0.0548828125 0.9042859375
vt 0.05378828125 0.9140625
vt 0.047578125 0.9140625
vt 0.046875 0.9042859375
vt 0.0562890625 0.9042859375
vt 0.0555859375 0.9140625
vt 0.0471171875 0.9140625
vt 0.046875 0.9042859375
vt 0.056773437499999996 0.9042859375
vt 0.05653125 0.9140625
vt 0.046875 0.9140625
vt 0.0471171875 0.9042859375
vt 0.05653125 0.9042859375
vt 0.056773437499999996 0.9140625
vt 0.046875 0.9140625
vt 0.047578125 0.9042859375
vt 0.0555859375 0.9042859375
vt 0.0562890625 0.9140625
vt 0.046875 0.9140625
vt 0.04796953125 0.9042859375
vt 0.05378828125 0.9042859375
vt 0.0548828125 0.9140625
vt 0.046875 0.9140625
vt 0.048254687500000004 0.9042859375
vt 0.0513140625 0.9042859375
vt 0.05269375 0.9140625
vt 0.049934375 0.9140625
vt 0.046875 0.9140625
vt 0.0484046875 0.9042859375
vt 0.046875 0.9042859375
vt 0.049934375 0.9042859375
vt 0.0484046875 0.9140625
vt 0.048254687500000004 0.9140625
vt 0.046875 0.9042859375
vt 0.05269375 0.9042859375
vt 0.0513140625 0.9140625
vt 0.04796953125 0.9140625
vt 0.046875 0.9042859375
vt 0.0548828125 0.9042859375
vt 0.05378828125 0.9140625
vt 0.047578125 0.9140625
vt 0.046875 0.9042859375
vt 0.0562890625 0.9042859375
vt 0.0555859375 0.9140625
vt 0.0471171875 0.9140625
vt 0.046875 0.9042859375
vt 0.056773437499999996 0.9042859375
vt 0.05653125 0.9140625
vt 0.046875 0.9140625
vt 0.0471171875 0.9042859375
vt 0.05653125 0.9042859375
vt 0.056773437499999996 0.9140625
vt 0.046875 0.9140625
vt 0.047578125 0.9042859375
vt 0.0555859375 0.9042859375
vt 0.0562890625 0.9140625
vt 0.046875 0.9140625
vt 0.04796953125 0.9042859375
vt 0.05378828125 0.9042859375
vt 0.0548828125 0.9140625
vt 0.046875 0.9140625
vt 0.048254687500000004 0.9042859375
vt 0.0513140625 0.9042859375
vt 0.05269375 0.9140625
vt 0.049934375 0.9140625
vt 0.046875 0.9140625
vt 0.0484046875 0.9042859375
vt 0.046875 0.9042859375
vt 0.049934375 0.9042859375
vt 0.0484046875 0.9140625
vt 0.048254687500000004 0.9140625
vt 0.046875 0.9042859375
vt 0.05269375 0.9042859375
vt 0.0513140625 0.9140625
vt 0.04796953125 0.9140625
vt 0.046875 0.9042859375
vt 0.0548828125 0.9042859375
vt 0.05378828125 0.9140625
vt 0.047578125 0.9140625
vt 0.046875 0.9042859375
vt 0.0562890625 0.9042859375
vt 0.0555859375 0.9140625
vt 0.0471171875 0.9140625
vt 0.046875 0.9042859375
vt 0.056773437499999996 0.9042859375
vt 0.05653125 0.9140625
vt 0.046875 0.9140625
vt 0.0471171875 0.9042859375
vt 0.05653125 0.9042859375
vt 0.056773437499999996 0.9140625
vt 0.046875 0.9140625
vt 0.047578125 0.9042859375
vt 0.0555859375 0.9042859375
vt 0.0562890625 0.9140625
vt 0.046875 0.9140625
vt 0.04796953125 0.9042859375
vt 0.05378828125 0.9042859375
vt 0.0548828125 0.9140625
vt 0.046875 0.9140625
vt 0.048254687500000004 0.9042859375
vt 0.0513140625 0.9042859375
vt 0.05269375 0.9140625
vt 0.049934375 0.9140625
vt 0.046875 0.9140625
vt 0.0484046875 0.9042859375
vt 0.046875 0.9042859375
vt 0.049934375 0.9042859375
vt 0.0484046875 0.9140625
vt 0.048254687500000004 0.9140625
vt 0.046875 0.9042859375
vt 0.05269375 0.9042859375
vt 0.0513140625 0.9140625
vt 0.04796953125 0.9140625
vt 0.046875 0.9042859375
vt 0.0548828125 0.9042859375
vt 0.05378828125 0.9140625
vt 0.047578125 0.9140625
vt 0.046875 0.9042859375
vt 0.0562890625 0.9042859375
vt 0.0555859375 0.9140625
vt 0.0471171875 0.9140625
vt 0.046875 0.9042859375
vt 0.056773437499999996 0.9042859375
vt 0.05653125 0.9140625
vt 0.046875 0.9140625
vt 0.0471171875 0.9042859375
vt 0.05653125 0.9042859375
vt 0.056773437499999996 0.9140625
vt 0.046875 0.9140625
vt 0.047578125 0.9042859375
vt 0.0555859375 0.9042859375
vt 0.0562890625 0.9140625
vt 0.046875 0.9140625
vt 0.04796953125 0.9042859375
vt 0.05378828125 0.9042859375
vt 0.0548828125 0.9140625
vt 0.046875 0.9140625
vt 0.048254687500000004 0.9042859375
vt 0.0513140625 0.9042859375
vt 0.05269375 0.9140625
vt 0.049934375 0.9140625
vt 0.046875 0.9140625
vt 0.0484046875 0.9042859375
vt 0.046875 0.9042859375
vt 0.049934375 0.9042859375
vt 0.0484046875 0.9140625
vt 0.048254687500000004 0.9140625
vt 0.046875 0.9042859375
vt 0.05269375 0.9042859375
vt 0.0513140625 0.9140625
vt 0.04796953125 0.9140625
vt 0.046875 0.9042859375
vt 0.0548828125 0.9042859375
vt 0.05378828125 0.9140625
vt 0.047578125 0.9140625
vt 0.046875 0.9042859375
vt 0.0562890625 0.9042859375
vt 0.0555859375 0.9140625
vt 0.0471171875 0.9140625
vt 0.046875 0.9042859375
vt 0.056773437499999996 0.9042859375
vt 0.05653125 0.9140625
vt 0.046875 0.9140625
vt 0.0471171875 0.9042859375
vt 0.05653125 0.9042859375
vt 0.056773437499999996 0.9140625
vt 0.046875 0.9140625
vt 0.047578125 0.9042859375
vt 0.0555859375 0.9042859375
vt 0.0562890625 0.9140625
vt 0.046875 0.9140625
vt 0.04796953125 0.9042859375
vt 0.05378828125 0.9042859375
vt 0.0548828125 0.9140625
vt 0.046875 0.9140625
vt 0.048254687500000004 0.9042859375
vt 0.0513140625 0.9042859375
vt 0.05269375 0.9140625
vt 0.049934375 0.9140625
vt 0.046875 0.9140625
vt 0.0484046875 0.9042859375
vt 0.046875 0.9042859375
vt 0.049934375 0.9042859375
vt 0.0484046875 0.9140625
vt 0.048254687500000004 0.9140625
vt 0.046875 0.9042859375
vt 0.05269375 0.9042859375
vt 0.0513140625 0.9140625
vt 0.04796953125 0.9140625
vt 0.046875 0.9042859375
vt 0.0548828125 0.9042859375
vt 0.05378828125 0.9140625
vt 0.047578125 0.9140625
vt 0.046875 0.9042859375
vt 0.0562890625 0.9042859375
vt 0.0555859375 0.9140625
vt 0.0471171875 0.9140625
vt 0.046875 0.9042859375
vt 0.056773437499999996 0.9042859375
vt 0.05653125 0.9140625
vt 0.046875 0.9140625
vt 0.0471171875 0.9042859375
vt 0.05653125 0.9042859375
vt 0.056773437499999996 0.9140625
vt 0.046875 0.9140625
vt 0.047578125 0.9042859375
vt 0.0555859375 0.9042859375
vt 0.0562890625 0.9140625
vt 0.046875 0.9140625
vt 0.04796953125 0.9042859375
vt 0.05378828125 0.9042859375
vt 0.0548828125 0.9140625
vt 0.046875 0.9140625
vt 0.048254687500000004 0.9042859375
vt 0.0513140625 0.9042859375
vt 0.05269375 0.9140625
vt 0.049934375 0.9140625
vt 0.046875 0.9140625
vt 0.0484046875 0.9042859375
vt 0.046875 0.9042859375
vt 0.049934375 0.9042859375
vt 0.0484046875 0.9140625
vt 0.048254687500000004 0.9140625
vt 0.046875 0.9042859375
vt 0.05269375 0.9042859375
vt 0.0513140625 0.9140625
vt 0.04796953125 0.9140625
vt 0.046875 0.9042859375
vt 0.0548828125 0.9042859375
vt 0.05378828125 0.9140625
vt 0.047578125 0.9140625
vt 0.046875 0.9042859375
vt 0.0562890625 0.9042859375
vt 0.0555859375 0.9140625
vt 0.0471171875 0.9140625
vt 0.046875 0.9042859375
vt 0.056773437499999996 0.9042859375
vt 0.05653125 0.9140625
vt 0.046875 0.9140625
vt 0.0471171875 0.9042859375
vt 0.05653125 0.9042859375
vt 0.056773437499999996 0.9140625
vt 0.046875 0.9140625
vt 0.047578125 0.9042859375
vt 0.0555859375 0.9042859375
vt 0.0562890625 0.9140625
vt 0.046875 0.9140625
vt 0.04796953125 0.9042859375
vt 0.05378828125 0.9042859375
vt 0.0548828125 0.9140625
vt 0.046875 0.9140625
vt 0.048254687500000004 0.9042859375
vt 0.0513140625 0.9042859375
vt 0.05269375 0.9140625
vt 0.049934375 0.9140625
vt 0.046875 0.9140625
vt 0.0484046875 0.9042859375
vn 0.04834090820338411 0.9876883405951379 0.1487780173496579
vn 0.14029077970429757 0.891006524188368 0.43177062311338815
vn 0.21850801222440966 0.7071067811865467 0.6724985119639585
vn 0.27533615807315776 0.45399049973954697 0.8473975608908428
vn 0.30521248238988913 0.15643446504023054 0.9393474323917528
vn 0.3052124823898883 -0.1564344650402306 0.939347432391753
vn 0.2753361580731569 -0.453990499739547 0.847397560890843
vn 0.21850801222441482 -0.7071067811865462 0.6724985119639574
vn 0.14029077970429266 -0.8910065241883683 0.43177062311338904
vn 0.04834090820338421 -0.9876883405951378 0.1487780173496582
vn 0.09194987150091201 0.9876883405951378 0.12655814072349877
vn 0.2668489204277942 0.891006524188367 0.36728602957407147
vn 0.415626937777454 0.7071067811865493 0.5720614028176817
vn 0.5237204946143021 0.45399049973954647 0.7208394201673406
vn 0.5805486404630462 0.156434465040228 0.7990566526874591
vn 0.5805486404630503 -0.15643446504022795 0.7990566526874561
vn 0.5237204946143016 -0.45399049973954647 0.7208394201673408
vn 0.4156269377774485 -0.7071067811865498 0.572061402817685
vn 0.26684892042780284 -0.8910065241883663 0.36728602957406675
vn 0.09194987150091223 -0.9876883405951379 0.1265581407234991
vn 0.1265581407234984 0.9876883405951378 0.09194987150091252
vn 0.3672860295740683 0.8910065241883687 0.26684892042779335
vn 0.5720614028176852 0.7071067811865465 0.41562693777745413
vn 0.720839420167343 0.4539904997395458 0.5237204946142993
vn 0.7990566526874564 0.15643446504023292 0.5805486404630483
vn 0.7990566526874578 -0.15643446504023292 0.5805486404630466
vn 0.7208394201673426 -0.45399049973954575 0.5237204946142998
vn 0.5720614028176855 -0.7071067811865464 0.41562693777745374
vn 0.3672860295740611 -0.8910065241883693 0.266848920427801
vn 0.1265581407234987 -0.9876883405951378 0.09194987150091272
vn 0.14877801734965865 0.987688340595138 0.04834090820338199
vn 0.4317706231133904 0.891006524188367 0.14029077970429676
vn 0.6724985119639582 0.707106781186547 0.21850801222440955
vn 0.8473975608908424 0.4539904997395458 0.2753361580731611
vn 0.9393474323917528 0.1564344650402348 0.3052124823898873
vn 0.9393474323917513 -0.15643446504023498 0.3052124823898915
vn 0.8473975608908437 -0.45399049973954547 0.27533615807315714
vn 0.6724985119639578 -0.7071067811865467 0.21850801222441152
vn 0.4317706231133944 -0.8910065241883668 0.14029077970428755
vn 0.14877801734965895 -0.9876883405951378 0.048340908203382084
vn 0.1564344650402311 0.9876883405951379 0
vn 0.45399049973954547 0.8910065241883686 0
vn 0.7071067811865493 0.7071067811865458 0
vn 0.8910065241883667 0.45399049973954925 0
vn 0.9876883405951379 0.15643446504023067 0
vn 0.9876883405951379 -0.1564344650402307 0
vn 0.8910065241883667 -0.45399049973954914 0
vn 0.7071067811865492 -0.7071067811865458 0
vn 0.45399049973954547 -0.8910065241883686 0
vn 0.15643446504023145 -0.9876883405951378 0
vn 0.14877801734965865 0.987688340595138 -0.04834090820338199
vn 0.4317706231133877 0.8910065241883686 -0.1402907797042959
vn 0.6724985119639602 0.7071067811865462 -0.21850801222440613
vn 0.8473975608908407 0.4539904997395488 -0.27533615807316103
vn 0.9393474323917528 0.15643446504023095 -0.30521248238988913
vn 0.9393474323917518 -0.15643446504023095 -0.3052124823898921
vn 0.8473975608908434 -0.4539904997395495 -0.2753361580731518
vn 0.6724985119639586 -0.7071067811865458 -0.21850801222441293
vn 0.4317706231133896 -0.8910065241883691 -0.14029077970428602
vn 0.14877801734965895 -0.9876883405951378 -0.048340908203382084
vn 0.1265581407234984 0.9876883405951378 -0.09194987150091252
vn 0.36728602957407064 0.8910065241883671 -0.26684892042779507
vn 0.5720614028176811 0.7071067811865491 -0.4156269377774553
vn 0.7208394201673448 0.4539904997395425 -0.5237204946142998
vn 0.7990566526874573 0.15643446504023345 -0.580548640463047
vn 0.7990566526874582 -0.15643446504023356 -0.5805486404630458
vn 0.7208394201673418 -0.4539904997395421 -0.5237204946143043
vn 0.5720614028176841 -0.7071067811865495 -0.4156269377774502
vn 0.3672860295740656 -0.8910065241883667 -0.26684892042780417
vn 0.1265581407234987 -0.9876883405951378 -0.09194987150091272
vn 0.09194987150091202 0.9876883405951378 -0.1265581407234988
vn 0.26684892042779257 0.8910065241883683 -0.36728602957406936
vn 0.41562693777745496 0.7071067811865466 -0.5720614028176846
vn 0.523720494614301 0.45399049973954686 -0.720839420167341
vn 0.5805486404630475 0.15643446504023176 -0.7990566526874572
vn 0.580548640463049 -0.15643446504023187 -0.7990566526874562
vn 0.5237204946143005 -0.4539904997395468 -0.7208394201673415
vn 0.41562693777745374 -0.7071067811865464 -0.5720614028176855
vn 0.26684892042779995 -0.891006524188369 -0.3672860295740625
vn 0.09194987150091223 -0.9876883405951379 -0.12655814072349908
vn 0.04834090820338411 0.9876883405951379 -0.1487780173496579
vn 0.14029077970429696 0.8910065241883673 -0.43177062311339
vn 0.21850801222441035 0.7071067811865482 -0.6724985119639567
vn 0.27533615807315653 0.45399049973954725 -0.8473975608908431
vn 0.30521248238988874 0.15643446504023004 -0.939347432391753
vn 0.30521248238988835 -0.15643446504023006 -0.9393474323917531
vn 0.27533615807315825 -0.45399049973954736 -0.8473975608908424
vn 0.21850801222441232 -0.7071067811865477 -0.6724985119639567
vn 0.14029077970429343 -0.8910065241883673 -0.4317706231133908
vn 0.04834090820338421 -0.9876883405951378 -0.1487780173496582
vn 0 0.9876883405951378 -0.15643446504023065
vn 1.1911504382996765e-15 0.8910065241883678 -0.45399049973954714
vn 0 0.7071067811865479 -0.7071067811865472
vn 1.3251086218503803e-15 0.4539904997395461 -0.8910065241883685
vn 0 0.15643446504023203 -0.9876883405951375
vn 0 -0.1564344650402307 -0.9876883405951379
vn 0 -0.4539904997395469 -0.8910065241883679
vn 0 -0.7071067811865471 -0.7071067811865479
vn 0 -0.8910065241883679 -0.4539904997395467
vn 0 -0.9876883405951379 -0.156434465040231
vn -0.04834090820338411 0.9876883405951379 -0.1487780173496579
vn -0.14029077970429646 0.8910065241883682 -0.4317706231133885
vn -0.21850801222441119 0.7071067811865466 -0.6724985119639583
vn -0.27533615807315936 0.4539904997395469 -0.8473975608908424
vn -0.30521248238988913 0.15643446504023054 -0.9393474323917528
vn -0.3052124823898883 -0.1564344650402306 -0.939347432391753
vn -0.2753361580731588 -0.4539904997395469 -0.8473975608908426
vn -0.2185080122244133 -0.7071067811865464 -0.6724985119639578
vn -0.14029077970429266 -0.8910065241883683 -0.43177062311338904
vn -0.04834090820338421 -0.9876883405951378 -0.1487780173496582
vn -0.09194987150091201 0.9876883405951378 -0.12655814072349877
vn -0.2668489204277947 0.8910065241883672 -0.3672860295740707
vn -0.415626937777452 0.7071067811865474 -0.5720614028176855
vn -0.5237204946142987 0.4539904997395467 -0.7208394201673429
vn -0.5805486404630459 0.15643446504023126 -0.7990566526874585
vn -0.5805486404630484 -0.156434465040228 -0.7990566526874574
vn -0.5237204946142967 -0.45399049973954936 -0.7208394201673426
vn -0.415626937777451 -0.7071067811865475 -0.5720614028176862
vn -0.2668489204278012 -0.8910065241883668 -0.36728602957406725
vn -0.09194987150091172 -0.9876883405951378 -0.12655814072349933
vn -0.1265581407234984 0.9876883405951378 -0.09194987150091252
vn -0.36728602957406786 0.8910065241883687 -0.2668489204277938
vn -0.5720614028176854 0.7071067811865467 -0.41562693777745335
vn -0.720839420167343 0.4539904997395458 -0.5237204946142993
vn -0.799056652687457 0.15643446504023206 -0.5805486404630478
vn -0.7990566526874586 -0.15643446504023126 -0.5805486404630461
vn -0.7208394201673429 -0.45399049973954647 -0.523720494614299
vn -0.5720614028176858 -0.7071067811865467 -0.4156269377774528
vn -0.36728602957406226 -0.891006524188369 -0.2668489204278003
vn -0.12655814072349889 -0.9876883405951378 -0.09194987150091236
vn -0.14877801734965865 0.987688340595138 -0.04834090820338199
vn -0.4317706231133903 0.8910065241883671 -0.1402907797042964
vn -0.6724985119639583 0.7071067811865469 -0.21850801222440996
vn -0.8473975608908422 0.4539904997395461 -0.275336158073161
vn -0.9393474323917523 0.15643446504023398 -0.3052124823898885
vn -0.9393474323917514 -0.15643446504023412 -0.30521248238989157
vn -0.8473975608908435 -0.4539904997395459 -0.2753361580731576
vn -0.6724985119639575 -0.7071067811865469 -0.21850801222441196
vn -0.4317706231133946 -0.8910065241883663 -0.1402907797042876
vn -0.14877801734965895 -0.9876883405951378 -0.048340908203382084
vn -0.1564344650402311 0.9876883405951379 0
vn -0.45399049973954547 0.8910065241883686 0
vn -0.7071067811865493 0.7071067811865459 0
vn -0.8910065241883667 0.45399049973954925 0
vn -0.9876883405951379 0.15643446504023067 0
vn -0.9876883405951379 -0.1564344650402307 0
vn -0.8910065241883667 -0.45399049973954914 0
vn -0.7071067811865493 -0.7071067811865458 0
vn -0.45399049973954547 -0.8910065241883686 0
vn -0.15643446504023145 -0.9876883405951378 0
vn -0.14877801734965865 0.987688340595138 0.04834090820338199
vn -0.4317706231133877 0.8910065241883686 0.1402907797042959
vn -0.6724985119639606 0.7071067811865461 0.2185080122244055
vn -0.847397560890841 0.4539904997395489 0.27533615807316064
vn -0.9393474323917531 0.15643446504023054 0.30521248238988835
vn -0.939347432391752 -0.1564344650402305 0.30521248238989174
vn -0.8473975608908437 -0.45399049973954964 0.2753361580731509
vn -0.6724985119639587 -0.7071067811865455 0.21850801222441293
vn -0.4317706231133896 -0.8910065241883691 0.14029077970428602
vn -0.14877801734965895 -0.9876883405951378 0.048340908203382084
vn -0.1265581407234984 0.9876883405951378 0.09194987150091252
vn -0.36728602957407064 0.8910065241883671 0.26684892042779507
vn -0.5720614028176804 0.7071067811865496 0.41562693777745563
vn -0.7208394201673446 0.45399049973954164 0.5237204946143006
vn -0.7990566526874573 0.15643446504023345 0.580548640463047
vn -0.7990566526874604 -0.15643446504023364 0.5805486404630428
vn -0.7208394201673416 -0.4539904997395414 0.5237204946143051
vn -0.5720614028176838 -0.70710678118655 0.4156269377774499
vn -0.3672860295740656 -0.8910065241883667 0.26684892042780417
vn -0.1265581407234987 -0.9876883405951378 0.09194987150091272
vn -0.09194987150091202 0.9876883405951378 0.1265581407234988
vn -0.2668489204277944 0.8910065241883686 0.36728602957406753
vn -0.4156269377774542 0.7071067811865465 0.5720614028176852
vn -0.5237204946143023 0.4539904997395461 0.7208394201673408
vn -0.5805486404630483 0.15643446504023292 0.7990566526874564
vn -0.5805486404630474 -0.15643446504022968 0.7990566526874578
vn -0.523720494614299 -0.45399049973954847 0.7208394201673416
vn -0.41562693777745374 -0.7071067811865464 0.5720614028176855
vn -0.26684892042779995 -0.891006524188369 0.3672860295740625
vn -0.09194987150091223 -0.9876883405951379 0.12655814072349908
vn -0.04834090820338411 0.9876883405951379 0.1487780173496579
vn -0.14029077970429643 0.8910065241883676 0.4317706231133894
vn -0.2185080122244119 0.7071067811865468 0.6724985119639577
vn -0.2753361580731575 0.4539904997395484 0.8473975608908421
vn -0.30521248238988746 0.1564344650402313 0.9393474323917532
vn -0.3052124823898883 -0.15643446504023142 0.939347432391753
vn -0.2753361580731595 -0.4539904997395485 0.8473975608908414
vn -0.21850801222441257 -0.707106781186547 0.6724985119639574
vn -0.14029077970429343 -0.8910065241883673 0.4317706231133908
vn -0.04834090820338421 -0.9876883405951378 0.1487780173496582
vn 0 0.9876883405951378 0.15643446504023065
vn 0 0.891006524188368 0.4539904997395467
vn 0 0.7071067811865472 0.707106781186548
vn 0 0.4539904997395469 0.8910065241883678
vn 0 0.15643446504023065 0.9876883405951378
vn 0 -0.1564344650402307 0.9876883405951379
vn 0 -0.4539904997395469 0.8910065241883679
vn 0 -0.7071067811865471 0.7071067811865479
vn 0 -0.8910065241883679 0.4539904997395467
vn 0 -0.9876883405951379 0.156434465040231
usemtl m_a9191896-950e-5fdc-ba75-86d1b709a9fc
f 1/1/1 2/2/1 3/3/1
f 1/4/2 4/5/2 5/6/2 2/7/2
f 4/8/3 6/9/3 7/10/3 5/11/3
f 6/12/4 8/13/4 9/14/4 7/15/4
f 8/16/5 10/17/5 11/18/5 9/19/5
f 10/20/6 12/21/6 13/22/6 11/23/6
f 12/24/7 14/25/7 15/26/7 13/27/7
f 14/28/8 16/29/8 17/30/8 15/31/8
f 16/32/9 18/33/9 19/34/9 17/35/9
f 19/36/10 18/37/10 20/38/10
f 2/39/11 21/40/11 3/41/11
f 2/42/12 5/43/12 22/44/12 21/45/12
f 5/46/13 7/47/13 23/48/13 22/49/13
f 7/50/14 9/51/14 24/52/14 23/53/14
f 9/54/15 11/55/15 25/56/15 24/57/15
f 11/58/16 13/59/16 26/60/16 25/61/16
f 13/62/17 15/63/17 27/64/17 26/65/17
f 15/66/18 17/67/18 28/68/18 27/69/18
f 17/70/19 19/71/19 29/72/19 28/73/19
f 29/74/20 19/75/20 20/76/20
f 21/77/21 30/78/21 3/79/21
f 21/80/22 22/81/22 31/82/22 30/83/22
f 22/84/23 23/85/23 32/86/23 31/87/23
f 23/88/24 24/89/24 33/90/24 32/91/24
f 24/92/25 25/93/25 34/94/25 33/95/25
f 25/96/26 26/97/26 35/98/26 34/99/26
f 26/100/27 27/101/27 36/102/27 35/103/27
f 27/104/28 28/105/28 37/106/28 36/107/28
f 28/108/29 29/109/29 38/110/29 37/111/29
f 38/112/30 29/113/30 20/114/30
f 30/115/31 39/116/31 3/117/31
f 30/118/32 31/119/32 40/120/32 39/121/32
f 31/122/33 32/123/33 41/124/33 40/125/33
f 32/126/34 33/127/34 42/128/34 41/129/34
f 33/130/35 34/131/35 43/132/35 42/133/35
f 34/134/36 35/135/36 44/136/36 43/137/36
f 35/138/37 36/139/37 45/140/37 44/141/37
f 36/142/38 37/143/38 46/144/38 45/145/38
f 37/146/39 38/147/39 47/148/39 46/149/39
f 47/150/40 38/151/40 20/152/40
f 39/153/41 48/154/41 3/155/41
f 39/156/42 40/157/42 49/158/42 48/159/42
f 40/160/43 41/161/43 50/162/43 49/163/43
f 41/164/44 42/165/44 51/166/44 50/167/44
f 42/168/45 43/169/45 52/170/45 51/171/45
f 43/172/46 44/173/46 53/174/46 52/175/46
f 44/176/47 45/177/47 54/178/47 53/179/47
f 45/180/48 46/181/48 55/182/48 54/183/48
f 46/184/49 47/185/49 56/186/49 55/187/49
f 56/188/50 47/189/50 20/190/50
f 48/191/51 57/192/51 3/193/51
f 48/194/52 49/195/52 58/196/52 57/197/52
f 49/198/53 50/199/53 59/200/53 58/201/53
f 50/202/54 51/203/54 60/204/54 59/205/54
f 51/206/55 52/207/55 61/208/55 60/209/55
f 52/210/56 53/211/56 62/212/56 61/213/56
f 53/214/57 54/215/57 63/216/57 62/217/57
f 54/218/58 55/219/58 64/220/58 63/221/58
f 55/222/59 56/223/59 65/224/59 64/225/59
f 65/226/60 56/227/60 20/228/60
f 57/229/61 66/230/61 3/231/61
f 57/232/62 58/233/62 67/234/62 66/235/62
f 58/236/63 59/237/63 68/238/63 67/239/63
f 59/240/64 60/241/64 69/242/64 68/243/64
f 60/244/65 61/245/65 70/246/65 69/247/65
f 61/248/66 62/249/66 71/250/66 70/251/66
f 62/252/67 63/253/67 72/254/67 71/255/67
f 63/256/68 64/257/68 73/258/68 72/259/68
f 64/260/69 65/261/69 74/262/69 73/263/69
f 74/264/70 65/265/70 20/266/70
f 66/267/71 75/268/71 3/269/71
f 66/270/72 67/271/72 76/272/72 75/273/72
f 67/274/73 68/275/73 77/276/73 76/277/73
f 68/278/74 69/279/74 78/280/74 77/281/74
f 69/282/75 70/283/75 79/284/75 78/285/75
f 70/286/76 71/287/76 80/288/76 79/289/76
f 71/290/77 72/291/77 81/292/77 80/293/77
f 72/294/78 73/295/78 82/296/78 81/297/78
f 73/298/79 74/299/79 83/300/79 82/301/79
f 83/302/80 74/303/80 20/304/80
f 75/305/81 84/306/81 3/307/81
f 75/308/82 76/309/82 85/310/82 84/311/82
f 76/312/83 77/313/83 86/314/83 85/315/83
f 77/316/84 78/317/84 87/318/84 86/319/84
f 78/320/85 79/321/85 88/322/85 87/323/85
f 79/324/86 80/325/86 89/326/86 88/327/86
f 80/328/87 81/329/87 90/330/87 89/331/87
f 81/332/88 82/333/88 91/334/88 90/335/88
f 82/336/89 83/337/89 92/338/89 91/339/89
f 92/340/90 83/341/90 20/342/90
f 84/343/91 93/344/91 3/345/91
f 84/346/92 85/347/92 94/348/92 93/349/92
f 85/350/93 86/351/93 95/352/93 94/353/93
f 86/354/94 87/355/94 96/356/94 95/357/94
f 87/358/95 88/359/95 97/360/95 96/361/95
f 88/362/96 89/363/96 98/364/96 97/365/96
f 89/366/97 90/367/97 99/368/97 98/369/97
f 90/370/98 91/371/98 100/372/98 99/373/98
f 91/374/99 92/375/99 101/376/99 100/377/99
f 101/378/100 92/379/100 20/380/100
f 93/381/101 102/382/101 3/383/101
f 93/384/102 94/385/102 103/386/102 102/387/102
f 94/388/103 95/389/103 104/390/103 103/391/103
f 95/392/104 96/393/104 105/394/104 104/395/104
f 96/396/105 97/397/105 106/398/105 105/399/105
f 97/400/106 98/401/106 107/402/106 106/403/106
f 98/404/107 99/405/107 108/406/107 107/407/107
f 99/408/108 100/409/108 109/410/108 108/411/108
f 100/412/109 101/413/109 110/414/109 109/415/109
f 110/416/110 101/417/110 20/418/110
f 102/419/111 111/420/111 3/421/111
f 102/422/112 103/423/112 112/424/112 111/425/112
f 103/426/113 104/427/113 113/428/113 112/429/113
f 104/430/114 105/431/114 114/432/114 113/433/114
f 105/434/115 106/435/115 115/436/115 114/437/115
f 106/438/116 107/439/116 116/440/116 115/441/116
f 107/442/117 108/443/117 117/444/117 116/445/117
f 108/446/118 109/447/118 118/448/118 117/449/118
f 109/450/119 110/451/119 119/452/119 118/453/119
f 119/454/120 110/455/120 20/456/120
f 111/457/121 120/458/121 3/459/121
f 111/460/122 112/461/122 121/462/122 120/463/122
f 112/464/123 113/465/123 122/466/123 121/467/123
f 113/468/124 114/469/124 123/470/124 122/471/124
f 114/472/125 115/473/125 124/474/125 123/475/125
f 115/476/126 116/477/126 125/478/126 124/479/126
f 116/480/127 117/481/127 126/482/127 125/483/127
f 117/484/128 118/485/128 127/486/128 126/487/128
f 118/488/129 119/489/129 128/490/129 127/491/129
f 128/492/130 119/493/130 20/494/130
f 120/495/131 129/496/131 3/497/131
f 120/498/132 121/499/132 130/500/132 129/501/132
f 121/502/133 122/503/133 131/504/133 130/505/133
f 122/506/134 123/507/134 132/508/134 131/509/134
f 123/510/135 124/511/135 133/512/135 132/513/135
f 124/514/136 125/515/136 134/516/136 133/517/136
f 125/518/137 126/519/137 135/520/137 134/521/137
f 126/522/138 127/523/138 136/524/138 135/525/138
f 127/526/139 128/527/139 137/528/139 136/529/139
f 137/530/140 128/531/140 20/532/140
f 129/533/141 138/534/141 3/535/141
f 129/536/142 130/537/142 139/538/142 138/539/142
f 130/540/143 131/541/143 140/542/143 139/543/143
f 131/544/144 132/545/144 141/546/144 140/547/144
f 132/548/145 133/549/145 142/550/145 141/551/145
f 133/552/146 134/553/146 143/554/146 142/555/146
f 134/556/147 135/557/147 144/558/147 143/559/147
f 135/560/148 136/561/148 145/562/148 144/563/148
f 136/564/149 137/565/149 146/566/149 145/567/149
f 146/568/150 137/569/150 20/570/150
f 138/571/151 147/572/151 3/573/151
f 138/574/152 139/575/152 148/576/152 147/577/152
f 139/578/153 140/579/153 149/580/153 148/581/153
f 140/582/154 141/583/154 150/584/154 149/585/154
f 141/586/155 142/587/155 151/588/155 150/589/155
f 142/590/156 143/591/156 152/592/156 151/593/156
f 143/594/157 144/595/157 153/596/157 152/597/157
f 144/598/158 145/599/158 154/600/158 153/601/158
f 145/602/159 146/603/159 155/604/159 154/605/159
f 155/606/160 146/607/160 20/608/160
f 147/609/161 156/610/161 3/611/161
f 147/612/162 148/613/162 157/614/162 156/615/162
f 148/616/163 149/617/163 158/618/163 157/619/163
f 149/620/164 150/621/164 159/622/164 158/623/164
f 150/624/165 151/625/165 160/626/165 159/627/165
f 151/628/166 152/629/166 161/630/166 160/631/166
f 152/632/167 153/633/167 162/634/167 161/635/167
f 153/636/168 154/637/168 163/638/168 162/639/168
f 154/640/169 155/641/169 164/642/169 163/643/169
f 164/644/170 155/645/170 20/646/170
f 156/647/171 165/648/171 3/649/171
f 156/650/172 157/651/172 166/652/172 165/653/172
f 157/654/173 158/655/173 167/656/173 166/657/173
f 158/658/174 159/659/174 168/660/174 167/661/174
f 159/662/175 160/663/175 169/664/175 168/665/175
f 160/666/176 161/667/176 170/668/176 169/669/176
f 161/670/177 162/671/177 171/672/177 170/673/177
f 162/674/178 163/675/178 172/676/178 171/677/178
f 163/678/179 164/679/179 173/680/179 172/681/179
f 173/682/180 164/683/180 20/684/180
f 165/685/181 174/686/181 3/687/181
f 165/688/182 166/689/182 175/690/182 174/691/182
f 166/692/183 167/693/183 176/694/183 175/695/183
f 167/696/184 168/697/184 177/698/184 176/699/184
f 168/700/185 169/701/185 178/702/185 177/703/185
f 169/704/186 170/705/186 179/706/186 178/707/186
f 170/708/187 171/709/187 180/710/187 179/711/187
f 171/712/188 172/713/188 181/714/188 180/715/188
f 172/716/189 173/717/189 182/718/189 181/719/189
f 182/720/190 173/721/190 20/722/190
f 174/723/191 1/724/191 3/725/191
f 174/726/192 175/727/192 4/728/192 1/729/192
f 175/730/193 176/731/193 6/732/193 4/733/193
f 176/734/194 177/735/194 8/736/194 6/737/194
f 177/738/195 178/739/195 10/740/195 8/741/195
f 178/742/196 179/743/196 12/744/196 10/745/196
f 179/746/197 180/747/197 14/748/197 12/749/197
f 180/750/198 181/751/198 16/752/198 14/753/198
f 181/754/199 182/755/199 18/756/199 16/757/199
f 18/758/200 182/759/200 20/760/200