# Made in Blockbench 5.1.6
mtllib dc_metro_mezzanine_4c.mtl

o cube
v 0.5 1 0
v 0.5 1 -0.5
v 0.5 0 0
v 0.5 0 -0.5
v -0.5 1 -0.5
v -0.5 1 0
v -0.5 0 -0.5
v -0.5 0 0
vt 0 1
vt 1 1
vt 1 0
vt 0 0
vt 0.5 1
vt 1 1
vt 1 0
vt 0.5 0
vt 0 1
vt 0.5 1
vt 0.5 0
vt 0 0
vt 1 0.5
vt 0 0.5
vt 0 1
vt 1 1
vt 0 0.5
vt 1 0.5
vt 1 0
vt 0 0
vn 0 0 -1
vn 1 0 0
vn -1 0 0
vn 0 1 0
vn 0 -1 0
usemtl m_349c9511-0513-57b7-1145-68a5a92d8cd1
f 4/4/1 7/3/1 5/2/1 2/1/1
f 3/8/2 4/7/2 2/6/2 1/5/2
f 7/12/3 8/11/3 6/10/3 5/9/3
usemtl m_7348e0d8-c6ae-599c-be56-6538e30fe40e
f 6/16/4 1/15/4 2/14/4 5/13/4
usemtl m_400c3830-a59d-7a16-7011-84d64c2e2917
f 7/20/5 4/19/5 3/18/5 8/17/5
o cube
v 0.5 1 0.5
v 0.5 1 0
v 0.5 0.5 0.5
v 0.5 0.5 0
v -0.5 1 0
v -0.5 1 0.5
v -0.5 0.5 0
v -0.5 0.5 0.5
vt 0 1
vt 0.5 1
vt 0.5 0.5
vt 0 0.5
vt 0 1
vt 1 1
vt 1 0.5
vt 0 0.5
vt 0.0625 1
vt 0.5625 1
vt 0.5625 0.5
vt 0.0625 0.5
vt 1 0.5
vt 0 0.5
vt 0 1
vt 1 1
vn 1 0 0
vn 0 0 1
vn -1 0 0
vn 0 1 0
usemtl m_349c9511-0513-57b7-1145-68a5a92d8cd1
f 11/24/6 12/23/6 10/22/6 9/21/6
f 16/28/7 11/27/7 9/26/7 14/25/7
f 15/32/8 16/31/8 14/30/8 13/29/8
usemtl m_7348e0d8-c6ae-599c-be56-6538e30fe40e
f 14/36/9 9/35/9 10/34/9 13/33/9
o cube
v 0 0.5 0.5
v 0 0.5 0
v 0 0.15625 0.34375
v 0 0 0
v -0.5 0.5 0.5
v -0.5 0.5 0
v -0.5 0.15625 0.34375
v -0.5 0 0
v -0.5 0.3125 0.4375
v -0.5 0.3125 0
v 0 0.3125 0
v 0 0.3125 0.4375
v -0.5 0.0625 0.1875
v 0 0.0625 0.1875
v 0 0.3125 0.1875
v 0 0.5 0.1875
v -0.5 0.5 0.1875
v -0.5 0.3125 0.1875
vt 0.5 1
vt 0.25 1
vt 0.25 0.75
vt 0.5 0.75
vt 0.0625 0.75
vt 0.3125 0.75
vt 0.3125 1
vt 0.0625 1
vt 0 0.5
vt 0 0.25
vt 1 0.25
vt 1 0.5
vt 1 0.5
vt 1 0.75
vt 0 0.75
vt 0 0.5
vt 0 1
vt 0 0.75
vt 1 0.75
vt 1 1
vt 0 1
vt 0 0.75
vt 1 0.75
vt 1 1
vt 0.0625 0.5
vt 0.3125 0.5
vt 0.3125 0.75
vt 0.0625 0.75
vt 1 0.5
vt 1 0.75
vt 0 0.75
vt 0 0.5
vt 0.5 0.75
vt 0.25 0.75
vt 0.25 0.5
vt 0.5 0.5
vt 1 0.5
vt 1 0.75
vt 0 0.75
vt 0 0.5
vt 0 1
vt 0 0.75
vt 1 0.75
vt 1 1
vt 0 0.5
vt 0.25 0.5
vt 0.25 0.75
vt 0 0.75
vt 0 0.75
vt 0.25 0.75
vt 0.25 1
vt 0 1
vt 1 0
vt 1 0.25
vt 0 0.25
vt 0 0
vt 0.5625 1
vt 0.3125 1
vt 0.3125 0.75
vt 0.5625 0.75
vt 0.5625 0.75
vt 0.3125 0.75
vt 0.3125 0.5
vt 0.5625 0.5
vn 1 0 0
vn -1 0 0
vn 0 1 0
vn 0 -0.948683298050514 0.316227766016838
vn 0 -0.316227766016838 0.948683298050514
vn 0 0 -1
vn -1 0 0
vn 0 0 -1
vn 1 0 0
vn 0 -0.5144957554275266 0.8574929257125443
vn 0 -0.8574929257125443 0.5144957554275266
vn 1 0 0
vn 1 0 0
vn 0 1 0
vn -1 0 0
vn -1 0 0
usemtl m_349c9511-0513-57b7-1145-68a5a92d8cd1
f 18/37/10 32/38/10 31/39/10 27/40/10
f 26/41/11 34/42/11 33/43/11 22/44/11
f 22/45/12 33/46/12 32/47/12 18/48/12
f 20/49/13 30/50/13 29/51/13 24/52/13
f 21/53/14 25/54/14 28/55/14 17/56/14
f 18/57/15 27/58/15 26/59/15 22/60/15
f 24/61/16 29/62/16 34/63/16 26/64/16
f 24/65/17 26/66/17 27/67/17 20/68/17
f 27/69/18 31/70/18 30/71/18 20/72/18
f 19/73/19 28/74/19 25/75/19 23/76/19
f 23/77/20 29/78/20 30/79/20 19/80/20
f 19/81/21 30/82/21 31/83/21 28/84/21
f 28/85/22 31/86/22 32/87/22 17/88/22
f 17/89/23 32/90/23 33/91/23 21/92/23
f 21/93/24 33/94/24 34/95/24 25/96/24
f 25/97/25 34/98/25 29/99/25 23/100/25
o cube
v -0.49999999999999994 0.5 0.5
v 5.551115123125783e-17 0.5 0.49999999999999994
v -0.34374999999999994 0.15625 0.5
v 5.551115123125783e-17 0 0.49999999999999994
v -0.5 0.5 5.551115123125783e-17
v -5.551115123125783e-17 0.5 -5.551115123125783e-17
v -0.34375000000000006 0.15625 2.7755575615628914e-17
v -5.551115123125783e-17 0 -5.551115123125783e-17
v -0.43750000000000006 0.3125 5.551115123125783e-17
v -5.551115123125783e-17 0.3125 -5.551115123125783e-17
v 5.551115123125783e-17 0.3125 0.49999999999999994
v -0.43749999999999994 0.3125 0.5
v -0.18750000000000006 0.0625 0
v -0.18749999999999994 0.0625 0.5
v -0.18749999999999994 0.3125 0.5
v -0.18749999999999994 0.5 0.5
v -0.18750000000000006 0.5 0
v -0.18750000000000006 0.3125 0
vt 0.5 1
vt 0.25 1
vt 0.25 0.75
vt 0.5 0.75
vt 0.0625 0.75
vt 0.3125 0.75
vt 0.3125 1
vt 0.0625 1
vt 0 0.5
vt 0 0.25
vt 1 0.25
vt 1 0.5
vt 1 0.5
vt 1 0.75
vt 0 0.75
vt 0 0.5
vt 0 1
vt 0 0.75
vt 1 0.75
vt 1 1
vt 0 1
vt 0 0.75
vt 1 0.75
vt 1 1
vt 0.0625 0.5
vt 0.3125 0.5
vt 0.3125 0.75
vt 0.0625 0.75
vt 1 0.5
vt 1 0.75
vt 0 0.75
vt 0 0.5
vt 0.5 0.75
vt 0.25 0.75
vt 0.25 0.5
vt 0.5 0.5
vt 1 0.5
vt 1 0.75
vt 0 0.75
vt 0 0.5
vt 0 1
vt 0 0.75
vt 1 0.75
vt 1 1
vt 0 0.5
vt 0.25 0.5
vt 0.25 0.75
vt 0 0.75
vt 0 0.75
vt 0.25 0.75
vt 0.25 1
vt 0 1
vt 1 0
vt 1 0.25
vt 0 0.25
vt 0 0
vt 0.5625 1
vt 0.3125 1
vt 0.3125 0.75
vt 0.5625 0.75
vt 0.5625 0.75
vt 0.3125 0.75
vt 0.3125 0.5
vt 0.5625 0.5
vn 2.220446049250313e-16 0 1
vn -2.220446049250313e-16 0 -1
vn 0 1 0
vn -0.316227766016838 -0.948683298050514 7.021666937153403e-17
vn -0.948683298050514 -0.316227766016838 2.106500081146021e-16
vn 1 0 -2.220446049250313e-16
vn -2.220446049250313e-16 0 -1
vn 1 0 -2.220446049250313e-16
vn 2.220446049250313e-16 0 1
vn -0.8574929257125443 -0.5144957554275266 1.9040167791585112e-16
vn -0.5144957554275266 -0.8574929257125443 1.1424100674951067e-16
vn 2.220446049250313e-16 0 1
vn 2.220446049250313e-16 0 1
vn 0 1 0
vn -2.220446049250313e-16 0 -1
vn -2.220446049250313e-16 0 -1
usemtl m_349c9511-0513-57b7-1145-68a5a92d8cd1
f 36/101/26 50/102/26 49/103/26 45/104/26
f 44/105/27 52/106/27 51/107/27 40/108/27
f 40/109/28 51/110/28 50/111/28 36/112/28
f 38/113/29 48/114/29 47/115/29 42/116/29
f 39/117/30 43/118/30 46/119/30 35/120/30
f 36/121/31 45/122/31 44/123/31 40/124/31
f 42/125/32 47/126/32 52/127/32 44/128/32
f 42/129/33 44/130/33 45/131/33 38/132/33
f 45/133/34 49/134/34 48/135/34 38/136/34
f 37/137/35 46/138/35 43/139/35 41/140/35
f 41/141/36 47/142/36 48/143/36 37/144/36
f 37/145/37 48/146/37 49/147/37 46/148/37
f 46/149/38 49/150/38 50/151/38 35/152/38
f 35/153/39 50/154/39 51/155/39 39/156/39
f 39/157/40 51/158/40 52/159/40 43/160/40
f 43/161/41 52/162/41 47/163/41 41/164/41
o cube
v 0.5 0.5 0.5
v 0.5 0.5 0
v 0.5 0 0.5
v 0.5 0 0
v 0 0.5 0
v 0 0.5 0.5
v 0 0 0
v 0 0 0.5
vt 0.0625 1
vt 0.5625 1
vt 0.5625 0.5
vt 0.0625 0.5
vt 0.125 1
vt 0.625 1
vt 0.625 0.5
vt 0.125 0.5
vt 0 1
vt 0.5 1
vt 0.5 0.5
vt 0 0.5
vt 0 1
vt 0.5 1
vt 0.5 0.5
vt 0 0.5
vt 0 1
vt 0.5 1
vt 0.5 0.5
vt 0 0.5
vt 0.5 1
vt 1 1
vt 1 0.5
vt 0.5 0.5
vn 0 0 -1
vn 1 0 0
vn 0 0 1
vn -1 0 0
vn 0 1 0
vn 0 -1 0
usemtl m_349c9511-0513-57b7-1145-68a5a92d8cd1
f 56/168/42 59/167/42 57/166/42 54/165/42
f 55/172/43 56/171/43 54/170/43 53/169/43
f 60/176/44 55/175/44 53/174/44 58/173/44
f 59/180/45 60/179/45 58/178/45 57/177/45
f 58/184/46 53/183/46 54/182/46 57/181/46
usemtl m_400c3830-a59d-7a16-7011-84d64c2e2917
f 59/188/47 56/187/47 55/186/47 60/185/47