# Made in Blockbench 5.1.6
mtllib dc_metro_roof_i3l.mtl

o part3l
v 0.3125 -0.5 -1
v 0.5 0 -1
v 0.5 0 1
v 0.3125 -0.5 1
v -0.5 -0.125 -1
v -0.5 -0.125 1
vt 0.125 0.984375
vt 0.125 1
vt 0 1
vt 0 0.984375
vt 0.125 0.875
vt 0.125 1
vt 0 1
vt 0 0.875
vt 0.125 0.875
vt 0.125 1
vt 0 1
vt 0 0.875
vt 0.09496409366986273 0.9408896967973304
vt 0.12597277731716483 1
vt 0 1
vt 0.11155484342131197 0.9414794264019347
vt 0 1
vt 3.469446951953614e-17 0.9332499707397068
vn 0.9363291775690445 -0.3511234415883917 0
vn -0.12403473458920847 0.9922778767136677 0
vn -0.4190581774617469 -0.9079593845004517 0
vn 0 0 1
vn 0 0 -1
usemtl m_6aa95efc-1b35-b506-f1ea-3d34dab348dc
f 1/1/1 2/2/1 3/3/1 4/4/1
f 3/5/2 2/6/2 5/7/2 6/8/2
f 1/9/3 4/10/3 6/11/3 5/12/3
f 4/13/4 3/14/4 6/15/4
f 5/16/5 2/17/5 1/18/5
o part3l
v 0.5 0 -0.5
v 0.234375 0.265625 -0.5
v 0.234375 0.265625 0.5
v 0.5 0 0.5
v -0.5 -0.125 0.5
v -0.5 0.125 0.5
v -0.5 0.125 -0.5
v -0.5 -0.125 -0.5
vt 0.125 0.984375
vt 0.125 1
vt 0 1
vt 0 0.984375
vt 0.125 0.984375
vt 0.125 1
vt 0 1
vt 0 0.984375
vt 0.015625 0.875
vt 0.015625 1
vt 0 1
vt 0 0.875
vt 1.96875 -0.96875
vt 1.96875 1
vt 0 1
vt 0 -0.96875
vt 0.015625 0.984375
vt 0.015625 1
vt 0 1
vt 0 0.984375
vt 0.015625 0.984375
vt 0.015625 1
vt 0 1
vt 0 0.984375
vn 0.7071067811865476 0.7071067811865476 0
vn -1 0 0
vn -0.1880722707878578 0.9821551918921463 0
vn 0.12403473458920847 -0.9922778767136677 0
vn 0 0 1
vn 0 0 -1
usemtl m_6aa95efc-1b35-b506-f1ea-3d34dab348dc
f 7/19/6 8/20/6 9/21/6 10/22/6
f 11/23/7 12/24/7 13/25/7 14/26/7
f 9/27/8 8/28/8 13/29/8 12/30/8
f 7/31/9 10/32/9 11/33/9 14/34/9
f 10/35/10 9/36/10 12/37/10 11/38/10
f 14/39/11 13/40/11 8/41/11 7/42/11