# Made in Blockbench 5.1.6
mtllib dc_metro_fare_gate_3_entrance_open.mtl

o cube
v -0.34375 1.125 0.6875
v -0.34375 1.125 -0.6875
v -0.34375 0 0.6875
v -0.34375 0 -0.6875
v -0.65625 1.125 -0.6875
v -0.65625 1.125 0.6875
v -0.65625 0 -0.6875
v -0.65625 0 0.6875
vt 0.375 0.40625
vt 0.453125 0.40625
vt 0.453125 0.125
vt 0.375 0.125
vt 0 1
vt 0.34375 1
vt 0.34375 0.71875
vt 0 0.71875
vt 0.46875 0.40625
vt 0.546875 0.40625
vt 0.546875 0.125
vt 0.46875 0.125
vt 0 0.703125
vt 0.34375 0.703125
vt 0.34375 0.421875
vt 0 0.421875
vt 0.078125 0.0625
vt 0 0.0625
vt 0 0.40625
vt 0.078125 0.40625
vt 0.171875 0.40625
vt 0.09375 0.40625
vt 0.09375 0.0625
vt 0.171875 0.0625
vn 0 0 -1
vn 1 0 0
vn 0 0 1
vn -1 0 0
vn 0 1 0
vn 0 -1 0
usemtl m_1861be86-10fe-ce90-b164-abb7241583cd
f 4/4/1 7/3/1 5/2/1 2/1/1
f 3/8/2 4/7/2 2/6/2 1/5/2
f 8/12/3 3/11/3 1/10/3 6/9/3
f 7/16/4 8/15/4 6/14/4 5/13/4
f 6/20/5 1/19/5 2/18/5 5/17/5
f 7/24/6 4/23/6 3/22/6 8/21/6
o cube
v 0.65625 1.125 0.6875
v 0.65625 1.125 -0.6875
v 0.65625 0 0.6875
v 0.65625 0 -0.6875
v 0.34375 1.125 -0.6875
v 0.34375 1.125 0.6875
v 0.34375 0 -0.6875
v 0.34375 0 0.6875
vt 0.5625 0.40625
vt 0.640625 0.40625
vt 0.640625 0.125
vt 0.5625 0.125
vt 0.359375 1
vt 0.703125 1
vt 0.703125 0.71875
vt 0.359375 0.71875
vt 0.65625 0.40625
vt 0.734375 0.40625
vt 0.734375 0.125
vt 0.65625 0.125
vt 0.359375 0.703125
vt 0.703125 0.703125
vt 0.703125 0.421875
vt 0.359375 0.421875
vt 0.265625 0.0625
vt 0.1875 0.0625
vt 0.1875 0.40625
vt 0.265625 0.40625
vt 0.359375 0.40625
vt 0.28125 0.40625
vt 0.28125 0.0625
vt 0.359375 0.0625
vn 0 0 -1
vn 1 0 0
vn 0 0 1
vn -1 0 0
vn 0 1 0
vn 0 -1 0
usemtl m_1861be86-10fe-ce90-b164-abb7241583cd
f 12/28/7 15/27/7 13/26/7 10/25/7
f 11/32/8 12/31/8 10/30/8 9/29/8
f 16/36/9 11/35/9 9/34/9 14/33/9
f 15/40/10 16/39/10 14/38/10 13/37/10
f 14/44/11 9/43/11 10/42/11 13/41/11
f 15/48/12 12/47/12 11/46/12 16/45/12
o cube
v -0.6216935477204857 0.8946991488745346 -0.03125
v -0.6216935477204857 0.8946991488745346 0.03125
v -0.375 0.453125 -0.03125
v -0.375 0.453125 0.03125
v -0.6073980435683928 0.9484719397824453 -0.03125
v -0.6073980435683928 0.9484719397824453 0.03125
v -0.34039026739821887 1.0248001003109048 -0.03125
v -0.34039026739821887 1.0248001003109048 0.03125
v -0.4366052045598956 1.011474130050513 -0.03125
v -0.4366052045598956 1.011474130050513 0.03125
v -0.5351232835012909 0.9850914837688757 -0.03125
v -0.5351232835012909 0.9850914837688757 0.03125
v -0.5288500490371684 0.6728456408696086 0.03125
v -0.5288500490371684 0.6728456408696086 -0.03125
vt 0.75 0.203125
vt 0.75 0.13541718749999998
vt 0.765625 0.13541718749999998
vt 0.765625 0.203125
vt 0.83607578125 0.765625
vt 0.85633046875 0.765625
vt 0.85633046875 0.78125
vt 0.83607578125 0.78125
vt 0.81263828125 0.78125
vt 0.81263828125 0.765625
vt 0.83607578125 0.765625
vt 0.83607578125 0.78125
vt 0.71875 0.466796875
vt 0.734375 0.466796875
vt 0.734375 0.609375
vt 0.71875 0.609375
vt 0.784765625 1
vt 0.7647140625 0.9971359375
vt 0.808203125 0.9322921875
vt 0.808203125 1
vt 0.719140625 0.84375
vt 0.719140625 0.7760421875
vt 0.7626296875 0.8408859375
vt 0.742578125 0.84375
vt 0.90611171875 0.78125
vt 0.88182890625 0.78125
vt 0.88182890625 0.765625
vt 0.90611171875 0.765625
vt 0.88182890625 0.78125
vt 0.85633046875 0.78125
vt 0.85633046875 0.765625
vt 0.88182890625 0.765625
vt 0.808203125 0.82109375
vt 0.7865890625 0.8321609375
vt 0.719140625 0.708984375
vt 0.7865890625 0.8321609375
vt 0.7626296875 0.8408859375
vt 0.719140625 0.7760421875
vt 0.719140625 0.708984375
vt 0.765625 0.068359375
vt 0.765625 0.13541718749999998
vt 0.75 0.13541718749999998
vt 0.75 0.068359375
vt 0.808203125 0.865234375
vt 0.7407546875 0.9884109375
vt 0.719140625 0.97734375
vt 0.808203125 0.865234375
vt 0.808203125 0.9322921875
vt 0.7647140625 0.9971359375
vt 0.7407546875 0.9884109375
vn -0.9224786199675385 -0.38604817795553137 0
vn -0.45196805593678646 0.8920341228970572 0
vn -0.9664311186247756 0.25692585108093896 0
vn 0.9981724212197114 -0.060430269868494466 0
vn 0 0 -1
vn 0 0 1
vn -0.13719247464663967 0.9905444083433772 0
vn -0.25868005118808507 0.9659630588782004 0
vn 0 0 1
vn 0 0 1
vn -0.8191520442889918 -0.573576436351046 0
vn 0 0 -1
vn 0 0 -1
usemtl m_1861be86-10fe-ce90-b164-abb7241583cd
f 17/49/13 30/50/13 29/51/13 18/52/13
f 22/53/14 28/54/14 27/55/14 21/56/14
f 17/57/15 18/58/15 22/59/15 21/60/15
f 20/61/16 19/62/16 23/63/16 24/64/16
f 21/65/17 27/66/17 30/67/17 17/68/17
f 18/69/18 29/70/18 28/71/18 22/72/18
f 23/73/19 25/74/19 26/75/19 24/76/19
f 25/77/20 27/78/20 28/79/20 26/80/20
f 24/81/21 26/82/21 20/83/21
f 26/84/22 28/85/22 29/86/22 20/87/22
f 20/88/23 29/89/23 30/90/23 19/91/23
f 19/92/24 25/93/24 23/94/24
f 19/95/25 30/96/25 27/97/25 25/98/25
o cube
v 0.6216935477204857 0.8946991488745346 0.03125
v 0.6216935477204857 0.8946991488745346 -0.03125
v 0.375 0.453125 0.03125
v 0.375 0.453125 -0.03125
v 0.6073980435683928 0.9484719397824453 0.03125
v 0.6073980435683928 0.9484719397824453 -0.03125
v 0.34039026739821887 1.0248001003109048 0.03125
v 0.34039026739821887 1.0248001003109048 -0.03125
v 0.4366052045598956 1.011474130050513 0.03125
v 0.4366052045598956 1.011474130050513 -0.03125
v 0.5351232835012909 0.9850914837688757 0.03125
v 0.5351232835012909 0.9850914837688757 -0.03125
v 0.5288500490371684 0.6728456408696086 -0.03125
v 0.5288500490371684 0.6728456408696086 0.03125
vt 0.78125 0.203125
vt 0.78125 0.13541718749999998
vt 0.796875 0.13541718749999998
vt 0.796875 0.203125
vt 0.88267421875 0.4375
vt 0.86241953125 0.4375
vt 0.86241953125 0.421875
vt 0.88267421875 0.421875
vt 0.90611171875 0.421875
vt 0.90611171875 0.4375
vt 0.88267421875 0.4375
vt 0.88267421875 0.421875
vt 0.75 0.232421875
vt 0.765625 0.232421875
vt 0.765625 0.375
vt 0.75 0.375
vt 0.784765625 0.6875
vt 0.7647140625 0.6846359375
vt 0.808203125 0.6197921875
vt 0.808203125 0.6875
vt 0.750390625 0.53125
vt 0.750390625 0.4635421875
vt 0.7938796875 0.5283859375
vt 0.773828125 0.53125
vt 0.81263828125 0.421875
vt 0.83692109375 0.421875
vt 0.83692109375 0.4375
vt 0.81263828125 0.4375
vt 0.83692109375 0.421875
vt 0.86241953125 0.421875
vt 0.86241953125 0.4375
vt 0.83692109375 0.4375
vt 0.839453125 0.50859375
vt 0.8178390625 0.5196609375
vt 0.750390625 0.396484375
vt 0.8178390625 0.5196609375
vt 0.7938796875 0.5283859375
vt 0.750390625 0.4635421875
vt 0.750390625 0.396484375
vt 0.796875 0.068359375
vt 0.796875 0.13541718749999998
vt 0.78125 0.13541718749999998
vt 0.78125 0.068359375
vt 0.808203125 0.552734375
vt 0.7407546875 0.6759109375
vt 0.719140625 0.66484375
vt 0.808203125 0.552734375
vt 0.808203125 0.6197921875
vt 0.7647140625 0.6846359375
vt 0.7407546875 0.6759109375
vn 0.9224786199675385 -0.38604817795553137 0
vn 0.45196805593678646 0.8920341228970572 0
vn 0.9664311186247756 0.25692585108093896 0
vn -0.9981724212197114 -0.060430269868494466 0
vn 0 0 1
vn 0 0 -1
vn 0.13719247464663967 0.9905444083433772 0
vn 0.25868005118808507 0.9659630588782004 0
vn 0 0 -1
vn 0 0 -1
vn 0.8191520442889918 -0.573576436351046 0
vn 0 0 1
vn 0 0 1
usemtl m_1861be86-10fe-ce90-b164-abb7241583cd
f 31/99/26 44/100/26 43/101/26 32/102/26
f 36/103/27 42/104/27 41/105/27 35/106/27
f 31/107/28 32/108/28 36/109/28 35/110/28
f 34/111/29 33/112/29 37/113/29 38/114/29
f 35/115/30 41/116/30 44/117/30 31/118/30
f 32/119/31 43/120/31 42/121/31 36/122/31
f 37/123/32 39/124/32 40/125/32 38/126/32
f 39/127/33 41/128/33 42/129/33 40/130/33
f 38/131/34 40/132/34 34/133/34
f 40/134/35 42/135/35 43/136/35 34/137/35
f 34/138/36 43/139/36 44/140/36 33/141/36
f 33/142/37 39/143/37 37/144/37
f 33/145/38 44/146/38 41/147/38 39/148/38