# Made in Blockbench 5.1.6
mtllib dc_metro_roof_o3l.mtl

o part3l
v 0.5 -0.0625 -0.5
v 0.5 1.5625 -0.5
v 0.5 1.5625 0.5
v 0.5 -0.0625 0.5
v -0.5 0 0.5
v -0.5 1.5625 0.5
v -0.5 1.5625 -0.5
v -0.5 0 -0.5
vt 0.125 0.984375
vt 0.125 1
vt 0 1
vt 0 0.984375
vt 0.125 0.984375
vt 0.125 1
vt 0 1
vt 0 0.984375
vt 0.125 0.875
vt 0.125 1
vt 0 1
vt 0 0.875
vt 0.125 0.875
vt 0.125 1
vt 0 1
vt 0 0.875
vt 0.125 0.984375
vt 0.125 1
vt 0 1
vt 0 0.984375
vt 0.125 0.984375
vt 0.125 1
vt 0 1
vt 0 0.984375
vn 1 0 0
vn -1 0 0
vn 0 1 0
vn -0.06237828615518055 -0.9980525784828888 0
vn 0 0 1
vn 0 0 -1
usemtl m_ed6b463a-9dcb-c169-39ab-a0353b68a58a
f 1/1/1 2/2/1 3/3/1 4/4/1
f 5/5/2 6/6/2 7/7/2 8/8/2
f 3/9/3 2/10/3 7/11/3 6/12/3
f 1/13/4 4/14/4 5/15/4 8/16/4
f 4/17/5 3/18/5 6/19/5 5/20/5
f 8/21/6 7/22/6 2/23/6 1/24/6