# Made in Blockbench 5.1.6
mtllib dc_metro_roof_d1l_light_layer.mtl

o part2l
v -0.9832289473458816 -0.41848562499999997 -0.07725437499999989
v -1.0065033223458815 -0.41848562499999997 -0.06969187499999979
v -0.9709933223458815 -0.40624999999999994 2.271857596792767e-16
v -0.9942670723458813 -0.453995625 -0.14694624999999986
v -1.0385370723458813 -0.453995625 -0.13256187499999983
v -1.0030270723458812 -0.5093037499999999 -0.20225437499999993
v -1.063959572345881 -0.5093037499999999 -0.18245624999999993
v -1.0086514473458812 -0.578995625 -0.23776437499999986
v -1.080281447345881 -0.578995625 -0.21449000000000001
v -1.0105895723458813 -0.65625 -0.24999999999999983
v -1.085905822345881 -0.65625 -0.22552812500000005
v -1.0086514473458812 -0.733504375 -0.23776437499999983
v -1.080281447345881 -0.733504375 -0.21449000000000001
v -1.0030270723458812 -0.8031962500000001 -0.20225437499999988
v -1.063959572345881 -0.8031962500000001 -0.18245624999999988
v -0.9942670723458812 -0.8585043749999999 -0.1469462499999998
v -1.0385370723458813 -0.8585043749999999 -0.13256187499999977
v -0.9832289473458815 -0.8940143749999999 -0.07725437499999983
v -1.0065033223458812 -0.8940143749999999 -0.06969187499999974
v -0.9709933223458815 -0.90625 2.8841809963664446e-16
v -1.0263014473458814 -0.41848562499999997 -0.055308124999999916
v -1.0761951973458814 -0.453995625 -0.10520187499999986
v -1.1157914473458812 -0.5093037499999999 -0.14479812500000014
v -1.1412139473458809 -0.578995625 -0.1702206250000001
v -1.1499733223458812 -0.65625 -0.17898
v -1.1412139473458809 -0.733504375 -0.17022062500000007
v -1.1157914473458812 -0.8031962500000001 -0.1447981250000001
v -1.0761951973458814 -0.8585043749999999 -0.1052018749999998
v -1.0263014473458811 -0.8940143749999999 -0.05530812499999986
v -1.0406851973458817 -0.41848562499999997 -0.03550999999999983
v -1.1035551973458815 -0.453995625 -0.06754375000000003
v -1.1534495723458813 -0.5093037499999999 -0.09296625000000003
v -1.1854833223458814 -0.578995625 -0.10928812500000011
v -1.1965214473458812 -0.65625 -0.11491250000000014
v -1.1854833223458814 -0.733504375 -0.1092881250000001
v -1.1534495723458813 -0.80319625 -0.09296624999999999
v -1.1035551973458813 -0.858504375 -0.06754374999999999
v -1.0406851973458817 -0.8940143749999999 -0.03550999999999978
v -1.0482476973458814 -0.41848562499999997 -0.012235624999999889
v -1.1179395723458816 -0.453995625 -0.023273750000000027
v -1.1732476973458814 -0.5093037499999999 -0.03203375000000022
v -1.2087576973458813 -0.578995625 -0.0376581250000003
v -1.2209933223458815 -0.65625 -0.039596250000000215
v -1.2087576973458813 -0.733504375 -0.03765812500000028
v -1.1732476973458814 -0.80319625 -0.03203375000000019
v -1.1179395723458816 -0.858504375 -0.023273749999999975
v -1.0482476973458814 -0.8940143749999999 -0.012235624999999832
v -1.0482476973458814 -0.41848562499999997 0.012235625000000055
v -1.1179395723458816 -0.453995625 0.023273749999999937
v -1.1732476973458814 -0.5093037499999999 0.03203374999999983
v -1.2087576973458813 -0.578995625 0.037658124999999786
v -1.2209933223458815 -0.65625 0.039596249999999784
v -1.2087576973458813 -0.733504375 0.037658124999999806
v -1.1732476973458814 -0.80319625 0.03203374999999987
v -1.1179395723458816 -0.858504375 0.02327374999999999
v -1.0482476973458814 -0.8940143749999999 0.012235625000000113
v -1.0406851973458817 -0.41848562499999997 0.03551000000000014
v -1.1035551973458817 -0.453995625 0.06754375
v -1.1534495723458817 -0.5093037499999999 0.09296624999999992
v -1.1854833223458818 -0.578995625 0.1092881249999998
v -1.1965214473458816 -0.65625 0.1149124999999998
v -1.1854833223458818 -0.733504375 0.10928812499999982
v -1.1534495723458817 -0.80319625 0.09296624999999996
v -1.1035551973458815 -0.858504375 0.06754375000000004
v -1.0406851973458817 -0.8940143749999999 0.035510000000000194
v -1.0263014473458816 -0.41848562499999997 0.055308125000000166
v -1.0761951973458819 -0.453995625 0.10520187500000003
v -1.1157914473458816 -0.5093037499999999 0.14479812499999997
v -1.1412139473458818 -0.578995625 0.17022062499999993
v -1.1499733223458821 -0.65625 0.17897999999999994
v -1.1412139473458818 -0.7335043749999999 0.17022062499999996
v -1.1157914473458816 -0.80319625 0.144798125
v -1.0761951973458819 -0.8585043749999999 0.10520187500000008
v -1.0263014473458814 -0.8940143749999999 0.05530812500000022
v -1.0065033223458817 -0.41848562499999997 0.06969187500000013
v -1.0385370723458818 -0.45399562499999996 0.13256187500000016
v -1.063959572345882 -0.5093037499999999 0.18245625000000004
v -1.080281447345882 -0.5789956249999999 0.21449000000000001
v -1.085905822345882 -0.65625 0.225528125
v -1.080281447345882 -0.7335043749999999 0.21449000000000001
v -1.0639595723458817 -0.80319625 0.1824562500000001
v -1.0385370723458818 -0.8585043749999999 0.13256187500000022
v -1.0065033223458815 -0.8940143749999999 0.06969187500000018
v -0.983228947345882 -0.41848562499999997 0.0772543750000002
v -0.9942670723458819 -0.45399562499999996 0.14694625000000014
v -1.003027072345882 -0.5093037499999999 0.20225437500000015
v -1.008651447345882 -0.5789956249999999 0.2377643750000002
v -1.0105895723458822 -0.6562499999999999 0.2500000000000002
v -1.008651447345882 -0.7335043749999999 0.23776437500000022
v -1.003027072345882 -0.80319625 0.2022543750000002
v -0.9942670723458817 -0.8585043749999999 0.1469462500000002
v -0.9832289473458818 -0.8940143749999999 0.07725437500000025
v -0.9587576973458816 -0.41848562499999997 0.07725437500000024
v -0.9477195723458819 -0.4539956249999999 0.14694625000000022
v -0.9389595723458819 -0.5093037499999999 0.2022543750000003
v -0.9333351973458819 -0.5789956249999999 0.23776437500000036
v -0.9313970723458818 -0.6562499999999999 0.25000000000000033
v -0.9333351973458819 -0.7335043749999999 0.23776437500000036
v -0.9389595723458818 -0.80319625 0.20225437500000032
v -0.9477195723458818 -0.8585043749999999 0.14694625000000028
v -0.9587576973458815 -0.8940143749999999 0.07725437500000029
v -0.9354833223458817 -0.41848562499999997 0.06969187500000025
v -0.9034495723458817 -0.4539956249999999 0.1325618750000004
v -0.878027072345882 -0.5093037499999999 0.1824562500000004
v -0.861705197345882 -0.5789956249999999 0.2144900000000004
v -0.856080822345882 -0.6562499999999999 0.22552812500000044
v -0.8617051973458819 -0.7335043749999999 0.21449000000000043
v -0.878027072345882 -0.80319625 0.18245625000000043
v -0.9034495723458817 -0.8585043749999999 0.13256187500000047
v -0.9354833223458817 -0.8940143749999999 0.06969187500000032
v -0.9156851973458818 -0.41848562499999997 0.055308125000000374
v -0.8657914473458816 -0.45399562499999996 0.10520187500000043
v -0.826195197345882 -0.5093037499999999 0.1447981250000005
v -0.8007726973458821 -0.5789956249999999 0.1702206250000006
v -0.7920133223458817 -0.6562499999999999 0.1789800000000006
v -0.8007726973458821 -0.7335043749999999 0.1702206250000006
v -0.8261951973458819 -0.80319625 0.14479812500000055
v -0.8657914473458816 -0.8585043749999999 0.10520187500000049
v -0.9156851973458818 -0.8940143749999999 0.05530812500000043
v -0.9013014473458815 -0.41848562499999997 0.0355100000000004
v -0.8384314473458817 -0.45399562499999996 0.0675437500000005
v -0.7885370723458818 -0.5093037499999999 0.09296625000000061
v -0.7565033223458817 -0.5789956249999999 0.10928812500000061
v -0.7454651973458819 -0.6562499999999999 0.11491250000000065
v -0.7565033223458817 -0.7335043749999999 0.10928812500000062
v -0.7885370723458817 -0.80319625 0.09296625000000065
v -0.8384314473458817 -0.8585043749999999 0.06754375000000054
v -0.9013014473458814 -0.8940143749999999 0.03551000000000046
v -0.8937389473458817 -0.41848562499999997 0.012235625000000347
v -0.8240470723458815 -0.45399562499999996 0.023273750000000492
v -0.7687389473458818 -0.5093037499999999 0.032033750000000596
v -0.7332289473458818 -0.5789956249999999 0.03765812500000068
v -0.7209933223458816 -0.6562499999999999 0.03959625000000073
v -0.7332289473458817 -0.7335043749999999 0.0376581250000007
v -0.7687389473458817 -0.80319625 0.03203375000000063
v -0.8240470723458815 -0.8585043749999999 0.02327375000000054
v -0.8937389473458817 -0.8940143749999999 0.012235625000000404
v -0.8937389473458817 -0.41848562499999997 -0.012235624999999598
v -0.8240470723458815 -0.45399562499999996 -0.023273749999999472
v -0.7687389473458817 -0.5093037499999999 -0.03203374999999946
v -0.7332289473458816 -0.5789956249999999 -0.037658124999999404
v -0.7209933223458814 -0.6562499999999999 -0.03959624999999927
v -0.7332289473458816 -0.7335043749999999 -0.03765812499999938
v -0.7687389473458816 -0.80319625 -0.032033749999999424
v -0.8240470723458814 -0.8585043749999999 -0.023273749999999423
v -0.8937389473458816 -0.8940143749999999 -0.01223562499999954
v -0.9013014473458814 -0.41848562499999997 -0.03550999999999957
v -0.8384314473458815 -0.45399562499999996 -0.06754374999999953
v -0.7885370723458813 -0.5093037499999999 -0.09296624999999933
v -0.7565033223458812 -0.5789956249999999 -0.1092881249999993
v -0.7454651973458815 -0.65625 -0.11491249999999929
v -0.7565033223458812 -0.7335043749999999 -0.10928812499999929
v -0.7885370723458813 -0.80319625 -0.09296624999999929
v -0.8384314473458815 -0.8585043749999999 -0.06754374999999949
v -0.9013014473458812 -0.8940143749999999 -0.035509999999999514
v -0.9156851973458816 -0.41848562499999997 -0.05530812499999971
v -0.8657914473458812 -0.45399562499999996 -0.10520187499999946
v -0.8261951973458814 -0.5093037499999999 -0.1447981249999996
v -0.8007726973458814 -0.578995625 -0.17022062499999943
v -0.7920133223458811 -0.65625 -0.17897999999999933
v -0.8007726973458814 -0.733504375 -0.17022062499999943
v -0.8261951973458813 -0.80319625 -0.14479812499999956
v -0.8657914473458812 -0.8585043749999999 -0.1052018749999994
v -0.9156851973458816 -0.8940143749999999 -0.05530812499999965
v -0.9354833223458815 -0.41848562499999997 -0.06969187499999967
v -0.9034495723458813 -0.453995625 -0.13256187499999958
v -0.8780270723458813 -0.5093037499999999 -0.18245624999999957
v -0.8617051973458811 -0.578995625 -0.21448999999999963
v -0.8560808223458811 -0.65625 -0.2255281249999996
v -0.8617051973458811 -0.733504375 -0.2144899999999996
v -0.8780270723458813 -0.80319625 -0.18245624999999954
v -0.9034495723458812 -0.8585043749999999 -0.13256187499999952
v -0.9354833223458814 -0.8940143749999999 -0.0696918749999996
v -0.9587576973458812 -0.41848562499999997 -0.07725437499999985
v -0.9477195723458813 -0.453995625 -0.14694624999999978
v -0.9389595723458811 -0.5093037499999999 -0.2022543749999998
v -0.933335197345881 -0.578995625 -0.2377643749999997
v -0.9313970723458809 -0.65625 -0.24999999999999967
v -0.933335197345881 -0.733504375 -0.2377643749999997
v -0.938959572345881 -0.80319625 -0.20225437499999976
v -0.9477195723458812 -0.8585043749999999 -0.14694624999999972
v -0.9587576973458811 -0.8940143749999999 -0.07725437499999979
vt 0.375 0.23428749999999998
vt 0.399475 0.23428749999999998
vt 0.3872375 0.3125
vt 0.3860375 0.3125
vt 0.375 0.23428749999999998
vt 0.42155 0.23428749999999998
vt 0.4105125 0.3125
vt 0.38375625 0.3125
vt 0.375 0.23428749999999998
vt 0.4390625 0.23428749999999998
vt 0.43030625 0.3125
vt 0.380625 0.3125
vt 0.375 0.23428749999999998
vt 0.4503125 0.23428749999999998
vt 0.4446875 0.3125
vt 0.3769375 0.3125
vt 0.375 0.23428749999999998
vt 0.4541875 0.23428749999999998
vt 0.45225 0.3125
vt 0.375 0.3125
vt 0.3769375 0.23428749999999998
vt 0.45225 0.23428749999999998
vt 0.4541875 0.3125
vt 0.375 0.3125
vt 0.380625 0.23428749999999998
vt 0.4446875 0.23428749999999998
vt 0.4503125 0.3125
vt 0.375 0.3125
vt 0.38375625 0.23428749999999998
vt 0.43030625 0.23428749999999998
vt 0.4390625 0.3125
vt 0.375 0.3125
vt 0.3860375 0.23428749999999998
vt 0.4105125 0.23428749999999998
vt 0.42155 0.3125
vt 0.399475 0.3125
vt 0.375 0.3125
vt 0.3872375 0.23428749999999998
vt 0.375 0.23428749999999998
vt 0.399475 0.23428749999999998
vt 0.3872375 0.3125
vt 0.3860375 0.3125
vt 0.375 0.23428749999999998
vt 0.42155 0.23428749999999998
vt 0.4105125 0.3125
vt 0.38375625 0.3125
vt 0.375 0.23428749999999998
vt 0.4390625 0.23428749999999998
vt 0.43030625 0.3125
vt 0.380625 0.3125
vt 0.375 0.23428749999999998
vt 0.4503125 0.23428749999999998
vt 0.4446875 0.3125
vt 0.3769375 0.3125
vt 0.375 0.23428749999999998
vt 0.4541875 0.23428749999999998
vt 0.45225 0.3125
vt 0.375 0.3125
vt 0.3769375 0.23428749999999998
vt 0.45225 0.23428749999999998
vt 0.4541875 0.3125
vt 0.375 0.3125
vt 0.380625 0.23428749999999998
vt 0.4446875 0.23428749999999998
vt 0.4503125 0.3125
vt 0.375 0.3125
vt 0.38375625 0.23428749999999998
vt 0.43030625 0.23428749999999998
vt 0.4390625 0.3125
vt 0.375 0.3125
vt 0.3860375 0.23428749999999998
vt 0.4105125 0.23428749999999998
vt 0.42155 0.3125
vt 0.399475 0.3125
vt 0.375 0.3125
vt 0.3872375 0.23428749999999998
vt 0.375 0.23428749999999998
vt 0.399475 0.23428749999999998
vt 0.3872375 0.3125
vt 0.3860375 0.3125
vt 0.375 0.23428749999999998
vt 0.42155 0.23428749999999998
vt 0.4105125 0.3125
vt 0.38375625 0.3125
vt 0.375 0.23428749999999998
vt 0.4390625 0.23428749999999998
vt 0.43030625 0.3125
vt 0.380625 0.3125
vt 0.375 0.23428749999999998
vt 0.4503125 0.23428749999999998
vt 0.4446875 0.3125
vt 0.3769375 0.3125
vt 0.375 0.23428749999999998
vt 0.4541875 0.23428749999999998
vt 0.45225 0.3125
vt 0.375 0.3125
vt 0.3769375 0.23428749999999998
vt 0.45225 0.23428749999999998
vt 0.4541875 0.3125
vt 0.375 0.3125
vt 0.380625 0.23428749999999998
vt 0.4446875 0.23428749999999998
vt 0.4503125 0.3125
vt 0.375 0.3125
vt 0.38375625 0.23428749999999998
vt 0.43030625 0.23428749999999998
vt 0.4390625 0.3125
vt 0.375 0.3125
vt 0.3860375 0.23428749999999998
vt 0.4105125 0.23428749999999998
vt 0.42155 0.3125
vt 0.399475 0.3125
vt 0.375 0.3125
vt 0.3872375 0.23428749999999998
vt 0.375 0.23428749999999998
vt 0.399475 0.23428749999999998
vt 0.3872375 0.3125
vt 0.3860375 0.3125
vt 0.375 0.23428749999999998
vt 0.42155 0.23428749999999998
vt 0.4105125 0.3125
vt 0.38375625 0.3125
vt 0.375 0.23428749999999998
vt 0.4390625 0.23428749999999998
vt 0.43030625 0.3125
vt 0.380625 0.3125
vt 0.375 0.23428749999999998
vt 0.4503125 0.23428749999999998
vt 0.4446875 0.3125
vt 0.3769375 0.3125
vt 0.375 0.23428749999999998
vt 0.4541875 0.23428749999999998
vt 0.45225 0.3125
vt 0.375 0.3125
vt 0.3769375 0.23428749999999998
vt 0.45225 0.23428749999999998
vt 0.4541875 0.3125
vt 0.375 0.3125
vt 0.380625 0.23428749999999998
vt 0.4446875 0.23428749999999998
vt 0.4503125 0.3125
vt 0.375 0.3125
vt 0.38375625 0.23428749999999998
vt 0.43030625 0.23428749999999998
vt 0.4390625 0.3125
vt 0.375 0.3125
vt 0.3860375 0.23428749999999998
vt 0.4105125 0.23428749999999998
vt 0.42155 0.3125
vt 0.399475 0.3125
vt 0.375 0.3125
vt 0.3872375 0.23428749999999998
vt 0.375 0.23428749999999998
vt 0.399475 0.23428749999999998
vt 0.3872375 0.3125
vt 0.3860375 0.3125
vt 0.375 0.23428749999999998
vt 0.42155 0.23428749999999998
vt 0.4105125 0.3125
vt 0.38375625 0.3125
vt 0.375 0.23428749999999998
vt 0.4390625 0.23428749999999998
vt 0.43030625 0.3125
vt 0.380625 0.3125
vt 0.375 0.23428749999999998
vt 0.4503125 0.23428749999999998
vt 0.4446875 0.3125
vt 0.3769375 0.3125
vt 0.375 0.23428749999999998
vt 0.4541875 0.23428749999999998
vt 0.45225 0.3125
vt 0.375 0.3125
vt 0.3769375 0.23428749999999998
vt 0.45225 0.23428749999999998
vt 0.4541875 0.3125
vt 0.375 0.3125
vt 0.380625 0.23428749999999998
vt 0.4446875 0.23428749999999998
vt 0.4503125 0.3125
vt 0.375 0.3125
vt 0.38375625 0.23428749999999998
vt 0.43030625 0.23428749999999998
vt 0.4390625 0.3125
vt 0.375 0.3125
vt 0.3860375 0.23428749999999998
vt 0.4105125 0.23428749999999998
vt 0.42155 0.3125
vt 0.399475 0.3125
vt 0.375 0.3125
vt 0.3872375 0.23428749999999998
vt 0.375 0.23428749999999998
vt 0.399475 0.23428749999999998
vt 0.3872375 0.3125
vt 0.3860375 0.3125
vt 0.375 0.23428749999999998
vt 0.42155 0.23428749999999998
vt 0.4105125 0.3125
vt 0.38375625 0.3125
vt 0.375 0.23428749999999998
vt 0.4390625 0.23428749999999998
vt 0.43030625 0.3125
vt 0.380625 0.3125
vt 0.375 0.23428749999999998
vt 0.4503125 0.23428749999999998
vt 0.4446875 0.3125
vt 0.3769375 0.3125
vt 0.375 0.23428749999999998
vt 0.4541875 0.23428749999999998
vt 0.45225 0.3125
vt 0.375 0.3125
vt 0.3769375 0.23428749999999998
vt 0.45225 0.23428749999999998
vt 0.4541875 0.3125
vt 0.375 0.3125
vt 0.380625 0.23428749999999998
vt 0.4446875 0.23428749999999998
vt 0.4503125 0.3125
vt 0.375 0.3125
vt 0.38375625 0.23428749999999998
vt 0.43030625 0.23428749999999998
vt 0.4390625 0.3125
vt 0.375 0.3125
vt 0.3860375 0.23428749999999998
vt 0.4105125 0.23428749999999998
vt 0.42155 0.3125
vt 0.399475 0.3125
vt 0.375 0.3125
vt 0.3872375 0.23428749999999998
vt 0.375 0.23428749999999998
vt 0.399475 0.23428749999999998
vt 0.3872375 0.3125
vt 0.3860375 0.3125
vt 0.375 0.23428749999999998
vt 0.42155 0.23428749999999998
vt 0.4105125 0.3125
vt 0.38375625 0.3125
vt 0.375 0.23428749999999998
vt 0.4390625 0.23428749999999998
vt 0.43030625 0.3125
vt 0.380625 0.3125
vt 0.375 0.23428749999999998
vt 0.4503125 0.23428749999999998
vt 0.4446875 0.3125
vt 0.3769375 0.3125
vt 0.375 0.23428749999999998
vt 0.4541875 0.23428749999999998
vt 0.45225 0.3125
vt 0.375 0.3125
vt 0.3769375 0.23428749999999998
vt 0.45225 0.23428749999999998
vt 0.4541875 0.3125
vt 0.375 0.3125
vt 0.380625 0.23428749999999998
vt 0.4446875 0.23428749999999998
vt 0.4503125 0.3125
vt 0.375 0.3125
vt 0.38375625 0.23428749999999998
vt 0.43030625 0.23428749999999998
vt 0.4390625 0.3125
vt 0.375 0.3125
vt 0.3860375 0.23428749999999998
vt 0.4105125 0.23428749999999998
vt 0.42155 0.3125
vt 0.399475 0.3125
vt 0.375 0.3125
vt 0.3872375 0.23428749999999998
vt 0.375 0.23428749999999998
vt 0.399475 0.23428749999999998
vt 0.3872375 0.3125
vt 0.3860375 0.3125
vt 0.375 0.23428749999999998
vt 0.42155 0.23428749999999998
vt 0.4105125 0.3125
vt 0.38375625 0.3125
vt 0.375 0.23428749999999998
vt 0.4390625 0.23428749999999998
vt 0.43030625 0.3125
vt 0.380625 0.3125
vt 0.375 0.23428749999999998
vt 0.4503125 0.23428749999999998
vt 0.4446875 0.3125
vt 0.3769375 0.3125
vt 0.375 0.23428749999999998
vt 0.4541875 0.23428749999999998
vt 0.45225 0.3125
vt 0.375 0.3125
vt 0.3769375 0.23428749999999998
vt 0.45225 0.23428749999999998
vt 0.4541875 0.3125
vt 0.375 0.3125
vt 0.380625 0.23428749999999998
vt 0.4446875 0.23428749999999998
vt 0.4503125 0.3125
vt 0.375 0.3125
vt 0.38375625 0.23428749999999998
vt 0.43030625 0.23428749999999998
vt 0.4390625 0.3125
vt 0.375 0.3125
vt 0.3860375 0.23428749999999998
vt 0.4105125 0.23428749999999998
vt 0.42155 0.3125
vt 0.399475 0.3125
vt 0.375 0.3125
vt 0.3872375 0.23428749999999998
vt 0.375 0.23428749999999998
vt 0.399475 0.23428749999999998
vt 0.3872375 0.3125
vt 0.3860375 0.3125
vt 0.375 0.23428749999999998
vt 0.42155 0.23428749999999998
vt 0.4105125 0.3125
vt 0.38375625 0.3125
vt 0.375 0.23428749999999998
vt 0.4390625 0.23428749999999998
vt 0.43030625 0.3125
vt 0.380625 0.3125
vt 0.375 0.23428749999999998
vt 0.4503125 0.23428749999999998
vt 0.4446875 0.3125
vt 0.3769375 0.3125
vt 0.375 0.23428749999999998
vt 0.4541875 0.23428749999999998
vt 0.45225 0.3125
vt 0.375 0.3125
vt 0.3769375 0.23428749999999998
vt 0.45225 0.23428749999999998
vt 0.4541875 0.3125
vt 0.375 0.3125
vt 0.380625 0.23428749999999998
vt 0.4446875 0.23428749999999998
vt 0.4503125 0.3125
vt 0.375 0.3125
vt 0.38375625 0.23428749999999998
vt 0.43030625 0.23428749999999998
vt 0.4390625 0.3125
vt 0.375 0.3125
vt 0.3860375 0.23428749999999998
vt 0.4105125 0.23428749999999998
vt 0.42155 0.3125
vt 0.399475 0.3125
vt 0.375 0.3125
vt 0.3872375 0.23428749999999998
vt 0.375 0.23428749999999998
vt 0.399475 0.23428749999999998
vt 0.3872375 0.3125
vt 0.3860375 0.3125
vt 0.375 0.23428749999999998
vt 0.42155 0.23428749999999998
vt 0.4105125 0.3125
vt 0.38375625 0.3125
vt 0.375 0.23428749999999998
vt 0.4390625 0.23428749999999998
vt 0.43030625 0.3125
vt 0.380625 0.3125
vt 0.375 0.23428749999999998
vt 0.4503125 0.23428749999999998
vt 0.4446875 0.3125
vt 0.3769375 0.3125
vt 0.375 0.23428749999999998
vt 0.4541875 0.23428749999999998
vt 0.45225 0.3125
vt 0.375 0.3125
vt 0.3769375 0.23428749999999998
vt 0.45225 0.23428749999999998
vt 0.4541875 0.3125
vt 0.375 0.3125
vt 0.380625 0.23428749999999998
vt 0.4446875 0.23428749999999998
vt 0.4503125 0.3125
vt 0.375 0.3125
vt 0.38375625 0.23428749999999998
vt 0.43030625 0.23428749999999998
vt 0.4390625 0.3125
vt 0.375 0.3125
vt 0.3860375 0.23428749999999998
vt 0.4105125 0.23428749999999998
vt 0.42155 0.3125
vt 0.399475 0.3125
vt 0.375 0.3125
vt 0.3872375 0.23428749999999998
vt 0.375 0.23428749999999998
vt 0.399475 0.23428749999999998
vt 0.3872375 0.3125
vt 0.3860375 0.3125
vt 0.375 0.23428749999999998
vt 0.42155 0.23428749999999998
vt 0.4105125 0.3125
vt 0.38375625 0.3125
vt 0.375 0.23428749999999998
vt 0.4390625 0.23428749999999998
vt 0.43030625 0.3125
vt 0.380625 0.3125
vt 0.375 0.23428749999999998
vt 0.4503125 0.23428749999999998
vt 0.4446875 0.3125
vt 0.3769375 0.3125
vt 0.375 0.23428749999999998
vt 0.4541875 0.23428749999999998
vt 0.45225 0.3125
vt 0.375 0.3125
vt 0.3769375 0.23428749999999998
vt 0.45225 0.23428749999999998
vt 0.4541875 0.3125
vt 0.375 0.3125
vt 0.380625 0.23428749999999998
vt 0.4446875 0.23428749999999998
vt 0.4503125 0.3125
vt 0.375 0.3125
vt 0.38375625 0.23428749999999998
vt 0.43030625 0.23428749999999998
vt 0.4390625 0.3125
vt 0.375 0.3125
vt 0.3860375 0.23428749999999998
vt 0.4105125 0.23428749999999998
vt 0.42155 0.3125
vt 0.399475 0.3125
vt 0.375 0.3125
vt 0.3872375 0.23428749999999998
vt 0.375 0.23428749999999998
vt 0.399475 0.23428749999999998
vt 0.3872375 0.3125
vt 0.3860375 0.3125
vt 0.375 0.23428749999999998
vt 0.42155 0.23428749999999998
vt 0.4105125 0.3125
vt 0.38375625 0.3125
vt 0.375 0.23428749999999998
vt 0.4390625 0.23428749999999998
vt 0.43030625 0.3125
vt 0.380625 0.3125
vt 0.375 0.23428749999999998
vt 0.4503125 0.23428749999999998
vt 0.4446875 0.3125
vt 0.3769375 0.3125
vt 0.375 0.23428749999999998
vt 0.4541875 0.23428749999999998
vt 0.45225 0.3125
vt 0.375 0.3125
vt 0.3769375 0.23428749999999998
vt 0.45225 0.23428749999999998
vt 0.4541875 0.3125
vt 0.375 0.3125
vt 0.380625 0.23428749999999998
vt 0.4446875 0.23428749999999998
vt 0.4503125 0.3125
vt 0.375 0.3125
vt 0.38375625 0.23428749999999998
vt 0.43030625 0.23428749999999998
vt 0.4390625 0.3125
vt 0.375 0.3125
vt 0.3860375 0.23428749999999998
vt 0.4105125 0.23428749999999998
vt 0.42155 0.3125
vt 0.399475 0.3125
vt 0.375 0.3125
vt 0.3872375 0.23428749999999998
vt 0.375 0.23428749999999998
vt 0.399475 0.23428749999999998
vt 0.3872375 0.3125
vt 0.3860375 0.3125
vt 0.375 0.23428749999999998
vt 0.42155 0.23428749999999998
vt 0.4105125 0.3125
vt 0.38375625 0.3125
vt 0.375 0.23428749999999998
vt 0.4390625 0.23428749999999998
vt 0.43030625 0.3125
vt 0.380625 0.3125
vt 0.375 0.23428749999999998
vt 0.4503125 0.23428749999999998
vt 0.4446875 0.3125
vt 0.3769375 0.3125
vt 0.375 0.23428749999999998
vt 0.4541875 0.23428749999999998
vt 0.45225 0.3125
vt 0.375 0.3125
vt 0.3769375 0.23428749999999998
vt 0.45225 0.23428749999999998
vt 0.4541875 0.3125
vt 0.375 0.3125
vt 0.380625 0.23428749999999998
vt 0.4446875 0.23428749999999998
vt 0.4503125 0.3125
vt 0.375 0.3125
vt 0.38375625 0.23428749999999998
vt 0.43030625 0.23428749999999998
vt 0.4390625 0.3125
vt 0.375 0.3125
vt 0.3860375 0.23428749999999998
vt 0.4105125 0.23428749999999998
vt 0.42155 0.3125
vt 0.399475 0.3125
vt 0.375 0.3125
vt 0.3872375 0.23428749999999998
vt 0.375 0.23428749999999998
vt 0.399475 0.23428749999999998
vt 0.3872375 0.3125
vt 0.3860375 0.3125
vt 0.375 0.23428749999999998
vt 0.42155 0.23428749999999998
vt 0.4105125 0.3125
vt 0.38375625 0.3125
vt 0.375 0.23428749999999998
vt 0.4390625 0.23428749999999998
vt 0.43030625 0.3125
vt 0.380625 0.3125
vt 0.375 0.23428749999999998
vt 0.4503125 0.23428749999999998
vt 0.4446875 0.3125
vt 0.3769375 0.3125
vt 0.375 0.23428749999999998
vt 0.4541875 0.23428749999999998
vt 0.45225 0.3125
vt 0.375 0.3125
vt 0.3769375 0.23428749999999998
vt 0.45225 0.23428749999999998
vt 0.4541875 0.3125
vt 0.375 0.3125
vt 0.380625 0.23428749999999998
vt 0.4446875 0.23428749999999998
vt 0.4503125 0.3125
vt 0.375 0.3125
vt 0.38375625 0.23428749999999998
vt 0.43030625 0.23428749999999998
vt 0.4390625 0.3125
vt 0.375 0.3125
vt 0.3860375 0.23428749999999998
vt 0.4105125 0.23428749999999998
vt 0.42155 0.3125
vt 0.399475 0.3125
vt 0.375 0.3125
vt 0.3872375 0.23428749999999998
vt 0.375 0.23428749999999998
vt 0.399475 0.23428749999999998
vt 0.3872375 0.3125
vt 0.3860375 0.3125
vt 0.375 0.23428749999999998
vt 0.42155 0.23428749999999998
vt 0.4105125 0.3125
vt 0.38375625 0.3125
vt 0.375 0.23428749999999998
vt 0.4390625 0.23428749999999998
vt 0.43030625 0.3125
vt 0.380625 0.3125
vt 0.375 0.23428749999999998
vt 0.4503125 0.23428749999999998
vt 0.4446875 0.3125
vt 0.3769375 0.3125
vt 0.375 0.23428749999999998
vt 0.4541875 0.23428749999999998
vt 0.45225 0.3125
vt 0.375 0.3125
vt 0.3769375 0.23428749999999998
vt 0.45225 0.23428749999999998
vt 0.4541875 0.3125
vt 0.375 0.3125
vt 0.380625 0.23428749999999998
vt 0.4446875 0.23428749999999998
vt 0.4503125 0.3125
vt 0.375 0.3125
vt 0.38375625 0.23428749999999998
vt 0.43030625 0.23428749999999998
vt 0.4390625 0.3125
vt 0.375 0.3125
vt 0.3860375 0.23428749999999998
vt 0.4105125 0.23428749999999998
vt 0.42155 0.3125
vt 0.399475 0.3125
vt 0.375 0.3125
vt 0.3872375 0.23428749999999998
vt 0.375 0.23428749999999998
vt 0.399475 0.23428749999999998
vt 0.3872375 0.3125
vt 0.3860375 0.3125
vt 0.375 0.23428749999999998
vt 0.42155 0.23428749999999998
vt 0.4105125 0.3125
vt 0.38375625 0.3125
vt 0.375 0.23428749999999998
vt 0.4390625 0.23428749999999998
vt 0.43030625 0.3125
vt 0.380625 0.3125
vt 0.375 0.23428749999999998
vt 0.4503125 0.23428749999999998
vt 0.4446875 0.3125
vt 0.3769375 0.3125
vt 0.375 0.23428749999999998
vt 0.4541875 0.23428749999999998
vt 0.45225 0.3125
vt 0.375 0.3125
vt 0.3769375 0.23428749999999998
vt 0.45225 0.23428749999999998
vt 0.4541875 0.3125
vt 0.375 0.3125
vt 0.380625 0.23428749999999998
vt 0.4446875 0.23428749999999998
vt 0.4503125 0.3125
vt 0.375 0.3125
vt 0.38375625 0.23428749999999998
vt 0.43030625 0.23428749999999998
vt 0.4390625 0.3125
vt 0.375 0.3125
vt 0.3860375 0.23428749999999998
vt 0.4105125 0.23428749999999998
vt 0.42155 0.3125
vt 0.399475 0.3125
vt 0.375 0.3125
vt 0.3872375 0.23428749999999998
vt 0.375 0.23428749999999998
vt 0.399475 0.23428749999999998
vt 0.3872375 0.3125
vt 0.3860375 0.3125
vt 0.375 0.23428749999999998
vt 0.42155 0.23428749999999998
vt 0.4105125 0.3125
vt 0.38375625 0.3125
vt 0.375 0.23428749999999998
vt 0.4390625 0.23428749999999998
vt 0.43030625 0.3125
vt 0.380625 0.3125
vt 0.375 0.23428749999999998
vt 0.4503125 0.23428749999999998
vt 0.4446875 0.3125
vt 0.3769375 0.3125
vt 0.375 0.23428749999999998
vt 0.4541875 0.23428749999999998
vt 0.45225 0.3125
vt 0.375 0.3125
vt 0.3769375 0.23428749999999998
vt 0.45225 0.23428749999999998
vt 0.4541875 0.3125
vt 0.375 0.3125
vt 0.380625 0.23428749999999998
vt 0.4446875 0.23428749999999998
vt 0.4503125 0.3125
vt 0.375 0.3125
vt 0.38375625 0.23428749999999998
vt 0.43030625 0.23428749999999998
vt 0.4390625 0.3125
vt 0.375 0.3125
vt 0.3860375 0.23428749999999998
vt 0.4105125 0.23428749999999998
vt 0.42155 0.3125
vt 0.399475 0.3125
vt 0.375 0.3125
vt 0.3872375 0.23428749999999998
vt 0.375 0.23428749999999998
vt 0.399475 0.23428749999999998
vt 0.3872375 0.3125
vt 0.3860375 0.3125
vt 0.375 0.23428749999999998
vt 0.42155 0.23428749999999998
vt 0.4105125 0.3125
vt 0.38375625 0.3125
vt 0.375 0.23428749999999998
vt 0.4390625 0.23428749999999998
vt 0.43030625 0.3125
vt 0.380625 0.3125
vt 0.375 0.23428749999999998
vt 0.4503125 0.23428749999999998
vt 0.4446875 0.3125
vt 0.3769375 0.3125
vt 0.375 0.23428749999999998
vt 0.4541875 0.23428749999999998
vt 0.45225 0.3125
vt 0.375 0.3125
vt 0.3769375 0.23428749999999998
vt 0.45225 0.23428749999999998
vt 0.4541875 0.3125
vt 0.375 0.3125
vt 0.380625 0.23428749999999998
vt 0.4446875 0.23428749999999998
vt 0.4503125 0.3125
vt 0.375 0.3125
vt 0.38375625 0.23428749999999998
vt 0.43030625 0.23428749999999998
vt 0.4390625 0.3125
vt 0.375 0.3125
vt 0.3860375 0.23428749999999998
vt 0.4105125 0.23428749999999998
vt 0.42155 0.3125
vt 0.399475 0.3125
vt 0.375 0.3125
vt 0.3872375 0.23428749999999998
vt 0.375 0.23428749999999998
vt 0.399475 0.23428749999999998
vt 0.3872375 0.3125
vt 0.3860375 0.3125
vt 0.375 0.23428749999999998
vt 0.42155 0.23428749999999998
vt 0.4105125 0.3125
vt 0.38375625 0.3125
vt 0.375 0.23428749999999998
vt 0.4390625 0.23428749999999998
vt 0.43030625 0.3125
vt 0.380625 0.3125
vt 0.375 0.23428749999999998
vt 0.4503125 0.23428749999999998
vt 0.4446875 0.3125
vt 0.3769375 0.3125
vt 0.375 0.23428749999999998
vt 0.4541875 0.23428749999999998
vt 0.45225 0.3125
vt 0.375 0.3125
vt 0.3769375 0.23428749999999998
vt 0.45225 0.23428749999999998
vt 0.4541875 0.3125
vt 0.375 0.3125
vt 0.380625 0.23428749999999998
vt 0.4446875 0.23428749999999998
vt 0.4503125 0.3125
vt 0.375 0.3125
vt 0.38375625 0.23428749999999998
vt 0.43030625 0.23428749999999998
vt 0.4390625 0.3125
vt 0.375 0.3125
vt 0.3860375 0.23428749999999998
vt 0.4105125 0.23428749999999998
vt 0.42155 0.3125
vt 0.399475 0.3125
vt 0.375 0.3125
vt 0.3872375 0.23428749999999998
vt 0.375 0.23428749999999998
vt 0.399475 0.23428749999999998
vt 0.3872375 0.3125
vt 0.3860375 0.3125
vt 0.375 0.23428749999999998
vt 0.42155 0.23428749999999998
vt 0.4105125 0.3125
vt 0.38375625 0.3125
vt 0.375 0.23428749999999998
vt 0.4390625 0.23428749999999998
vt 0.43030625 0.3125
vt 0.380625 0.3125
vt 0.375 0.23428749999999998
vt 0.4503125 0.23428749999999998
vt 0.4446875 0.3125
vt 0.3769375 0.3125
vt 0.375 0.23428749999999998
vt 0.4541875 0.23428749999999998
vt 0.45225 0.3125
vt 0.375 0.3125
vt 0.3769375 0.23428749999999998
vt 0.45225 0.23428749999999998
vt 0.4541875 0.3125
vt 0.375 0.3125
vt 0.380625 0.23428749999999998
vt 0.4446875 0.23428749999999998
vt 0.4503125 0.3125
vt 0.375 0.3125
vt 0.38375625 0.23428749999999998
vt 0.43030625 0.23428749999999998
vt 0.4390625 0.3125
vt 0.375 0.3125
vt 0.3860375 0.23428749999999998
vt 0.4105125 0.23428749999999998
vt 0.42155 0.3125
vt 0.399475 0.3125
vt 0.375 0.3125
vt 0.3872375 0.23428749999999998
vn -0.04834113047127436 0.9876888108927862 -0.14877482294378108
vn -0.14029310253540825 0.8910053131240778 -0.43177236753369663
vn -0.21850752497123793 0.7071069239193171 -0.6724985202038032
vn -0.27533982048498773 0.4539928710525175 -0.8473951004630528
vn -0.3052142115616075 0.15643184840357788 -0.9393473063068134
vn -0.3052170877791575 -0.1564317744953146 -0.939346384064929
vn -0.27533517757848286 -0.4539931805366024 -0.8473964432389867
vn -0.21851051707286928 -0.707106681023124 -0.6724978034023674
vn -0.14029489251771257 -0.8910051972705885 -0.43177202499726997
vn -0.04834113047127481 -0.987688810892786 -0.14877482294378175
vn -0.09194616503747227 0.9876888547958221 -0.12655682062622828
vn -0.2668486443567888 0.8910054944253061 -0.36728872826273884
vn -0.41562651035008547 0.7071082888384047 -0.5720598497974085
vn -0.5237156658579195 0.453989104714968 -0.7208438070311056
vn -0.5805515256091336 0.15643517948828925 -0.7990544166271623
vn -0.5805427334190342 -0.15643544467122905 -0.7990607525869802
vn -0.5237216286157113 -0.4539886434527073 -0.7208397653681973
vn -0.415623613800748 -0.7071085569426664 -0.5720616228603932
vn -0.2668445467248339 -0.8910057917483735 -0.36729098403591687
vn -0.09194616503747281 -0.987688854795822 -0.12655682062622906
vn -0.12655682062622714 0.9876888547958222 -0.09194616503747362
vn -0.3672897749316029 0.8910048352218148 -0.26684940479985975
vn -0.5720610023652719 0.7071068641885493 -0.4156273477410708
vn -0.7208416410548976 0.4539943591542106 -0.5237140922081817
vn -0.7990557372562657 0.1564248726727508 -0.5805524851097958
vn -0.7990621411850839 -0.15642460747977033 -0.580543742279175
vn -0.7208372191204367 -0.45399482042854583 -0.523719778655311
vn -0.572063209242325 -0.7071065960768482 -0.4156247663650293
vn -0.3672929749402243 -0.8910045378643896 -0.2668459931582734
vn -0.12655682062622714 -0.987688854795822 -0.09194616503747505
vn -0.14877482294378194 0.9876888108927863 -0.048341130471271865
vn -0.43177188812200756 0.8910055699691593 -0.14029294676315912
vn -0.672497292687313 0.7071082146033826 -0.2185071261278484
vn -0.8473968088896444 0.4539893455254351 -0.27534037559543395
vn -0.939346873603026 0.15643472100555075 -0.3052140709668155
vn -0.9393459290940822 -0.15643479492520904 -0.30521693994777455
vn -0.8473984516093622 -0.45398903604967455 -0.27533583013611385
vn -0.6724961138736174 -0.7071084574969434 -0.21850996810483486
vn -0.4317711131145464 -0.8910056858129033 -0.14029459622132195
vn -0.14877482294378258 -0.9876888108927862 -0.04834113047127208
vn -0.1564311481420912 0.987688865934484 0
vn -0.4539926927622825 0.8910054067840735 0
vn -0.7071067811865482 0.7071067811865469 0
vn -0.8910054067840735 0.45399269276228194 0
vn -0.9876888659344837 0.15643114814209308 0
vn -0.9876888659344837 -0.15643114814209305 0
vn -0.8910054067840734 -0.4539926927622825 0
vn -0.707106781186549 -0.7071067811865461 0
vn -0.4539926927622813 -0.8910054067840739 0
vn -0.15643114814209189 -0.9876888659344839 0
vn -0.1487748229437821 0.9876888108927863 0.048341130471271636
vn -0.43177236753369563 0.8910053131240785 0.1402931025354065
vn -0.6724985202038056 0.7071069239193161 0.21850752497123416
vn -0.8473951004630541 0.4539928710525176 0.2753398204849836
vn -0.9393473063068131 0.15643184840358001 0.305214211561608
vn -0.9393463840649301 -0.1564317744953164 0.30521708777915324
vn -0.8473964432389882 -0.45399318053660287 0.27533517757847764
vn -0.6724978034023702 -0.7071066810231208 0.21851051707287178
vn -0.4317720249972694 -0.8910051972705904 0.1402948925177026
vn -0.14877482294378278 -0.9876888108927862 0.04834113047127186
vn -0.12655682062622772 0.9876888547958224 0.09194616503747288
vn -0.3672887282627395 0.891005494425306 0.2668486443567883
vn -0.5720598497974061 0.707108288838405 0.4156265103500882
vn -0.7208438070311065 0.4539891047149672 0.5237156658579193
vn -0.7990544166271657 0.15643517948828675 0.5805515256091295
vn -0.7990607525869811 -0.15643544467122636 0.5805427334190336
vn -0.7208397653681948 -0.4539886434527059 0.5237216286157158
vn -0.5720616228603942 -0.7071085569426668 0.41562361380074614
vn -0.36729098403591476 -0.8910057917483728 0.2668445467248395
vn -0.12655682062622772 -0.987688854795822 0.09194616503747434
vn -0.0919461650374726 0.9876888547958221 0.126556820626228
vn -0.26684940479985986 0.891004835221815 0.36728977493160264
vn -0.415627347741073 0.7071068641885484 0.5720610023652714
vn -0.5237140922081789 0.45399435915421366 0.7208416410548977
vn -0.5805524851097948 0.15642487267275065 0.7990557372562662
vn -0.580543742279172 -0.15642460747976983 0.7990621411850859
vn -0.5237197786553117 -0.45399482042854933 0.7208372191204341
vn -0.4156247663650301 -0.7071065960768461 0.5720632092423268
vn -0.2668459931582682 -0.8910045378643892 0.36729297494022933
vn -0.09194616503747319 -0.9876888547958221 0.12655682062622883
vn -0.04834113047127443 0.9876888108927862 0.1487748229437811
vn -0.14029294676315748 0.8910055699691599 0.4317718881220062
vn -0.21850712612784826 0.7071082146033827 0.6724972926873126
vn -0.2753403755954363 0.45398934552543463 0.8473968088896439
vn -0.3052140709668147 0.15643472100555278 0.9393468736030259
vn -0.3052169399477773 -0.15643479492521156 0.9393459290940809
vn -0.27533583013611485 -0.45398903604967283 0.8473984516093629
vn -0.21850996810483012 -0.7071084574969425 0.67249611387362
vn -0.14029459622132928 -0.8910056858129044 0.43177111311454136
vn -0.04834113047127489 -0.9876888108927859 0.14877482294378186
vn -2.661390342277603e-16 0.9876888659344841 0.156431148142091
vn -1.9058647471776565e-15 0.8910054067840731 0.45399269276228305
vn -1.55776183151451e-15 0.7071067811865478 0.7071067811865472
vn -1.987666557366267e-15 0.45399269276228366 0.8910054067840726
vn -1.382771391966387e-15 0.15643114814209103 0.9876888659344841
vn -1.822022996679872e-15 -0.1564311481420907 0.9876888659344841
vn -1.5577694499419796e-15 -0.4539926927622828 0.891005406784073
vn -1.1911596414720479e-15 -0.7071067811865482 0.7071067811865469
vn -6.797254889864417e-16 -0.8910054067840728 0.45399269276228366
vn -2.661390342277615e-16 -0.987688865934484 0.1564311481420917
vn 0.04834113047127376 0.987688810892786 0.14877482294378142
vn 0.1402931025354056 0.8910053131240786 0.43177236753369597
vn 0.21850752497123657 0.7071069239193167 0.672498520203804
vn 0.2753398204849886 0.4539928710525193 0.8473951004630513
vn 0.3052142115616088 0.15643184840357788 0.9393473063068132
vn 0.30521708777915846 -0.1564317744953142 0.9393463840649288
vn 0.27533517757848147 -0.4539931805366032 0.847396443238987
vn 0.21851051707286687 -0.7071066810231234 0.6724978034023689
vn 0.1402948925177102 -0.8910051972705887 0.43177202499727035
vn 0.048341130471274106 -0.987688810892786 0.14877482294378203
vn 0.09194616503747233 0.9876888547958222 0.1265568206262284
vn 0.2668486443567887 0.8910054944253071 0.3672887282627368
vn 0.415626510350088 0.7071082888384037 0.572059849797408
vn 0.5237156658579183 0.45398910471496734 0.7208438070311071
vn 0.5805515256091311 0.15643517948828933 0.799054416627164
vn 0.5805427334190332 -0.156435444671228 0.7990607525869811
vn 0.5237216286157135 -0.453988643452706 0.7208397653681965
vn 0.41562361380074886 -0.7071085569426653 0.572061622860394
vn 0.266844546724834 -0.8910057917483736 0.3672909840359167
vn 0.09194616503747281 -0.9876888547958221 0.12655682062622892
vn 0.12655682062622697 0.9876888547958224 0.09194616503747402
vn 0.3672897749316028 0.8910048352218154 0.26684940479985786
vn 0.5720610023652717 0.7071068641885477 0.4156273477410737
vn 0.720841641054897 0.4539943591542138 0.5237140922081799
vn 0.7990557372562664 0.15642487267275154 0.5805524851097943
vn 0.7990621411850845 -0.15642460747977086 0.5805437422791739
vn 0.7208372191204339 -0.4539948204285475 0.5237197786553137
vn 0.5720632092423272 -0.7071065960768464 0.4156247663650291
vn 0.36729297494022467 -0.8910045378643896 0.2668459931582732
vn 0.1265568206262271 -0.987688854795822 0.09194616503747484
vn 0.14877482294378183 0.9876888108927862 0.04834113047127231
vn 0.43177188812200673 0.8910055699691595 0.14029294676315987
vn 0.6724972926873131 0.7071082146033829 0.21850712612784653
vn 0.847396808889645 0.45398934552543535 0.27534037559543234
vn 0.9393468736030264 0.15643472100555078 0.3052140709668143
vn 0.9393459290940824 -0.15643479492520898 0.30521693994777416
vn 0.8473984516093641 -0.4539890360496724 0.27533583013611185
vn 0.6724961138736171 -0.7071084574969443 0.21850996810483314
vn 0.43177111311454736 -0.8910056858129027 0.14029459622132162
vn 0.14877482294378258 -0.987688810892786 0.048341130471271844
vn 0.1564311481420912 0.987688865934484 0
vn 0.453992692762282 0.8910054067840737 0
vn 0.7071067811865492 0.7071067811865459 1.2981348595954309e-15
vn 0.8910054067840733 0.4539926927622828 2.650222076488362e-15
vn 0.9876888659344837 0.15643114814209313 2.7655427839327874e-15
vn 0.9876888659344839 -0.15643114814209175 1.4539375428051527e-15
vn 0.8910054067840735 -0.4539926927622821 1.5577694499419862e-15
vn 0.7071067811865481 -0.7071067811865469 1.6676234980608699e-15
vn 0.4539926927622822 -0.8910054067840734 2.0391764669593557e-15
vn 0.15643114814209177 -0.9876888659344839 7.097040912740439e-16
vn 0.1487748229437821 0.9876888108927863 -0.048341130471271865
vn 0.4317723675336949 0.8910053131240787 -0.14029310253540744
vn 0.6724985202038055 0.7071069239193157 -0.218507524971235
vn 0.8473951004630527 0.453992871052519 -0.2753398204849849
vn 0.9393473063068125 0.1564318484035795 -0.30521421156160944
vn 0.9393463840649295 -0.15643177449531603 -0.305217087779155
vn 0.8473964432389878 -0.4539931805366023 -0.27533517757848003
vn 0.6724978034023692 -0.7071066810231217 -0.21851051707287147
vn 0.4317720249972704 -0.8910051972705899 -0.1402948925177038
vn 0.14877482294378255 -0.987688810892786 -0.04834113047127201
vn 0.12655682062622775 0.9876888547958222 -0.0919461650374731
vn 0.3672887282627393 0.8910054944253062 -0.2668486443567878
vn 0.572059849797407 0.7071082888384049 -0.4156265103500871
vn 0.7208438070311051 0.4539891047149681 -0.5237156658579203
vn 0.7990544166271646 0.1564351794882864 -0.5805515256091309
vn 0.7990607525869805 -0.15643544467122666 -0.5805427334190342
vn 0.7208397653681964 -0.45398864345270634 -0.5237216286157131
vn 0.572061622860394 -0.7071085569426664 -0.415623613800747
vn 0.3672909840359159 -0.8910057917483725 -0.2668445467248389
vn 0.12655682062622786 -0.9876888547958221 -0.09194616503747392
vn 0.0919461650374727 0.9876888547958222 -0.12655682062622817
vn 0.26684940479985786 0.891004835221815 -0.36728977493160375
vn 0.41562734774107135 0.7071068641885491 -0.5720610023652719
vn 0.5237140922081803 0.45399435915421205 -0.7208416410548978
vn 0.5805524851097975 0.15642487267274963 -0.7990557372562647
vn 0.5805437422791738 -0.15642460747976886 -0.7990621411850849
vn 0.5237197786553112 -0.4539948204285478 -0.7208372191204354
vn 0.4156247663650298 -0.7071065960768479 -0.572063209242325
vn 0.2668459931582694 -0.8910045378643887 -0.3672929749402292
vn 0.09194616503747334 -0.987688854795822 -0.12655682062622842
vn 0.04834113047127507 0.9876888108927862 -0.14877482294378092
vn 0.1402929467631594 0.8910055699691596 -0.4317718881220065
vn 0.21850712612784914 0.7071082146033837 -0.6724972926873115
vn 0.275340375595435 0.4539893455254352 -0.8473968088896442
vn 0.3052140709668126 0.15643472100555292 -0.9393468736030265
vn 0.305216939947776 -0.15643479492521162 -0.9393459290940814
vn 0.2753358301361155 -0.45398903604967444 -0.8473984516093617
vn 0.2185099681048329 -0.7071084574969436 -0.6724961138736179
vn 0.14029459622133086 -0.8910056858129042 -0.43177111311454136
vn 0.04834113047127534 -0.987688810892786 -0.14877482294378147
vn 2.6613903422776e-16 0.9876888659344842 -0.1564311481420908
vn 8.338158268902244e-16 0.8910054067840726 -0.45399269276228366
vn 1.5577618315145135e-15 0.7071067811865481 -0.7071067811865469
vn 1.9876665573662664e-15 0.45399269276228177 -0.8910054067840736
vn 2.065405370278907e-15 0.15643114814209036 -0.9876888659344842
vn 1.822022996679872e-15 -0.15643114814209033 -0.9876888659344841
vn 2.336654174912978e-15 -0.45399269276228266 -0.8910054067840731
vn 1.3102756056192521e-15 -0.7071067811865483 -0.7071067811865467
vn 6.797254889864417e-16 -0.8910054067840726 -0.45399269276228366
vn 2.661390342277611e-16 -0.987688865934484 -0.15643114814209144
usemtl m_561eba68-831b-53e8-3dc1-14379c45fb49
f 1/1/1 2/2/1 3/3/1
f 1/4/2 4/5/2 5/6/2 2/7/2
f 4/8/3 6/9/3 7/10/3 5/11/3
f 6/12/4 8/13/4 9/14/4 7/15/4
f 8/16/5 10/17/5 11/18/5 9/19/5
f 10/20/6 12/21/6 13/22/6 11/23/6
f 12/24/7 14/25/7 15/26/7 13/27/7
f 14/28/8 16/29/8 17/30/8 15/31/8
f 16/32/9 18/33/9 19/34/9 17/35/9
f 19/36/10 18/37/10 20/38/10
f 2/39/11 21/40/11 3/41/11
f 2/42/12 5/43/12 22/44/12 21/45/12
f 5/46/13 7/47/13 23/48/13 22/49/13
f 7/50/14 9/51/14 24/52/14 23/53/14
f 9/54/15 11/55/15 25/56/15 24/57/15
f 11/58/16 13/59/16 26/60/16 25/61/16
f 13/62/17 15/63/17 27/64/17 26/65/17
f 15/66/18 17/67/18 28/68/18 27/69/18
f 17/70/19 19/71/19 29/72/19 28/73/19
f 29/74/20 19/75/20 20/76/20
f 21/77/21 30/78/21 3/79/21
f 21/80/22 22/81/22 31/82/22 30/83/22
f 22/84/23 23/85/23 32/86/23 31/87/23
f 23/88/24 24/89/24 33/90/24 32/91/24
f 24/92/25 25/93/25 34/94/25 33/95/25
f 25/96/26 26/97/26 35/98/26 34/99/26
f 26/100/27 27/101/27 36/102/27 35/103/27
f 27/104/28 28/105/28 37/106/28 36/107/28
f 28/108/29 29/109/29 38/110/29 37/111/29
f 38/112/30 29/113/30 20/114/30
f 30/115/31 39/116/31 3/117/31
f 30/118/32 31/119/32 40/120/32 39/121/32
f 31/122/33 32/123/33 41/124/33 40/125/33
f 32/126/34 33/127/34 42/128/34 41/129/34
f 33/130/35 34/131/35 43/132/35 42/133/35
f 34/134/36 35/135/36 44/136/36 43/137/36
f 35/138/37 36/139/37 45/140/37 44/141/37
f 36/142/38 37/143/38 46/144/38 45/145/38
f 37/146/39 38/147/39 47/148/39 46/149/39
f 47/150/40 38/151/40 20/152/40
f 39/153/41 48/154/41 3/155/41
f 39/156/42 40/157/42 49/158/42 48/159/42
f 40/160/43 41/161/43 50/162/43 49/163/43
f 41/164/44 42/165/44 51/166/44 50/167/44
f 42/168/45 43/169/45 52/170/45 51/171/45
f 43/172/46 44/173/46 53/174/46 52/175/46
f 44/176/47 45/177/47 54/178/47 53/179/47
f 45/180/48 46/181/48 55/182/48 54/183/48
f 46/184/49 47/185/49 56/186/49 55/187/49
f 56/188/50 47/189/50 20/190/50
f 48/191/51 57/192/51 3/193/51
f 48/194/52 49/195/52 58/196/52 57/197/52
f 49/198/53 50/199/53 59/200/53 58/201/53
f 50/202/54 51/203/54 60/204/54 59/205/54
f 51/206/55 52/207/55 61/208/55 60/209/55
f 52/210/56 53/211/56 62/212/56 61/213/56
f 53/214/57 54/215/57 63/216/57 62/217/57
f 54/218/58 55/219/58 64/220/58 63/221/58
f 55/222/59 56/223/59 65/224/59 64/225/59
f 65/226/60 56/227/60 20/228/60
f 57/229/61 66/230/61 3/231/61
f 57/232/62 58/233/62 67/234/62 66/235/62
f 58/236/63 59/237/63 68/238/63 67/239/63
f 59/240/64 60/241/64 69/242/64 68/243/64
f 60/244/65 61/245/65 70/246/65 69/247/65
f 61/248/66 62/249/66 71/250/66 70/251/66
f 62/252/67 63/253/67 72/254/67 71/255/67
f 63/256/68 64/257/68 73/258/68 72/259/68
f 64/260/69 65/261/69 74/262/69 73/263/69
f 74/264/70 65/265/70 20/266/70
f 66/267/71 75/268/71 3/269/71
f 66/270/72 67/271/72 76/272/72 75/273/72
f 67/274/73 68/275/73 77/276/73 76/277/73
f 68/278/74 69/279/74 78/280/74 77/281/74
f 69/282/75 70/283/75 79/284/75 78/285/75
f 70/286/76 71/287/76 80/288/76 79/289/76
f 71/290/77 72/291/77 81/292/77 80/293/77
f 72/294/78 73/295/78 82/296/78 81/297/78
f 73/298/79 74/299/79 83/300/79 82/301/79
f 83/302/80 74/303/80 20/304/80
f 75/305/81 84/306/81 3/307/81
f 75/308/82 76/309/82 85/310/82 84/311/82
f 76/312/83 77/313/83 86/314/83 85/315/83
f 77/316/84 78/317/84 87/318/84 86/319/84
f 78/320/85 79/321/85 88/322/85 87/323/85
f 79/324/86 80/325/86 89/326/86 88/327/86
f 80/328/87 81/329/87 90/330/87 89/331/87
f 81/332/88 82/333/88 91/334/88 90/335/88
f 82/336/89 83/337/89 92/338/89 91/339/89
f 92/340/90 83/341/90 20/342/90
f 84/343/91 93/344/91 3/345/91
f 84/346/92 85/347/92 94/348/92 93/349/92
f 85/350/93 86/351/93 95/352/93 94/353/93
f 86/354/94 87/355/94 96/356/94 95/357/94
f 87/358/95 88/359/95 97/360/95 96/361/95
f 88/362/96 89/363/96 98/364/96 97/365/96
f 89/366/97 90/367/97 99/368/97 98/369/97
f 90/370/98 91/371/98 100/372/98 99/373/98
f 91/374/99 92/375/99 101/376/99 100/377/99
f 101/378/100 92/379/100 20/380/100
f 93/381/101 102/382/101 3/383/101
f 93/384/102 94/385/102 103/386/102 102/387/102
f 94/388/103 95/389/103 104/390/103 103/391/103
f 95/392/104 96/393/104 105/394/104 104/395/104
f 96/396/105 97/397/105 106/398/105 105/399/105
f 97/400/106 98/401/106 107/402/106 106/403/106
f 98/404/107 99/405/107 108/406/107 107/407/107
f 99/408/108 100/409/108 109/410/108 108/411/108
f 100/412/109 101/413/109 110/414/109 109/415/109
f 110/416/110 101/417/110 20/418/110
f 102/419/111 111/420/111 3/421/111
f 102/422/112 103/423/112 112/424/112 111/425/112
f 103/426/113 104/427/113 113/428/113 112/429/113
f 104/430/114 105/431/114 114/432/114 113/433/114
f 105/434/115 106/435/115 115/436/115 114/437/115
f 106/438/116 107/439/116 116/440/116 115/441/116
f 107/442/117 108/443/117 117/444/117 116/445/117
f 108/446/118 109/447/118 118/448/118 117/449/118
f 109/450/119 110/451/119 119/452/119 118/453/119
f 119/454/120 110/455/120 20/456/120
f 111/457/121 120/458/121 3/459/121
f 111/460/122 112/461/122 121/462/122 120/463/122
f 112/464/123 113/465/123 122/466/123 121/467/123
f 113/468/124 114/469/124 123/470/124 122/471/124
f 114/472/125 115/473/125 124/474/125 123/475/125
f 115/476/126 116/477/126 125/478/126 124/479/126
f 116/480/127 117/481/127 126/482/127 125/483/127
f 117/484/128 118/485/128 127/486/128 126/487/128
f 118/488/129 119/489/129 128/490/129 127/491/129
f 128/492/130 119/493/130 20/494/130
f 120/495/131 129/496/131 3/497/131
f 120/498/132 121/499/132 130/500/132 129/501/132
f 121/502/133 122/503/133 131/504/133 130/505/133
f 122/506/134 123/507/134 132/508/134 131/509/134
f 123/510/135 124/511/135 133/512/135 132/513/135
f 124/514/136 125/515/136 134/516/136 133/517/136
f 125/518/137 126/519/137 135/520/137 134/521/137
f 126/522/138 127/523/138 136/524/138 135/525/138
f 127/526/139 128/527/139 137/528/139 136/529/139
f 137/530/140 128/531/140 20/532/140
f 129/533/141 138/534/141 3/535/141
f 129/536/142 130/537/142 139/538/142 138/539/142
f 130/540/143 131/541/143 140/542/143 139/543/143
f 131/544/144 132/545/144 141/546/144 140/547/144
f 132/548/145 133/549/145 142/550/145 141/551/145
f 133/552/146 134/553/146 143/554/146 142/555/146
f 134/556/147 135/557/147 144/558/147 143/559/147
f 135/560/148 136/561/148 145/562/148 144/563/148
f 136/564/149 137/565/149 146/566/149 145/567/149
f 146/568/150 137/569/150 20/570/150
f 138/571/151 147/572/151 3/573/151
f 138/574/152 139/575/152 148/576/152 147/577/152
f 139/578/153 140/579/153 149/580/153 148/581/153
f 140/582/154 141/583/154 150/584/154 149/585/154
f 141/586/155 142/587/155 151/588/155 150/589/155
f 142/590/156 143/591/156 152/592/156 151/593/156
f 143/594/157 144/595/157 153/596/157 152/597/157
f 144/598/158 145/599/158 154/600/158 153/601/158
f 145/602/159 146/603/159 155/604/159 154/605/159
f 155/606/160 146/607/160 20/608/160
f 147/609/161 156/610/161 3/611/161
f 147/612/162 148/613/162 157/614/162 156/615/162
f 148/616/163 149/617/163 158/618/163 157/619/163
f 149/620/164 150/621/164 159/622/164 158/623/164
f 150/624/165 151/625/165 160/626/165 159/627/165
f 151/628/166 152/629/166 161/630/166 160/631/166
f 152/632/167 153/633/167 162/634/167 161/635/167
f 153/636/168 154/637/168 163/638/168 162/639/168
f 154/640/169 155/641/169 164/642/169 163/643/169
f 164/644/170 155/645/170 20/646/170
f 156/647/171 165/648/171 3/649/171
f 156/650/172 157/651/172 166/652/172 165/653/172
f 157/654/173 158/655/173 167/656/173 166/657/173
f 158/658/174 159/659/174 168/660/174 167/661/174
f 159/662/175 160/663/175 169/664/175 168/665/175
f 160/666/176 161/667/176 170/668/176 169/669/176
f 161/670/177 162/671/177 171/672/177 170/673/177
f 162/674/178 163/675/178 172/676/178 171/677/178
f 163/678/179 164/679/179 173/680/179 172/681/179
f 173/682/180 164/683/180 20/684/180
f 165/685/181 174/686/181 3/687/181
f 165/688/182 166/689/182 175/690/182 174/691/182
f 166/692/183 167/693/183 176/694/183 175/695/183
f 167/696/184 168/697/184 177/698/184 176/699/184
f 168/700/185 169/701/185 178/702/185 177/703/185
f 169/704/186 170/705/186 179/706/186 178/707/186
f 170/708/187 171/709/187 180/710/187 179/711/187
f 171/712/188 172/713/188 181/714/188 180/715/188
f 172/716/189 173/717/189 182/718/189 181/719/189
f 182/720/190 173/721/190 20/722/190
f 174/723/191 1/724/191 3/725/191
f 174/726/192 175/727/192 4/728/192 1/729/192
f 175/730/193 176/731/193 6/732/193 4/733/193
f 176/734/194 177/735/194 8/736/194 6/737/194
f 177/738/195 178/739/195 10/740/195 8/741/195
f 178/742/196 179/743/196 12/744/196 10/745/196
f 179/746/197 180/747/197 14/748/197 12/749/197
f 180/750/198 181/751/198 16/752/198 14/753/198
f 181/754/199 182/755/199 18/756/199 16/757/199
f 18/758/200 182/759/200 20/760/200