# Made in Blockbench 5.1.6
mtllib dc_metro_roof_e_pillar_light_light_layer.mtl

o lamp
v -2 0.8275 -0.1875
v -2 0.8275 0.1875
v -2.4375 0.98375 0.1875
v -2.4375 0.98375 -0.1875
vt 0.22265625 0.21875
vt 0.12890625 0.21875
vt 0.12890625 0
vt 0.22265625 0
vn -0.33633639699815626 -0.9417419115948374 0
usemtl m_32daec9a-92b3-a34d-0ebb-170dd7c1c919
f 1/1/1 2/2/1 3/3/1 4/4/1
o lamp
v -0.18750000000000044 0.8275 2
v 0.18749999999999956 0.8275 2
v 0.18749999999999944 0.98375 2.4375
v -0.18750000000000056 0.98375 2.4375
vt 0.22265625 0.21875
vt 0.12890625 0.21875
vt 0.12890625 0
vt 0.22265625 0
vn 0 -0.9417419115948374 0.33633639699815626
usemtl m_32daec9a-92b3-a34d-0ebb-170dd7c1c919
f 5/5/2 6/6/2 7/7/2 8/8/2
o lamp
v 2.0000000000000004 0.8274999999999998 0.18749999999999672
v 1.9999999999999998 0.8274999999999998 -0.18750000000000328
v 2.4374999999999996 0.9837499999999998 -0.187500000000004
v 2.4375000000000004 0.9837499999999997 0.187499999999996
vt 0.22265625 0.21875
vt 0.12890625 0.21875
vt 0.12890625 0
vt 0.22265625 0
vn 0.3363363969981564 -0.9417419115948374 -5.974534591469129e-16
usemtl m_32daec9a-92b3-a34d-0ebb-170dd7c1c919
f 9/9/3 10/10/3 11/11/3 12/12/3
o lamp
v 0.18749999999999956 0.8275 -2
v -0.18750000000000044 0.8275 -2
v -0.18750000000000056 0.98375 -2.4375
v 0.18749999999999944 0.98375 -2.4375
vt 0.22265625 0.21875
vt 0.12890625 0.21875
vt 0.12890625 0
vt 0.22265625 0
vn 0 -0.9417419115948374 -0.33633639699815626
usemtl m_32daec9a-92b3-a34d-0ebb-170dd7c1c919
f 13/13/4 14/14/4 15/15/4 16/16/4