# Made in Blockbench 5.1.6
mtllib dc_metro_roof_l1l_light_layer.mtl

o part1l
v -0.07743422597249654 0.6416943923282749 0.4375000000000009
v -0.07743422597249654 0.6416943923282749 0.4375000000000009
v -0.0937500000000026 0.7656250000000012 0.43750000000000056
v -0.0937500000000026 0.7656250000000012 0.43750000000000056
v -0.07743422597249362 0.6416943923282727 -0.4374999999999991
v -0.09374999999999968 0.7656249999999991 -0.43749999999999944
v -0.07743422597249362 0.6416943923282727 -0.4374999999999991
v -0.09374999999999968 0.7656249999999991 -0.43749999999999944
vt 0.125 0.875
vt 0.125 0.875
vt 0.125 1
vt 0.125 1
vt 0 0.875
vt 0.875 0.875
vt 0.875 1
vt 0 1
vt 0 0.875
vt 0 0.875
vt 0 1
vt 0 1
vt 0 0.875
vt 0.875 0.875
vt 0.875 1
vt 0 1
vt 0 0.125
vt 0 0.125
vt 0 1
vt 0 1
vt 0 0.125
vt 0 0.125
vt 0 1
vt 0 1
vn 0 0 0
vn -0.9914448613738108 -0.13052619222004844 -2.987506110291351e-15
vn 0 0 0
vn 0.9914448613738108 0.13052619222004844 2.9875061102913514e-15
vn 0 0 0
vn 0 0 0
usemtl m_f9260e11-d7df-7433-ca4e-af1f5f4c9677
f 1/1/1 2/2/1 3/3/1 4/4/1
f 5/5/2 1/6/2 4/7/2 6/8/2
f 7/9/3 5/10/3 6/11/3 8/12/3
f 2/13/4 7/14/4 8/15/4 3/16/4
f 8/17/5 6/18/5 4/19/5 3/20/5
f 2/21/6 1/22/6 5/23/6 7/24/6
o part1l
v 0.07743422597249355 0.6416943923282737 -0.4375
v 0.07743422597249355 0.6416943923282737 -0.4375
v 0.09375 0.765625 -0.4375
v 0.09375 0.765625 -0.4375
v 0.07743422597249355 0.6416943923282737 0.4375
v 0.09375 0.765625 0.4375
v 0.07743422597249355 0.6416943923282737 0.4375
v 0.09375 0.765625 0.4375
vt 0.125 0.875
vt 0.125 0.875
vt 0.125 1
vt 0.125 1
vt 0 0.875
vt 0.875 0.875
vt 0.875 1
vt 0 1
vt 0 0.875
vt 0 0.875
vt 0 1
vt 0 1
vt 0 0.875
vt 0.875 0.875
vt 0.875 1
vt 0 1
vt 0 0.125
vt 0 0.125
vt 0 1
vt 0 1
vt 0 0.125
vt 0 0.125
vt 0 1
vt 0 1
vn 0 0 0
vn 0.9914448613738104 -0.13052619222005163 0
vn 0 0 0
vn -0.9914448613738104 0.13052619222005163 0
vn 0 0 0
vn 0 0 0
usemtl m_f9260e11-d7df-7433-ca4e-af1f5f4c9677
f 9/25/7 10/26/7 11/27/7 12/28/7
f 13/29/8 9/30/8 12/31/8 14/32/8
f 15/33/9 13/34/9 14/35/9 16/36/9
f 10/37/10 15/38/10 16/39/10 11/40/10
f 16/41/11 14/42/11 12/43/11 11/44/11
f 10/45/12 9/46/12 13/47/12 15/48/12