# Made in Blockbench 5.1.6
mtllib dc_metro_roof_e_pillar_light.mtl

o pole
v 0.25 0 -0.125
v -0.25 0 -0.125
v -0.25 1.125 -0.125
v 0.25 1.125 -0.125
v 0.25 0 0.125
v 0.25 1.125 0.125
v -0.25 0 0.125
v -0.25 1.125 0.125
vt 0 0.875
vt 0.0625 0.875
vt 0.0625 1
vt 0 1
vt 0 0.875
vt 0.03125 0.875
vt 0.03125 1
vt 0 1
vt 0 0.875
vt 0.0625 0.875
vt 0.0625 1
vt 0 1
vt 0 0.875
vt 0.03125 0.875
vt 0.03125 1
vt 0 1
vt 0 0.96875
vt 0.0625 0.96875
vt 0.0625 1
vt 0 1
vt 0 0.96875
vt 0.0625 0.96875
vt 0.0625 1
vt 0 1
vn 0 0 -1
vn 1 0 0
vn 0 0 1
vn -1 0 0
vn 0 1 0
vn 0 -1 0
usemtl m_9a7b2abd-aab2-c15d-62dc-008388863ee5
f 1/1/1 2/2/1 3/3/1 4/4/1
f 5/5/2 1/6/2 4/7/2 6/8/2
f 7/9/3 5/10/3 6/11/3 8/12/3
f 2/13/4 7/14/4 8/15/4 3/16/4
f 8/17/5 6/18/5 4/19/5 3/20/5
f 2/21/6 1/22/6 5/23/6 7/24/6
o pole
v 0.125 0 -0.25
v -0.125 0 -0.25
v -0.125 1.125 -0.25
v 0.125 1.125 -0.25
v 0.125 0 0.25
v 0.125 1.125 0.25
v -0.125 0 0.25
v -0.125 1.125 0.25
vt 0 0.875
vt 0.03125 0.875
vt 0.03125 1
vt 0 1
vt 0 0.875
vt 0.0625 0.875
vt 0.0625 1
vt 0 1
vt 0 0.875
vt 0.03125 0.875
vt 0.03125 1
vt 0 1
vt 0 0.875
vt 0.0625 0.875
vt 0.0625 1
vt 0 1
vt 0.0625 0.96875
vt 0.0625 1
vt 0 1
vt 0 0.96875
vt 0 1
vt 0 0.96875
vt 0.0625 0.96875
vt 0.0625 1
vn 0 0 -1
vn 1 0 0
vn 0 0 1
vn -1 0 0
vn 0 1 0
vn 0 -1 0
usemtl m_9a7b2abd-aab2-c15d-62dc-008388863ee5
f 9/25/7 10/26/7 11/27/7 12/28/7
f 13/29/8 9/30/8 12/31/8 14/32/8
f 15/33/9 13/34/9 14/35/9 16/36/9
f 10/37/10 15/38/10 16/39/10 11/40/10
f 16/41/11 14/42/11 12/43/11 11/44/11
f 10/45/12 9/46/12 13/47/12 15/48/12
o pole
v 0.251464849059466 0 -0.12418562844588742
v 0.1255114536606122 0 -0.2501390238447412
v 0.1255114536606122 1.125 -0.2501390238447412
v 0.251464849059466 1.125 -0.12418562844588742
v -0.12418562844588746 0 0.2514648490594659
v -0.12418562844588746 1.125 0.2514648490594659
v -0.2501390238447412 0 0.12551145366061217
v -0.2501390238447412 1.125 0.12551145366061217
vt 0.003125 0.875
vt 0.025390625 0.875
vt 0.025390625 1
vt 0.003125 1
vt 0 0.875
vt 0.06640625 0.875
vt 0.06640625 1
vt 0 1
vt 0.005859375 0.875
vt 0.028125 0.875
vt 0.028125 1
vt 0.005859375 1
vt 0 0.875
vt 0.06640625 0.875
vt 0.06640625 1
vt 0 1
vt 0.06640625 0.971875
vt 0.06640625 0.994140625
vt 0 0.994140625
vt 0 0.971875
vt 0 0.994140625
vt 0 0.971875
vt 0.06640625 0.971875
vt 0.06640625 0.994140625
vn 0.7071067811865475 0 -0.7071067811865477
vn 0.7071067811865475 0 0.7071067811865476
vn -0.7071067811865477 0 0.7071067811865475
vn -0.7071067811865475 0 -0.7071067811865476
vn 0 1 0
vn 0 -1 0
usemtl m_9a7b2abd-aab2-c15d-62dc-008388863ee5
f 17/49/13 18/50/13 19/51/13 20/52/13
f 21/53/14 17/54/14 20/55/14 22/56/14
f 23/57/15 21/58/15 22/59/15 24/60/15
f 18/61/16 23/62/16 24/63/16 19/64/16
f 24/65/17 22/66/17 20/67/17 19/68/17
f 18/69/18 17/70/18 21/71/18 23/72/18
o pole
v -0.12418562844588746 0 -0.2514648490594659
v -0.2501390238447412 0 -0.12551145366061217
v -0.2501390238447412 1.125 -0.12551145366061217
v -0.12418562844588746 1.125 -0.2514648490594659
v 0.251464849059466 0 0.12418562844588742
v 0.251464849059466 1.125 0.12418562844588742
v 0.1255114536606122 0 0.2501390238447412
v 0.1255114536606122 1.125 0.2501390238447412
vt 0.003125 0.875
vt 0.025390625 0.875
vt 0.025390625 1
vt 0.003125 1
vt 0 0.875
vt 0.06640625 0.875
vt 0.06640625 1
vt 0 1
vt 0.005859375 0.875
vt 0.028125 0.875
vt 0.028125 1
vt 0.005859375 1
vt 0 0.875
vt 0.06640625 0.875
vt 0.06640625 1
vt 0 1
vt 0.06640625 0.971875
vt 0.06640625 0.994140625
vt 0 0.994140625
vt 0 0.971875
vt 0 0.994140625
vt 0 0.971875
vt 0.06640625 0.971875
vt 0.06640625 0.994140625
vn -0.7071067811865477 0 -0.7071067811865475
vn 0.7071067811865475 0 -0.7071067811865476
vn 0.7071067811865475 0 0.7071067811865477
vn -0.7071067811865475 0 0.7071067811865476
vn 0 1 0
vn 0 -1 0
usemtl m_9a7b2abd-aab2-c15d-62dc-008388863ee5
f 25/73/19 26/74/19 27/75/19 28/76/19
f 29/77/20 25/78/20 28/79/20 30/80/20
f 31/81/21 29/82/21 30/83/21 32/84/21
f 26/85/22 31/86/22 32/87/22 27/88/22
f 32/89/23 30/90/23 28/91/23 27/92/23
f 26/93/24 25/94/24 29/95/24 31/96/24
o bar
v 1.75 0.0625 0
v -1.75 0.0625 0
v -1.75 1.0625 0
v 1.75 1.0625 0
v -1.75 0.0625 0
v 1.75 0.0625 0
v 1.75 1.0625 0
v -1.75 1.0625 0
vt 0 0.5
vt 0.875 0.5
vt 0.875 1
vt 0 1
vt 0 0.5
vt 0.875 0.5
vt 0.875 1
vt 0 1
vn 0 0 -1
vn 0 0 1
usemtl m_940640db-984b-503a-e142-2b28286b3304
f 33/97/25 34/98/25 35/99/25 36/100/25
f 37/101/26 38/102/26 39/103/26 40/104/26
o bar
v 3.885780586188048e-16 0.0625 1.75
v -3.885780586188048e-16 0.0625 -1.75
v -3.885780586188048e-16 1.0625 -1.75
v 3.885780586188048e-16 1.0625 1.75
v -3.885780586188048e-16 0.0625 -1.75
v 3.885780586188048e-16 0.0625 1.75
v 3.885780586188048e-16 1.0625 1.75
v -3.885780586188048e-16 1.0625 -1.75
vt 0 0.5
vt 0.875 0.5
vt 0.875 1
vt 0 1
vt 0 0.5
vt 0.875 0.5
vt 0.875 1
vt 0 1
vn 1 0 -2.220446049250313e-16
vn -1 0 2.220446049250313e-16
usemtl m_940640db-984b-503a-e142-2b28286b3304
f 41/105/27 42/106/27 43/107/27 44/108/27
f 45/109/28 46/110/28 47/111/28 48/112/28
o lamp
v -1.75 0.828125 -0.1875
v -2 0.828125 -0.1875
v -2 1.015625 -0.1875
v -1.75 1.015625 -0.1875
v -1.75 0.828125 0.1875
v -1.75 1.015625 0.1875
v -2 0.828125 0.1875
v -2 1.015625 0.1875
vt 0.005859375 0.21484375
vt 0.013671875 0.21484375
vt 0.013671875 0.2265625
vt 0.005859375 0.2265625
vt 0.0078125 0.21484375
vt 0.01953125 0.21484375
vt 0.01953125 0.2265625
vt 0.0078125 0.2265625
vt 0.01953125 0.21484375
vt 0.02734375 0.21484375
vt 0.02734375 0.2265625
vt 0.01953125 0.2265625
vt 0.005859375 0.21484375
vt 0.017578125 0.21484375
vt 0.017578125 0.2265625
vt 0.005859375 0.2265625
vt 0.01953125 0.203125
vt 0.02734375 0.203125
vt 0.02734375 0.2265625
vt 0.01953125 0.2265625
vt 0.01953125 0.19921875
vt 0.02734375 0.19921875
vt 0.02734375 0.22265625
vt 0.01953125 0.22265625
vn 0 0 -1
vn 1 0 0
vn 0 0 1
vn -1 0 0
vn 0 1 0
vn 0 -1 0
usemtl m_940640db-984b-503a-e142-2b28286b3304
f 49/113/29 50/114/29 51/115/29 52/116/29
f 53/117/30 49/118/30 52/119/30 54/120/30
f 55/121/31 53/122/31 54/123/31 56/124/31
f 50/125/32 55/126/32 56/127/32 51/128/32
f 56/129/33 54/130/33 52/131/33 51/132/33
f 50/133/34 49/134/34 53/135/34 55/136/34
o lamp
v -2 0.828125 -0.1875
v -2 1.015625 -0.1875
v -2 1.015625 0.1875
v -2 0.828125 0.1875
v -2.4375 0.984375 0.1875
v -2.4375 1.015625 0.1875
v -2.4375 1.015625 -0.1875
v -2.4375 0.984375 -0.1875
vt 0.013671875 0.98828125
vt 0.013671875 1
vt 0.001953125 1
vt 0.001953125 0.98828125
vt 0.01953125 0.17578125
vt 0.01953125 0.1875
vt 0.0078125 0.1875
vt 0.0078125 0.17578125
vt 0.01953125 0.1640625
vt 0.01953125 0.1875
vt 0.0078125 0.1875
vt 0.0078125 0.1640625
vt 0.01953125 0.17578125
vt 0.01953125 0.1875
vt 0.0078125 0.1875
vt 0.0078125 0.17578125
vt 0.029296875 0.17578125
vt 0.029296875 0.1875
vt 0.017578125 0.1875
vt 0.017578125 0.17578125
vn 1 0 0
vn -1 0 0
vn 0 1 0
vn 0 0 1
vn 0 0 -1
usemtl none
f 57/137/35 58/138/35 59/139/35 60/140/35
usemtl m_940640db-984b-503a-e142-2b28286b3304
f 61/141/36 62/142/36 63/143/36 64/144/36
f 59/145/37 58/146/37 63/147/37 62/148/37
f 60/149/38 59/150/38 62/151/38 61/152/38
f 64/153/39 63/154/39 58/155/39 57/156/39
o lamp
v -0.18750000000000044 0.828125 2
v -0.18750000000000044 1.015625 2
v 0.18749999999999956 1.015625 2
v 0.18749999999999956 0.828125 2
v 0.18749999999999944 0.984375 2.4375
v 0.18749999999999944 1.015625 2.4375
v -0.18750000000000056 1.015625 2.4375
v -0.18750000000000056 0.984375 2.4375
vt 0.013671875 0.98828125
vt 0.013671875 1
vt 0.001953125 1
vt 0.001953125 0.98828125
vt 0.01953125 0.17578125
vt 0.01953125 0.1875
vt 0.0078125 0.1875
vt 0.0078125 0.17578125
vt 0.01953125 0.1640625
vt 0.01953125 0.1875
vt 0.0078125 0.1875
vt 0.0078125 0.1640625
vt 0.01953125 0.17578125
vt 0.01953125 0.1875
vt 0.0078125 0.1875
vt 0.0078125 0.17578125
vt 0.029296875 0.17578125
vt 0.029296875 0.1875
vt 0.017578125 0.1875
vt 0.017578125 0.17578125
vn 0 0 -1
vn 0 0 1
vn 0 1 0
vn 1 0 2.5376526277146434e-16
vn -1 0 -2.5376526277146434e-16
usemtl none
f 65/157/40 66/158/40 67/159/40 68/160/40
usemtl m_940640db-984b-503a-e142-2b28286b3304
f 69/161/41 70/162/41 71/163/41 72/164/41
f 67/165/42 66/166/42 71/167/42 70/168/42
f 68/169/43 67/170/43 70/171/43 69/172/43
f 72/173/44 71/174/44 66/175/44 65/176/44
o lamp
v -0.1875000000000004 0.828125 1.75
v -0.18750000000000044 0.828125 2
v -0.18750000000000044 1.015625 2
v -0.1875000000000004 1.015625 1.75
v 0.1874999999999996 0.828125 1.75
v 0.1874999999999996 1.015625 1.75
v 0.18749999999999956 0.828125 2
v 0.18749999999999956 1.015625 2
vt 0.005859375 0.21484375
vt 0.013671875 0.21484375
vt 0.013671875 0.2265625
vt 0.005859375 0.2265625
vt 0.0078125 0.21484375
vt 0.01953125 0.21484375
vt 0.01953125 0.2265625
vt 0.0078125 0.2265625
vt 0.01953125 0.21484375
vt 0.02734375 0.21484375
vt 0.02734375 0.2265625
vt 0.01953125 0.2265625
vt 0.005859375 0.21484375
vt 0.017578125 0.21484375
vt 0.017578125 0.2265625
vt 0.005859375 0.2265625
vt 0.01953125 0.203125
vt 0.02734375 0.203125
vt 0.02734375 0.2265625
vt 0.01953125 0.2265625
vt 0.01953125 0.19921875
vt 0.02734375 0.19921875
vt 0.02734375 0.22265625
vt 0.01953125 0.22265625
vn -1 0 -2.220446049250313e-16
vn 0 0 -1
vn 1 0 2.220446049250313e-16
vn 0 0 1
vn 0 1 0
vn 0 -1 0
usemtl m_940640db-984b-503a-e142-2b28286b3304
f 73/177/45 74/178/45 75/179/45 76/180/45
f 77/181/46 73/182/46 76/183/46 78/184/46
f 79/185/47 77/186/47 78/187/47 80/188/47
f 74/189/48 79/190/48 80/191/48 75/192/48
f 80/193/49 78/194/49 76/195/49 75/196/49
f 74/197/50 73/198/50 77/199/50 79/200/50
o lamp
v 2.0000000000000004 0.8281249999999998 0.18749999999999672
v 2.0000000000000004 1.0156249999999998 0.18749999999999672
v 1.9999999999999998 1.0156249999999998 -0.18750000000000328
v 1.9999999999999998 0.8281249999999998 -0.18750000000000328
v 2.4374999999999996 0.9843749999999998 -0.187500000000004
v 2.4374999999999996 1.0156249999999998 -0.187500000000004
v 2.4375000000000004 1.0156249999999996 0.187499999999996
v 2.4375000000000004 0.9843749999999997 0.187499999999996
vt 0.013671875 0.98828125
vt 0.013671875 1
vt 0.001953125 1
vt 0.001953125 0.98828125
vt 0.01953125 0.17578125
vt 0.01953125 0.1875
vt 0.0078125 0.1875
vt 0.0078125 0.17578125
vt 0.01953125 0.1640625
vt 0.01953125 0.1875
vt 0.0078125 0.1875
vt 0.0078125 0.1640625
vt 0.01953125 0.17578125
vt 0.01953125 0.1875
vt 0.0078125 0.1875
vt 0.0078125 0.17578125
vt 0.029296875 0.17578125
vt 0.029296875 0.1875
vt 0.017578125 0.1875
vt 0.017578125 0.17578125
vn -1 0 1.7763568394002505e-15
vn 1 0 -2.3684757858670005e-15
vn 5.075305255429287e-16 1 -9.015553202525849e-31
vn -1.6494742080145191e-15 0 -1
vn 1.6494742080145183e-15 0 1
usemtl none
f 81/201/51 82/202/51 83/203/51 84/204/51
usemtl m_940640db-984b-503a-e142-2b28286b3304
f 85/205/52 86/206/52 87/207/52 88/208/52
f 83/209/53 82/210/53 87/211/53 86/212/53
f 84/213/54 83/214/54 86/215/54 85/216/54
f 88/217/55 87/218/55 82/219/55 81/220/55
o lamp
v 1.7500000000000002 0.8281249999999998 0.1874999999999971
v 2.0000000000000004 0.8281249999999998 0.18749999999999672
v 2.0000000000000004 1.0156249999999998 0.18749999999999672
v 1.7500000000000002 1.0156249999999998 0.18749999999999714
v 1.7499999999999998 0.8281249999999998 -0.1875000000000029
v 1.7499999999999998 1.0156249999999998 -0.18750000000000286
v 1.9999999999999998 0.8281249999999998 -0.18750000000000328
v 1.9999999999999998 1.0156249999999998 -0.18750000000000328
vt 0.005859375 0.21484375
vt 0.013671875 0.21484375
vt 0.013671875 0.2265625
vt 0.005859375 0.2265625
vt 0.0078125 0.21484375
vt 0.01953125 0.21484375
vt 0.01953125 0.2265625
vt 0.0078125 0.2265625
vt 0.01953125 0.21484375
vt 0.02734375 0.21484375
vt 0.02734375 0.2265625
vt 0.01953125 0.2265625
vt 0.005859375 0.21484375
vt 0.017578125 0.21484375
vt 0.017578125 0.2265625
vt 0.005859375 0.2265625
vt 0.01953125 0.203125
vt 0.02734375 0.203125
vt 0.02734375 0.2265625
vt 0.01953125 0.2265625
vt 0.01953125 0.19921875
vt 0.02734375 0.19921875
vt 0.02734375 0.22265625
vt 0.01953125 0.22265625
vn 1.5543122344752178e-15 0 1
vn -1 0 1.1842378929335002e-15
vn -1.5543122344752192e-15 1.4802973661668753e-16 -1
vn 1 0 -1.7763568394002505e-15
vn 0 1 0
vn 0 -1 0
usemtl m_940640db-984b-503a-e142-2b28286b3304
f 89/221/56 90/222/56 91/223/56 92/224/56
f 93/225/57 89/226/57 92/227/57 94/228/57
f 95/229/58 93/230/58 94/231/58 96/232/58
f 90/233/59 95/234/59 96/235/59 91/236/59
f 96/237/60 94/238/60 92/239/60 91/240/60
f 90/241/61 89/242/61 93/243/61 95/244/61
o lamp
v 0.18749999999999956 0.828125 -2
v 0.18749999999999956 1.015625 -2
v -0.18750000000000044 1.015625 -2
v -0.18750000000000044 0.828125 -2
v -0.18750000000000056 0.984375 -2.4375
v -0.18750000000000056 1.015625 -2.4375
v 0.18749999999999944 1.015625 -2.4375
v 0.18749999999999944 0.984375 -2.4375
vt 0.013671875 0.98828125
vt 0.013671875 1
vt 0.001953125 1
vt 0.001953125 0.98828125
vt 0.01953125 0.17578125
vt 0.01953125 0.1875
vt 0.0078125 0.1875
vt 0.0078125 0.17578125
vt 0.01953125 0.1640625
vt 0.01953125 0.1875
vt 0.0078125 0.1875
vt 0.0078125 0.1640625
vt 0.01953125 0.17578125
vt 0.01953125 0.1875
vt 0.0078125 0.1875
vt 0.0078125 0.17578125
vt 0.029296875 0.17578125
vt 0.029296875 0.1875
vt 0.017578125 0.1875
vt 0.017578125 0.17578125
vn 0 0 1
vn 0 0 -1
vn 0 1 0
vn -1 0 2.5376526277146434e-16
vn 1 0 -2.5376526277146434e-16
usemtl none
f 97/245/62 98/246/62 99/247/62 100/248/62
usemtl m_940640db-984b-503a-e142-2b28286b3304
f 101/249/63 102/250/63 103/251/63 104/252/63
f 99/253/64 98/254/64 103/255/64 102/256/64
f 100/257/65 99/258/65 102/259/65 101/260/65
f 104/261/66 103/262/66 98/263/66 97/264/66
o lamp
v 0.1874999999999996 0.828125 -1.75
v 0.18749999999999956 0.828125 -2
v 0.18749999999999956 1.015625 -2
v 0.1874999999999996 1.015625 -1.75
v -0.1875000000000004 0.828125 -1.75
v -0.1875000000000004 1.015625 -1.75
v -0.18750000000000044 0.828125 -2
v -0.18750000000000044 1.015625 -2
vt 0.005859375 0.21484375
vt 0.013671875 0.21484375
vt 0.013671875 0.2265625
vt 0.005859375 0.2265625
vt 0.0078125 0.21484375
vt 0.01953125 0.21484375
vt 0.01953125 0.2265625
vt 0.0078125 0.2265625
vt 0.01953125 0.21484375
vt 0.02734375 0.21484375
vt 0.02734375 0.2265625
vt 0.01953125 0.2265625
vt 0.005859375 0.21484375
vt 0.017578125 0.21484375
vt 0.017578125 0.2265625
vt 0.005859375 0.2265625
vt 0.01953125 0.203125
vt 0.02734375 0.203125
vt 0.02734375 0.2265625
vt 0.01953125 0.2265625
vt 0.01953125 0.19921875
vt 0.02734375 0.19921875
vt 0.02734375 0.22265625
vt 0.01953125 0.22265625
vn 1 0 -2.220446049250313e-16
vn 0 0 1
vn -1 0 2.220446049250313e-16
vn 0 0 -1
vn 0 1 0
vn 0 -1 0
usemtl m_940640db-984b-503a-e142-2b28286b3304
f 105/265/67 106/266/67 107/267/67 108/268/67
f 109/269/68 105/270/68 108/271/68 110/272/68
f 111/273/69 109/274/69 110/275/69 112/276/69
f 106/277/70 111/278/70 112/279/70 107/280/70
f 112/281/71 110/282/71 108/283/71 107/284/71
f 106/285/72 105/286/72 109/287/72 111/288/72