# Made in Blockbench 5.1.6
mtllib dc_metro_signal_light_1_red.mtl

o light
v -1.879283765641541e-18 0.8828125 0.088125
v -1.879283765641541e-18 1.0859375 0.088125
v 0.013606794928142941 1.0723307050718571 0.09984374999999998
v 0.023567660143714093 1.03515625 0.10842247040119776
v 0.02721358985628589 0.984375 0.11156249999999998
v 0.023567660143714097 0.93359375 0.10842247040119778
v 0.013606794928142941 0.896419294928143 0.09984374999999998
v 0.03717445507185703 1.0723307050718571 0.09670372040119776
v 0.06438804492814294 1.03515625 0.10298377959880221
v 0.07434891014371407 0.984375 0.10528244080239554
v 0.06438804492814294 0.93359375 0.10298377959880221
v 0.03717445507185703 0.896419294928143 0.09670372040119776
v 0.05078124999999998 1.0723307050718571 0.09126502959880221
v 0.08795570507185704 1.03515625 0.09356369080239554
v 0.1015625 0.984375 0.09440505919760443
v 0.08795570507185704 0.93359375 0.09356369080239554
v 0.05078124999999998 0.896419294928143 0.09126502959880221
v -0.050781249999999986 1.0723307050718571 0.0912650295988022
v -0.08795570507185704 1.03515625 0.09356369080239554
v -0.1015625 0.984375 0.09440505919760442
v -0.08795570507185707 0.93359375 0.09356369080239554
v -0.050781249999999986 0.896419294928143 0.0912650295988022
v -0.03717445507185704 1.0723307050718571 0.09670372040119776
v -0.06438804492814296 1.03515625 0.1029837795988022
v -0.0743489101437141 0.984375 0.10528244080239554
v -0.06438804492814296 0.93359375 0.1029837795988022
v -0.03717445507185704 0.896419294928143 0.09670372040119776
v -0.013606794928142943 1.0723307050718571 0.09984374999999998
v -0.02356766014371409 1.03515625 0.10842247040119776
v -0.027213589856285886 0.984375 0.11156249999999998
v -0.023567660143714093 0.93359375 0.10842247040119778
v -0.013606794928142943 0.896419294928143 0.09984374999999998
v 0.05078124999999998 1.0723307050718571 0.08498497040119778
v 0.08795570507185704 1.03515625 0.08268630919760443
v 0.1015625 0.984375 0.08184494080239554
v 0.08795570507185704 0.93359375 0.08268630919760442
v 0.05078124999999998 0.896419294928143 0.08498497040119778
v -0.050781249999999986 1.0723307050718571 0.08498497040119778
v -0.08795570507185704 1.03515625 0.08268630919760443
v -0.10156249999999996 0.984375 0.08184494080239556
v -0.08795570507185704 0.93359375 0.08268630919760443
v -0.050781249999999986 0.896419294928143 0.08498497040119778
vt 0.765453125 0.584196875
vt 0.77734375 0.584196875
vt 0.759484375 0.59375
vt 0.43575868202689216 0.3388991467091741
vt 0.43996272236960593 0.3196367491218419
vt 0.4605525642691697 0.3194571706108944
vt 0.4476488548039206 0.33879544413910956
vt 0.43996272236960593 0.3196367491218419
vt 0.44134067533377497 0.2941706379563309
vt 0.4651147711255311 0.29396328732478016
vt 0.4605525642691697 0.3194571706108944
vt 0.44134067533377497 0.2941706379563309
vt 0.43951875 0.2687324351828688
vt 0.46010859189956377 0.2685528566719214
vt 0.4651147711255311 0.29396328732478016
vt 0.4395433417206539 0.2675353517874942
vt 0.4361271427028235 0.24811774379149742
vt 0.44800323127766206 0.24870552185608685
vt 0.4601087944459132 0.2685531887566348
vt 0.44800323127766206 0.24870552185608685
vt 0.4361271427028235 0.24811774379149742
vt 0.4306379201970438 0.23828125
vt 0.7585586320239469 0.44905990985987465
vt 0.7617413679760531 0.4424625
vt 0.7633100502110822 0.46874886446427366
vt 0.4509119459985184 0.34022180884874564
vt 0.46173250846624525 0.3196458062495976
vt 0.47441672831188303 0.3192426564038161
vt 0.45823324895793116 0.33998911167107704
vt 0.46173250846624525 0.3196458062495976
vt 0.4651153069552984 0.29396600709659193
vt 0.47976103629688804 0.2935005134677149
vt 0.47441672831188303 0.3192426564038161
vt 0.4651153069552984 0.29396600709659193
vt 0.46010859189956377 0.2685528566719214
vt 0.47279281174520155 0.2681497068261399
vt 0.47976103629688804 0.2935005134677149
vt 0.46010859189956377 0.2685528566719214
vt 0.44800323127766206 0.24870552185608685
vt 0.4553245342370748 0.24847282467841836
vt 0.47279281174520155 0.2681497068261399
vt 0.6596038679760531 0.44035
vt 0.6564211320239469 0.43375259014012535
vt 0.6611725502110822 0.41406363553572634
vt 0.7622711320239469 0.6612125
vt 0.7654538679760531 0.6678099098598747
vt 0.7607024497889178 0.6874988644642737
vt 0.3972355010420689 0.33998911167107704
vt 0.38105202168811697 0.3192426564038161
vt 0.39373624153375475 0.3196458062495976
vt 0.4045568040014816 0.34022180884874553
vt 0.38105202168811697 0.3192426564038161
vt 0.37570771370311196 0.2935005134677149
vt 0.3903534430447016 0.29396600709659193
vt 0.39373624153375475 0.3196458062495976
vt 0.37570771370311196 0.2935005134677149
vt 0.38267593825479845 0.2681497068261399
vt 0.39536015810043623 0.2685528566719214
vt 0.3903534430447016 0.29396600709659193
vt 0.38267593825479845 0.2681497068261399
vt 0.4001442157629252 0.24847282467841836
vt 0.40746551872233794 0.24870552185608685
vt 0.39536015810043623 0.2685528566719214
vt 0.7648788679760531 0.39859634014012535
vt 0.7616961320239469 0.40519375
vt 0.7601274497889178 0.37890738553572634
vt 0.7578125 0.521696875
vt 0.769703125 0.521696875
vt 0.775671875 0.53125
vt 0.4078198951960795 0.33879544413910956
vt 0.3949161857308303 0.3194571706108944
vt 0.41550602763039407 0.3196367491218419
vt 0.41971006797310784 0.3388991467091741
vt 0.3949161857308303 0.3194571706108944
vt 0.3903539788744689 0.29396328732478016
vt 0.41412807466622503 0.2941706379563309
vt 0.41550602763039407 0.3196367491218419
vt 0.3903539788744689 0.29396328732478016
vt 0.39536015810043623 0.2685528566719214
vt 0.41595 0.2687324351828688
vt 0.41412807466622503 0.2941706379563309
vt 0.3953599555540868 0.2685531887566348
vt 0.40746551872233794 0.24870552185608685
vt 0.4193416072971765 0.24811774379149742
vt 0.4159254082793461 0.2675353517874942
vt 0.4193416072971765 0.24811774379149742
vt 0.40746551872233794 0.24870552185608685
vt 0.4248308298029562 0.23828125
vt 0.4217107957628003 0.33903234849181607
vt 0.4353149759164125 0.3387950271683663
vt 0.42866948302891994 0.3478904470357246
vt 0.4217107957628003 0.33903234849181607
vt 0.41639759582637526 0.3200471336392505
vt 0.43996276043789184 0.31963604557736314
vt 0.4353149759164125 0.3387950271683663
vt 0.41639759582637526 0.3200471336392505
vt 0.41413231502655057 0.29464528060323025
vt 0.44134067533377497 0.2941706379563309
vt 0.43996276043789184 0.31963604557736314
vt 0.414128125 0.2941699351828688
vt 0.41595 0.2687324351828688
vt 0.43951875 0.2687324351828688
vt 0.441340625 0.2941699351828688
vt 0.4160522114120072 0.26562054113703637
vt 0.42256581785947434 0.24701297795401822
vt 0.4361271427028235 0.24811774379149742
vt 0.4395431420432748 0.26753421682520084
vt 0.4361271427028235 0.24811774379149742
vt 0.42256581785947434 0.24701297795401822
vt 0.43007546334294905 0.23861687987254143
vt 0.7617413679760531 0.4424625
vt 0.7648788679760531 0.4424625
vt 0.7633101179760531 0.46875
vt 0.26015 0.28125
vt 0.259 0.2549625
vt 0.2644375 0.2549625
vt 0.2632875 0.28125
vt 0.259 0.2549625
vt 0.258578125 0.22867499999999996
vt 0.264859375 0.22867499999999996
vt 0.2644375 0.2549625
vt 0.258578125 0.22867499999999996
vt 0.259 0.20238749999999994
vt 0.2644375 0.20238749999999994
vt 0.264859375 0.22867499999999996
vt 0.6584538679760531 0.46663750000000004
vt 0.6596038679760531 0.44035
vt 0.6627413679760531 0.44035
vt 0.6638913679760531 0.46663750000000004
vt 0.6627413679760531 0.44035
vt 0.6596038679760531 0.44035
vt 0.6611726179760531 0.4140625
vt 0.7591336320239469 0.6612125
vt 0.7622711320239469 0.6612125
vt 0.7607023820239469 0.6875
vt 0.7591336320239469 0.6612125
vt 0.7579836320239469 0.634925
vt 0.7634211320239469 0.634925
vt 0.7622711320239469 0.6612125
vt 0.3215 0.27808125000000006
vt 0.321078125 0.25179375000000004
vt 0.327359375 0.25179375000000004
vt 0.3269375 0.27808125000000006
vt 0.321078125 0.25179375000000004
vt 0.3215 0.22550625000000002
vt 0.3269375 0.22550625000000002
vt 0.327359375 0.25179375000000004
vt 0.3215 0.22550625000000002
vt 0.32265 0.19921875
vt 0.3257875 0.19921875
vt 0.3269375 0.22550625000000002
vt 0.7616961320239469 0.40519375
vt 0.7585586320239469 0.40519375
vt 0.7601273820239469 0.37890625
vn 0.09405288442543687 0.702020286548267 0.7059189558341272
vn 0.12768847961381227 0.25537695922762477 0.9583727150068313
vn 0.13173810494196755 0.07059823766321335 0.9887673945600896
vn 0.13173810494196758 -0.07059823766321331 0.9887673945600894
vn 0.1276884796138124 -0.25537695922762466 0.9583727150068315
vn 0.09405288442543687 -0.702020286548267 0.7059189558341272
vn 0.1967596954282177 0.8479164433410358 0.49226347352498456
vn 0.34114411961050645 0.393919298579168 0.8534918135881967
vn 0.36873045332435467 0.11408559929220616 0.9225087147693262
vn 0.368730453324355 -0.11408559929220628 0.922508714769326
vn 0.34114411961050645 -0.3939192985791677 0.8534918135881968
vn 0.1967596954282177 -0.8479164433410358 0.49226347352498456
vn -0.1967596954282178 0.8479164433410359 0.4922634735249843
vn -0.3411441196105069 0.3939192985791682 0.8534918135881964
vn -0.3687304533243553 0.11408559929220646 0.9225087147693259
vn -0.368730453324355 -0.11408559929220626 0.9225087147693263
vn -0.3411441196105067 -0.39391929857916796 0.8534918135881966
vn -0.1967596954282178 -0.8479164433410359 0.4922634735249843
vn -0.09405288442543686 0.702020286548267 0.7059189558341272
vn -0.12768847961381233 0.25537695922762477 0.9583727150068313
vn -0.13173810494196755 0.0705982376632134 0.9887673945600896
vn -0.13173810494196767 -0.07059823766321345 0.9887673945600894
vn -0.12768847961381238 -0.2553769592276246 0.9583727150068315
vn -0.09405288442543686 -0.702020286548267 0.7059189558341272
vn 0 0.6525802972828822 0.7577195758314453
vn 0 0.2248595066987586 0.9743911956946198
vn 0 0.06171655506811717 0.9980937164567885
vn 0 -0.06171655506811713 0.9980937164567885
vn 0 -0.2248595066987585 0.97439119569462
vn 0 -0.6525802972828822 0.7577195758314453
vn 0.258819045102521 0.9659258262890683 0
vn 0.7071067811865472 0.7071067811865479 0
vn 0.9659258262890684 0.2588190451025209 0
vn 0.9659258262890682 -0.25881904510252096 0
vn 0.7071067811865476 -0.7071067811865475 0
vn 0.258819045102521 -0.9659258262890683 0
vn -0.25881904510252096 0.9659258262890683 0
vn -0.7071067811865472 0.7071067811865478 0
vn -0.9659258262890685 0.2588190451025202 -3.28387733876554e-15
vn -0.9659258262890685 -0.2588190451025203 -2.4647317051785963e-15
vn -0.7071067811865478 -0.7071067811865474 0
vn -0.25881904510252096 -0.9659258262890683 0
usemtl m_7f2020ae-d844-bc1c-4a4e-974d1b18d26e
f 3/1/1 8/2/1 2/3/1
f 3/4/2 4/5/2 9/6/2 8/7/2
f 4/8/3 5/9/3 10/10/3 9/11/3
f 5/12/4 6/13/4 11/14/4 10/15/4
f 6/16/5 7/17/5 12/18/5 11/19/5
f 12/20/6 7/21/6 1/22/6
f 8/23/7 13/24/7 2/25/7
f 8/26/8 9/27/8 14/28/8 13/29/8
f 9/30/9 10/31/9 15/32/9 14/33/9
f 10/34/10 11/35/10 16/36/10 15/37/10
f 11/38/11 12/39/11 17/40/11 16/41/11
f 17/42/12 12/43/12 1/44/12
f 18/45/13 23/46/13 2/47/13
f 18/48/14 19/49/14 24/50/14 23/51/14
f 19/52/15 20/53/15 25/54/15 24/55/15
f 20/56/16 21/57/16 26/58/16 25/59/16
f 21/60/17 22/61/17 27/62/17 26/63/17
f 27/64/18 22/65/18 1/66/18
f 23/67/19 28/68/19 2/69/19
f 23/70/20 24/71/20 29/72/20 28/73/20
f 24/74/21 25/75/21 30/76/21 29/77/21
f 25/78/22 26/79/22 31/80/22 30/81/22
f 26/82/23 27/83/23 32/84/23 31/85/23
f 32/86/24 27/87/24 1/88/24
f 28/89/25 3/90/25 2/91/25
f 28/92/26 29/93/26 4/94/26 3/95/26
f 29/96/27 30/97/27 5/98/27 4/99/27
f 30/100/28 31/101/28 6/102/28 5/103/28
f 31/104/29 32/105/29 7/106/29 6/107/29
f 7/108/30 32/109/30 1/110/30
f 13/111/31 33/112/31 2/113/31
f 13/114/32 14/115/32 34/116/32 33/117/32
f 14/118/33 15/119/33 35/120/33 34/121/33
f 15/122/34 16/123/34 36/124/34 35/125/34
f 16/126/35 17/127/35 37/128/35 36/129/35
f 37/130/36 17/131/36 1/132/36
f 38/133/37 18/134/37 2/135/37
f 38/136/38 39/137/38 19/138/38 18/139/38
f 39/140/39 40/141/39 20/142/39 19/143/39
f 40/144/40 41/145/40 21/146/40 20/147/40
f 41/148/41 42/149/41 22/150/41 21/151/41
f 22/152/42 42/153/42 1/154/42
o light
v -1.879283765641541e-18 0.3828125 0.088125
v -1.879283765641541e-18 0.5859375 0.088125
v 0.013606794928142941 0.572330705071857 0.09984374999999998
v 0.023567660143714093 0.53515625 0.10842247040119776
v 0.02721358985628589 0.484375 0.11156249999999998
v 0.023567660143714097 0.43359375 0.10842247040119778
v 0.013606794928142941 0.396419294928143 0.09984374999999998
v 0.03717445507185703 0.572330705071857 0.09670372040119776
v 0.06438804492814294 0.53515625 0.10298377959880221
v 0.07434891014371407 0.484375 0.10528244080239554
v 0.06438804492814294 0.43359375 0.10298377959880221
v 0.03717445507185703 0.396419294928143 0.09670372040119776
v 0.05078124999999998 0.572330705071857 0.09126502959880221
v 0.08795570507185704 0.53515625 0.09356369080239554
v 0.1015625 0.484375 0.09440505919760443
v 0.08795570507185704 0.43359375 0.09356369080239554
v 0.05078124999999998 0.396419294928143 0.09126502959880221
v -0.050781249999999986 0.572330705071857 0.0912650295988022
v -0.08795570507185704 0.53515625 0.09356369080239554
v -0.1015625 0.484375 0.09440505919760442
v -0.08795570507185707 0.43359375 0.09356369080239554
v -0.050781249999999986 0.396419294928143 0.0912650295988022
v -0.03717445507185704 0.572330705071857 0.09670372040119776
v -0.06438804492814296 0.53515625 0.1029837795988022
v -0.0743489101437141 0.484375 0.10528244080239554
v -0.06438804492814296 0.43359375 0.1029837795988022
v -0.03717445507185704 0.396419294928143 0.09670372040119776
v -0.013606794928142943 0.572330705071857 0.09984374999999998
v -0.02356766014371409 0.53515625 0.10842247040119776
v -0.027213589856285886 0.484375 0.11156249999999998
v -0.023567660143714093 0.43359375 0.10842247040119778
v -0.013606794928142943 0.396419294928143 0.09984374999999998
v 0.05078124999999998 0.572330705071857 0.08498497040119778
v 0.08795570507185704 0.53515625 0.08268630919760443
v 0.1015625 0.484375 0.08184494080239554
v 0.08795570507185704 0.43359375 0.08268630919760442
v 0.05078124999999998 0.396419294928143 0.08498497040119778
v -0.050781249999999986 0.572330705071857 0.08498497040119778
v -0.08795570507185704 0.53515625 0.08268630919760443
v -0.10156249999999996 0.484375 0.08184494080239556
v -0.08795570507185704 0.43359375 0.08268630919760443
v -0.050781249999999986 0.396419294928143 0.08498497040119778
vt 0.765453125 0.584196875
vt 0.77734375 0.584196875
vt 0.759484375 0.59375
vt 0.43575868202689216 0.3388991467091741
vt 0.43996272236960593 0.3196367491218419
vt 0.4605525642691697 0.3194571706108944
vt 0.4476488548039206 0.33879544413910956
vt 0.43996272236960593 0.3196367491218419
vt 0.44134067533377497 0.2941706379563309
vt 0.4651147711255311 0.29396328732478016
vt 0.4605525642691697 0.3194571706108944
vt 0.44134067533377497 0.2941706379563309
vt 0.43951875 0.2687324351828688
vt 0.46010859189956377 0.2685528566719214
vt 0.4651147711255311 0.29396328732478016
vt 0.4395433417206539 0.2675353517874942
vt 0.4361271427028235 0.24811774379149742
vt 0.44800323127766206 0.24870552185608685
vt 0.4601087944459132 0.2685531887566348
vt 0.44800323127766206 0.24870552185608685
vt 0.4361271427028235 0.24811774379149742
vt 0.4306379201970438 0.23828125
vt 0.7585586320239469 0.44905990985987465
vt 0.7617413679760531 0.4424625
vt 0.7633100502110822 0.46874886446427366
vt 0.4509119459985184 0.34022180884874564
vt 0.46173250846624525 0.3196458062495976
vt 0.47441672831188303 0.3192426564038161
vt 0.45823324895793116 0.33998911167107704
vt 0.46173250846624525 0.3196458062495976
vt 0.4651153069552984 0.29396600709659193
vt 0.47976103629688804 0.2935005134677149
vt 0.47441672831188303 0.3192426564038161
vt 0.4651153069552984 0.29396600709659193
vt 0.46010859189956377 0.2685528566719214
vt 0.47279281174520155 0.2681497068261399
vt 0.47976103629688804 0.2935005134677149
vt 0.46010859189956377 0.2685528566719214
vt 0.44800323127766206 0.24870552185608685
vt 0.4553245342370748 0.24847282467841836
vt 0.47279281174520155 0.2681497068261399
vt 0.6596038679760531 0.44035
vt 0.6564211320239469 0.43375259014012535
vt 0.6611725502110822 0.41406363553572634
vt 0.7622711320239469 0.6612125
vt 0.7654538679760531 0.6678099098598747
vt 0.7607024497889178 0.6874988644642737
vt 0.3972355010420689 0.33998911167107704
vt 0.38105202168811697 0.3192426564038161
vt 0.39373624153375475 0.3196458062495976
vt 0.4045568040014816 0.34022180884874553
vt 0.38105202168811697 0.3192426564038161
vt 0.37570771370311196 0.2935005134677149
vt 0.3903534430447016 0.29396600709659193
vt 0.39373624153375475 0.3196458062495976
vt 0.37570771370311196 0.2935005134677149
vt 0.38267593825479845 0.2681497068261399
vt 0.39536015810043623 0.2685528566719214
vt 0.3903534430447016 0.29396600709659193
vt 0.38267593825479845 0.2681497068261399
vt 0.4001442157629252 0.24847282467841836
vt 0.40746551872233794 0.24870552185608685
vt 0.39536015810043623 0.2685528566719214
vt 0.7648788679760531 0.39859634014012535
vt 0.7616961320239469 0.40519375
vt 0.7601274497889178 0.37890738553572634
vt 0.7578125 0.521696875
vt 0.769703125 0.521696875
vt 0.775671875 0.53125
vt 0.4078198951960795 0.33879544413910956
vt 0.3949161857308303 0.3194571706108944
vt 0.41550602763039407 0.3196367491218419
vt 0.41971006797310784 0.3388991467091741
vt 0.3949161857308303 0.3194571706108944
vt 0.3903539788744689 0.29396328732478016
vt 0.41412807466622503 0.2941706379563309
vt 0.41550602763039407 0.3196367491218419
vt 0.3903539788744689 0.29396328732478016
vt 0.39536015810043623 0.2685528566719214
vt 0.41595 0.2687324351828688
vt 0.41412807466622503 0.2941706379563309
vt 0.3953599555540868 0.2685531887566348
vt 0.40746551872233794 0.24870552185608685
vt 0.4193416072971765 0.24811774379149742
vt 0.4159254082793461 0.2675353517874942
vt 0.4193416072971765 0.24811774379149742
vt 0.40746551872233794 0.24870552185608685
vt 0.4248308298029562 0.23828125
vt 0.4217107957628003 0.33903234849181607
vt 0.4353149759164125 0.3387950271683663
vt 0.42866948302891994 0.3478904470357246
vt 0.4217107957628003 0.33903234849181607
vt 0.41639759582637526 0.3200471336392505
vt 0.43996276043789184 0.31963604557736314
vt 0.4353149759164125 0.3387950271683663
vt 0.41639759582637526 0.3200471336392505
vt 0.41413231502655057 0.29464528060323025
vt 0.44134067533377497 0.2941706379563309
vt 0.43996276043789184 0.31963604557736314
vt 0.414128125 0.2941699351828688
vt 0.41595 0.2687324351828688
vt 0.43951875 0.2687324351828688
vt 0.441340625 0.2941699351828688
vt 0.4160522114120072 0.26562054113703637
vt 0.42256581785947434 0.24701297795401822
vt 0.4361271427028235 0.24811774379149742
vt 0.4395431420432748 0.26753421682520084
vt 0.4361271427028235 0.24811774379149742
vt 0.42256581785947434 0.24701297795401822
vt 0.43007546334294905 0.23861687987254143
vt 0.7617413679760531 0.4424625
vt 0.7648788679760531 0.4424625
vt 0.7633101179760531 0.46875
vt 0.26015 0.28125
vt 0.259 0.2549625
vt 0.2644375 0.2549625
vt 0.2632875 0.28125
vt 0.259 0.2549625
vt 0.258578125 0.22867499999999996
vt 0.264859375 0.22867499999999996
vt 0.2644375 0.2549625
vt 0.258578125 0.22867499999999996
vt 0.259 0.20238749999999994
vt 0.2644375 0.20238749999999994
vt 0.264859375 0.22867499999999996
vt 0.6584538679760531 0.46663750000000004
vt 0.6596038679760531 0.44035
vt 0.6627413679760531 0.44035
vt 0.6638913679760531 0.46663750000000004
vt 0.6627413679760531 0.44035
vt 0.6596038679760531 0.44035
vt 0.6611726179760531 0.4140625
vt 0.7591336320239469 0.6612125
vt 0.7622711320239469 0.6612125
vt 0.7607023820239469 0.6875
vt 0.7591336320239469 0.6612125
vt 0.7579836320239469 0.634925
vt 0.7634211320239469 0.634925
vt 0.7622711320239469 0.6612125
vt 0.3215 0.27808125000000006
vt 0.321078125 0.25179375000000004
vt 0.327359375 0.25179375000000004
vt 0.3269375 0.27808125000000006
vt 0.321078125 0.25179375000000004
vt 0.3215 0.22550625000000002
vt 0.3269375 0.22550625000000002
vt 0.327359375 0.25179375000000004
vt 0.3215 0.22550625000000002
vt 0.32265 0.19921875
vt 0.3257875 0.19921875
vt 0.3269375 0.22550625000000002
vt 0.7616961320239469 0.40519375
vt 0.7585586320239469 0.40519375
vt 0.7601273820239469 0.37890625
vn 0.09405288442543687 0.702020286548267 0.7059189558341272
vn 0.12768847961381227 0.25537695922762477 0.9583727150068313
vn 0.13173810494196755 0.07059823766321335 0.9887673945600896
vn 0.13173810494196758 -0.07059823766321331 0.9887673945600894
vn 0.1276884796138124 -0.25537695922762466 0.9583727150068315
vn 0.09405288442543687 -0.702020286548267 0.7059189558341272
vn 0.1967596954282177 0.8479164433410358 0.49226347352498456
vn 0.34114411961050645 0.393919298579168 0.8534918135881967
vn 0.36873045332435467 0.11408559929220616 0.9225087147693262
vn 0.368730453324355 -0.11408559929220628 0.922508714769326
vn 0.34114411961050645 -0.3939192985791677 0.8534918135881968
vn 0.1967596954282177 -0.8479164433410358 0.49226347352498456
vn -0.1967596954282178 0.8479164433410359 0.4922634735249843
vn -0.3411441196105069 0.3939192985791682 0.8534918135881964
vn -0.3687304533243553 0.11408559929220646 0.9225087147693259
vn -0.368730453324355 -0.11408559929220626 0.9225087147693263
vn -0.3411441196105067 -0.39391929857916796 0.8534918135881966
vn -0.1967596954282178 -0.8479164433410359 0.4922634735249843
vn -0.09405288442543686 0.702020286548267 0.7059189558341272
vn -0.12768847961381233 0.25537695922762477 0.9583727150068313
vn -0.13173810494196755 0.0705982376632134 0.9887673945600896
vn -0.13173810494196767 -0.07059823766321345 0.9887673945600894
vn -0.12768847961381238 -0.2553769592276246 0.9583727150068315
vn -0.09405288442543686 -0.702020286548267 0.7059189558341272
vn 0 0.6525802972828822 0.7577195758314453
vn 0 0.2248595066987586 0.9743911956946198
vn 0 0.06171655506811717 0.9980937164567885
vn 0 -0.06171655506811713 0.9980937164567885
vn 0 -0.2248595066987585 0.97439119569462
vn 0 -0.6525802972828822 0.7577195758314453
vn 0.258819045102521 0.9659258262890683 0
vn 0.7071067811865472 0.7071067811865479 0
vn 0.9659258262890684 0.2588190451025209 0
vn 0.9659258262890682 -0.25881904510252096 0
vn 0.7071067811865476 -0.7071067811865475 0
vn 0.258819045102521 -0.9659258262890683 0
vn -0.25881904510252096 0.9659258262890683 0
vn -0.7071067811865472 0.7071067811865478 0
vn -0.9659258262890685 0.2588190451025202 -3.28387733876554e-15
vn -0.9659258262890685 -0.2588190451025203 -2.4647317051785963e-15
vn -0.7071067811865478 -0.7071067811865474 0
vn -0.25881904510252096 -0.9659258262890683 0
usemtl m_7f2020ae-d844-bc1c-4a4e-974d1b18d26e
f 45/155/43 50/156/43 44/157/43
f 45/158/44 46/159/44 51/160/44 50/161/44
f 46/162/45 47/163/45 52/164/45 51/165/45
f 47/166/46 48/167/46 53/168/46 52/169/46
f 48/170/47 49/171/47 54/172/47 53/173/47
f 54/174/48 49/175/48 43/176/48
f 50/177/49 55/178/49 44/179/49
f 50/180/50 51/181/50 56/182/50 55/183/50
f 51/184/51 52/185/51 57/186/51 56/187/51
f 52/188/52 53/189/52 58/190/52 57/191/52
f 53/192/53 54/193/53 59/194/53 58/195/53
f 59/196/54 54/197/54 43/198/54
f 60/199/55 65/200/55 44/201/55
f 60/202/56 61/203/56 66/204/56 65/205/56
f 61/206/57 62/207/57 67/208/57 66/209/57
f 62/210/58 63/211/58 68/212/58 67/213/58
f 63/214/59 64/215/59 69/216/59 68/217/59
f 69/218/60 64/219/60 43/220/60
f 65/221/61 70/222/61 44/223/61
f 65/224/62 66/225/62 71/226/62 70/227/62
f 66/228/63 67/229/63 72/230/63 71/231/63
f 67/232/64 68/233/64 73/234/64 72/235/64
f 68/236/65 69/237/65 74/238/65 73/239/65
f 74/240/66 69/241/66 43/242/66
f 70/243/67 45/244/67 44/245/67
f 70/246/68 71/247/68 46/248/68 45/249/68
f 71/250/69 72/251/69 47/252/69 46/253/69
f 72/254/70 73/255/70 48/256/70 47/257/70
f 73/258/71 74/259/71 49/260/71 48/261/71
f 49/262/72 74/263/72 43/264/72
f 55/265/73 75/266/73 44/267/73
f 55/268/74 56/269/74 76/270/74 75/271/74
f 56/272/75 57/273/75 77/274/75 76/275/75
f 57/276/76 58/277/76 78/278/76 77/279/76
f 58/280/77 59/281/77 79/282/77 78/283/77
f 79/284/78 59/285/78 43/286/78
f 80/287/79 60/288/79 44/289/79
f 80/290/80 81/291/80 61/292/80 60/293/80
f 81/294/81 82/295/81 62/296/81 61/297/81
f 82/298/82 83/299/82 63/300/82 62/301/82
f 83/302/83 84/303/83 64/304/83 63/305/83
f 64/306/84 84/307/84 43/308/84