# Made in Blockbench 5.1.4
mtllib dc_metro_roof_e5.mtl

o part5
v 0.5 0.609375 0.5
v 0.5 0.609375 -0.5
v 0.5 0.390625 0.5
v 0.5 0.390625 -0.5
v -0.5 0.546875 0.5
v -0.5 0.546875 -0.5
v -0.5 0.34375 0.5
v -0.5 0.34375 -0.5
vt 0.125 0.96875
vt 0.125 1
vt 0 1
vt 0 0.96875
vt 0.125 0.96875
vt 0.125 1
vt 0 1
vt 0 0.96875
vt 0.125 0.875
vt 0.125 1
vt 0 1
vt 0 0.875
vt 0.125 0.875
vt 0.125 1
vt 0 1
vt 0 0.875
vt 0.125 0.96875
vt 0.125 1
vt 0 1
vt 0 0.96875
vt 0.125 0.96875
vt 0.125 1
vt 0 1
vt 0 0.96875
vn 1 0 0
vn -1 0 0
vn -0.06237828615518055 0.9980525784828888 0
vn 0.046823586298586156 -0.9989031743698381 0
vn 0 0 1
vn 0 0 -1
usemtl m_4f43a981-ca36-56b5-7b6d-e3bd7974d666
f 4/1/1 2/2/1 1/3/1 3/4/1
f 7/5/2 5/6/2 6/7/2 8/8/2
f 1/9/3 2/10/3 6/11/3 5/12/3
f 4/13/4 3/14/4 7/15/4 8/16/4
f 3/17/5 1/18/5 5/19/5 7/20/5
f 8/21/6 6/22/6 2/23/6 4/24/6