# Made in Blockbench 5.1.6
mtllib dc_metro_signal_light_3w.mtl

o box
v 0.5 1 0.09375
v 0.5 1 -0.09375
v 0.5 0 0.09375
v 0.5 0 -0.09375
v 0.1875 1 -0.09375
v 0.1875 1 0.09375
v 0.1875 0 -0.09375
v 0.1875 0 0.09375
vt 0 1
vt 0.15625 1
vt 0.15625 0.5
vt 0 0.5
vt 0.375 1
vt 0.46875 1
vt 0.46875 0.5
vt 0.375 0.5
vt 0.1875 1
vt 0.34375 1
vt 0.34375 0.5
vt 0.1875 0.5
vt 0.5 1
vt 0.59375 1
vt 0.59375 0.5
vt 0.5 0.5
vt 0.15625 0.375
vt 0 0.375
vt 0 0.46875
vt 0.15625 0.46875
vt 0.34375 0.46875
vt 0.1875 0.46875
vt 0.1875 0.375
vt 0.34375 0.375
vn 0 0 -1
vn 1 0 0
vn 0 0 1
vn -1 0 0
vn 0 1 0
vn 0 -1 0
usemtl m_7f2020ae-d844-bc1c-4a4e-974d1b18d26e
f 4/4/1 7/3/1 5/2/1 2/1/1
f 3/8/2 4/7/2 2/6/2 1/5/2
f 8/12/3 3/11/3 1/10/3 6/9/3
f 7/16/4 8/15/4 6/14/4 5/13/4
f 6/20/5 1/19/5 2/18/5 5/17/5
f 7/24/6 4/23/6 3/22/6 8/21/6
o light
v 0.34375 0.7265625 0.0875
v 0.34375 0.9296875 0.0875
v 0.357356875 0.916080625 0.09921875
v 0.3673175 0.87890625 0.10779749999999999
v 0.37096375 0.828125 0.1109375
v 0.3673175 0.77734375 0.10779749999999999
v 0.357356875 0.740169375 0.09921875
v 0.380924375 0.916080625 0.09607874999999999
v 0.408138125 0.87890625 0.10235875
v 0.41809875 0.828125 0.10465749999999999
v 0.408138125 0.77734375 0.10235875
v 0.380924375 0.740169375 0.09607874999999999
v 0.39453125 0.916080625 0.09064
v 0.431705625 0.87890625 0.09293875
v 0.4453125 0.828125 0.09377999999999999
v 0.431705625 0.77734375 0.09293875
v 0.39453125 0.740169375 0.09064
v 0.29296875 0.916080625 0.09064
v 0.255794375 0.87890625 0.09293875
v 0.2421875 0.828125 0.09377999999999999
v 0.255794375 0.77734375 0.09293875
v 0.29296875 0.740169375 0.09064
v 0.306575625 0.916080625 0.09607874999999999
v 0.279361875 0.87890625 0.10235875
v 0.26940125 0.828125 0.10465749999999999
v 0.279361875 0.77734375 0.10235875
v 0.306575625 0.740169375 0.09607874999999999
v 0.330143125 0.916080625 0.09921875
v 0.3201825 0.87890625 0.10779749999999999
v 0.31653625 0.828125 0.1109375
v 0.3201825 0.77734375 0.10779749999999999
v 0.330143125 0.740169375 0.09921875
v 0.39453125 0.916080625 0.08435999999999999
v 0.431705625 0.87890625 0.08206124999999999
v 0.4453125 0.828125 0.08122
v 0.431705625 0.77734375 0.08206124999999999
v 0.39453125 0.740169375 0.08435999999999999
v 0.29296875 0.916080625 0.08435999999999999
v 0.255794375 0.87890625 0.08206124999999999
v 0.2421875 0.828125 0.08122
v 0.255794375 0.77734375 0.08206124999999999
v 0.29296875 0.740169375 0.08435999999999999
vt 0.726390625 0.584196875
vt 0.73828125 0.584196875
vt 0.720421875 0.59375
vt 0.43575875 0.4560865625
vt 0.4399628125 0.43682437500000004
vt 0.4605525 0.43664468749999996
vt 0.44764875 0.45598281249999995
vt 0.4399628125 0.43682437500000004
vt 0.441340625 0.411358125
vt 0.4651146875 0.4111509375
vt 0.4605525 0.43664468749999996
vt 0.441340625 0.411358125
vt 0.43951875 0.38592000000000004
vt 0.4601084375 0.38574031249999996
vt 0.4651146875 0.4111509375
vt 0.4395434375 0.38472281249999996
vt 0.4361271875 0.3653053125
vt 0.448003125 0.36589312500000004
vt 0.46010875 0.38574062499999995
vt 0.448003125 0.36589312500000004
vt 0.4361271875 0.3653053125
vt 0.4306378125 0.35546875
vt 0.71949625 0.44906
vt 0.72267875 0.4424625
vt 0.7242475 0.46874875000000005
vt 0.450911875 0.457409375
vt 0.4617325 0.43683343750000003
vt 0.474416875 0.4364303125
vt 0.458233125 0.45717656250000005
vt 0.4617325 0.43683343750000003
vt 0.4651153125 0.4111534375
vt 0.4797609375 0.41068812499999996
vt 0.474416875 0.4364303125
vt 0.4651153125 0.4111534375
vt 0.4601084375 0.38574031249999996
vt 0.4727928125 0.3853371875
vt 0.4797609375 0.41068812499999996
vt 0.4601084375 0.38574031249999996
vt 0.448003125 0.36589312500000004
vt 0.4553246875 0.3656603125
vt 0.4727928125 0.3853371875
vt 0.65960375 0.44035
vt 0.65642125 0.4337525
vt 0.6611725 0.41406374999999995
vt 0.72320875 0.6612125
vt 0.72639125 0.66781
vt 0.72164 0.68749875
vt 0.397235625 0.45717656250000005
vt 0.381051875 0.4364303125
vt 0.39373625 0.43683343750000003
vt 0.404556875 0.457409375
vt 0.381051875 0.4364303125
vt 0.3757078125 0.41068812499999996
vt 0.3903534375 0.4111534375
vt 0.39373625 0.43683343750000003
vt 0.3757078125 0.41068812499999996
vt 0.3826759375 0.3853371875
vt 0.3953603125 0.38574031249999996
vt 0.3903534375 0.4111534375
vt 0.3826759375 0.3853371875
vt 0.4001440625 0.3656603125
vt 0.407465625 0.36589312500000004
vt 0.3953603125 0.38574031249999996
vt 0.72581625 0.39859625
vt 0.72263375 0.40519375
vt 0.721065 0.37890749999999995
vt 0.71875 0.521696875
vt 0.730640625 0.521696875
vt 0.736609375 0.53125
vt 0.40782 0.45598281249999995
vt 0.39491625 0.43664468749999996
vt 0.4155059375 0.43682437500000004
vt 0.41971 0.4560865625
vt 0.39491625 0.43664468749999996
vt 0.3903540625 0.4111509375
vt 0.414128125 0.411358125
vt 0.4155059375 0.43682437500000004
vt 0.3903540625 0.4111509375
vt 0.3953603125 0.38574031249999996
vt 0.41595 0.38592000000000004
vt 0.414128125 0.411358125
vt 0.39536 0.38574062499999995
vt 0.407465625 0.36589312500000004
vt 0.4193415625 0.3653053125
vt 0.4159253125 0.38472281249999996
vt 0.4193415625 0.3653053125
vt 0.407465625 0.36589312500000004
vt 0.4248309375 0.35546875
vt 0.4217109375 0.45621999999999996
vt 0.435315 0.45598249999999996
vt 0.428669375 0.4650778125
vt 0.4217109375 0.45621999999999996
vt 0.4163975 0.43723468750000005
vt 0.4399628125 0.43682343749999997
vt 0.435315 0.45598249999999996
vt 0.4163975 0.43723468750000005
vt 0.4141321875 0.41183281250000003
vt 0.441340625 0.411358125
vt 0.4399628125 0.43682343749999997
vt 0.414128125 0.41135750000000004
vt 0.41595 0.38592000000000004
vt 0.43951875 0.38592000000000004
vt 0.441340625 0.41135750000000004
vt 0.4160521875 0.38280812500000005
vt 0.4225659375 0.36420062499999994
vt 0.4361271875 0.3653053125
vt 0.439543125 0.3847215625
vt 0.4361271875 0.3653053125
vt 0.4225659375 0.36420062499999994
vt 0.4300753125 0.35580437499999995
vt 0.72267875 0.4424625
vt 0.72581625 0.4424625
vt 0.7242475 0.46875
vt 0.26015 0.28125
vt 0.259 0.2549625
vt 0.2644375 0.2549625
vt 0.2632875 0.28125
vt 0.259 0.2549625
vt 0.258578125 0.22867499999999996
vt 0.264859375 0.22867499999999996
vt 0.2644375 0.2549625
vt 0.258578125 0.22867499999999996
vt 0.259 0.20238750000000005
vt 0.2644375 0.20238750000000005
vt 0.264859375 0.22867499999999996
vt 0.65845375 0.46663750000000004
vt 0.65960375 0.44035
vt 0.66274125 0.44035
vt 0.66389125 0.46663750000000004
vt 0.66274125 0.44035
vt 0.65960375 0.44035
vt 0.6611725 0.4140625
vt 0.72007125 0.6612125
vt 0.72320875 0.6612125
vt 0.72164 0.6875
vt 0.72007125 0.6612125
vt 0.71892125 0.634925
vt 0.72435875 0.634925
vt 0.72320875 0.6612125
vt 0.3215 0.27808124999999995
vt 0.321078125 0.25179375000000004
vt 0.327359375 0.25179375000000004
vt 0.3269375 0.27808124999999995
vt 0.321078125 0.25179375000000004
vt 0.3215 0.22550625000000002
vt 0.3269375 0.22550625000000002
vt 0.327359375 0.25179375000000004
vt 0.3215 0.22550625000000002
vt 0.32265 0.19921875
vt 0.3257875 0.19921875
vt 0.3269375 0.22550625000000002
vt 0.72263375 0.40519375
vt 0.71949625 0.40519375
vt 0.721065 0.37890625
vn 0.09405289170265974 0.702018362884677 0.7059208678988642
vn 0.12768908613003568 0.2553775545205802 0.9583724755701013
vn 0.1317377621873706 0.07059846942969218 0.9887674236786166
vn 0.1317387493682362 -0.07059853190368223 0.9887672876910613
vn 0.12768813613439325 -0.2553773422387426 0.9583726587093356
vn 0.09405289170265974 -0.702018362884677 0.7059208678988642
vn 0.19676103969102865 0.847915607786806 0.4922643754439651
vn 0.34114328588026244 0.39391967422306495 0.8534919734589259
vn 0.3687320365508974 0.11408574921495307 0.9225080634049171
vn 0.3687296285415641 -0.1140853228461775 0.9225090786256165
vn 0.34114533009358183 -0.3939209344140707 0.8534905747491808
vn 0.19676103969102865 -0.847915607786806 0.4922643754439651
vn -0.19676103969102865 0.847915607786806 0.4922643754439651
vn -0.34114315782972954 0.3939204792386694 0.853491653094708
vn -0.36873209148507546 0.11408446033297306 0.9225082008413672
vn -0.36872969197425776 -0.11408383455275421 0.922509237325193
vn -0.3411451083045852 -0.3939223287198208 0.8534900198688948
vn -0.19676103969102865 -0.847915607786806 0.4922643754439651
vn -0.09405289170265974 0.702018362884677 0.7059208678988642
vn -0.12768910627383778 0.2553769770684983 0.9583726267597298
vn -0.13173775467149426 0.07059927351396976 0.9887673672676567
vn -0.13173874068968083 -0.07059946036830947 0.9887672225540249
vn -0.12768817102461763 -0.2553763420492353 0.9583729205804701
vn -0.09405289170265974 -0.702018362884677 0.7059208678988642
vn 0 0.6525780924579532 0.7577214747147788
vn 0 0.22486070314408685 0.9743909195910782
vn 0 0.06171597552635426 0.9980937522922536
vn 0 -0.06171597552635426 0.9980937522922536
vn 0 -0.22486070314408682 0.9743909195910782
vn 0 -0.6525780924579532 0.7577214747147788
vn 0.2588204661467373 0.9659254455202977 0
vn 0.7071067811865476 0.7071067811865476 0
vn 0.9659254455202977 0.2588204661467373 0
vn 0.9659254455202978 -0.25882046614673737 0
vn 0.7071067811865476 -0.7071067811865476 0
vn 0.2588204661467373 -0.9659254455202977 0
vn -0.2588204661467373 0.9659254455202977 0
vn -0.7071067811865476 0.7071067811865476 0
vn -0.9659254455202977 0.2588204661467373 0
vn -0.9659254455202978 -0.25882046614673737 0
vn -0.7071067811865476 -0.7071067811865476 0
vn -0.2588204661467373 -0.9659254455202977 0
usemtl m_7f2020ae-d844-bc1c-4a4e-974d1b18d26e
f 11/25/7 16/26/7 10/27/7
f 11/28/8 12/29/8 17/30/8 16/31/8
f 12/32/9 13/33/9 18/34/9 17/35/9
f 13/36/10 14/37/10 19/38/10 18/39/10
f 14/40/11 15/41/11 20/42/11 19/43/11
f 20/44/12 15/45/12 9/46/12
f 16/47/13 21/48/13 10/49/13
f 16/50/14 17/51/14 22/52/14 21/53/14
f 17/54/15 18/55/15 23/56/15 22/57/15
f 18/58/16 19/59/16 24/60/16 23/61/16
f 19/62/17 20/63/17 25/64/17 24/65/17
f 25/66/18 20/67/18 9/68/18
f 26/69/19 31/70/19 10/71/19
f 26/72/20 27/73/20 32/74/20 31/75/20
f 27/76/21 28/77/21 33/78/21 32/79/21
f 28/80/22 29/81/22 34/82/22 33/83/22
f 29/84/23 30/85/23 35/86/23 34/87/23
f 35/88/24 30/89/24 9/90/24
f 31/91/25 36/92/25 10/93/25
f 31/94/26 32/95/26 37/96/26 36/97/26
f 32/98/27 33/99/27 38/100/27 37/101/27
f 33/102/28 34/103/28 39/104/28 38/105/28
f 34/106/29 35/107/29 40/108/29 39/109/29
f 40/110/30 35/111/30 9/112/30
f 36/113/31 11/114/31 10/115/31
f 36/116/32 37/117/32 12/118/32 11/119/32
f 37/120/33 38/121/33 13/122/33 12/123/33
f 38/124/34 39/125/34 14/126/34 13/127/34
f 39/128/35 40/129/35 15/130/35 14/131/35
f 15/132/36 40/133/36 9/134/36
f 21/135/37 41/136/37 10/137/37
f 21/138/38 22/139/38 42/140/38 41/141/38
f 22/142/39 23/143/39 43/144/39 42/145/39
f 23/146/40 24/147/40 44/148/40 43/149/40
f 24/150/41 25/151/41 45/152/41 44/153/41
f 45/154/42 25/155/42 9/156/42
f 46/157/43 26/158/43 10/159/43
f 46/160/44 47/161/44 27/162/44 26/163/44
f 47/164/45 48/165/45 28/166/45 27/167/45
f 48/168/46 49/169/46 29/170/46 28/171/46
f 49/172/47 50/173/47 30/174/47 29/175/47
f 30/176/48 50/177/48 9/178/48
o shade
v 0.4453125 0.8009112500000001 0.09375
v 0.4453125 0.8009112500000001 0.15625
v 0.4453125 0.85533875 0.09375
v 0.4453125 0.85533875 0.171875
v 0.41809875 0.9024737500000001 0.09374999999999999
v 0.41809875 0.9024737500000001 0.18749999999999997
v 0.37096375 0.9296875 0.09374999999999997
v 0.37096375 0.9296875 0.20312499999999997
v 0.31653625 0.9296875 0.09374999999999997
v 0.31653625 0.9296875 0.20312499999999997
v 0.26940125 0.9024737500000001 0.09374999999999999
v 0.26940125 0.9024737500000001 0.18749999999999997
v 0.2421875 0.85533875 0.09375
v 0.2421875 0.85533875 0.171875
v 0.2421875 0.8009112500000001 0.09375
v 0.2421875 0.8009112500000001 0.15625
vt 0.62513125 0.515625
vt 0.65234375 0.515625
vt 0.65234375 0.5546875
vt 0.62513125 0.546875
vt 0.65234375 0.515625
vt 0.67955625 0.515625
vt 0.67955625 0.5625
vt 0.65234375 0.5546875
vt 0.625196875 0.8203125
vt 0.652409375 0.8203125
vt 0.652409375 0.875
vt 0.625196875 0.8671875
vt 0.652409375 0.8203125
vt 0.679621875 0.8203125
vt 0.679621875 0.875
vt 0.652409375 0.875
vt 0.679621875 0.8203125
vt 0.706834375 0.8203125
vt 0.706834375 0.8671875
vt 0.679621875 0.875
vt 0.18763125 0.296875
vt 0.21484375 0.296875
vt 0.21484375 0.3359375
vt 0.18763125 0.34375
vt 0.21484375 0.296875
vt 0.24205625 0.296875
vt 0.24205625 0.328125
vt 0.21484375 0.3359375
vn 1 0 0
vn 0.8660226585131923 0.5000047549191339 -1.1102335826665619e-16
vn 0.5000047549191339 0.866022658513192 -1.9229565906568703e-16
vn 0 1 -2.220446049250313e-16
vn -0.5000047549191339 0.8660226585131923 -1.9229565906568708e-16
vn -0.8660226585131923 0.5000047549191339 -1.1102335826665619e-16
vn -1 0 0
usemtl m_7f2020ae-d844-bc1c-4a4e-974d1b18d26e
f 51/179/49 53/180/49 54/181/49 52/182/49
f 53/183/50 55/184/50 56/185/50 54/186/50
f 55/187/51 57/188/51 58/189/51 56/190/51
f 57/191/52 59/192/52 60/193/52 58/194/52
f 59/195/53 61/196/53 62/197/53 60/198/53
f 61/199/54 63/200/54 64/201/54 62/202/54
f 63/203/55 65/204/55 66/205/55 64/206/55
o shade
v 0.4453125 0.8002862500000001 0.09375
v 0.4453125 0.8002862500000001 0.15625
v 0.4453125 0.85471375 0.09375
v 0.4453125 0.85471375 0.171875
v 0.41809875 0.9018487500000001 0.09374999999999999
v 0.41809875 0.9018487500000001 0.18749999999999997
v 0.37096375 0.9290625 0.09374999999999997
v 0.37096375 0.9290625000000001 0.20312499999999997
v 0.31653625 0.9290625 0.09374999999999997
v 0.31653625 0.9290625000000001 0.20312499999999997
v 0.26940125 0.9018487500000001 0.09374999999999999
v 0.26940125 0.9018487500000001 0.18749999999999997
v 0.2421875 0.85471375 0.09375
v 0.2421875 0.85471375 0.171875
v 0.2421875 0.8002862500000001 0.09375
v 0.2421875 0.8002862500000001 0.15625
vt 0.30859375 0.3359375
vt 0.30859375 0.296875
vt 0.33580625 0.296875
vt 0.33580625 0.328125
vt 0.28138125 0.34375
vt 0.28138125 0.296875
vt 0.30859375 0.296875
vt 0.30859375 0.3359375
vt 0.679621875 0.78125
vt 0.679621875 0.7265625
vt 0.706834375 0.7265625
vt 0.706834375 0.7734375
vt 0.652409375 0.78125
vt 0.652409375 0.7265625
vt 0.679621875 0.7265625
vt 0.679621875 0.78125
vt 0.625196875 0.7734375
vt 0.625196875 0.7265625
vt 0.652409375 0.7265625
vt 0.652409375 0.78125
vt 0.52734375 0.3359375
vt 0.52734375 0.296875
vt 0.55455625 0.296875
vt 0.55455625 0.34375
vt 0.50013125 0.328125
vt 0.50013125 0.296875
vt 0.52734375 0.296875
vt 0.52734375 0.3359375
vn -1 0 0
vn -0.8660226585131923 -0.5000047549191339 1.1102335826665619e-16
vn -0.5000047549191339 -0.866022658513192 1.9229565906568703e-16
vn 0 -1 2.220446049250313e-16
vn 0.5000047549191339 -0.8660226585131923 1.9229565906568708e-16
vn 0.8660226585131923 -0.5000047549191339 1.1102335826665619e-16
vn 1 0 0
usemtl m_7f2020ae-d844-bc1c-4a4e-974d1b18d26e
f 70/207/56 69/208/56 67/209/56 68/210/56
f 72/211/57 71/212/57 69/213/57 70/214/57
f 74/215/58 73/216/58 71/217/58 72/218/58
f 76/219/59 75/220/59 73/221/59 74/222/59
f 78/223/60 77/224/60 75/225/60 76/226/60
f 80/227/61 79/228/61 77/229/61 78/230/61
f 82/231/62 81/232/62 79/233/62 80/234/62
o light
v 0.34375 0.4765625 0.0875
v 0.34375 0.6796875 0.0875
v 0.357356875 0.666080625 0.09921875
v 0.3673175 0.62890625 0.10779749999999999
v 0.37096375 0.578125 0.1109375
v 0.3673175 0.52734375 0.10779749999999999
v 0.357356875 0.490169375 0.09921875
v 0.380924375 0.666080625 0.09607874999999999
v 0.408138125 0.62890625 0.10235875
v 0.41809875 0.578125 0.10465749999999999
v 0.408138125 0.52734375 0.10235875
v 0.380924375 0.490169375 0.09607874999999999
v 0.39453125 0.666080625 0.09064
v 0.431705625 0.62890625 0.09293875
v 0.4453125 0.578125 0.09377999999999999
v 0.431705625 0.52734375 0.09293875
v 0.39453125 0.490169375 0.09064
v 0.29296875 0.666080625 0.09064
v 0.255794375 0.62890625 0.09293875
v 0.2421875 0.578125 0.09377999999999999
v 0.255794375 0.52734375 0.09293875
v 0.29296875 0.490169375 0.09064
v 0.306575625 0.666080625 0.09607874999999999
v 0.279361875 0.62890625 0.10235875
v 0.26940125 0.578125 0.10465749999999999
v 0.279361875 0.52734375 0.10235875
v 0.306575625 0.490169375 0.09607874999999999
v 0.330143125 0.666080625 0.09921875
v 0.3201825 0.62890625 0.10779749999999999
v 0.31653625 0.578125 0.1109375
v 0.3201825 0.52734375 0.10779749999999999
v 0.330143125 0.490169375 0.09921875
v 0.39453125 0.666080625 0.08435999999999999
v 0.431705625 0.62890625 0.08206124999999999
v 0.4453125 0.578125 0.08122
v 0.431705625 0.52734375 0.08206124999999999
v 0.39453125 0.490169375 0.08435999999999999
v 0.29296875 0.666080625 0.08435999999999999
v 0.255794375 0.62890625 0.08206124999999999
v 0.2421875 0.578125 0.08122
v 0.255794375 0.52734375 0.08206124999999999
v 0.29296875 0.490169375 0.08435999999999999
vt 0.726390625 0.584196875
vt 0.73828125 0.584196875
vt 0.720421875 0.59375
vt 0.43575875 0.4560865625
vt 0.4399628125 0.43682437500000004
vt 0.4605525 0.43664468749999996
vt 0.44764875 0.45598281249999995
vt 0.4399628125 0.43682437500000004
vt 0.441340625 0.411358125
vt 0.4651146875 0.4111509375
vt 0.4605525 0.43664468749999996
vt 0.441340625 0.411358125
vt 0.43951875 0.38592000000000004
vt 0.4601084375 0.38574031249999996
vt 0.4651146875 0.4111509375
vt 0.4395434375 0.38472281249999996
vt 0.4361271875 0.3653053125
vt 0.448003125 0.36589312500000004
vt 0.46010875 0.38574062499999995
vt 0.448003125 0.36589312500000004
vt 0.4361271875 0.3653053125
vt 0.4306378125 0.35546875
vt 0.71949625 0.44906
vt 0.72267875 0.4424625
vt 0.7242475 0.46874875000000005
vt 0.450911875 0.457409375
vt 0.4617325 0.43683343750000003
vt 0.474416875 0.4364303125
vt 0.458233125 0.45717656250000005
vt 0.4617325 0.43683343750000003
vt 0.4651153125 0.4111534375
vt 0.4797609375 0.41068812499999996
vt 0.474416875 0.4364303125
vt 0.4651153125 0.4111534375
vt 0.4601084375 0.38574031249999996
vt 0.4727928125 0.3853371875
vt 0.4797609375 0.41068812499999996
vt 0.4601084375 0.38574031249999996
vt 0.448003125 0.36589312500000004
vt 0.4553246875 0.3656603125
vt 0.4727928125 0.3853371875
vt 0.65960375 0.44035
vt 0.65642125 0.4337525
vt 0.6611725 0.41406374999999995
vt 0.72320875 0.6612125
vt 0.72639125 0.66781
vt 0.72164 0.68749875
vt 0.397235625 0.45717656250000005
vt 0.381051875 0.4364303125
vt 0.39373625 0.43683343750000003
vt 0.404556875 0.457409375
vt 0.381051875 0.4364303125
vt 0.3757078125 0.41068812499999996
vt 0.3903534375 0.4111534375
vt 0.39373625 0.43683343750000003
vt 0.3757078125 0.41068812499999996
vt 0.3826759375 0.3853371875
vt 0.3953603125 0.38574031249999996
vt 0.3903534375 0.4111534375
vt 0.3826759375 0.3853371875
vt 0.4001440625 0.3656603125
vt 0.407465625 0.36589312500000004
vt 0.3953603125 0.38574031249999996
vt 0.72581625 0.39859625
vt 0.72263375 0.40519375
vt 0.721065 0.37890749999999995
vt 0.71875 0.521696875
vt 0.730640625 0.521696875
vt 0.736609375 0.53125
vt 0.40782 0.45598281249999995
vt 0.39491625 0.43664468749999996
vt 0.4155059375 0.43682437500000004
vt 0.41971 0.4560865625
vt 0.39491625 0.43664468749999996
vt 0.3903540625 0.4111509375
vt 0.414128125 0.411358125
vt 0.4155059375 0.43682437500000004
vt 0.3903540625 0.4111509375
vt 0.3953603125 0.38574031249999996
vt 0.41595 0.38592000000000004
vt 0.414128125 0.411358125
vt 0.39536 0.38574062499999995
vt 0.407465625 0.36589312500000004
vt 0.4193415625 0.3653053125
vt 0.4159253125 0.38472281249999996
vt 0.4193415625 0.3653053125
vt 0.407465625 0.36589312500000004
vt 0.4248309375 0.35546875
vt 0.4217109375 0.45621999999999996
vt 0.435315 0.45598249999999996
vt 0.428669375 0.4650778125
vt 0.4217109375 0.45621999999999996
vt 0.4163975 0.43723468750000005
vt 0.4399628125 0.43682343749999997
vt 0.435315 0.45598249999999996
vt 0.4163975 0.43723468750000005
vt 0.4141321875 0.41183281250000003
vt 0.441340625 0.411358125
vt 0.4399628125 0.43682343749999997
vt 0.414128125 0.41135750000000004
vt 0.41595 0.38592000000000004
vt 0.43951875 0.38592000000000004
vt 0.441340625 0.41135750000000004
vt 0.4160521875 0.38280812500000005
vt 0.4225659375 0.36420062499999994
vt 0.4361271875 0.3653053125
vt 0.439543125 0.3847215625
vt 0.4361271875 0.3653053125
vt 0.4225659375 0.36420062499999994
vt 0.4300753125 0.35580437499999995
vt 0.72267875 0.4424625
vt 0.72581625 0.4424625
vt 0.7242475 0.46875
vt 0.26015 0.28125
vt 0.259 0.2549625
vt 0.2644375 0.2549625
vt 0.2632875 0.28125
vt 0.259 0.2549625
vt 0.258578125 0.22867499999999996
vt 0.264859375 0.22867499999999996
vt 0.2644375 0.2549625
vt 0.258578125 0.22867499999999996
vt 0.259 0.20238750000000005
vt 0.2644375 0.20238750000000005
vt 0.264859375 0.22867499999999996
vt 0.65845375 0.46663750000000004
vt 0.65960375 0.44035
vt 0.66274125 0.44035
vt 0.66389125 0.46663750000000004
vt 0.66274125 0.44035
vt 0.65960375 0.44035
vt 0.6611725 0.4140625
vt 0.72007125 0.6612125
vt 0.72320875 0.6612125
vt 0.72164 0.6875
vt 0.72007125 0.6612125
vt 0.71892125 0.634925
vt 0.72435875 0.634925
vt 0.72320875 0.6612125
vt 0.3215 0.27808124999999995
vt 0.321078125 0.25179375000000004
vt 0.327359375 0.25179375000000004
vt 0.3269375 0.27808124999999995
vt 0.321078125 0.25179375000000004
vt 0.3215 0.22550625000000002
vt 0.3269375 0.22550625000000002
vt 0.327359375 0.25179375000000004
vt 0.3215 0.22550625000000002
vt 0.32265 0.19921875
vt 0.3257875 0.19921875
vt 0.3269375 0.22550625000000002
vt 0.72263375 0.40519375
vt 0.71949625 0.40519375
vt 0.721065 0.37890625
vn 0.09405289170265974 0.702018362884677 0.7059208678988642
vn 0.12768908613003568 0.2553775545205802 0.9583724755701013
vn 0.1317377621873706 0.07059846942969218 0.9887674236786166
vn 0.1317387493682362 -0.07059853190368223 0.9887672876910613
vn 0.12768813613439325 -0.2553773422387426 0.9583726587093356
vn 0.09405289170265974 -0.702018362884677 0.7059208678988642
vn 0.19676103969102865 0.847915607786806 0.4922643754439651
vn 0.34114328588026244 0.39391967422306495 0.8534919734589259
vn 0.3687320365508974 0.11408574921495307 0.9225080634049171
vn 0.3687296285415641 -0.1140853228461775 0.9225090786256165
vn 0.34114533009358183 -0.3939209344140707 0.8534905747491808
vn 0.19676103969102865 -0.847915607786806 0.4922643754439651
vn -0.19676103969102865 0.847915607786806 0.4922643754439651
vn -0.34114315782972954 0.3939204792386694 0.853491653094708
vn -0.36873209148507546 0.11408446033297306 0.9225082008413672
vn -0.36872969197425776 -0.11408383455275421 0.922509237325193
vn -0.3411451083045852 -0.3939223287198208 0.8534900198688948
vn -0.19676103969102865 -0.847915607786806 0.4922643754439651
vn -0.09405289170265974 0.702018362884677 0.7059208678988642
vn -0.12768910627383778 0.2553769770684983 0.9583726267597298
vn -0.13173775467149426 0.07059927351396976 0.9887673672676567
vn -0.13173874068968083 -0.07059946036830947 0.9887672225540249
vn -0.12768817102461763 -0.2553763420492353 0.9583729205804701
vn -0.09405289170265974 -0.702018362884677 0.7059208678988642
vn 0 0.6525780924579532 0.7577214747147788
vn 0 0.22486070314408685 0.9743909195910782
vn 0 0.06171597552635426 0.9980937522922536
vn 0 -0.06171597552635426 0.9980937522922536
vn 0 -0.22486070314408682 0.9743909195910782
vn 0 -0.6525780924579532 0.7577214747147788
vn 0.2588204661467373 0.9659254455202977 0
vn 0.7071067811865476 0.7071067811865476 0
vn 0.9659254455202977 0.2588204661467373 0
vn 0.9659254455202978 -0.25882046614673737 0
vn 0.7071067811865476 -0.7071067811865476 0
vn 0.2588204661467373 -0.9659254455202977 0
vn -0.2588204661467373 0.9659254455202977 0
vn -0.7071067811865476 0.7071067811865476 0
vn -0.9659254455202977 0.2588204661467373 0
vn -0.9659254455202978 -0.25882046614673737 0
vn -0.7071067811865476 -0.7071067811865476 0
vn -0.2588204661467373 -0.9659254455202977 0
usemtl m_7f2020ae-d844-bc1c-4a4e-974d1b18d26e
f 85/235/63 90/236/63 84/237/63
f 85/238/64 86/239/64 91/240/64 90/241/64
f 86/242/65 87/243/65 92/244/65 91/245/65
f 87/246/66 88/247/66 93/248/66 92/249/66
f 88/250/67 89/251/67 94/252/67 93/253/67
f 94/254/68 89/255/68 83/256/68
f 90/257/69 95/258/69 84/259/69
f 90/260/70 91/261/70 96/262/70 95/263/70
f 91/264/71 92/265/71 97/266/71 96/267/71
f 92/268/72 93/269/72 98/270/72 97/271/72
f 93/272/73 94/273/73 99/274/73 98/275/73
f 99/276/74 94/277/74 83/278/74
f 100/279/75 105/280/75 84/281/75
f 100/282/76 101/283/76 106/284/76 105/285/76
f 101/286/77 102/287/77 107/288/77 106/289/77
f 102/290/78 103/291/78 108/292/78 107/293/78
f 103/294/79 104/295/79 109/296/79 108/297/79
f 109/298/80 104/299/80 83/300/80
f 105/301/81 110/302/81 84/303/81
f 105/304/82 106/305/82 111/306/82 110/307/82
f 106/308/83 107/309/83 112/310/83 111/311/83
f 107/312/84 108/313/84 113/314/84 112/315/84
f 108/316/85 109/317/85 114/318/85 113/319/85
f 114/320/86 109/321/86 83/322/86
f 110/323/87 85/324/87 84/325/87
f 110/326/88 111/327/88 86/328/88 85/329/88
f 111/330/89 112/331/89 87/332/89 86/333/89
f 112/334/90 113/335/90 88/336/90 87/337/90
f 113/338/91 114/339/91 89/340/91 88/341/91
f 89/342/92 114/343/92 83/344/92
f 95/345/93 115/346/93 84/347/93
f 95/348/94 96/349/94 116/350/94 115/351/94
f 96/352/95 97/353/95 117/354/95 116/355/95
f 97/356/96 98/357/96 118/358/96 117/359/96
f 98/360/97 99/361/97 119/362/97 118/363/97
f 119/364/98 99/365/98 83/366/98
f 120/367/99 100/368/99 84/369/99
f 120/370/100 121/371/100 101/372/100 100/373/100
f 121/374/101 122/375/101 102/376/101 101/377/101
f 122/378/102 123/379/102 103/380/102 102/381/102
f 123/382/103 124/383/103 104/384/103 103/385/103
f 104/386/104 124/387/104 83/388/104
o shade
v 0.4453125 0.5509112500000001 0.09375
v 0.4453125 0.5509112500000001 0.15625
v 0.4453125 0.60533875 0.09375
v 0.4453125 0.60533875 0.171875
v 0.41809875 0.6524737500000001 0.09374999999999999
v 0.41809875 0.6524737500000001 0.18749999999999997
v 0.37096375 0.6796875 0.09374999999999997
v 0.37096375 0.6796875 0.20312499999999997
v 0.31653625 0.6796875 0.09374999999999997
v 0.31653625 0.6796875 0.20312499999999997
v 0.26940125 0.6524737500000001 0.09374999999999999
v 0.26940125 0.6524737500000001 0.18749999999999997
v 0.2421875 0.60533875 0.09375
v 0.2421875 0.60533875 0.171875
v 0.2421875 0.5509112500000001 0.09375
v 0.2421875 0.5509112500000001 0.15625
vt 0.62513125 0.515625
vt 0.65234375 0.515625
vt 0.65234375 0.5546875
vt 0.62513125 0.546875
vt 0.65234375 0.515625
vt 0.67955625 0.515625
vt 0.67955625 0.5625
vt 0.65234375 0.5546875
vt 0.625196875 0.8203125
vt 0.652409375 0.8203125
vt 0.652409375 0.875
vt 0.625196875 0.8671875
vt 0.652409375 0.8203125
vt 0.679621875 0.8203125
vt 0.679621875 0.875
vt 0.652409375 0.875
vt 0.679621875 0.8203125
vt 0.706834375 0.8203125
vt 0.706834375 0.8671875
vt 0.679621875 0.875
vt 0.18763125 0.296875
vt 0.21484375 0.296875
vt 0.21484375 0.3359375
vt 0.18763125 0.34375
vt 0.21484375 0.296875
vt 0.24205625 0.296875
vt 0.24205625 0.328125
vt 0.21484375 0.3359375
vn 1 0 0
vn 0.8660226585131923 0.5000047549191339 -1.1102335826665619e-16
vn 0.5000047549191339 0.866022658513192 -1.9229565906568703e-16
vn 0 1 -2.220446049250313e-16
vn -0.5000047549191339 0.8660226585131923 -1.9229565906568708e-16
vn -0.8660226585131923 0.5000047549191339 -1.1102335826665619e-16
vn -1 0 0
usemtl m_7f2020ae-d844-bc1c-4a4e-974d1b18d26e
f 125/389/105 127/390/105 128/391/105 126/392/105
f 127/393/106 129/394/106 130/395/106 128/396/106
f 129/397/107 131/398/107 132/399/107 130/400/107
f 131/401/108 133/402/108 134/403/108 132/404/108
f 133/405/109 135/406/109 136/407/109 134/408/109
f 135/409/110 137/410/110 138/411/110 136/412/110
f 137/413/111 139/414/111 140/415/111 138/416/111
o shade
v 0.4453125 0.5502862500000001 0.09375
v 0.4453125 0.5502862500000001 0.15625
v 0.4453125 0.60471375 0.09375
v 0.4453125 0.60471375 0.171875
v 0.41809875 0.6518487500000001 0.09374999999999999
v 0.41809875 0.6518487500000001 0.18749999999999997
v 0.37096375 0.6790625 0.09374999999999997
v 0.37096375 0.6790625000000001 0.20312499999999997
v 0.31653625 0.6790625 0.09374999999999997
v 0.31653625 0.6790625000000001 0.20312499999999997
v 0.26940125 0.6518487500000001 0.09374999999999999
v 0.26940125 0.6518487500000001 0.18749999999999997
v 0.2421875 0.60471375 0.09375
v 0.2421875 0.60471375 0.171875
v 0.2421875 0.5502862500000001 0.09375
v 0.2421875 0.5502862500000001 0.15625
vt 0.30859375 0.3359375
vt 0.30859375 0.296875
vt 0.33580625 0.296875
vt 0.33580625 0.328125
vt 0.28138125 0.34375
vt 0.28138125 0.296875
vt 0.30859375 0.296875
vt 0.30859375 0.3359375
vt 0.679621875 0.78125
vt 0.679621875 0.7265625
vt 0.706834375 0.7265625
vt 0.706834375 0.7734375
vt 0.652409375 0.78125
vt 0.652409375 0.7265625
vt 0.679621875 0.7265625
vt 0.679621875 0.78125
vt 0.625196875 0.7734375
vt 0.625196875 0.7265625
vt 0.652409375 0.7265625
vt 0.652409375 0.78125
vt 0.52734375 0.3359375
vt 0.52734375 0.296875
vt 0.55455625 0.296875
vt 0.55455625 0.34375
vt 0.50013125 0.328125
vt 0.50013125 0.296875
vt 0.52734375 0.296875
vt 0.52734375 0.3359375
vn -1 0 0
vn -0.8660226585131923 -0.5000047549191339 1.1102335826665619e-16
vn -0.5000047549191339 -0.866022658513192 1.9229565906568703e-16
vn 0 -1 2.220446049250313e-16
vn 0.5000047549191339 -0.8660226585131923 1.9229565906568708e-16
vn 0.8660226585131923 -0.5000047549191339 1.1102335826665619e-16
vn 1 0 0
usemtl m_7f2020ae-d844-bc1c-4a4e-974d1b18d26e
f 144/417/112 143/418/112 141/419/112 142/420/112
f 146/421/113 145/422/113 143/423/113 144/424/113
f 148/425/114 147/426/114 145/427/114 146/428/114
f 150/429/115 149/430/115 147/431/115 148/432/115
f 152/433/116 151/434/116 149/435/116 150/436/116
f 154/437/117 153/438/117 151/439/117 152/440/117
f 156/441/118 155/442/118 153/443/118 154/444/118
o light
v 0.34375 0.2265625 0.0875
v 0.34375 0.4296875 0.0875
v 0.357356875 0.416080625 0.09921875
v 0.3673175 0.37890625 0.10779749999999999
v 0.37096375 0.328125 0.1109375
v 0.3673175 0.27734375 0.10779749999999999
v 0.357356875 0.24016937500000002 0.09921875
v 0.380924375 0.416080625 0.09607874999999999
v 0.408138125 0.37890625 0.10235875
v 0.41809875 0.328125 0.10465749999999999
v 0.408138125 0.27734375 0.10235875
v 0.380924375 0.24016937500000002 0.09607874999999999
v 0.39453125 0.416080625 0.09064
v 0.431705625 0.37890625 0.09293875
v 0.4453125 0.328125 0.09377999999999999
v 0.431705625 0.27734375 0.09293875
v 0.39453125 0.24016937500000002 0.09064
v 0.29296875 0.416080625 0.09064
v 0.255794375 0.37890625 0.09293875
v 0.2421875 0.328125 0.09377999999999999
v 0.255794375 0.27734375 0.09293875
v 0.29296875 0.24016937500000002 0.09064
v 0.306575625 0.416080625 0.09607874999999999
v 0.279361875 0.37890625 0.10235875
v 0.26940125 0.328125 0.10465749999999999
v 0.279361875 0.27734375 0.10235875
v 0.306575625 0.24016937500000002 0.09607874999999999
v 0.330143125 0.416080625 0.09921875
v 0.3201825 0.37890625 0.10779749999999999
v 0.31653625 0.328125 0.1109375
v 0.3201825 0.27734375 0.10779749999999999
v 0.330143125 0.24016937500000002 0.09921875
v 0.39453125 0.416080625 0.08435999999999999
v 0.431705625 0.37890625 0.08206124999999999
v 0.4453125 0.328125 0.08122
v 0.431705625 0.27734375 0.08206124999999999
v 0.39453125 0.24016937500000002 0.08435999999999999
v 0.29296875 0.416080625 0.08435999999999999
v 0.255794375 0.37890625 0.08206124999999999
v 0.2421875 0.328125 0.08122
v 0.255794375 0.27734375 0.08206124999999999
v 0.29296875 0.24016937500000002 0.08435999999999999
vt 0.726390625 0.584196875
vt 0.73828125 0.584196875
vt 0.720421875 0.59375
vt 0.43575875 0.4560865625
vt 0.4399628125 0.43682437500000004
vt 0.4605525 0.43664468749999996
vt 0.44764875 0.45598281249999995
vt 0.4399628125 0.43682437500000004
vt 0.441340625 0.411358125
vt 0.4651146875 0.4111509375
vt 0.4605525 0.43664468749999996
vt 0.441340625 0.411358125
vt 0.43951875 0.38592000000000004
vt 0.4601084375 0.38574031249999996
vt 0.4651146875 0.4111509375
vt 0.4395434375 0.38472281249999996
vt 0.4361271875 0.3653053125
vt 0.448003125 0.36589312500000004
vt 0.46010875 0.38574062499999995
vt 0.448003125 0.36589312500000004
vt 0.4361271875 0.3653053125
vt 0.4306378125 0.35546875
vt 0.71949625 0.44906
vt 0.72267875 0.4424625
vt 0.7242475 0.46874875000000005
vt 0.450911875 0.457409375
vt 0.4617325 0.43683343750000003
vt 0.474416875 0.4364303125
vt 0.458233125 0.45717656250000005
vt 0.4617325 0.43683343750000003
vt 0.4651153125 0.4111534375
vt 0.4797609375 0.41068812499999996
vt 0.474416875 0.4364303125
vt 0.4651153125 0.4111534375
vt 0.4601084375 0.38574031249999996
vt 0.4727928125 0.3853371875
vt 0.4797609375 0.41068812499999996
vt 0.4601084375 0.38574031249999996
vt 0.448003125 0.36589312500000004
vt 0.4553246875 0.3656603125
vt 0.4727928125 0.3853371875
vt 0.65960375 0.44035
vt 0.65642125 0.4337525
vt 0.6611725 0.41406374999999995
vt 0.72320875 0.6612125
vt 0.72639125 0.66781
vt 0.72164 0.68749875
vt 0.397235625 0.45717656250000005
vt 0.381051875 0.4364303125
vt 0.39373625 0.43683343750000003
vt 0.404556875 0.457409375
vt 0.381051875 0.4364303125
vt 0.3757078125 0.41068812499999996
vt 0.3903534375 0.4111534375
vt 0.39373625 0.43683343750000003
vt 0.3757078125 0.41068812499999996
vt 0.3826759375 0.3853371875
vt 0.3953603125 0.38574031249999996
vt 0.3903534375 0.4111534375
vt 0.3826759375 0.3853371875
vt 0.4001440625 0.3656603125
vt 0.407465625 0.36589312500000004
vt 0.3953603125 0.38574031249999996
vt 0.72581625 0.39859625
vt 0.72263375 0.40519375
vt 0.721065 0.37890749999999995
vt 0.71875 0.521696875
vt 0.730640625 0.521696875
vt 0.736609375 0.53125
vt 0.40782 0.45598281249999995
vt 0.39491625 0.43664468749999996
vt 0.4155059375 0.43682437500000004
vt 0.41971 0.4560865625
vt 0.39491625 0.43664468749999996
vt 0.3903540625 0.4111509375
vt 0.414128125 0.411358125
vt 0.4155059375 0.43682437500000004
vt 0.3903540625 0.4111509375
vt 0.3953603125 0.38574031249999996
vt 0.41595 0.38592000000000004
vt 0.414128125 0.411358125
vt 0.39536 0.38574062499999995
vt 0.407465625 0.36589312500000004
vt 0.4193415625 0.3653053125
vt 0.4159253125 0.38472281249999996
vt 0.4193415625 0.3653053125
vt 0.407465625 0.36589312500000004
vt 0.4248309375 0.35546875
vt 0.4217109375 0.45621999999999996
vt 0.435315 0.45598249999999996
vt 0.428669375 0.4650778125
vt 0.4217109375 0.45621999999999996
vt 0.4163975 0.43723468750000005
vt 0.4399628125 0.43682343749999997
vt 0.435315 0.45598249999999996
vt 0.4163975 0.43723468750000005
vt 0.4141321875 0.41183281250000003
vt 0.441340625 0.411358125
vt 0.4399628125 0.43682343749999997
vt 0.414128125 0.41135750000000004
vt 0.41595 0.38592000000000004
vt 0.43951875 0.38592000000000004
vt 0.441340625 0.41135750000000004
vt 0.4160521875 0.38280812500000005
vt 0.4225659375 0.36420062499999994
vt 0.4361271875 0.3653053125
vt 0.439543125 0.3847215625
vt 0.4361271875 0.3653053125
vt 0.4225659375 0.36420062499999994
vt 0.4300753125 0.35580437499999995
vt 0.72267875 0.4424625
vt 0.72581625 0.4424625
vt 0.7242475 0.46875
vt 0.26015 0.28125
vt 0.259 0.2549625
vt 0.2644375 0.2549625
vt 0.2632875 0.28125
vt 0.259 0.2549625
vt 0.258578125 0.22867499999999996
vt 0.264859375 0.22867499999999996
vt 0.2644375 0.2549625
vt 0.258578125 0.22867499999999996
vt 0.259 0.20238750000000005
vt 0.2644375 0.20238750000000005
vt 0.264859375 0.22867499999999996
vt 0.65845375 0.46663750000000004
vt 0.65960375 0.44035
vt 0.66274125 0.44035
vt 0.66389125 0.46663750000000004
vt 0.66274125 0.44035
vt 0.65960375 0.44035
vt 0.6611725 0.4140625
vt 0.72007125 0.6612125
vt 0.72320875 0.6612125
vt 0.72164 0.6875
vt 0.72007125 0.6612125
vt 0.71892125 0.634925
vt 0.72435875 0.634925
vt 0.72320875 0.6612125
vt 0.3215 0.27808124999999995
vt 0.321078125 0.25179375000000004
vt 0.327359375 0.25179375000000004
vt 0.3269375 0.27808124999999995
vt 0.321078125 0.25179375000000004
vt 0.3215 0.22550625000000002
vt 0.3269375 0.22550625000000002
vt 0.327359375 0.25179375000000004
vt 0.3215 0.22550625000000002
vt 0.32265 0.19921875
vt 0.3257875 0.19921875
vt 0.3269375 0.22550625000000002
vt 0.72263375 0.40519375
vt 0.71949625 0.40519375
vt 0.721065 0.37890625
vn 0.09405289170265974 0.702018362884677 0.7059208678988642
vn 0.12768908613003568 0.2553775545205802 0.9583724755701013
vn 0.1317377621873706 0.07059846942969218 0.9887674236786166
vn 0.1317387493682362 -0.07059853190368223 0.9887672876910613
vn 0.12768813613439325 -0.2553773422387426 0.9583726587093356
vn 0.09405289170265974 -0.702018362884677 0.7059208678988642
vn 0.19676103969102865 0.847915607786806 0.4922643754439651
vn 0.34114328588026244 0.39391967422306495 0.8534919734589259
vn 0.3687320365508974 0.11408574921495307 0.9225080634049171
vn 0.3687296285415641 -0.1140853228461775 0.9225090786256165
vn 0.34114533009358183 -0.3939209344140707 0.8534905747491808
vn 0.19676103969102865 -0.847915607786806 0.4922643754439651
vn -0.19676103969102865 0.847915607786806 0.4922643754439651
vn -0.34114315782972954 0.3939204792386694 0.853491653094708
vn -0.36873209148507546 0.11408446033297306 0.9225082008413672
vn -0.36872969197425776 -0.11408383455275421 0.922509237325193
vn -0.3411451083045852 -0.3939223287198208 0.8534900198688948
vn -0.19676103969102865 -0.847915607786806 0.4922643754439651
vn -0.09405289170265974 0.702018362884677 0.7059208678988642
vn -0.12768910627383778 0.2553769770684983 0.9583726267597298
vn -0.13173775467149426 0.07059927351396976 0.9887673672676567
vn -0.13173874068968083 -0.07059946036830947 0.9887672225540249
vn -0.12768817102461763 -0.2553763420492353 0.9583729205804701
vn -0.09405289170265974 -0.702018362884677 0.7059208678988642
vn 0 0.6525780924579532 0.7577214747147788
vn 0 0.22486070314408685 0.9743909195910782
vn 0 0.06171597552635426 0.9980937522922536
vn 0 -0.06171597552635426 0.9980937522922536
vn 0 -0.22486070314408682 0.9743909195910782
vn 0 -0.6525780924579532 0.7577214747147788
vn 0.2588204661467373 0.9659254455202977 0
vn 0.7071067811865476 0.7071067811865476 0
vn 0.9659254455202977 0.2588204661467373 0
vn 0.9659254455202978 -0.25882046614673737 0
vn 0.7071067811865476 -0.7071067811865476 0
vn 0.2588204661467373 -0.9659254455202977 0
vn -0.2588204661467373 0.9659254455202977 0
vn -0.7071067811865476 0.7071067811865476 0
vn -0.9659254455202977 0.2588204661467373 0
vn -0.9659254455202978 -0.25882046614673737 0
vn -0.7071067811865476 -0.7071067811865476 0
vn -0.2588204661467373 -0.9659254455202977 0
usemtl m_7f2020ae-d844-bc1c-4a4e-974d1b18d26e
f 159/445/119 164/446/119 158/447/119
f 159/448/120 160/449/120 165/450/120 164/451/120
f 160/452/121 161/453/121 166/454/121 165/455/121
f 161/456/122 162/457/122 167/458/122 166/459/122
f 162/460/123 163/461/123 168/462/123 167/463/123
f 168/464/124 163/465/124 157/466/124
f 164/467/125 169/468/125 158/469/125
f 164/470/126 165/471/126 170/472/126 169/473/126
f 165/474/127 166/475/127 171/476/127 170/477/127
f 166/478/128 167/479/128 172/480/128 171/481/128
f 167/482/129 168/483/129 173/484/129 172/485/129
f 173/486/130 168/487/130 157/488/130
f 174/489/131 179/490/131 158/491/131
f 174/492/132 175/493/132 180/494/132 179/495/132
f 175/496/133 176/497/133 181/498/133 180/499/133
f 176/500/134 177/501/134 182/502/134 181/503/134
f 177/504/135 178/505/135 183/506/135 182/507/135
f 183/508/136 178/509/136 157/510/136
f 179/511/137 184/512/137 158/513/137
f 179/514/138 180/515/138 185/516/138 184/517/138
f 180/518/139 181/519/139 186/520/139 185/521/139
f 181/522/140 182/523/140 187/524/140 186/525/140
f 182/526/141 183/527/141 188/528/141 187/529/141
f 188/530/142 183/531/142 157/532/142
f 184/533/143 159/534/143 158/535/143
f 184/536/144 185/537/144 160/538/144 159/539/144
f 185/540/145 186/541/145 161/542/145 160/543/145
f 186/544/146 187/545/146 162/546/146 161/547/146
f 187/548/147 188/549/147 163/550/147 162/551/147
f 163/552/148 188/553/148 157/554/148
f 169/555/149 189/556/149 158/557/149
f 169/558/150 170/559/150 190/560/150 189/561/150
f 170/562/151 171/563/151 191/564/151 190/565/151
f 171/566/152 172/567/152 192/568/152 191/569/152
f 172/570/153 173/571/153 193/572/153 192/573/153
f 193/574/154 173/575/154 157/576/154
f 194/577/155 174/578/155 158/579/155
f 194/580/156 195/581/156 175/582/156 174/583/156
f 195/584/157 196/585/157 176/586/157 175/587/157
f 196/588/158 197/589/158 177/590/158 176/591/158
f 197/592/159 198/593/159 178/594/159 177/595/159
f 178/596/160 198/597/160 157/598/160
o shade
v 0.4453125 0.30091125 0.09375
v 0.4453125 0.30091125 0.15625
v 0.4453125 0.35533875000000004 0.09375
v 0.4453125 0.35533875000000004 0.171875
v 0.41809875 0.40247375 0.09374999999999999
v 0.41809875 0.4024737500000001 0.18749999999999997
v 0.37096375 0.4296875 0.09374999999999997
v 0.37096375 0.42968750000000006 0.20312499999999997
v 0.31653625 0.4296875 0.09374999999999997
v 0.31653625 0.42968750000000006 0.20312499999999997
v 0.26940125 0.40247375 0.09374999999999999
v 0.26940125 0.4024737500000001 0.18749999999999997
v 0.2421875 0.35533875000000004 0.09375
v 0.2421875 0.35533875000000004 0.171875
v 0.2421875 0.30091125 0.09375
v 0.2421875 0.30091125 0.15625
vt 0.62513125 0.515625
vt 0.65234375 0.515625
vt 0.65234375 0.5546875
vt 0.62513125 0.546875
vt 0.65234375 0.515625
vt 0.67955625 0.515625
vt 0.67955625 0.5625
vt 0.65234375 0.5546875
vt 0.625196875 0.8203125
vt 0.652409375 0.8203125
vt 0.652409375 0.875
vt 0.625196875 0.8671875
vt 0.652409375 0.8203125
vt 0.679621875 0.8203125
vt 0.679621875 0.875
vt 0.652409375 0.875
vt 0.679621875 0.8203125
vt 0.706834375 0.8203125
vt 0.706834375 0.8671875
vt 0.679621875 0.875
vt 0.18763125 0.296875
vt 0.21484375 0.296875
vt 0.21484375 0.3359375
vt 0.18763125 0.34375
vt 0.21484375 0.296875
vt 0.24205625 0.296875
vt 0.24205625 0.328125
vt 0.21484375 0.3359375
vn 1 0 0
vn 0.8660226585131923 0.5000047549191339 -1.1102335826665619e-16
vn 0.5000047549191339 0.866022658513192 -1.9229565906568703e-16
vn 0 1 -2.220446049250313e-16
vn -0.5000047549191339 0.8660226585131923 -1.9229565906568708e-16
vn -0.8660226585131923 0.5000047549191339 -1.1102335826665619e-16
vn -1 0 0
usemtl m_7f2020ae-d844-bc1c-4a4e-974d1b18d26e
f 199/599/161 201/600/161 202/601/161 200/602/161
f 201/603/162 203/604/162 204/605/162 202/606/162
f 203/607/163 205/608/163 206/609/163 204/610/163
f 205/611/164 207/612/164 208/613/164 206/614/164
f 207/615/165 209/616/165 210/617/165 208/618/165
f 209/619/166 211/620/166 212/621/166 210/622/166
f 211/623/167 213/624/167 214/625/167 212/626/167
o shade
v 0.4453125 0.30028625000000003 0.09375
v 0.4453125 0.30028625000000003 0.15625
v 0.4453125 0.35471375000000005 0.09375
v 0.4453125 0.35471375000000005 0.171875
v 0.41809875 0.40184875000000003 0.09374999999999999
v 0.41809875 0.4018487500000001 0.18749999999999997
v 0.37096375 0.4290625 0.09374999999999997
v 0.37096375 0.42906250000000007 0.20312499999999997
v 0.31653625 0.4290625 0.09374999999999997
v 0.31653625 0.42906250000000007 0.20312499999999997
v 0.26940125 0.40184875000000003 0.09374999999999999
v 0.26940125 0.4018487500000001 0.18749999999999997
v 0.2421875 0.35471375000000005 0.09375
v 0.2421875 0.35471375000000005 0.171875
v 0.2421875 0.30028625000000003 0.09375
v 0.2421875 0.30028625000000003 0.15625
vt 0.30859375 0.3359375
vt 0.30859375 0.296875
vt 0.33580625 0.296875
vt 0.33580625 0.328125
vt 0.28138125 0.34375
vt 0.28138125 0.296875
vt 0.30859375 0.296875
vt 0.30859375 0.3359375
vt 0.679621875 0.78125
vt 0.679621875 0.7265625
vt 0.706834375 0.7265625
vt 0.706834375 0.7734375
vt 0.652409375 0.78125
vt 0.652409375 0.7265625
vt 0.679621875 0.7265625
vt 0.679621875 0.78125
vt 0.625196875 0.7734375
vt 0.625196875 0.7265625
vt 0.652409375 0.7265625
vt 0.652409375 0.78125
vt 0.52734375 0.3359375
vt 0.52734375 0.296875
vt 0.55455625 0.296875
vt 0.55455625 0.34375
vt 0.50013125 0.328125
vt 0.50013125 0.296875
vt 0.52734375 0.296875
vt 0.52734375 0.3359375
vn -1 0 0
vn -0.8660226585131923 -0.5000047549191339 1.1102335826665619e-16
vn -0.5000047549191339 -0.866022658513192 1.9229565906568703e-16
vn 0 -1 2.220446049250313e-16
vn 0.5000047549191339 -0.8660226585131923 1.9229565906568708e-16
vn 0.8660226585131923 -0.5000047549191339 1.1102335826665619e-16
vn 1 0 0
usemtl m_7f2020ae-d844-bc1c-4a4e-974d1b18d26e
f 218/627/168 217/628/168 215/629/168 216/630/168
f 220/631/169 219/632/169 217/633/169 218/634/169
f 222/635/170 221/636/170 219/637/170 220/638/170
f 224/639/171 223/640/171 221/641/171 222/642/171
f 226/643/172 225/644/172 223/645/172 224/646/172
f 228/647/173 227/648/173 225/649/173 226/650/173
f 230/651/174 229/652/174 227/653/174 228/654/174