# Made in Blockbench 5.1.4
mtllib dc_metro_roof_g2.mtl

o part2
v 0.5000000000013469 2.0000000000013474 0.5
v 0.5000000000013469 2.0000000000013474 -0.5
v 0.5000000000013469 2.0000000000013474 0.5
v 0.5000000000013469 2.0000000000013474 -0.5
v -0.5 1 -0.5
v -0.5 1 0.5
v -0.5 1 -0.5
v -0.5 1 0.5
vt 0 0.046875
vt 0 1
vt 1 1
vt 1 0.046875
vt 0 0.0546875
vt 0 1
vt 1 1
vt 1 0.0546875
vn -0.7071067811865476 0.7071067811865475 0
vn 0.7071067811865476 -0.7071067811865475 0
usemtl m_9cd3b345-b0bc-e367-e166-09c23204c692
f 6/4/1 1/3/1 2/2/1 5/1/1
f 7/8/2 4/7/2 3/6/2 8/5/2