# Made in Blockbench 5.1.6
mtllib dc_metro_fare_gate_1_entrance_closed.mtl

o display_main
v 0.5625 0.71875 0.8131250000000001
v 0.5625 0.71875 0.8131250000000001
v 0.5625 0.59375 0.8131250000000001
v 0.5625 0.59375 0.8131250000000001
v 0.4375 0.71875 0.8131250000000001
v 0.4375 0.71875 0.8131250000000001
v 0.4375 0.59375 0.8131250000000001
v 0.4375 0.59375 0.8131250000000001
vt 0 0.0625
vt 0.0625 0.0625
vt 0.0625 0
vt 0 0
vn 0 0 1
usemtl m_283e9409-aa5f-af52-c658-534a795447c6
f 8/4/1 3/3/1 1/2/1 6/1/1
o display_other
v -0.4375 0.71875 -0.813125
v -0.4375 0.71875 -0.813125
v -0.4375 0.59375 -0.813125
v -0.4375 0.59375 -0.813125
v -0.5625 0.71875 -0.813125
v -0.5625 0.71875 -0.813125
v -0.5625 0.59375 -0.813125
v -0.5625 0.59375 -0.813125
vt 0.068359375 0.0625
vt 0.130859375 0.0625
vt 0.130859375 0
vt 0.068359375 0
vn 0 0 -1
usemtl m_283e9409-aa5f-af52-c658-534a795447c6
f 12/8/2 15/7/2 13/6/2 10/5/2
o card_reader_main
v 0.6256250000000001 0.8768912704945433 0.8097650546330337
v 0.6256250000000001 1.0024592717393384 0.5066170830277678
v 0.6256250000000001 0.8768912704945433 0.8097650546330337
v 0.6256250000000001 1.0024592717393384 0.5066170830277678
v 0.37437499999999996 1.0024592717393384 0.5066170830277678
v 0.37437499999999996 0.8768912704945433 0.8097650546330337
v 0.37437499999999996 1.0024592717393384 0.5066170830277678
v 0.37437499999999996 0.8768912704945433 0.8097650546330337
vt 0.138671875 0.1640625
vt 0.263671875 0.1640625
vt 0.263671875 0
vt 0.138671875 0
vn 0 0.9238795325112867 0.3826834323650897
usemtl m_283e9409-aa5f-af52-c658-534a795447c6
f 22/12/3 17/11/3 18/10/3 21/9/3
o card_reader_other
v -0.374375 1.0009747239533286 -0.5095981122479587
v -0.374375 0.8754067227085336 -0.8127460838532247
v -0.374375 1.0009747239533286 -0.5095981122479587
v -0.374375 0.8754067227085336 -0.8127460838532247
v -0.625625 0.8754067227085336 -0.8127460838532247
v -0.625625 1.0009747239533286 -0.5095981122479587
v -0.625625 0.8754067227085336 -0.8127460838532247
v -0.625625 1.0009747239533286 -0.5095981122479587
vt 0.13671875 0.69140625
vt 0.21875 0.69140625
vt 0.21875 0.67578125
vt 0.13671875 0.67578125
vt 0.13671875 0.69140625
vt 0.21875 0.69140625
vt 0.21875 0.67578125
vt 0.13671875 0.67578125
vt 0.263671875 0
vt 0.138671875 0
vt 0.138671875 0.1640625
vt 0.263671875 0.1640625
vn 1 0 0
vn -1 0 0
vn 0 0.9238795325112867 -0.3826834323650897
usemtl m_283e9409-aa5f-af52-c658-534a795447c6
f 27/16/4 28/15/4 26/14/4 25/13/4
f 31/20/5 32/19/5 30/18/5 29/17/5
f 30/24/6 25/23/6 26/22/6 29/21/6
o cube
v 0.625 1 0.5109375000000003
v 0.625 1 -0.5109375
v 0.625 0 0.75
v 0.625 0 -0.75
v 0.375 1 0.5109375000000003
v 0.375 1 -0.5109375
v 0.375 0 0.75
v 0.375 0 -0.75
v 0.375 0.234375 0.75
v 0.375 0.234375 -0.75
v 0.375 0.375 0.8125
v 0.375 0.375 -0.8125
v 0.375 0.875 0.8125
v 0.375 0.875 -0.8125
v 0.625 0.234375 -0.75
v 0.625 0.375 -0.8125
v 0.625 0.875 -0.8125
v 0.625 0.234375 0.75
v 0.625 0.375 0.8125
v 0.625 0.875 0.8125
vt 0.07539062499999988 0.619140625
vt 0 0.587890625
vt 0.40625000000000006 0.587890625
vt 0.330859375 0.619140625
vt 0.07539062499999995 0.619140625
vt 0 0.587890625
vt 0.40625 0.587890625
vt 0.330859375 0.619140625
vt 0.39453125 0.7421875
vt 0.39453125 1
vt 0.33203125 1
vt 0.33203125 0.7421875
vt 0.0078125 0.9677734375
vt 0.0078125 1
vt 0 1
vt 0 0.9677734375
vt 0.2890625 0.712890625
vt 0.2890625 0.6796875
vt 0.306640625 0.6796875
vt 0.306640625 0.712890625
vt 0.2890625 0.712890625
vt 0.2890625 0.6796875
vt 0.306640625 0.6796875
vt 0.306640625 0.712890625
vt 0.390625 0.369140625
vt 0.390625 0.427734375
vt 0.015625000000000014 0.427734375
vt 0.015625000000000014 0.369140625
vt 0.390625 0.427734375
vt 0.40625 0.462890625
vt 0 0.462890625
vt 0.015625000000000014 0.427734375
vt 0.40625 0.462890625
vt 0.40625 0.587890625
vt 0 0.587890625
vt 0 0.462890625
vt 0.0078125 0.96875
vt 0.0078125 0.9765625
vt 0 0.9765625
vt 0 0.96875
vt 0.0078125 0.9765625
vt 0.0078125 0.984375
vt 0 0.984375
vt 0 0.9765625
vt 0.46484375 0.650390625
vt 0.46484375 0.775390625
vt 0.40234375 0.775390625
vt 0.40234375 0.650390625
vt 0.39062500000000006 0.369140625
vt 0.39062500000000006 0.427734375
vt 0.015625 0.427734375
vt 0.015625 0.369140625
vt 0.39062500000000006 0.427734375
vt 0.40625000000000006 0.462890625
vt 0 0.462890625
vt 0.015625 0.427734375
vt 0.40625000000000006 0.462890625
vt 0.40625000000000006 0.587890625
vt 0 0.587890625
vt 0 0.462890625
vt 0.0078125 0.96875
vt 0.0078125 0.9765625
vt 0 0.9765625
vt 0 0.96875
vt 0.0078125 0.9765625
vt 0.0078125 0.984375
vt 0 0.984375
vt 0 0.9765625
vt 0.46484375 0.650390625
vt 0.46484375 0.775390625
vt 0.40234375 0.775390625
vt 0.40234375 0.650390625
vn 1 0 0
vn -1 0 0
vn 0 1 0
vn 0 -1 0
vn 0 0.9237834125269129 0.38291540415623365
vn 0 0.9237834125269129 -0.3829154041562333
vn -1 0 0
vn -1 0 0
vn -1 0 0
vn 0 0 -1
vn 0 -0.40613846605344767 -0.9138115486202573
vn 0 0 -1
vn 1 0 0
vn 1 0 0
vn 1 0 0
vn 0 0 1
vn 0 -0.40613846605344767 0.9138115486202573
vn 0 0 1
usemtl m_283e9409-aa5f-af52-c658-534a795447c6
f 33/25/7 52/26/7 49/27/7 34/28/7
f 38/29/8 46/30/8 45/31/8 37/32/8
f 33/33/9 34/34/9 38/35/9 37/36/9
f 36/37/10 35/38/10 39/39/10 40/40/10
f 37/41/11 45/42/11 52/43/11 33/44/11
f 34/45/12 49/46/12 46/47/12 38/48/12
f 39/49/13 41/50/13 42/51/13 40/52/13
f 41/53/14 43/54/14 44/55/14 42/56/14
f 43/57/15 45/58/15 46/59/15 44/60/15
f 40/61/16 42/62/16 47/63/16 36/64/16
f 42/65/17 44/66/17 48/67/17 47/68/17
f 44/69/18 46/70/18 49/71/18 48/72/18
f 36/73/19 47/74/19 50/75/19 35/76/19
f 47/77/20 48/78/20 51/79/20 50/80/20
f 48/81/21 49/82/21 52/83/21 51/84/21
f 35/85/22 50/86/22 41/87/22 39/88/22
f 50/89/23 51/90/23 43/91/23 41/92/23
f 51/93/24 52/94/24 45/95/24 43/96/24
o cube
v -0.375 1 0.5109375000000003
v -0.375 1 -0.5109375
v -0.375 0 0.75
v -0.375 0 -0.75
v -0.625 1 0.5109375000000003
v -0.625 1 -0.5109375
v -0.625 0 0.75
v -0.625 0 -0.75
v -0.625 0.234375 0.75
v -0.625 0.234375 -0.75
v -0.625 0.375 0.8125
v -0.625 0.375 -0.8125
v -0.625 0.875 0.8125
v -0.625 0.875 -0.8125
v -0.375 0.234375 -0.75
v -0.375 0.375 -0.8125
v -0.375 0.875 -0.8125
v -0.375 0.234375 0.75
v -0.375 0.375 0.8125
v -0.375 0.875 0.8125
vt 0.07539062499999988 0.619140625
vt 0 0.587890625
vt 0.40625000000000006 0.587890625
vt 0.330859375 0.619140625
vt 0.07539062499999995 0.619140625
vt 0 0.587890625
vt 0.40625 0.587890625
vt 0.330859375 0.619140625
vt 0.39453125 0.7421875
vt 0.39453125 1
vt 0.33203125 1
vt 0.33203125 0.7421875
vt 0.0078125 0.9677734375
vt 0.0078125 1
vt 0 1
vt 0 0.9677734375
vt 0.2890625 0.712890625
vt 0.2890625 0.6796875
vt 0.306640625 0.6796875
vt 0.306640625 0.712890625
vt 0.2890625 0.712890625
vt 0.2890625 0.6796875
vt 0.306640625 0.6796875
vt 0.306640625 0.712890625
vt 0.390625 0.369140625
vt 0.390625 0.427734375
vt 0.015625000000000014 0.427734375
vt 0.015625000000000014 0.369140625
vt 0.390625 0.427734375
vt 0.40625 0.462890625
vt 0 0.462890625
vt 0.015625000000000014 0.427734375
vt 0.40625 0.462890625
vt 0.40625 0.587890625
vt 0 0.587890625
vt 0 0.462890625
vt 0.0078125 0.96875
vt 0.0078125 0.9765625
vt 0 0.9765625
vt 0 0.96875
vt 0.0078125 0.9765625
vt 0.0078125 0.984375
vt 0 0.984375
vt 0 0.9765625
vt 0.46484375 0.650390625
vt 0.46484375 0.775390625
vt 0.40234375 0.775390625
vt 0.40234375 0.650390625
vt 0.39062500000000006 0.369140625
vt 0.39062500000000006 0.427734375
vt 0.015625 0.427734375
vt 0.015625 0.369140625
vt 0.39062500000000006 0.427734375
vt 0.40625000000000006 0.462890625
vt 0 0.462890625
vt 0.015625 0.427734375
vt 0.40625000000000006 0.462890625
vt 0.40625000000000006 0.587890625
vt 0 0.587890625
vt 0 0.462890625
vt 0.0078125 0.96875
vt 0.0078125 0.9765625
vt 0 0.9765625
vt 0 0.96875
vt 0.0078125 0.9765625
vt 0.0078125 0.984375
vt 0 0.984375
vt 0 0.9765625
vt 0.46484375 0.650390625
vt 0.46484375 0.775390625
vt 0.40234375 0.775390625
vt 0.40234375 0.650390625
vn 1 0 0
vn -1 0 0
vn 0 1 0
vn 0 -1 0
vn 0 0.9237834125269129 0.38291540415623365
vn 0 0.9237834125269129 -0.3829154041562333
vn -1 0 0
vn -1 0 0
vn -1 0 0
vn 0 0 -1
vn 0 -0.40613846605344767 -0.9138115486202573
vn 0 0 -1
vn 1 0 0
vn 1 0 0
vn 1 0 0
vn 0 0 1
vn 0 -0.40613846605344767 0.9138115486202573
vn 0 0 1
usemtl m_283e9409-aa5f-af52-c658-534a795447c6
f 53/97/25 72/98/25 69/99/25 54/100/25
f 58/101/26 66/102/26 65/103/26 57/104/26
f 53/105/27 54/106/27 58/107/27 57/108/27
f 56/109/28 55/110/28 59/111/28 60/112/28
f 57/113/29 65/114/29 72/115/29 53/116/29
f 54/117/30 69/118/30 66/119/30 58/120/30
f 59/121/31 61/122/31 62/123/31 60/124/31
f 61/125/32 63/126/32 64/127/32 62/128/32
f 63/129/33 65/130/33 66/131/33 64/132/33
f 60/133/34 62/134/34 67/135/34 56/136/34
f 62/137/35 64/138/35 68/139/35 67/140/35
f 64/141/36 66/142/36 69/143/36 68/144/36
f 56/145/37 67/146/37 70/147/37 55/148/37
f 67/149/38 68/150/38 71/151/38 70/152/38
f 68/153/39 69/154/39 72/155/39 71/156/39
f 55/157/40 70/158/40 61/159/40 59/160/40
f 70/161/41 71/162/41 63/163/41 61/164/41
f 71/165/42 72/166/42 65/167/42 63/168/42
o cube
v 0.375 0.8671875 0.03125
v 0.375 0.8671875 -0.03125
v 0.375 0.0546875 0.03125
v 0.375 0.0546875 -0.03125
v 0.28125 0.8671875 0.03125
v 0.28125 0.8671875 -0.03125
v 0.018750000000000044 0.7953125 0.03125
v 0.018750000000000044 0.7953125 -0.03125
v 0.10520839792670067 0.8333333534096502 0.03125
v 0.10520839792670067 0.8333333534096502 -0.03125
v 0.2010417635566906 0.8619791967811335 0.03125
v 0.2010417635566906 0.8619791967811335 -0.03125
v 0.375 0.3255210602830023 -0.03125
v 0.375 0.5963545070910752 -0.03125
v 0.375 0.3255210602830023 0.03125
v 0.375 0.5963545070910752 0.03125
vt 0.37890625 0.166015625
vt 0.37890625 0.15559897142657975
vt 0.39453125 0.15559897142657975
vt 0.39453125 0.166015625
vt 0.36328125 0.166015625
vt 0.36328125 0.15559897142657975
vt 0.37890625 0.15559897142657975
vt 0.37890625 0.166015625
vt 0.39453125 0.150390625
vt 0.39453125 0.166015625
vt 0.36328125 0.166015625
vt 0.36328125 0.150390625
vt 0.39453125 0.134765625
vt 0.39453125 0.150390625
vt 0.36328125 0.150390625
vt 0.36328125 0.134765625
vt 0.36328125 0.166015625
vt 0.36328125 0.15559897142657975
vt 0.39453125 0.15559897142657975
vt 0.39453125 0.166015625
vt 0.36328125 0.166015625
vt 0.36328125 0.15559897142657975
vt 0.39453125 0.15559897142657975
vt 0.39453125 0.166015625
vt 0.37890625 0.134765625
vt 0.37890625 0.14518230039550006
vt 0.36328125 0.14518230039550006
vt 0.36328125 0.134765625
vt 0.37890625 0.14518230039550006
vt 0.37890625 0.15559897142657975
vt 0.36328125 0.15559897142657975
vt 0.36328125 0.14518230039550006
vt 0.39453125 0.134765625
vt 0.39453125 0.14518230039550006
vt 0.36328125 0.14518230039550006
vt 0.36328125 0.134765625
vt 0.39453125 0.14518230039550006
vt 0.39453125 0.15559897142657975
vt 0.36328125 0.15559897142657975
vt 0.36328125 0.14518230039550006
vt 0.39453125 0.134765625
vt 0.39453125 0.14518230039550006
vt 0.37890625 0.14518230039550006
vt 0.37890625 0.134765625
vt 0.39453125 0.14518230039550006
vt 0.39453125 0.15559897142657975
vt 0.37890625 0.15559897142657975
vt 0.37890625 0.14518230039550006
vt 0.39453125 0.134765625
vt 0.39453125 0.14518230039550006
vt 0.36328125 0.14518230039550006
vt 0.36328125 0.134765625
vt 0.39453125 0.14518230039550006
vt 0.39453125 0.15559897142657975
vt 0.36328125 0.15559897142657975
vt 0.36328125 0.14518230039550006
vn 1 0 0
vn -0.06479829982981541 0.9978983817699904 0
vn 0 1 0
vn -0.9011667417418381 -0.43347260995177017 0
vn 0 0 1
vn 0 0 -1
vn -0.40255373203727507 0.9153963583185493 0
vn -0.28639230891913536 0.9581124388045312 0
vn 0 0 -1
vn 0 0 -1
vn 1 0 0
vn 1 0 0
vn 0 0 1
vn 0 0 1
usemtl m_283e9409-aa5f-af52-c658-534a795447c6
f 73/169/43 88/170/43 86/171/43 74/172/43
f 78/173/44 84/174/44 83/175/44 77/176/44
f 73/177/45 74/178/45 78/179/45 77/180/45
f 76/181/46 75/182/46 79/183/46 80/184/46
f 77/185/47 83/186/47 88/187/47 73/188/47
f 74/189/48 86/190/48 84/191/48 78/192/48
f 79/193/49 81/194/49 82/195/49 80/196/49
f 81/197/50 83/198/50 84/199/50 82/200/50
f 80/201/51 82/202/51 85/203/51 76/204/51
f 82/205/52 84/206/52 86/207/52 85/208/52
f 76/209/53 85/210/53 87/211/53 75/212/53
f 85/213/54 86/214/54 88/215/54 87/216/54
f 75/217/55 87/218/55 81/219/55 79/220/55
f 87/221/56 88/222/56 83/223/56 81/224/56
o cube
v -0.375 0.8671875000000001 -0.03125
v -0.375 0.8671875000000001 0.03125
v -0.375 0.0546875 -0.03125
v -0.375 0.0546875 0.03125
v -0.28125 0.8671875000000001 -0.03125
v -0.28125 0.8671875000000001 0.03125
v -0.018750000000000044 0.7953125000000002 -0.03125
v -0.018750000000000044 0.7953125000000002 0.03125
v -0.10520839792670067 0.8333333534096503 -0.03125
v -0.10520839792670067 0.8333333534096503 0.03125
v -0.2010417635566906 0.8619791967811337 -0.03125
v -0.2010417635566906 0.8619791967811337 0.03125
v -0.375 0.32552106028300243 0.03125
v -0.375 0.5963545070910753 0.03125
v -0.375 0.32552106028300243 -0.03125
v -0.375 0.5963545070910753 -0.03125
vt 0.37890625 0.166015625
vt 0.37890625 0.15559897142657975
vt 0.39453125 0.15559897142657975
vt 0.39453125 0.166015625
vt 0.36328125 0.166015625
vt 0.36328125 0.15559897142657975
vt 0.37890625 0.15559897142657975
vt 0.37890625 0.166015625
vt 0.39453125 0.150390625
vt 0.39453125 0.166015625
vt 0.36328125 0.166015625
vt 0.36328125 0.150390625
vt 0.39453125 0.134765625
vt 0.39453125 0.150390625
vt 0.36328125 0.150390625
vt 0.36328125 0.134765625
vt 0.36328125 0.166015625
vt 0.36328125 0.15559897142657975
vt 0.39453125 0.15559897142657975
vt 0.39453125 0.166015625
vt 0.36328125 0.166015625
vt 0.36328125 0.15559897142657975
vt 0.39453125 0.15559897142657975
vt 0.39453125 0.166015625
vt 0.37890625 0.134765625
vt 0.37890625 0.14518230039550006
vt 0.36328125 0.14518230039550006
vt 0.36328125 0.134765625
vt 0.37890625 0.14518230039550006
vt 0.37890625 0.15559897142657975
vt 0.36328125 0.15559897142657975
vt 0.36328125 0.14518230039550006
vt 0.39453125 0.134765625
vt 0.39453125 0.14518230039550006
vt 0.36328125 0.14518230039550006
vt 0.36328125 0.134765625
vt 0.39453125 0.14518230039550006
vt 0.39453125 0.15559897142657975
vt 0.36328125 0.15559897142657975
vt 0.36328125 0.14518230039550006
vt 0.39453125 0.134765625
vt 0.39453125 0.14518230039550006
vt 0.37890625 0.14518230039550006
vt 0.37890625 0.134765625
vt 0.39453125 0.14518230039550006
vt 0.39453125 0.15559897142657975
vt 0.37890625 0.15559897142657975
vt 0.37890625 0.14518230039550006
vt 0.39453125 0.134765625
vt 0.39453125 0.14518230039550006
vt 0.36328125 0.14518230039550006
vt 0.36328125 0.134765625
vt 0.39453125 0.14518230039550006
vt 0.39453125 0.15559897142657975
vt 0.36328125 0.15559897142657975
vt 0.36328125 0.14518230039550006
vn -1 0 0
vn 0.06479829982981507 0.9978983817699904 0
vn 0 1 0
vn 0.9011667417418382 -0.4334726099517701 0
vn 0 0 -1
vn 0 0 1
vn 0.40255373203727474 0.9153963583185494 0
vn 0.28639230891913536 0.9581124388045312 0
vn 0 0 1
vn 0 0 1
vn -1 0 0
vn -1 0 0
vn 0 0 -1
vn 0 0 -1
usemtl m_283e9409-aa5f-af52-c658-534a795447c6
f 89/225/57 104/226/57 102/227/57 90/228/57
f 94/229/58 100/230/58 99/231/58 93/232/58
f 89/233/59 90/234/59 94/235/59 93/236/59
f 92/237/60 91/238/60 95/239/60 96/240/60
f 93/241/61 99/242/61 104/243/61 89/244/61
f 90/245/62 102/246/62 100/247/62 94/248/62
f 95/249/63 97/250/63 98/251/63 96/252/63
f 97/253/64 99/254/64 100/255/64 98/256/64
f 96/257/65 98/258/65 101/259/65 92/260/65
f 98/261/66 100/262/66 102/263/66 101/264/66
f 92/265/67 101/266/67 103/267/67 91/268/67
f 101/269/68 102/270/68 104/271/68 103/272/68
f 91/273/69 103/274/69 97/275/69 95/276/69
f 103/277/70 104/278/70 99/279/70 97/280/70