# Made in Blockbench 5.1.4
mtllib dc_metro_arch_b5.mtl

o part5
v 1.5 1.074382339908055 -0.4394140258592011
v 1.5 0.02802410233258401 -0.6239152146303147
v 1.5 1.0309702954913222 -0.19321208760614905
v 1.5 -0.01538794208414862 -0.37771327637726276
v 1.375 0.02802410233258401 -0.6239152146303147
v 1.375 1.074382339908055 -0.4394140258592011
v 1.375 -0.01538794208414862 -0.37771327637726276
v 1.375 1.0309702954913222 -0.19321208760614905
vt 0.109375 0.96875
vt 0.125 0.96875
vt 0.125 0.9375
vt 0.109375 0.9375
vt 0 0.96875
vt 0.1328125 0.96875
vt 0.1328125 0.9375
vt 0 0.9375
vt 0 0.96875
vt 0.015625 0.96875
vt 0.015625 0.9375
vt 0 0.9375
vt 0.0078125 0.96875
vt 0.140625 0.96875
vt 0.140625 0.9375
vt 0.0078125 0.9375
vt 0 0.9921875
vt 0.015625 0.9921875
vt 0.015625 0.859375
vt 0 0.859375
vt 0 1
vt 0.015625 1
vt 0.015625 0.8671875
vt 0 0.8671875
vn 0 -0.9848077530122081 -0.17364817766693055
vn 1 0 0
vn 0 0.9848077530122081 0.17364817766693055
vn -1 0 0
vn 0 0.17364817766693055 -0.9848077530122081
vn 0 -0.17364817766693055 0.9848077530122081
usemtl m_5c3bd304-9deb-73d4-b491-712dec815871
f 4/4/1 7/3/1 5/2/1 2/1/1
f 3/8/2 4/7/2 2/6/2 1/5/2
f 8/12/3 3/11/3 1/10/3 6/9/3
f 7/16/4 8/15/4 6/14/4 5/13/4
f 6/20/5 1/19/5 2/18/5 5/17/5
f 7/24/6 4/23/6 3/22/6 8/21/6
o part5
v -0.375 1.074382339908055 -0.43941402585920103
v -0.375 0.028024102332584233 -0.6239152146303147
v -0.375 1.0309702954913225 -0.19321208760614905
v -0.375 -0.015387942084148398 -0.3777132763772627
v -0.5 0.028024102332584233 -0.6239152146303147
v -0.5 1.074382339908055 -0.43941402585920103
v -0.5 -0.015387942084148398 -0.3777132763772627
v -0.5 1.0309702954913225 -0.19321208760614905
vt 0.109375 0.96875
vt 0.125 0.96875
vt 0.125 0.9375
vt 0.109375 0.9375
vt 0 0.96875
vt 0.1328125 0.96875
vt 0.1328125 0.9375
vt 0 0.9375
vt 0 0.96875
vt 0.015625 0.96875
vt 0.015625 0.9375
vt 0 0.9375
vt 0 0.96875
vt 0.1328125 0.96875
vt 0.1328125 0.9375
vt 0 0.9375
vt 0 1
vt 0.015625 1
vt 0.015625 0.8671875
vt 0 0.8671875
vt 0 1
vt 0.015625 1
vt 0.015625 0.8671875
vt 0 0.8671875
vn 0 -0.9848077530122081 -0.17364817766693055
vn 1 0 0
vn 0 0.9848077530122081 0.17364817766693055
vn -1 0 0
vn 0 0.17364817766693055 -0.9848077530122081
vn 0 -0.17364817766693055 0.9848077530122081
usemtl m_5c3bd304-9deb-73d4-b491-712dec815871
f 12/28/7 15/27/7 13/26/7 10/25/7
f 11/32/8 12/31/8 10/30/8 9/29/8
f 16/36/9 11/35/9 9/34/9 14/33/9
f 15/40/10 16/39/10 14/38/10 13/37/10
f 14/44/11 9/43/11 10/42/11 13/41/11
f 15/48/12 12/47/12 11/46/12 16/45/12
o part5
v 1.5 1.087019142043156 -0.6910424696643447
v 1.5 0.056048525608500877 -0.8728304056594125
v 1.5 1.0436070976264233 -0.44484053141129265
v 1.5 0.01263648119176819 -0.6266284674063606
v -0.5 0.056048525608500877 -0.8728304056594125
v -0.5 1.087019142043156 -0.6910424696643447
v -0.5 0.01263648119176819 -0.6266284674063606
v -0.5 1.0436070976264233 -0.44484053141129265
vt 0 0.96875
vt 0.25 0.96875
vt 0.25 0.9375
vt 0 0.9375
vt 0.001953125 0.96875
vt 0.1328125 0.96875
vt 0.1328125 0.9375
vt 0.001953125 0.9375
vt 0 0.96875
vt 0.25 0.96875
vt 0.25 0.9375
vt 0 0.9375
vt 0 0.96875
vt 0.130859375 0.96875
vt 0.130859375 0.9375
vt 0 0.9375
vt 0 1
vt 0.25 1
vt 0.25 0.869140625
vt 0 0.869140625
vt 0 0.998046875
vt 0.25 0.998046875
vt 0.25 0.8671875
vt 0 0.8671875
vn 0 -0.9848077530122081 -0.17364817766693055
vn 1 0 0
vn 0 0.9848077530122081 0.17364817766693055
vn -1 0 0
vn 0 0.17364817766693055 -0.9848077530122081
vn 0 -0.17364817766693055 0.9848077530122081
usemtl m_5c3bd304-9deb-73d4-b491-712dec815871
f 20/52/13 23/51/13 21/50/13 18/49/13
f 19/56/14 20/55/14 18/54/14 17/53/14
f 24/60/15 19/59/15 17/58/15 22/57/15
f 23/64/16 24/63/16 22/62/16 21/61/16
f 22/68/17 17/67/17 18/66/17 21/65/17
f 23/72/18 20/71/18 19/70/18 24/69/18