# Made in Blockbench 5.1.6
mtllib dc_metro_roof_j3l.mtl

o cube
v -0.5 0.8125 0.5
v -0.5 1 0.5
v -0.5 1 -0.5
v -0.5 0.8125 -0.5
v 0.5 1 0.5
v 0.5 1 -0.5
vt 0.125 0.9765625
vt 0.125 1
vt 0 1
vt 0 0.9765625
vt 0.125 0.875
vt 0.125 1
vt 0 1
vt 0 0.875
vt 0.125 0.875
vt 0.125 1
vt 0 1
vt 0 0.875
vt 0.125 1
vt 0 1
vt 0.125 0.9765625
vt 0 1
vt 0 0.9765625
vt 0.125 1
vn -1 0 0
vn 0 1 0
vn 0.18428853505018536 -0.9828721869343219 0
vn 0 0 -1
vn 0 0 1
usemtl m_8297790a-627b-fcea-cbb3-eadfdcf4409e
f 1/1/1 2/2/1 3/3/1 4/4/1
f 5/5/2 6/6/2 3/7/2 2/8/2
f 6/9/3 5/10/3 1/11/3 4/12/3
f 3/13/4 6/14/4 4/15/4
f 2/16/5 1/17/5 5/18/5