# Made in Blockbench 5.1.4
mtllib dc_metro_roof_d6.mtl

o part6
v 0.25667840624936666 0.3194156414693638 0.5
v 0.25667840624936666 0.3194156414693638 -0.5
v 0.44802012243191147 -0.1425241247862797 0.5
v 0.44802012243191147 -0.1425241247862797 -0.5
v -0.7538148324348534 -0.09914436267995294 -0.5
v -0.7538148324348534 -0.09914436267995294 0.5
v -0.5624731162523084 -0.5610841289355964 -0.5
v -0.5624731162523084 -0.5610841289355964 0.5
vt 0.005859375 0.984375
vt 0.142578125 0.984375
vt 0.142578125 0.921875
vt 0.005859375 0.921875
vt 0 0.984375
vt 0.125 0.984375
vt 0.125 0.921875
vt 0 0.921875
vt 0 0.984375
vt 0.13671875 0.984375
vt 0.13671875 0.921875
vt 0 0.921875
vt 0 0.984375
vt 0.125 0.984375
vt 0.125 0.921875
vt 0 0.921875
vt 0 1
vt 0.13671875 1
vt 0.13671875 0.875
vt 0 0.875
vt 0 1
vt 0.13671875 1
vt 0.13671875 0.875
vt 0 0.875
vn 0 0 -1
vn 0.9238795325112868 0.3826834323650896 0
vn 0 0 1
vn -0.9238795325112868 -0.3826834323650896 0
vn -0.3826834323650896 0.9238795325112868 0
vn 0.3826834323650896 -0.9238795325112868 0
usemtl m_0b7e94d4-2ac3-ef8f-cc87-0a35eb449212
f 4/4/1 7/3/1 5/2/1 2/1/1
f 3/8/2 4/7/2 2/6/2 1/5/2
f 8/12/3 3/11/3 1/10/3 6/9/3
f 7/16/4 8/15/4 6/14/4 5/13/4
f 6/20/5 1/19/5 2/18/5 5/17/5
f 7/24/6 4/23/6 3/22/6 8/21/6
o part6
v 0.37281679899579795 0.3519167073790299 0.5
v 0.37281679899579795 0.3519167073790299 -0.5
v 0.5002851787087894 -0.12380176206833617 0.5
v 0.5002851787087894 -0.12380176206833617 -0.5
v 0.24724644157821918 0.3182702315157022 -0.5
v 0.24724644157821918 0.3182702315157022 0.5
v 0.3747148212912106 -0.15744823793166385 -0.5
v 0.3747148212912106 -0.15744823793166385 0.5
vt 0.0071874999999999994 0.9990625
vt 0.023437499999999986 0.9990625
vt 0.023437499999999986 0.9375
vt 0.0071874999999999994 0.9375
vt 0 0.9990625
vt 0.125 0.9990625
vt 0.125 0.9375
vt 0 0.9375
vt 0 0.9990625
vt 0.016249999999999987 0.9990625
vt 0.016249999999999987 0.9375
vt 0 0.9375
vt 0 0.9990625
vt 0.125 0.9990625
vt 0.125 0.9375
vt 0 0.9375
vt 0 1
vt 0.016249999999999987 1
vt 0.016249999999999987 0.875
vt 0 0.875
vt 0 1
vt 0.016249999999999987 1
vt 0.016249999999999987 0.875
vt 0 0.875
vn 0 0 -1
vn 0.9659258262890683 0.25881904510252074 0
vn 0 0 1
vn -0.9659258262890683 -0.25881904510252074 0
vn -0.25881904510252074 0.9659258262890683 0
vn 0.25881904510252074 -0.9659258262890683 0
usemtl m_0b7e94d4-2ac3-ef8f-cc87-0a35eb449212
f 12/28/7 15/27/7 13/26/7 10/25/7
f 11/32/8 12/31/8 10/30/8 9/29/8
f 16/36/9 11/35/9 9/34/9 14/33/9
f 15/40/10 16/39/10 14/38/10 13/37/10
f 14/44/11 9/43/11 10/42/11 13/41/11
f 15/48/12 12/47/12 11/46/12 16/45/12