# Made in Blockbench 5.1.5
mtllib dc_metrobus_roof_4f.mtl

o part4f
v -0.05310499999999996 0 0.07947749999999987
v -0.018648124999999904 0 0.09375
v 0 0 0
v -0.05310499999999996 1 0.07947749999999987
v -0.018648124999999904 1 0.09375
v 0 1 0
v -0.07947750000000009 0 0.05310499999999996
v -0.07947750000000009 1 0.05310499999999996
v -0.09375 0 0.018648124999999904
v -0.09375 1 0.018648124999999904
v -0.09375 0 -0.018648124999999904
v -0.09375 1 -0.018648124999999904
v -0.07947750000000009 0 -0.05310499999999996
v -0.07947750000000009 1 -0.05310499999999996
v -0.05310499999999996 0 -0.07947749999999987
v -0.05310499999999996 1 -0.07947749999999987
v -0.018648124999999904 0 -0.09375
v -0.018648124999999904 1 -0.09375
v 0.018648125000000015 0 -0.09375
v 0.018648125000000015 1 -0.09375
v 0.05310499999999996 0 -0.07947749999999987
v 0.05310499999999996 1 -0.07947749999999987
v 0.07947749999999998 0 -0.05310499999999996
v 0.07947749999999998 1 -0.05310499999999996
v 0.09375 0 -0.018648124999999904
v 0.09375 1 -0.018648124999999904
v 0.09375 0 0.018648124999999904
v 0.09375 1 0.018648124999999904
v 0.07947749999999998 0 0.05310499999999996
v 0.07947749999999998 1 0.05310499999999996
v 0.05310499999999996 0 0.07947749999999987
v 0.05310499999999996 1 0.07947749999999987
v 0.018648125000000015 0 0.09375
v 0.018648125000000015 1 0.09375
vt 0.00137984375 1
vt 0.001493515625 0.9994284375
vt 0 0.9994284375
vt 0.0005828125 1
vt 0.0005828125 0.984375
vt 0 0.984375
vt 0 1
vt 0.0005715625 0.99862015625
vt 0 0.998506484375
vt 0 1
vt 0.00137984375 1
vt 0.001493515625 0.999428515625
vt 0 0.999428515625
vt 0.0005828125 1
vt 0.0005828125 0.984375
vt 0 0.984375
vt 0 1
vt 0.000571484375 0.99862015625
vt 0 0.998506484375
vt 0 1
vt 0.00137984375 1
vt 0.001493515625 0.9994284375
vt 0 0.9994284375
vt 0.0005828125 1
vt 0.0005828125 0.984375
vt 0 0.984375
vt 0 1
vt 0.0005715625 0.99862015625
vt 0 0.998506484375
vt 0 1
vt 0.00146484375 1
vt 0.00146484375 0.9994171875
vt 0 0.99970859375
vt 0.0005828125 1
vt 0.0005828125 0.984375
vt 0 0.984375
vt 0 1
vt 0.00146484375 1
vt 0.00146484375 0.9994171875
vt 0 0.99970859375
vt 0.0005715625 0.99862015625
vt 0 0.998506484375
vt 0 1
vt 0.0005828125 1
vt 0.0005828125 0.984375
vt 0 0.984375
vt 0 1
vt 0.00137984375 1
vt 0.001493515625 0.9994284375
vt 0 0.9994284375
vt 0.000571484375 0.99862015625
vt 0 0.998506484375
vt 0 1
vt 0.0005828125 1
vt 0.0005828125 0.984375
vt 0 0.984375
vt 0 1
vt 0.00137984375 1
vt 0.001493515625 0.999428515625
vt 0 0.999428515625
vt 0.0005715625 0.99862015625
vt 0 0.998506484375
vt 0 1
vt 0.0005828125 1
vt 0.0005828125 0.984375
vt 0 0.984375
vt 0 1
vt 0.00137984375 1
vt 0.001493515625 0.9994284375
vt 0 0.9994284375
vt 0.0005828125 0.99853515625
vt 0 0.99853515625
vt 0.00029140625 1
vt 0.0005828125 1
vt 0.0005828125 0.984375
vt 0 0.984375
vt 0 1
vt 0 1
vt 0.0005828125 1
vt 0.00029140625 0.99853515625
vt 0.000113671875 0.9994284375
vt 0 1
vt 0.001493515625 1
vt 0.0005828125 1
vt 0.0005828125 0.984375
vt 0 0.984375
vt 0 1
vt 0 0.99988625
vt 0.0005715625 1
vt 0.0005715625 0.998506484375
vt 0.000113671875 0.999428515625
vt 0 1
vt 0.001493515625 1
vt 0.0005828125 1
vt 0.0005828125 0.984375
vt 0 0.984375
vt 0 1
vt 0 0.999886328125
vt 0.000571484375 1
vt 0.000571484375 0.998506484375
vt 0.00011375 0.9994284375
vt 0 1
vt 0.001493515625 1
vt 0.0005828125 1
vt 0.0005828125 0.984375
vt 0 0.984375
vt 0 1
vt 0 0.999886328125
vt 0.0005715625 1
vt 0.0005715625 0.998506484375
vt 0 0.9994171875
vt 0 1
vt 0.00146484375 0.99970859375
vt 0.0005828125 1
vt 0.0005828125 0.984375
vt 0 0.984375
vt 0 1
vt 0 0.9994171875
vt 0 1
vt 0.00146484375 0.99970859375
vt 0 0.999886328125
vt 0.0005715625 1
vt 0.0005715625 0.998506484375
vt 0.0005828125 1
vt 0.0005828125 0.984375
vt 0 0.984375
vt 0 1
vt 0.00011375 0.9994284375
vt 0 1
vt 0.001493515625 1
vt 0 0.999886328125
vt 0.000571484375 1
vt 0.000571484375 0.998506484375
vt 0.0005828125 1
vt 0.0005828125 0.984375
vt 0 0.984375
vt 0 1
vt 0.000113671875 0.999428515625
vt 0 1
vt 0.001493515625 1
vt 0 0.99988625
vt 0.0005715625 1
vt 0.0005715625 0.998506484375
vt 0.0005828125 1
vt 0.0005828125 0.984375
vt 0 0.984375
vt 0 1
vt 0.000113671875 0.9994284375
vt 0 1
vt 0.001493515625 1
vt 0 1
vt 0.0005828125 1
vt 0.00029140625 0.99853515625
vt 0.0005828125 1
vt 0.0005828125 0.984375
vt 0 0.984375
vt 0 1
vt 0.0005828125 0.99853515625
vt 0 0.99853515625
vt 0.00029140625 1
vn 0 -1 0
vn -0.3826833192625321 0 0.923879579359892
vn 0 1 0
vn 0 -1 0
vn -0.7071067811865446 0 0.7071067811865506
vn 0 1 0
vn 0 -1 0
vn -0.9238795793598941 0 0.38268331926252697
vn 0 1 0
vn 0 -1 0
vn -1 0 0
vn 0 1 0
vn 0 -1 0
vn -0.9238795793598941 0 -0.38268331926252697
vn 0 1 0
vn 0 -1 0
vn -0.7071067811865446 0 -0.7071067811865506
vn 0 1 0
vn 0 -1 0
vn -0.3826833192625321 0 -0.923879579359892
vn 0 1 0
vn 0 -1 0
vn 0 0 -1
vn 0 1 0
vn 0 -1 0
vn 0.38268331926253324 0 -0.9238795793598917
vn 0 1 0
vn 0 -1 0
vn 0.707106781186546 0 -0.707106781186549
vn 0 1 0
vn 0 -1 0
vn 0.9238795793598932 0 -0.38268331926252963
vn 0 1 0
vn 0 -1 0
vn 1 0 0
vn 0 1 0
vn 0 -1 0
vn 0.9238795793598932 0 0.38268331926252963
vn 0 1 0
vn 0 -1 0
vn 0.707106781186546 0 0.707106781186549
vn 0 1 0
vn 0 -1 0
vn 0.38268331926253324 0 0.9238795793598917
vn 0 1 0
vn 0 -1 0
vn 0 0 1
vn 0 1 0
usemtl m_7a6fba54-df4d-cd7a-f830-e03ece11ba3d
f 2/1/1 1/2/1 3/3/1
f 4/4/2 1/5/2 2/6/2 5/7/2
f 4/8/3 5/9/3 6/10/3
f 1/11/4 7/12/4 3/13/4
f 8/14/5 7/15/5 1/16/5 4/17/5
f 8/18/6 4/19/6 6/20/6
f 7/21/7 9/22/7 3/23/7
f 10/24/8 9/25/8 7/26/8 8/27/8
f 10/28/9 8/29/9 6/30/9
f 9/31/10 11/32/10 3/33/10
f 12/34/11 11/35/11 9/36/11 10/37/11
f 12/38/12 10/39/12 6/40/12
f 11/41/13 13/42/13 3/43/13
f 14/44/14 13/45/14 11/46/14 12/47/14
f 14/48/15 12/49/15 6/50/15
f 13/51/16 15/52/16 3/53/16
f 16/54/17 15/55/17 13/56/17 14/57/17
f 16/58/18 14/59/18 6/60/18
f 15/61/19 17/62/19 3/63/19
f 18/64/20 17/65/20 15/66/20 16/67/20
f 18/68/21 16/69/21 6/70/21
f 17/71/22 19/72/22 3/73/22
f 20/74/23 19/75/23 17/76/23 18/77/23
f 20/78/24 18/79/24 6/80/24
f 19/81/25 21/82/25 3/83/25
f 22/84/26 21/85/26 19/86/26 20/87/26
f 22/88/27 20/89/27 6/90/27
f 21/91/28 23/92/28 3/93/28
f 24/94/29 23/95/29 21/96/29 22/97/29
f 24/98/30 22/99/30 6/100/30
f 23/101/31 25/102/31 3/103/31
f 26/104/32 25/105/32 23/106/32 24/107/32
f 26/108/33 24/109/33 6/110/33
f 25/111/34 27/112/34 3/113/34
f 28/114/35 27/115/35 25/116/35 26/117/35
f 28/118/36 26/119/36 6/120/36
f 27/121/37 29/122/37 3/123/37
f 30/124/38 29/125/38 27/126/38 28/127/38
f 30/128/39 28/129/39 6/130/39
f 29/131/40 31/132/40 3/133/40
f 32/134/41 31/135/41 29/136/41 30/137/41
f 32/138/42 30/139/42 6/140/42
f 31/141/43 33/142/43 3/143/43
f 34/144/44 33/145/44 31/146/44 32/147/44
f 34/148/45 32/149/45 6/150/45
f 33/151/46 2/152/46 3/153/46
f 5/154/47 2/155/47 33/156/47 34/157/47
f 5/158/48 34/159/48 6/160/48
o part4f
v -0.125 0.875 0.5
v -0.125 1 0
v -0.125 0.796875 0.5
v -0.125 0.9375 0
v 0.5 0.875 0.5
v 0.5 1 0
v 0.5 0.796875 0.5
v 0.5 0.9375 0
vt 0 1
vt 0.125 1
vt 0.125 0.984375
vt 0 0.984375
vt 0 1
vt 0.125 1
vt 0.125 0.984375
vt 0 0.984375
vt 0 1
vt 0.125 1
vt 0.125 0.875
vt 0 0.875
vt 0 1
vt 0.125 1
vt 0.125 0.875
vt 0 0.875
vt 0 1
vt 0.125 1
vt 0.125 0.984375
vt 0 0.984375
vt 0 1
vt 0.125 1
vt 0.125 0.984375
vt 0 0.984375
vn -1 0 0
vn 1 0 0
vn 0 0.9701425001453319 0.24253562503633297
vn 0 -0.9626509401538991 -0.2707455769182841
vn 0 0 1
vn 0 0 -1
usemtl m_7a6fba54-df4d-cd7a-f830-e03ece11ba3d
f 35/161/49 36/162/49 38/163/49 37/164/49
f 40/165/50 39/166/50 41/167/50 42/168/50
f 40/169/51 36/170/51 35/171/51 39/172/51
f 41/173/52 37/174/52 38/175/52 42/176/52
f 39/177/53 35/178/53 37/179/53 41/180/53
f 36/181/54 40/182/54 42/183/54 38/184/54
o part4f
v 0.5 0.9375 0.0625
v 0.5 0.9375 0
v 0.5 0.6875 0.0625
v 0.5 0.6875 0
v -0.125 0.9375 0
v -0.125 0.9375 0.0625
v -0.125 0.6875 0
v -0.125 0.6875 0.0625
vt 0.1015625 1
vt 0.0234375 1
vt 0.0234375 0.96875
vt 0.1015625 0.96875
vt 0.0078125 1
vt 0 1
vt 0 0.96875
vt 0.0078125 0.96875
vt 0.1015625 1
vt 0.0234375 1
vt 0.0234375 0.96875
vt 0.1015625 0.96875
vt 0.015625 1
vt 0.0078125 1
vt 0.0078125 0.96875
vt 0.015625 0.96875
vt 0.1015625 1
vt 0.0234375 1
vt 0.0234375 0.9921875
vt 0.1015625 0.9921875
vt 0.1015625 0.9921875
vt 0.0234375 0.9921875
vt 0.0234375 0.984375
vt 0.1015625 0.984375
vn 0 0 -1
vn 1 0 0
vn 0 0 1
vn -1 0 0
vn 0 1 0
vn 0 -1 0
usemtl m_7a6fba54-df4d-cd7a-f830-e03ece11ba3d
f 46/188/55 49/187/55 47/186/55 44/185/55
f 45/192/56 46/191/56 44/190/56 43/189/56
f 50/196/57 45/195/57 43/194/57 48/193/57
f 49/200/58 50/199/58 48/198/58 47/197/58
f 48/204/59 43/203/59 44/202/59 47/201/59
f 49/208/60 46/207/60 45/206/60 50/205/60