# Made in Blockbench 5.1.6
mtllib dc_metro_mezzanine_light_2_light_layer.mtl

o cube
v -0.1874999999999999 -0.125625 0.5
v 0.1875000000000001 -0.125625 0.49999999999999994
v -0.1874999999999999 -0.125625 0.5
v 0.1875000000000001 -0.125625 0.49999999999999994
v 0.1874999999999999 -0.125625 -0.5
v -0.1875000000000001 -0.125625 -0.49999999999999994
v 0.1874999999999999 -0.125625 -0.5
v -0.1875000000000001 -0.125625 -0.49999999999999994
vt 0 1
vt 0.25 1
vt 0.25 1
vt 0 1
vt 0 1
vt 0.09375 1
vt 0.09375 1
vt 0 1
vt 0 1
vt 0.25 1
vt 0.25 1
vt 0 1
vt 0 1
vt 0.09375 1
vt 0.09375 1
vt 0 1
vt 0.25 0.71875
vt 0 0.71875
vt 0 0.8125
vt 0.25 0.8125
vt 0.5 1
vt 0.25 1
vt 0.25 0.90625
vt 0.5 0.90625
vn 1 0 -2.220446049250313e-16
vn 2.220446049250313e-16 0 1
vn -1 0 2.220446049250313e-16
vn -2.220446049250313e-16 0 -1
vn 0 1 0
vn 0 -1 0
usemtl m_220bc61f-9488-fbfe-48d5-a81d67972d17
f 4/4/1 7/3/1 5/2/1 2/1/1
f 3/8/2 4/7/2 2/6/2 1/5/2
f 8/12/3 3/11/3 1/10/3 6/9/3
f 7/16/4 8/15/4 6/14/4 5/13/4
f 6/20/5 1/19/5 2/18/5 5/17/5
f 7/24/6 4/23/6 3/22/6 8/21/6