# Made in Blockbench 5.1.6
mtllib dc_metro_entrance_ceiling_1.mtl

o cube
v 0.5 1 0.5
v 0.5 1 -0.5
v 0.5 0 -0.5
v -0.5 1 0.5
v -0.5 1 -0.5
v -0.5 0 -0.5
vt 0.125 1
vt 0 1
vt 0 0.875
vt 0.125 1
vt 0 1
vt 0.125 0.875
vt 0.125 0.875
vt 0.125 1
vt 0 1
vt 0 0.875
vt 0.125 0.875
vt 0.125 1
vt 0 1
vt 0 0.875
vt 0.125 0.875
vt 0.125 1
vt 0 1
vt 0 0.875
vn 1 0 0
vn -1 0 0
vn 0 1 0
vn 0 -0.7071067811865476 0.7071067811865476
vn 0 0 -1
usemtl m_36d547c1-a48f-be2c-b885-fbdec8a9f934
f 2/1/1 1/2/1 3/3/1
f 4/4/2 5/5/2 6/6/2
f 1/7/3 2/8/3 5/9/3 4/10/3
f 3/11/4 1/12/4 4/13/4 6/14/4
f 6/15/5 5/16/5 2/17/5 3/18/5