# Made in Blockbench 5.1.4
mtllib dc_metro_arch_b2.mtl

o part2
v 1.5 0.8917796302685372 0.01185199743493523
v 1.5 -0.0845163768513959 0.22829161137303783
v 1.5 0.9999994372375884 0.5000000009949018
v 1.5 0.023703430117655355 0.7164396149330045
v -0.5 -0.0845163768513959 0.22829161137303783
v -0.5 0.8917796302685372 0.01185199743493523
v -0.5 0.023703430117655355 0.7164396149330045
v -0.5 0.9999994372375884 0.5000000009949018
vt 0 1
vt 0.25 1
vt 0.25 0.9375
vt 0 0.9375
vt 0.109375 1
vt 0.234375 1
vt 0.234375 0.9375
vt 0.109375 0.9375
vt 0 1
vt 0.25 1
vt 0.25 0.9375
vt 0 0.9375
vt 0 1
vt 0.12499999999999999 1
vt 0.12499999999999999 0.9375
vt 0 0.9375
vt 0 1
vt 0.25 1
vt 0.25 0.875
vt 0 0.875
vt 0 0.890625
vt 0.25 0.890625
vt 0.25 0.765625
vt 0 0.765625
vn 0 -0.9762960071199335 0.21643961393810265
vn 1 0 0
vn 0 0.9762960071199335 -0.21643961393810265
vn -1 0 0
vn 0 -0.21643961393810265 -0.9762960071199335
vn 0 0.21643961393810265 0.9762960071199335
usemtl m_5c3bd304-9deb-73d4-b491-712dec815871
f 4/4/1 7/3/1 5/2/1 2/1/1
f 3/8/2 4/7/2 2/6/2 1/5/2
f 8/12/3 3/11/3 1/10/3 6/9/3
f 7/16/4 8/15/4 6/14/4 5/13/4
f 6/20/5 1/19/5 2/18/5 5/17/5
f 7/24/6 4/23/6 3/22/6 8/21/6