# Made in Blockbench 5.1.4
mtllib dc_metro_roof_g1b.mtl

o part1b
v 6.7346128673762e-13 2.5000000000006737 0.5
v 6.7346128673762e-13 2.5000000000006737 -0.5
v 6.7346128673762e-13 2.5000000000006737 0.5
v 6.7346128673762e-13 2.5000000000006737 -0.5
v -0.5 2 -0.5
v -0.5 2 0.5
v -0.5 2 -0.5
v -0.5 2 0.5
vt 0 0.2084866523515625
vt 0 0.8671875
vt 1 0.8671875
vt 1 0.2084866523515625
vt 0 0.25
vt 0 0.828125
vt 1 0.828125
vt 1 0.25
vn -0.7071067811865476 0.7071067811865475 0
vn 0.7071067811865476 -0.7071067811865475 0
usemtl m_9cd3b345-b0bc-e367-e166-09c23204c692
f 6/4/1 1/3/1 2/2/1 5/1/1
f 7/8/2 4/7/2 3/6/2 8/5/2
o part1b
v -6.720851824935671e-13 2.500000000000675 -0.5
v -6.7442611007364e-13 2.5000000000006715 0.5
v -6.720851824935671e-13 2.500000000000675 -0.5
v -6.7442611007364e-13 2.5000000000006715 0.5
v 0.4999999999999997 1.9999999999999987 0.49999999999999944
v 0.5000000000000021 2.000000000000002 -0.5000000000000006
v 0.4999999999999997 1.9999999999999987 0.49999999999999944
v 0.5000000000000021 2.000000000000002 -0.5000000000000006
vt 0 0.2553616523515625
vt 0 0.8515625
vt 1 0.8515625
vt 1 0.2553616523515625
vt 0 0.2553616523515625
vt 0 0.8046875
vt 1 0.8046875
vt 1 0.2553616523515625
vn 0.7071067811865467 0.7071067811865485 4.1192675685652995e-15
vn -0.7071067811865467 -0.7071067811865485 -4.1192675685652995e-15
usemtl m_9cd3b345-b0bc-e367-e166-09c23204c692
f 14/12/3 9/11/3 10/10/3 13/9/3
f 15/16/4 12/15/4 11/14/4 16/13/4
o part1b
v 0.5 1 0.25
v 0.5 1 -0.25
v 0.5 0 0.25
v 0.5 0 -0.25
v -0.5 1 -0.25
v -0.5 1 0.25
v -0.5 0 -0.25
v -0.5 0 0.25
vt 0 1
vt 0.125 1
vt 0.125 0.875
vt 0 0.875
vt 0.0078125 1
vt 0.0703125 1
vt 0.0703125 0.875
vt 0.0078125 0.875
vt 0 1
vt 0.125 1
vt 0.125 0.875
vt 0 0.875
vt 0.0078125 1
vt 0.0703125 1
vt 0.0703125 0.875
vt 0.0078125 0.875
vt 0 0.9921875
vt 0.125 0.9921875
vt 0.125 0.9296875
vt 0 0.9296875
vt 0 0.9921875
vt 0.125 0.9921875
vt 0.125 0.9296875
vt 0 0.9296875
vn 0 0 -1
vn 1 0 0
vn 0 0 1
vn -1 0 0
vn 0 1 0
vn 0 -1 0
usemtl m_065df9a7-ad31-b707-a8e5-984be486f612
f 20/20/5 23/19/5 21/18/5 18/17/5
f 19/24/6 20/23/6 18/22/6 17/21/6
f 24/28/7 19/27/7 17/26/7 22/25/7
f 23/32/8 24/31/8 22/30/8 21/29/8
f 22/36/9 17/35/9 18/34/9 21/33/9
f 23/40/10 20/39/10 19/38/10 24/37/10