# Made in Blockbench 5.1.6
mtllib dc_metro_fare_gate_1_entrance_open.mtl

o card_reader_main
v 0.37437499999999996 0.8768912704945433 0.8097650546330337
v 0.6256250000000001 0.8768912704945433 0.8097650546330337
v 0.6256250000000001 1.0024592717393384 0.5066170830277678
v 0.37437499999999996 1.0024592717393384 0.5066170830277678
vt 0.138671875 0
vt 0.263671875 0
vt 0.263671875 0.1640625
vt 0.138671875 0.1640625
vn 0 0.923879532511287 0.3826834323650898
usemtl m_18371576-ec49-ce98-7350-9b1ff3e2c1a3
f 1/1/1 2/2/1 3/3/1 4/4/1
o card_reader_other
v -0.374375 1.0009747239533286 -0.5095981122479587
v -0.374375 0.8754067227085336 -0.8127460838532247
v -0.374375 0.8754067227085336 -0.8127460838532247
v -0.374375 1.0009747239533286 -0.5095981122479587
v -0.625625 0.8754067227085336 -0.8127460838532247
v -0.625625 1.0009747239533286 -0.5095981122479587
v -0.625625 1.0009747239533286 -0.5095981122479587
v -0.625625 0.8754067227085336 -0.8127460838532247
vt 0.13671875 0.67578125
vt 0.21875 0.67578125
vt 0.21875 0.69140625
vt 0.13671875 0.69140625
vt 0.13671875 0.67578125
vt 0.21875 0.67578125
vt 0.21875 0.69140625
vt 0.13671875 0.69140625
vt 0.263671875 0.1640625
vt 0.138671875 0.1640625
vt 0.138671875 0
vt 0.263671875 0
vn 0 0 0
vn 0 0 0
vn 0 0.9238795325112867 -0.3826834323650897
usemtl m_18371576-ec49-ce98-7350-9b1ff3e2c1a3
f 5/5/2 6/6/2 7/7/2 8/8/2
f 9/9/3 10/10/3 11/11/3 12/12/3
f 11/13/4 8/14/4 7/15/4 12/16/4
o cube
v 0.625 1 0.5109375000000003
v 0.625 0.875 0.8125
v 0.625 0.875 -0.8125
v 0.625 1 -0.5109375
v 0.375 1 -0.5109375
v 0.375 0.875 -0.8125
v 0.375 0.875 0.8125
v 0.375 1 0.5109375000000003
v 0.625 0 -0.75
v 0.625 0 0.75
v 0.375 0 0.75
v 0.375 0 -0.75
v 0.375 0.234375 0.75
v 0.375 0.234375 -0.75
v 0.375 0.375 0.8125
v 0.375 0.375 -0.8125
v 0.625 0.234375 -0.75
v 0.625 0.375 -0.8125
v 0.625 0.234375 0.75
v 0.625 0.375 0.8125
vt 0.07539062499999988 0.619140625
vt 0 0.587890625
vt 0.40625000000000006 0.587890625
vt 0.330859375 0.619140625
vt 0.07539062499999995 0.619140625
vt 0 0.587890625
vt 0.40625 0.587890625
vt 0.330859375 0.619140625
vt 0.39453125 0.7421875
vt 0.39453125 1
vt 0.33203125 1
vt 0.33203125 0.7421875
vt 0.0078125 0.9677734375
vt 0.0078125 1
vt 0 1
vt 0 0.9677734375
vt 0.2890625 0.712890625
vt 0.2890625 0.6796875
vt 0.306640625 0.6796875
vt 0.306640625 0.712890625
vt 0.2890625 0.712890625
vt 0.2890625 0.6796875
vt 0.306640625 0.6796875
vt 0.306640625 0.712890625
vt 0.390625 0.369140625
vt 0.390625 0.427734375
vt 0.015625000000000014 0.427734375
vt 0.015625000000000014 0.369140625
vt 0.390625 0.427734375
vt 0.40625 0.462890625
vt 0 0.462890625
vt 0.015625000000000014 0.427734375
vt 0.40625 0.462890625
vt 0.40625 0.587890625
vt 0 0.587890625
vt 0 0.462890625
vt 0.0078125 0.96875
vt 0.0078125 0.9765625
vt 0 0.9765625
vt 0 0.96875
vt 0.0078125 0.9765625
vt 0.0078125 0.984375
vt 0 0.984375
vt 0 0.9765625
vt 0.46484375 0.650390625
vt 0.46484375 0.775390625
vt 0.40234375 0.775390625
vt 0.40234375 0.650390625
vt 0.39062500000000006 0.369140625
vt 0.39062500000000006 0.427734375
vt 0.015625 0.427734375
vt 0.015625 0.369140625
vt 0.39062500000000006 0.427734375
vt 0.40625000000000006 0.462890625
vt 0 0.462890625
vt 0.015625 0.427734375
vt 0.40625000000000006 0.462890625
vt 0.40625000000000006 0.587890625
vt 0 0.587890625
vt 0 0.462890625
vt 0.0078125 0.96875
vt 0.0078125 0.9765625
vt 0 0.9765625
vt 0 0.96875
vt 0.0078125 0.9765625
vt 0.0078125 0.984375
vt 0 0.984375
vt 0 0.9765625
vt 0.46484375 0.650390625
vt 0.46484375 0.775390625
vt 0.40234375 0.775390625
vt 0.40234375 0.650390625
vn 1 0 0
vn -1 0 0
vn 0 1 0
vn 0 -1 0
vn 0 0.9237834125269129 0.38291540415623365
vn 0 0.9237834125269129 -0.3829154041562334
vn -1 0 0
vn -1 0 0
vn -1 0 0
vn 0 0 -1
vn 0 -0.40613846605344767 -0.9138115486202573
vn 0 0 -1
vn 1 0 0
vn 1 0 0
vn 1 0 0
vn 0 0 1
vn 0 -0.40613846605344767 0.9138115486202573
vn 0 0 1
usemtl m_18371576-ec49-ce98-7350-9b1ff3e2c1a3
f 13/17/5 14/18/5 15/19/5 16/20/5
f 17/21/6 18/22/6 19/23/6 20/24/6
f 13/25/7 16/26/7 17/27/7 20/28/7
f 21/29/8 22/30/8 23/31/8 24/32/8
f 20/33/9 19/34/9 14/35/9 13/36/9
f 16/37/10 15/38/10 18/39/10 17/40/10
f 23/41/11 25/42/11 26/43/11 24/44/11
f 25/45/12 27/46/12 28/47/12 26/48/12
f 27/49/13 19/50/13 18/51/13 28/52/13
f 24/53/14 26/54/14 29/55/14 21/56/14
f 26/57/15 28/58/15 30/59/15 29/60/15
f 28/61/16 18/62/16 15/63/16 30/64/16
f 21/65/17 29/66/17 31/67/17 22/68/17
f 29/69/18 30/70/18 32/71/18 31/72/18
f 30/73/19 15/74/19 14/75/19 32/76/19
f 22/77/20 31/78/20 25/79/20 23/80/20
f 31/81/21 32/82/21 27/83/21 25/84/21
f 32/85/22 14/86/22 19/87/22 27/88/22
o cube
v -0.375 1 0.5109375000000003
v -0.375 0.875 0.8125
v -0.375 0.875 -0.8125
v -0.375 1 -0.5109375
v -0.625 1 -0.5109375
v -0.625 0.875 -0.8125
v -0.625 0.875 0.8125
v -0.625 1 0.5109375000000003
v -0.375 0 -0.75
v -0.375 0 0.75
v -0.625 0 0.75
v -0.625 0 -0.75
v -0.625 0.234375 0.75
v -0.625 0.234375 -0.75
v -0.625 0.375 0.8125
v -0.625 0.375 -0.8125
v -0.375 0.234375 -0.75
v -0.375 0.375 -0.8125
v -0.375 0.234375 0.75
v -0.375 0.375 0.8125
vt 0.07539062499999988 0.619140625
vt 0 0.587890625
vt 0.40625000000000006 0.587890625
vt 0.330859375 0.619140625
vt 0.07539062499999995 0.619140625
vt 0 0.587890625
vt 0.40625 0.587890625
vt 0.330859375 0.619140625
vt 0.39453125 0.7421875
vt 0.39453125 1
vt 0.33203125 1
vt 0.33203125 0.7421875
vt 0.0078125 0.9677734375
vt 0.0078125 1
vt 0 1
vt 0 0.9677734375
vt 0.2890625 0.712890625
vt 0.2890625 0.6796875
vt 0.306640625 0.6796875
vt 0.306640625 0.712890625
vt 0.2890625 0.712890625
vt 0.2890625 0.6796875
vt 0.306640625 0.6796875
vt 0.306640625 0.712890625
vt 0.390625 0.369140625
vt 0.390625 0.427734375
vt 0.015625000000000014 0.427734375
vt 0.015625000000000014 0.369140625
vt 0.390625 0.427734375
vt 0.40625 0.462890625
vt 0 0.462890625
vt 0.015625000000000014 0.427734375
vt 0.40625 0.462890625
vt 0.40625 0.587890625
vt 0 0.587890625
vt 0 0.462890625
vt 0.0078125 0.96875
vt 0.0078125 0.9765625
vt 0 0.9765625
vt 0 0.96875
vt 0.0078125 0.9765625
vt 0.0078125 0.984375
vt 0 0.984375
vt 0 0.9765625
vt 0.46484375 0.650390625
vt 0.46484375 0.775390625
vt 0.40234375 0.775390625
vt 0.40234375 0.650390625
vt 0.39062500000000006 0.369140625
vt 0.39062500000000006 0.427734375
vt 0.015625 0.427734375
vt 0.015625 0.369140625
vt 0.39062500000000006 0.427734375
vt 0.40625000000000006 0.462890625
vt 0 0.462890625
vt 0.015625 0.427734375
vt 0.40625000000000006 0.462890625
vt 0.40625000000000006 0.587890625
vt 0 0.587890625
vt 0 0.462890625
vt 0.0078125 0.96875
vt 0.0078125 0.9765625
vt 0 0.9765625
vt 0 0.96875
vt 0.0078125 0.9765625
vt 0.0078125 0.984375
vt 0 0.984375
vt 0 0.9765625
vt 0.46484375 0.650390625
vt 0.46484375 0.775390625
vt 0.40234375 0.775390625
vt 0.40234375 0.650390625
vn 1 0 0
vn -1 0 0
vn 0 1 0
vn 0 -1 0
vn 0 0.9237834125269129 0.38291540415623365
vn 0 0.9237834125269129 -0.3829154041562334
vn -1 0 0
vn -1 0 0
vn -1 0 0
vn 0 0 -1
vn 0 -0.40613846605344767 -0.9138115486202573
vn 0 0 -1
vn 1 0 0
vn 1 0 0
vn 1 0 0
vn 0 0 1
vn 0 -0.40613846605344767 0.9138115486202573
vn 0 0 1
usemtl m_18371576-ec49-ce98-7350-9b1ff3e2c1a3
f 33/89/23 34/90/23 35/91/23 36/92/23
f 37/93/24 38/94/24 39/95/24 40/96/24
f 33/97/25 36/98/25 37/99/25 40/100/25
f 41/101/26 42/102/26 43/103/26 44/104/26
f 40/105/27 39/106/27 34/107/27 33/108/27
f 36/109/28 35/110/28 38/111/28 37/112/28
f 43/113/29 45/114/29 46/115/29 44/116/29
f 45/117/30 47/118/30 48/119/30 46/120/30
f 47/121/31 39/122/31 38/123/31 48/124/31
f 44/125/32 46/126/32 49/127/32 41/128/32
f 46/129/33 48/130/33 50/131/33 49/132/33
f 48/133/34 38/134/34 35/135/34 50/136/34
f 41/137/35 49/138/35 51/139/35 42/140/35
f 49/141/36 50/142/36 52/143/36 51/144/36
f 50/145/37 35/146/37 34/147/37 52/148/37
f 42/149/38 51/150/38 45/151/38 43/152/38
f 51/153/39 52/154/39 47/155/39 45/156/39
f 52/157/40 34/158/40 39/159/40 47/160/40
o cube
v 0.5933773376643181 0.7910625769672779 0.03125
v 0.6039183689791172 0.5456045265074776 0.03125
v 0.6039183689791172 0.5456045265074776 -0.03125
v 0.5933773376643181 0.7910625769672779 -0.03125
v 0.5084109826296322 0.8306830390054685 -0.03125
v 0.5585165093036084 0.8598601787039203 -0.03125
v 0.5585165093036084 0.8598601787039203 0.03125
v 0.5084109826296322 0.8306830390054685 0.03125
v 0.375 0.0546875 -0.03125
v 0.375 0.0546875 0.03125
v 0.365129500969899 0.876479460519143 0.03125
v 0.365129500969899 0.876479460519143 -0.03125
v 0.45955572724346544 0.87439915818942 0.03125
v 0.45955572724346544 0.87439915818942 -0.03125
v 0.4894592084678473 0.3001460646753449 -0.03125
v 0.4894592084678473 0.3001460646753449 0.03125
vt 0.37890625 0.166015625
vt 0.37890625 0.15559897142657975
vt 0.39453125 0.15559897142657975
vt 0.39453125 0.166015625
vt 0.36328125 0.166015625
vt 0.36328125 0.15559897142657975
vt 0.37890625 0.15559897142657975
vt 0.37890625 0.166015625
vt 0.39453125 0.150390625
vt 0.39453125 0.166015625
vt 0.36328125 0.166015625
vt 0.36328125 0.150390625
vt 0.39453125 0.134765625
vt 0.39453125 0.150390625
vt 0.36328125 0.150390625
vt 0.36328125 0.134765625
vt 0.36328125 0.15559897142657975
vt 0.36328125 0.166015625
vt 0.39453125 0.15559897142657975
vt 0.39453125 0.166015625
vt 0.36328125 0.15559897142657975
vt 0.36328125 0.166015625
vt 0.39453125 0.15559897142657975
vt 0.39453125 0.166015625
vt 0.37890625 0.134765625
vt 0.37890625 0.14518230039550006
vt 0.36328125 0.14518230039550006
vt 0.36328125 0.134765625
vt 0.37890625 0.14518230039550006
vt 0.37890625 0.15559897142657975
vt 0.36328125 0.15559897142657975
vt 0.36328125 0.14518230039550006
vt 0.39453125 0.134765625
vt 0.39453125 0.14518230039550006
vt 0.36328125 0.14518230039550006
vt 0.36328125 0.134765625
vt 0.39453125 0.14518230039550006
vt 0.39453125 0.15559897142657975
vt 0.36328125 0.15559897142657975
vt 0.36328125 0.14518230039550006
vt 0.39453125 0.134765625
vt 0.39453125 0.14518230039550006
vt 0.37890625 0.14518230039550006
vt 0.37890625 0.134765625
vt 0.39453125 0.14518230039550006
vt 0.39453125 0.15559897142657975
vt 0.37890625 0.15559897142657975
vt 0.37890625 0.14518230039550006
vt 0.39453125 0.134765625
vt 0.39453125 0.14518230039550006
vt 0.36328125 0.14518230039550006
vt 0.36328125 0.134765625
vt 0.39453125 0.14518230039550006
vt 0.39453125 0.15559897142657975
vt 0.36328125 0.15559897142657975
vt 0.36328125 0.14518230039550006
vn 0.9990791657632977 0.04290478455502543 0
vn 0.5032135225665699 -0.8641621090432884 0
vn 0.4226182617406999 0.9063077870366498 0
vn -0.999927876389095 -0.012010079932924357 0
vn 0 0 1
vn 0 0 1
vn 0.022025635710304248 0.9997574062599172 0
vn 0.1453562337188959 0.9893793839165328 0
vn 0 0 -1
vn 0 0 -1
vn 0.90630778703665 -0.42261826174069933 0
vn 0.9063077870366499 -0.42261826174069944 0
vn 0 0 1
vn 0 0 1
usemtl m_18371576-ec49-ce98-7350-9b1ff3e2c1a3
f 53/161/41 54/162/41 55/163/41 56/164/41
f 57/165/42 58/166/42 59/167/42 60/168/42
f 53/169/43 56/170/43 57/171/43 60/172/43
f 61/173/44 62/174/44 63/175/44 64/176/44
f 59/177/45 60/178/45 54/179/45 53/180/45
f 55/181/46 56/182/46 58/183/46 57/184/46
f 63/185/47 65/186/47 66/187/47 64/188/47
f 65/189/48 59/190/48 58/191/48 66/192/48
f 64/193/49 66/194/49 67/195/49 61/196/49
f 66/197/50 58/198/50 55/199/50 67/200/50
f 61/201/51 67/202/51 68/203/51 62/204/51
f 67/205/52 55/206/52 54/207/52 68/208/52
f 62/209/53 68/210/53 65/211/53 63/212/53
f 68/213/54 54/214/54 59/215/54 65/216/54
o cube
v -0.5933773376643183 0.7910625769672781 -0.03125
v -0.6039183689791173 0.5456045265074778 -0.03125
v -0.6039183689791173 0.5456045265074778 0.03125
v -0.5933773376643183 0.7910625769672781 0.03125
v -0.5084109826296324 0.8306830390054687 0.03125
v -0.5585165093036085 0.8598601787039205 0.03125
v -0.5585165093036085 0.8598601787039205 -0.03125
v -0.5084109826296324 0.8306830390054687 -0.03125
v -0.375 0.0546875 0.03125
v -0.375 0.0546875 -0.03125
v -0.3651295009698991 0.8764794605191433 -0.03125
v -0.3651295009698991 0.8764794605191433 0.03125
v -0.4595557272434655 0.8743991581894202 -0.03125
v -0.4595557272434655 0.8743991581894202 0.03125
v -0.4894592084678474 0.30014606467534505 0.03125
v -0.4894592084678474 0.30014606467534505 -0.03125
vt 0.37890625 0.166015625
vt 0.37890625 0.15559897142657975
vt 0.39453125 0.15559897142657975
vt 0.39453125 0.166015625
vt 0.36328125 0.166015625
vt 0.36328125 0.15559897142657975
vt 0.37890625 0.15559897142657975
vt 0.37890625 0.166015625
vt 0.39453125 0.150390625
vt 0.39453125 0.166015625
vt 0.36328125 0.166015625
vt 0.36328125 0.150390625
vt 0.39453125 0.134765625
vt 0.39453125 0.150390625
vt 0.36328125 0.150390625
vt 0.36328125 0.134765625
vt 0.39453125 0.15559897142657975
vt 0.36328125 0.166015625
vt 0.36328125 0.15559897142657975
vt 0.39453125 0.166015625
vt 0.39453125 0.15559897142657975
vt 0.36328125 0.166015625
vt 0.36328125 0.15559897142657975
vt 0.39453125 0.166015625
vt 0.37890625 0.134765625
vt 0.37890625 0.14518230039550006
vt 0.36328125 0.14518230039550006
vt 0.36328125 0.134765625
vt 0.37890625 0.14518230039550006
vt 0.37890625 0.15559897142657975
vt 0.36328125 0.15559897142657975
vt 0.36328125 0.14518230039550006
vt 0.39453125 0.134765625
vt 0.39453125 0.14518230039550006
vt 0.36328125 0.14518230039550006
vt 0.36328125 0.134765625
vt 0.39453125 0.14518230039550006
vt 0.39453125 0.15559897142657975
vt 0.36328125 0.15559897142657975
vt 0.36328125 0.14518230039550006
vt 0.39453125 0.134765625
vt 0.39453125 0.14518230039550006
vt 0.37890625 0.14518230039550006
vt 0.37890625 0.134765625
vt 0.39453125 0.14518230039550006
vt 0.39453125 0.15559897142657975
vt 0.37890625 0.15559897142657975
vt 0.37890625 0.14518230039550006
vt 0.39453125 0.134765625
vt 0.39453125 0.14518230039550006
vt 0.36328125 0.14518230039550006
vt 0.36328125 0.134765625
vt 0.39453125 0.14518230039550006
vt 0.39453125 0.15559897142657975
vt 0.36328125 0.15559897142657975
vt 0.36328125 0.14518230039550006
vn -0.9990791657632979 0.042904784555024986 0
vn -0.5032135225665699 -0.8641621090432884 0
vn -0.4226182617406995 0.9063077870366502 0
vn 0.999927876389095 -0.012010079932924219 0
vn 0 0 1
vn 0 0 1
vn -0.022025635710305438 0.9997574062599173 0
vn -0.1453562337188947 0.9893793839165329 0
vn 0 0 1
vn 0 0 1
vn -0.9063077870366502 -0.4226182617406995 0
vn -0.9063077870366502 -0.4226182617406995 0
vn 0 0 -1
vn 0 0 -1
usemtl m_18371576-ec49-ce98-7350-9b1ff3e2c1a3
f 69/217/55 70/218/55 71/219/55 72/220/55
f 73/221/56 74/222/56 75/223/56 76/224/56
f 69/225/57 72/226/57 73/227/57 76/228/57
f 77/229/58 78/230/58 79/231/58 80/232/58
f 70/233/59 76/234/59 75/235/59 69/236/59
f 74/237/60 72/238/60 71/239/60 73/240/60
f 79/241/61 81/242/61 82/243/61 80/244/61
f 81/245/62 75/246/62 74/247/62 82/248/62
f 80/249/63 82/250/63 83/251/63 77/252/63
f 82/253/64 74/254/64 71/255/64 83/256/64
f 77/257/65 83/258/65 84/259/65 78/260/65
f 83/261/66 71/262/66 70/263/66 84/264/66
f 78/265/67 84/266/67 81/267/67 79/268/67
f 84/269/68 70/270/68 75/271/68 81/272/68