# Made in Blockbench 5.1.6
mtllib dc_metrobus_roof_4l.mtl

o part4
v 0.5 0.9375 0
v 0.5 1 0
v 0.5 0.875 0.5
v 0.5 0.796875 0.5
v -0.5 0.796875 0.5
v -0.5 0.875 0.5
v -0.5 1 0
v -0.5 0.9375 0
vt 0.125 0.984375
vt 0.125 1
vt 0 1
vt 0 0.984375
vt 0.125 0.984375
vt 0.125 1
vt 0 1
vt 0 0.984375
vt 0.125 0.875
vt 0.125 1
vt 0 1
vt 0 0.875
vt 0.125 0.875
vt 0.125 1
vt 0 1
vt 0 0.875
vt 0.125 0.984375
vt 0.125 1
vt 0 1
vt 0 0.984375
vt 0.125 0.984375
vt 0.125 1
vt 0 1
vt 0 0.984375
vn 1 0 0
vn -1 0 0
vn 0 0.9701425001453319 0.24253562503633297
vn 0 -0.962650940153899 -0.2707455769182841
vn 0 0 1
vn 0 0 -1
usemtl m_b0bcccc0-ee63-a521-b00b-f4d696cf8386
f 1/1/1 2/2/1 3/3/1 4/4/1
f 5/5/2 6/6/2 7/7/2 8/8/2
f 3/9/3 2/10/3 7/11/3 6/12/3
f 1/13/4 4/14/4 5/15/4 8/16/4
f 4/17/5 3/18/5 6/19/5 5/20/5
f 8/21/6 7/22/6 2/23/6 1/24/6
o part4
v 0.5 0.6875 0
v -0.5 0.6875 0
v -0.5 0.9375 0
v 0.5 0.9375 0
v 0.5 0.6875 0.0625
v 0.5 0.9375 0.0625
v -0.5 0.6875 0.0625
v -0.5 0.9375 0.0625
vt 0 0.96875
vt 0.125 0.96875
vt 0.125 1
vt 0 1
vt 0.0078125 0.96875
vt 0.015625 0.96875
vt 0.015625 1
vt 0.0078125 1
vt 0 0.96875
vt 0.125 0.96875
vt 0.125 1
vt 0 1
vt 0 0.96875
vt 0.0078125 0.96875
vt 0.0078125 1
vt 0 1
vt 0 0.9921875
vt 0.125 0.9921875
vt 0.125 1
vt 0 1
vt 0 1
vt 0 0.9375
vt 1 0.9375
vt 1 1
vn 0 0 -1
vn 1 0 0
vn 0 0 1
vn -1 0 0
vn 0 1 0
vn 0 -1 0
usemtl m_b0bcccc0-ee63-a521-b00b-f4d696cf8386
f 9/25/7 10/26/7 11/27/7 12/28/7
f 13/29/8 9/30/8 12/31/8 14/32/8
f 15/33/9 13/34/9 14/35/9 16/36/9
f 10/37/10 15/38/10 16/39/10 11/40/10
f 16/41/11 14/42/11 12/43/11 11/44/11
f 15/45/12 10/46/12 9/47/12 13/48/12