# Made in Blockbench 5.1.6
mtllib dc_metro_mezzanine_2a.mtl

o cube
v 0.5 1 0
v 0.5 1 -0.5
v 0.5 0 0
v 0.5 0 -0.5
v -0.5 1 -0.5
v -0.5 1 0
v -0.5 0 -0.5
v -0.5 0 0
vt 0 1
vt 1 1
vt 1 0
vt 0 0
vt 0.5 1
vt 1 1
vt 1 0
vt 0.5 0
vt 0 1
vt 0.5 1
vt 0.5 0
vt 0 0
vt 0 1
vt 1 1
vt 1 0.5
vt 0 0.5
vt 0 0.5
vt 1 0.5
vt 1 0
vt 0 0
vn 0 0 -1
vn 1 0 0
vn -1 0 0
vn 0 1 0
vn 0 -1 0
usemtl m_349c9511-0513-57b7-1145-68a5a92d8cd1
f 4/4/1 7/3/1 5/2/1 2/1/1
f 3/8/2 4/7/2 2/6/2 1/5/2
f 7/12/3 8/11/3 6/10/3 5/9/3
usemtl m_7348e0d8-c6ae-599c-be56-6538e30fe40e
f 6/16/4 1/15/4 2/14/4 5/13/4
usemtl m_400c3830-a59d-7a16-7011-84d64c2e2917
f 7/20/5 4/19/5 3/18/5 8/17/5
o cube
v 0.5 1 0.5
v 0.5 1 0
v 0.5 0.5 0.5
v 0.5 0.5 0
v -0.5 1 0
v -0.5 1 0.5
v -0.5 0.5 0
v -0.5 0.5 0.5
vt 0 1
vt 0.5 1
vt 0.5 0.5
vt 0 0.5
vt 0 1
vt 1 1
vt 1 0.5
vt 0 0.5
vt 0.0625 1
vt 0.5625 1
vt 0.5625 0.5
vt 0.0625 0.5
vt 0 0.5
vt 1 0.5
vt 1 0
vt 0 0
vn 1 0 0
vn 0 0 1
vn -1 0 0
vn 0 1 0
usemtl m_349c9511-0513-57b7-1145-68a5a92d8cd1
f 11/24/6 12/23/6 10/22/6 9/21/6
f 16/28/7 11/27/7 9/26/7 14/25/7
f 15/32/8 16/31/8 14/30/8 13/29/8
usemtl m_7348e0d8-c6ae-599c-be56-6538e30fe40e
f 14/36/9 9/35/9 10/34/9 13/33/9
o cube
v 0.5 0.5 0.5
v 0.5 0.5 0
v 0.5 0.15625 0.34375
v 0.5 0 0
v -0.5 0.5 0.5
v -0.5 0.5 0
v -0.5 0.15625 0.34375
v -0.5 0 0
v -0.5 0.3125 0.4375
v -0.5 0.3125 0
v 0.5 0.3125 0
v 0.5 0.3125 0.4375
v -0.5 0.0625 0.1875
v 0.5 0.0625 0.1875
v 0.5 0.3125 0.1875
v 0.5 0.5 0.1875
v -0.5 0.5 0.1875
v -0.5 0.3125 0.1875
vt 0.5 1
vt 0.25 1
vt 0.25 0.75
vt 0.5 0.75
vt 0.0625 0.75
vt 0.3125 0.75
vt 0.3125 1
vt 0.0625 1
vt 0 0.5
vt 0 0.25
vt 1 0.25
vt 1 0.5
vt 1 0.5
vt 1 0.75
vt 0 0.75
vt 0 0.5
vt 0 1
vt 0 0.75
vt 1 0.75
vt 1 1
vt 0 1
vt 0 0.75
vt 1 0.75
vt 1 1
vt 0.0625 0.5
vt 0.3125 0.5
vt 0.3125 0.75
vt 0.0625 0.75
vt 1 0.5
vt 1 0.75
vt 0 0.75
vt 0 0.5
vt 0.5 0.75
vt 0.25 0.75
vt 0.25 0.5
vt 0.5 0.5
vt 1 0.5
vt 1 0.75
vt 0 0.75
vt 0 0.5
vt 0 1
vt 0 0.75
vt 1 0.75
vt 1 1
vt 0 0.5
vt 0.25 0.5
vt 0.25 0.75
vt 0 0.75
vt 0 0.75
vt 0.25 0.75
vt 0.25 1
vt 0 1
vt 1 0
vt 1 0.25
vt 0 0.25
vt 0 0
vt 0.5625 1
vt 0.3125 1
vt 0.3125 0.75
vt 0.5625 0.75
vt 0.5625 0.75
vt 0.3125 0.75
vt 0.3125 0.5
vt 0.5625 0.5
vn 1 0 0
vn -1 0 0
vn 0 1 0
vn 0 -0.948683298050514 0.316227766016838
vn 0 -0.316227766016838 0.948683298050514
vn 0 0 -1
vn -1 0 0
vn 0 0 -1
vn 1 0 0
vn 0 -0.5144957554275266 0.8574929257125443
vn 0 -0.8574929257125443 0.5144957554275266
vn 1 0 0
vn 1 0 0
vn 0 1 0
vn -1 0 0
vn -1 0 0
usemtl m_349c9511-0513-57b7-1145-68a5a92d8cd1
f 18/37/10 32/38/10 31/39/10 27/40/10
f 26/41/11 34/42/11 33/43/11 22/44/11
f 22/45/12 33/46/12 32/47/12 18/48/12
f 20/49/13 30/50/13 29/51/13 24/52/13
f 21/53/14 25/54/14 28/55/14 17/56/14
f 18/57/15 27/58/15 26/59/15 22/60/15
f 24/61/16 29/62/16 34/63/16 26/64/16
f 24/65/17 26/66/17 27/67/17 20/68/17
f 27/69/18 31/70/18 30/71/18 20/72/18
f 19/73/19 28/74/19 25/75/19 23/76/19
f 23/77/20 29/78/20 30/79/20 19/80/20
f 19/81/21 30/82/21 31/83/21 28/84/21
f 28/85/22 31/86/22 32/87/22 17/88/22
f 17/89/23 32/90/23 33/91/23 21/92/23
f 21/93/24 33/94/24 34/95/24 25/96/24
f 25/97/25 34/98/25 29/99/25 23/100/25