# Made in Blockbench 5.1.4
mtllib dc_metro_roof_e3.mtl

o part3
v 0.5 0.703125 0.5
v 0.5 0.703125 -0.5
v 0.5 0.46875 0.5
v 0.5 0.46875 -0.5
v -0.5 0.65625 0.5
v -0.5 0.65625 -0.5
v -0.5 0.4375 0.5
v -0.5 0.4375 -0.5
vt 0.125 0.96875
vt 0.125 1
vt 0 1
vt 0 0.96875
vt 0.125 0.96875
vt 0.125 1
vt 0 1
vt 0 0.96875
vt 0.125 0.875
vt 0.125 1
vt 0 1
vt 0 0.875
vt 0.125 0.875
vt 0.125 1
vt 0 1
vt 0 0.875
vt 0.125 0.96875
vt 0.125 1
vt 0 1
vt 0 0.96875
vt 0.125 0.96875
vt 0.125 1
vt 0 1
vt 0 0.96875
vn 1 0 0
vn -1 0 0
vn -0.046823586298586156 0.9989031743698381 0
vn 0.031234752377721213 -0.9995120760870788 0
vn 0 0 1
vn 0 0 -1
usemtl m_4f43a981-ca36-56b5-7b6d-e3bd7974d666
f 4/1/1 2/2/1 1/3/1 3/4/1
f 7/5/2 5/6/2 6/7/2 8/8/2
f 1/9/3 2/10/3 6/11/3 5/12/3
f 4/13/4 3/14/4 7/15/4 8/16/4
f 3/17/5 1/18/5 5/19/5 7/20/5
f 8/21/6 6/22/6 2/23/6 4/24/6
o part3
v 0.015625 0.453125 0.5
v 0.015625 0.453125 -0.5
v 0.1875 -0.296875 0.5
v 0.1875 -0.296875 -0.5
v -0.015625 0.453125 0.5
v -0.015625 0.453125 -0.5
v -0.1875 -0.296875 0.5
v -0.1875 -0.296875 -0.5
vt 0.125 0.8828125
vt 0.125 0.9765625
vt 0 0.9765625
vt 0 0.8828125
vt 0.125 0.8828125
vt 0.125 0.9765625
vt 0 0.9765625
vt 0 0.8828125
vt 0.046875 0.875
vt 0.046875 1
vt 0 1
vt 0 0.875
vt 0.046875 0.875
vt 0.046875 1
vt 0 1
vt 0 0.875
vt 0.046875 0.8828125
vt 0.046875 0.9765625
vt 0 0.9765625
vt 0 0.8828125
vt 0.046875 0.8828125
vt 0.046875 0.9765625
vt 0 0.9765625
vt 0 0.8828125
vn 0.9747323185282742 0.2233761563293962 0
vn -0.9747323185282742 0.2233761563293962 0
vn 0 1 0
vn 0 -1 0
vn 0 0 1
vn 0 0 -1
usemtl m_4f43a981-ca36-56b5-7b6d-e3bd7974d666
f 12/25/7 10/26/7 9/27/7 11/28/7
f 15/29/8 13/30/8 14/31/8 16/32/8
f 9/33/9 10/34/9 14/35/9 13/36/9
f 12/37/10 11/38/10 15/39/10 16/40/10
f 11/41/11 9/42/11 13/43/11 15/44/11
f 16/45/12 14/46/12 10/47/12 12/48/12