# Made in Blockbench 5.1.4
mtllib dc_metro_arch_c7.mtl

o part7b
v 1.5 1.8833835424554717 0.4263760591633944
v 1.5 0.858107245953893 -0.5131165733021332
v 1.5 1.7144859905515566 0.6106953933659254
v 1.5 0.6892096940499779 -0.32879723909960223
v 1.375 0.858107245953893 -0.5131165733021332
v 1.375 1.8833835424554717 0.4263760591633944
v 1.375 0.6892096940499779 -0.32879723909960223
v 1.375 1.7144859905515566 0.6106953933659254
vt 0.109375 0.96875
vt 0.125 0.96875
vt 0.125 0.9375
vt 0.109375 0.9375
vt 0 0.96875
vt 0.173828125 0.96875
vt 0.173828125 0.9375
vt 0 0.9375
vt 0 0.96875
vt 0.015625 0.96875
vt 0.015625 0.9375
vt 0 0.9375
vt 0 0.96875
vt 0.173828125 0.96875
vt 0.173828125 0.9375
vt 0 0.9375
vt 0 1
vt 0.015625 1
vt 0.015625 0.826171875
vt 0 0.826171875
vt 0 1
vt 0.015625 1
vt 0.015625 0.826171875
vt 0 0.826171875
vn 0 -0.7372773368101241 -0.6755902076156604
vn 1 0 0
vn 0 0.7372773368101241 0.6755902076156604
vn -1 0 0
vn 0 0.6755902076156604 -0.7372773368101241
vn 0 -0.6755902076156604 0.7372773368101241
usemtl m_5c3bd304-9deb-73d4-b491-712dec815871
f 4/4/1 7/3/1 5/2/1 2/1/1
f 3/8/2 4/7/2 2/6/2 1/5/2
f 8/12/3 3/11/3 1/10/3 6/9/3
f 7/16/4 8/15/4 6/14/4 5/13/4
f 6/20/5 1/19/5 2/18/5 5/17/5
f 7/24/6 4/23/6 3/22/6 8/21/6
o part7b
v -0.375 1.8833835424554717 0.4263760591633944
v -0.375 0.858107245953893 -0.5131165733021332
v -0.375 1.7144859905515566 0.6106953933659254
v -0.375 0.6892096940499779 -0.32879723909960223
v -0.5 0.858107245953893 -0.5131165733021332
v -0.5 1.8833835424554717 0.4263760591633944
v -0.5 0.6892096940499779 -0.32879723909960223
v -0.5 1.7144859905515566 0.6106953933659254
vt 0.109375 0.96875
vt 0.125 0.96875
vt 0.125 0.9375
vt 0.109375 0.9375
vt 0 0.96875
vt 0.173828125 0.96875
vt 0.173828125 0.9375
vt 0 0.9375
vt 0 0.96875
vt 0.015625 0.96875
vt 0.015625 0.9375
vt 0 0.9375
vt 0 0.96875
vt 0.173828125 0.96875
vt 0.173828125 0.9375
vt 0 0.9375
vt 0 1
vt 0.015625 1
vt 0.015625 0.826171875
vt 0 0.826171875
vt 0 1
vt 0.015625 1
vt 0.015625 0.826171875
vt 0 0.826171875
vn 0 -0.7372773368101241 -0.6755902076156604
vn 1 0 0
vn 0 0.7372773368101241 0.6755902076156604
vn -1 0 0
vn 0 0.6755902076156604 -0.7372773368101241
vn 0 -0.6755902076156604 0.7372773368101241
usemtl m_5c3bd304-9deb-73d4-b491-712dec815871
f 12/28/7 15/27/7 13/26/7 10/25/7
f 11/32/8 12/31/8 10/30/8 9/29/8
f 16/36/9 11/35/9 9/34/9 14/33/9
f 15/40/10 16/39/10 14/38/10 13/37/10
f 14/44/11 9/43/11 10/42/11 13/41/11
f 15/48/12 12/47/12 11/46/12 16/45/12
o part7b
v 1.5 2.0522810943593868 0.2420567249608634
v 1.5 1.0500447146331244 -0.6763237135166749
v 1.5 1.8833835424554717 0.4263760591633944
v 1.5 0.8811471627292093 -0.4920043793141438
v -0.5 1.0500447146331244 -0.6763237135166749
v -0.5 2.0522810943593868 0.2420567249608634
v -0.5 0.8811471627292093 -0.4920043793141438
v -0.5 1.8833835424554717 0.4263760591633944
vt 0 0.96875
vt 0.25 0.96875
vt 0.25 0.9375
vt 0 0.9375
vt 0 0.96875
vt 0.169921875 0.96875
vt 0.169921875 0.9375
vt 0 0.9375
vt 0 0.96875
vt 0.25 0.96875
vt 0.25 0.9375
vt 0 0.9375
vt 0 0.96875
vt 0.169921875 0.96875
vt 0.169921875 0.9375
vt 0 0.9375
vt 0 1
vt 0.25 1
vt 0.25 0.830078125
vt 0 0.830078125
vt 0 1
vt 1 1
vt 1 0.7838235294117647
vt 0 0.7838235294117647
vn 0 -0.7372773368101241 -0.6755902076156604
vn 1 0 0
vn 0 0.7372773368101241 0.6755902076156604
vn -1 0 0
vn 0 0.6755902076156604 -0.7372773368101241
vn 0 -0.6755902076156604 0.7372773368101241
usemtl m_5c3bd304-9deb-73d4-b491-712dec815871
f 20/52/13 23/51/13 21/50/13 18/49/13
f 19/56/14 20/55/14 18/54/14 17/53/14
f 24/60/15 19/59/15 17/58/15 22/57/15
f 23/64/16 24/63/16 22/62/16 21/61/16
f 22/68/17 17/67/17 18/66/17 21/65/17
usemtl m_3ea14960-eace-dcbb-6745-221edd8b1384
f 23/72/18 20/71/18 19/70/18 24/69/18
o part7
v 1.5 0.9293662217565943 -0.4642822939053909
v 1.5 0.007820171931478603 -1.109555784800318
v 1.5 0.7859721126688327 -0.2594942828331429
v 1.5 -0.13557393715628296 -0.90476777372807
v 1.375 0.007820171931478603 -1.109555784800318
v 1.375 0.9293662217565943 -0.4642822939053909
v 1.375 -0.13557393715628296 -0.90476777372807
v 1.375 0.7859721126688327 -0.2594942828331429
vt 0.109375 0.96875
vt 0.125 0.96875
vt 0.125 0.9375
vt 0.109375 0.9375
vt 0 0.96875
vt 0.140625 0.96875
vt 0.140625 0.9375
vt 0 0.9375
vt 0 0.96875
vt 0.015625 0.96875
vt 0.015625 0.9375
vt 0 0.9375
vt 0 0.96875
vt 0.140625 0.96875
vt 0.140625 0.9375
vt 0 0.9375
vt 0 1
vt 0.015625 1
vt 0.015625 0.859375
vt 0 0.859375
vt 0 1
vt 0.015625 1
vt 0.015625 0.859375
vt 0 0.859375
vn 0 -0.8191520442889917 -0.5735764363510463
vn 1 0 0
vn 0 0.8191520442889917 0.5735764363510463
vn -1 0 0
vn 0 0.5735764363510463 -0.8191520442889917
vn 0 -0.5735764363510463 0.8191520442889917
usemtl m_5c3bd304-9deb-73d4-b491-712dec815871
f 28/76/19 31/75/19 29/74/19 26/73/19
f 27/80/20 28/79/20 26/78/20 25/77/20
f 32/84/21 27/83/21 25/82/21 30/81/21
f 31/88/22 32/87/22 30/86/22 29/85/22
f 30/92/23 25/91/23 26/90/23 29/89/23
f 31/96/24 28/95/24 27/94/24 32/93/24
o part7
v -0.375 0.9293662217565943 -0.4642822939053909
v -0.375 0.007820171931478603 -1.109555784800318
v -0.375 0.7859721126688327 -0.2594942828331429
v -0.375 -0.13557393715628296 -0.90476777372807
v -0.5 0.007820171931478603 -1.109555784800318
v -0.5 0.9293662217565943 -0.4642822939053909
v -0.5 -0.13557393715628296 -0.90476777372807
v -0.5 0.7859721126688327 -0.2594942828331429
vt 0.109375 0.96875
vt 0.125 0.96875
vt 0.125 0.9375
vt 0.109375 0.9375
vt 0 0.96875
vt 0.140625 0.96875
vt 0.140625 0.9375
vt 0 0.9375
vt 0 0.96875
vt 0.015625 0.96875
vt 0.015625 0.9375
vt 0 0.9375
vt 0.0078125 0.96875
vt 0.1484375 0.96875
vt 0.1484375 0.9375
vt 0.0078125 0.9375
vt 0 0.9921875
vt 0.015625 0.9921875
vt 0.015625 0.8515625
vt 0 0.8515625
vt 0 1
vt 0.015625 1
vt 0.015625 0.859375
vt 0 0.859375
vn 0 -0.8191520442889917 -0.5735764363510463
vn 1 0 0
vn 0 0.8191520442889917 0.5735764363510463
vn -1 0 0
vn 0 0.5735764363510463 -0.8191520442889917
vn 0 -0.5735764363510463 0.8191520442889917
usemtl m_5c3bd304-9deb-73d4-b491-712dec815871
f 36/100/25 39/99/25 37/98/25 34/97/25
f 35/104/26 36/103/26 34/102/26 33/101/26
f 40/108/27 35/107/27 33/106/27 38/105/27
f 39/112/28 40/111/28 38/110/28 37/109/28
f 38/116/29 33/115/29 34/114/29 37/113/29
f 39/120/30 36/119/30 35/118/30 40/117/30
o part7
v 1.5 1.0471618294603249 -0.686994568613609
v 1.5 0.1640135317112557 -1.3053816640545808
v 1.5 0.9037677203725634 -0.4822065575413611
v 1.5 0.020619422623494102 -1.1005936529823328
v -0.5 0.1640135317112557 -1.3053816640545808
v -0.5 1.0471618294603249 -0.686994568613609
v -0.5 0.020619422623494102 -1.1005936529823328
v -0.5 0.9037677203725634 -0.4822065575413611
vt 0 0.96875
vt 0.25 0.96875
vt 0.25 0.9375
vt 0 0.9375
vt 0.00390625 0.96875
vt 0.138671875 0.96875
vt 0.138671875 0.9375
vt 0.00390625 0.9375
vt 0 0.96875
vt 0.25 0.96875
vt 0.25 0.9375
vt 0 0.9375
vt 0 0.96875
vt 0.134765625 0.96875
vt 0.134765625 0.9375
vt 0 0.9375
vt 0 1
vt 0.25 1
vt 0.25 0.865234375
vt 0 0.865234375
vt 0 0.9970588235294118
vt 1 0.9970588235294118
vt 1 0.7014705882352941
vt 0 0.7014705882352941
vn 0 -0.8191520442889917 -0.5735764363510463
vn 1 0 0
vn 0 0.8191520442889917 0.5735764363510463
vn -1 0 0
vn 0 0.5735764363510463 -0.8191520442889917
vn 0 -0.5735764363510463 0.8191520442889917
usemtl m_5c3bd304-9deb-73d4-b491-712dec815871
f 44/124/31 47/123/31 45/122/31 42/121/31
f 43/128/32 44/127/32 42/126/32 41/125/32
f 48/132/33 43/131/33 41/130/33 46/129/33
f 47/136/34 48/135/34 46/134/34 45/133/34
f 46/140/35 41/139/35 42/138/35 45/137/35
usemtl m_3ea14960-eace-dcbb-6745-221edd8b1384
f 47/144/36 44/143/36 43/142/36 48/141/36