# Made in Blockbench 5.1.4
mtllib dc_metro_roof_j3l.mtl

o cube
v 0.5 1 0.5
v 0.5 1 -0.5
v -0.5 1 0.5
v -0.5 1 -0.5
v -0.5 0.8125 0.5
v -0.5 0.8125 -0.5
vt 0.125 0.9765625
vt 0.125 1
vt 0 1
vt 0 0.9765625
vt 0.125 0.875
vt 0.125 1
vt 0 1
vt 0 0.875
vt 0.125 0.875
vt 0.125 1
vt 0 1
vt 0 0.875
vt 0.125 1
vt 0 1
vt 0.125 0.9765625
vt 0 1
vt 0 0.9765625
vt 0.125 1
vn -1 0 0
vn 0 1 0
vn 0.18428853505018536 -0.9828721869343219 0
vn 0 0 -1
vn 0 0 1
usemtl m_96acb6ab-014d-c5ae-9e33-17c8624653e2
f 5/1/1 3/2/1 4/3/1 6/4/1
f 1/5/2 2/6/2 4/7/2 3/8/2
f 2/9/3 1/10/3 5/11/3 6/12/3
f 4/13/4 2/14/4 6/15/4
f 3/16/5 5/17/5 1/18/5
o cube
v 0.44783603101068087 0.9886798749588568 0.0625
v 0.44783603101068087 0.9886798749588568 -0.0625
v 0.44783603101068087 0.9886798749588568 0.0625
v 0.44783603101068087 0.9886798749588568 -0.0625
v -0.442656815856971 0.8204195047656803 -0.0625
v -0.442656815856971 0.8204195047656803 0.0625
v -0.442656815856971 0.8204195047656803 -0.0625
v -0.442656815856971 0.8204195047656803 0.0625
vt 0 0.875
vt 0.90625 0.875
vt 0.90625 0.875
vt 0 0.875
vt 0 0.875
vt 0.125 0.875
vt 0.125 0.875
vt 0 0.875
vt 0 0.875
vt 0.90625 0.875
vt 0.90625 0.875
vt 0 0.875
vt 0 0.875
vt 0.125 0.875
vt 0.125 0.875
vt 0 0.875
vt 0 1
vt 0.90625 1
vt 0.90625 0.875
vt 0 0.875
vt 0 1
vt 0.90625 1
vt 0.90625 0.875
vt 0 0.875
vn 0 0 -1
vn 0.9826127965436158 0.18566661538557408 0
vn 0 0 1
vn -0.9826127965436158 -0.18566661538557408 0
vn -0.18566661538557408 0.9826127965436158 0
vn 0.18566661538557408 -0.9826127965436158 0
usemtl m_0d1bd982-cfc5-6669-2c53-021f52a9affb
f 10/22/6 13/21/6 11/20/6 8/19/6
f 9/26/7 10/25/7 8/24/7 7/23/7
f 14/30/8 9/29/8 7/28/8 12/27/8
f 13/34/9 14/33/9 12/32/9 11/31/9
f 12/38/10 7/37/10 8/36/10 11/35/10
f 13/42/11 10/41/11 9/40/11 14/39/11