# Made in Blockbench 5.1.6
mtllib dc_metro_platform_pole_light_2_d.mtl

o light
v 0.3295018258262322 -0.5624997632095823 0.37369599965039146
v 0.5946668687711875 -0.5624997632095823 0.6388610425953468
v 0.5946668687711875 -0.4999997632095824 0.6388610425953468
v 0.3295018258262322 -0.4999997632095823 0.37369599965039146
v 0.37369599965039146 -0.5624997632095823 0.3295018258262322
v 0.37369599965039146 -0.4999997632095823 0.3295018258262322
v 0.6388610425953467 -0.5624997632095823 0.5946668687711876
v 0.6388610425953467 -0.4999997632095824 0.5946668687711876
vt 0.001953125 0.94921875
vt 0.048828125 0.94921875
vt 0.048828125 0.95703125
vt 0.001953125 0.95703125
vt 0.05859375 0.94921875
vt 0.06640625 0.94921875
vt 0.06640625 0.95703125
vt 0.05859375 0.95703125
vt 0.07812499999999994 0.94921875
vt 0.12499999999999994 0.94921875
vt 0.12499999999999994 0.95703125
vt 0.07812499999999994 0.95703125
vt 0.060546875 0.94921875
vt 0.068359375 0.94921875
vt 0.068359375 0.95703125
vt 0.060546875 0.95703125
vt 0.07812499999999994 0.931640625
vt 0.12499999999999994 0.931640625
vt 0.12499999999999994 0.939453125
vt 0.07812499999999994 0.939453125
vt 0.07812499999999994 0.93359375
vt 0.12499999999999994 0.93359375
vt 0.12499999999999994 0.94140625
vt 0.07812499999999994 0.94140625
vn -0.7071067811865477 0 0.7071067811865474
vn -0.7071067811865476 0 -0.7071067811865476
vn 0.7071067811865477 0 -0.7071067811865475
vn 0.7071067811865476 0 0.7071067811865476
vn 2.0934566115783667e-16 1 2.0934566115783667e-16
vn 0 -1 0
usemtl m_2becc136-cec0-5dd8-d319-9682284a10db
f 1/1/1 2/2/1 3/3/1 4/4/1
f 5/5/2 1/6/2 4/7/2 6/8/2
f 7/9/3 5/10/3 6/11/3 8/12/3
f 2/13/4 7/14/4 8/15/4 3/16/4
f 8/17/5 6/18/5 4/19/5 3/20/5
f 2/21/6 1/22/6 5/23/6 7/24/6
o light
v -0.38474454310642997 -0.5624997632095823 0.3405503692822735
v -0.6499095860513843 -0.5624997632095823 0.6057154122272299
v -0.6499095860513843 -0.4999997632095823 0.6057154122272299
v -0.38474454310642997 -0.4999997632095823 0.3405503692822735
v -0.3405503692822706 -0.5624997632095823 0.3847445431064325
v -0.3405503692822706 -0.4999997632095823 0.3847445431064325
v -0.6057154122272248 -0.5624997632095823 0.6499095860513889
v -0.6057154122272248 -0.4999997632095823 0.6499095860513889
vt 0.001953125 0.94921875
vt 0.048828125 0.94921875
vt 0.048828125 0.95703125
vt 0.001953125 0.95703125
vt 0.05859375 0.94921875
vt 0.06640625 0.94921875
vt 0.06640625 0.95703125
vt 0.05859375 0.95703125
vt 0.07812499999999994 0.94921875
vt 0.12499999999999994 0.94921875
vt 0.12499999999999994 0.95703125
vt 0.07812499999999994 0.95703125
vt 0.060546875 0.94921875
vt 0.068359375 0.94921875
vt 0.068359375 0.95703125
vt 0.060546875 0.95703125
vt 0.07812499999999994 0.931640625
vt 0.12499999999999994 0.931640625
vt 0.12499999999999994 0.939453125
vt 0.07812499999999994 0.939453125
vt 0.07812499999999994 0.93359375
vt 0.12499999999999994 0.93359375
vt 0.12499999999999994 0.94140625
vt 0.07812499999999994 0.94140625
vn -0.7071067811865503 0 -0.7071067811865447
vn 0.7071067811865449 0 -0.7071067811865502
vn 0.7071067811865506 0 0.7071067811865446
vn -0.707106781186544 0 0.7071067811865511
vn 0 1 0
vn 0 -1 0
usemtl m_2becc136-cec0-5dd8-d319-9682284a10db
f 9/25/7 10/26/7 11/27/7 12/28/7
f 13/29/8 9/30/8 12/31/8 14/32/8
f 15/33/9 13/34/9 14/35/9 16/36/9
f 10/37/10 15/38/10 16/39/10 11/40/10
f 16/41/11 14/42/11 12/43/11 11/44/11
f 10/45/12 9/46/12 13/47/12 15/48/12
o light
v -0.35159891273831245 -0.5624997632095823 -0.3957930865624704
v -0.6167639556832683 -0.5624997632095823 -0.6609581295074252
v -0.6167639556832683 -0.4999997632095823 -0.6609581295074252
v -0.35159891273831245 -0.4999997632095823 -0.3957930865624704
v -0.3957930865624716 -0.5624997632095823 -0.3515989127383111
v -0.3957930865624716 -0.4999997632095823 -0.3515989127383111
v -0.6609581295074274 -0.5624997632095823 -0.6167639556832659
v -0.6609581295074274 -0.4999997632095823 -0.6167639556832659
vt 0.001953125 0.94921875
vt 0.048828125 0.94921875
vt 0.048828125 0.95703125
vt 0.001953125 0.95703125
vt 0.05859375 0.94921875
vt 0.06640625 0.94921875
vt 0.06640625 0.95703125
vt 0.05859375 0.95703125
vt 0.07812499999999994 0.94921875
vt 0.12499999999999994 0.94921875
vt 0.12499999999999994 0.95703125
vt 0.07812499999999994 0.95703125
vt 0.060546875 0.94921875
vt 0.068359375 0.94921875
vt 0.068359375 0.95703125
vt 0.060546875 0.95703125
vt 0.07812499999999994 0.931640625
vt 0.12499999999999994 0.931640625
vt 0.12499999999999994 0.939453125
vt 0.07812499999999994 0.939453125
vt 0.07812499999999994 0.93359375
vt 0.12499999999999994 0.93359375
vt 0.12499999999999994 0.94140625
vt 0.07812499999999994 0.94140625
vn 0.7071067811865461 0 -0.7071067811865489
vn 0.7071067811865489 0 0.7071067811865462
vn -0.7071067811865462 0 0.7071067811865489
vn -0.7071067811865485 0 -0.7071067811865467
vn 0 1 0
vn 0 -1 0
usemtl m_2becc136-cec0-5dd8-d319-9682284a10db
f 17/49/13 18/50/13 19/51/13 20/52/13
f 21/53/14 17/54/14 20/55/14 22/56/14
f 23/57/15 21/58/15 22/59/15 24/60/15
f 18/61/16 23/62/16 24/63/16 19/64/16
f 24/65/17 22/66/17 20/67/17 19/68/17
f 18/69/18 17/70/18 21/71/18 23/72/18
o light
v 0.3847445431064319 -0.5624997632095823 -0.3405503692822713
v 0.6499095860513877 -0.5624997632095823 -0.6057154122272264
v 0.6499095860513877 -0.49999976320958217 -0.6057154122272264
v 0.3847445431064319 -0.4999997632095823 -0.3405503692822713
v 0.3405503692822728 -0.5624997632095823 -0.3847445431064306
v 0.3405503692822728 -0.4999997632095823 -0.3847445431064306
v 0.6057154122272285 -0.5624997632095823 -0.6499095860513856
v 0.6057154122272285 -0.49999976320958217 -0.6499095860513856
vt 0.001953125 0.94921875
vt 0.048828125 0.94921875
vt 0.048828125 0.95703125
vt 0.001953125 0.95703125
vt 0.05859375 0.94921875
vt 0.06640625 0.94921875
vt 0.06640625 0.95703125
vt 0.05859375 0.95703125
vt 0.07812499999999994 0.94921875
vt 0.12499999999999994 0.94921875
vt 0.12499999999999994 0.95703125
vt 0.07812499999999994 0.95703125
vt 0.060546875 0.94921875
vt 0.068359375 0.94921875
vt 0.068359375 0.95703125
vt 0.060546875 0.95703125
vt 0.07812499999999994 0.931640625
vt 0.12499999999999994 0.931640625
vt 0.12499999999999994 0.939453125
vt 0.07812499999999994 0.939453125
vt 0.07812499999999994 0.93359375
vt 0.12499999999999994 0.93359375
vt 0.12499999999999994 0.94140625
vt 0.07812499999999994 0.94140625
vn 0.7071067811865466 0 0.7071067811865486
vn -0.7071067811865489 0 0.7071067811865462
vn -0.7071067811865467 0 -0.7071067811865485
vn 0.7071067811865476 0 -0.7071067811865476
vn -2.0934566115783704e-16 1 2.0934566115783625e-16
vn 0 -1 0
usemtl m_2becc136-cec0-5dd8-d319-9682284a10db
f 25/73/19 26/74/19 27/75/19 28/76/19
f 29/77/20 25/78/20 28/79/20 30/80/20
f 31/81/21 29/82/21 30/83/21 32/84/21
f 26/85/22 31/86/22 32/87/22 27/88/22
f 32/89/23 30/90/23 28/91/23 27/92/23
f 26/93/24 25/94/24 29/95/24 31/96/24