# Made in Blockbench 5.1.6
mtllib dc_metro_roof_k1l_light_layer.mtl

o part3l
v -0.057940781250000344 0.39707328124999997 -0.08457328124999997
v -0.05226890625000023 0.39707328124999997 -0.06711750000000016
v -3.2612801348363973e-16 0.40625 -0.09375
v -0.11020968750000025 0.37044078125 -0.0762946874999999
v -0.09942140625000039 0.37044078125 -0.0430921875000001
v -0.15169078125000035 0.32895968749999993 -0.06972468749999994
v -0.1368421875000003 0.32895968749999993 -0.024025312500000062
v -0.1783232812500003 0.27669078125 -0.06550640624999993
v -0.16086750000000025 0.27669078125 -0.011783906250000031
v -0.18750000000000033 0.21875 -0.06405281249999994
v -0.1691460937500003 0.21875 -0.00756562500000002
v -0.1783232812500003 0.16080921874999998 -0.06550640624999993
v -0.16086750000000025 0.16080921874999998 -0.011783906250000031
v -0.15169078125000035 0.10854031250000001 -0.06972468749999994
v -0.1368421875000003 0.10854031250000001 -0.024025312500000062
v -0.11020968750000025 0.06705921874999998 -0.0762946874999999
v -0.09942140625000039 0.06705921874999998 -0.0430921875000001
v -0.057940781250000344 0.040426718750000035 -0.08457328124999997
v -0.05226890625000023 0.040426718750000035 -0.06711750000000016
v -3.2612801348363973e-16 0.03125 -0.09375
v -0.041481093750000406 0.39707328124999997 -0.052268906249999914
v -0.07890140625000028 0.37044078125 -0.014848593750000028
v -0.10859859375000033 0.32895968749999993 0.014848593750000028
v -0.12766546875000037 0.27669078125 0.033915468750000066
v -0.1342350000000003 0.21875 0.04048499999999988
v -0.12766546875000037 0.16080921874999998 0.033915468750000066
v -0.10859859375000033 0.10854031250000001 0.014848593750000028
v -0.07890140625000028 0.06705921874999998 -0.014848593750000028
v -0.041481093750000406 0.040426718750000035 -0.052268906249999914
v -0.026632500000000375 0.39707328124999997 -0.041481093750000086
v -0.050657812500000315 0.37044078125 0.005671406250000066
v -0.06972468750000034 0.32895968749999993 0.0430921875000001
v -0.08196609375000026 0.27669078125 0.06711749999999994
v -0.08618437500000027 0.21875 0.07539609375
v -0.08196609375000026 0.16080921874999998 0.06711749999999994
v -0.06972468750000034 0.10854031250000001 0.0430921875000001
v -0.050657812500000315 0.06705921874999998 0.005671406250000066
v -0.026632500000000375 0.040426718750000035 -0.041481093750000086
v -0.009176718750000349 0.39707328124999997 -0.03580921874999987
v -0.01745531250000029 0.37044078125 0.01645968749999982
v -0.024025312500000243 0.32895968749999993 0.05794078125000013
v -0.02824359375000025 0.27669078125 0.08457328124999997
v -0.02969718750000034 0.21875 0.09375
v -0.02824359375000025 0.16080921874999998 0.08457328124999997
v -0.024025312500000243 0.10854031250000001 0.05794078125000013
v -0.01745531250000029 0.06705921874999998 0.01645968749999982
v -0.009176718750000349 0.040426718750000035 -0.03580921874999987
v 0.00917671874999972 0.39707328124999997 -0.03580921874999987
v 0.017455312499999796 0.37044078125 0.01645968749999982
v 0.02402531249999977 0.32895968749999993 0.05794078125000013
v 0.028243593749999785 0.27669078125 0.08457328124999997
v 0.02969718749999977 0.21875 0.09375
v 0.028243593749999785 0.16080921874999998 0.08457328124999997
v 0.02402531249999977 0.10854031250000001 0.05794078125000013
v 0.017455312499999796 0.06705921874999998 0.01645968749999982
v 0.00917671874999972 0.040426718750000035 -0.03580921874999987
v 0.02663249999999952 0.39707328124999997 -0.041481093750000086
v 0.050657812499999594 0.37044078125 0.005671406250000066
v 0.06972468749999965 0.32895968749999993 0.0430921875000001
v 0.08196609374999968 0.27669078125 0.06711749999999994
v 0.08618437499999969 0.21875 0.07539609375
v 0.08196609374999968 0.16080921874999998 0.06711749999999994
v 0.06972468749999965 0.10854031250000001 0.0430921875000001
v 0.050657812499999594 0.06705921874999998 0.005671406250000066
v 0.02663249999999952 0.040426718750000035 -0.041481093750000086
v 0.04148109374999977 0.39707328124999997 -0.052268906249999914
v 0.07890140624999967 0.37044078125 -0.014848593750000028
v 0.10859859374999972 0.32895968749999993 0.014848593750000028
v 0.12766546874999976 0.27669078125 0.033915468750000066
v 0.13423499999999958 0.21875 0.04048499999999988
v 0.12766546874999976 0.16080921874999998 0.033915468750000066
v 0.10859859374999972 0.10854031250000001 0.014848593750000028
v 0.07890140624999967 0.06705921874999998 -0.014848593750000028
v 0.04148109374999977 0.040426718750000035 -0.052268906249999914
v 0.052268906249999594 0.39707328124999997 -0.06711750000000016
v 0.09942140624999952 0.37044078125 -0.0430921875000001
v 0.1368421874999998 0.32895968749999993 -0.024025312500000062
v 0.16086749999999986 0.27669078125 -0.011783906250000031
v 0.1691460937499997 0.21875 -0.00756562500000002
v 0.16086749999999986 0.16080921874999998 -0.011783906250000031
v 0.1368421874999998 0.10854031250000001 -0.024025312500000062
v 0.09942140624999952 0.06705921874999998 -0.0430921875000001
v 0.052268906249999594 0.040426718750000035 -0.06711750000000016
v 0.0579407812499998 0.39707328124999997 -0.08457328124999997
v 0.11020968749999972 0.37044078125 -0.0762946874999999
v 0.1516907812499998 0.32895968749999993 -0.06972468749999994
v 0.17832328124999963 0.27669078125 -0.06550640624999993
v 0.18749999999999967 0.21875 -0.06405281249999994
v 0.17832328124999963 0.16080921874999998 -0.06550640624999993
v 0.1516907812499998 0.10854031250000001 -0.06972468749999994
v 0.11020968749999972 0.06705921874999998 -0.0762946874999999
v 0.0579407812499998 0.040426718750000035 -0.08457328124999997
v 0.0579407812499998 0.39707328124999997 -0.10292671875000003
v 0.11020968749999971 0.37044078125 -0.1112053125000001
v 0.1516907812499998 0.32895968749999993 -0.11777531250000006
v 0.17832328124999963 0.27669078125 -0.12199359375000007
v 0.18749999999999967 0.21875 -0.12344718750000006
v 0.17832328124999963 0.16080921874999998 -0.12199359375000007
v 0.1516907812499998 0.10854031250000001 -0.11777531250000006
v 0.11020968749999971 0.06705921874999998 -0.1112053125000001
v 0.0579407812499998 0.040426718750000035 -0.10292671875000003
v 0.05226890624999958 0.39707328124999997 -0.12038249999999984
v 0.09942140624999951 0.37044078125 -0.1444078124999999
v 0.13684218749999977 0.32895968749999993 -0.16347468749999994
v 0.16086749999999983 0.27669078125 -0.17571609374999997
v 0.16914609374999967 0.21875 -0.17993437499999998
v 0.16086749999999983 0.16080921874999998 -0.17571609374999997
v 0.13684218749999977 0.10854031250000001 -0.16347468749999994
v 0.09942140624999951 0.06705921874999998 -0.1444078124999999
v 0.05226890624999958 0.040426718750000035 -0.12038249999999984
v 0.04148109374999975 0.39707328124999997 -0.1352310937500001
v 0.07890140624999963 0.37044078125 -0.17265140624999997
v 0.10859859374999968 0.32895968749999993 -0.20234859375000003
v 0.1276654687499997 0.27669078125 -0.22141546875000007
v 0.13423499999999952 0.21875 -0.22798499999999988
v 0.1276654687499997 0.16080921874999998 -0.22141546875000007
v 0.10859859374999968 0.10854031250000001 -0.20234859375000003
v 0.07890140624999963 0.06705921874999998 -0.17265140624999997
v 0.04148109374999975 0.040426718750000035 -0.1352310937500001
v 0.0266324999999995 0.39707328124999997 -0.1460189062499999
v 0.05065781249999955 0.37044078125 -0.19317140624999984
v 0.06972468749999958 0.32895968749999993 -0.2305921875000001
v 0.08196609374999961 0.27669078125 -0.25461750000000016
v 0.08618437499999962 0.21875 -0.26289609375
v 0.08196609374999961 0.16080921874999998 -0.25461750000000016
v 0.06972468749999958 0.10854031250000001 -0.2305921875000001
v 0.05065781249999955 0.06705921874999998 -0.19317140624999984
v 0.0266324999999995 0.040426718750000035 -0.1460189062499999
v 0.009176718749999696 0.39707328124999997 -0.15169078125000013
v 0.017455312499999747 0.37044078125 -0.20395968750000004
v 0.0240253124999997 0.32895968749999993 -0.24544078125000013
v 0.02824359374999971 0.27669078125 -0.27207328124999997
v 0.029697187499999687 0.21875 -0.28125
v 0.02824359374999971 0.16080921874999998 -0.27207328124999997
v 0.0240253124999997 0.10854031250000001 -0.24544078125000013
v 0.017455312499999747 0.06705921874999998 -0.20395968750000004
v 0.009176718749999696 0.040426718750000035 -0.15169078125000013
v -0.009176718750000373 0.39707328124999997 -0.15169078125000013
v -0.017455312500000337 0.37044078125 -0.20395968750000004
v -0.024025312500000312 0.32895968749999993 -0.24544078125000013
v -0.028243593750000327 0.27669078125 -0.27207328124999997
v -0.029697187500000423 0.21875 -0.28125
v -0.028243593750000327 0.16080921874999998 -0.27207328124999997
v -0.024025312500000312 0.10854031250000001 -0.24544078125000013
v -0.017455312500000337 0.06705921874999998 -0.20395968750000004
v -0.009176718750000373 0.040426718750000035 -0.15169078125000013
v -0.026632500000000395 0.39707328124999997 -0.1460189062499999
v -0.05065781250000036 0.37044078125 -0.19317140624999984
v -0.06972468750000041 0.32895968749999993 -0.2305921875000001
v -0.08196609375000033 0.27669078125 -0.25461750000000016
v -0.08618437500000034 0.21875 -0.26289609375
v -0.08196609375000033 0.16080921874999998 -0.25461750000000016
v -0.06972468750000041 0.10854031250000001 -0.2305921875000001
v -0.05065781250000036 0.06705921874999998 -0.19317140624999984
v -0.026632500000000395 0.040426718750000035 -0.1460189062499999
v -0.04148109375000042 0.39707328124999997 -0.1352310937500001
v -0.07890140625000032 0.37044078125 -0.17265140624999997
v -0.10859859375000037 0.32895968749999993 -0.20234859375000003
v -0.12766546875000043 0.27669078125 -0.22141546875000007
v -0.13423500000000035 0.21875 -0.22798499999999988
v -0.12766546875000043 0.16080921874999998 -0.22141546875000007
v -0.10859859375000037 0.10854031250000001 -0.20234859375000003
v -0.07890140625000032 0.06705921874999998 -0.17265140624999997
v -0.04148109375000042 0.040426718750000035 -0.1352310937500001
v -0.05226890625000025 0.39707328124999997 -0.12038249999999984
v -0.0994214062500004 0.37044078125 -0.1444078124999999
v -0.13684218750000032 0.32895968749999993 -0.16347468749999994
v -0.16086750000000027 0.27669078125 -0.17571609374999997
v -0.16914609375000034 0.21875 -0.17993437499999998
v -0.16086750000000027 0.16080921874999998 -0.17571609374999997
v -0.13684218750000032 0.10854031250000001 -0.16347468749999994
v -0.0994214062500004 0.06705921874999998 -0.1444078124999999
v -0.05226890625000025 0.040426718750000035 -0.12038249999999984
v -0.057940781250000344 0.39707328124999997 -0.10292671875000003
v -0.11020968750000026 0.37044078125 -0.1112053125000001
v -0.15169078125000035 0.32895968749999993 -0.11777531250000006
v -0.1783232812500003 0.27669078125 -0.12199359375000007
v -0.18750000000000033 0.21875 -0.12344718750000006
v -0.1783232812500003 0.16080921874999998 -0.12199359375000007
v -0.15169078125000035 0.10854031250000001 -0.11777531250000006
v -0.11020968750000026 0.06705921874999998 -0.1112053125000001
v -0.057940781250000344 0.040426718750000035 -0.10292671875000003
vt 0.375 0.23428749999999998
vt 0.399475 0.23428749999999998
vt 0.3872375 0.3125
vt 0.3860375 0.3125
vt 0.375 0.23428749999999998
vt 0.42155 0.23428749999999998
vt 0.4105125 0.3125
vt 0.38375625 0.3125
vt 0.375 0.23428749999999998
vt 0.4390625 0.23428749999999998
vt 0.43030625 0.3125
vt 0.380625 0.3125
vt 0.375 0.23428749999999998
vt 0.4503125 0.23428749999999998
vt 0.4446875 0.3125
vt 0.3769375 0.3125
vt 0.375 0.23428749999999998
vt 0.4541875 0.23428749999999998
vt 0.45225 0.3125
vt 0.375 0.3125
vt 0.3769375 0.23428749999999998
vt 0.45225 0.23428749999999998
vt 0.4541875 0.3125
vt 0.375 0.3125
vt 0.380625 0.23428749999999998
vt 0.4446875 0.23428749999999998
vt 0.4503125 0.3125
vt 0.375 0.3125
vt 0.38375625 0.23428749999999998
vt 0.43030625 0.23428749999999998
vt 0.4390625 0.3125
vt 0.375 0.3125
vt 0.3860375 0.23428749999999998
vt 0.4105125 0.23428749999999998
vt 0.42155 0.3125
vt 0.399475 0.3125
vt 0.375 0.3125
vt 0.3872375 0.23428749999999998
vt 0.375 0.23428749999999998
vt 0.399475 0.23428749999999998
vt 0.3872375 0.3125
vt 0.3860375 0.3125
vt 0.375 0.23428749999999998
vt 0.42155 0.23428749999999998
vt 0.4105125 0.3125
vt 0.38375625 0.3125
vt 0.375 0.23428749999999998
vt 0.4390625 0.23428749999999998
vt 0.43030625 0.3125
vt 0.380625 0.3125
vt 0.375 0.23428749999999998
vt 0.4503125 0.23428749999999998
vt 0.4446875 0.3125
vt 0.3769375 0.3125
vt 0.375 0.23428749999999998
vt 0.4541875 0.23428749999999998
vt 0.45225 0.3125
vt 0.375 0.3125
vt 0.3769375 0.23428749999999998
vt 0.45225 0.23428749999999998
vt 0.4541875 0.3125
vt 0.375 0.3125
vt 0.380625 0.23428749999999998
vt 0.4446875 0.23428749999999998
vt 0.4503125 0.3125
vt 0.375 0.3125
vt 0.38375625 0.23428749999999998
vt 0.43030625 0.23428749999999998
vt 0.4390625 0.3125
vt 0.375 0.3125
vt 0.3860375 0.23428749999999998
vt 0.4105125 0.23428749999999998
vt 0.42155 0.3125
vt 0.399475 0.3125
vt 0.375 0.3125
vt 0.3872375 0.23428749999999998
vt 0.375 0.23428749999999998
vt 0.399475 0.23428749999999998
vt 0.3872375 0.3125
vt 0.3860375 0.3125
vt 0.375 0.23428749999999998
vt 0.42155 0.23428749999999998
vt 0.4105125 0.3125
vt 0.38375625 0.3125
vt 0.375 0.23428749999999998
vt 0.4390625 0.23428749999999998
vt 0.43030625 0.3125
vt 0.380625 0.3125
vt 0.375 0.23428749999999998
vt 0.4503125 0.23428749999999998
vt 0.4446875 0.3125
vt 0.3769375 0.3125
vt 0.375 0.23428749999999998
vt 0.4541875 0.23428749999999998
vt 0.45225 0.3125
vt 0.375 0.3125
vt 0.3769375 0.23428749999999998
vt 0.45225 0.23428749999999998
vt 0.4541875 0.3125
vt 0.375 0.3125
vt 0.380625 0.23428749999999998
vt 0.4446875 0.23428749999999998
vt 0.4503125 0.3125
vt 0.375 0.3125
vt 0.38375625 0.23428749999999998
vt 0.43030625 0.23428749999999998
vt 0.4390625 0.3125
vt 0.375 0.3125
vt 0.3860375 0.23428749999999998
vt 0.4105125 0.23428749999999998
vt 0.42155 0.3125
vt 0.399475 0.3125
vt 0.375 0.3125
vt 0.3872375 0.23428749999999998
vt 0.375 0.23428749999999998
vt 0.399475 0.23428749999999998
vt 0.3872375 0.3125
vt 0.3860375 0.3125
vt 0.375 0.23428749999999998
vt 0.42155 0.23428749999999998
vt 0.4105125 0.3125
vt 0.38375625 0.3125
vt 0.375 0.23428749999999998
vt 0.4390625 0.23428749999999998
vt 0.43030625 0.3125
vt 0.380625 0.3125
vt 0.375 0.23428749999999998
vt 0.4503125 0.23428749999999998
vt 0.4446875 0.3125
vt 0.3769375 0.3125
vt 0.375 0.23428749999999998
vt 0.4541875 0.23428749999999998
vt 0.45225 0.3125
vt 0.375 0.3125
vt 0.3769375 0.23428749999999998
vt 0.45225 0.23428749999999998
vt 0.4541875 0.3125
vt 0.375 0.3125
vt 0.380625 0.23428749999999998
vt 0.4446875 0.23428749999999998
vt 0.4503125 0.3125
vt 0.375 0.3125
vt 0.38375625 0.23428749999999998
vt 0.43030625 0.23428749999999998
vt 0.4390625 0.3125
vt 0.375 0.3125
vt 0.3860375 0.23428749999999998
vt 0.4105125 0.23428749999999998
vt 0.42155 0.3125
vt 0.399475 0.3125
vt 0.375 0.3125
vt 0.3872375 0.23428749999999998
vt 0.375 0.23428749999999998
vt 0.399475 0.23428749999999998
vt 0.3872375 0.3125
vt 0.3860375 0.3125
vt 0.375 0.23428749999999998
vt 0.42155 0.23428749999999998
vt 0.4105125 0.3125
vt 0.38375625 0.3125
vt 0.375 0.23428749999999998
vt 0.4390625 0.23428749999999998
vt 0.43030625 0.3125
vt 0.380625 0.3125
vt 0.375 0.23428749999999998
vt 0.4503125 0.23428749999999998
vt 0.4446875 0.3125
vt 0.3769375 0.3125
vt 0.375 0.23428749999999998
vt 0.4541875 0.23428749999999998
vt 0.45225 0.3125
vt 0.375 0.3125
vt 0.3769375 0.23428749999999998
vt 0.45225 0.23428749999999998
vt 0.4541875 0.3125
vt 0.375 0.3125
vt 0.380625 0.23428749999999998
vt 0.4446875 0.23428749999999998
vt 0.4503125 0.3125
vt 0.375 0.3125
vt 0.38375625 0.23428749999999998
vt 0.43030625 0.23428749999999998
vt 0.4390625 0.3125
vt 0.375 0.3125
vt 0.3860375 0.23428749999999998
vt 0.4105125 0.23428749999999998
vt 0.42155 0.3125
vt 0.399475 0.3125
vt 0.375 0.3125
vt 0.3872375 0.23428749999999998
vt 0.375 0.23428749999999998
vt 0.399475 0.23428749999999998
vt 0.3872375 0.3125
vt 0.3860375 0.3125
vt 0.375 0.23428749999999998
vt 0.42155 0.23428749999999998
vt 0.4105125 0.3125
vt 0.38375625 0.3125
vt 0.375 0.23428749999999998
vt 0.4390625 0.23428749999999998
vt 0.43030625 0.3125
vt 0.380625 0.3125
vt 0.375 0.23428749999999998
vt 0.4503125 0.23428749999999998
vt 0.4446875 0.3125
vt 0.3769375 0.3125
vt 0.375 0.23428749999999998
vt 0.4541875 0.23428749999999998
vt 0.45225 0.3125
vt 0.375 0.3125
vt 0.3769375 0.23428749999999998
vt 0.45225 0.23428749999999998
vt 0.4541875 0.3125
vt 0.375 0.3125
vt 0.380625 0.23428749999999998
vt 0.4446875 0.23428749999999998
vt 0.4503125 0.3125
vt 0.375 0.3125
vt 0.38375625 0.23428749999999998
vt 0.43030625 0.23428749999999998
vt 0.4390625 0.3125
vt 0.375 0.3125
vt 0.3860375 0.23428749999999998
vt 0.4105125 0.23428749999999998
vt 0.42155 0.3125
vt 0.399475 0.3125
vt 0.375 0.3125
vt 0.3872375 0.23428749999999998
vt 0.375 0.23428749999999998
vt 0.399475 0.23428749999999998
vt 0.3872375 0.3125
vt 0.3860375 0.3125
vt 0.375 0.23428749999999998
vt 0.42155 0.23428749999999998
vt 0.4105125 0.3125
vt 0.38375625 0.3125
vt 0.375 0.23428749999999998
vt 0.4390625 0.23428749999999998
vt 0.43030625 0.3125
vt 0.380625 0.3125
vt 0.375 0.23428749999999998
vt 0.4503125 0.23428749999999998
vt 0.4446875 0.3125
vt 0.3769375 0.3125
vt 0.375 0.23428749999999998
vt 0.4541875 0.23428749999999998
vt 0.45225 0.3125
vt 0.375 0.3125
vt 0.3769375 0.23428749999999998
vt 0.45225 0.23428749999999998
vt 0.4541875 0.3125
vt 0.375 0.3125
vt 0.380625 0.23428749999999998
vt 0.4446875 0.23428749999999998
vt 0.4503125 0.3125
vt 0.375 0.3125
vt 0.38375625 0.23428749999999998
vt 0.43030625 0.23428749999999998
vt 0.4390625 0.3125
vt 0.375 0.3125
vt 0.3860375 0.23428749999999998
vt 0.4105125 0.23428749999999998
vt 0.42155 0.3125
vt 0.399475 0.3125
vt 0.375 0.3125
vt 0.3872375 0.23428749999999998
vt 0.375 0.23428749999999998
vt 0.399475 0.23428749999999998
vt 0.3872375 0.3125
vt 0.3860375 0.3125
vt 0.375 0.23428749999999998
vt 0.42155 0.23428749999999998
vt 0.4105125 0.3125
vt 0.38375625 0.3125
vt 0.375 0.23428749999999998
vt 0.4390625 0.23428749999999998
vt 0.43030625 0.3125
vt 0.380625 0.3125
vt 0.375 0.23428749999999998
vt 0.4503125 0.23428749999999998
vt 0.4446875 0.3125
vt 0.3769375 0.3125
vt 0.375 0.23428749999999998
vt 0.4541875 0.23428749999999998
vt 0.45225 0.3125
vt 0.375 0.3125
vt 0.3769375 0.23428749999999998
vt 0.45225 0.23428749999999998
vt 0.4541875 0.3125
vt 0.375 0.3125
vt 0.380625 0.23428749999999998
vt 0.4446875 0.23428749999999998
vt 0.4503125 0.3125
vt 0.375 0.3125
vt 0.38375625 0.23428749999999998
vt 0.43030625 0.23428749999999998
vt 0.4390625 0.3125
vt 0.375 0.3125
vt 0.3860375 0.23428749999999998
vt 0.4105125 0.23428749999999998
vt 0.42155 0.3125
vt 0.399475 0.3125
vt 0.375 0.3125
vt 0.3872375 0.23428749999999998
vt 0.375 0.23428749999999998
vt 0.399475 0.23428749999999998
vt 0.3872375 0.3125
vt 0.3860375 0.3125
vt 0.375 0.23428749999999998
vt 0.42155 0.23428749999999998
vt 0.4105125 0.3125
vt 0.38375625 0.3125
vt 0.375 0.23428749999999998
vt 0.4390625 0.23428749999999998
vt 0.43030625 0.3125
vt 0.380625 0.3125
vt 0.375 0.23428749999999998
vt 0.4503125 0.23428749999999998
vt 0.4446875 0.3125
vt 0.3769375 0.3125
vt 0.375 0.23428749999999998
vt 0.4541875 0.23428749999999998
vt 0.45225 0.3125
vt 0.375 0.3125
vt 0.3769375 0.23428749999999998
vt 0.45225 0.23428749999999998
vt 0.4541875 0.3125
vt 0.375 0.3125
vt 0.380625 0.23428749999999998
vt 0.4446875 0.23428749999999998
vt 0.4503125 0.3125
vt 0.375 0.3125
vt 0.38375625 0.23428749999999998
vt 0.43030625 0.23428749999999998
vt 0.4390625 0.3125
vt 0.375 0.3125
vt 0.3860375 0.23428749999999998
vt 0.4105125 0.23428749999999998
vt 0.42155 0.3125
vt 0.399475 0.3125
vt 0.375 0.3125
vt 0.3872375 0.23428749999999998
vt 0.375 0.23428749999999998
vt 0.399475 0.23428749999999998
vt 0.3872375 0.3125
vt 0.3860375 0.3125
vt 0.375 0.23428749999999998
vt 0.42155 0.23428749999999998
vt 0.4105125 0.3125
vt 0.38375625 0.3125
vt 0.375 0.23428749999999998
vt 0.4390625 0.23428749999999998
vt 0.43030625 0.3125
vt 0.380625 0.3125
vt 0.375 0.23428749999999998
vt 0.4503125 0.23428749999999998
vt 0.4446875 0.3125
vt 0.3769375 0.3125
vt 0.375 0.23428749999999998
vt 0.4541875 0.23428749999999998
vt 0.45225 0.3125
vt 0.375 0.3125
vt 0.3769375 0.23428749999999998
vt 0.45225 0.23428749999999998
vt 0.4541875 0.3125
vt 0.375 0.3125
vt 0.380625 0.23428749999999998
vt 0.4446875 0.23428749999999998
vt 0.4503125 0.3125
vt 0.375 0.3125
vt 0.38375625 0.23428749999999998
vt 0.43030625 0.23428749999999998
vt 0.4390625 0.3125
vt 0.375 0.3125
vt 0.3860375 0.23428749999999998
vt 0.4105125 0.23428749999999998
vt 0.42155 0.3125
vt 0.399475 0.3125
vt 0.375 0.3125
vt 0.3872375 0.23428749999999998
vt 0.375 0.23428749999999998
vt 0.399475 0.23428749999999998
vt 0.3872375 0.3125
vt 0.3860375 0.3125
vt 0.375 0.23428749999999998
vt 0.42155 0.23428749999999998
vt 0.4105125 0.3125
vt 0.38375625 0.3125
vt 0.375 0.23428749999999998
vt 0.4390625 0.23428749999999998
vt 0.43030625 0.3125
vt 0.380625 0.3125
vt 0.375 0.23428749999999998
vt 0.4503125 0.23428749999999998
vt 0.4446875 0.3125
vt 0.3769375 0.3125
vt 0.375 0.23428749999999998
vt 0.4541875 0.23428749999999998
vt 0.45225 0.3125
vt 0.375 0.3125
vt 0.3769375 0.23428749999999998
vt 0.45225 0.23428749999999998
vt 0.4541875 0.3125
vt 0.375 0.3125
vt 0.380625 0.23428749999999998
vt 0.4446875 0.23428749999999998
vt 0.4503125 0.3125
vt 0.375 0.3125
vt 0.38375625 0.23428749999999998
vt 0.43030625 0.23428749999999998
vt 0.4390625 0.3125
vt 0.375 0.3125
vt 0.3860375 0.23428749999999998
vt 0.4105125 0.23428749999999998
vt 0.42155 0.3125
vt 0.399475 0.3125
vt 0.375 0.3125
vt 0.3872375 0.23428749999999998
vt 0.375 0.23428749999999998
vt 0.399475 0.23428749999999998
vt 0.3872375 0.3125
vt 0.3860375 0.3125
vt 0.375 0.23428749999999998
vt 0.42155 0.23428749999999998
vt 0.4105125 0.3125
vt 0.38375625 0.3125
vt 0.375 0.23428749999999998
vt 0.4390625 0.23428749999999998
vt 0.43030625 0.3125
vt 0.380625 0.3125
vt 0.375 0.23428749999999998
vt 0.4503125 0.23428749999999998
vt 0.4446875 0.3125
vt 0.3769375 0.3125
vt 0.375 0.23428749999999998
vt 0.4541875 0.23428749999999998
vt 0.45225 0.3125
vt 0.375 0.3125
vt 0.3769375 0.23428749999999998
vt 0.45225 0.23428749999999998
vt 0.4541875 0.3125
vt 0.375 0.3125
vt 0.380625 0.23428749999999998
vt 0.4446875 0.23428749999999998
vt 0.4503125 0.3125
vt 0.375 0.3125
vt 0.38375625 0.23428749999999998
vt 0.43030625 0.23428749999999998
vt 0.4390625 0.3125
vt 0.375 0.3125
vt 0.3860375 0.23428749999999998
vt 0.4105125 0.23428749999999998
vt 0.42155 0.3125
vt 0.399475 0.3125
vt 0.375 0.3125
vt 0.3872375 0.23428749999999998
vt 0.375 0.23428749999999998
vt 0.399475 0.23428749999999998
vt 0.3872375 0.3125
vt 0.3860375 0.3125
vt 0.375 0.23428749999999998
vt 0.42155 0.23428749999999998
vt 0.4105125 0.3125
vt 0.38375625 0.3125
vt 0.375 0.23428749999999998
vt 0.4390625 0.23428749999999998
vt 0.43030625 0.3125
vt 0.380625 0.3125
vt 0.375 0.23428749999999998
vt 0.4503125 0.23428749999999998
vt 0.4446875 0.3125
vt 0.3769375 0.3125
vt 0.375 0.23428749999999998
vt 0.4541875 0.23428749999999998
vt 0.45225 0.3125
vt 0.375 0.3125
vt 0.3769375 0.23428749999999998
vt 0.45225 0.23428749999999998
vt 0.4541875 0.3125
vt 0.375 0.3125
vt 0.380625 0.23428749999999998
vt 0.4446875 0.23428749999999998
vt 0.4503125 0.3125
vt 0.375 0.3125
vt 0.38375625 0.23428749999999998
vt 0.43030625 0.23428749999999998
vt 0.4390625 0.3125
vt 0.375 0.3125
vt 0.3860375 0.23428749999999998
vt 0.4105125 0.23428749999999998
vt 0.42155 0.3125
vt 0.399475 0.3125
vt 0.375 0.3125
vt 0.3872375 0.23428749999999998
vt 0.375 0.23428749999999998
vt 0.399475 0.23428749999999998
vt 0.3872375 0.3125
vt 0.3860375 0.3125
vt 0.375 0.23428749999999998
vt 0.42155 0.23428749999999998
vt 0.4105125 0.3125
vt 0.38375625 0.3125
vt 0.375 0.23428749999999998
vt 0.4390625 0.23428749999999998
vt 0.43030625 0.3125
vt 0.380625 0.3125
vt 0.375 0.23428749999999998
vt 0.4503125 0.23428749999999998
vt 0.4446875 0.3125
vt 0.3769375 0.3125
vt 0.375 0.23428749999999998
vt 0.4541875 0.23428749999999998
vt 0.45225 0.3125
vt 0.375 0.3125
vt 0.3769375 0.23428749999999998
vt 0.45225 0.23428749999999998
vt 0.4541875 0.3125
vt 0.375 0.3125
vt 0.380625 0.23428749999999998
vt 0.4446875 0.23428749999999998
vt 0.4503125 0.3125
vt 0.375 0.3125
vt 0.38375625 0.23428749999999998
vt 0.43030625 0.23428749999999998
vt 0.4390625 0.3125
vt 0.375 0.3125
vt 0.3860375 0.23428749999999998
vt 0.4105125 0.23428749999999998
vt 0.42155 0.3125
vt 0.399475 0.3125
vt 0.375 0.3125
vt 0.3872375 0.23428749999999998
vt 0.375 0.23428749999999998
vt 0.399475 0.23428749999999998
vt 0.3872375 0.3125
vt 0.3860375 0.3125
vt 0.375 0.23428749999999998
vt 0.42155 0.23428749999999998
vt 0.4105125 0.3125
vt 0.38375625 0.3125
vt 0.375 0.23428749999999998
vt 0.4390625 0.23428749999999998
vt 0.43030625 0.3125
vt 0.380625 0.3125
vt 0.375 0.23428749999999998
vt 0.4503125 0.23428749999999998
vt 0.4446875 0.3125
vt 0.3769375 0.3125
vt 0.375 0.23428749999999998
vt 0.4541875 0.23428749999999998
vt 0.45225 0.3125
vt 0.375 0.3125
vt 0.3769375 0.23428749999999998
vt 0.45225 0.23428749999999998
vt 0.4541875 0.3125
vt 0.375 0.3125
vt 0.380625 0.23428749999999998
vt 0.4446875 0.23428749999999998
vt 0.4503125 0.3125
vt 0.375 0.3125
vt 0.38375625 0.23428749999999998
vt 0.43030625 0.23428749999999998
vt 0.4390625 0.3125
vt 0.375 0.3125
vt 0.3860375 0.23428749999999998
vt 0.4105125 0.23428749999999998
vt 0.42155 0.3125
vt 0.399475 0.3125
vt 0.375 0.3125
vt 0.3872375 0.23428749999999998
vt 0.375 0.23428749999999998
vt 0.399475 0.23428749999999998
vt 0.3872375 0.3125
vt 0.3860375 0.3125
vt 0.375 0.23428749999999998
vt 0.42155 0.23428749999999998
vt 0.4105125 0.3125
vt 0.38375625 0.3125
vt 0.375 0.23428749999999998
vt 0.4390625 0.23428749999999998
vt 0.43030625 0.3125
vt 0.380625 0.3125
vt 0.375 0.23428749999999998
vt 0.4503125 0.23428749999999998
vt 0.4446875 0.3125
vt 0.3769375 0.3125
vt 0.375 0.23428749999999998
vt 0.4541875 0.23428749999999998
vt 0.45225 0.3125
vt 0.375 0.3125
vt 0.3769375 0.23428749999999998
vt 0.45225 0.23428749999999998
vt 0.4541875 0.3125
vt 0.375 0.3125
vt 0.380625 0.23428749999999998
vt 0.4446875 0.23428749999999998
vt 0.4503125 0.3125
vt 0.375 0.3125
vt 0.38375625 0.23428749999999998
vt 0.43030625 0.23428749999999998
vt 0.4390625 0.3125
vt 0.375 0.3125
vt 0.3860375 0.23428749999999998
vt 0.4105125 0.23428749999999998
vt 0.42155 0.3125
vt 0.399475 0.3125
vt 0.375 0.3125
vt 0.3872375 0.23428749999999998
vt 0.375 0.23428749999999998
vt 0.399475 0.23428749999999998
vt 0.3872375 0.3125
vt 0.3860375 0.3125
vt 0.375 0.23428749999999998
vt 0.42155 0.23428749999999998
vt 0.4105125 0.3125
vt 0.38375625 0.3125
vt 0.375 0.23428749999999998
vt 0.4390625 0.23428749999999998
vt 0.43030625 0.3125
vt 0.380625 0.3125
vt 0.375 0.23428749999999998
vt 0.4503125 0.23428749999999998
vt 0.4446875 0.3125
vt 0.3769375 0.3125
vt 0.375 0.23428749999999998
vt 0.4541875 0.23428749999999998
vt 0.45225 0.3125
vt 0.375 0.3125
vt 0.3769375 0.23428749999999998
vt 0.45225 0.23428749999999998
vt 0.4541875 0.3125
vt 0.375 0.3125
vt 0.380625 0.23428749999999998
vt 0.4446875 0.23428749999999998
vt 0.4503125 0.3125
vt 0.375 0.3125
vt 0.38375625 0.23428749999999998
vt 0.43030625 0.23428749999999998
vt 0.4390625 0.3125
vt 0.375 0.3125
vt 0.3860375 0.23428749999999998
vt 0.4105125 0.23428749999999998
vt 0.42155 0.3125
vt 0.399475 0.3125
vt 0.375 0.3125
vt 0.3872375 0.23428749999999998
vt 0.375 0.23428749999999998
vt 0.399475 0.23428749999999998
vt 0.3872375 0.3125
vt 0.3860375 0.3125
vt 0.375 0.23428749999999998
vt 0.42155 0.23428749999999998
vt 0.4105125 0.3125
vt 0.38375625 0.3125
vt 0.375 0.23428749999999998
vt 0.4390625 0.23428749999999998
vt 0.43030625 0.3125
vt 0.380625 0.3125
vt 0.375 0.23428749999999998
vt 0.4503125 0.23428749999999998
vt 0.4446875 0.3125
vt 0.3769375 0.3125
vt 0.375 0.23428749999999998
vt 0.4541875 0.23428749999999998
vt 0.45225 0.3125
vt 0.375 0.3125
vt 0.3769375 0.23428749999999998
vt 0.45225 0.23428749999999998
vt 0.4541875 0.3125
vt 0.375 0.3125
vt 0.380625 0.23428749999999998
vt 0.4446875 0.23428749999999998
vt 0.4503125 0.3125
vt 0.375 0.3125
vt 0.38375625 0.23428749999999998
vt 0.43030625 0.23428749999999998
vt 0.4390625 0.3125
vt 0.375 0.3125
vt 0.3860375 0.23428749999999998
vt 0.4105125 0.23428749999999998
vt 0.42155 0.3125
vt 0.399475 0.3125
vt 0.375 0.3125
vt 0.3872375 0.23428749999999998
vt 0.375 0.23428749999999998
vt 0.399475 0.23428749999999998
vt 0.3872375 0.3125
vt 0.3860375 0.3125
vt 0.375 0.23428749999999998
vt 0.42155 0.23428749999999998
vt 0.4105125 0.3125
vt 0.38375625 0.3125
vt 0.375 0.23428749999999998
vt 0.4390625 0.23428749999999998
vt 0.43030625 0.3125
vt 0.380625 0.3125
vt 0.375 0.23428749999999998
vt 0.4503125 0.23428749999999998
vt 0.4446875 0.3125
vt 0.3769375 0.3125
vt 0.375 0.23428749999999998
vt 0.4541875 0.23428749999999998
vt 0.45225 0.3125
vt 0.375 0.3125
vt 0.3769375 0.23428749999999998
vt 0.45225 0.23428749999999998
vt 0.4541875 0.3125
vt 0.375 0.3125
vt 0.380625 0.23428749999999998
vt 0.4446875 0.23428749999999998
vt 0.4503125 0.3125
vt 0.375 0.3125
vt 0.38375625 0.23428749999999998
vt 0.43030625 0.23428749999999998
vt 0.4390625 0.3125
vt 0.375 0.3125
vt 0.3860375 0.23428749999999998
vt 0.4105125 0.23428749999999998
vt 0.42155 0.3125
vt 0.399475 0.3125
vt 0.375 0.3125
vt 0.3872375 0.23428749999999998
vt 0.375 0.23428749999999998
vt 0.399475 0.23428749999999998
vt 0.3872375 0.3125
vt 0.3860375 0.3125
vt 0.375 0.23428749999999998
vt 0.42155 0.23428749999999998
vt 0.4105125 0.3125
vt 0.38375625 0.3125
vt 0.375 0.23428749999999998
vt 0.4390625 0.23428749999999998
vt 0.43030625 0.3125
vt 0.380625 0.3125
vt 0.375 0.23428749999999998
vt 0.4503125 0.23428749999999998
vt 0.4446875 0.3125
vt 0.3769375 0.3125
vt 0.375 0.23428749999999998
vt 0.4541875 0.23428749999999998
vt 0.45225 0.3125
vt 0.375 0.3125
vt 0.3769375 0.23428749999999998
vt 0.45225 0.23428749999999998
vt 0.4541875 0.3125
vt 0.375 0.3125
vt 0.380625 0.23428749999999998
vt 0.4446875 0.23428749999999998
vt 0.4503125 0.3125
vt 0.375 0.3125
vt 0.38375625 0.23428749999999998
vt 0.43030625 0.23428749999999998
vt 0.4390625 0.3125
vt 0.375 0.3125
vt 0.3860375 0.23428749999999998
vt 0.4105125 0.23428749999999998
vt 0.42155 0.3125
vt 0.399475 0.3125
vt 0.375 0.3125
vt 0.3872375 0.23428749999999998
vn -0.1487748229437814 0.9876888108927862 0.048341130471275015
vn -0.4317723675336957 0.8910053131240786 0.14029310253540683
vn -0.6724985202038035 0.7071069239193165 0.21850752497123893
vn -0.8473951004630514 0.45399287105251823 0.27533982048498995
vn -0.9393473063068127 0.15643184840357807 0.30521421156160977
vn -0.9393463840649282 -0.1564317744953144 0.30521708777916057
vn -0.8473964432389862 -0.4539931805366028 0.2753351775784838
vn -0.6724978034023689 -0.707106681023123 0.21851051707286842
vn -0.4317720249972687 -0.8910051972705892 0.1402948925177131
vn -0.1487748229437814 -0.9876888108927862 0.048341130471275015
vn -0.12655682062622986 0.9876888547958222 0.09194616503747065
vn -0.36728872826273623 0.8910054944253073 0.2668486443567886
vn -0.5720598497974082 0.7071082888384037 0.4156265103500876
vn -0.7208438070311074 0.4539891047149679 0.5237156658579172
vn -0.799054416627161 0.15643517948828958 0.5805515256091349
vn -0.7990607525869821 -0.15643544467122952 0.5805427334190313
vn -0.7208397653681962 -0.45398864345270595 0.5237216286157138
vn -0.5720616228603931 -0.707108556942665 0.4156236138007507
vn -0.3672909840359185 -0.8910057917483748 0.2668445467248273
vn -0.12655682062622983 -0.9876888547958222 0.09194616503747063
vn -0.09194616503747141 0.9876888547958221 0.12655682062622903
vn -0.26684940479985986 0.8910048352218147 0.36728977493160314
vn -0.41562734774107163 0.7071068641885488 0.5720610023652717
vn -0.5237140922081744 0.45399435915421466 0.7208416410549005
vn -0.5805524851097972 0.15642487267274477 0.7990557372562659
vn -0.5805437422791688 -0.1564246074797639 0.7990621411850897
vn -0.5237197786553113 -0.45399482042855016 0.7208372191204337
vn -0.41562476636503026 -0.7071065960768474 0.5720632092423251
vn -0.2668459931582655 -0.8910045378643884 0.3672929749402331
vn -0.09194616503747141 -0.9876888547958221 0.12655682062622903
vn -0.048341130471275195 0.9876888108927862 0.1487748229437811
vn -0.14029294676315435 0.8910055699691605 0.43177188812200656
vn -0.21850712612784656 0.7071082146033826 0.6724972926873134
vn -0.2753403755954344 0.4539893455254326 0.8473968088896455
vn -0.30521407096681114 0.15643472100555406 0.9393468736030268
vn -0.30521693994777455 -0.1564347949252124 0.9393459290940817
vn -0.27533583013611207 -0.4539890360496707 0.8473984516093647
vn -0.21850996810482587 -0.7071084574969427 0.6724961138736211
vn -0.1402945962213302 -0.8910056858129053 0.4317711131145393
vn -0.048341130471275195 -0.9876888108927862 0.1487748229437811
vn 0 0.9876888659344841 0.15643114814209086
vn 0 0.8910054067840724 0.4539926927622845
vn 0 0.7071067811865495 0.7071067811865456
vn 0 0.4539926927622814 0.8910054067840738
vn 0 0.15643114814209114 0.9876888659344841
vn 0 -0.15643114814209114 0.987688865934484
vn 0 -0.453992692762281 0.891005406784074
vn 0 -0.7071067811865498 0.7071067811865452
vn 0 -0.8910054067840723 0.4539926927622844
vn 0 -0.9876888659344841 0.15643114814209086
vn 0.04834113047127578 0.9876888108927863 0.148774822943781
vn 0.14029310253540594 0.8910053131240779 0.4317723675336971
vn 0.218507524971238 0.7071069239193182 0.6724985202038021
vn 0.2753398204849898 0.45399287105251684 0.8473951004630523
vn 0.30521421156160944 0.1564318484035781 0.939347306306813
vn 0.30521708777916007 -0.15643177449531442 0.9393463840649283
vn 0.2753351775784835 -0.45399318053660137 0.8473964432389871
vn 0.21851051707286592 -0.7071066810231249 0.6724978034023676
vn 0.1402948925177158 -0.8910051972705884 0.4317720249972695
vn 0.04834113047127578 -0.9876888108927863 0.148774822943781
vn 0.09194616503747063 0.9876888547958222 0.12655682062622978
vn 0.2668486443567884 0.8910054944253074 0.3672887282627363
vn 0.41562651035008835 0.7071082888384045 0.5720598497974069
vn 0.5237156658579176 0.4539891047149667 0.7208438070311078
vn 0.5805515256091363 0.15643517948828956 0.79905441662716
vn 0.5805427334190314 -0.15643544467122952 0.7990607525869821
vn 0.5237216286157158 -0.4539886434527046 0.7208397653681957
vn 0.41562361380074997 -0.7071085569426658 0.5720616228603923
vn 0.2668445467248273 -0.8910057917483748 0.3672909840359185
vn 0.09194616503747065 -0.9876888547958222 0.1265568206262298
vn 0.1265568206262298 0.9876888547958222 0.0919461650374706
vn 0.3672897749316053 0.8910048352218145 0.2668494047998573
vn 0.5720610023652722 0.7071068641885488 0.41562734774107096
vn 0.7208416410548986 0.4539943591542149 0.5237140922081767
vn 0.7990557372562653 0.15642487267274374 0.5805524851097983
vn 0.7990621411850877 -0.15642460747976283 0.5805437422791715
vn 0.7208372191204345 -0.45399482042855005 0.5237197786553105
vn 0.5720632092423286 -0.707106596076847 0.41562476636502627
vn 0.36729297494023516 -0.8910045378643885 0.26684599315826296
vn 0.12655682062622983 -0.9876888547958222 0.09194616503747063
vn 0.148774822943781 0.9876888108927863 0.04834113047127572
vn 0.43177188812200495 0.8910055699691601 0.14029294676316048
vn 0.6724972926873114 0.7071082146033846 0.21850712612784665
vn 0.8473968088896451 0.4539893455254357 0.27534037559543095
vn 0.9393468736030275 0.1564347210055505 0.305214070966811
vn 0.9393459290940832 -0.15643479492520876 0.3052169399477714
vn 0.8473984516093629 -0.4539890360496741 0.27533583013611224
vn 0.6724961138736154 -0.7071084574969455 0.21850996810483447
vn 0.43177111311454003 -0.8910056858129047 0.140294596221332
vn 0.148774822943781 -0.9876888108927863 0.04834113047127572
vn 0.15643114814209086 0.9876888659344841 0
vn 0.45399269276228293 0.891005406784073 -2.1176274968640517e-16
vn 0.7071067811865478 0.7071067811865475 0
vn 0.8910054067840739 0.4539926927622815 0
vn 0.9876888659344841 0.15643114814209114 0
vn 0.987688865934484 -0.15643114814209114 0
vn 0.891005406784074 -0.45399269276228094 0
vn 0.7071067811865472 -0.7071067811865479 -3.176425710592102e-16
vn 0.45399269276228293 -0.891005406784073 0
vn 0.15643114814209086 -0.9876888659344841 0
vn 0.148774822943781 0.9876888108927863 -0.04834113047127584
vn 0.43177236753369486 0.8910053131240782 -0.1402931025354109
vn 0.6724985202038037 0.7071069239193163 -0.21850752497123851
vn 0.8473951004630532 0.453992871052517 -0.27533982048498656
vn 0.9393473063068128 0.15643184840357807 -0.3052142115616093
vn 0.9393463840649294 -0.1564317744953145 -0.30521708777915657
vn 0.8473964432389871 -0.45399318053660137 -0.2753351775784835
vn 0.6724978034023674 -0.7071066810231225 -0.21851051707287475
vn 0.43177202499726813 -0.8910051972705891 -0.14029489251771554
vn 0.148774822943781 -0.9876888108927863 -0.04834113047127584
vn 0.12655682062622986 0.9876888547958222 -0.09194616503747065
vn 0.36728872826273823 0.8910054944253067 -0.26684864435678723
vn 0.5720598497974055 0.7071082888384059 -0.4156265103500876
vn 0.7208438070311052 0.453989104714969 -0.5237156658579195
vn 0.7990544166271605 0.15643517948828659 -0.5805515256091368
vn 0.7990607525869804 -0.15643544467122644 -0.5805427334190345
vn 0.7208397653681947 -0.453988643452707 -0.523721628615715
vn 0.5720616228603931 -0.7071085569426675 -0.41562361380074625
vn 0.3672909840359195 -0.8910057917483742 -0.2668445467248278
vn 0.12655682062622983 -0.9876888547958222 -0.09194616503747063
vn 0.09194616503747063 0.9876888547958222 -0.12655682062622986
vn 0.2668494047998574 0.8910048352218145 -0.36728977493160525
vn 0.4156273477410709 0.7071068641885488 -0.5720610023652724
vn 0.5237140922081767 0.45399435915421477 -0.7208416410548986
vn 0.5805524851097983 0.15642487267274374 -0.7990557372562653
vn 0.5805437422791715 -0.15642460747976283 -0.7990621411850877
vn 0.5237197786553104 -0.45399482042854994 -0.7208372191204345
vn 0.4156247663650265 -0.707106596076847 -0.5720632092423283
vn 0.26684599315826313 -0.8910045378643883 -0.36729297494023544
vn 0.09194616503747063 -0.9876888547958222 -0.12655682062622986
vn 0.04834113047127578 0.9876888108927863 -0.148774822943781
vn 0.14029294676316048 0.8910055699691601 -0.431771888122005
vn 0.21850712612784706 0.7071082146033845 -0.6724972926873113
vn 0.27534037559543134 0.4539893455254357 -0.847396808889645
vn 0.3052140709668114 0.15643472100555056 -0.9393468736030275
vn 0.3052169399477718 -0.15643479492520876 -0.9393459290940831
vn 0.27533583013611274 -0.4539890360496743 -0.8473984516093628
vn 0.21850996810483456 -0.7071084574969454 -0.6724961138736156
vn 0.1402945962213321 -0.8910056858129047 -0.4317711131145398
vn 0.04834113047127578 -0.9876888108927863 -0.148774822943781
vn 0 0.9876888659344841 -0.15643114814209086
vn 0 0.8910054067840731 -0.45399269276228293
vn 0 0.7071067811865476 -0.7071067811865476
vn 0 0.4539926927622814 -0.8910054067840738
vn 0 0.15643114814209114 -0.9876888659344841
vn 0 -0.15643114814209114 -0.987688865934484
vn 0 -0.453992692762281 -0.891005406784074
vn 0 -0.707106781186548 -0.7071067811865471
vn 0 -0.891005406784073 -0.45399269276228293
vn 0 -0.9876888659344841 -0.15643114814209086
vn -0.04834113047127518 0.9876888108927862 -0.14877482294378108
vn -0.1402931025354101 0.8910053131240783 -0.4317723675336952
vn -0.21850752497123754 0.7071069239193165 -0.672498520203804
vn -0.27533982048498606 0.4539928710525172 -0.8473951004630536
vn -0.3052142115616093 0.15643184840357865 -0.9393473063068127
vn -0.305217087779156 -0.15643177449531512 -0.9393463840649295
vn -0.27533517757848225 -0.45399318053660154 -0.8473964432389876
vn -0.2185105170728734 -0.7071066810231225 -0.6724978034023678
vn -0.14029489251771374 -0.891005197270589 -0.43177202499726863
vn -0.04834113047127518 -0.9876888108927862 -0.14877482294378108
vn -0.09194616503747143 0.9876888547958221 -0.126556820626229
vn -0.26684864435678807 0.8910054944253064 -0.3672887282627383
vn -0.4156265103500883 0.7071082888384059 -0.5720598497974051
vn -0.5237156658579195 0.4539891047149681 -0.7208438070311057
vn -0.5805515256091356 0.15643517948828659 -0.7990544166271611
vn -0.5805427334190342 -0.1564354446712265 -0.7990607525869808
vn -0.5237216286157165 -0.45398864345270623 -0.7208397653681943
vn -0.4156236138007471 -0.7071085569426675 -0.5720616228603923
vn -0.26684454672483093 -0.8910057917483738 -0.36729098403591826
vn -0.09194616503747143 -0.9876888547958221 -0.126556820626229
vn -0.1265568206262298 0.9876888547958222 -0.0919461650374706
vn -0.3672897749316037 0.8910048352218145 -0.2668494047998591
vn -0.5720610023652732 0.7071068641885488 -0.4156273477410699
vn -0.7208416410549006 0.4539943591542149 -0.5237140922081742
vn -0.7990557372562661 0.15642487267274519 -0.5805524851097966
vn -0.7990621411850897 -0.15642460747976425 -0.5805437422791685
vn -0.7208372191204356 -0.45399482042855016 -0.5237197786553089
vn -0.5720632092423261 -0.7071065960768472 -0.41562476636502904
vn -0.36729297494023516 -0.8910045378643885 -0.26684599315826296
vn -0.12655682062622983 -0.9876888547958222 -0.09194616503747063
vn -0.14877482294378142 0.9876888108927862 -0.04834113047127491
vn -0.4317718881220053 0.8910055699691606 -0.14029294676315635
vn -0.6724972926873137 0.7071082146033818 -0.2185071261278478
vn -0.8473968088896445 0.4539893455254346 -0.27534037559543467
vn -0.9393468736030268 0.15643472100555403 -0.3052140709668112
vn -0.9393459290940814 -0.1564347949252124 -0.30521693994777516
vn -0.8473984516093633 -0.4539890360496727 -0.27533583013611296
vn -0.6724961138736206 -0.7071084574969422 -0.2185099681048294
vn -0.4317711131145397 -0.8910056858129054 -0.14029459622132906
vn -0.14877482294378142 -0.9876888108927862 -0.04834113047127491
vn -0.15643114814209116 0.9876888659344841 0
vn -0.45399269276228293 0.891005406784073 2.1176274968640517e-16
vn -0.7071067811865476 0.7071067811865476 0
vn -0.891005406784073 0.4539926927622828 0
vn -0.9876888659344841 0.15643114814209114 0
vn -0.987688865934484 -0.15643114814209114 0
vn -0.8910054067840733 -0.45399269276228243 0
vn -0.707106781186547 -0.707106781186548 2.1176171403947342e-16
vn -0.45399269276228293 -0.891005406784073 0
vn -0.15643114814209116 -0.9876888659344841 0
usemtl m_9303da77-b71c-d5a5-00de-673e3942ce50
f 1/1/1 2/2/1 3/3/1
f 1/4/2 4/5/2 5/6/2 2/7/2
f 4/8/3 6/9/3 7/10/3 5/11/3
f 6/12/4 8/13/4 9/14/4 7/15/4
f 8/16/5 10/17/5 11/18/5 9/19/5
f 10/20/6 12/21/6 13/22/6 11/23/6
f 12/24/7 14/25/7 15/26/7 13/27/7
f 14/28/8 16/29/8 17/30/8 15/31/8
f 16/32/9 18/33/9 19/34/9 17/35/9
f 19/36/10 18/37/10 20/38/10
f 2/39/11 21/40/11 3/41/11
f 2/42/12 5/43/12 22/44/12 21/45/12
f 5/46/13 7/47/13 23/48/13 22/49/13
f 7/50/14 9/51/14 24/52/14 23/53/14
f 9/54/15 11/55/15 25/56/15 24/57/15
f 11/58/16 13/59/16 26/60/16 25/61/16
f 13/62/17 15/63/17 27/64/17 26/65/17
f 15/66/18 17/67/18 28/68/18 27/69/18
f 17/70/19 19/71/19 29/72/19 28/73/19
f 29/74/20 19/75/20 20/76/20
f 21/77/21 30/78/21 3/79/21
f 21/80/22 22/81/22 31/82/22 30/83/22
f 22/84/23 23/85/23 32/86/23 31/87/23
f 23/88/24 24/89/24 33/90/24 32/91/24
f 24/92/25 25/93/25 34/94/25 33/95/25
f 25/96/26 26/97/26 35/98/26 34/99/26
f 26/100/27 27/101/27 36/102/27 35/103/27
f 27/104/28 28/105/28 37/106/28 36/107/28
f 28/108/29 29/109/29 38/110/29 37/111/29
f 38/112/30 29/113/30 20/114/30
f 30/115/31 39/116/31 3/117/31
f 30/118/32 31/119/32 40/120/32 39/121/32
f 31/122/33 32/123/33 41/124/33 40/125/33
f 32/126/34 33/127/34 42/128/34 41/129/34
f 33/130/35 34/131/35 43/132/35 42/133/35
f 34/134/36 35/135/36 44/136/36 43/137/36
f 35/138/37 36/139/37 45/140/37 44/141/37
f 36/142/38 37/143/38 46/144/38 45/145/38
f 37/146/39 38/147/39 47/148/39 46/149/39
f 47/150/40 38/151/40 20/152/40
f 39/153/41 48/154/41 3/155/41
f 39/156/42 40/157/42 49/158/42 48/159/42
f 40/160/43 41/161/43 50/162/43 49/163/43
f 41/164/44 42/165/44 51/166/44 50/167/44
f 42/168/45 43/169/45 52/170/45 51/171/45
f 43/172/46 44/173/46 53/174/46 52/175/46
f 44/176/47 45/177/47 54/178/47 53/179/47
f 45/180/48 46/181/48 55/182/48 54/183/48
f 46/184/49 47/185/49 56/186/49 55/187/49
f 56/188/50 47/189/50 20/190/50
f 48/191/51 57/192/51 3/193/51
f 48/194/52 49/195/52 58/196/52 57/197/52
f 49/198/53 50/199/53 59/200/53 58/201/53
f 50/202/54 51/203/54 60/204/54 59/205/54
f 51/206/55 52/207/55 61/208/55 60/209/55
f 52/210/56 53/211/56 62/212/56 61/213/56
f 53/214/57 54/215/57 63/216/57 62/217/57
f 54/218/58 55/219/58 64/220/58 63/221/58
f 55/222/59 56/223/59 65/224/59 64/225/59
f 65/226/60 56/227/60 20/228/60
f 57/229/61 66/230/61 3/231/61
f 57/232/62 58/233/62 67/234/62 66/235/62
f 58/236/63 59/237/63 68/238/63 67/239/63
f 59/240/64 60/241/64 69/242/64 68/243/64
f 60/244/65 61/245/65 70/246/65 69/247/65
f 61/248/66 62/249/66 71/250/66 70/251/66
f 62/252/67 63/253/67 72/254/67 71/255/67
f 63/256/68 64/257/68 73/258/68 72/259/68
f 64/260/69 65/261/69 74/262/69 73/263/69
f 74/264/70 65/265/70 20/266/70
f 66/267/71 75/268/71 3/269/71
f 66/270/72 67/271/72 76/272/72 75/273/72
f 67/274/73 68/275/73 77/276/73 76/277/73
f 68/278/74 69/279/74 78/280/74 77/281/74
f 69/282/75 70/283/75 79/284/75 78/285/75
f 70/286/76 71/287/76 80/288/76 79/289/76
f 71/290/77 72/291/77 81/292/77 80/293/77
f 72/294/78 73/295/78 82/296/78 81/297/78
f 73/298/79 74/299/79 83/300/79 82/301/79
f 83/302/80 74/303/80 20/304/80
f 75/305/81 84/306/81 3/307/81
f 75/308/82 76/309/82 85/310/82 84/311/82
f 76/312/83 77/313/83 86/314/83 85/315/83
f 77/316/84 78/317/84 87/318/84 86/319/84
f 78/320/85 79/321/85 88/322/85 87/323/85
f 79/324/86 80/325/86 89/326/86 88/327/86
f 80/328/87 81/329/87 90/330/87 89/331/87
f 81/332/88 82/333/88 91/334/88 90/335/88
f 82/336/89 83/337/89 92/338/89 91/339/89
f 92/340/90 83/341/90 20/342/90
f 84/343/91 93/344/91 3/345/91
f 84/346/92 85/347/92 94/348/92 93/349/92
f 85/350/93 86/351/93 95/352/93 94/353/93
f 86/354/94 87/355/94 96/356/94 95/357/94
f 87/358/95 88/359/95 97/360/95 96/361/95
f 88/362/96 89/363/96 98/364/96 97/365/96
f 89/366/97 90/367/97 99/368/97 98/369/97
f 90/370/98 91/371/98 100/372/98 99/373/98
f 91/374/99 92/375/99 101/376/99 100/377/99
f 101/378/100 92/379/100 20/380/100
f 93/381/101 102/382/101 3/383/101
f 93/384/102 94/385/102 103/386/102 102/387/102
f 94/388/103 95/389/103 104/390/103 103/391/103
f 95/392/104 96/393/104 105/394/104 104/395/104
f 96/396/105 97/397/105 106/398/105 105/399/105
f 97/400/106 98/401/106 107/402/106 106/403/106
f 98/404/107 99/405/107 108/406/107 107/407/107
f 99/408/108 100/409/108 109/410/108 108/411/108
f 100/412/109 101/413/109 110/414/109 109/415/109
f 110/416/110 101/417/110 20/418/110
f 102/419/111 111/420/111 3/421/111
f 102/422/112 103/423/112 112/424/112 111/425/112
f 103/426/113 104/427/113 113/428/113 112/429/113
f 104/430/114 105/431/114 114/432/114 113/433/114
f 105/434/115 106/435/115 115/436/115 114/437/115
f 106/438/116 107/439/116 116/440/116 115/441/116
f 107/442/117 108/443/117 117/444/117 116/445/117
f 108/446/118 109/447/118 118/448/118 117/449/118
f 109/450/119 110/451/119 119/452/119 118/453/119
f 119/454/120 110/455/120 20/456/120
f 111/457/121 120/458/121 3/459/121
f 111/460/122 112/461/122 121/462/122 120/463/122
f 112/464/123 113/465/123 122/466/123 121/467/123
f 113/468/124 114/469/124 123/470/124 122/471/124
f 114/472/125 115/473/125 124/474/125 123/475/125
f 115/476/126 116/477/126 125/478/126 124/479/126
f 116/480/127 117/481/127 126/482/127 125/483/127
f 117/484/128 118/485/128 127/486/128 126/487/128
f 118/488/129 119/489/129 128/490/129 127/491/129
f 128/492/130 119/493/130 20/494/130
f 120/495/131 129/496/131 3/497/131
f 120/498/132 121/499/132 130/500/132 129/501/132
f 121/502/133 122/503/133 131/504/133 130/505/133
f 122/506/134 123/507/134 132/508/134 131/509/134
f 123/510/135 124/511/135 133/512/135 132/513/135
f 124/514/136 125/515/136 134/516/136 133/517/136
f 125/518/137 126/519/137 135/520/137 134/521/137
f 126/522/138 127/523/138 136/524/138 135/525/138
f 127/526/139 128/527/139 137/528/139 136/529/139
f 137/530/140 128/531/140 20/532/140
f 129/533/141 138/534/141 3/535/141
f 129/536/142 130/537/142 139/538/142 138/539/142
f 130/540/143 131/541/143 140/542/143 139/543/143
f 131/544/144 132/545/144 141/546/144 140/547/144
f 132/548/145 133/549/145 142/550/145 141/551/145
f 133/552/146 134/553/146 143/554/146 142/555/146
f 134/556/147 135/557/147 144/558/147 143/559/147
f 135/560/148 136/561/148 145/562/148 144/563/148
f 136/564/149 137/565/149 146/566/149 145/567/149
f 146/568/150 137/569/150 20/570/150
f 138/571/151 147/572/151 3/573/151
f 138/574/152 139/575/152 148/576/152 147/577/152
f 139/578/153 140/579/153 149/580/153 148/581/153
f 140/582/154 141/583/154 150/584/154 149/585/154
f 141/586/155 142/587/155 151/588/155 150/589/155
f 142/590/156 143/591/156 152/592/156 151/593/156
f 143/594/157 144/595/157 153/596/157 152/597/157
f 144/598/158 145/599/158 154/600/158 153/601/158
f 145/602/159 146/603/159 155/604/159 154/605/159
f 155/606/160 146/607/160 20/608/160
f 147/609/161 156/610/161 3/611/161
f 147/612/162 148/613/162 157/614/162 156/615/162
f 148/616/163 149/617/163 158/618/163 157/619/163
f 149/620/164 150/621/164 159/622/164 158/623/164
f 150/624/165 151/625/165 160/626/165 159/627/165
f 151/628/166 152/629/166 161/630/166 160/631/166
f 152/632/167 153/633/167 162/634/167 161/635/167
f 153/636/168 154/637/168 163/638/168 162/639/168
f 154/640/169 155/641/169 164/642/169 163/643/169
f 164/644/170 155/645/170 20/646/170
f 156/647/171 165/648/171 3/649/171
f 156/650/172 157/651/172 166/652/172 165/653/172
f 157/654/173 158/655/173 167/656/173 166/657/173
f 158/658/174 159/659/174 168/660/174 167/661/174
f 159/662/175 160/663/175 169/664/175 168/665/175
f 160/666/176 161/667/176 170/668/176 169/669/176
f 161/670/177 162/671/177 171/672/177 170/673/177
f 162/674/178 163/675/178 172/676/178 171/677/178
f 163/678/179 164/679/179 173/680/179 172/681/179
f 173/682/180 164/683/180 20/684/180
f 165/685/181 174/686/181 3/687/181
f 165/688/182 166/689/182 175/690/182 174/691/182
f 166/692/183 167/693/183 176/694/183 175/695/183
f 167/696/184 168/697/184 177/698/184 176/699/184
f 168/700/185 169/701/185 178/702/185 177/703/185
f 169/704/186 170/705/186 179/706/186 178/707/186
f 170/708/187 171/709/187 180/710/187 179/711/187
f 171/712/188 172/713/188 181/714/188 180/715/188
f 172/716/189 173/717/189 182/718/189 181/719/189
f 182/720/190 173/721/190 20/722/190
f 174/723/191 1/724/191 3/725/191
f 174/726/192 175/727/192 4/728/192 1/729/192
f 175/730/193 176/731/193 6/732/193 4/733/193
f 176/734/194 177/735/194 8/736/194 6/737/194
f 177/738/195 178/739/195 10/740/195 8/741/195
f 178/742/196 179/743/196 12/744/196 10/745/196
f 179/746/197 180/747/197 14/748/197 12/749/197
f 180/750/198 181/751/198 16/752/198 14/753/198
f 181/754/199 182/755/199 18/756/199 16/757/199
f 18/758/200 182/759/200 20/760/200