# Made in Blockbench 5.1.6
mtllib dc_metro_fare_gate_3_entrance_closed_light_layer.mtl

o cube
v 0.515625 0.890625 0.688125
v 0.515625 0.890625 0.688125
v 0.515625 0.609375 0.688125
v 0.515625 0.609375 0.688125
v 0.390625 0.890625 0.688125
v 0.390625 0.890625 0.688125
v 0.390625 0.609375 0.688125
v 0.390625 0.609375 0.688125
vt 0.78125 0.390625
vt 0.8125 0.390625
vt 0.8125 0.3203125
vt 0.78125 0.3203125
vn 0 0 1
usemtl m_1861be86-10fe-ce90-b164-abb7241583cd
f 8/4/1 3/3/1 1/2/1 6/1/1
o cube
v -0.390625 0.890625 -0.688125
v -0.390625 0.890625 -0.688125
v -0.390625 0.609375 -0.688125
v -0.390625 0.609375 -0.688125
v -0.515625 0.890625 -0.688125
v -0.515625 0.890625 -0.688125
v -0.515625 0.609375 -0.688125
v -0.515625 0.609375 -0.688125
vt 0.78125 0.296875
vt 0.8125 0.296875
vt 0.8125 0.2265625
vt 0.78125 0.2265625
vn 0 0 -1
usemtl m_1861be86-10fe-ce90-b164-abb7241583cd
f 12/8/2 15/7/2 13/6/2 10/5/2
o cube
v -0.343125 0.203125 0.09375
v -0.343125 0.203125 -0.09375
v -0.343125 0.0625 0.09375
v -0.343125 0.0625 -0.09375
v -0.343125 0.203125 -0.09375
v -0.343125 0.203125 0.09375
v -0.343125 0.0625 -0.09375
v -0.343125 0.0625 0.09375
vt 0.78125 0.75
vt 0.828125 0.75
vt 0.828125 0.71484375
vt 0.78125 0.71484375
vn 1 0 0
usemtl m_1861be86-10fe-ce90-b164-abb7241583cd
f 19/12/3 20/11/3 18/10/3 17/9/3
o cube
v 0.343125 0.203125 0.09375
v 0.343125 0.203125 -0.09375
v 0.343125 0.0625 0.09375
v 0.343125 0.0625 -0.09375
v 0.343125 0.203125 -0.09375
v 0.343125 0.203125 0.09375
v 0.343125 0.0625 -0.09375
v 0.343125 0.0625 0.09375
vt 0.78125 0.75
vt 0.828125 0.75
vt 0.828125 0.71484375
vt 0.78125 0.71484375
vn -1 0 0
usemtl m_1861be86-10fe-ce90-b164-abb7241583cd
f 31/16/4 32/15/4 30/14/4 29/13/4