# Made in Blockbench 5.1.6
mtllib dc_metro_roof_j3l_light_layer.mtl

o cube
v 0.44783603101068087 0.9886798749588568 -0.0625
v -0.442656815856971 0.8204195047656803 -0.0625
v -0.442656815856971 0.8204195047656803 -0.0625
v 0.44783603101068087 0.9886798749588568 -0.0625
v 0.44783603101068087 0.9886798749588568 0.0625
v 0.44783603101068087 0.9886798749588568 0.0625
v -0.442656815856971 0.8204195047656803 0.0625
v -0.442656815856971 0.8204195047656803 0.0625
vt 0 0.875
vt 0.90625 0.875
vt 0.90625 0.875
vt 0 0.875
vt 0 0.875
vt 0.125 0.875
vt 0.125 0.875
vt 0 0.875
vt 0 0.875
vt 0.90625 0.875
vt 0.90625 0.875
vt 0 0.875
vt 0 0.875
vt 0.125 0.875
vt 0.125 0.875
vt 0 0.875
vt 0 0.875
vt 0.90625 0.875
vt 0.90625 1
vt 0 1
vt 0 0.875
vt 0.90625 0.875
vt 0.90625 1
vt 0 1
vn 0 0 0
vn 0 0 0
vn 0 0 0
vn 0 0 0
vn -0.18566661538557414 0.982612796543616 0
vn 0.18566661538557414 -0.982612796543616 0
usemtl m_40d64265-13b5-e962-6180-296961286317
f 1/1/1 2/2/1 3/3/1 4/4/1
f 5/5/2 1/6/2 4/7/2 6/8/2
f 7/9/3 5/10/3 6/11/3 8/12/3
f 2/13/4 7/14/4 8/15/4 3/16/4
f 8/17/5 6/18/5 4/19/5 3/20/5
f 2/21/6 1/22/6 5/23/6 7/24/6