# Made in Blockbench 5.1.5
mtllib dc_metro_roof_l2.mtl

o part2
v 0.5 1 0.5
v 0.5 1 -0.5
v 0.5 0.75 0.5
v 0.5 0.75 -0.5
v -0.5 1.125 0.5
v -0.5 1.125 -0.5
v -0.5 0.875 0.5
v -0.5 0.875 -0.5
vt 0.125 0.953125
vt 0.125 0.984375
vt 0 0.984375
vt 0 0.953125
vt 0.125 0.953125
vt 0.125 0.984375
vt 0 0.984375
vt 0 0.953125
vt 0.125 0.875
vt 0.125 1
vt 0 1
vt 0 0.875
vt 1 0
vt 1 1
vt 0 1
vt 0 0
vt 0.125 0.953125
vt 0.125 0.984375
vt 0 0.984375
vt 0 0.953125
vt 0.125 0.953125
vt 0.125 0.984375
vt 0 0.984375
vt 0 0.953125
vn 1 0 0
vn -1 0 0
vn 0.12403473458920847 0.9922778767136677 0
vn -0.12403473458920847 -0.9922778767136677 0
vn 0 0 1
vn 0 0 -1
usemtl m_76ba16bf-14fa-fd3d-ad5c-b899852a3bf6
f 4/1/1 2/2/1 1/3/1 3/4/1
f 7/5/2 5/6/2 6/7/2 8/8/2
f 1/9/3 2/10/3 6/11/3 5/12/3
usemtl m_700ace31-c71b-29ff-aff3-655afd640216
f 4/13/4 3/14/4 7/15/4 8/16/4
usemtl m_76ba16bf-14fa-fd3d-ad5c-b899852a3bf6
f 3/17/5 1/18/5 5/19/5 7/20/5
f 8/21/6 6/22/6 2/23/6 4/24/6