# Made in Blockbench 5.1.6
mtllib dc_metro_roof_m2l_light_layer.mtl

o part3l
v 0.012235624999999972 -0.16848562499999997 0.07725437499999999
v 0.03550999999999993 -0.16848562499999997 0.06969187499999996
v 0 -0.15625 0
v 0.023273749999999982 -0.203995625 0.14694624999999994
v 0.06754375000000001 -0.203995625 0.13256187500000005
v 0.03203375000000008 -0.25930375000000006 0.202254375
v 0.09296624999999992 -0.25930375000000006 0.18245625
v 0.0376581250000001 -0.328995625 0.23776437500000003
v 0.10928812499999996 -0.328995625 0.21448999999999996
v 0.03959625 -0.40625 0.25
v 0.11491249999999997 -0.40625 0.22552812499999997
v 0.0376581250000001 -0.483504375 0.23776437500000003
v 0.10928812499999996 -0.483504375 0.21448999999999996
v 0.03203375000000008 -0.5531962500000001 0.202254375
v 0.09296624999999992 -0.5531962500000001 0.18245625
v 0.023273749999999982 -0.608504375 0.14694624999999994
v 0.06754375000000001 -0.608504375 0.13256187500000005
v 0.012235624999999972 -0.644014375 0.07725437499999999
v 0.03550999999999993 -0.644014375 0.06969187499999996
v 0 -0.65625 0
v 0.05530812500000004 -0.16848562499999997 0.05530812500000004
v 0.105201875 -0.203995625 0.105201875
v 0.144798125 -0.25930375000000006 0.144798125
v 0.17022062500000001 -0.328995625 0.17022062500000001
v 0.17898000000000003 -0.40625 0.17898000000000003
v 0.17022062500000001 -0.483504375 0.17022062500000001
v 0.144798125 -0.5531962500000001 0.144798125
v 0.105201875 -0.608504375 0.105201875
v 0.05530812500000004 -0.644014375 0.05530812500000004
v 0.06969187499999996 -0.16848562499999997 0.03551000000000004
v 0.13256187500000005 -0.203995625 0.06754375000000001
v 0.18245625 -0.25930375000000006 0.09296625000000003
v 0.21448999999999996 -0.328995625 0.10928812499999996
v 0.22552812499999997 -0.40625 0.11491249999999997
v 0.21448999999999996 -0.483504375 0.10928812499999996
v 0.18245625 -0.5531962500000001 0.09296625000000003
v 0.13256187500000005 -0.608504375 0.06754375000000001
v 0.06969187499999996 -0.644014375 0.03551000000000004
v 0.0772543750000001 -0.16848562499999997 0.012235624999999972
v 0.14694624999999994 -0.203995625 0.023273749999999982
v 0.202254375 -0.25930375000000006 0.03203374999999997
v 0.23776437500000003 -0.328995625 0.03765812499999999
v 0.25 -0.40625 0.03959625
v 0.23776437500000003 -0.483504375 0.03765812499999999
v 0.202254375 -0.5531962500000001 0.03203374999999997
v 0.14694624999999994 -0.608504375 0.023273749999999982
v 0.0772543750000001 -0.644014375 0.012235624999999972
v 0.0772543750000001 -0.16848562499999997 -0.012235624999999972
v 0.14694624999999994 -0.203995625 -0.023273749999999982
v 0.202254375 -0.25930375000000006 -0.03203375000000008
v 0.23776437500000003 -0.328995625 -0.0376581250000001
v 0.25 -0.40625 -0.03959625
v 0.23776437500000003 -0.483504375 -0.0376581250000001
v 0.202254375 -0.5531962500000001 -0.03203375000000008
v 0.14694624999999994 -0.608504375 -0.023273749999999982
v 0.0772543750000001 -0.644014375 -0.012235624999999972
v 0.06969187499999996 -0.16848562499999997 -0.03550999999999993
v 0.13256187500000005 -0.203995625 -0.06754375000000001
v 0.18245625 -0.25930375000000006 -0.09296624999999992
v 0.21448999999999996 -0.328995625 -0.10928812499999996
v 0.22552812499999997 -0.40625 -0.11491249999999997
v 0.21448999999999996 -0.483504375 -0.10928812499999996
v 0.18245625 -0.5531962500000001 -0.09296624999999992
v 0.13256187500000005 -0.608504375 -0.06754375000000001
v 0.06969187499999996 -0.644014375 -0.03550999999999993
v 0.05530812500000004 -0.16848562499999997 -0.05530812500000004
v 0.105201875 -0.203995625 -0.10520187499999989
v 0.144798125 -0.25930375000000006 -0.1447981250000001
v 0.17022062500000001 -0.328995625 -0.17022062500000001
v 0.17898000000000003 -0.40625 -0.17897999999999992
v 0.17022062500000001 -0.483504375 -0.17022062500000001
v 0.144798125 -0.5531962500000001 -0.1447981250000001
v 0.105201875 -0.608504375 -0.10520187499999989
v 0.05530812500000004 -0.644014375 -0.05530812500000004
v 0.03550999999999993 -0.16848562499999997 -0.06969187499999996
v 0.06754375000000001 -0.203995625 -0.13256187499999994
v 0.09296624999999992 -0.25930375000000006 -0.18245625
v 0.10928812499999996 -0.328995625 -0.21449000000000007
v 0.11491249999999997 -0.40625 -0.22552812500000008
v 0.10928812499999996 -0.483504375 -0.21449000000000007
v 0.09296624999999992 -0.5531962500000001 -0.18245625
v 0.06754375000000001 -0.608504375 -0.13256187499999994
v 0.03550999999999993 -0.644014375 -0.06969187499999996
v 0.012235624999999972 -0.16848562499999997 -0.0772543750000001
v 0.023273749999999982 -0.203995625 -0.14694625000000006
v 0.03203375000000008 -0.25930375000000006 -0.2022543750000001
v 0.0376581250000001 -0.328995625 -0.23776437500000003
v 0.03959625 -0.40625 -0.25
v 0.0376581250000001 -0.483504375 -0.23776437500000003
v 0.03203375000000008 -0.5531962500000001 -0.2022543750000001
v 0.023273749999999982 -0.608504375 -0.14694625000000006
v 0.012235624999999972 -0.644014375 -0.0772543750000001
v -0.012235624999999972 -0.16848562499999997 -0.0772543750000001
v -0.023273749999999982 -0.203995625 -0.14694625000000006
v -0.03203375000000008 -0.25930375000000006 -0.2022543750000001
v -0.0376581250000001 -0.328995625 -0.23776437500000003
v -0.03959625 -0.40625 -0.25
v -0.0376581250000001 -0.483504375 -0.23776437500000003
v -0.03203375000000008 -0.5531962500000001 -0.2022543750000001
v -0.023273749999999982 -0.608504375 -0.14694625000000006
v -0.012235624999999972 -0.644014375 -0.0772543750000001
v -0.03550999999999993 -0.16848562499999997 -0.06969187499999996
v -0.06754375000000001 -0.203995625 -0.13256187499999994
v -0.09296624999999992 -0.25930375000000006 -0.18245625
v -0.10928812499999996 -0.328995625 -0.21449000000000007
v -0.11491249999999997 -0.40625 -0.22552812500000008
v -0.10928812499999996 -0.483504375 -0.21449000000000007
v -0.09296624999999992 -0.5531962500000001 -0.18245625
v -0.06754375000000001 -0.608504375 -0.13256187499999994
v -0.03550999999999993 -0.644014375 -0.06969187499999996
v -0.05530812500000004 -0.16848562499999997 -0.05530812500000004
v -0.10520187499999989 -0.203995625 -0.10520187499999989
v -0.1447981250000001 -0.25930375000000006 -0.1447981250000001
v -0.17022062500000001 -0.328995625 -0.17022062500000001
v -0.17897999999999992 -0.40625 -0.17897999999999992
v -0.17022062500000001 -0.483504375 -0.17022062500000001
v -0.1447981250000001 -0.5531962500000001 -0.1447981250000001
v -0.10520187499999989 -0.608504375 -0.10520187499999989
v -0.05530812500000004 -0.644014375 -0.05530812500000004
v -0.06969187499999996 -0.16848562499999997 -0.03550999999999993
v -0.13256187499999994 -0.203995625 -0.06754375000000001
v -0.18245625 -0.25930375000000006 -0.09296624999999992
v -0.21449000000000007 -0.328995625 -0.10928812499999996
v -0.22552812500000008 -0.40625 -0.11491249999999997
v -0.21449000000000007 -0.483504375 -0.10928812499999996
v -0.18245625 -0.5531962500000001 -0.09296624999999992
v -0.13256187499999994 -0.608504375 -0.06754375000000001
v -0.06969187499999996 -0.644014375 -0.03550999999999993
v -0.0772543750000001 -0.16848562499999997 -0.012235624999999972
v -0.14694625000000006 -0.203995625 -0.023273749999999982
v -0.2022543750000001 -0.25930375000000006 -0.03203375000000008
v -0.23776437500000003 -0.328995625 -0.0376581250000001
v -0.25 -0.40625 -0.03959625
v -0.23776437500000003 -0.483504375 -0.0376581250000001
v -0.2022543750000001 -0.5531962500000001 -0.03203375000000008
v -0.14694625000000006 -0.608504375 -0.023273749999999982
v -0.0772543750000001 -0.644014375 -0.012235624999999972
v -0.0772543750000001 -0.16848562499999997 0.012235624999999972
v -0.14694625000000006 -0.203995625 0.023273749999999982
v -0.2022543750000001 -0.25930375000000006 0.03203374999999997
v -0.23776437500000003 -0.328995625 0.03765812499999999
v -0.25 -0.40625 0.03959625
v -0.23776437500000003 -0.483504375 0.03765812499999999
v -0.2022543750000001 -0.5531962500000001 0.03203374999999997
v -0.14694625000000006 -0.608504375 0.023273749999999982
v -0.0772543750000001 -0.644014375 0.012235624999999972
v -0.06969187499999996 -0.16848562499999997 0.03551000000000004
v -0.13256187499999994 -0.203995625 0.06754375000000001
v -0.18245625 -0.25930375000000006 0.09296625000000003
v -0.21449000000000007 -0.328995625 0.10928812499999996
v -0.22552812500000008 -0.40625 0.11491249999999997
v -0.21449000000000007 -0.483504375 0.10928812499999996
v -0.18245625 -0.5531962500000001 0.09296625000000003
v -0.13256187499999994 -0.608504375 0.06754375000000001
v -0.06969187499999996 -0.644014375 0.03551000000000004
v -0.05530812500000004 -0.16848562499999997 0.05530812500000004
v -0.10520187499999989 -0.203995625 0.105201875
v -0.1447981250000001 -0.25930375000000006 0.144798125
v -0.17022062500000001 -0.328995625 0.17022062500000001
v -0.17897999999999992 -0.40625 0.17898000000000003
v -0.17022062500000001 -0.483504375 0.17022062500000001
v -0.1447981250000001 -0.5531962500000001 0.144798125
v -0.10520187499999989 -0.608504375 0.105201875
v -0.05530812500000004 -0.644014375 0.05530812500000004
v -0.03550999999999993 -0.16848562499999997 0.06969187499999996
v -0.06754375000000001 -0.203995625 0.13256187500000005
v -0.09296624999999992 -0.25930375000000006 0.18245625
v -0.10928812499999996 -0.328995625 0.21448999999999996
v -0.11491249999999997 -0.40625 0.22552812499999997
v -0.10928812499999996 -0.483504375 0.21448999999999996
v -0.09296624999999992 -0.5531962500000001 0.18245625
v -0.06754375000000001 -0.608504375 0.13256187500000005
v -0.03550999999999993 -0.644014375 0.06969187499999996
v -0.012235624999999972 -0.16848562499999997 0.07725437499999999
v -0.023273749999999982 -0.203995625 0.14694624999999994
v -0.03203375000000008 -0.25930375000000006 0.202254375
v -0.0376581250000001 -0.328995625 0.23776437500000003
v -0.03959625 -0.40625 0.25
v -0.0376581250000001 -0.483504375 0.23776437500000003
v -0.03203375000000008 -0.5531962500000001 0.202254375
v -0.023273749999999982 -0.608504375 0.14694624999999994
v -0.012235624999999972 -0.644014375 0.07725437499999999
vt 0.375 0.23428749999999998
vt 0.399475 0.23428749999999998
vt 0.3872375 0.3125
vt 0.3860375 0.3125
vt 0.375 0.23428749999999998
vt 0.42155 0.23428749999999998
vt 0.4105125 0.3125
vt 0.38375625 0.3125
vt 0.375 0.23428749999999998
vt 0.4390625 0.23428749999999998
vt 0.43030625 0.3125
vt 0.380625 0.3125
vt 0.375 0.23428749999999998
vt 0.4503125 0.23428749999999998
vt 0.4446875 0.3125
vt 0.3769375 0.3125
vt 0.375 0.23428749999999998
vt 0.4541875 0.23428749999999998
vt 0.45225 0.3125
vt 0.375 0.3125
vt 0.3769375 0.23428749999999998
vt 0.45225 0.23428749999999998
vt 0.4541875 0.3125
vt 0.375 0.3125
vt 0.380625 0.23428749999999998
vt 0.4446875 0.23428749999999998
vt 0.4503125 0.3125
vt 0.375 0.3125
vt 0.38375625 0.23428749999999998
vt 0.43030625 0.23428749999999998
vt 0.4390625 0.3125
vt 0.375 0.3125
vt 0.3860375 0.23428749999999998
vt 0.4105125 0.23428749999999998
vt 0.42155 0.3125
vt 0.399475 0.3125
vt 0.375 0.3125
vt 0.3872375 0.23428749999999998
vt 0.375 0.23428749999999998
vt 0.399475 0.23428749999999998
vt 0.3872375 0.3125
vt 0.3860375 0.3125
vt 0.375 0.23428749999999998
vt 0.42155 0.23428749999999998
vt 0.4105125 0.3125
vt 0.38375625 0.3125
vt 0.375 0.23428749999999998
vt 0.4390625 0.23428749999999998
vt 0.43030625 0.3125
vt 0.380625 0.3125
vt 0.375 0.23428749999999998
vt 0.4503125 0.23428749999999998
vt 0.4446875 0.3125
vt 0.3769375 0.3125
vt 0.375 0.23428749999999998
vt 0.4541875 0.23428749999999998
vt 0.45225 0.3125
vt 0.375 0.3125
vt 0.3769375 0.23428749999999998
vt 0.45225 0.23428749999999998
vt 0.4541875 0.3125
vt 0.375 0.3125
vt 0.380625 0.23428749999999998
vt 0.4446875 0.23428749999999998
vt 0.4503125 0.3125
vt 0.375 0.3125
vt 0.38375625 0.23428749999999998
vt 0.43030625 0.23428749999999998
vt 0.4390625 0.3125
vt 0.375 0.3125
vt 0.3860375 0.23428749999999998
vt 0.4105125 0.23428749999999998
vt 0.42155 0.3125
vt 0.399475 0.3125
vt 0.375 0.3125
vt 0.3872375 0.23428749999999998
vt 0.375 0.23428749999999998
vt 0.399475 0.23428749999999998
vt 0.3872375 0.3125
vt 0.3860375 0.3125
vt 0.375 0.23428749999999998
vt 0.42155 0.23428749999999998
vt 0.4105125 0.3125
vt 0.38375625 0.3125
vt 0.375 0.23428749999999998
vt 0.4390625 0.23428749999999998
vt 0.43030625 0.3125
vt 0.380625 0.3125
vt 0.375 0.23428749999999998
vt 0.4503125 0.23428749999999998
vt 0.4446875 0.3125
vt 0.3769375 0.3125
vt 0.375 0.23428749999999998
vt 0.4541875 0.23428749999999998
vt 0.45225 0.3125
vt 0.375 0.3125
vt 0.3769375 0.23428749999999998
vt 0.45225 0.23428749999999998
vt 0.4541875 0.3125
vt 0.375 0.3125
vt 0.380625 0.23428749999999998
vt 0.4446875 0.23428749999999998
vt 0.4503125 0.3125
vt 0.375 0.3125
vt 0.38375625 0.23428749999999998
vt 0.43030625 0.23428749999999998
vt 0.4390625 0.3125
vt 0.375 0.3125
vt 0.3860375 0.23428749999999998
vt 0.4105125 0.23428749999999998
vt 0.42155 0.3125
vt 0.399475 0.3125
vt 0.375 0.3125
vt 0.3872375 0.23428749999999998
vt 0.375 0.23428749999999998
vt 0.399475 0.23428749999999998
vt 0.3872375 0.3125
vt 0.3860375 0.3125
vt 0.375 0.23428749999999998
vt 0.42155 0.23428749999999998
vt 0.4105125 0.3125
vt 0.38375625 0.3125
vt 0.375 0.23428749999999998
vt 0.4390625 0.23428749999999998
vt 0.43030625 0.3125
vt 0.380625 0.3125
vt 0.375 0.23428749999999998
vt 0.4503125 0.23428749999999998
vt 0.4446875 0.3125
vt 0.3769375 0.3125
vt 0.375 0.23428749999999998
vt 0.4541875 0.23428749999999998
vt 0.45225 0.3125
vt 0.375 0.3125
vt 0.3769375 0.23428749999999998
vt 0.45225 0.23428749999999998
vt 0.4541875 0.3125
vt 0.375 0.3125
vt 0.380625 0.23428749999999998
vt 0.4446875 0.23428749999999998
vt 0.4503125 0.3125
vt 0.375 0.3125
vt 0.38375625 0.23428749999999998
vt 0.43030625 0.23428749999999998
vt 0.4390625 0.3125
vt 0.375 0.3125
vt 0.3860375 0.23428749999999998
vt 0.4105125 0.23428749999999998
vt 0.42155 0.3125
vt 0.399475 0.3125
vt 0.375 0.3125
vt 0.3872375 0.23428749999999998
vt 0.375 0.23428749999999998
vt 0.399475 0.23428749999999998
vt 0.3872375 0.3125
vt 0.3860375 0.3125
vt 0.375 0.23428749999999998
vt 0.42155 0.23428749999999998
vt 0.4105125 0.3125
vt 0.38375625 0.3125
vt 0.375 0.23428749999999998
vt 0.4390625 0.23428749999999998
vt 0.43030625 0.3125
vt 0.380625 0.3125
vt 0.375 0.23428749999999998
vt 0.4503125 0.23428749999999998
vt 0.4446875 0.3125
vt 0.3769375 0.3125
vt 0.375 0.23428749999999998
vt 0.4541875 0.23428749999999998
vt 0.45225 0.3125
vt 0.375 0.3125
vt 0.3769375 0.23428749999999998
vt 0.45225 0.23428749999999998
vt 0.4541875 0.3125
vt 0.375 0.3125
vt 0.380625 0.23428749999999998
vt 0.4446875 0.23428749999999998
vt 0.4503125 0.3125
vt 0.375 0.3125
vt 0.38375625 0.23428749999999998
vt 0.43030625 0.23428749999999998
vt 0.4390625 0.3125
vt 0.375 0.3125
vt 0.3860375 0.23428749999999998
vt 0.4105125 0.23428749999999998
vt 0.42155 0.3125
vt 0.399475 0.3125
vt 0.375 0.3125
vt 0.3872375 0.23428749999999998
vt 0.375 0.23428749999999998
vt 0.399475 0.23428749999999998
vt 0.3872375 0.3125
vt 0.3860375 0.3125
vt 0.375 0.23428749999999998
vt 0.42155 0.23428749999999998
vt 0.4105125 0.3125
vt 0.38375625 0.3125
vt 0.375 0.23428749999999998
vt 0.4390625 0.23428749999999998
vt 0.43030625 0.3125
vt 0.380625 0.3125
vt 0.375 0.23428749999999998
vt 0.4503125 0.23428749999999998
vt 0.4446875 0.3125
vt 0.3769375 0.3125
vt 0.375 0.23428749999999998
vt 0.4541875 0.23428749999999998
vt 0.45225 0.3125
vt 0.375 0.3125
vt 0.3769375 0.23428749999999998
vt 0.45225 0.23428749999999998
vt 0.4541875 0.3125
vt 0.375 0.3125
vt 0.380625 0.23428749999999998
vt 0.4446875 0.23428749999999998
vt 0.4503125 0.3125
vt 0.375 0.3125
vt 0.38375625 0.23428749999999998
vt 0.43030625 0.23428749999999998
vt 0.4390625 0.3125
vt 0.375 0.3125
vt 0.3860375 0.23428749999999998
vt 0.4105125 0.23428749999999998
vt 0.42155 0.3125
vt 0.399475 0.3125
vt 0.375 0.3125
vt 0.3872375 0.23428749999999998
vt 0.375 0.23428749999999998
vt 0.399475 0.23428749999999998
vt 0.3872375 0.3125
vt 0.3860375 0.3125
vt 0.375 0.23428749999999998
vt 0.42155 0.23428749999999998
vt 0.4105125 0.3125
vt 0.38375625 0.3125
vt 0.375 0.23428749999999998
vt 0.4390625 0.23428749999999998
vt 0.43030625 0.3125
vt 0.380625 0.3125
vt 0.375 0.23428749999999998
vt 0.4503125 0.23428749999999998
vt 0.4446875 0.3125
vt 0.3769375 0.3125
vt 0.375 0.23428749999999998
vt 0.4541875 0.23428749999999998
vt 0.45225 0.3125
vt 0.375 0.3125
vt 0.3769375 0.23428749999999998
vt 0.45225 0.23428749999999998
vt 0.4541875 0.3125
vt 0.375 0.3125
vt 0.380625 0.23428749999999998
vt 0.4446875 0.23428749999999998
vt 0.4503125 0.3125
vt 0.375 0.3125
vt 0.38375625 0.23428749999999998
vt 0.43030625 0.23428749999999998
vt 0.4390625 0.3125
vt 0.375 0.3125
vt 0.3860375 0.23428749999999998
vt 0.4105125 0.23428749999999998
vt 0.42155 0.3125
vt 0.399475 0.3125
vt 0.375 0.3125
vt 0.3872375 0.23428749999999998
vt 0.375 0.23428749999999998
vt 0.399475 0.23428749999999998
vt 0.3872375 0.3125
vt 0.3860375 0.3125
vt 0.375 0.23428749999999998
vt 0.42155 0.23428749999999998
vt 0.4105125 0.3125
vt 0.38375625 0.3125
vt 0.375 0.23428749999999998
vt 0.4390625 0.23428749999999998
vt 0.43030625 0.3125
vt 0.380625 0.3125
vt 0.375 0.23428749999999998
vt 0.4503125 0.23428749999999998
vt 0.4446875 0.3125
vt 0.3769375 0.3125
vt 0.375 0.23428749999999998
vt 0.4541875 0.23428749999999998
vt 0.45225 0.3125
vt 0.375 0.3125
vt 0.3769375 0.23428749999999998
vt 0.45225 0.23428749999999998
vt 0.4541875 0.3125
vt 0.375 0.3125
vt 0.380625 0.23428749999999998
vt 0.4446875 0.23428749999999998
vt 0.4503125 0.3125
vt 0.375 0.3125
vt 0.38375625 0.23428749999999998
vt 0.43030625 0.23428749999999998
vt 0.4390625 0.3125
vt 0.375 0.3125
vt 0.3860375 0.23428749999999998
vt 0.4105125 0.23428749999999998
vt 0.42155 0.3125
vt 0.399475 0.3125
vt 0.375 0.3125
vt 0.3872375 0.23428749999999998
vt 0.375 0.23428749999999998
vt 0.399475 0.23428749999999998
vt 0.3872375 0.3125
vt 0.3860375 0.3125
vt 0.375 0.23428749999999998
vt 0.42155 0.23428749999999998
vt 0.4105125 0.3125
vt 0.38375625 0.3125
vt 0.375 0.23428749999999998
vt 0.4390625 0.23428749999999998
vt 0.43030625 0.3125
vt 0.380625 0.3125
vt 0.375 0.23428749999999998
vt 0.4503125 0.23428749999999998
vt 0.4446875 0.3125
vt 0.3769375 0.3125
vt 0.375 0.23428749999999998
vt 0.4541875 0.23428749999999998
vt 0.45225 0.3125
vt 0.375 0.3125
vt 0.3769375 0.23428749999999998
vt 0.45225 0.23428749999999998
vt 0.4541875 0.3125
vt 0.375 0.3125
vt 0.380625 0.23428749999999998
vt 0.4446875 0.23428749999999998
vt 0.4503125 0.3125
vt 0.375 0.3125
vt 0.38375625 0.23428749999999998
vt 0.43030625 0.23428749999999998
vt 0.4390625 0.3125
vt 0.375 0.3125
vt 0.3860375 0.23428749999999998
vt 0.4105125 0.23428749999999998
vt 0.42155 0.3125
vt 0.399475 0.3125
vt 0.375 0.3125
vt 0.3872375 0.23428749999999998
vt 0.375 0.23428749999999998
vt 0.399475 0.23428749999999998
vt 0.3872375 0.3125
vt 0.3860375 0.3125
vt 0.375 0.23428749999999998
vt 0.42155 0.23428749999999998
vt 0.4105125 0.3125
vt 0.38375625 0.3125
vt 0.375 0.23428749999999998
vt 0.4390625 0.23428749999999998
vt 0.43030625 0.3125
vt 0.380625 0.3125
vt 0.375 0.23428749999999998
vt 0.4503125 0.23428749999999998
vt 0.4446875 0.3125
vt 0.3769375 0.3125
vt 0.375 0.23428749999999998
vt 0.4541875 0.23428749999999998
vt 0.45225 0.3125
vt 0.375 0.3125
vt 0.3769375 0.23428749999999998
vt 0.45225 0.23428749999999998
vt 0.4541875 0.3125
vt 0.375 0.3125
vt 0.380625 0.23428749999999998
vt 0.4446875 0.23428749999999998
vt 0.4503125 0.3125
vt 0.375 0.3125
vt 0.38375625 0.23428749999999998
vt 0.43030625 0.23428749999999998
vt 0.4390625 0.3125
vt 0.375 0.3125
vt 0.3860375 0.23428749999999998
vt 0.4105125 0.23428749999999998
vt 0.42155 0.3125
vt 0.399475 0.3125
vt 0.375 0.3125
vt 0.3872375 0.23428749999999998
vt 0.375 0.23428749999999998
vt 0.399475 0.23428749999999998
vt 0.3872375 0.3125
vt 0.3860375 0.3125
vt 0.375 0.23428749999999998
vt 0.42155 0.23428749999999998
vt 0.4105125 0.3125
vt 0.38375625 0.3125
vt 0.375 0.23428749999999998
vt 0.4390625 0.23428749999999998
vt 0.43030625 0.3125
vt 0.380625 0.3125
vt 0.375 0.23428749999999998
vt 0.4503125 0.23428749999999998
vt 0.4446875 0.3125
vt 0.3769375 0.3125
vt 0.375 0.23428749999999998
vt 0.4541875 0.23428749999999998
vt 0.45225 0.3125
vt 0.375 0.3125
vt 0.3769375 0.23428749999999998
vt 0.45225 0.23428749999999998
vt 0.4541875 0.3125
vt 0.375 0.3125
vt 0.380625 0.23428749999999998
vt 0.4446875 0.23428749999999998
vt 0.4503125 0.3125
vt 0.375 0.3125
vt 0.38375625 0.23428749999999998
vt 0.43030625 0.23428749999999998
vt 0.4390625 0.3125
vt 0.375 0.3125
vt 0.3860375 0.23428749999999998
vt 0.4105125 0.23428749999999998
vt 0.42155 0.3125
vt 0.399475 0.3125
vt 0.375 0.3125
vt 0.3872375 0.23428749999999998
vt 0.375 0.23428749999999998
vt 0.399475 0.23428749999999998
vt 0.3872375 0.3125
vt 0.3860375 0.3125
vt 0.375 0.23428749999999998
vt 0.42155 0.23428749999999998
vt 0.4105125 0.3125
vt 0.38375625 0.3125
vt 0.375 0.23428749999999998
vt 0.4390625 0.23428749999999998
vt 0.43030625 0.3125
vt 0.380625 0.3125
vt 0.375 0.23428749999999998
vt 0.4503125 0.23428749999999998
vt 0.4446875 0.3125
vt 0.3769375 0.3125
vt 0.375 0.23428749999999998
vt 0.4541875 0.23428749999999998
vt 0.45225 0.3125
vt 0.375 0.3125
vt 0.3769375 0.23428749999999998
vt 0.45225 0.23428749999999998
vt 0.4541875 0.3125
vt 0.375 0.3125
vt 0.380625 0.23428749999999998
vt 0.4446875 0.23428749999999998
vt 0.4503125 0.3125
vt 0.375 0.3125
vt 0.38375625 0.23428749999999998
vt 0.43030625 0.23428749999999998
vt 0.4390625 0.3125
vt 0.375 0.3125
vt 0.3860375 0.23428749999999998
vt 0.4105125 0.23428749999999998
vt 0.42155 0.3125
vt 0.399475 0.3125
vt 0.375 0.3125
vt 0.3872375 0.23428749999999998
vt 0.375 0.23428749999999998
vt 0.399475 0.23428749999999998
vt 0.3872375 0.3125
vt 0.3860375 0.3125
vt 0.375 0.23428749999999998
vt 0.42155 0.23428749999999998
vt 0.4105125 0.3125
vt 0.38375625 0.3125
vt 0.375 0.23428749999999998
vt 0.4390625 0.23428749999999998
vt 0.43030625 0.3125
vt 0.380625 0.3125
vt 0.375 0.23428749999999998
vt 0.4503125 0.23428749999999998
vt 0.4446875 0.3125
vt 0.3769375 0.3125
vt 0.375 0.23428749999999998
vt 0.4541875 0.23428749999999998
vt 0.45225 0.3125
vt 0.375 0.3125
vt 0.3769375 0.23428749999999998
vt 0.45225 0.23428749999999998
vt 0.4541875 0.3125
vt 0.375 0.3125
vt 0.380625 0.23428749999999998
vt 0.4446875 0.23428749999999998
vt 0.4503125 0.3125
vt 0.375 0.3125
vt 0.38375625 0.23428749999999998
vt 0.43030625 0.23428749999999998
vt 0.4390625 0.3125
vt 0.375 0.3125
vt 0.3860375 0.23428749999999998
vt 0.4105125 0.23428749999999998
vt 0.42155 0.3125
vt 0.399475 0.3125
vt 0.375 0.3125
vt 0.3872375 0.23428749999999998
vt 0.375 0.23428749999999998
vt 0.399475 0.23428749999999998
vt 0.3872375 0.3125
vt 0.3860375 0.3125
vt 0.375 0.23428749999999998
vt 0.42155 0.23428749999999998
vt 0.4105125 0.3125
vt 0.38375625 0.3125
vt 0.375 0.23428749999999998
vt 0.4390625 0.23428749999999998
vt 0.43030625 0.3125
vt 0.380625 0.3125
vt 0.375 0.23428749999999998
vt 0.4503125 0.23428749999999998
vt 0.4446875 0.3125
vt 0.3769375 0.3125
vt 0.375 0.23428749999999998
vt 0.4541875 0.23428749999999998
vt 0.45225 0.3125
vt 0.375 0.3125
vt 0.3769375 0.23428749999999998
vt 0.45225 0.23428749999999998
vt 0.4541875 0.3125
vt 0.375 0.3125
vt 0.380625 0.23428749999999998
vt 0.4446875 0.23428749999999998
vt 0.4503125 0.3125
vt 0.375 0.3125
vt 0.38375625 0.23428749999999998
vt 0.43030625 0.23428749999999998
vt 0.4390625 0.3125
vt 0.375 0.3125
vt 0.3860375 0.23428749999999998
vt 0.4105125 0.23428749999999998
vt 0.42155 0.3125
vt 0.399475 0.3125
vt 0.375 0.3125
vt 0.3872375 0.23428749999999998
vt 0.375 0.23428749999999998
vt 0.399475 0.23428749999999998
vt 0.3872375 0.3125
vt 0.3860375 0.3125
vt 0.375 0.23428749999999998
vt 0.42155 0.23428749999999998
vt 0.4105125 0.3125
vt 0.38375625 0.3125
vt 0.375 0.23428749999999998
vt 0.4390625 0.23428749999999998
vt 0.43030625 0.3125
vt 0.380625 0.3125
vt 0.375 0.23428749999999998
vt 0.4503125 0.23428749999999998
vt 0.4446875 0.3125
vt 0.3769375 0.3125
vt 0.375 0.23428749999999998
vt 0.4541875 0.23428749999999998
vt 0.45225 0.3125
vt 0.375 0.3125
vt 0.3769375 0.23428749999999998
vt 0.45225 0.23428749999999998
vt 0.4541875 0.3125
vt 0.375 0.3125
vt 0.380625 0.23428749999999998
vt 0.4446875 0.23428749999999998
vt 0.4503125 0.3125
vt 0.375 0.3125
vt 0.38375625 0.23428749999999998
vt 0.43030625 0.23428749999999998
vt 0.4390625 0.3125
vt 0.375 0.3125
vt 0.3860375 0.23428749999999998
vt 0.4105125 0.23428749999999998
vt 0.42155 0.3125
vt 0.399475 0.3125
vt 0.375 0.3125
vt 0.3872375 0.23428749999999998
vt 0.375 0.23428749999999998
vt 0.399475 0.23428749999999998
vt 0.3872375 0.3125
vt 0.3860375 0.3125
vt 0.375 0.23428749999999998
vt 0.42155 0.23428749999999998
vt 0.4105125 0.3125
vt 0.38375625 0.3125
vt 0.375 0.23428749999999998
vt 0.4390625 0.23428749999999998
vt 0.43030625 0.3125
vt 0.380625 0.3125
vt 0.375 0.23428749999999998
vt 0.4503125 0.23428749999999998
vt 0.4446875 0.3125
vt 0.3769375 0.3125
vt 0.375 0.23428749999999998
vt 0.4541875 0.23428749999999998
vt 0.45225 0.3125
vt 0.375 0.3125
vt 0.3769375 0.23428749999999998
vt 0.45225 0.23428749999999998
vt 0.4541875 0.3125
vt 0.375 0.3125
vt 0.380625 0.23428749999999998
vt 0.4446875 0.23428749999999998
vt 0.4503125 0.3125
vt 0.375 0.3125
vt 0.38375625 0.23428749999999998
vt 0.43030625 0.23428749999999998
vt 0.4390625 0.3125
vt 0.375 0.3125
vt 0.3860375 0.23428749999999998
vt 0.4105125 0.23428749999999998
vt 0.42155 0.3125
vt 0.399475 0.3125
vt 0.375 0.3125
vt 0.3872375 0.23428749999999998
vt 0.375 0.23428749999999998
vt 0.399475 0.23428749999999998
vt 0.3872375 0.3125
vt 0.3860375 0.3125
vt 0.375 0.23428749999999998
vt 0.42155 0.23428749999999998
vt 0.4105125 0.3125
vt 0.38375625 0.3125
vt 0.375 0.23428749999999998
vt 0.4390625 0.23428749999999998
vt 0.43030625 0.3125
vt 0.380625 0.3125
vt 0.375 0.23428749999999998
vt 0.4503125 0.23428749999999998
vt 0.4446875 0.3125
vt 0.3769375 0.3125
vt 0.375 0.23428749999999998
vt 0.4541875 0.23428749999999998
vt 0.45225 0.3125
vt 0.375 0.3125
vt 0.3769375 0.23428749999999998
vt 0.45225 0.23428749999999998
vt 0.4541875 0.3125
vt 0.375 0.3125
vt 0.380625 0.23428749999999998
vt 0.4446875 0.23428749999999998
vt 0.4503125 0.3125
vt 0.375 0.3125
vt 0.38375625 0.23428749999999998
vt 0.43030625 0.23428749999999998
vt 0.4390625 0.3125
vt 0.375 0.3125
vt 0.3860375 0.23428749999999998
vt 0.4105125 0.23428749999999998
vt 0.42155 0.3125
vt 0.399475 0.3125
vt 0.375 0.3125
vt 0.3872375 0.23428749999999998
vt 0.375 0.23428749999999998
vt 0.399475 0.23428749999999998
vt 0.3872375 0.3125
vt 0.3860375 0.3125
vt 0.375 0.23428749999999998
vt 0.42155 0.23428749999999998
vt 0.4105125 0.3125
vt 0.38375625 0.3125
vt 0.375 0.23428749999999998
vt 0.4390625 0.23428749999999998
vt 0.43030625 0.3125
vt 0.380625 0.3125
vt 0.375 0.23428749999999998
vt 0.4503125 0.23428749999999998
vt 0.4446875 0.3125
vt 0.3769375 0.3125
vt 0.375 0.23428749999999998
vt 0.4541875 0.23428749999999998
vt 0.45225 0.3125
vt 0.375 0.3125
vt 0.3769375 0.23428749999999998
vt 0.45225 0.23428749999999998
vt 0.4541875 0.3125
vt 0.375 0.3125
vt 0.380625 0.23428749999999998
vt 0.4446875 0.23428749999999998
vt 0.4503125 0.3125
vt 0.375 0.3125
vt 0.38375625 0.23428749999999998
vt 0.43030625 0.23428749999999998
vt 0.4390625 0.3125
vt 0.375 0.3125
vt 0.3860375 0.23428749999999998
vt 0.4105125 0.23428749999999998
vt 0.42155 0.3125
vt 0.399475 0.3125
vt 0.375 0.3125
vt 0.3872375 0.23428749999999998
vt 0.375 0.23428749999999998
vt 0.399475 0.23428749999999998
vt 0.3872375 0.3125
vt 0.3860375 0.3125
vt 0.375 0.23428749999999998
vt 0.42155 0.23428749999999998
vt 0.4105125 0.3125
vt 0.38375625 0.3125
vt 0.375 0.23428749999999998
vt 0.4390625 0.23428749999999998
vt 0.43030625 0.3125
vt 0.380625 0.3125
vt 0.375 0.23428749999999998
vt 0.4503125 0.23428749999999998
vt 0.4446875 0.3125
vt 0.3769375 0.3125
vt 0.375 0.23428749999999998
vt 0.4541875 0.23428749999999998
vt 0.45225 0.3125
vt 0.375 0.3125
vt 0.3769375 0.23428749999999998
vt 0.45225 0.23428749999999998
vt 0.4541875 0.3125
vt 0.375 0.3125
vt 0.380625 0.23428749999999998
vt 0.4446875 0.23428749999999998
vt 0.4503125 0.3125
vt 0.375 0.3125
vt 0.38375625 0.23428749999999998
vt 0.43030625 0.23428749999999998
vt 0.4390625 0.3125
vt 0.375 0.3125
vt 0.3860375 0.23428749999999998
vt 0.4105125 0.23428749999999998
vt 0.42155 0.3125
vt 0.399475 0.3125
vt 0.375 0.3125
vt 0.3872375 0.23428749999999998
vt 0.375 0.23428749999999998
vt 0.399475 0.23428749999999998
vt 0.3872375 0.3125
vt 0.3860375 0.3125
vt 0.375 0.23428749999999998
vt 0.42155 0.23428749999999998
vt 0.4105125 0.3125
vt 0.38375625 0.3125
vt 0.375 0.23428749999999998
vt 0.4390625 0.23428749999999998
vt 0.43030625 0.3125
vt 0.380625 0.3125
vt 0.375 0.23428749999999998
vt 0.4503125 0.23428749999999998
vt 0.4446875 0.3125
vt 0.3769375 0.3125
vt 0.375 0.23428749999999998
vt 0.4541875 0.23428749999999998
vt 0.45225 0.3125
vt 0.375 0.3125
vt 0.3769375 0.23428749999999998
vt 0.45225 0.23428749999999998
vt 0.4541875 0.3125
vt 0.375 0.3125
vt 0.380625 0.23428749999999998
vt 0.4446875 0.23428749999999998
vt 0.4503125 0.3125
vt 0.375 0.3125
vt 0.38375625 0.23428749999999998
vt 0.43030625 0.23428749999999998
vt 0.4390625 0.3125
vt 0.375 0.3125
vt 0.3860375 0.23428749999999998
vt 0.4105125 0.23428749999999998
vt 0.42155 0.3125
vt 0.399475 0.3125
vt 0.375 0.3125
vt 0.3872375 0.23428749999999998
vn 0.0483411304712736 0.9876888108927863 0.1487748229437808
vn 0.14029310253540686 0.8910053131240782 0.4317723675336964
vn 0.21850752497123804 0.7071069239193166 0.6724985202038035
vn 0.2753398204849899 0.45399287105251906 0.8473951004630512
vn 0.3052142115616096 0.156431848403577 0.939347306306813
vn 0.30521708777916057 -0.15643177449531329 0.9393463840649283
vn 0.2753351775784828 -0.45399318053660337 0.8473964432389863
vn 0.2185105170728679 -0.7071066810231235 0.6724978034023684
vn 0.1402948925177099 -0.891005197270589 0.43177202499727013
vn 0.0483411304712736 -0.9876888108927863 0.1487748229437808
vn 0.09194616503747136 0.9876888547958222 0.12655682062622808
vn 0.26684864435678957 0.8910054944253065 0.3672887282627375
vn 0.4156265103500881 0.7071082888384038 0.5720598497974079
vn 0.5237156658579185 0.45398910471496773 0.7208438070311065
vn 0.5805515256091334 0.15643517948828894 0.7990544166271623
vn 0.5805427334190327 -0.1564354446712288 0.7990607525869813
vn 0.5237216286157147 -0.45398864345270573 0.7208397653681959
vn 0.41562361380075025 -0.7071085569426653 0.5720616228603927
vn 0.2668445467248321 -0.8910057917483737 0.3672909840359176
vn 0.09194616503747134 -0.9876888547958222 0.12655682062622808
vn 0.12655682062622783 0.9876888547958225 0.09194616503747166
vn 0.36728977493160386 0.8910048352218144 0.2668494047998593
vn 0.5720610023652722 0.7071068641885487 0.41562734774107113
vn 0.7208416410548997 0.45399435915421393 0.5237140922081761
vn 0.7990557372562668 0.15642487267274818 0.5805524851097947
vn 0.7990621411850881 -0.1564246074797674 0.58054374227917
vn 0.720837219120435 -0.45399482042854905 0.5237197786553108
vn 0.5720632092423258 -0.7071065960768473 0.41562476636502926
vn 0.36729297494023155 -0.8910045378643884 0.2668459931582677
vn 0.1265568206262278 -0.9876888547958225 0.09194616503747166
vn 0.14877482294378053 0.9876888108927863 0.04834113047127399
vn 0.43177188812200723 0.8910055699691598 0.14029294676315665
vn 0.6724972926873137 0.7071082146033824 0.21850712612784656
vn 0.8473968088896449 0.45398934552543424 0.2753403755954348
vn 0.9393468736030269 0.15643472100555325 0.3052140709668114
vn 0.9393459290940817 -0.15643479492521162 0.30521693994777527
vn 0.847398451609364 -0.4539890360496721 0.2753358301361117
vn 0.6724961138736198 -0.7071084574969431 0.21850996810482878
vn 0.431771113114542 -0.8910056858129043 0.1402945962213282
vn 0.14877482294378055 -0.9876888108927864 0.048341130471274
vn 0.15643114814209008 0.9876888659344842 0
vn 0.4539926927622842 0.8910054067840724 0
vn 0.7071067811865476 0.7071067811865476 0
vn 0.8910054067840727 0.4539926927622836 0
vn 0.9876888659344841 0.15643114814209033 0
vn 0.9876888659344841 -0.15643114814209028 0
vn 0.891005406784073 -0.453992692762283 0
vn 0.7071067811865469 -0.7071067811865482 0
vn 0.4539926927622844 -0.8910054067840725 0
vn 0.15643114814209008 -0.9876888659344842 0
vn 0.1487748229437805 0.9876888108927863 -0.0483411304712742
vn 0.43177236753369697 0.8910053131240779 -0.14029310253540705
vn 0.6724985202038035 0.7071069239193166 -0.21850752497123804
vn 0.8473951004630512 0.45399287105251906 -0.2753398204849899
vn 0.939347306306813 0.156431848403577 -0.30521421156160955
vn 0.9393463840649282 -0.15643177449531329 -0.3052170877791605
vn 0.8473964432389864 -0.4539931805366034 -0.2753351775784828
vn 0.6724978034023684 -0.7071066810231236 -0.21851051707286792
vn 0.4317720249972702 -0.8910051972705885 -0.14029489251771196
vn 0.1487748229437805 -0.9876888108927863 -0.0483411304712742
vn 0.12655682062622808 0.9876888547958222 -0.09194616503747136
vn 0.36728872826273723 0.8910054944253065 -0.2668486443567901
vn 0.5720598497974082 0.7071082888384038 -0.4156265103500874
vn 0.7208438070311065 0.45398910471496773 -0.5237156658579185
vn 0.7990544166271618 0.15643517948828894 -0.580551525609134
vn 0.7990607525869813 -0.1564354446712288 -0.5805427334190327
vn 0.7208397653681964 -0.4539886434527057 -0.5237216286157138
vn 0.5720616228603923 -0.7071085569426653 -0.41562361380075125
vn 0.3672909840359176 -0.8910057917483737 -0.2668445467248321
vn 0.12655682062622808 -0.9876888547958222 -0.09194616503747134
vn 0.09194616503747134 0.9876888547958222 -0.12655682062622808
vn 0.26684940479985964 0.8910048352218142 -0.3672897749316042
vn 0.41562734774106913 0.7071068641885497 -0.5720610023652726
vn 0.5237140922081771 0.45399435915421305 -0.7208416410548993
vn 0.5805524851097967 0.1564248726727471 -0.7990557372562656
vn 0.580543742279171 -0.1564246074797663 -0.7990621411850873
vn 0.5237197786553093 -0.453994820428548 -0.7208372191204366
vn 0.41562476636502876 -0.7071065960768486 -0.572063209242325
vn 0.26684599315826696 -0.891004537864388 -0.3672929749402327
vn 0.09194616503747136 -0.9876888547958222 -0.12655682062622808
vn 0.0483411304712742 0.9876888108927863 -0.1487748229437805
vn 0.14029294676315873 0.8910055699691596 -0.4317718881220067
vn 0.21850712612784814 0.7071082146033829 -0.6724972926873124
vn 0.27534037559543373 0.45398934552543563 -0.8473968088896443
vn 0.30521407096681014 0.1564347210055532 -0.9393468736030273
vn 0.3052169399477743 -0.15643479492521156 -0.9393459290940818
vn 0.2753358301361138 -0.4539890360496738 -0.8473984516093627
vn 0.2185099681048317 -0.7071084574969437 -0.6724961138736182
vn 0.14029459622132867 -0.8910056858129042 -0.43177111311454214
vn 0.0483411304712742 -0.9876888108927863 -0.1487748229437805
vn 0 0.9876888659344842 -0.15643114814209008
vn 0 0.8910054067840728 -0.4539926927622837
vn 0 0.7071067811865476 -0.7071067811865476
vn 0 0.4539926927622825 -0.8910054067840733
vn 0 0.15643114814209028 -0.9876888659344841
vn 0 -0.1564311481420903 -0.9876888659344841
vn 0 -0.45399269276228194 -0.8910054067840735
vn 0 -0.7071067811865482 -0.7071067811865468
vn 0 -0.8910054067840727 -0.4539926927622837
vn 0 -0.9876888659344842 -0.15643114814209008
vn -0.0483411304712742 0.9876888108927863 -0.1487748229437805
vn -0.14029310253540891 0.891005313124078 -0.43177236753369613
vn -0.2185075249712392 0.7071069239193166 -0.6724985202038033
vn -0.27533982048498884 0.453992871052518 -0.847395100463052
vn -0.30521421156160833 0.15643184840357705 -0.9393473063068134
vn -0.30521708777915924 -0.15643177449531334 -0.9393463840649287
vn -0.2753351775784843 -0.4539931805366022 -0.8473964432389866
vn -0.2185105170728711 -0.7071066810231234 -0.6724978034023676
vn -0.14029489251771185 -0.8910051972705889 -0.4317720249972698
vn -0.0483411304712742 -0.9876888108927863 -0.1487748229437805
vn -0.09194616503747136 0.9876888547958222 -0.12655682062622808
vn -0.26684864435679023 0.8910054944253061 -0.36728872826273756
vn -0.4156265103500861 0.7071082888384045 -0.5720598497974082
vn -0.5237156658579192 0.45398910471496856 -0.7208438070311056
vn -0.5805515256091359 0.15643517948828892 -0.7990544166271605
vn -0.5805427334190337 -0.15643544467122877 -0.7990607525869805
vn -0.5237216286157125 -0.4539886434527067 -0.7208397653681967
vn -0.4156236138007508 -0.7071085569426658 -0.5720616228603917
vn -0.26684454672483254 -0.8910057917483735 -0.3672909840359179
vn -0.09194616503747134 -0.9876888547958222 -0.12655682062622808
vn -0.12655682062622808 0.9876888547958222 -0.09194616503747134
vn -0.36728977493160403 0.8910048352218141 -0.2668494047998603
vn -0.5720610023652725 0.7071068641885504 -0.415627347741068
vn -0.7208416410548998 0.4539943591542123 -0.5237140922081772
vn -0.7990557372562652 0.15642487267274632 -0.5805524851097975
vn -0.7990621411850874 -0.1564246074797655 -0.5805437422791712
vn -0.7208372191204375 -0.4539948204285474 -0.5237197786553088
vn -0.5720632092423236 -0.7071065960768494 -0.41562476636502893
vn -0.36729297494023305 -0.8910045378643878 -0.2668459931582671
vn -0.12655682062622808 -0.9876888547958222 -0.09194616503747136
vn -0.1487748229437805 0.9876888108927863 -0.0483411304712742
vn -0.43177188812200673 0.8910055699691597 -0.14029294676315876
vn -0.6724972926873124 0.7071082146033829 -0.21850712612784814
vn -0.8473968088896443 0.45398934552543563 -0.27534037559543373
vn -0.9393468736030273 0.1564347210055532 -0.30521407096681014
vn -0.9393459290940818 -0.15643479492521156 -0.3052169399477743
vn -0.8473984516093627 -0.4539890360496738 -0.2753358301361138
vn -0.6724961138736182 -0.7071084574969437 -0.2185099681048317
vn -0.43177111311454214 -0.8910056858129042 -0.14029459622132867
vn -0.1487748229437805 -0.9876888108927863 -0.0483411304712742
vn -0.15643114814209008 0.9876888659344842 0
vn -0.4539926927622837 0.8910054067840728 0
vn -0.7071067811865476 0.7071067811865476 0
vn -0.8910054067840733 0.4539926927622825 0
vn -0.9876888659344841 0.15643114814209028 0
vn -0.9876888659344841 -0.1564311481420903 0
vn -0.8910054067840735 -0.45399269276228194 0
vn -0.7071067811865468 -0.7071067811865482 0
vn -0.4539926927622837 -0.8910054067840727 0
vn -0.15643114814209008 -0.9876888659344842 0
vn -0.14877482294378055 0.9876888108927864 0.048341130471274
vn -0.4317723675336961 0.8910053131240779 0.1402931025354089
vn -0.6724985202038036 0.7071069239193164 0.21850752497123851
vn -0.8473951004630521 0.453992871052518 0.2753398204849884
vn -0.9393473063068134 0.15643184840357746 0.3052142115616083
vn -0.9393463840649289 -0.1564317744953138 0.30521708777915885
vn -0.8473964432389867 -0.4539931805366023 0.2753351775784834
vn -0.672497803402368 -0.7071066810231231 0.21851051707287122
vn -0.4317720249972698 -0.8910051972705888 0.14029489251771118
vn -0.14877482294378053 -0.9876888108927863 0.04834113047127399
vn -0.1265568206262278 0.9876888547958225 0.09194616503747166
vn -0.3672887282627381 0.891005494425306 0.2668486443567899
vn -0.5720598497974072 0.7071082888384049 0.4156265103500872
vn -0.7208438070311058 0.4539891047149679 0.5237156658579193
vn -0.7990544166271609 0.15643517948828892 0.5805515256091351
vn -0.7990607525869805 -0.15643544467122877 0.5805427334190337
vn -0.7208397653681959 -0.45398864345270595 0.5237216286157143
vn -0.572061622860392 -0.7071085569426664 0.4156236138007498
vn -0.36729098403591764 -0.8910057917483734 0.2668445467248339
vn -0.12655682062622783 -0.9876888547958225 0.09194616503747166
vn -0.09194616503747134 0.9876888547958222 0.12655682062622808
vn -0.26684940479986 0.8910048352218144 0.36728977493160375
vn -0.41562734774106963 0.7071068641885494 0.5720610023652728
vn -0.5237140922081762 0.45399435915421327 0.7208416410549001
vn -0.5805524851097956 0.1564248726727474 0.7990557372562666
vn -0.58054374227917 -0.15642460747976658 0.799062141185088
vn -0.5237197786553095 -0.4539948204285483 0.7208372191204363
vn -0.41562476636502954 -0.7071065960768483 0.5720632092423245
vn -0.26684599315826696 -0.8910045378643882 0.3672929749402327
vn -0.09194616503747136 -0.9876888547958222 0.12655682062622808
vn -0.0483411304712736 0.9876888108927863 0.1487748229437808
vn -0.14029294676315662 0.8910055699691599 0.4317718881220071
vn -0.2185071261278473 0.7071082146033822 0.6724972926873136
vn -0.27534037559543506 0.4539893455254345 0.8473968088896442
vn -0.30521407096681147 0.15643472100555325 0.939346873603027
vn -0.30521693994777566 -0.1564347949252116 0.9393459290940813
vn -0.2753358301361125 -0.4539890360496725 0.8473984516093636
vn -0.2185099681048289 -0.7071084574969428 0.6724961138736201
vn -0.14029459622132695 -0.8910056858129042 0.43177111311454247
vn -0.0483411304712736 -0.9876888108927863 0.1487748229437808
vn 0 0.9876888659344842 0.1564311481420903
vn 0 0.8910054067840728 0.4539926927622837
vn 0 0.7071067811865476 0.7071067811865476
vn 0 0.45399269276228366 0.8910054067840728
vn 0 0.15643114814209028 0.9876888659344841
vn 0 -0.1564311481420903 0.9876888659344841
vn 0 -0.453992692762283 0.891005406784073
vn 0 -0.7071067811865482 0.7071067811865468
vn 0 -0.8910054067840727 0.4539926927622837
vn 0 -0.9876888659344842 0.1564311481420903
usemtl m_e92b2995-8e53-a83a-d159-5543ad7dcea0
f 1/1/1 2/2/1 3/3/1
f 1/4/2 4/5/2 5/6/2 2/7/2
f 4/8/3 6/9/3 7/10/3 5/11/3
f 6/12/4 8/13/4 9/14/4 7/15/4
f 8/16/5 10/17/5 11/18/5 9/19/5
f 10/20/6 12/21/6 13/22/6 11/23/6
f 12/24/7 14/25/7 15/26/7 13/27/7
f 14/28/8 16/29/8 17/30/8 15/31/8
f 16/32/9 18/33/9 19/34/9 17/35/9
f 19/36/10 18/37/10 20/38/10
f 2/39/11 21/40/11 3/41/11
f 2/42/12 5/43/12 22/44/12 21/45/12
f 5/46/13 7/47/13 23/48/13 22/49/13
f 7/50/14 9/51/14 24/52/14 23/53/14
f 9/54/15 11/55/15 25/56/15 24/57/15
f 11/58/16 13/59/16 26/60/16 25/61/16
f 13/62/17 15/63/17 27/64/17 26/65/17
f 15/66/18 17/67/18 28/68/18 27/69/18
f 17/70/19 19/71/19 29/72/19 28/73/19
f 29/74/20 19/75/20 20/76/20
f 21/77/21 30/78/21 3/79/21
f 21/80/22 22/81/22 31/82/22 30/83/22
f 22/84/23 23/85/23 32/86/23 31/87/23
f 23/88/24 24/89/24 33/90/24 32/91/24
f 24/92/25 25/93/25 34/94/25 33/95/25
f 25/96/26 26/97/26 35/98/26 34/99/26
f 26/100/27 27/101/27 36/102/27 35/103/27
f 27/104/28 28/105/28 37/106/28 36/107/28
f 28/108/29 29/109/29 38/110/29 37/111/29
f 38/112/30 29/113/30 20/114/30
f 30/115/31 39/116/31 3/117/31
f 30/118/32 31/119/32 40/120/32 39/121/32
f 31/122/33 32/123/33 41/124/33 40/125/33
f 32/126/34 33/127/34 42/128/34 41/129/34
f 33/130/35 34/131/35 43/132/35 42/133/35
f 34/134/36 35/135/36 44/136/36 43/137/36
f 35/138/37 36/139/37 45/140/37 44/141/37
f 36/142/38 37/143/38 46/144/38 45/145/38
f 37/146/39 38/147/39 47/148/39 46/149/39
f 47/150/40 38/151/40 20/152/40
f 39/153/41 48/154/41 3/155/41
f 39/156/42 40/157/42 49/158/42 48/159/42
f 40/160/43 41/161/43 50/162/43 49/163/43
f 41/164/44 42/165/44 51/166/44 50/167/44
f 42/168/45 43/169/45 52/170/45 51/171/45
f 43/172/46 44/173/46 53/174/46 52/175/46
f 44/176/47 45/177/47 54/178/47 53/179/47
f 45/180/48 46/181/48 55/182/48 54/183/48
f 46/184/49 47/185/49 56/186/49 55/187/49
f 56/188/50 47/189/50 20/190/50
f 48/191/51 57/192/51 3/193/51
f 48/194/52 49/195/52 58/196/52 57/197/52
f 49/198/53 50/199/53 59/200/53 58/201/53
f 50/202/54 51/203/54 60/204/54 59/205/54
f 51/206/55 52/207/55 61/208/55 60/209/55
f 52/210/56 53/211/56 62/212/56 61/213/56
f 53/214/57 54/215/57 63/216/57 62/217/57
f 54/218/58 55/219/58 64/220/58 63/221/58
f 55/222/59 56/223/59 65/224/59 64/225/59
f 65/226/60 56/227/60 20/228/60
f 57/229/61 66/230/61 3/231/61
f 57/232/62 58/233/62 67/234/62 66/235/62
f 58/236/63 59/237/63 68/238/63 67/239/63
f 59/240/64 60/241/64 69/242/64 68/243/64
f 60/244/65 61/245/65 70/246/65 69/247/65
f 61/248/66 62/249/66 71/250/66 70/251/66
f 62/252/67 63/253/67 72/254/67 71/255/67
f 63/256/68 64/257/68 73/258/68 72/259/68
f 64/260/69 65/261/69 74/262/69 73/263/69
f 74/264/70 65/265/70 20/266/70
f 66/267/71 75/268/71 3/269/71
f 66/270/72 67/271/72 76/272/72 75/273/72
f 67/274/73 68/275/73 77/276/73 76/277/73
f 68/278/74 69/279/74 78/280/74 77/281/74
f 69/282/75 70/283/75 79/284/75 78/285/75
f 70/286/76 71/287/76 80/288/76 79/289/76
f 71/290/77 72/291/77 81/292/77 80/293/77
f 72/294/78 73/295/78 82/296/78 81/297/78
f 73/298/79 74/299/79 83/300/79 82/301/79
f 83/302/80 74/303/80 20/304/80
f 75/305/81 84/306/81 3/307/81
f 75/308/82 76/309/82 85/310/82 84/311/82
f 76/312/83 77/313/83 86/314/83 85/315/83
f 77/316/84 78/317/84 87/318/84 86/319/84
f 78/320/85 79/321/85 88/322/85 87/323/85
f 79/324/86 80/325/86 89/326/86 88/327/86
f 80/328/87 81/329/87 90/330/87 89/331/87
f 81/332/88 82/333/88 91/334/88 90/335/88
f 82/336/89 83/337/89 92/338/89 91/339/89
f 92/340/90 83/341/90 20/342/90
f 84/343/91 93/344/91 3/345/91
f 84/346/92 85/347/92 94/348/92 93/349/92
f 85/350/93 86/351/93 95/352/93 94/353/93
f 86/354/94 87/355/94 96/356/94 95/357/94
f 87/358/95 88/359/95 97/360/95 96/361/95
f 88/362/96 89/363/96 98/364/96 97/365/96
f 89/366/97 90/367/97 99/368/97 98/369/97
f 90/370/98 91/371/98 100/372/98 99/373/98
f 91/374/99 92/375/99 101/376/99 100/377/99
f 101/378/100 92/379/100 20/380/100
f 93/381/101 102/382/101 3/383/101
f 93/384/102 94/385/102 103/386/102 102/387/102
f 94/388/103 95/389/103 104/390/103 103/391/103
f 95/392/104 96/393/104 105/394/104 104/395/104
f 96/396/105 97/397/105 106/398/105 105/399/105
f 97/400/106 98/401/106 107/402/106 106/403/106
f 98/404/107 99/405/107 108/406/107 107/407/107
f 99/408/108 100/409/108 109/410/108 108/411/108
f 100/412/109 101/413/109 110/414/109 109/415/109
f 110/416/110 101/417/110 20/418/110
f 102/419/111 111/420/111 3/421/111
f 102/422/112 103/423/112 112/424/112 111/425/112
f 103/426/113 104/427/113 113/428/113 112/429/113
f 104/430/114 105/431/114 114/432/114 113/433/114
f 105/434/115 106/435/115 115/436/115 114/437/115
f 106/438/116 107/439/116 116/440/116 115/441/116
f 107/442/117 108/443/117 117/444/117 116/445/117
f 108/446/118 109/447/118 118/448/118 117/449/118
f 109/450/119 110/451/119 119/452/119 118/453/119
f 119/454/120 110/455/120 20/456/120
f 111/457/121 120/458/121 3/459/121
f 111/460/122 112/461/122 121/462/122 120/463/122
f 112/464/123 113/465/123 122/466/123 121/467/123
f 113/468/124 114/469/124 123/470/124 122/471/124
f 114/472/125 115/473/125 124/474/125 123/475/125
f 115/476/126 116/477/126 125/478/126 124/479/126
f 116/480/127 117/481/127 126/482/127 125/483/127
f 117/484/128 118/485/128 127/486/128 126/487/128
f 118/488/129 119/489/129 128/490/129 127/491/129
f 128/492/130 119/493/130 20/494/130
f 120/495/131 129/496/131 3/497/131
f 120/498/132 121/499/132 130/500/132 129/501/132
f 121/502/133 122/503/133 131/504/133 130/505/133
f 122/506/134 123/507/134 132/508/134 131/509/134
f 123/510/135 124/511/135 133/512/135 132/513/135
f 124/514/136 125/515/136 134/516/136 133/517/136
f 125/518/137 126/519/137 135/520/137 134/521/137
f 126/522/138 127/523/138 136/524/138 135/525/138
f 127/526/139 128/527/139 137/528/139 136/529/139
f 137/530/140 128/531/140 20/532/140
f 129/533/141 138/534/141 3/535/141
f 129/536/142 130/537/142 139/538/142 138/539/142
f 130/540/143 131/541/143 140/542/143 139/543/143
f 131/544/144 132/545/144 141/546/144 140/547/144
f 132/548/145 133/549/145 142/550/145 141/551/145
f 133/552/146 134/553/146 143/554/146 142/555/146
f 134/556/147 135/557/147 144/558/147 143/559/147
f 135/560/148 136/561/148 145/562/148 144/563/148
f 136/564/149 137/565/149 146/566/149 145/567/149
f 146/568/150 137/569/150 20/570/150
f 138/571/151 147/572/151 3/573/151
f 138/574/152 139/575/152 148/576/152 147/577/152
f 139/578/153 140/579/153 149/580/153 148/581/153
f 140/582/154 141/583/154 150/584/154 149/585/154
f 141/586/155 142/587/155 151/588/155 150/589/155
f 142/590/156 143/591/156 152/592/156 151/593/156
f 143/594/157 144/595/157 153/596/157 152/597/157
f 144/598/158 145/599/158 154/600/158 153/601/158
f 145/602/159 146/603/159 155/604/159 154/605/159
f 155/606/160 146/607/160 20/608/160
f 147/609/161 156/610/161 3/611/161
f 147/612/162 148/613/162 157/614/162 156/615/162
f 148/616/163 149/617/163 158/618/163 157/619/163
f 149/620/164 150/621/164 159/622/164 158/623/164
f 150/624/165 151/625/165 160/626/165 159/627/165
f 151/628/166 152/629/166 161/630/166 160/631/166
f 152/632/167 153/633/167 162/634/167 161/635/167
f 153/636/168 154/637/168 163/638/168 162/639/168
f 154/640/169 155/641/169 164/642/169 163/643/169
f 164/644/170 155/645/170 20/646/170
f 156/647/171 165/648/171 3/649/171
f 156/650/172 157/651/172 166/652/172 165/653/172
f 157/654/173 158/655/173 167/656/173 166/657/173
f 158/658/174 159/659/174 168/660/174 167/661/174
f 159/662/175 160/663/175 169/664/175 168/665/175
f 160/666/176 161/667/176 170/668/176 169/669/176
f 161/670/177 162/671/177 171/672/177 170/673/177
f 162/674/178 163/675/178 172/676/178 171/677/178
f 163/678/179 164/679/179 173/680/179 172/681/179
f 173/682/180 164/683/180 20/684/180
f 165/685/181 174/686/181 3/687/181
f 165/688/182 166/689/182 175/690/182 174/691/182
f 166/692/183 167/693/183 176/694/183 175/695/183
f 167/696/184 168/697/184 177/698/184 176/699/184
f 168/700/185 169/701/185 178/702/185 177/703/185
f 169/704/186 170/705/186 179/706/186 178/707/186
f 170/708/187 171/709/187 180/710/187 179/711/187
f 171/712/188 172/713/188 181/714/188 180/715/188
f 172/716/189 173/717/189 182/718/189 181/719/189
f 182/720/190 173/721/190 20/722/190
f 174/723/191 1/724/191 3/725/191
f 174/726/192 175/727/192 4/728/192 1/729/192
f 175/730/193 176/731/193 6/732/193 4/733/193
f 176/734/194 177/735/194 8/736/194 6/737/194
f 177/738/195 178/739/195 10/740/195 8/741/195
f 178/742/196 179/743/196 12/744/196 10/745/196
f 179/746/197 180/747/197 14/748/197 12/749/197
f 180/750/198 181/751/198 16/752/198 14/753/198
f 181/754/199 182/755/199 18/756/199 16/757/199
f 18/758/200 182/759/200 20/760/200