# Made in Blockbench 5.1.5
mtllib dc_metrobus_wall_2b.mtl

o cube
v 0.5 1 0.03125
v 0.5 1 -0.03125
v 0.5 0.4375 0.03125
v 0.5 0.4375 -0.03125
v 0 1 -0.03125
v 0 1 0.03125
v 0 0.4375 -0.03125
v 0 0.4375 0.03125
vt 0.0234375 0.9765625
vt 0.9765625 0.9765625
vt 0.9765625 0.0234375
vt 0.0234375 0.0234375
vt 0.16796875 0.8359375
vt 0.17578125 0.8359375
vt 0.17578125 0.7109375
vt 0.16796875 0.7109375
vt 0.0234375 0.9765625
vt 0.9765625 0.9765625
vt 0.9765625 0.0234375
vt 0.0234375 0.0234375
vt 0.20703125 0.953125
vt 0.21484375 0.953125
vt 0.21484375 0.828125
vt 0.20703125 0.828125
vt 0.109375 0.86328125
vt 0.234375 0.86328125
vt 0.234375 0.85546875
vt 0.109375 0.85546875
vt 0.1953125 0.80078125
vt 0.3203125 0.80078125
vt 0.3203125 0.79296875
vt 0.1953125 0.79296875
vn 0 0 -1
vn 1 0 0
vn 0 0 1
vn -1 0 0
vn 0 1 0
vn 0 -1 0
usemtl m_02d2ae33-eed9-35cf-ff97-8a754b117635
f 4/4/1 7/3/1 5/2/1 2/1/1
f 3/8/2 4/7/2 2/6/2 1/5/2
f 8/12/3 3/11/3 1/10/3 6/9/3
f 7/16/4 8/15/4 6/14/4 5/13/4
f 6/20/5 1/19/5 2/18/5 5/17/5
f 7/24/6 4/23/6 3/22/6 8/21/6
o cylinder
v 0 0 0
v 0 1 0
v 0.018648034441842938 0 0.09375
v 0.018648034441842938 1 0.09375
v 0.05310510912661139 0 0.07947741234586626
v 0.05310510912661139 1 0.07947741234586626
v 0.07947741234586626 0 0.053105109126611406
v 0.07947741234586626 1 0.053105109126611406
v 0.09375 0 0.018648034441842945
v 0.09375 1 0.018648034441842945
v 0.09375 0 -0.01864803444184293
v 0.09375 1 -0.01864803444184293
v 0.07947741234586629 0 -0.05310510912661137
v 0.07947741234586629 1 -0.05310510912661137
v 0.05310510912661139 0 -0.07947741234586628
v 0.05310510912661139 1 -0.07947741234586628
v 0.01864803444184297 0 -0.09375
v 0.01864803444184297 1 -0.09375
v -0.018648034441842945 0 -0.09375
v -0.018648034441842945 1 -0.09375
v -0.05310510912661137 0 -0.07947741234586629
v -0.05310510912661137 1 -0.07947741234586629
v -0.07947741234586626 0 -0.05310510912661139
v -0.07947741234586626 1 -0.05310510912661139
v -0.09374999999999999 0 -0.018648034441842976
v -0.09374999999999999 1 -0.018648034441842976
v -0.09375 0 0.01864803444184294
v -0.09375 1 0.01864803444184294
v -0.07947741234586629 0 0.053105109126611365
v -0.07947741234586629 1 0.053105109126611365
v -0.05310510912661139 0 0.07947741234586626
v -0.05310510912661139 1 0.07947741234586626
v -0.01864803444184298 0 0.09374999999999999
v -0.01864803444184298 1 0.09374999999999999
vt 0.01194816239405569 0.9954275105344343
vt 0.011038848137930471 1
vt 0 0.9954275105344343
vt 1.1796119636642288e-16 0.875
vt 0.004662500000000118 0.875
vt 0.004662500000000118 1
vt 1.1796119636642288e-16 1
vt 0 0.9880516181796446
vt 0.004572405493990345 0.9889613545852195
vt 2.168404344971009e-18 1
vt 0.01194816239405569 0.9954281648604224
vt 0.011038881648575184 1
vt 0 0.9954281648604224
vt 1.1796119636642288e-16 0.875
vt 0.004662500000000118 0.875
vt 0.004662500000000118 1
vt 1.1796119636642288e-16 1
vt 0 0.9880518376059443
vt 0.004571835139577603 0.9889611183514249
vt 3.469446951953614e-18 1
vt 0.011948381820355425 0.9954275945060097
vt 0.011038645414780453 1
vt 0 0.9954275945060097
vt 1.1796119636642288e-16 0.875
vt 0.004662500000000118 0.875
vt 0.004662500000000118 1
vt 1.1796119636642288e-16 1
vt 5.204170427930421e-18 0.9880518376059443
vt 0.004572489465565672 0.9889611518620696
vt 0 1
vt 0.01171875 0.9953374999999999
vt 0.01171875 0.9999999999999999
vt 0 0.9976687499999999
vt 1.1796119636642288e-16 0.875
vt 0.004662500000000118 0.875
vt 0.004662500000000118 1
vt 1.1796119636642288e-16 1
vt 0.01171875 0.9953374999999999
vt 0.01171875 0.9999999999999999
vt 0 0.9976687499999999
vt 5.204170427930421e-18 0.9880518376059443
vt 0.004572489465565672 0.9889611518620696
vt 0 1
vt 1.1796119636642288e-16 0.875
vt 0.004662500000000118 0.875
vt 0.004662500000000118 1
vt 1.1796119636642288e-16 1
vt 0.011948381820355425 0.9954275945060097
vt 0.011038645414780453 1
vt 0 0.9954275945060097
vt 0 0.9880518376059443
vt 0.004571835139577603 0.9889611183514249
vt 3.469446951953614e-18 1
vt 1.1796119636642288e-16 0.875
vt 0.004662500000000118 0.875
vt 0.004662500000000118 1
vt 1.1796119636642288e-16 1
vt 0.01194816239405569 0.9954281648604224
vt 0.011038881648575184 1
vt 0 0.9954281648604224
vt 0 0.9880516181796446
vt 0.004572405493990345 0.9889613545852195
vt 2.168404344971009e-18 1
vt 1.1796119636642288e-16 0.875
vt 0.004662500000000118 0.875
vt 0.004662500000000118 1
vt 1.1796119636642288e-16 1
vt 0.01194816239405569 0.9954275105344343
vt 0.011038848137930471 1
vt 0 0.9954275105344343
vt 1.1796119636642288e-16 0.98828125
vt 0.004662500000000118 0.98828125
vt 0.002331250000000118 1
vt 1.1796119636642288e-16 0.875
vt 0.004662500000000118 0.875
vt 0.004662500000000118 1
vt 1.1796119636642288e-16 1
vt 0.004662500000000118 1
vt 1.1796119636642288e-16 1
vt 0.002331250000000118 0.98828125
vt 0 1
vt 0.0009093142561252213 0.9954275105344343
vt 0.01194816239405569 1
vt 1.1796119636642288e-16 0.875
vt 0.004662500000000118 0.875
vt 0.004662500000000118 1
vt 1.1796119636642288e-16 1
vt 0.004572405493990345 1
vt 0 0.999090263594425
vt 0.004572405493990343 0.9880516181796446
vt 0 1
vt 0.0009092807454805021 0.9954281648604224
vt 0.01194816239405569 1
vt 1.1796119636642288e-16 0.875
vt 0.004662500000000118 0.875
vt 0.004662500000000118 1
vt 1.1796119636642288e-16 1
vt 0.004571835139577601 1
vt 0 0.9990907192545195
vt 0.004571835139577603 0.9880518376059443
vt 0 1
vt 0.0009097364055749707 0.9954275945060097
vt 0.011948381820355423 1
vt 1.1796119636642288e-16 0.875
vt 0.004662500000000118 0.875
vt 0.004662500000000118 1
vt 1.1796119636642288e-16 1
vt 0.004572489465565667 1
vt 0 0.9990906857438748
vt 0.004572489465565665 0.9880518376059443
vt 0 0.9999999999999999
vt 0 0.9953374999999999
vt 0.01171875 0.9976687499999999
vt 1.1796119636642288e-16 0.875
vt 0.004662500000000118 0.875
vt 0.004662500000000118 1
vt 1.1796119636642288e-16 1
vt 0 0.9999999999999999
vt 0 0.9953374999999999
vt 0.01171875 0.9976687499999999
vt 0.004572489465565667 1
vt 0 0.9990906857438748
vt 0.004572489465565665 0.9880518376059443
vt 1.1796119636642288e-16 0.875
vt 0.004662500000000118 0.875
vt 0.004662500000000118 1
vt 1.1796119636642288e-16 1
vt 0 1
vt 0.0009097364055749707 0.9954275945060097
vt 0.011948381820355423 1
vt 0.004571835139577601 1
vt 0 0.9990907192545195
vt 0.004571835139577603 0.9880518376059443
vt 1.1796119636642288e-16 0.875
vt 0.004662500000000118 0.875
vt 0.004662500000000118 1
vt 1.1796119636642288e-16 1
vt 0 1
vt 0.0009092807454805021 0.9954281648604224
vt 0.01194816239405569 1
vt 0.004572405493990345 1
vt 0 0.999090263594425
vt 0.004572405493990343 0.9880516181796446
vt 1.1796119636642288e-16 0.875
vt 0.004662500000000118 0.875
vt 0.004662500000000118 1
vt 1.1796119636642288e-16 1
vt 0 1
vt 0.0009093142561252213 0.9954275105344343
vt 0.01194816239405569 1
vt 0.004662500000000118 1
vt 1.1796119636642288e-16 1
vt 0.002331250000000118 0.98828125
vt 1.1796119636642288e-16 0.875
vt 0.004662500000000118 0.875
vt 0.004662500000000118 1
vt 1.1796119636642288e-16 1
vt 1.1796119636642288e-16 0.98828125
vt 0.004662500000000118 0.98828125
vt 0.002331250000000118 1
vn 0 -1 0
vn 0.38268343236508984 0 0.9238795325112867
vn 0 1 0
vn 0 -1 0
vn 0.7071067811865474 0 0.7071067811865477
vn 0 1 0
vn 0 -1 0
vn 0.9238795325112867 0 0.3826834323650898
vn 0 1 0
vn 0 -1 0
vn 1 0 0
vn 0 1 0
vn 0 -1 0
vn 0.9238795325112868 0 -0.3826834323650893
vn 0 1 0
vn 0 -1 0
vn 0.7071067811865476 0 -0.7071067811865475
vn 0 1 0
vn 0 -1 0
vn 0.3826834323650899 0 -0.9238795325112868
vn 0 1 0
vn 0 -1 0
vn 0 0 -1
vn 0 1 0
vn 0 -1 0
vn -0.38268343236508945 0 -0.9238795325112868
vn 0 1 0
vn 0 -1 0
vn -0.7071067811865477 0 -0.7071067811865475
vn 0 1 0
vn 0 -1 0
vn -0.9238795325112868 0 -0.38268343236509
vn 0 1 0
vn 0 -1 0
vn -1 0 -3.720978704510301e-16
vn 0 1 0
vn 0 -1 0
vn -0.9238795325112868 0 0.38268343236508945
vn 0 1 0
vn 0 -1 0
vn -0.7071067811865476 0 0.7071067811865476
vn 0 1 0
vn 0 -1 0
vn -0.38268343236509 0 0.9238795325112868
vn 0 1 0
vn 0 -1 0
vn -3.720978704510301e-16 0 1
vn 0 1 0
usemtl m_4b82c872-8cba-39b3-1f0c-85ac4b95141a
f 13/25/7 11/26/7 9/27/7
f 11/28/8 13/29/8 14/30/8 12/31/8
f 12/32/9 14/33/9 10/34/9
f 15/35/10 13/36/10 9/37/10
f 13/38/11 15/39/11 16/40/11 14/41/11
f 14/42/12 16/43/12 10/44/12
f 17/45/13 15/46/13 9/47/13
f 15/48/14 17/49/14 18/50/14 16/51/14
f 16/52/15 18/53/15 10/54/15
f 19/55/16 17/56/16 9/57/16
f 17/58/17 19/59/17 20/60/17 18/61/17
f 18/62/18 20/63/18 10/64/18
f 21/65/19 19/66/19 9/67/19
f 19/68/20 21/69/20 22/70/20 20/71/20
f 20/72/21 22/73/21 10/74/21
f 23/75/22 21/76/22 9/77/22
f 21/78/23 23/79/23 24/80/23 22/81/23
f 22/82/24 24/83/24 10/84/24
f 25/85/25 23/86/25 9/87/25
f 23/88/26 25/89/26 26/90/26 24/91/26
f 24/92/27 26/93/27 10/94/27
f 27/95/28 25/96/28 9/97/28
f 25/98/29 27/99/29 28/100/29 26/101/29
f 26/102/30 28/103/30 10/104/30
f 29/105/31 27/106/31 9/107/31
f 27/108/32 29/109/32 30/110/32 28/111/32
f 28/112/33 30/113/33 10/114/33
f 31/115/34 29/116/34 9/117/34
f 29/118/35 31/119/35 32/120/35 30/121/35
f 30/122/36 32/123/36 10/124/36
f 33/125/37 31/126/37 9/127/37
f 31/128/38 33/129/38 34/130/38 32/131/38
f 32/132/39 34/133/39 10/134/39
f 35/135/40 33/136/40 9/137/40
f 33/138/41 35/139/41 36/140/41 34/141/41
f 34/142/42 36/143/42 10/144/42
f 37/145/43 35/146/43 9/147/43
f 35/148/44 37/149/44 38/150/44 36/151/44
f 36/152/45 38/153/45 10/154/45
f 39/155/46 37/156/46 9/157/46
f 37/158/47 39/159/47 40/160/47 38/161/47
f 38/162/48 40/163/48 10/164/48
f 41/165/49 39/166/49 9/167/49
f 39/168/50 41/169/50 42/170/50 40/171/50
f 40/172/51 42/173/51 10/174/51
f 11/175/52 41/176/52 9/177/52
f 41/178/53 11/179/53 12/180/53 42/181/53
f 42/182/54 12/183/54 10/184/54
o cylinder
v 0 0 0
v 0 0.0625 0
v 0.037296068883685876 0 0.1875
v 0.037296068883685876 0.0625 0.1875
v 0.10621021825322279 0 0.15895482469173253
v 0.10621021825322279 0.0625 0.15895482469173253
v 0.15895482469173253 0 0.10621021825322281
v 0.15895482469173253 0.0625 0.10621021825322281
v 0.1875 0 0.03729606888368589
v 0.1875 0.0625 0.03729606888368589
v 0.1875 0 -0.03729606888368586
v 0.1875 0.0625 -0.03729606888368586
v 0.15895482469173258 0 -0.10621021825322274
v 0.15895482469173258 0.0625 -0.10621021825322274
v 0.10621021825322279 0 -0.15895482469173255
v 0.10621021825322279 0.0625 -0.15895482469173255
v 0.03729606888368594 0 -0.1875
v 0.03729606888368594 0.0625 -0.1875
v -0.03729606888368589 0 -0.1875
v -0.03729606888368589 0.0625 -0.1875
v -0.10621021825322274 0 -0.15895482469173258
v -0.10621021825322274 0.0625 -0.15895482469173258
v -0.15895482469173253 0 -0.10621021825322279
v -0.15895482469173253 0.0625 -0.10621021825322279
v -0.18749999999999997 0 -0.03729606888368595
v -0.18749999999999997 0.0625 -0.03729606888368595
v -0.1875 0 0.03729606888368588
v -0.1875 0.0625 0.03729606888368588
v -0.15895482469173258 0 0.10621021825322273
v -0.15895482469173258 0.0625 0.10621021825322273
v -0.10621021825322279 0 0.15895482469173253
v -0.10621021825322279 0.0625 0.15895482469173253
v -0.03729606888368596 0 0.18749999999999997
v -0.03729606888368596 0.0625 0.18749999999999997
vt 0.02389697436729455 0.9908547724974333
vt 0.022077428334849117 1
vt 0 0.9908547724974333
vt 0 0.9921875
vt 0.0093234375 0.9921875
vt 0.0093234375 1
vt 0 1
vt 1.734723475976807e-18 0.976103388776772
vt 0.009145366477715737 0.9779222361662372
vt 0 1
vt 0.02389697436729455 0.9908552791278296
vt 0.022078031254648214 1
vt 0 0.9908552791278296
vt 0 0.9921875
vt 0.0093234375 0.9921875
vt 0.0093234375 1
vt 0 1
vt 1.5612511283791264e-17 0.9761030256327055
vt 0.009144720872170444 0.9779219687453518
vt 0 1
vt 0.0238966112232279 0.9908546335222843
vt 0.02207776383376283 1
vt 0 0.9908546335222843
vt 0 0.9921875
vt 0.0093234375 0.9921875
vt 0.0093234375 1
vt 0 1
vt 0 0.9761030256327055
vt 0.009145227502566723 0.9779225716651508
vt 1.3877787807814457e-17 1
vt 0.0234375 0.9906765625
vt 0.0234375 1
vt 0 0.99533828125
vt 0 0.9921875
vt 0.0093234375 0.9921875
vt 0.0093234375 1
vt 0 1
vt 0.0234375 0.9906765625
vt 0.0234375 1
vt 0 0.99533828125
vt 0 0.9761030256327055
vt 0.009145227502566723 0.9779225716651508
vt 1.3877787807814457e-17 1
vt 0 0.9921875
vt 0.0093234375 0.9921875
vt 0.0093234375 1
vt 0 1
vt 0.0238966112232279 0.9908546335222843
vt 0.02207776383376283 1
vt 0 0.9908546335222843
vt 1.5612511283791264e-17 0.9761030256327055
vt 0.009144720872170444 0.9779219687453518
vt 0 1
vt 0 0.9921875
vt 0.0093234375 0.9921875
vt 0.0093234375 1
vt 0 1
vt 0.02389697436729455 0.9908552791278296
vt 0.022078031254648214 1
vt 0 0.9908552791278296
vt 1.734723475976807e-18 0.976103388776772
vt 0.009145366477715737 0.9779222361662372
vt 0 1
vt 0 0.9921875
vt 0.0093234375 0.9921875
vt 0.0093234375 1
vt 0 1
vt 0.02389697436729455 0.9908547724974333
vt 0.022077428334849117 1
vt 0 0.9908547724974333
vt 0 0.9765625
vt 0.0093234375 0.9765625
vt 0.00466171875 1
vt 0 0.9921875
vt 0.0093234375 0.9921875
vt 0.0093234375 1
vt 0 1
vt 0.0093234375 1
vt 0 1
vt 0.00466171875 0.9765625
vt 0 1
vt 0.001819546032445423 0.9908547724974333
vt 0.02389697436729455 1
vt 0 0.9921875
vt 0.0093234375 0.9921875
vt 0.0093234375 1
vt 0 1
vt 0.009145366477715735 1
vt 0 0.998181152610535
vt 0.009145366477715737 0.976103388776772
vt 0 1
vt 0.001818943112646347 0.9908552791278296
vt 0.02389697436729455 1
vt 0 0.9921875
vt 0.0093234375 0.9921875
vt 0.0093234375 1
vt 0 1
vt 0.00914472087217043 1
vt 0 0.9981810568873537
vt 0.009144720872170432 0.9761030256327055
vt 0 1
vt 0.0018188473894650697 0.9908546335222843
vt 0.0238966112232279 1
vt 0 0.9921875
vt 0.0093234375 0.9921875
vt 0.0093234375 1
vt 0 1
vt 0.009145227502566721 1
vt 0 0.9981804539675546
vt 0.009145227502566721 0.9761030256327055
vt 0 1
vt 0 0.9906765625
vt 0.0234375 0.99533828125
vt 0 0.9921875
vt 0.0093234375 0.9921875
vt 0.0093234375 1
vt 0 1
vt 0 1
vt 0 0.9906765625
vt 0.0234375 0.99533828125
vt 0.009145227502566721 1
vt 0 0.9981804539675546
vt 0.009145227502566721 0.9761030256327055
vt 0 0.9921875
vt 0.0093234375 0.9921875
vt 0.0093234375 1
vt 0 1
vt 0 1
vt 0.0018188473894650697 0.9908546335222843
vt 0.0238966112232279 1
vt 0.00914472087217043 1
vt 0 0.9981810568873537
vt 0.009144720872170432 0.9761030256327055
vt 0 0.9921875
vt 0.0093234375 0.9921875
vt 0.0093234375 1
vt 0 1
vt 0 1
vt 0.001818943112646347 0.9908552791278296
vt 0.02389697436729455 1
vt 0.009145366477715735 1
vt 0 0.998181152610535
vt 0.009145366477715737 0.976103388776772
vt 0 0.9921875
vt 0.0093234375 0.9921875
vt 0.0093234375 1
vt 0 1
vt 0 1
vt 0.001819546032445423 0.9908547724974333
vt 0.02389697436729455 1
vt 0.0093234375 1
vt 0 1
vt 0.00466171875 0.9765625
vt 0 0.9921875
vt 0.0093234375 0.9921875
vt 0.0093234375 1
vt 0 1
vt 0 0.9765625
vt 0.0093234375 0.9765625
vt 0.00466171875 1
vn 0 -1 0
vn 0.38268343236508984 0 0.9238795325112867
vn 0 1 0
vn 0 -1 0
vn 0.7071067811865474 0 0.7071067811865477
vn 0 1 0
vn 0 -1 0
vn 0.9238795325112867 0 0.3826834323650898
vn 0 1 0
vn 0 -1 0
vn 1 0 0
vn 0 1 0
vn 0 -1 0
vn 0.9238795325112868 0 -0.3826834323650893
vn 0 1 0
vn 0 -1 0
vn 0.7071067811865476 0 -0.7071067811865475
vn 0 1 0
vn 0 -1 0
vn 0.3826834323650899 0 -0.9238795325112868
vn 0 1 0
vn 0 -1 0
vn 0 0 -1
vn 0 1 0
vn 0 -1 0
vn -0.38268343236508945 0 -0.9238795325112868
vn 0 1 0
vn 0 -1 0
vn -0.7071067811865477 0 -0.7071067811865475
vn 0 1 0
vn 0 -1 0
vn -0.9238795325112868 0 -0.38268343236509
vn 0 1 0
vn 0 -1 0
vn -1 0 -3.720978704510301e-16
vn 0 1 0
vn 0 -1 0
vn -0.9238795325112868 0 0.38268343236508945
vn 0 1 0
vn 0 -1 0
vn -0.7071067811865476 0 0.7071067811865476
vn 0 1 0
vn 0 -1 0
vn -0.38268343236509 0 0.9238795325112868
vn 0 1 0
vn 0 -1 0
vn -3.720978704510301e-16 0 1
vn 0 1 0
usemtl m_4b82c872-8cba-39b3-1f0c-85ac4b95141a
f 47/185/55 45/186/55 43/187/55
f 45/188/56 47/189/56 48/190/56 46/191/56
f 46/192/57 48/193/57 44/194/57
f 49/195/58 47/196/58 43/197/58
f 47/198/59 49/199/59 50/200/59 48/201/59
f 48/202/60 50/203/60 44/204/60
f 51/205/61 49/206/61 43/207/61
f 49/208/62 51/209/62 52/210/62 50/211/62
f 50/212/63 52/213/63 44/214/63
f 53/215/64 51/216/64 43/217/64
f 51/218/65 53/219/65 54/220/65 52/221/65
f 52/222/66 54/223/66 44/224/66
f 55/225/67 53/226/67 43/227/67
f 53/228/68 55/229/68 56/230/68 54/231/68
f 54/232/69 56/233/69 44/234/69
f 57/235/70 55/236/70 43/237/70
f 55/238/71 57/239/71 58/240/71 56/241/71
f 56/242/72 58/243/72 44/244/72
f 59/245/73 57/246/73 43/247/73
f 57/248/74 59/249/74 60/250/74 58/251/74
f 58/252/75 60/253/75 44/254/75
f 61/255/76 59/256/76 43/257/76
f 59/258/77 61/259/77 62/260/77 60/261/77
f 60/262/78 62/263/78 44/264/78
f 63/265/79 61/266/79 43/267/79
f 61/268/80 63/269/80 64/270/80 62/271/80
f 62/272/81 64/273/81 44/274/81
f 65/275/82 63/276/82 43/277/82
f 63/278/83 65/279/83 66/280/83 64/281/83
f 64/282/84 66/283/84 44/284/84
f 67/285/85 65/286/85 43/287/85
f 65/288/86 67/289/86 68/290/86 66/291/86
f 66/292/87 68/293/87 44/294/87
f 69/295/88 67/296/88 43/297/88
f 67/298/89 69/299/89 70/300/89 68/301/89
f 68/302/90 70/303/90 44/304/90
f 71/305/91 69/306/91 43/307/91
f 69/308/92 71/309/92 72/310/92 70/311/92
f 70/312/93 72/313/93 44/314/93
f 73/315/94 71/316/94 43/317/94
f 71/318/95 73/319/95 74/320/95 72/321/95
f 72/322/96 74/323/96 44/324/96
f 75/325/97 73/326/97 43/327/97
f 73/328/98 75/329/98 76/330/98 74/331/98
f 74/332/99 76/333/99 44/334/99
f 45/335/100 75/336/100 43/337/100
f 75/338/101 45/339/101 46/340/101 76/341/101
f 76/342/102 46/343/102 44/344/102
o cube
v 0.5 0.4375 0.03125
v 0.5 0.4375 -0.03125
v 0.5 0.3125 0.03125
v 0.5 0.3125 -0.03125
v 0 0.4375 -0.03125
v 0 0.4375 0.03125
v 0 0.3125 -0.03125
v 0 0.3125 0.03125
vt 0.0234375 0.9765625
vt 0.9765625 0.9765625
vt 0.9765625 0.0234375
vt 0.0234375 0.0234375
vt 0.16796875 0.8359375
vt 0.17578125 0.8359375
vt 0.17578125 0.7109375
vt 0.16796875 0.7109375
vt 0.0234375 0.9765625
vt 0.9765625 0.9765625
vt 0.9765625 0.0234375
vt 0.0234375 0.0234375
vt 0.20703125 0.953125
vt 0.21484375 0.953125
vt 0.21484375 0.828125
vt 0.20703125 0.828125
vt 0.109375 0.86328125
vt 0.234375 0.86328125
vt 0.234375 0.85546875
vt 0.109375 0.85546875
vt 0.1953125 0.80078125
vt 0.3203125 0.80078125
vt 0.3203125 0.79296875
vt 0.1953125 0.79296875
vn 0 0 -1
vn 1 0 0
vn 0 0 1
vn -1 0 0
vn 0 1 0
vn 0 -1 0
usemtl m_4b82c872-8cba-39b3-1f0c-85ac4b95141a
f 80/348/103 83/347/103 81/346/103 78/345/103
f 79/352/104 80/351/104 78/350/104 77/349/104
f 84/356/105 79/355/105 77/354/105 82/353/105
f 83/360/106 84/359/106 82/358/106 81/357/106
f 82/364/107 77/363/107 78/362/107 81/361/107
f 83/368/108 80/367/108 79/366/108 84/365/108