# Made in Blockbench 5.1.5
mtllib dc_metro_roof_k4.mtl

o cube
v 0.5 0 0.5
v 0.5 1 -0.5
v 0.5 0 -0.5
v -0.5 0 0.5
v -0.5 1 -0.5
v -0.5 0 -0.5
vt 0.125 1
vt 0 1
vt 0.125 0.875
vt 0.125 1
vt 0 1
vt 0 0.875
vt 0.125 0.875
vt 0.125 1
vt 0 1
vt 0 0.875
vt 0.125 0.875
vt 0.125 1
vt 0 1
vt 0 0.875
vt 0.125 0.875
vt 0.125 1
vt 0 1
vt 0 0.875
vn 1 0 0
vn -1 0 0
vn 0 0.7071067811865476 0.7071067811865476
vn 0 -1 0
vn 0 0 -1
usemtl m_4241e634-01ba-2682-7c83-45ef0cfe3f89
f 2/1/1 1/2/1 3/3/1
f 4/4/2 5/5/2 6/6/2
f 1/7/3 2/8/3 5/9/3 4/10/3
f 3/11/4 1/12/4 4/13/4 6/14/4
f 6/15/5 5/16/5 2/17/5 3/18/5