# Made in Blockbench 5.1.6
mtllib dc_metro_ticket_machine.mtl

o cube
v 0.5 1.75 0.3125
v 0.5 1.75 -0.5
v 0.5 0 0.3125
v 0.5 0 -0.5
v -0.5 1.75 -0.5
v -0.5 1.75 0.3125
v -0.5 0 -0.5
v -0.5 0 0.3125
vt 0 0.96875
vt 0.125 0.96875
vt 0.125 0.75
vt 0 0.75
vt 0.015625 0.96875
vt 0.1171875 0.96875
vt 0.1171875 0.75
vt 0.015625 0.75
vt 0 1
vt 1 1
vt 1 0
vt 0 0
vt 0.0078125 0.96875
vt 0.109375 0.96875
vt 0.109375 0.75
vt 0.0078125 0.75
vt 0 0.9921875
vt 0.125 0.9921875
vt 0.125 0.890625
vt 0 0.890625
vt 0 0.984375
vt 0.125 0.984375
vt 0.125 0.8828125
vt 0 0.8828125
vn 0 0 -1
vn 1 0 0
vn 0 0 1
vn -1 0 0
vn 0 1 0
vn 0 -1 0
usemtl m_12b8000f-a186-77a8-cae1-45f97e755105
f 4/4/1 7/3/1 5/2/1 2/1/1
f 3/8/2 4/7/2 2/6/2 1/5/2
usemtl m_66d694b0-f0ae-fb7e-c2c5-854d37116049
f 8/12/3 3/11/3 1/10/3 6/9/3
usemtl m_12b8000f-a186-77a8-cae1-45f97e755105
f 7/16/4 8/15/4 6/14/4 5/13/4
f 6/20/5 1/19/5 2/18/5 5/17/5
f 7/24/6 4/23/6 3/22/6 8/21/6