# Made in Blockbench 5.1.6
mtllib nyc_subway_signal_light_2.mtl

o light
v 0.34375 0.2265625 0.0875
v 0.34375 0.4296875 0.0875
v 0.357356875 0.416080625 0.09921875
v 0.3673175 0.37890625 0.10779749999999999
v 0.37096375 0.328125 0.1109375
v 0.3673175 0.27734375 0.10779749999999999
v 0.357356875 0.24016937500000002 0.09921875
v 0.380924375 0.416080625 0.09607874999999999
v 0.408138125 0.37890625 0.10235875
v 0.41809875 0.328125 0.10465749999999999
v 0.408138125 0.27734375 0.10235875
v 0.380924375 0.24016937500000002 0.09607874999999999
v 0.39453125 0.416080625 0.09064
v 0.431705625 0.37890625 0.09293875
v 0.4453125 0.328125 0.09377999999999999
v 0.431705625 0.27734375 0.09293875
v 0.39453125 0.24016937500000002 0.09064
v 0.29296875 0.416080625 0.09064
v 0.255794375 0.37890625 0.09293875
v 0.2421875 0.328125 0.09377999999999999
v 0.255794375 0.27734375 0.09293875
v 0.29296875 0.24016937500000002 0.09064
v 0.306575625 0.416080625 0.09607874999999999
v 0.279361875 0.37890625 0.10235875
v 0.26940125 0.328125 0.10465749999999999
v 0.279361875 0.27734375 0.10235875
v 0.306575625 0.24016937500000002 0.09607874999999999
v 0.330143125 0.416080625 0.09921875
v 0.3201825 0.37890625 0.10779749999999999
v 0.31653625 0.328125 0.1109375
v 0.3201825 0.27734375 0.10779749999999999
v 0.330143125 0.24016937500000002 0.09921875
v 0.39453125 0.416080625 0.08435999999999999
v 0.431705625 0.37890625 0.08206124999999999
v 0.4453125 0.328125 0.08122
v 0.431705625 0.27734375 0.08206124999999999
v 0.39453125 0.24016937500000002 0.08435999999999999
v 0.29296875 0.416080625 0.08435999999999999
v 0.255794375 0.37890625 0.08206124999999999
v 0.2421875 0.328125 0.08122
v 0.255794375 0.27734375 0.08206124999999999
v 0.29296875 0.24016937500000002 0.08435999999999999
vt 0.726390625 0.584196875
vt 0.73828125 0.584196875
vt 0.720421875 0.59375
vt 0.43575875 0.4560865625
vt 0.4399628125 0.43682437500000004
vt 0.4605525 0.43664468749999996
vt 0.44764875 0.45598281249999995
vt 0.4399628125 0.43682437500000004
vt 0.441340625 0.411358125
vt 0.4651146875 0.4111509375
vt 0.4605525 0.43664468749999996
vt 0.441340625 0.411358125
vt 0.43951875 0.38592000000000004
vt 0.4601084375 0.38574031249999996
vt 0.4651146875 0.4111509375
vt 0.4395434375 0.38472281249999996
vt 0.4361271875 0.3653053125
vt 0.448003125 0.36589312500000004
vt 0.46010875 0.38574062499999995
vt 0.448003125 0.36589312500000004
vt 0.4361271875 0.3653053125
vt 0.4306378125 0.35546875
vt 0.71949625 0.44906
vt 0.72267875 0.4424625
vt 0.7242475 0.46874875000000005
vt 0.450911875 0.457409375
vt 0.4617325 0.43683343750000003
vt 0.474416875 0.4364303125
vt 0.458233125 0.45717656250000005
vt 0.4617325 0.43683343750000003
vt 0.4651153125 0.4111534375
vt 0.4797609375 0.41068812499999996
vt 0.474416875 0.4364303125
vt 0.4651153125 0.4111534375
vt 0.4601084375 0.38574031249999996
vt 0.4727928125 0.3853371875
vt 0.4797609375 0.41068812499999996
vt 0.4601084375 0.38574031249999996
vt 0.448003125 0.36589312500000004
vt 0.4553246875 0.3656603125
vt 0.4727928125 0.3853371875
vt 0.65960375 0.44035
vt 0.65642125 0.4337525
vt 0.6611725 0.41406374999999995
vt 0.72320875 0.6612125
vt 0.72639125 0.66781
vt 0.72164 0.68749875
vt 0.397235625 0.45717656250000005
vt 0.381051875 0.4364303125
vt 0.39373625 0.43683343750000003
vt 0.404556875 0.457409375
vt 0.381051875 0.4364303125
vt 0.3757078125 0.41068812499999996
vt 0.3903534375 0.4111534375
vt 0.39373625 0.43683343750000003
vt 0.3757078125 0.41068812499999996
vt 0.3826759375 0.3853371875
vt 0.3953603125 0.38574031249999996
vt 0.3903534375 0.4111534375
vt 0.3826759375 0.3853371875
vt 0.4001440625 0.3656603125
vt 0.407465625 0.36589312500000004
vt 0.3953603125 0.38574031249999996
vt 0.72581625 0.39859625
vt 0.72263375 0.40519375
vt 0.721065 0.37890749999999995
vt 0.71875 0.521696875
vt 0.730640625 0.521696875
vt 0.736609375 0.53125
vt 0.40782 0.45598281249999995
vt 0.39491625 0.43664468749999996
vt 0.4155059375 0.43682437500000004
vt 0.41971 0.4560865625
vt 0.39491625 0.43664468749999996
vt 0.3903540625 0.4111509375
vt 0.414128125 0.411358125
vt 0.4155059375 0.43682437500000004
vt 0.3903540625 0.4111509375
vt 0.3953603125 0.38574031249999996
vt 0.41595 0.38592000000000004
vt 0.414128125 0.411358125
vt 0.39536 0.38574062499999995
vt 0.407465625 0.36589312500000004
vt 0.4193415625 0.3653053125
vt 0.4159253125 0.38472281249999996
vt 0.4193415625 0.3653053125
vt 0.407465625 0.36589312500000004
vt 0.4248309375 0.35546875
vt 0.4217109375 0.45621999999999996
vt 0.435315 0.45598249999999996
vt 0.428669375 0.4650778125
vt 0.4217109375 0.45621999999999996
vt 0.4163975 0.43723468750000005
vt 0.4399628125 0.43682343749999997
vt 0.435315 0.45598249999999996
vt 0.4163975 0.43723468750000005
vt 0.4141321875 0.41183281250000003
vt 0.441340625 0.411358125
vt 0.4399628125 0.43682343749999997
vt 0.414128125 0.41135750000000004
vt 0.41595 0.38592000000000004
vt 0.43951875 0.38592000000000004
vt 0.441340625 0.41135750000000004
vt 0.4160521875 0.38280812500000005
vt 0.4225659375 0.36420062499999994
vt 0.4361271875 0.3653053125
vt 0.439543125 0.3847215625
vt 0.4361271875 0.3653053125
vt 0.4225659375 0.36420062499999994
vt 0.4300753125 0.35580437499999995
vt 0.72267875 0.4424625
vt 0.72581625 0.4424625
vt 0.7242475 0.46875
vt 0.26015 0.28125
vt 0.259 0.2549625
vt 0.2644375 0.2549625
vt 0.2632875 0.28125
vt 0.259 0.2549625
vt 0.258578125 0.22867499999999996
vt 0.264859375 0.22867499999999996
vt 0.2644375 0.2549625
vt 0.258578125 0.22867499999999996
vt 0.259 0.20238750000000005
vt 0.2644375 0.20238750000000005
vt 0.264859375 0.22867499999999996
vt 0.65845375 0.46663750000000004
vt 0.65960375 0.44035
vt 0.66274125 0.44035
vt 0.66389125 0.46663750000000004
vt 0.66274125 0.44035
vt 0.65960375 0.44035
vt 0.6611725 0.4140625
vt 0.72007125 0.6612125
vt 0.72320875 0.6612125
vt 0.72164 0.6875
vt 0.72007125 0.6612125
vt 0.71892125 0.634925
vt 0.72435875 0.634925
vt 0.72320875 0.6612125
vt 0.3215 0.27808124999999995
vt 0.321078125 0.25179375000000004
vt 0.327359375 0.25179375000000004
vt 0.3269375 0.27808124999999995
vt 0.321078125 0.25179375000000004
vt 0.3215 0.22550625000000002
vt 0.3269375 0.22550625000000002
vt 0.327359375 0.25179375000000004
vt 0.3215 0.22550625000000002
vt 0.32265 0.19921875
vt 0.3257875 0.19921875
vt 0.3269375 0.22550625000000002
vt 0.72263375 0.40519375
vt 0.71949625 0.40519375
vt 0.721065 0.37890625
vn 0.09405289170265974 0.702018362884677 0.7059208678988642
vn 0.12768908613003568 0.2553775545205802 0.9583724755701013
vn 0.1317377621873706 0.07059846942969218 0.9887674236786166
vn 0.1317387493682362 -0.07059853190368223 0.9887672876910613
vn 0.12768813613439325 -0.2553773422387426 0.9583726587093356
vn 0.09405289170265974 -0.702018362884677 0.7059208678988642
vn 0.19676103969102865 0.847915607786806 0.4922643754439651
vn 0.34114328588026244 0.39391967422306495 0.8534919734589259
vn 0.3687320365508974 0.11408574921495307 0.9225080634049171
vn 0.3687296285415641 -0.1140853228461775 0.9225090786256165
vn 0.34114533009358183 -0.3939209344140707 0.8534905747491808
vn 0.19676103969102865 -0.847915607786806 0.4922643754439651
vn -0.19676103969102865 0.847915607786806 0.4922643754439651
vn -0.34114315782972954 0.3939204792386694 0.853491653094708
vn -0.36873209148507546 0.11408446033297306 0.9225082008413672
vn -0.36872969197425776 -0.11408383455275421 0.922509237325193
vn -0.3411451083045852 -0.3939223287198208 0.8534900198688948
vn -0.19676103969102865 -0.847915607786806 0.4922643754439651
vn -0.09405289170265974 0.702018362884677 0.7059208678988642
vn -0.12768910627383778 0.2553769770684983 0.9583726267597298
vn -0.13173775467149426 0.07059927351396976 0.9887673672676567
vn -0.13173874068968083 -0.07059946036830947 0.9887672225540249
vn -0.12768817102461763 -0.2553763420492353 0.9583729205804701
vn -0.09405289170265974 -0.702018362884677 0.7059208678988642
vn 0 0.6525780924579532 0.7577214747147788
vn 0 0.22486070314408685 0.9743909195910782
vn 0 0.06171597552635426 0.9980937522922536
vn 0 -0.06171597552635426 0.9980937522922536
vn 0 -0.22486070314408682 0.9743909195910782
vn 0 -0.6525780924579532 0.7577214747147788
vn 0.2588204661467373 0.9659254455202977 0
vn 0.7071067811865476 0.7071067811865476 0
vn 0.9659254455202977 0.2588204661467373 0
vn 0.9659254455202978 -0.25882046614673737 0
vn 0.7071067811865476 -0.7071067811865476 0
vn 0.2588204661467373 -0.9659254455202977 0
vn -0.2588204661467373 0.9659254455202977 0
vn -0.7071067811865476 0.7071067811865476 0
vn -0.9659254455202977 0.2588204661467373 0
vn -0.9659254455202978 -0.25882046614673737 0
vn -0.7071067811865476 -0.7071067811865476 0
vn -0.2588204661467373 -0.9659254455202977 0
usemtl m_7f2020ae-d844-bc1c-4a4e-974d1b18d26e
f 3/1/1 8/2/1 2/3/1
f 3/4/2 4/5/2 9/6/2 8/7/2
f 4/8/3 5/9/3 10/10/3 9/11/3
f 5/12/4 6/13/4 11/14/4 10/15/4
f 6/16/5 7/17/5 12/18/5 11/19/5
f 12/20/6 7/21/6 1/22/6
f 8/23/7 13/24/7 2/25/7
f 8/26/8 9/27/8 14/28/8 13/29/8
f 9/30/9 10/31/9 15/32/9 14/33/9
f 10/34/10 11/35/10 16/36/10 15/37/10
f 11/38/11 12/39/11 17/40/11 16/41/11
f 17/42/12 12/43/12 1/44/12
f 18/45/13 23/46/13 2/47/13
f 18/48/14 19/49/14 24/50/14 23/51/14
f 19/52/15 20/53/15 25/54/15 24/55/15
f 20/56/16 21/57/16 26/58/16 25/59/16
f 21/60/17 22/61/17 27/62/17 26/63/17
f 27/64/18 22/65/18 1/66/18
f 23/67/19 28/68/19 2/69/19
f 23/70/20 24/71/20 29/72/20 28/73/20
f 24/74/21 25/75/21 30/76/21 29/77/21
f 25/78/22 26/79/22 31/80/22 30/81/22
f 26/82/23 27/83/23 32/84/23 31/85/23
f 32/86/24 27/87/24 1/88/24
f 28/89/25 3/90/25 2/91/25
f 28/92/26 29/93/26 4/94/26 3/95/26
f 29/96/27 30/97/27 5/98/27 4/99/27
f 30/100/28 31/101/28 6/102/28 5/103/28
f 31/104/29 32/105/29 7/106/29 6/107/29
f 7/108/30 32/109/30 1/110/30
f 13/111/31 33/112/31 2/113/31
f 13/114/32 14/115/32 34/116/32 33/117/32
f 14/118/33 15/119/33 35/120/33 34/121/33
f 15/122/34 16/123/34 36/124/34 35/125/34
f 16/126/35 17/127/35 37/128/35 36/129/35
f 37/130/36 17/131/36 1/132/36
f 38/133/37 18/134/37 2/135/37
f 38/136/38 39/137/38 19/138/38 18/139/38
f 39/140/39 40/141/39 20/142/39 19/143/39
f 40/144/40 41/145/40 21/146/40 20/147/40
f 41/148/41 42/149/41 22/150/41 21/151/41
f 22/152/42 42/153/42 1/154/42
o light
v 0.34375 0.4765625 0.0875
v 0.34375 0.6796875 0.0875
v 0.357356875 0.666080625 0.09921875
v 0.3673175 0.62890625 0.10779749999999999
v 0.37096375 0.578125 0.1109375
v 0.3673175 0.52734375 0.10779749999999999
v 0.357356875 0.490169375 0.09921875
v 0.380924375 0.666080625 0.09607874999999999
v 0.408138125 0.62890625 0.10235875
v 0.41809875 0.578125 0.10465749999999999
v 0.408138125 0.52734375 0.10235875
v 0.380924375 0.490169375 0.09607874999999999
v 0.39453125 0.666080625 0.09064
v 0.431705625 0.62890625 0.09293875
v 0.4453125 0.578125 0.09377999999999999
v 0.431705625 0.52734375 0.09293875
v 0.39453125 0.490169375 0.09064
v 0.29296875 0.666080625 0.09064
v 0.255794375 0.62890625 0.09293875
v 0.2421875 0.578125 0.09377999999999999
v 0.255794375 0.52734375 0.09293875
v 0.29296875 0.490169375 0.09064
v 0.306575625 0.666080625 0.09607874999999999
v 0.279361875 0.62890625 0.10235875
v 0.26940125 0.578125 0.10465749999999999
v 0.279361875 0.52734375 0.10235875
v 0.306575625 0.490169375 0.09607874999999999
v 0.330143125 0.666080625 0.09921875
v 0.3201825 0.62890625 0.10779749999999999
v 0.31653625 0.578125 0.1109375
v 0.3201825 0.52734375 0.10779749999999999
v 0.330143125 0.490169375 0.09921875
v 0.39453125 0.666080625 0.08435999999999999
v 0.431705625 0.62890625 0.08206124999999999
v 0.4453125 0.578125 0.08122
v 0.431705625 0.52734375 0.08206124999999999
v 0.39453125 0.490169375 0.08435999999999999
v 0.29296875 0.666080625 0.08435999999999999
v 0.255794375 0.62890625 0.08206124999999999
v 0.2421875 0.578125 0.08122
v 0.255794375 0.52734375 0.08206124999999999
v 0.29296875 0.490169375 0.08435999999999999
vt 0.726390625 0.584196875
vt 0.73828125 0.584196875
vt 0.720421875 0.59375
vt 0.43575875 0.4560865625
vt 0.4399628125 0.43682437500000004
vt 0.4605525 0.43664468749999996
vt 0.44764875 0.45598281249999995
vt 0.4399628125 0.43682437500000004
vt 0.441340625 0.411358125
vt 0.4651146875 0.4111509375
vt 0.4605525 0.43664468749999996
vt 0.441340625 0.411358125
vt 0.43951875 0.38592000000000004
vt 0.4601084375 0.38574031249999996
vt 0.4651146875 0.4111509375
vt 0.4395434375 0.38472281249999996
vt 0.4361271875 0.3653053125
vt 0.448003125 0.36589312500000004
vt 0.46010875 0.38574062499999995
vt 0.448003125 0.36589312500000004
vt 0.4361271875 0.3653053125
vt 0.4306378125 0.35546875
vt 0.71949625 0.44906
vt 0.72267875 0.4424625
vt 0.7242475 0.46874875000000005
vt 0.450911875 0.457409375
vt 0.4617325 0.43683343750000003
vt 0.474416875 0.4364303125
vt 0.458233125 0.45717656250000005
vt 0.4617325 0.43683343750000003
vt 0.4651153125 0.4111534375
vt 0.4797609375 0.41068812499999996
vt 0.474416875 0.4364303125
vt 0.4651153125 0.4111534375
vt 0.4601084375 0.38574031249999996
vt 0.4727928125 0.3853371875
vt 0.4797609375 0.41068812499999996
vt 0.4601084375 0.38574031249999996
vt 0.448003125 0.36589312500000004
vt 0.4553246875 0.3656603125
vt 0.4727928125 0.3853371875
vt 0.65960375 0.44035
vt 0.65642125 0.4337525
vt 0.6611725 0.41406374999999995
vt 0.72320875 0.6612125
vt 0.72639125 0.66781
vt 0.72164 0.68749875
vt 0.397235625 0.45717656250000005
vt 0.381051875 0.4364303125
vt 0.39373625 0.43683343750000003
vt 0.404556875 0.457409375
vt 0.381051875 0.4364303125
vt 0.3757078125 0.41068812499999996
vt 0.3903534375 0.4111534375
vt 0.39373625 0.43683343750000003
vt 0.3757078125 0.41068812499999996
vt 0.3826759375 0.3853371875
vt 0.3953603125 0.38574031249999996
vt 0.3903534375 0.4111534375
vt 0.3826759375 0.3853371875
vt 0.4001440625 0.3656603125
vt 0.407465625 0.36589312500000004
vt 0.3953603125 0.38574031249999996
vt 0.72581625 0.39859625
vt 0.72263375 0.40519375
vt 0.721065 0.37890749999999995
vt 0.71875 0.521696875
vt 0.730640625 0.521696875
vt 0.736609375 0.53125
vt 0.40782 0.45598281249999995
vt 0.39491625 0.43664468749999996
vt 0.4155059375 0.43682437500000004
vt 0.41971 0.4560865625
vt 0.39491625 0.43664468749999996
vt 0.3903540625 0.4111509375
vt 0.414128125 0.411358125
vt 0.4155059375 0.43682437500000004
vt 0.3903540625 0.4111509375
vt 0.3953603125 0.38574031249999996
vt 0.41595 0.38592000000000004
vt 0.414128125 0.411358125
vt 0.39536 0.38574062499999995
vt 0.407465625 0.36589312500000004
vt 0.4193415625 0.3653053125
vt 0.4159253125 0.38472281249999996
vt 0.4193415625 0.3653053125
vt 0.407465625 0.36589312500000004
vt 0.4248309375 0.35546875
vt 0.4217109375 0.45621999999999996
vt 0.435315 0.45598249999999996
vt 0.428669375 0.4650778125
vt 0.4217109375 0.45621999999999996
vt 0.4163975 0.43723468750000005
vt 0.4399628125 0.43682343749999997
vt 0.435315 0.45598249999999996
vt 0.4163975 0.43723468750000005
vt 0.4141321875 0.41183281250000003
vt 0.441340625 0.411358125
vt 0.4399628125 0.43682343749999997
vt 0.414128125 0.41135750000000004
vt 0.41595 0.38592000000000004
vt 0.43951875 0.38592000000000004
vt 0.441340625 0.41135750000000004
vt 0.4160521875 0.38280812500000005
vt 0.4225659375 0.36420062499999994
vt 0.4361271875 0.3653053125
vt 0.439543125 0.3847215625
vt 0.4361271875 0.3653053125
vt 0.4225659375 0.36420062499999994
vt 0.4300753125 0.35580437499999995
vt 0.72267875 0.4424625
vt 0.72581625 0.4424625
vt 0.7242475 0.46875
vt 0.26015 0.28125
vt 0.259 0.2549625
vt 0.2644375 0.2549625
vt 0.2632875 0.28125
vt 0.259 0.2549625
vt 0.258578125 0.22867499999999996
vt 0.264859375 0.22867499999999996
vt 0.2644375 0.2549625
vt 0.258578125 0.22867499999999996
vt 0.259 0.20238750000000005
vt 0.2644375 0.20238750000000005
vt 0.264859375 0.22867499999999996
vt 0.65845375 0.46663750000000004
vt 0.65960375 0.44035
vt 0.66274125 0.44035
vt 0.66389125 0.46663750000000004
vt 0.66274125 0.44035
vt 0.65960375 0.44035
vt 0.6611725 0.4140625
vt 0.72007125 0.6612125
vt 0.72320875 0.6612125
vt 0.72164 0.6875
vt 0.72007125 0.6612125
vt 0.71892125 0.634925
vt 0.72435875 0.634925
vt 0.72320875 0.6612125
vt 0.3215 0.27808124999999995
vt 0.321078125 0.25179375000000004
vt 0.327359375 0.25179375000000004
vt 0.3269375 0.27808124999999995
vt 0.321078125 0.25179375000000004
vt 0.3215 0.22550625000000002
vt 0.3269375 0.22550625000000002
vt 0.327359375 0.25179375000000004
vt 0.3215 0.22550625000000002
vt 0.32265 0.19921875
vt 0.3257875 0.19921875
vt 0.3269375 0.22550625000000002
vt 0.72263375 0.40519375
vt 0.71949625 0.40519375
vt 0.721065 0.37890625
vn 0.09405289170265974 0.702018362884677 0.7059208678988642
vn 0.12768908613003568 0.2553775545205802 0.9583724755701013
vn 0.1317377621873706 0.07059846942969218 0.9887674236786166
vn 0.1317387493682362 -0.07059853190368223 0.9887672876910613
vn 0.12768813613439325 -0.2553773422387426 0.9583726587093356
vn 0.09405289170265974 -0.702018362884677 0.7059208678988642
vn 0.19676103969102865 0.847915607786806 0.4922643754439651
vn 0.34114328588026244 0.39391967422306495 0.8534919734589259
vn 0.3687320365508974 0.11408574921495307 0.9225080634049171
vn 0.3687296285415641 -0.1140853228461775 0.9225090786256165
vn 0.34114533009358183 -0.3939209344140707 0.8534905747491808
vn 0.19676103969102865 -0.847915607786806 0.4922643754439651
vn -0.19676103969102865 0.847915607786806 0.4922643754439651
vn -0.34114315782972954 0.3939204792386694 0.853491653094708
vn -0.36873209148507546 0.11408446033297306 0.9225082008413672
vn -0.36872969197425776 -0.11408383455275421 0.922509237325193
vn -0.3411451083045852 -0.3939223287198208 0.8534900198688948
vn -0.19676103969102865 -0.847915607786806 0.4922643754439651
vn -0.09405289170265974 0.702018362884677 0.7059208678988642
vn -0.12768910627383778 0.2553769770684983 0.9583726267597298
vn -0.13173775467149426 0.07059927351396976 0.9887673672676567
vn -0.13173874068968083 -0.07059946036830947 0.9887672225540249
vn -0.12768817102461763 -0.2553763420492353 0.9583729205804701
vn -0.09405289170265974 -0.702018362884677 0.7059208678988642
vn 0 0.6525780924579532 0.7577214747147788
vn 0 0.22486070314408685 0.9743909195910782
vn 0 0.06171597552635426 0.9980937522922536
vn 0 -0.06171597552635426 0.9980937522922536
vn 0 -0.22486070314408682 0.9743909195910782
vn 0 -0.6525780924579532 0.7577214747147788
vn 0.2588204661467373 0.9659254455202977 0
vn 0.7071067811865476 0.7071067811865476 0
vn 0.9659254455202977 0.2588204661467373 0
vn 0.9659254455202978 -0.25882046614673737 0
vn 0.7071067811865476 -0.7071067811865476 0
vn 0.2588204661467373 -0.9659254455202977 0
vn -0.2588204661467373 0.9659254455202977 0
vn -0.7071067811865476 0.7071067811865476 0
vn -0.9659254455202977 0.2588204661467373 0
vn -0.9659254455202978 -0.25882046614673737 0
vn -0.7071067811865476 -0.7071067811865476 0
vn -0.2588204661467373 -0.9659254455202977 0
usemtl m_7f2020ae-d844-bc1c-4a4e-974d1b18d26e
f 45/155/43 50/156/43 44/157/43
f 45/158/44 46/159/44 51/160/44 50/161/44
f 46/162/45 47/163/45 52/164/45 51/165/45
f 47/166/46 48/167/46 53/168/46 52/169/46
f 48/170/47 49/171/47 54/172/47 53/173/47
f 54/174/48 49/175/48 43/176/48
f 50/177/49 55/178/49 44/179/49
f 50/180/50 51/181/50 56/182/50 55/183/50
f 51/184/51 52/185/51 57/186/51 56/187/51
f 52/188/52 53/189/52 58/190/52 57/191/52
f 53/192/53 54/193/53 59/194/53 58/195/53
f 59/196/54 54/197/54 43/198/54
f 60/199/55 65/200/55 44/201/55
f 60/202/56 61/203/56 66/204/56 65/205/56
f 61/206/57 62/207/57 67/208/57 66/209/57
f 62/210/58 63/211/58 68/212/58 67/213/58
f 63/214/59 64/215/59 69/216/59 68/217/59
f 69/218/60 64/219/60 43/220/60
f 65/221/61 70/222/61 44/223/61
f 65/224/62 66/225/62 71/226/62 70/227/62
f 66/228/63 67/229/63 72/230/63 71/231/63
f 67/232/64 68/233/64 73/234/64 72/235/64
f 68/236/65 69/237/65 74/238/65 73/239/65
f 74/240/66 69/241/66 43/242/66
f 70/243/67 45/244/67 44/245/67
f 70/246/68 71/247/68 46/248/68 45/249/68
f 71/250/69 72/251/69 47/252/69 46/253/69
f 72/254/70 73/255/70 48/256/70 47/257/70
f 73/258/71 74/259/71 49/260/71 48/261/71
f 49/262/72 74/263/72 43/264/72
f 55/265/73 75/266/73 44/267/73
f 55/268/74 56/269/74 76/270/74 75/271/74
f 56/272/75 57/273/75 77/274/75 76/275/75
f 57/276/76 58/277/76 78/278/76 77/279/76
f 58/280/77 59/281/77 79/282/77 78/283/77
f 79/284/78 59/285/78 43/286/78
f 80/287/79 60/288/79 44/289/79
f 80/290/80 81/291/80 61/292/80 60/293/80
f 81/294/81 82/295/81 62/296/81 61/297/81
f 82/298/82 83/299/82 63/300/82 62/301/82
f 83/302/83 84/303/83 64/304/83 63/305/83
f 64/306/84 84/307/84 43/308/84
o light
v 0.34375 0.7265625 0.0875
v 0.34375 0.9296875 0.0875
v 0.357356875 0.916080625 0.09921875
v 0.3673175 0.87890625 0.10779749999999999
v 0.37096375 0.828125 0.1109375
v 0.3673175 0.77734375 0.10779749999999999
v 0.357356875 0.740169375 0.09921875
v 0.380924375 0.916080625 0.09607874999999999
v 0.408138125 0.87890625 0.10235875
v 0.41809875 0.828125 0.10465749999999999
v 0.408138125 0.77734375 0.10235875
v 0.380924375 0.740169375 0.09607874999999999
v 0.39453125 0.916080625 0.09064
v 0.431705625 0.87890625 0.09293875
v 0.4453125 0.828125 0.09377999999999999
v 0.431705625 0.77734375 0.09293875
v 0.39453125 0.740169375 0.09064
v 0.29296875 0.916080625 0.09064
v 0.255794375 0.87890625 0.09293875
v 0.2421875 0.828125 0.09377999999999999
v 0.255794375 0.77734375 0.09293875
v 0.29296875 0.740169375 0.09064
v 0.306575625 0.916080625 0.09607874999999999
v 0.279361875 0.87890625 0.10235875
v 0.26940125 0.828125 0.10465749999999999
v 0.279361875 0.77734375 0.10235875
v 0.306575625 0.740169375 0.09607874999999999
v 0.330143125 0.916080625 0.09921875
v 0.3201825 0.87890625 0.10779749999999999
v 0.31653625 0.828125 0.1109375
v 0.3201825 0.77734375 0.10779749999999999
v 0.330143125 0.740169375 0.09921875
v 0.39453125 0.916080625 0.08435999999999999
v 0.431705625 0.87890625 0.08206124999999999
v 0.4453125 0.828125 0.08122
v 0.431705625 0.77734375 0.08206124999999999
v 0.39453125 0.740169375 0.08435999999999999
v 0.29296875 0.916080625 0.08435999999999999
v 0.255794375 0.87890625 0.08206124999999999
v 0.2421875 0.828125 0.08122
v 0.255794375 0.77734375 0.08206124999999999
v 0.29296875 0.740169375 0.08435999999999999
vt 0.726390625 0.584196875
vt 0.73828125 0.584196875
vt 0.720421875 0.59375
vt 0.43575875 0.4560865625
vt 0.4399628125 0.43682437500000004
vt 0.4605525 0.43664468749999996
vt 0.44764875 0.45598281249999995
vt 0.4399628125 0.43682437500000004
vt 0.441340625 0.411358125
vt 0.4651146875 0.4111509375
vt 0.4605525 0.43664468749999996
vt 0.441340625 0.411358125
vt 0.43951875 0.38592000000000004
vt 0.4601084375 0.38574031249999996
vt 0.4651146875 0.4111509375
vt 0.4395434375 0.38472281249999996
vt 0.4361271875 0.3653053125
vt 0.448003125 0.36589312500000004
vt 0.46010875 0.38574062499999995
vt 0.448003125 0.36589312500000004
vt 0.4361271875 0.3653053125
vt 0.4306378125 0.35546875
vt 0.71949625 0.44906
vt 0.72267875 0.4424625
vt 0.7242475 0.46874875000000005
vt 0.450911875 0.457409375
vt 0.4617325 0.43683343750000003
vt 0.474416875 0.4364303125
vt 0.458233125 0.45717656250000005
vt 0.4617325 0.43683343750000003
vt 0.4651153125 0.4111534375
vt 0.4797609375 0.41068812499999996
vt 0.474416875 0.4364303125
vt 0.4651153125 0.4111534375
vt 0.4601084375 0.38574031249999996
vt 0.4727928125 0.3853371875
vt 0.4797609375 0.41068812499999996
vt 0.4601084375 0.38574031249999996
vt 0.448003125 0.36589312500000004
vt 0.4553246875 0.3656603125
vt 0.4727928125 0.3853371875
vt 0.65960375 0.44035
vt 0.65642125 0.4337525
vt 0.6611725 0.41406374999999995
vt 0.72320875 0.6612125
vt 0.72639125 0.66781
vt 0.72164 0.68749875
vt 0.397235625 0.45717656250000005
vt 0.381051875 0.4364303125
vt 0.39373625 0.43683343750000003
vt 0.404556875 0.457409375
vt 0.381051875 0.4364303125
vt 0.3757078125 0.41068812499999996
vt 0.3903534375 0.4111534375
vt 0.39373625 0.43683343750000003
vt 0.3757078125 0.41068812499999996
vt 0.3826759375 0.3853371875
vt 0.3953603125 0.38574031249999996
vt 0.3903534375 0.4111534375
vt 0.3826759375 0.3853371875
vt 0.4001440625 0.3656603125
vt 0.407465625 0.36589312500000004
vt 0.3953603125 0.38574031249999996
vt 0.72581625 0.39859625
vt 0.72263375 0.40519375
vt 0.721065 0.37890749999999995
vt 0.71875 0.521696875
vt 0.730640625 0.521696875
vt 0.736609375 0.53125
vt 0.40782 0.45598281249999995
vt 0.39491625 0.43664468749999996
vt 0.4155059375 0.43682437500000004
vt 0.41971 0.4560865625
vt 0.39491625 0.43664468749999996
vt 0.3903540625 0.4111509375
vt 0.414128125 0.411358125
vt 0.4155059375 0.43682437500000004
vt 0.3903540625 0.4111509375
vt 0.3953603125 0.38574031249999996
vt 0.41595 0.38592000000000004
vt 0.414128125 0.411358125
vt 0.39536 0.38574062499999995
vt 0.407465625 0.36589312500000004
vt 0.4193415625 0.3653053125
vt 0.4159253125 0.38472281249999996
vt 0.4193415625 0.3653053125
vt 0.407465625 0.36589312500000004
vt 0.4248309375 0.35546875
vt 0.4217109375 0.45621999999999996
vt 0.435315 0.45598249999999996
vt 0.428669375 0.4650778125
vt 0.4217109375 0.45621999999999996
vt 0.4163975 0.43723468750000005
vt 0.4399628125 0.43682343749999997
vt 0.435315 0.45598249999999996
vt 0.4163975 0.43723468750000005
vt 0.4141321875 0.41183281250000003
vt 0.441340625 0.411358125
vt 0.4399628125 0.43682343749999997
vt 0.414128125 0.41135750000000004
vt 0.41595 0.38592000000000004
vt 0.43951875 0.38592000000000004
vt 0.441340625 0.41135750000000004
vt 0.4160521875 0.38280812500000005
vt 0.4225659375 0.36420062499999994
vt 0.4361271875 0.3653053125
vt 0.439543125 0.3847215625
vt 0.4361271875 0.3653053125
vt 0.4225659375 0.36420062499999994
vt 0.4300753125 0.35580437499999995
vt 0.72267875 0.4424625
vt 0.72581625 0.4424625
vt 0.7242475 0.46875
vt 0.26015 0.28125
vt 0.259 0.2549625
vt 0.2644375 0.2549625
vt 0.2632875 0.28125
vt 0.259 0.2549625
vt 0.258578125 0.22867499999999996
vt 0.264859375 0.22867499999999996
vt 0.2644375 0.2549625
vt 0.258578125 0.22867499999999996
vt 0.259 0.20238750000000005
vt 0.2644375 0.20238750000000005
vt 0.264859375 0.22867499999999996
vt 0.65845375 0.46663750000000004
vt 0.65960375 0.44035
vt 0.66274125 0.44035
vt 0.66389125 0.46663750000000004
vt 0.66274125 0.44035
vt 0.65960375 0.44035
vt 0.6611725 0.4140625
vt 0.72007125 0.6612125
vt 0.72320875 0.6612125
vt 0.72164 0.6875
vt 0.72007125 0.6612125
vt 0.71892125 0.634925
vt 0.72435875 0.634925
vt 0.72320875 0.6612125
vt 0.3215 0.27808124999999995
vt 0.321078125 0.25179375000000004
vt 0.327359375 0.25179375000000004
vt 0.3269375 0.27808124999999995
vt 0.321078125 0.25179375000000004
vt 0.3215 0.22550625000000002
vt 0.3269375 0.22550625000000002
vt 0.327359375 0.25179375000000004
vt 0.3215 0.22550625000000002
vt 0.32265 0.19921875
vt 0.3257875 0.19921875
vt 0.3269375 0.22550625000000002
vt 0.72263375 0.40519375
vt 0.71949625 0.40519375
vt 0.721065 0.37890625
vn 0.09405289170265974 0.702018362884677 0.7059208678988642
vn 0.12768908613003568 0.2553775545205802 0.9583724755701013
vn 0.1317377621873706 0.07059846942969218 0.9887674236786166
vn 0.1317387493682362 -0.07059853190368223 0.9887672876910613
vn 0.12768813613439325 -0.2553773422387426 0.9583726587093356
vn 0.09405289170265974 -0.702018362884677 0.7059208678988642
vn 0.19676103969102865 0.847915607786806 0.4922643754439651
vn 0.34114328588026244 0.39391967422306495 0.8534919734589259
vn 0.3687320365508974 0.11408574921495307 0.9225080634049171
vn 0.3687296285415641 -0.1140853228461775 0.9225090786256165
vn 0.34114533009358183 -0.3939209344140707 0.8534905747491808
vn 0.19676103969102865 -0.847915607786806 0.4922643754439651
vn -0.19676103969102865 0.847915607786806 0.4922643754439651
vn -0.34114315782972954 0.3939204792386694 0.853491653094708
vn -0.36873209148507546 0.11408446033297306 0.9225082008413672
vn -0.36872969197425776 -0.11408383455275421 0.922509237325193
vn -0.3411451083045852 -0.3939223287198208 0.8534900198688948
vn -0.19676103969102865 -0.847915607786806 0.4922643754439651
vn -0.09405289170265974 0.702018362884677 0.7059208678988642
vn -0.12768910627383778 0.2553769770684983 0.9583726267597298
vn -0.13173775467149426 0.07059927351396976 0.9887673672676567
vn -0.13173874068968083 -0.07059946036830947 0.9887672225540249
vn -0.12768817102461763 -0.2553763420492353 0.9583729205804701
vn -0.09405289170265974 -0.702018362884677 0.7059208678988642
vn 0 0.6525780924579532 0.7577214747147788
vn 0 0.22486070314408685 0.9743909195910782
vn 0 0.06171597552635426 0.9980937522922536
vn 0 -0.06171597552635426 0.9980937522922536
vn 0 -0.22486070314408682 0.9743909195910782
vn 0 -0.6525780924579532 0.7577214747147788
vn 0.2588204661467373 0.9659254455202977 0
vn 0.7071067811865476 0.7071067811865476 0
vn 0.9659254455202977 0.2588204661467373 0
vn 0.9659254455202978 -0.25882046614673737 0
vn 0.7071067811865476 -0.7071067811865476 0
vn 0.2588204661467373 -0.9659254455202977 0
vn -0.2588204661467373 0.9659254455202977 0
vn -0.7071067811865476 0.7071067811865476 0
vn -0.9659254455202977 0.2588204661467373 0
vn -0.9659254455202978 -0.25882046614673737 0
vn -0.7071067811865476 -0.7071067811865476 0
vn -0.2588204661467373 -0.9659254455202977 0
usemtl m_7f2020ae-d844-bc1c-4a4e-974d1b18d26e
f 87/309/85 92/310/85 86/311/85
f 87/312/86 88/313/86 93/314/86 92/315/86
f 88/316/87 89/317/87 94/318/87 93/319/87
f 89/320/88 90/321/88 95/322/88 94/323/88
f 90/324/89 91/325/89 96/326/89 95/327/89
f 96/328/90 91/329/90 85/330/90
f 92/331/91 97/332/91 86/333/91
f 92/334/92 93/335/92 98/336/92 97/337/92
f 93/338/93 94/339/93 99/340/93 98/341/93
f 94/342/94 95/343/94 100/344/94 99/345/94
f 95/346/95 96/347/95 101/348/95 100/349/95
f 101/350/96 96/351/96 85/352/96
f 102/353/97 107/354/97 86/355/97
f 102/356/98 103/357/98 108/358/98 107/359/98
f 103/360/99 104/361/99 109/362/99 108/363/99
f 104/364/100 105/365/100 110/366/100 109/367/100
f 105/368/101 106/369/101 111/370/101 110/371/101
f 111/372/102 106/373/102 85/374/102
f 107/375/103 112/376/103 86/377/103
f 107/378/104 108/379/104 113/380/104 112/381/104
f 108/382/105 109/383/105 114/384/105 113/385/105
f 109/386/106 110/387/106 115/388/106 114/389/106
f 110/390/107 111/391/107 116/392/107 115/393/107
f 116/394/108 111/395/108 85/396/108
f 112/397/109 87/398/109 86/399/109
f 112/400/110 113/401/110 88/402/110 87/403/110
f 113/404/111 114/405/111 89/406/111 88/407/111
f 114/408/112 115/409/112 90/410/112 89/411/112
f 115/412/113 116/413/113 91/414/113 90/415/113
f 91/416/114 116/417/114 85/418/114
f 97/419/115 117/420/115 86/421/115
f 97/422/116 98/423/116 118/424/116 117/425/116
f 98/426/117 99/427/117 119/428/117 118/429/117
f 99/430/118 100/431/118 120/432/118 119/433/118
f 100/434/119 101/435/119 121/436/119 120/437/119
f 121/438/120 101/439/120 85/440/120
f 122/441/121 102/442/121 86/443/121
f 122/444/122 123/445/122 103/446/122 102/447/122
f 123/448/123 124/449/123 104/450/123 103/451/123
f 124/452/124 125/453/124 105/454/124 104/455/124
f 125/456/125 126/457/125 106/458/125 105/459/125
f 106/460/126 126/461/126 85/462/126
o box
v 0.5 1 0.09375
v 0.5 1 -0.09375
v 0.5 0 0.09375
v 0.5 0 -0.09375
v 0.1875 1 -0.09375
v 0.1875 1 0.09375
v 0.1875 0 -0.09375
v 0.1875 0 0.09375
vt 0 1
vt 0.15625 1
vt 0.15625 0.5
vt 0 0.5
vt 0.375 1
vt 0.46875 1
vt 0.46875 0.5
vt 0.375 0.5
vt 0.1875 1
vt 0.34375 1
vt 0.34375 0.5
vt 0.1875 0.5
vt 0.5 1
vt 0.59375 1
vt 0.59375 0.5
vt 0.5 0.5
vt 0.15625 0.375
vt 0 0.375
vt 0 0.46875
vt 0.15625 0.46875
vt 0.34375 0.46875
vt 0.1875 0.46875
vt 0.1875 0.375
vt 0.34375 0.375
vn 0 0 -1
vn 1 0 0
vn 0 0 1
vn -1 0 0
vn 0 1 0
vn 0 -1 0
usemtl m_7f2020ae-d844-bc1c-4a4e-974d1b18d26e
f 130/466/127 133/465/127 131/464/127 128/463/127
f 129/470/128 130/469/128 128/468/128 127/467/128
f 134/474/129 129/473/129 127/472/129 132/471/129
f 133/478/130 134/477/130 132/476/130 131/475/130
f 132/482/131 127/481/131 128/480/131 131/479/131
f 133/486/132 130/485/132 129/484/132 134/483/132