# Made in Blockbench 5.1.6
mtllib nyc_subway_entrance_2_fence_3.mtl

o cube
v 0.1484375 0 0.15625
v 0.1484375 0 -0.15625
v -0.5 0 0.15625
v -0.5 0 -0.15625
v 0.1484375 0.171875 -0.15625
v 0.1484375 0.171875 0.15625
v -0.5 0.171875 0.15625
v -0.5 0.171875 -0.15625
vt 1 0.625
vt 1 0.9375
vt 0 0.9375
vt 0 0.625
vt 0.375 0.71875
vt 0.375 0.875
vt 0.0625 0.875
vt 0.0625 0.71875
vt 1 0.71875
vt 1 0.875
vt 0 0.875
vt 0 0.71875
vt 0.375 0.71875
vt 0.375 0.875
vt 0.0625 0.875
vt 0.0625 0.71875
vt 1 0.71875
vt 1 0.875
vt 0 0.875
vt 0 0.71875
vt 1 0.6875
vt 1 1
vt 0 1
vt 0 0.6875
vn 0 -1 0
vn 1 0 0
vn 0 0 1
vn -1 0 0
vn 0 0 -1
vn 0 1 0
usemtl m_e70d8a61-7516-cbc3-246b-546d68436d1f
f 2/1/1 1/2/1 3/3/1 4/4/1
f 2/5/2 5/6/2 6/7/2 1/8/2
f 1/9/3 6/10/3 7/11/3 3/12/3
f 3/13/4 7/14/4 8/15/4 4/16/4
f 4/17/5 8/18/5 5/19/5 2/20/5
f 6/21/6 5/22/6 8/23/6 7/24/6
o cube
v 0 1 0.0078125
v 0 1 -0.0078125
v 0 0.171875 0.0078125
v 0 0.171875 -0.0078125
v -0.5 1 -0.0078125
v -0.5 1 0.0078125
v -0.5 0.171875 -0.0078125
v -0.5 0.171875 0.0078125
vt 0.0234375 1
vt 0.9765625 1
vt 0.9765625 0.171875
vt 0.0234375 0.171875
vt 0 0.984375
vt 0.015625 0.984375
vt 0.015625 0.15625
vt 0 0.15625
vt 0.03125 1
vt 0.9765625 1
vt 0.9765625 0.171875
vt 0.03125 0.171875
vt 0 0.984375
vt 0.015625 0.984375
vt 0.015625 0.15625
vt 0 0.15625
vt 0 1
vt 1 1
vt 1 0.984375
vt 0 0.984375
vt 0 0.953125
vt 1 0.953125
vt 1 0.9375
vt 0 0.9375
vn 0 0 -1
vn 1 0 0
vn 0 0 1
vn -1 0 0
vn 0 1 0
vn 0 -1 0
usemtl m_17109026-49f5-5767-fb74-fa869e902a8d
f 12/28/7 15/27/7 13/26/7 10/25/7
f 11/32/8 12/31/8 10/30/8 9/29/8
f 16/36/9 11/35/9 9/34/9 14/33/9
f 15/40/10 16/39/10 14/38/10 13/37/10
f 14/44/11 9/43/11 10/42/11 13/41/11
f 15/48/12 12/47/12 11/46/12 16/45/12
o cube
v 0.15625000000000003 0 -0.15624999999999994
v -0.15624999999999997 0 -0.15625
v 0.1562499999999999 0 0.5
v -0.1562500000000001 0 0.49999999999999994
v -0.15624999999999997 0.171875 -0.15625
v 0.15625000000000003 0.171875 -0.15624999999999994
v 0.1562499999999999 0.171875 0.5
v -0.1562500000000001 0.171875 0.49999999999999994
vt 1 0.625
vt 1 0.9375
vt 0 0.9375
vt 0 0.625
vt 0.375 0.71875
vt 0.375 0.875
vt 0.0625 0.875
vt 0.0625 0.71875
vt 1 0.71875
vt 1 0.875
vt 0 0.875
vt 0 0.71875
vt 0.375 0.71875
vt 0.375 0.875
vt 0.0625 0.875
vt 0.0625 0.71875
vt 1 0.71875
vt 1 0.875
vt 0 0.875
vt 0 0.71875
vt 1 0.6875
vt 1 1
vt 0 1
vt 0 0.6875
vn 0 -1 0
vn 2.220446049250313e-16 0 -1
vn 1 0 2.220446049250313e-16
vn -2.220446049250313e-16 0 1
vn -1 0 -2.220446049250313e-16
vn 0 1 0
usemtl m_e70d8a61-7516-cbc3-246b-546d68436d1f
f 18/49/13 17/50/13 19/51/13 20/52/13
f 18/53/14 21/54/14 22/55/14 17/56/14
f 17/57/15 22/58/15 23/59/15 19/60/15
f 19/61/16 23/62/16 24/63/16 20/64/16
f 20/65/17 24/66/17 21/67/17 18/68/17
f 22/69/18 21/70/18 24/71/18 23/72/18
o cube
v 0.125 1 0.125
v 0.125 1 -0.125
v 0.125 0.171875 0.125
v 0.125 0.171875 -0.125
v -0.125 1 -0.125
v -0.125 1 0.125
v -0.125 0.171875 -0.125
v -0.125 0.171875 0.125
vt 0 1
vt 0.25 1
vt 0.25 0.171875
vt 0 0.171875
vt 0 1
vt 0.25 1
vt 0.25 0.171875
vt 0 0.171875
vt 0 1
vt 0.25 1
vt 0.25 0.171875
vt 0 0.171875
vt 0 1
vt 0.25 1
vt 0.25 0.171875
vt 0 0.171875
vt 0 1
vt 0.25 1
vt 0.25 0.75
vt 0 0.75
vt 0 1
vt 0.25 1
vt 0.25 0.75
vt 0 0.75
vn 0 0 -1
vn 1 0 0
vn 0 0 1
vn -1 0 0
vn 0 1 0
vn 0 -1 0
usemtl m_e70d8a61-7516-cbc3-246b-546d68436d1f
f 28/76/19 31/75/19 29/74/19 26/73/19
f 27/80/20 28/79/20 26/78/20 25/77/20
f 32/84/21 27/83/21 25/82/21 30/81/21
f 31/88/22 32/87/22 30/86/22 29/85/22
f 30/92/23 25/91/23 26/90/23 29/89/23
f 31/96/24 28/95/24 27/94/24 32/93/24
o cube
v 0.0078125 1 1.734723475976807e-18
v -0.0078125 1 -1.734723475976807e-18
v 0.0078125 0.171875 1.734723475976807e-18
v -0.0078125 0.171875 -1.734723475976807e-18
v -0.007812500000000111 1 0.5
v 0.007812499999999889 1 0.5
v -0.007812500000000111 0.171875 0.5
v 0.007812499999999889 0.171875 0.5
vt 0.0234375 1
vt 0.9765625 1
vt 0.9765625 0.171875
vt 0.0234375 0.171875
vt 0 0.984375
vt 0.015625 0.984375
vt 0.015625 0.15625
vt 0 0.15625
vt 0.03125 1
vt 0.9765625 1
vt 0.9765625 0.171875
vt 0.03125 0.171875
vt 0 0.984375
vt 0.015625 0.984375
vt 0.015625 0.15625
vt 0 0.15625
vt 0 1
vt 1 1
vt 1 0.984375
vt 0 0.984375
vt 0 0.953125
vt 1 0.953125
vt 1 0.9375
vt 0 0.9375
vn -1 0 -2.220446049250313e-16
vn 2.220446049250313e-16 0 -1
vn 1 0 2.220446049250313e-16
vn -2.220446049250313e-16 0 1
vn 0 1 0
vn 0 -1 0
usemtl m_17109026-49f5-5767-fb74-fa869e902a8d
f 36/100/25 39/99/25 37/98/25 34/97/25
f 35/104/26 36/103/26 34/102/26 33/101/26
f 40/108/27 35/107/27 33/106/27 38/105/27
f 39/112/28 40/111/28 38/110/28 37/109/28
f 38/116/29 33/115/29 34/114/29 37/113/29
f 39/120/30 36/119/30 35/118/30 40/117/30