# Made in Blockbench 5.1.6
mtllib nyc_subway_entrance_2_roof_3_light_layer.mtl

o cube
v 0.4999999999999999 0.46875 0.5015624999999999
v 0.4999999999999999 0.46875 -0.5015624999999999
v 0.4999999999999999 0.453125 0.5015624999999999
v 0.4999999999999999 0.453125 -0.5015624999999999
v -0.5 0.46875 -0.5015624999999999
v -0.5 0.46875 0.5015624999999999
v -0.5 0.453125 -0.5015624999999999
v -0.5 0.453125 0.5015624999999999
vt 1.0625 0.96875
vt 0.06250000000000011 0.96875
vt 0.06250000000000011 0.953125
vt 1.0625 0.953125
vt 1 0.96875
vt 0 0.96875
vt 0 0.953125
vt 1 0.953125
vt 0.6390625 0.96875
vt -0.3609374999999999 0.96875
vt -0.3609374999999999 0.953125
vt 0.6390625 0.953125
vt 1 0.96875
vt 0 0.96875
vt 0 0.953125
vt 1 0.953125
vt 0.6390625 1
vt -0.3609374999999999 1
vt -0.3609374999999999 0
vt 0.6390625 0
vt 0.6390625 1
vt -0.3609374999999999 1
vt -0.3609374999999999 0
vt 0.6390625 0
vn 0 0 -1
vn 1 0 0
vn 0 0 1
vn -1 0 0
vn 0 1 0
vn 0 -1 0
usemtl m_29c6f511-170d-cb3c-366d-ef73eb7732c6
f 4/4/1 7/3/1 5/2/1 2/1/1
f 3/8/2 4/7/2 2/6/2 1/5/2
f 8/12/3 3/11/3 1/10/3 6/9/3
f 7/16/4 8/15/4 6/14/4 5/13/4
f 6/20/5 1/19/5 2/18/5 5/17/5
f 7/24/6 4/23/6 3/22/6 8/21/6