# Made in Blockbench 5.1.5
mtllib nyc_subway_bench_1b.mtl

o cube
v 0.5 0.5625 0.5
v 0.5 0.5625 -0.5
v 0.5 0.4375 0.5
v 0.5 0.4375 -0.5
v -0.5 0.5625 -0.5
v -0.5 0.5625 0.5
v -0.5 0.4375 -0.5
v -0.5 0.4375 0.5
vt 0 0
vt 0 1
vt 0.125 1
vt 0.125 0
vt 0 1
vt 1 1
vt 1 0.875
vt 0 0.875
vt 0 0
vt 0 1
vt 0.125 1
vt 0.125 0
vt 0 1
vt 1 1
vt 1 0.875
vt 0 0.875
vt 0 0
vt 0 1
vt 1 1
vt 1 0
vt 0 0
vt 0 1
vt 1 1
vt 1 0
vn 0 0 -1
vn 1 0 0
vn 0 0 1
vn -1 0 0
vn 0 1 0
vn 0 -1 0
usemtl m_528ab08f-5d1a-92a8-844e-4fa2a1044059
f 4/4/1 7/3/1 5/2/1 2/1/1
f 3/8/2 4/7/2 2/6/2 1/5/2
f 8/12/3 3/11/3 1/10/3 6/9/3
f 7/16/4 8/15/4 6/14/4 5/13/4
f 6/20/5 1/19/5 2/18/5 5/17/5
f 7/24/6 4/23/6 3/22/6 8/21/6
o cube
v -0.45375 0.8125 0.405625
v -0.45375 0.8125 -0.500625
v -0.45375 0.5625 0.405625
v -0.45375 0.5625 -0.500625
v -0.500625 0.8125 -0.500625
v -0.500625 0.8125 0.405625
v -0.500625 0.5625 -0.500625
v -0.500625 0.5625 0.405625
vt 0 1
vt 0.046875 1
vt 0.046875 0.75
vt 0 0.75
vt 0.00390625 0.09375
vt 0.00390625 1
vt 0.25390625 1
vt 0.25390625 0.09375
vt 0 1
vt 0.046875 1
vt 0.046875 0.75
vt 0 0.75
vt 0 0.09375
vt 0 1
vt 0.25 1
vt 0.25 0.09375
vt 0 1
vt 0.046875 1
vt 0.046875 0.09375
vt 0 0.09375
vn 0 0 -1
vn 1 0 0
vn 0 0 1
vn -1 0 0
vn 0 1 0
usemtl m_528ab08f-5d1a-92a8-844e-4fa2a1044059
f 12/28/7 15/27/7 13/26/7 10/25/7
f 11/32/8 12/31/8 10/30/8 9/29/8
f 16/36/9 11/35/9 9/34/9 14/33/9
f 15/40/10 16/39/10 14/38/10 13/37/10
f 14/44/11 9/43/11 10/42/11 13/41/11
o cube
v 0.500625 0.8125 0.405625
v 0.500625 0.8125 -0.500625
v 0.500625 0.5625 0.405625
v 0.500625 0.5625 -0.500625
v 0.45375 0.8125 -0.500625
v 0.45375 0.8125 0.405625
v 0.45375 0.5625 -0.500625
v 0.45375 0.5625 0.405625
vt 0 1
vt 0.046875 1
vt 0.046875 0.75
vt 0 0.75
vt 0.00390625 0.09375
vt 0.00390625 1
vt 0.25390625 1
vt 0.25390625 0.09375
vt 0 1
vt 0.046875 1
vt 0.046875 0.75
vt 0 0.75
vt 0 0.09375
vt 0 1
vt 0.25 1
vt 0.25 0.09375
vt 0 1
vt 0.046875 1
vt 0.046875 0.09375
vt 0 0.09375
vn 0 0 -1
vn 1 0 0
vn 0 0 1
vn -1 0 0
vn 0 1 0
usemtl m_528ab08f-5d1a-92a8-844e-4fa2a1044059
f 20/48/12 23/47/12 21/46/12 18/45/12
f 19/52/13 20/51/13 18/50/13 17/49/13
f 24/56/14 19/55/14 17/54/14 22/53/14
f 23/60/15 24/59/15 22/58/15 21/57/15
f 22/64/16 17/63/16 18/62/16 21/61/16
o cube
v 0.5 1.15625 -0.40625
v 0.5 1.15625 -0.5
v 0.5 0.75 -0.34375
v 0.5 0.75 -0.5
v -0.5 1.15625 -0.40625
v -0.5 1.15625 -0.5
v -0.5 0.75 -0.34375
v -0.5 0.75 -0.5
vt 0.125 0.625
vt 0.125 1
vt 0.046875 1
vt 0 0.625
vt 0.125 0.625
vt 0.078125 1
vt 0 1
vt 0 0.625
vt 0 0
vt 0.125 0
vt 0.125 1
vt 0 1
vt 0 0
vt 0.125 0
vt 0.125 1
vt 0 1
vt 0 0
vt 0.375 0
vt 0.375 1
vt 0 1
vt 0 0
vt 0.375 0
vt 0.375 1
vt 0 1
vn 1 0 0
vn -1 0 0
vn 0 1 0
vn 0 -1 0
vn 0 0.1520571842539411 0.9883716976506172
vn 0 0 -1
usemtl m_528ab08f-5d1a-92a8-844e-4fa2a1044059
f 28/65/17 26/66/17 25/67/17 27/68/17
f 31/69/18 29/70/18 30/71/18 32/72/18
f 25/73/19 26/74/19 30/75/19 29/76/19
f 28/77/20 27/78/20 31/79/20 32/80/20
f 27/81/21 25/82/21 29/83/21 31/84/21
f 32/85/22 30/86/22 26/87/22 28/88/22