# Made in Blockbench 5.1.6
mtllib nyc_subway_signal_light_3y.mtl

o light
v 1.03125 0.5234375 0.0875
v 1.03125 0.7265625 0.0875
v 1.044856875 0.712955625 0.09921875
v 1.0548175 0.67578125 0.10779749999999999
v 1.05846375 0.625 0.1109375
v 1.0548175 0.57421875 0.10779749999999999
v 1.044856875 0.537044375 0.09921875
v 1.068424375 0.712955625 0.09607874999999999
v 1.095638125 0.67578125 0.10235875
v 1.10559875 0.625 0.10465749999999999
v 1.095638125 0.57421875 0.10235875
v 1.068424375 0.537044375 0.09607874999999999
v 1.08203125 0.712955625 0.09064
v 1.119205625 0.67578125 0.09293875
v 1.1328125 0.625 0.09377999999999999
v 1.119205625 0.57421875 0.09293875
v 1.08203125 0.537044375 0.09064
v 0.98046875 0.712955625 0.09064
v 0.943294375 0.67578125 0.09293875
v 0.9296875 0.625 0.09377999999999999
v 0.943294375 0.57421875 0.09293875
v 0.98046875 0.537044375 0.09064
v 0.994075625 0.712955625 0.09607874999999999
v 0.966861875 0.67578125 0.10235875
v 0.95690125 0.625 0.10465749999999999
v 0.966861875 0.57421875 0.10235875
v 0.994075625 0.537044375 0.09607874999999999
v 1.017643125 0.712955625 0.09921875
v 1.0076825 0.67578125 0.10779749999999999
v 1.00403625 0.625 0.1109375
v 1.0076825 0.57421875 0.10779749999999999
v 1.017643125 0.537044375 0.09921875
v 1.08203125 0.712955625 0.08435999999999999
v 1.119205625 0.67578125 0.08206124999999999
v 1.1328125 0.625 0.08122
v 1.119205625 0.57421875 0.08206124999999999
v 1.08203125 0.537044375 0.08435999999999999
v 0.98046875 0.712955625 0.08435999999999999
v 0.943294375 0.67578125 0.08206124999999999
v 0.9296875 0.625 0.08122
v 0.943294375 0.57421875 0.08206124999999999
v 0.98046875 0.537044375 0.08435999999999999
vt 0.726390625 0.584196875
vt 0.73828125 0.584196875
vt 0.720421875 0.59375
vt 0.43575875 0.4560865625
vt 0.4399628125 0.43682437500000004
vt 0.4605525 0.43664468749999996
vt 0.44764875 0.45598281249999995
vt 0.4399628125 0.43682437500000004
vt 0.441340625 0.411358125
vt 0.4651146875 0.4111509375
vt 0.4605525 0.43664468749999996
vt 0.441340625 0.411358125
vt 0.43951875 0.38592000000000004
vt 0.4601084375 0.38574031249999996
vt 0.4651146875 0.4111509375
vt 0.4395434375 0.38472281249999996
vt 0.4361271875 0.3653053125
vt 0.448003125 0.36589312500000004
vt 0.46010875 0.38574062499999995
vt 0.448003125 0.36589312500000004
vt 0.4361271875 0.3653053125
vt 0.4306378125 0.35546875
vt 0.71949625 0.44906
vt 0.72267875 0.4424625
vt 0.7242475 0.46874875000000005
vt 0.450911875 0.457409375
vt 0.4617325 0.43683343750000003
vt 0.474416875 0.4364303125
vt 0.458233125 0.45717656250000005
vt 0.4617325 0.43683343750000003
vt 0.4651153125 0.4111534375
vt 0.4797609375 0.41068812499999996
vt 0.474416875 0.4364303125
vt 0.4651153125 0.4111534375
vt 0.4601084375 0.38574031249999996
vt 0.4727928125 0.3853371875
vt 0.4797609375 0.41068812499999996
vt 0.4601084375 0.38574031249999996
vt 0.448003125 0.36589312500000004
vt 0.4553246875 0.3656603125
vt 0.4727928125 0.3853371875
vt 0.65960375 0.44035
vt 0.65642125 0.4337525
vt 0.6611725 0.41406374999999995
vt 0.72320875 0.6612125
vt 0.72639125 0.66781
vt 0.72164 0.68749875
vt 0.397235625 0.45717656250000005
vt 0.381051875 0.4364303125
vt 0.39373625 0.43683343750000003
vt 0.404556875 0.457409375
vt 0.381051875 0.4364303125
vt 0.3757078125 0.41068812499999996
vt 0.3903534375 0.4111534375
vt 0.39373625 0.43683343750000003
vt 0.3757078125 0.41068812499999996
vt 0.3826759375 0.3853371875
vt 0.3953603125 0.38574031249999996
vt 0.3903534375 0.4111534375
vt 0.3826759375 0.3853371875
vt 0.4001440625 0.3656603125
vt 0.407465625 0.36589312500000004
vt 0.3953603125 0.38574031249999996
vt 0.72581625 0.39859625
vt 0.72263375 0.40519375
vt 0.721065 0.37890749999999995
vt 0.71875 0.521696875
vt 0.730640625 0.521696875
vt 0.736609375 0.53125
vt 0.40782 0.45598281249999995
vt 0.39491625 0.43664468749999996
vt 0.4155059375 0.43682437500000004
vt 0.41971 0.4560865625
vt 0.39491625 0.43664468749999996
vt 0.3903540625 0.4111509375
vt 0.414128125 0.411358125
vt 0.4155059375 0.43682437500000004
vt 0.3903540625 0.4111509375
vt 0.3953603125 0.38574031249999996
vt 0.41595 0.38592000000000004
vt 0.414128125 0.411358125
vt 0.39536 0.38574062499999995
vt 0.407465625 0.36589312500000004
vt 0.4193415625 0.3653053125
vt 0.4159253125 0.38472281249999996
vt 0.4193415625 0.3653053125
vt 0.407465625 0.36589312500000004
vt 0.4248309375 0.35546875
vt 0.4217109375 0.45621999999999996
vt 0.435315 0.45598249999999996
vt 0.428669375 0.4650778125
vt 0.4217109375 0.45621999999999996
vt 0.4163975 0.43723468750000005
vt 0.4399628125 0.43682343749999997
vt 0.435315 0.45598249999999996
vt 0.4163975 0.43723468750000005
vt 0.4141321875 0.41183281250000003
vt 0.441340625 0.411358125
vt 0.4399628125 0.43682343749999997
vt 0.414128125 0.41135750000000004
vt 0.41595 0.38592000000000004
vt 0.43951875 0.38592000000000004
vt 0.441340625 0.41135750000000004
vt 0.4160521875 0.38280812500000005
vt 0.4225659375 0.36420062499999994
vt 0.4361271875 0.3653053125
vt 0.439543125 0.3847215625
vt 0.4361271875 0.3653053125
vt 0.4225659375 0.36420062499999994
vt 0.4300753125 0.35580437499999995
vt 0.72267875 0.4424625
vt 0.72581625 0.4424625
vt 0.7242475 0.46875
vt 0.26015 0.28125
vt 0.259 0.2549625
vt 0.2644375 0.2549625
vt 0.2632875 0.28125
vt 0.259 0.2549625
vt 0.258578125 0.22867499999999996
vt 0.264859375 0.22867499999999996
vt 0.2644375 0.2549625
vt 0.258578125 0.22867499999999996
vt 0.259 0.20238750000000005
vt 0.2644375 0.20238750000000005
vt 0.264859375 0.22867499999999996
vt 0.65845375 0.46663750000000004
vt 0.65960375 0.44035
vt 0.66274125 0.44035
vt 0.66389125 0.46663750000000004
vt 0.66274125 0.44035
vt 0.65960375 0.44035
vt 0.6611725 0.4140625
vt 0.72007125 0.6612125
vt 0.72320875 0.6612125
vt 0.72164 0.6875
vt 0.72007125 0.6612125
vt 0.71892125 0.634925
vt 0.72435875 0.634925
vt 0.72320875 0.6612125
vt 0.3215 0.27808124999999995
vt 0.321078125 0.25179375000000004
vt 0.327359375 0.25179375000000004
vt 0.3269375 0.27808124999999995
vt 0.321078125 0.25179375000000004
vt 0.3215 0.22550625000000002
vt 0.3269375 0.22550625000000002
vt 0.327359375 0.25179375000000004
vt 0.3215 0.22550625000000002
vt 0.32265 0.19921875
vt 0.3257875 0.19921875
vt 0.3269375 0.22550625000000002
vt 0.72263375 0.40519375
vt 0.71949625 0.40519375
vt 0.721065 0.37890625
vn 0.09405289170265974 0.702018362884677 0.7059208678988642
vn 0.12768908613003568 0.2553775545205802 0.9583724755701013
vn 0.1317377621873706 0.07059846942969218 0.9887674236786166
vn 0.1317387493682362 -0.07059853190368223 0.9887672876910613
vn 0.12768813613439325 -0.2553773422387426 0.9583726587093356
vn 0.09405289170265974 -0.702018362884677 0.7059208678988642
vn 0.19676103969102865 0.847915607786806 0.4922643754439651
vn 0.34114328588026244 0.39391967422306495 0.8534919734589259
vn 0.3687320365508974 0.11408574921495307 0.9225080634049171
vn 0.3687296285415641 -0.1140853228461775 0.9225090786256165
vn 0.34114533009358183 -0.3939209344140707 0.8534905747491808
vn 0.19676103969102865 -0.847915607786806 0.4922643754439651
vn -0.19676103969102865 0.847915607786806 0.4922643754439651
vn -0.34114315782972954 0.3939204792386694 0.853491653094708
vn -0.36873209148507546 0.11408446033297306 0.9225082008413672
vn -0.36872969197425776 -0.11408383455275421 0.922509237325193
vn -0.3411451083045852 -0.3939223287198208 0.8534900198688948
vn -0.19676103969102865 -0.847915607786806 0.4922643754439651
vn -0.09405289170265974 0.702018362884677 0.7059208678988642
vn -0.12768910627383778 0.2553769770684983 0.9583726267597298
vn -0.13173775467149426 0.07059927351396976 0.9887673672676567
vn -0.13173874068968083 -0.07059946036830947 0.9887672225540249
vn -0.12768817102461763 -0.2553763420492353 0.9583729205804701
vn -0.09405289170265974 -0.702018362884677 0.7059208678988642
vn 0 0.6525780924579532 0.7577214747147788
vn 0 0.22486070314408685 0.9743909195910782
vn 0 0.06171597552635426 0.9980937522922536
vn 0 -0.06171597552635426 0.9980937522922536
vn 0 -0.22486070314408682 0.9743909195910782
vn 0 -0.6525780924579532 0.7577214747147788
vn 0.2588204661467373 0.9659254455202977 0
vn 0.7071067811865476 0.7071067811865476 0
vn 0.9659254455202977 0.2588204661467373 0
vn 0.9659254455202978 -0.25882046614673737 0
vn 0.7071067811865476 -0.7071067811865476 0
vn 0.2588204661467373 -0.9659254455202977 0
vn -0.2588204661467373 0.9659254455202977 0
vn -0.7071067811865476 0.7071067811865476 0
vn -0.9659254455202977 0.2588204661467373 0
vn -0.9659254455202978 -0.25882046614673737 0
vn -0.7071067811865476 -0.7071067811865476 0
vn -0.2588204661467373 -0.9659254455202977 0
usemtl m_7f2020ae-d844-bc1c-4a4e-974d1b18d26e
f 3/1/1 8/2/1 2/3/1
f 3/4/2 4/5/2 9/6/2 8/7/2
f 4/8/3 5/9/3 10/10/3 9/11/3
f 5/12/4 6/13/4 11/14/4 10/15/4
f 6/16/5 7/17/5 12/18/5 11/19/5
f 12/20/6 7/21/6 1/22/6
f 8/23/7 13/24/7 2/25/7
f 8/26/8 9/27/8 14/28/8 13/29/8
f 9/30/9 10/31/9 15/32/9 14/33/9
f 10/34/10 11/35/10 16/36/10 15/37/10
f 11/38/11 12/39/11 17/40/11 16/41/11
f 17/42/12 12/43/12 1/44/12
f 18/45/13 23/46/13 2/47/13
f 18/48/14 19/49/14 24/50/14 23/51/14
f 19/52/15 20/53/15 25/54/15 24/55/15
f 20/56/16 21/57/16 26/58/16 25/59/16
f 21/60/17 22/61/17 27/62/17 26/63/17
f 27/64/18 22/65/18 1/66/18
f 23/67/19 28/68/19 2/69/19
f 23/70/20 24/71/20 29/72/20 28/73/20
f 24/74/21 25/75/21 30/76/21 29/77/21
f 25/78/22 26/79/22 31/80/22 30/81/22
f 26/82/23 27/83/23 32/84/23 31/85/23
f 32/86/24 27/87/24 1/88/24
f 28/89/25 3/90/25 2/91/25
f 28/92/26 29/93/26 4/94/26 3/95/26
f 29/96/27 30/97/27 5/98/27 4/99/27
f 30/100/28 31/101/28 6/102/28 5/103/28
f 31/104/29 32/105/29 7/106/29 6/107/29
f 7/108/30 32/109/30 1/110/30
f 13/111/31 33/112/31 2/113/31
f 13/114/32 14/115/32 34/116/32 33/117/32
f 14/118/33 15/119/33 35/120/33 34/121/33
f 15/122/34 16/123/34 36/124/34 35/125/34
f 16/126/35 17/127/35 37/128/35 36/129/35
f 37/130/36 17/131/36 1/132/36
f 38/133/37 18/134/37 2/135/37
f 38/136/38 39/137/38 19/138/38 18/139/38
f 39/140/39 40/141/39 20/142/39 19/143/39
f 40/144/40 41/145/40 21/146/40 20/147/40
f 41/148/41 42/149/41 22/150/41 21/151/41
f 22/152/42 42/153/42 1/154/42
o light
v 0.796875 0.5234375 0.0875
v 0.796875 0.7265625 0.0875
v 0.810481875 0.712955625 0.09921875
v 0.8204425 0.67578125 0.10779749999999999
v 0.82408875 0.625 0.1109375
v 0.8204425 0.57421875 0.10779749999999999
v 0.810481875 0.537044375 0.09921875
v 0.834049375 0.712955625 0.09607874999999999
v 0.861263125 0.67578125 0.10235875
v 0.87122375 0.625 0.10465749999999999
v 0.861263125 0.57421875 0.10235875
v 0.834049375 0.537044375 0.09607874999999999
v 0.84765625 0.712955625 0.09064
v 0.884830625 0.67578125 0.09293875
v 0.8984375 0.625 0.09377999999999999
v 0.884830625 0.57421875 0.09293875
v 0.84765625 0.537044375 0.09064
v 0.74609375 0.712955625 0.09064
v 0.708919375 0.67578125 0.09293875
v 0.6953125 0.625 0.09377999999999999
v 0.708919375 0.57421875 0.09293875
v 0.74609375 0.537044375 0.09064
v 0.759700625 0.712955625 0.09607874999999999
v 0.732486875 0.67578125 0.10235875
v 0.72252625 0.625 0.10465749999999999
v 0.732486875 0.57421875 0.10235875
v 0.759700625 0.537044375 0.09607874999999999
v 0.783268125 0.712955625 0.09921875
v 0.7733075 0.67578125 0.10779749999999999
v 0.76966125 0.625 0.1109375
v 0.7733075 0.57421875 0.10779749999999999
v 0.783268125 0.537044375 0.09921875
v 0.84765625 0.712955625 0.08435999999999999
v 0.884830625 0.67578125 0.08206124999999999
v 0.8984375 0.625 0.08122
v 0.884830625 0.57421875 0.08206124999999999
v 0.84765625 0.537044375 0.08435999999999999
v 0.74609375 0.712955625 0.08435999999999999
v 0.708919375 0.67578125 0.08206124999999999
v 0.6953125 0.625 0.08122
v 0.708919375 0.57421875 0.08206124999999999
v 0.74609375 0.537044375 0.08435999999999999
vt 0.726390625 0.584196875
vt 0.73828125 0.584196875
vt 0.720421875 0.59375
vt 0.43575875 0.4560865625
vt 0.4399628125 0.43682437500000004
vt 0.4605525 0.43664468749999996
vt 0.44764875 0.45598281249999995
vt 0.4399628125 0.43682437500000004
vt 0.441340625 0.411358125
vt 0.4651146875 0.4111509375
vt 0.4605525 0.43664468749999996
vt 0.441340625 0.411358125
vt 0.43951875 0.38592000000000004
vt 0.4601084375 0.38574031249999996
vt 0.4651146875 0.4111509375
vt 0.4395434375 0.38472281249999996
vt 0.4361271875 0.3653053125
vt 0.448003125 0.36589312500000004
vt 0.46010875 0.38574062499999995
vt 0.448003125 0.36589312500000004
vt 0.4361271875 0.3653053125
vt 0.4306378125 0.35546875
vt 0.71949625 0.44906
vt 0.72267875 0.4424625
vt 0.7242475 0.46874875000000005
vt 0.450911875 0.457409375
vt 0.4617325 0.43683343750000003
vt 0.474416875 0.4364303125
vt 0.458233125 0.45717656250000005
vt 0.4617325 0.43683343750000003
vt 0.4651153125 0.4111534375
vt 0.4797609375 0.41068812499999996
vt 0.474416875 0.4364303125
vt 0.4651153125 0.4111534375
vt 0.4601084375 0.38574031249999996
vt 0.4727928125 0.3853371875
vt 0.4797609375 0.41068812499999996
vt 0.4601084375 0.38574031249999996
vt 0.448003125 0.36589312500000004
vt 0.4553246875 0.3656603125
vt 0.4727928125 0.3853371875
vt 0.65960375 0.44035
vt 0.65642125 0.4337525
vt 0.6611725 0.41406374999999995
vt 0.72320875 0.6612125
vt 0.72639125 0.66781
vt 0.72164 0.68749875
vt 0.397235625 0.45717656250000005
vt 0.381051875 0.4364303125
vt 0.39373625 0.43683343750000003
vt 0.404556875 0.457409375
vt 0.381051875 0.4364303125
vt 0.3757078125 0.41068812499999996
vt 0.3903534375 0.4111534375
vt 0.39373625 0.43683343750000003
vt 0.3757078125 0.41068812499999996
vt 0.3826759375 0.3853371875
vt 0.3953603125 0.38574031249999996
vt 0.3903534375 0.4111534375
vt 0.3826759375 0.3853371875
vt 0.4001440625 0.3656603125
vt 0.407465625 0.36589312500000004
vt 0.3953603125 0.38574031249999996
vt 0.72581625 0.39859625
vt 0.72263375 0.40519375
vt 0.721065 0.37890749999999995
vt 0.71875 0.521696875
vt 0.730640625 0.521696875
vt 0.736609375 0.53125
vt 0.40782 0.45598281249999995
vt 0.39491625 0.43664468749999996
vt 0.4155059375 0.43682437500000004
vt 0.41971 0.4560865625
vt 0.39491625 0.43664468749999996
vt 0.3903540625 0.4111509375
vt 0.414128125 0.411358125
vt 0.4155059375 0.43682437500000004
vt 0.3903540625 0.4111509375
vt 0.3953603125 0.38574031249999996
vt 0.41595 0.38592000000000004
vt 0.414128125 0.411358125
vt 0.39536 0.38574062499999995
vt 0.407465625 0.36589312500000004
vt 0.4193415625 0.3653053125
vt 0.4159253125 0.38472281249999996
vt 0.4193415625 0.3653053125
vt 0.407465625 0.36589312500000004
vt 0.4248309375 0.35546875
vt 0.4217109375 0.45621999999999996
vt 0.435315 0.45598249999999996
vt 0.428669375 0.4650778125
vt 0.4217109375 0.45621999999999996
vt 0.4163975 0.43723468750000005
vt 0.4399628125 0.43682343749999997
vt 0.435315 0.45598249999999996
vt 0.4163975 0.43723468750000005
vt 0.4141321875 0.41183281250000003
vt 0.441340625 0.411358125
vt 0.4399628125 0.43682343749999997
vt 0.414128125 0.41135750000000004
vt 0.41595 0.38592000000000004
vt 0.43951875 0.38592000000000004
vt 0.441340625 0.41135750000000004
vt 0.4160521875 0.38280812500000005
vt 0.4225659375 0.36420062499999994
vt 0.4361271875 0.3653053125
vt 0.439543125 0.3847215625
vt 0.4361271875 0.3653053125
vt 0.4225659375 0.36420062499999994
vt 0.4300753125 0.35580437499999995
vt 0.72267875 0.4424625
vt 0.72581625 0.4424625
vt 0.7242475 0.46875
vt 0.26015 0.28125
vt 0.259 0.2549625
vt 0.2644375 0.2549625
vt 0.2632875 0.28125
vt 0.259 0.2549625
vt 0.258578125 0.22867499999999996
vt 0.264859375 0.22867499999999996
vt 0.2644375 0.2549625
vt 0.258578125 0.22867499999999996
vt 0.259 0.20238750000000005
vt 0.2644375 0.20238750000000005
vt 0.264859375 0.22867499999999996
vt 0.65845375 0.46663750000000004
vt 0.65960375 0.44035
vt 0.66274125 0.44035
vt 0.66389125 0.46663750000000004
vt 0.66274125 0.44035
vt 0.65960375 0.44035
vt 0.6611725 0.4140625
vt 0.72007125 0.6612125
vt 0.72320875 0.6612125
vt 0.72164 0.6875
vt 0.72007125 0.6612125
vt 0.71892125 0.634925
vt 0.72435875 0.634925
vt 0.72320875 0.6612125
vt 0.3215 0.27808124999999995
vt 0.321078125 0.25179375000000004
vt 0.327359375 0.25179375000000004
vt 0.3269375 0.27808124999999995
vt 0.321078125 0.25179375000000004
vt 0.3215 0.22550625000000002
vt 0.3269375 0.22550625000000002
vt 0.327359375 0.25179375000000004
vt 0.3215 0.22550625000000002
vt 0.32265 0.19921875
vt 0.3257875 0.19921875
vt 0.3269375 0.22550625000000002
vt 0.72263375 0.40519375
vt 0.71949625 0.40519375
vt 0.721065 0.37890625
vn 0.09405289170265974 0.702018362884677 0.7059208678988642
vn 0.12768908613003568 0.2553775545205802 0.9583724755701013
vn 0.1317377621873706 0.07059846942969218 0.9887674236786166
vn 0.1317387493682362 -0.07059853190368223 0.9887672876910613
vn 0.12768813613439325 -0.2553773422387426 0.9583726587093356
vn 0.09405289170265974 -0.702018362884677 0.7059208678988642
vn 0.19676103969102865 0.847915607786806 0.4922643754439651
vn 0.34114328588026244 0.39391967422306495 0.8534919734589259
vn 0.3687320365508974 0.11408574921495307 0.9225080634049171
vn 0.3687296285415641 -0.1140853228461775 0.9225090786256165
vn 0.34114533009358183 -0.3939209344140707 0.8534905747491808
vn 0.19676103969102865 -0.847915607786806 0.4922643754439651
vn -0.19676103969102865 0.847915607786806 0.4922643754439651
vn -0.34114315782972954 0.3939204792386694 0.853491653094708
vn -0.36873209148507546 0.11408446033297306 0.9225082008413672
vn -0.36872969197425776 -0.11408383455275421 0.922509237325193
vn -0.3411451083045852 -0.3939223287198208 0.8534900198688948
vn -0.19676103969102865 -0.847915607786806 0.4922643754439651
vn -0.09405289170265974 0.702018362884677 0.7059208678988642
vn -0.12768910627383778 0.2553769770684983 0.9583726267597298
vn -0.13173775467149426 0.07059927351396976 0.9887673672676567
vn -0.13173874068968083 -0.07059946036830947 0.9887672225540249
vn -0.12768817102461763 -0.2553763420492353 0.9583729205804701
vn -0.09405289170265974 -0.702018362884677 0.7059208678988642
vn 0 0.6525780924579532 0.7577214747147788
vn 0 0.22486070314408685 0.9743909195910782
vn 0 0.06171597552635426 0.9980937522922536
vn 0 -0.06171597552635426 0.9980937522922536
vn 0 -0.22486070314408682 0.9743909195910782
vn 0 -0.6525780924579532 0.7577214747147788
vn 0.2588204661467373 0.9659254455202977 0
vn 0.7071067811865476 0.7071067811865476 0
vn 0.9659254455202977 0.2588204661467373 0
vn 0.9659254455202978 -0.25882046614673737 0
vn 0.7071067811865476 -0.7071067811865476 0
vn 0.2588204661467373 -0.9659254455202977 0
vn -0.2588204661467373 0.9659254455202977 0
vn -0.7071067811865476 0.7071067811865476 0
vn -0.9659254455202977 0.2588204661467373 0
vn -0.9659254455202978 -0.25882046614673737 0
vn -0.7071067811865476 -0.7071067811865476 0
vn -0.2588204661467373 -0.9659254455202977 0
usemtl m_7f2020ae-d844-bc1c-4a4e-974d1b18d26e
f 45/155/43 50/156/43 44/157/43
f 45/158/44 46/159/44 51/160/44 50/161/44
f 46/162/45 47/163/45 52/164/45 51/165/45
f 47/166/46 48/167/46 53/168/46 52/169/46
f 48/170/47 49/171/47 54/172/47 53/173/47
f 54/174/48 49/175/48 43/176/48
f 50/177/49 55/178/49 44/179/49
f 50/180/50 51/181/50 56/182/50 55/183/50
f 51/184/51 52/185/51 57/186/51 56/187/51
f 52/188/52 53/189/52 58/190/52 57/191/52
f 53/192/53 54/193/53 59/194/53 58/195/53
f 59/196/54 54/197/54 43/198/54
f 60/199/55 65/200/55 44/201/55
f 60/202/56 61/203/56 66/204/56 65/205/56
f 61/206/57 62/207/57 67/208/57 66/209/57
f 62/210/58 63/211/58 68/212/58 67/213/58
f 63/214/59 64/215/59 69/216/59 68/217/59
f 69/218/60 64/219/60 43/220/60
f 65/221/61 70/222/61 44/223/61
f 65/224/62 66/225/62 71/226/62 70/227/62
f 66/228/63 67/229/63 72/230/63 71/231/63
f 67/232/64 68/233/64 73/234/64 72/235/64
f 68/236/65 69/237/65 74/238/65 73/239/65
f 74/240/66 69/241/66 43/242/66
f 70/243/67 45/244/67 44/245/67
f 70/246/68 71/247/68 46/248/68 45/249/68
f 71/250/69 72/251/69 47/252/69 46/253/69
f 72/254/70 73/255/70 48/256/70 47/257/70
f 73/258/71 74/259/71 49/260/71 48/261/71
f 49/262/72 74/263/72 43/264/72
f 55/265/73 75/266/73 44/267/73
f 55/268/74 56/269/74 76/270/74 75/271/74
f 56/272/75 57/273/75 77/274/75 76/275/75
f 57/276/76 58/277/76 78/278/76 77/279/76
f 58/280/77 59/281/77 79/282/77 78/283/77
f 79/284/78 59/285/78 43/286/78
f 80/287/79 60/288/79 44/289/79
f 80/290/80 81/291/80 61/292/80 60/293/80
f 81/294/81 82/295/81 62/296/81 61/297/81
f 82/298/82 83/299/82 63/300/82 62/301/82
f 83/302/83 84/303/83 64/304/83 63/305/83
f 64/306/84 84/307/84 43/308/84
o light
v 0.5625 0.5234375 0.0875
v 0.5625 0.7265625 0.0875
v 0.576106875 0.712955625 0.09921875
v 0.5860675 0.67578125 0.10779749999999999
v 0.58971375 0.625 0.1109375
v 0.5860675 0.57421875 0.10779749999999999
v 0.576106875 0.537044375 0.09921875
v 0.599674375 0.712955625 0.09607874999999999
v 0.626888125 0.67578125 0.10235875
v 0.63684875 0.625 0.10465749999999999
v 0.626888125 0.57421875 0.10235875
v 0.599674375 0.537044375 0.09607874999999999
v 0.61328125 0.712955625 0.09064
v 0.650455625 0.67578125 0.09293875
v 0.6640625 0.625 0.09377999999999999
v 0.650455625 0.57421875 0.09293875
v 0.61328125 0.537044375 0.09064
v 0.51171875 0.712955625 0.09064
v 0.474544375 0.67578125 0.09293875
v 0.4609375 0.625 0.09377999999999999
v 0.474544375 0.57421875 0.09293875
v 0.51171875 0.537044375 0.09064
v 0.525325625 0.712955625 0.09607874999999999
v 0.498111875 0.67578125 0.10235875
v 0.48815125 0.625 0.10465749999999999
v 0.498111875 0.57421875 0.10235875
v 0.525325625 0.537044375 0.09607874999999999
v 0.548893125 0.712955625 0.09921875
v 0.5389325 0.67578125 0.10779749999999999
v 0.53528625 0.625 0.1109375
v 0.5389325 0.57421875 0.10779749999999999
v 0.548893125 0.537044375 0.09921875
v 0.61328125 0.712955625 0.08435999999999999
v 0.650455625 0.67578125 0.08206124999999999
v 0.6640625 0.625 0.08122
v 0.650455625 0.57421875 0.08206124999999999
v 0.61328125 0.537044375 0.08435999999999999
v 0.51171875 0.712955625 0.08435999999999999
v 0.474544375 0.67578125 0.08206124999999999
v 0.4609375 0.625 0.08122
v 0.474544375 0.57421875 0.08206124999999999
v 0.51171875 0.537044375 0.08435999999999999
vt 0.726390625 0.584196875
vt 0.73828125 0.584196875
vt 0.720421875 0.59375
vt 0.43575875 0.4560865625
vt 0.4399628125 0.43682437500000004
vt 0.4605525 0.43664468749999996
vt 0.44764875 0.45598281249999995
vt 0.4399628125 0.43682437500000004
vt 0.441340625 0.411358125
vt 0.4651146875 0.4111509375
vt 0.4605525 0.43664468749999996
vt 0.441340625 0.411358125
vt 0.43951875 0.38592000000000004
vt 0.4601084375 0.38574031249999996
vt 0.4651146875 0.4111509375
vt 0.4395434375 0.38472281249999996
vt 0.4361271875 0.3653053125
vt 0.448003125 0.36589312500000004
vt 0.46010875 0.38574062499999995
vt 0.448003125 0.36589312500000004
vt 0.4361271875 0.3653053125
vt 0.4306378125 0.35546875
vt 0.71949625 0.44906
vt 0.72267875 0.4424625
vt 0.7242475 0.46874875000000005
vt 0.450911875 0.457409375
vt 0.4617325 0.43683343750000003
vt 0.474416875 0.4364303125
vt 0.458233125 0.45717656250000005
vt 0.4617325 0.43683343750000003
vt 0.4651153125 0.4111534375
vt 0.4797609375 0.41068812499999996
vt 0.474416875 0.4364303125
vt 0.4651153125 0.4111534375
vt 0.4601084375 0.38574031249999996
vt 0.4727928125 0.3853371875
vt 0.4797609375 0.41068812499999996
vt 0.4601084375 0.38574031249999996
vt 0.448003125 0.36589312500000004
vt 0.4553246875 0.3656603125
vt 0.4727928125 0.3853371875
vt 0.65960375 0.44035
vt 0.65642125 0.4337525
vt 0.6611725 0.41406374999999995
vt 0.72320875 0.6612125
vt 0.72639125 0.66781
vt 0.72164 0.68749875
vt 0.397235625 0.45717656250000005
vt 0.381051875 0.4364303125
vt 0.39373625 0.43683343750000003
vt 0.404556875 0.457409375
vt 0.381051875 0.4364303125
vt 0.3757078125 0.41068812499999996
vt 0.3903534375 0.4111534375
vt 0.39373625 0.43683343750000003
vt 0.3757078125 0.41068812499999996
vt 0.3826759375 0.3853371875
vt 0.3953603125 0.38574031249999996
vt 0.3903534375 0.4111534375
vt 0.3826759375 0.3853371875
vt 0.4001440625 0.3656603125
vt 0.407465625 0.36589312500000004
vt 0.3953603125 0.38574031249999996
vt 0.72581625 0.39859625
vt 0.72263375 0.40519375
vt 0.721065 0.37890749999999995
vt 0.71875 0.521696875
vt 0.730640625 0.521696875
vt 0.736609375 0.53125
vt 0.40782 0.45598281249999995
vt 0.39491625 0.43664468749999996
vt 0.4155059375 0.43682437500000004
vt 0.41971 0.4560865625
vt 0.39491625 0.43664468749999996
vt 0.3903540625 0.4111509375
vt 0.414128125 0.411358125
vt 0.4155059375 0.43682437500000004
vt 0.3903540625 0.4111509375
vt 0.3953603125 0.38574031249999996
vt 0.41595 0.38592000000000004
vt 0.414128125 0.411358125
vt 0.39536 0.38574062499999995
vt 0.407465625 0.36589312500000004
vt 0.4193415625 0.3653053125
vt 0.4159253125 0.38472281249999996
vt 0.4193415625 0.3653053125
vt 0.407465625 0.36589312500000004
vt 0.4248309375 0.35546875
vt 0.4217109375 0.45621999999999996
vt 0.435315 0.45598249999999996
vt 0.428669375 0.4650778125
vt 0.4217109375 0.45621999999999996
vt 0.4163975 0.43723468750000005
vt 0.4399628125 0.43682343749999997
vt 0.435315 0.45598249999999996
vt 0.4163975 0.43723468750000005
vt 0.4141321875 0.41183281250000003
vt 0.441340625 0.411358125
vt 0.4399628125 0.43682343749999997
vt 0.414128125 0.41135750000000004
vt 0.41595 0.38592000000000004
vt 0.43951875 0.38592000000000004
vt 0.441340625 0.41135750000000004
vt 0.4160521875 0.38280812500000005
vt 0.4225659375 0.36420062499999994
vt 0.4361271875 0.3653053125
vt 0.439543125 0.3847215625
vt 0.4361271875 0.3653053125
vt 0.4225659375 0.36420062499999994
vt 0.4300753125 0.35580437499999995
vt 0.72267875 0.4424625
vt 0.72581625 0.4424625
vt 0.7242475 0.46875
vt 0.26015 0.28125
vt 0.259 0.2549625
vt 0.2644375 0.2549625
vt 0.2632875 0.28125
vt 0.259 0.2549625
vt 0.258578125 0.22867499999999996
vt 0.264859375 0.22867499999999996
vt 0.2644375 0.2549625
vt 0.258578125 0.22867499999999996
vt 0.259 0.20238750000000005
vt 0.2644375 0.20238750000000005
vt 0.264859375 0.22867499999999996
vt 0.65845375 0.46663750000000004
vt 0.65960375 0.44035
vt 0.66274125 0.44035
vt 0.66389125 0.46663750000000004
vt 0.66274125 0.44035
vt 0.65960375 0.44035
vt 0.6611725 0.4140625
vt 0.72007125 0.6612125
vt 0.72320875 0.6612125
vt 0.72164 0.6875
vt 0.72007125 0.6612125
vt 0.71892125 0.634925
vt 0.72435875 0.634925
vt 0.72320875 0.6612125
vt 0.3215 0.27808124999999995
vt 0.321078125 0.25179375000000004
vt 0.327359375 0.25179375000000004
vt 0.3269375 0.27808124999999995
vt 0.321078125 0.25179375000000004
vt 0.3215 0.22550625000000002
vt 0.3269375 0.22550625000000002
vt 0.327359375 0.25179375000000004
vt 0.3215 0.22550625000000002
vt 0.32265 0.19921875
vt 0.3257875 0.19921875
vt 0.3269375 0.22550625000000002
vt 0.72263375 0.40519375
vt 0.71949625 0.40519375
vt 0.721065 0.37890625
vn 0.09405289170265974 0.702018362884677 0.7059208678988642
vn 0.12768908613003568 0.2553775545205802 0.9583724755701013
vn 0.1317377621873706 0.07059846942969218 0.9887674236786166
vn 0.1317387493682362 -0.07059853190368223 0.9887672876910613
vn 0.12768813613439325 -0.2553773422387426 0.9583726587093356
vn 0.09405289170265974 -0.702018362884677 0.7059208678988642
vn 0.19676103969102865 0.847915607786806 0.4922643754439651
vn 0.34114328588026244 0.39391967422306495 0.8534919734589259
vn 0.3687320365508974 0.11408574921495307 0.9225080634049171
vn 0.3687296285415641 -0.1140853228461775 0.9225090786256165
vn 0.34114533009358183 -0.3939209344140707 0.8534905747491808
vn 0.19676103969102865 -0.847915607786806 0.4922643754439651
vn -0.19676103969102865 0.847915607786806 0.4922643754439651
vn -0.34114315782972954 0.3939204792386694 0.853491653094708
vn -0.36873209148507546 0.11408446033297306 0.9225082008413672
vn -0.36872969197425776 -0.11408383455275421 0.922509237325193
vn -0.3411451083045852 -0.3939223287198208 0.8534900198688948
vn -0.19676103969102865 -0.847915607786806 0.4922643754439651
vn -0.09405289170265974 0.702018362884677 0.7059208678988642
vn -0.12768910627383778 0.2553769770684983 0.9583726267597298
vn -0.13173775467149426 0.07059927351396976 0.9887673672676567
vn -0.13173874068968083 -0.07059946036830947 0.9887672225540249
vn -0.12768817102461763 -0.2553763420492353 0.9583729205804701
vn -0.09405289170265974 -0.702018362884677 0.7059208678988642
vn 0 0.6525780924579532 0.7577214747147788
vn 0 0.22486070314408685 0.9743909195910782
vn 0 0.06171597552635426 0.9980937522922536
vn 0 -0.06171597552635426 0.9980937522922536
vn 0 -0.22486070314408682 0.9743909195910782
vn 0 -0.6525780924579532 0.7577214747147788
vn 0.2588204661467373 0.9659254455202977 0
vn 0.7071067811865476 0.7071067811865476 0
vn 0.9659254455202977 0.2588204661467373 0
vn 0.9659254455202978 -0.25882046614673737 0
vn 0.7071067811865476 -0.7071067811865476 0
vn 0.2588204661467373 -0.9659254455202977 0
vn -0.2588204661467373 0.9659254455202977 0
vn -0.7071067811865476 0.7071067811865476 0
vn -0.9659254455202977 0.2588204661467373 0
vn -0.9659254455202978 -0.25882046614673737 0
vn -0.7071067811865476 -0.7071067811865476 0
vn -0.2588204661467373 -0.9659254455202977 0
usemtl m_7f2020ae-d844-bc1c-4a4e-974d1b18d26e
f 87/309/85 92/310/85 86/311/85
f 87/312/86 88/313/86 93/314/86 92/315/86
f 88/316/87 89/317/87 94/318/87 93/319/87
f 89/320/88 90/321/88 95/322/88 94/323/88
f 90/324/89 91/325/89 96/326/89 95/327/89
f 96/328/90 91/329/90 85/330/90
f 92/331/91 97/332/91 86/333/91
f 92/334/92 93/335/92 98/336/92 97/337/92
f 93/338/93 94/339/93 99/340/93 98/341/93
f 94/342/94 95/343/94 100/344/94 99/345/94
f 95/346/95 96/347/95 101/348/95 100/349/95
f 101/350/96 96/351/96 85/352/96
f 102/353/97 107/354/97 86/355/97
f 102/356/98 103/357/98 108/358/98 107/359/98
f 103/360/99 104/361/99 109/362/99 108/363/99
f 104/364/100 105/365/100 110/366/100 109/367/100
f 105/368/101 106/369/101 111/370/101 110/371/101
f 111/372/102 106/373/102 85/374/102
f 107/375/103 112/376/103 86/377/103
f 107/378/104 108/379/104 113/380/104 112/381/104
f 108/382/105 109/383/105 114/384/105 113/385/105
f 109/386/106 110/387/106 115/388/106 114/389/106
f 110/390/107 111/391/107 116/392/107 115/393/107
f 116/394/108 111/395/108 85/396/108
f 112/397/109 87/398/109 86/399/109
f 112/400/110 113/401/110 88/402/110 87/403/110
f 113/404/111 114/405/111 89/406/111 88/407/111
f 114/408/112 115/409/112 90/410/112 89/411/112
f 115/412/113 116/413/113 91/414/113 90/415/113
f 91/416/114 116/417/114 85/418/114
f 97/419/115 117/420/115 86/421/115
f 97/422/116 98/423/116 118/424/116 117/425/116
f 98/426/117 99/427/117 119/428/117 118/429/117
f 99/430/118 100/431/118 120/432/118 119/433/118
f 100/434/119 101/435/119 121/436/119 120/437/119
f 121/438/120 101/439/120 85/440/120
f 122/441/121 102/442/121 86/443/121
f 122/444/122 123/445/122 103/446/122 102/447/122
f 123/448/123 124/449/123 104/450/123 103/451/123
f 124/452/124 125/453/124 105/454/124 104/455/124
f 125/456/125 126/457/125 106/458/125 105/459/125
f 106/460/126 126/461/126 85/462/126
o box
v 1.59375 0.75 0.09375
v 1.59375 0.75 -0.09375
v 1.59375 0.5 0.09375
v 1.59375 0.5 -0.09375
v 0.40625 0.75 -0.09375
v 0.40625 0.75 0.09375
v 0.40625 0.5 -0.09375
v 0.40625 0.5 0.09375
vt 0 1
vt 0.15625 1
vt 0.15625 0.5
vt 0 0.5
vt 0.375 1
vt 0.46875 1
vt 0.46875 0.5
vt 0.375 0.5
vt 0.1875 1
vt 0.34375 1
vt 0.34375 0.5
vt 0.1875 0.5
vt 0.5 1
vt 0.59375 1
vt 0.59375 0.5
vt 0.5 0.5
vt 0.15625 0.375
vt 0 0.375
vt 0 0.46875
vt 0.15625 0.46875
vt 0.34375 0.46875
vt 0.1875 0.46875
vt 0.1875 0.375
vt 0.34375 0.375
vn 0 0 -1
vn 1 0 0
vn 0 0 1
vn -1 0 0
vn 0 1 0
vn 0 -1 0
usemtl m_7f2020ae-d844-bc1c-4a4e-974d1b18d26e
f 130/466/127 133/465/127 131/464/127 128/463/127
f 129/470/128 130/469/128 128/468/128 127/467/128
f 134/474/129 129/473/129 127/472/129 132/471/129
f 133/478/130 134/477/130 132/476/130 131/475/130
f 132/482/131 127/481/131 128/480/131 131/479/131
f 133/486/132 130/485/132 129/484/132 134/483/132
o cylinder
v 0.34375 0.5625 0
v 0.34375 1.5625 0
v 0.3521234122634726 0.5625 0.031249999999999997
v 0.3521234122634726 1.5625 0.031249999999999997
v 0.3666265877365274 0.5625 0.022876587736527416
v 0.3666265877365274 1.5625 0.022876587736527416
v 0.375 0.5625 0.008373412263472583
v 0.375 1.5625 0.008373412263472583
v 0.375 0.5625 -0.008373412263472586
v 0.375 1.5625 -0.008373412263472586
v 0.3666265877365274 0.5625 -0.022876587736527412
v 0.3666265877365274 1.5625 -0.022876587736527412
v 0.3521234122634726 0.5625 -0.031249999999999993
v 0.3521234122634726 1.5625 -0.031249999999999993
v 0.33537658773652745 0.5625 -0.03125
v 0.33537658773652745 1.5625 -0.03125
v 0.3208734122634726 0.5625 -0.02287658773652742
v 0.3208734122634726 1.5625 -0.02287658773652742
v 0.3125 0.5625 -0.008373412263472579
v 0.3125 1.5625 -0.008373412263472579
v 0.3125 0.5625 0.008373412263472569
v 0.3125 1.5625 0.008373412263472569
v 0.3208734122634726 0.5625 0.02287658773652741
v 0.3208734122634726 1.5625 0.02287658773652741
v 0.3353765877365274 0.5625 0.031249999999999997
v 0.3353765877365274 1.5625 0.031249999999999997
vt 0.055237567619642276 0.9292972476635325
vt 0.053072053102258474 0.93359375
vt 0.0390625 0.9292972476635325
vt 0.03906250000000046 0.66796875
vt 0.04743750000000045 0.66796875
vt 0.04743750000000045 0.93359375
vt 0.03906250000000046 0.93359375
vt 0.0390625 0.9250000397284299
vt 0.047149369771514335 0.9261517859974914
vt 0.0390625 0.93359375
vt 0.05523889580530843 0.929297600433883
vt 0.05307090282825161 0.93359375
vt 0.0390625 0.929297600433883
vt 0.03906250000000046 0.66796875
vt 0.04743750000000045 0.66796875
vt 0.04743750000000045 0.93359375
vt 0.03906250000000046 0.93359375
vt 0.0390625 0.925000745327065
vt 0.047150033809821135 0.9261511749144252
vt 0.0390625 0.93359375
vt 0.0546875 0.9291445312499997
vt 0.0546875 0.9335937499999998
vt 0.0390625 0.9313691406249998
vt 0.03906250000000046 0.66796875
vt 0.04743750000000045 0.66796875
vt 0.04743750000000045 0.93359375
vt 0.03906250000000046 0.93359375
vt 0.0546875 0.9291445312499997
vt 0.0546875 0.9335937499999998
vt 0.0390625 0.9313691406249998
vt 0.0390625 0.925000745327065
vt 0.047150033809821135 0.9261511749144252
vt 0.0390625 0.93359375
vt 0.03906250000000046 0.66796875
vt 0.04743750000000045 0.66796875
vt 0.04743750000000045 0.93359375
vt 0.03906250000000046 0.93359375
vt 0.05523889580530843 0.929297600433883
vt 0.05307090282825161 0.93359375
vt 0.0390625 0.929297600433883
vt 0.0390625 0.9250000397284299
vt 0.047149369771514335 0.9261517859974914
vt 0.0390625 0.93359375
vt 0.03906250000000046 0.66796875
vt 0.04743750000000045 0.66796875
vt 0.04743750000000045 0.93359375
vt 0.03906250000000046 0.93359375
vt 0.055237567619642276 0.9292972476635325
vt 0.053072053102258474 0.93359375
vt 0.0390625 0.9292972476635325
vt 0.03906250000000046 0.92529296875
vt 0.04743750000000045 0.92529296875
vt 0.043250000000000455 0.93359375
vt 0.03906250000000046 0.66796875
vt 0.04743750000000045 0.66796875
vt 0.04743750000000045 0.93359375
vt 0.03906250000000046 0.93359375
vt 0.04743750000000045 0.93359375
vt 0.03906250000000046 0.93359375
vt 0.043250000000000455 0.92529296875
vt 0.0390625 0.93359375
vt 0.0412280145173838 0.9292972476635325
vt 0.055237567619642276 0.93359375
vt 0.03906250000000046 0.66796875
vt 0.04743750000000045 0.66796875
vt 0.04743750000000045 0.93359375
vt 0.03906250000000046 0.93359375
vt 0.047149369771514335 0.93359375
vt 0.0390625 0.9324420037309386
vt 0.047149369771514335 0.9250000397284299
vt 0.0390625 0.93359375
vt 0.04123049297705682 0.929297600433883
vt 0.05523889580530843 0.93359375
vt 0.03906250000000046 0.66796875
vt 0.04743750000000045 0.66796875
vt 0.04743750000000045 0.93359375
vt 0.03906250000000046 0.93359375
vt 0.047150033809821135 0.93359375
vt 0.0390625 0.9324433204126399
vt 0.047150033809821135 0.925000745327065
vt 0.0390625 0.9335937499999998
vt 0.0390625 0.9291445312499997
vt 0.0546875 0.9313691406249998
vt 0.03906250000000046 0.66796875
vt 0.04743750000000045 0.66796875
vt 0.04743750000000045 0.93359375
vt 0.03906250000000046 0.93359375
vt 0.0390625 0.9335937499999998
vt 0.0390625 0.9291445312499997
vt 0.0546875 0.9313691406249998
vt 0.047150033809821135 0.93359375
vt 0.0390625 0.9324433204126399
vt 0.047150033809821135 0.925000745327065
vt 0.03906250000000046 0.66796875
vt 0.04743750000000045 0.66796875
vt 0.04743750000000045 0.93359375
vt 0.03906250000000046 0.93359375
vt 0.0390625 0.93359375
vt 0.04123049297705682 0.929297600433883
vt 0.05523889580530843 0.93359375
vt 0.047149369771514335 0.93359375
vt 0.0390625 0.9324420037309386
vt 0.047149369771514335 0.9250000397284299
vt 0.03906250000000046 0.66796875
vt 0.04743750000000045 0.66796875
vt 0.04743750000000045 0.93359375
vt 0.03906250000000046 0.93359375
vt 0.0390625 0.93359375
vt 0.0412280145173838 0.9292972476635325
vt 0.055237567619642276 0.93359375
vt 0.04743750000000045 0.93359375
vt 0.03906250000000046 0.93359375
vt 0.043250000000000455 0.92529296875
vt 0.03906250000000046 0.66796875
vt 0.04743750000000045 0.66796875
vt 0.04743750000000045 0.93359375
vt 0.03906250000000046 0.93359375
vt 0.03906250000000046 0.92529296875
vt 0.04743750000000045 0.92529296875
vt 0.043250000000000455 0.93359375
vn 0 -1 0
vn 0.4999999999999999 0 0.8660254037844388
vn 0 1 0
vn 0 -1 0
vn 0.8660254037844388 0 0.5
vn 0 1 0
vn 0 -1 0
vn 1 0 0
vn 0 1 0
vn 0 -1 0
vn 0.8660254037844388 0 -0.5
vn 0 1 0
vn 0 -1 0
vn 0.5000000000000001 0 -0.8660254037844388
vn 0 1 0
vn 0 -1 0
vn 4.143408735633879e-16 0 -1
vn 0 1 0
vn 0 -1 0
vn -0.4999999999999996 0 -0.8660254037844389
vn 0 1 0
vn 0 -1 0
vn -0.8660254037844389 0 -0.4999999999999998
vn 0 1 0
vn 0 -1 0
vn -1 0 -2.0717043678169412e-16
vn 0 1 0
vn 0 -1 0
vn -0.8660254037844389 0 0.4999999999999996
vn 0 1 0
vn 0 -1 0
vn -0.4999999999999999 0 0.8660254037844386
vn 0 1 0
vn 0 -1 0
vn 0 0 1
vn 0 1 0
usemtl m_7f2020ae-d844-bc1c-4a4e-974d1b18d26e
f 139/487/133 137/488/133 135/489/133
f 137/490/134 139/491/134 140/492/134 138/493/134
f 138/494/135 140/495/135 136/496/135
f 141/497/136 139/498/136 135/499/136
f 139/500/137 141/501/137 142/502/137 140/503/137
f 140/504/138 142/505/138 136/506/138
f 143/507/139 141/508/139 135/509/139
f 141/510/140 143/511/140 144/512/140 142/513/140
f 142/514/141 144/515/141 136/516/141
f 145/517/142 143/518/142 135/519/142
f 143/520/143 145/521/143 146/522/143 144/523/143
f 144/524/144 146/525/144 136/526/144
f 147/527/145 145/528/145 135/529/145
f 145/530/146 147/531/146 148/532/146 146/533/146
f 146/534/147 148/535/147 136/536/147
f 149/537/148 147/538/148 135/539/148
f 147/540/149 149/541/149 150/542/149 148/543/149
f 148/544/150 150/545/150 136/546/150
f 151/547/151 149/548/151 135/549/151
f 149/550/152 151/551/152 152/552/152 150/553/152
f 150/554/153 152/555/153 136/556/153
f 153/557/154 151/558/154 135/559/154
f 151/560/155 153/561/155 154/562/155 152/563/155
f 152/564/156 154/565/156 136/566/156
f 155/567/157 153/568/157 135/569/157
f 153/570/158 155/571/158 156/572/158 154/573/158
f 154/574/159 156/575/159 136/576/159
f 157/577/160 155/578/160 135/579/160
f 155/580/161 157/581/161 158/582/161 156/583/161
f 156/584/162 158/585/162 136/586/162
f 159/587/163 157/588/163 135/589/163
f 157/590/164 159/591/164 160/592/164 158/593/164
f 158/594/165 160/595/165 136/596/165
f 137/597/166 159/598/166 135/599/166
f 159/600/167 137/601/167 138/602/167 160/603/167
f 160/604/168 138/605/168 136/606/168
o cube
v 0.40625 0.6875 0.03125
v 0.40625 0.6875 -0.03125
v 0.40625 0.5625 0.03125
v 0.40625 0.5625 -0.03125
v 0.34375 0.6875 -0.03125
v 0.34375 0.6875 0.03125
v 0.34375 0.5625 -0.03125
v 0.34375 0.5625 0.03125
vt 0.0703125 0.93359375
vt 0.1015625 0.93359375
vt 0.1015625 0.900390625
vt 0.0703125 0.900390625
vt 0.0390625 0.93359375
vt 0.0703125 0.93359375
vt 0.0703125 0.900390625
vt 0.0390625 0.900390625
vt 0.0390625 0.93359375
vt 0.0703125 0.93359375
vt 0.0703125 0.900390625
vt 0.0390625 0.900390625
vt 0.0703125 0.93359375
vt 0.1015625 0.93359375
vt 0.1015625 0.900390625
vt 0.0703125 0.900390625
vt 0.0390625 0.9169921875
vt 0.0703125 0.9169921875
vt 0.0703125 0.900390625
vt 0.0390625 0.900390625
vt 0.0390625 0.93359375
vt 0.0703125 0.93359375
vt 0.0703125 0.9169921875
vt 0.0390625 0.9169921875
vn 0 0 -1
vn 1 0 0
vn 0 0 1
vn -1 0 0
vn 0 1 0
vn 0 -1 0
usemtl m_7f2020ae-d844-bc1c-4a4e-974d1b18d26e
f 164/610/169 167/609/169 165/608/169 162/607/169
f 163/614/170 164/613/170 162/612/170 161/611/170
f 168/618/171 163/617/171 161/616/171 166/615/171
f 167/622/172 168/621/172 166/620/172 165/619/172
f 166/626/173 161/625/173 162/624/173 165/623/173
f 167/630/174 164/629/174 163/628/174 168/627/174
o cube
v 1.65625 0.6875 0.03125
v 1.65625 0.6875 -0.03125
v 1.65625 0.5625 0.03125
v 1.65625 0.5625 -0.03125
v 1.59375 0.6875 -0.03125
v 1.59375 0.6875 0.03125
v 1.59375 0.5625 -0.03125
v 1.59375 0.5625 0.03125
vt 0.0703125 0.93359375
vt 0.1015625 0.93359375
vt 0.1015625 0.900390625
vt 0.0703125 0.900390625
vt 0.0390625 0.93359375
vt 0.0703125 0.93359375
vt 0.0703125 0.900390625
vt 0.0390625 0.900390625
vt 0.0390625 0.93359375
vt 0.0703125 0.93359375
vt 0.0703125 0.900390625
vt 0.0390625 0.900390625
vt 0.0703125 0.93359375
vt 0.1015625 0.93359375
vt 0.1015625 0.900390625
vt 0.0703125 0.900390625
vt 0.0390625 0.9169921875
vt 0.0703125 0.9169921875
vt 0.0703125 0.900390625
vt 0.0390625 0.900390625
vt 0.0390625 0.93359375
vt 0.0703125 0.93359375
vt 0.0703125 0.9169921875
vt 0.0390625 0.9169921875
vn 0 0 -1
vn 1 0 0
vn 0 0 1
vn -1 0 0
vn 0 1 0
vn 0 -1 0
usemtl m_7f2020ae-d844-bc1c-4a4e-974d1b18d26e
f 172/634/175 175/633/175 173/632/175 170/631/175
f 171/638/176 172/637/176 170/636/176 169/635/176
f 176/642/177 171/641/177 169/640/177 174/639/177
f 175/646/178 176/645/178 174/644/178 173/643/178
f 174/650/179 169/649/179 170/648/179 173/647/179
f 175/654/180 172/653/180 171/652/180 176/651/180
o cylinder
v 1.65625 0.5625 0
v 1.65625 1.5625 0
v 1.6646234122634727 0.5625 0.031249999999999997
v 1.6646234122634727 1.5625 0.031249999999999997
v 1.6791265877365273 0.5625 0.022876587736527416
v 1.6791265877365273 1.5625 0.022876587736527416
v 1.6875 0.5625 0.008373412263472583
v 1.6875 1.5625 0.008373412263472583
v 1.6875 0.5625 -0.008373412263472586
v 1.6875 1.5625 -0.008373412263472586
v 1.6791265877365273 0.5625 -0.022876587736527412
v 1.6791265877365273 1.5625 -0.022876587736527412
v 1.6646234122634727 0.5625 -0.031249999999999993
v 1.6646234122634727 1.5625 -0.031249999999999993
v 1.6478765877365273 0.5625 -0.03125
v 1.6478765877365273 1.5625 -0.03125
v 1.6333734122634727 0.5625 -0.02287658773652742
v 1.6333734122634727 1.5625 -0.02287658773652742
v 1.625 0.5625 -0.008373412263472579
v 1.625 1.5625 -0.008373412263472579
v 1.625 0.5625 0.008373412263472569
v 1.625 1.5625 0.008373412263472569
v 1.6333734122634727 0.5625 0.02287658773652741
v 1.6333734122634727 1.5625 0.02287658773652741
v 1.6478765877365273 0.5625 0.031249999999999997
v 1.6478765877365273 1.5625 0.031249999999999997
vt 0.055237567619642276 0.9292972476635325
vt 0.053072053102258474 0.93359375
vt 0.0390625 0.9292972476635325
vt 0.03906250000000046 0.66796875
vt 0.04743750000000045 0.66796875
vt 0.04743750000000045 0.93359375
vt 0.03906250000000046 0.93359375
vt 0.0390625 0.9250000397284299
vt 0.047149369771514335 0.9261517859974914
vt 0.0390625 0.93359375
vt 0.05523889580530843 0.929297600433883
vt 0.05307090282825161 0.93359375
vt 0.0390625 0.929297600433883
vt 0.03906250000000046 0.66796875
vt 0.04743750000000045 0.66796875
vt 0.04743750000000045 0.93359375
vt 0.03906250000000046 0.93359375
vt 0.0390625 0.925000745327065
vt 0.047150033809821135 0.9261511749144252
vt 0.0390625 0.93359375
vt 0.0546875 0.9291445312499997
vt 0.0546875 0.9335937499999998
vt 0.0390625 0.9313691406249998
vt 0.03906250000000046 0.66796875
vt 0.04743750000000045 0.66796875
vt 0.04743750000000045 0.93359375
vt 0.03906250000000046 0.93359375
vt 0.0546875 0.9291445312499997
vt 0.0546875 0.9335937499999998
vt 0.0390625 0.9313691406249998
vt 0.0390625 0.925000745327065
vt 0.047150033809821135 0.9261511749144252
vt 0.0390625 0.93359375
vt 0.03906250000000046 0.66796875
vt 0.04743750000000045 0.66796875
vt 0.04743750000000045 0.93359375
vt 0.03906250000000046 0.93359375
vt 0.05523889580530843 0.929297600433883
vt 0.05307090282825161 0.93359375
vt 0.0390625 0.929297600433883
vt 0.0390625 0.9250000397284299
vt 0.047149369771514335 0.9261517859974914
vt 0.0390625 0.93359375
vt 0.03906250000000046 0.66796875
vt 0.04743750000000045 0.66796875
vt 0.04743750000000045 0.93359375
vt 0.03906250000000046 0.93359375
vt 0.055237567619642276 0.9292972476635325
vt 0.053072053102258474 0.93359375
vt 0.0390625 0.9292972476635325
vt 0.03906250000000046 0.92529296875
vt 0.04743750000000045 0.92529296875
vt 0.043250000000000455 0.93359375
vt 0.03906250000000046 0.66796875
vt 0.04743750000000045 0.66796875
vt 0.04743750000000045 0.93359375
vt 0.03906250000000046 0.93359375
vt 0.04743750000000045 0.93359375
vt 0.03906250000000046 0.93359375
vt 0.043250000000000455 0.92529296875
vt 0.0390625 0.93359375
vt 0.0412280145173838 0.9292972476635325
vt 0.055237567619642276 0.93359375
vt 0.03906250000000046 0.66796875
vt 0.04743750000000045 0.66796875
vt 0.04743750000000045 0.93359375
vt 0.03906250000000046 0.93359375
vt 0.047149369771514335 0.93359375
vt 0.0390625 0.9324420037309386
vt 0.047149369771514335 0.9250000397284299
vt 0.0390625 0.93359375
vt 0.04123049297705682 0.929297600433883
vt 0.05523889580530843 0.93359375
vt 0.03906250000000046 0.66796875
vt 0.04743750000000045 0.66796875
vt 0.04743750000000045 0.93359375
vt 0.03906250000000046 0.93359375
vt 0.047150033809821135 0.93359375
vt 0.0390625 0.9324433204126399
vt 0.047150033809821135 0.925000745327065
vt 0.0390625 0.9335937499999998
vt 0.0390625 0.9291445312499997
vt 0.0546875 0.9313691406249998
vt 0.03906250000000046 0.66796875
vt 0.04743750000000045 0.66796875
vt 0.04743750000000045 0.93359375
vt 0.03906250000000046 0.93359375
vt 0.0390625 0.9335937499999998
vt 0.0390625 0.9291445312499997
vt 0.0546875 0.9313691406249998
vt 0.047150033809821135 0.93359375
vt 0.0390625 0.9324433204126399
vt 0.047150033809821135 0.925000745327065
vt 0.03906250000000046 0.66796875
vt 0.04743750000000045 0.66796875
vt 0.04743750000000045 0.93359375
vt 0.03906250000000046 0.93359375
vt 0.0390625 0.93359375
vt 0.04123049297705682 0.929297600433883
vt 0.05523889580530843 0.93359375
vt 0.047149369771514335 0.93359375
vt 0.0390625 0.9324420037309386
vt 0.047149369771514335 0.9250000397284299
vt 0.03906250000000046 0.66796875
vt 0.04743750000000045 0.66796875
vt 0.04743750000000045 0.93359375
vt 0.03906250000000046 0.93359375
vt 0.0390625 0.93359375
vt 0.0412280145173838 0.9292972476635325
vt 0.055237567619642276 0.93359375
vt 0.04743750000000045 0.93359375
vt 0.03906250000000046 0.93359375
vt 0.043250000000000455 0.92529296875
vt 0.03906250000000046 0.66796875
vt 0.04743750000000045 0.66796875
vt 0.04743750000000045 0.93359375
vt 0.03906250000000046 0.93359375
vt 0.03906250000000046 0.92529296875
vt 0.04743750000000045 0.92529296875
vt 0.043250000000000455 0.93359375
vn 0 -1 0
vn 0.4999999999999999 0 0.8660254037844388
vn 0 1 0
vn 0 -1 0
vn 0.8660254037844388 0 0.5
vn 0 1 0
vn 0 -1 0
vn 1 0 0
vn 0 1 0
vn 0 -1 0
vn 0.8660254037844388 0 -0.5
vn 0 1 0
vn 0 -1 0
vn 0.5000000000000001 0 -0.8660254037844388
vn 0 1 0
vn 0 -1 0
vn 4.143408735633879e-16 0 -1
vn 0 1 0
vn 0 -1 0
vn -0.4999999999999996 0 -0.8660254037844389
vn 0 1 0
vn 0 -1 0
vn -0.8660254037844389 0 -0.4999999999999998
vn 0 1 0
vn 0 -1 0
vn -1 0 -2.0717043678169412e-16
vn 0 1 0
vn 0 -1 0
vn -0.8660254037844389 0 0.4999999999999996
vn 0 1 0
vn 0 -1 0
vn -0.4999999999999999 0 0.8660254037844386
vn 0 1 0
vn 0 -1 0
vn 0 0 1
vn 0 1 0
usemtl m_7f2020ae-d844-bc1c-4a4e-974d1b18d26e
f 181/655/181 179/656/181 177/657/181
f 179/658/182 181/659/182 182/660/182 180/661/182
f 180/662/183 182/663/183 178/664/183
f 183/665/184 181/666/184 177/667/184
f 181/668/185 183/669/185 184/670/185 182/671/185
f 182/672/186 184/673/186 178/674/186
f 185/675/187 183/676/187 177/677/187
f 183/678/188 185/679/188 186/680/188 184/681/188
f 184/682/189 186/683/189 178/684/189
f 187/685/190 185/686/190 177/687/190
f 185/688/191 187/689/191 188/690/191 186/691/191
f 186/692/192 188/693/192 178/694/192
f 189/695/193 187/696/193 177/697/193
f 187/698/194 189/699/194 190/700/194 188/701/194
f 188/702/195 190/703/195 178/704/195
f 191/705/196 189/706/196 177/707/196
f 189/708/197 191/709/197 192/710/197 190/711/197
f 190/712/198 192/713/198 178/714/198
f 193/715/199 191/716/199 177/717/199
f 191/718/200 193/719/200 194/720/200 192/721/200
f 192/722/201 194/723/201 178/724/201
f 195/725/202 193/726/202 177/727/202
f 193/728/203 195/729/203 196/730/203 194/731/203
f 194/732/204 196/733/204 178/734/204
f 197/735/205 195/736/205 177/737/205
f 195/738/206 197/739/206 198/740/206 196/741/206
f 196/742/207 198/743/207 178/744/207
f 199/745/208 197/746/208 177/747/208
f 197/748/209 199/749/209 200/750/209 198/751/209
f 198/752/210 200/753/210 178/754/210
f 201/755/211 199/756/211 177/757/211
f 199/758/212 201/759/212 202/760/212 200/761/212
f 200/762/213 202/763/213 178/764/213
f 179/765/214 201/766/214 177/767/214
f 201/768/215 179/769/215 180/770/215 202/771/215
f 202/772/216 180/773/216 178/774/216