# Made in Blockbench 5.1.6
mtllib nyc_subway_entrance_1_globe_light_4.mtl

o cube
v 0.09375 0.078125 0.09375
v 0.09375 0.078125 -0.09375
v 0.09375 0 0.09375
v 0.09375 0 -0.09375
v -0.09375 0.078125 -0.09375
v -0.09375 0.078125 0.09375
v -0.09375 0 -0.09375
v -0.09375 0 0.09375
vt 0.40625 0.859375
vt 0.453125 0.859375
vt 0.453125 0.83984375
vt 0.40625 0.83984375
vt 0.40625 0.828125
vt 0.453125 0.828125
vt 0.453125 0.80859375
vt 0.40625 0.80859375
vt 0.40625 0.796875
vt 0.453125 0.796875
vt 0.453125 0.77734375
vt 0.40625 0.77734375
vt 0.40625 0.765625
vt 0.453125 0.765625
vt 0.453125 0.74609375
vt 0.40625 0.74609375
vt 0.328125 0.59375
vt 0.28125 0.59375
vt 0.28125 0.640625
vt 0.328125 0.640625
vt 0.375 0.640625
vt 0.328125 0.640625
vt 0.328125 0.59375
vt 0.375 0.59375
vn 0 0 -1
vn 1 0 0
vn 0 0 1
vn -1 0 0
vn 0 1 0
vn 0 -1 0
usemtl m_8ec2d3e5-430b-1766-e184-1728c7585c36
f 4/4/1 7/3/1 5/2/1 2/1/1
f 3/8/2 4/7/2 2/6/2 1/5/2
f 8/12/3 3/11/3 1/10/3 6/9/3
f 7/16/4 8/15/4 6/14/4 5/13/4
f 6/20/5 1/19/5 2/18/5 5/17/5
f 7/24/6 4/23/6 3/22/6 8/21/6
o cube
v 0.046875 1.578125 0.046875
v 0.046875 1.578125 -0.046875
v 0.046875 0.078125 0.046875
v 0.046875 0.078125 -0.046875
v -0.046875 1.578125 0.046875
v -0.046875 1.578125 -0.046875
v -0.046875 0.078125 0.046875
v -0.046875 0.078125 -0.046875
vt 0.1328125 0.40625
vt 0.1328125 0.78125
vt 0.109375 0.78125
vt 0.109375 0.40625
vt 0.2421875 0.515625
vt 0.2421875 0.890625
vt 0.21875 0.890625
vt 0.21875 0.515625
vt 0.4296875 0.7109375
vt 0.4296875 0.734375
vt 0.40625 0.734375
vt 0.40625 0.7109375
vt 0.3046875 0.5703125
vt 0.3046875 0.59375
vt 0.28125 0.59375
vt 0.28125 0.5703125
vt 0.1640625 0.40625
vt 0.1640625 0.78125
vt 0.140625 0.78125
vt 0.140625 0.40625
vt 0.1953125 0.40625
vt 0.1953125 0.78125
vt 0.171875 0.78125
vt 0.171875 0.40625
vn 1 0 0
vn -1 0 0
vn 0 1 0
vn 0 -1 0
vn 0 0 1
vn 0 0 -1
usemtl m_8ec2d3e5-430b-1766-e184-1728c7585c36
f 12/25/7 10/26/7 9/27/7 11/28/7
f 15/29/8 13/30/8 14/31/8 16/32/8
f 9/33/9 10/34/9 14/35/9 13/36/9
f 12/37/10 11/38/10 15/39/10 16/40/10
f 11/41/11 9/42/11 13/43/11 15/44/11
f 16/45/12 14/46/12 10/47/12 12/48/12
o mesh
v 0.21875 2.296875 0.1701388888888889
v 0.21875 2.296875 -0.1701388888888889
v 0.21875 1.734375 0.1701388888888889
v 0.21875 1.734375 -0.1701388888888889
v -0.21875 2.296875 0.1701388888888889
v -0.21875 2.296875 -0.1701388888888889
v -0.21875 1.734375 0.1701388888888889
v -0.21875 1.734375 -0.1701388888888889
v 0.1701388888888889 2.296875 -0.21875
v 0.1701388888888889 2.296875 0.21875
v 0.1701388888888889 1.734375 0.21875
v 0.1701388888888889 1.734375 -0.21875
v -0.1701388888888889 2.296875 -0.21875
v -0.1701388888888889 2.296875 0.21875
v -0.1701388888888889 1.734375 0.21875
v -0.1701388888888889 1.734375 -0.21875
v 0.28125 1.796875 0.21875
v 0.28125 1.796875 -0.21875
v 0.21875 1.796875 -0.28125
v -0.21875 1.796875 -0.28125
v -0.28125 1.796875 -0.21875
v -0.28125 1.796875 0.21875
v -0.21875 1.796875 0.28125
v 0.21875 1.796875 0.28125
v 0.28125 2.234375 0.21875
v 0.28125 2.234375 -0.21875
v 0.21875 2.234375 -0.28125
v -0.21875 2.234375 -0.28125
v -0.28125 2.234375 -0.21875
v -0.28125 2.234375 0.21875
v -0.21875 2.234375 0.28125
v 0.21875 2.234375 0.28125
vt 0.097221875 0.650390625
vt 0.109375 0.671875
vt 0 0.671875
vt 0.012153125 0.650390625
vt 0.425346875 0.978515625
vt 0.4375 1
vt 0.328125 1
vt 0.340278125 0.978515625
vt 0 0.902778125
vt 0.012153125 0.890625
vt 0.012153125 1
vt 0 0.987846875
vt 0 0.793403125
vt 0.012153125 0.78125
vt 0.012153125 0.890625
vt 0 0.878471875
vt 0.28070774907322366 0.8671315806138506
vt 0.26855475092677633 0.8892282249680622
vt 0.2503215329300958 0.8767453708773044
vt 0.2665254977676455 0.8574221056457885
vt 0.3799588772323545 0.810546875
vt 0.3961628420699042 0.829870140231516
vt 0.3779296240732236 0.8423529943222738
vt 0.36577662592677634 0.8202563499680622
vt 0.109375 0.987846875
vt 0.097221875 1
vt 0.097221875 0.890625
vt 0.109375 0.902778125
vt 0.3799588772323545 0.857421875
vt 0.3961628420699042 0.876745140231516
vt 0.3779296240732236 0.8892279943222738
vt 0.36577662592677634 0.8671313499680622
vt 0.109375 0.878471875
vt 0.097221875 0.890625
vt 0.097221875 0.78125
vt 0.109375 0.793403125
vt 0.28070774907322366 0.8202565806138506
vt 0.26855475092677633 0.8423532249680622
vt 0.2503215329300958 0.8298703708773044
vt 0.2665254977676455 0.8105471056457885
vt 0.097221875 1
vt 0.012153125 1
vt 0.012153125 0.890625
vt 0.097221875 0.890625
vt 0.36577662592677634 0.8671313499680622
vt 0.37792975092677633 0.8892282249680622
vt 0.26855475092677633 0.8892282249680622
vt 0.2807078759267764 0.8671313499680622
vt 0.097221875 0.890625
vt 0.012153125 0.890625
vt 0.012153125 0.78125
vt 0.097221875 0.78125
vt 0.36577662592677634 0.8202563499680622
vt 0.37792975092677633 0.8423532249680622
vt 0.26855475092677633 0.8423532249680622
vt 0.2807078759267764 0.8202563499680622
vt 0.21875 0.890625
vt 0.21875 1
vt 0.109375 1
vt 0.109375 0.890625
vt 0.021484375 0.53125
vt 0.021484375 0.640625
vt 0 0.640625
vt 0 0.53125
vt 0.21875 0.78125
vt 0.21875 0.890625
vt 0.109375 0.890625
vt 0.109375 0.78125
vt 0.052734375 0.53125
vt 0.052734375 0.640625
vt 0.03125 0.640625
vt 0.03125 0.53125
vt 0.109375 0.671875
vt 0.109375 0.78125
vt 0 0.78125
vt 0 0.671875
vt 0.083984375 0.53125
vt 0.083984375 0.640625
vt 0.0625 0.640625
vt 0.0625 0.53125
vt 0.328125 0.890625
vt 0.328125 1
vt 0.21875 1
vt 0.21875 0.890625
vt 0.271484375 0.53125
vt 0.271484375 0.640625
vt 0.25 0.640625
vt 0.25 0.53125
vt 0.340278125 0.96875
vt 0.328125 0.947265625
vt 0.4375 0.947265625
vt 0.425346875 0.96875
vt 0.2665254977676455 0.796875
vt 0.2503215329300958 0.7775517347684839
vt 0.26855475092677633 0.7650688806777262
vt 0.28070774907322366 0.7871655250319378
vt 0.28070774907322366 0.7871655250319378
vt 0.2685546240732236 0.7650686500319378
vt 0.3779296240732236 0.7650686500319378
vt 0.3657764990732236 0.7871655250319378
vt 0.36577662592677634 0.7871652943861494
vt 0.3779296240732236 0.7650686500319378
vt 0.3961628420699042 0.7775515041226956
vt 0.37995887723235444 0.7968747693542115
vt 0.340278125 0.9375
vt 0.328125 0.916015625
vt 0.4375 0.916015625
vt 0.425346875 0.9375
vt 0.2665254977676455 0.75
vt 0.2503215329300958 0.7306767347684839
vt 0.26855475092677633 0.7181938806777262
vt 0.28070774907322366 0.7402905250319378
vt 0.28070774907322366 0.7402905250319378
vt 0.2685546240732236 0.7181936500319378
vt 0.3779296240732236 0.7181936500319378
vt 0.3657764990732236 0.7402905250319378
vt 0.36577662592677634 0.7402902943861494
vt 0.3779296240732236 0.7181936500319378
vt 0.3961628420699042 0.7306765041226956
vt 0.37995887723235444 0.7499997693542115
vn 0.7071067811865476 -0.7071067811865476 0
vn -0.7071067811865476 -0.7071067811865476 0
vn 0 1 0
vn 0 -1 0
vn -0.4402043892400667 -0.7825855808712298 0.4402043892400667
vn -0.4402043892400667 -0.7825855808712298 -0.4402043892400667
vn 0 1 0
vn 0.4402043892400667 -0.7825855808712298 0.4402043892400667
vn 0 -1 0
vn 0.4402043892400667 -0.7825855808712298 -0.4402043892400667
vn 0 1 0
vn 0 -0.7071067811865476 0.7071067811865476
vn 0 -1 0
vn 0 -0.7071067811865476 -0.7071067811865476
vn 1 0 0
vn 0.7071067811865476 0 -0.7071067811865476
vn 0 0 -1
vn -0.7071067811865476 0 -0.7071067811865476
vn -1 0 0
vn -0.7071067811865476 0 0.7071067811865476
vn 0 0 1
vn 0.7071067811865476 0 0.7071067811865476
vn 0.7071067811865476 0.7071067811865476 0
vn 0.4402043892400667 0.7825855808712298 -0.4402043892400667
vn 0 0.7071067811865476 -0.7071067811865476
vn -0.4402043892400667 0.7825855808712298 -0.4402043892400667
vn -0.7071067811865476 0.7071067811865476 0
vn -0.4402043892400667 0.7825855808712298 0.4402043892400667
vn 0 0.7071067811865476 0.7071067811865476
vn 0.4402043892400667 0.7825855808712298 0.4402043892400667
usemtl m_8ec2d3e5-430b-1766-e184-1728c7585c36
f 20/49/13 34/50/13 33/51/13 19/52/13
f 23/53/14 38/54/14 37/55/14 24/56/14
f 21/57/15 30/58/15 29/59/15 22/60/15
f 24/61/16 32/62/16 31/63/16 23/64/16
f 31/65/17 39/66/17 38/67/17 23/68/17
f 24/69/18 37/70/18 36/71/18 32/72/18
f 18/73/19 25/74/19 26/75/19 17/76/19
f 19/77/20 33/78/20 40/79/20 27/80/20
f 19/81/21 27/82/21 28/83/21 20/84/21
f 28/85/22 35/86/22 34/87/22 20/88/22
f 25/89/23 29/90/23 30/91/23 26/92/23
f 27/93/24 40/94/24 39/95/24 31/96/24
f 27/97/25 31/98/25 32/99/25 28/100/25
f 32/101/26 36/102/26 35/103/26 28/104/26
f 34/105/27 42/106/27 41/107/27 33/108/27
f 35/109/28 43/110/28 42/111/28 34/112/28
f 36/113/29 44/114/29 43/115/29 35/116/29
f 37/117/30 45/118/30 44/119/30 36/120/30
f 38/121/31 46/122/31 45/123/31 37/124/31
f 39/125/32 47/126/32 46/127/32 38/128/32
f 40/129/33 48/130/33 47/131/33 39/132/33
f 33/133/34 41/134/34 48/135/34 40/136/34
f 17/137/35 41/138/35 42/139/35 18/140/35
f 18/141/36 42/142/36 43/143/36 25/144/36
f 25/145/37 43/146/37 44/147/37 29/148/37
f 29/149/38 44/150/38 45/151/38 22/152/38
f 22/153/39 45/154/39 46/155/39 21/156/39
f 21/157/40 46/158/40 47/159/40 30/160/40
f 30/161/41 47/162/41 48/163/41 26/164/41
f 26/165/42 48/166/42 41/167/42 17/168/42
o cylinder
v 0 1.578125 0
v 0 1.734375 0
v 0.03349364905389033 1.578125 0.12499999999999999
v 0.03349364905389033 1.734375 0.12499999999999999
v 0.09150635094610965 1.578125 0.09150635094610966
v 0.09150635094610965 1.734375 0.09150635094610966
v 0.12499999999999999 1.578125 0.03349364905389033
v 0.12499999999999999 1.734375 0.03349364905389033
v 0.12499999999999999 1.578125 -0.033493649053890344
v 0.12499999999999999 1.734375 -0.033493649053890344
v 0.09150635094610966 1.578125 -0.09150635094610965
v 0.09150635094610966 1.734375 -0.09150635094610965
v 0.03349364905389037 1.578125 -0.12499999999999997
v 0.03349364905389037 1.734375 -0.12499999999999997
v -0.03349364905389028 1.578125 -0.125
v -0.03349364905389028 1.734375 -0.125
v -0.09150635094610965 1.578125 -0.09150635094610968
v -0.09150635094610965 1.734375 -0.09150635094610968
v -0.12499999999999999 1.578125 -0.033493649053890316
v -0.12499999999999999 1.734375 -0.033493649053890316
v -0.125 1.578125 0.033493649053890275
v -0.125 1.734375 0.033493649053890275
v -0.09150635094610968 1.578125 0.09150635094610964
v -0.09150635094610968 1.734375 0.09150635094610964
v -0.03349364905389032 1.578125 0.12499999999999999
v -0.03349364905389032 1.734375 0.12499999999999999
vt 0.30412656250000003 0.6947515625
vt 0.28962343749999997 0.703125
vt 0.28125 0.671875
vt 0.40876406249999997 0.6171875
vt 0.4255109375 0.6171875
vt 0.4255109375 0.65625
vt 0.40876406249999997 0.65625
vt 0.35212343749999997 0.640625
vt 0.36662656250000003 0.6489984375
vt 0.34375 0.671875
vt 0.3125 0.6802484375
vt 0.30412656250000003 0.6947515625
vt 0.28125 0.671875
vt 0.3752703125 0.6640625
vt 0.3920171875 0.6640625
vt 0.3920171875 0.703125
vt 0.3752703125 0.703125
vt 0.36662656250000003 0.6489984375
vt 0.375 0.6635015625
vt 0.34375 0.671875
vt 0.3125 0.6635015625
vt 0.3125 0.6802484375
vt 0.28125 0.671875
vt 0.3920171875 0.6640625
vt 0.40876406249999997 0.6640625
vt 0.40876406249999997 0.703125
vt 0.3920171875 0.703125
vt 0.375 0.6635015625
vt 0.375 0.6802484375
vt 0.34375 0.671875
vt 0.30412656250000003 0.6489984375
vt 0.3125 0.6635015625
vt 0.28125 0.671875
vt 0.40876406249999997 0.6640625
vt 0.4255109375 0.6640625
vt 0.4255109375 0.703125
vt 0.40876406249999997 0.703125
vt 0.375 0.6802484375
vt 0.36662656250000003 0.6947515625
vt 0.34375 0.671875
vt 0.28962343749999997 0.640625
vt 0.30412656250000003 0.6489984375
vt 0.28125 0.671875
vt 0.4065203125 0.8671875
vt 0.4232671875 0.8671875
vt 0.4232671875 0.90625
vt 0.4065203125 0.90625
vt 0.36662656250000003 0.6947515625
vt 0.35212343749999997 0.703125
vt 0.34375 0.671875
vt 0.2728765625 0.640625
vt 0.28962343749999997 0.640625
vt 0.28125 0.671875
vt 0.4232671875 0.8671875
vt 0.44001406249999997 0.8671875
vt 0.44001406249999997 0.90625
vt 0.4232671875 0.90625
vt 0.35212343749999997 0.703125
vt 0.3353765625 0.703125
vt 0.34375 0.671875
vt 0.2583734375 0.6489984375
vt 0.2728765625 0.640625
vt 0.28125 0.671875
vt 0.44001406249999997 0.8671875
vt 0.4567609375 0.8671875
vt 0.4567609375 0.90625
vt 0.44001406249999997 0.90625
vt 0.3353765625 0.703125
vt 0.3208734375 0.6947515625
vt 0.34375 0.671875
vt 0.25 0.6635015625
vt 0.2583734375 0.6489984375
vt 0.28125 0.671875
vt 0.3752703125 0.5703125
vt 0.3920171875 0.5703125
vt 0.3920171875 0.609375
vt 0.3752703125 0.609375
vt 0.3208734375 0.6947515625
vt 0.3125 0.6802484375
vt 0.34375 0.671875
vt 0.25 0.6802484375
vt 0.25 0.6635015625
vt 0.28125 0.671875
vt 0.3920171875 0.5703125
vt 0.40876406249999997 0.5703125
vt 0.40876406249999997 0.609375
vt 0.3920171875 0.609375
vt 0.3125 0.6802484375
vt 0.3125 0.6635015625
vt 0.34375 0.671875
vt 0.2583734375 0.6947515625
vt 0.25 0.6802484375
vt 0.28125 0.671875
vt 0.40876406249999997 0.5703125
vt 0.4255109375 0.5703125
vt 0.4255109375 0.609375
vt 0.40876406249999997 0.609375
vt 0.3125 0.6635015625
vt 0.3208734375 0.6489984375
vt 0.34375 0.671875
vt 0.2728765625 0.703125
vt 0.2583734375 0.6947515625
vt 0.28125 0.671875
vt 0.3752703125 0.6171875
vt 0.3920171875 0.6171875
vt 0.3920171875 0.65625
vt 0.3752703125 0.65625
vt 0.3208734375 0.6489984375
vt 0.3353765625 0.640625
vt 0.34375 0.671875
vt 0.28962343749999997 0.703125
vt 0.2728765625 0.703125
vt 0.28125 0.671875
vt 0.3920171875 0.6171875
vt 0.40876406249999997 0.6171875
vt 0.40876406249999997 0.65625
vt 0.3920171875 0.65625
vt 0.3353765625 0.640625
vt 0.35212343749999997 0.640625
vt 0.34375 0.671875
vn 0 -1 0
vn 0.49999999999999983 0 0.8660254037844387
vn 0 1 0
vn 0 -1 0
vn 0.8660254037844388 0 0.5
vn 0 1 0
vn 0 -1 0
vn 1 0 0
vn 0 1 0
vn 0 -1 0
vn 0.8660254037844387 0 -0.49999999999999994
vn 0 1 0
vn 0 -1 0
vn 0.5000000000000001 0 -0.8660254037844386
vn 0 1 0
vn 0 -1 0
vn 4.143408735633879e-16 0 -1
vn 0 1 0
vn 0 -1 0
vn -0.4999999999999996 0 -0.8660254037844389
vn 0 1 0
vn 0 -1 0
vn -0.8660254037844388 0 -0.4999999999999998
vn 0 1 0
vn 0 -1 0
vn -1 0 -2.0717043678169412e-16
vn 0 1 0
vn 0 -1 0
vn -0.8660254037844389 0 0.4999999999999996
vn 0 1 0
vn 0 -1 0
vn -0.4999999999999999 0 0.8660254037844386
vn 0 1 0
vn 0 -1 0
vn 0 0 1
vn 0 1 0
usemtl m_8ec2d3e5-430b-1766-e184-1728c7585c36
f 53/169/43 51/170/43 49/171/43
f 51/172/44 53/173/44 54/174/44 52/175/44
f 52/176/45 54/177/45 50/178/45
f 55/179/46 53/180/46 49/181/46
f 53/182/47 55/183/47 56/184/47 54/185/47
f 54/186/48 56/187/48 50/188/48
f 57/189/49 55/190/49 49/191/49
f 55/192/50 57/193/50 58/194/50 56/195/50
f 56/196/51 58/197/51 50/198/51
f 59/199/52 57/200/52 49/201/52
f 57/202/53 59/203/53 60/204/53 58/205/53
f 58/206/54 60/207/54 50/208/54
f 61/209/55 59/210/55 49/211/55
f 59/212/56 61/213/56 62/214/56 60/215/56
f 60/216/57 62/217/57 50/218/57
f 63/219/58 61/220/58 49/221/58
f 61/222/59 63/223/59 64/224/59 62/225/59
f 62/226/60 64/227/60 50/228/60
f 65/229/61 63/230/61 49/231/61
f 63/232/62 65/233/62 66/234/62 64/235/62
f 64/236/63 66/237/63 50/238/63
f 67/239/64 65/240/64 49/241/64
f 65/242/65 67/243/65 68/244/65 66/245/65
f 66/246/66 68/247/66 50/248/66
f 69/249/67 67/250/67 49/251/67
f 67/252/68 69/253/68 70/254/68 68/255/68
f 68/256/69 70/257/69 50/258/69
f 71/259/70 69/260/70 49/261/70
f 69/262/71 71/263/71 72/264/71 70/265/71
f 70/266/72 72/267/72 50/268/72
f 73/269/73 71/270/73 49/271/73
f 71/272/74 73/273/74 74/274/74 72/275/74
f 72/276/75 74/277/75 50/278/75
f 51/279/76 73/280/76 49/281/76
f 73/282/77 51/283/77 52/284/77 74/285/77
f 74/286/78 52/287/78 50/288/78