# Made in Blockbench 5.1.6
mtllib nyc_subway_platform_light_light_layer.mtl

o cylinder
v -0.011438293868263704 0.9489382938682636 -0.4375
v -0.00418670613173629 0.9531249999999999 -0.4375
v 8.673617379884035e-19 0.9374999999999999 -0.4375
v -0.011438293868263704 0.9489382938682638 0.5
v -0.00418670613173629 0.9531250000000001 0.5
v 8.673617379884035e-19 0.9375000000000001 0.5
v -0.015624999999999998 0.9416867061317362 -0.4375
v -0.015624999999999998 0.9416867061317364 0.5
v -0.015624999999999998 0.9333132938682636 -0.4375
v -0.015624999999999998 0.9333132938682638 0.5
v -0.011438293868263708 0.9260617061317362 -0.4375
v -0.011438293868263708 0.9260617061317364 0.5
v -0.004186706131736296 0.9218749999999999 -0.4375
v -0.004186706131736296 0.9218750000000001 0.5
v 0.004186706131736286 0.9218749999999999 -0.4375
v 0.004186706131736286 0.9218750000000001 0.5
v 0.011438293868263708 0.9260617061317362 -0.4375
v 0.011438293868263708 0.9260617061317364 0.5
v 0.015624999999999998 0.9333132938682636 -0.4375
v 0.015624999999999998 0.9333132938682638 0.5
v 0.015625 0.9416867061317362 -0.4375
v 0.015625 0.9416867061317364 0.5
v 0.011438293868263711 0.9489382938682636 -0.4375
v 0.011438293868263711 0.9489382938682638 0.5
v 0.004186706131736291 0.9531249999999999 -0.4375
v 0.004186706131736291 0.9531250000000001 0.5
vt 0.03235013523928455 0.9838249323803577
vt 0.028019106204516944 1
vt 0 0.9838249323803577
vt 9.08995101411847e-16 0.9375
vt 0.01675000000000091 0.9375
vt 0.01675000000000091 1
vt 9.08995101411847e-16 1
vt 6.938893903907228e-18 0.9676472083893831
vt 0.016173739543028677 0.9719831943434968
vt 0 1
vt 0.032352791610616854 0.9838262604569713
vt 0.02801680565650322 1
vt 0 0.9838262604569713
vt 9.08995101411847e-16 0.9375
vt 0.01675000000000091 0.9375
vt 0.01675000000000091 1
vt 9.08995101411847e-16 1
vt 3.469446951953614e-18 0.9676498647607155
vt 0.016175067619642276 0.971980893795483
vt 0 1
vt 0.03125 0.9832499999999991
vt 0.03125 0.9999999999999991
vt 0 0.9916249999999991
vt 9.08995101411847e-16 0.9375
vt 0.01675000000000091 0.9375
vt 0.01675000000000091 1
vt 9.08995101411847e-16 1
vt 0.03125 0.9832499999999991
vt 0.03125 0.9999999999999991
vt 0 0.9916249999999991
vt 3.469446951953614e-18 0.9676498647607155
vt 0.016175067619642276 0.971980893795483
vt 0 1
vt 9.08995101411847e-16 0.9375
vt 0.01675000000000091 0.9375
vt 0.01675000000000091 1
vt 9.08995101411847e-16 1
vt 0.032352791610616854 0.9838262604569713
vt 0.02801680565650322 1
vt 0 0.9838262604569713
vt 6.938893903907228e-18 0.9676472083893831
vt 0.016173739543028677 0.9719831943434968
vt 0 1
vt 9.08995101411847e-16 0.9375
vt 0.01675000000000091 0.9375
vt 0.01675000000000091 1
vt 9.08995101411847e-16 1
vt 0.03235013523928455 0.9838249323803577
vt 0.028019106204516944 1
vt 0 0.9838249323803577
vt 9.08995101411847e-16 0.96875
vt 0.01675000000000091 0.96875
vt 0.00837500000000091 1
vt 9.08995101411847e-16 0.9375
vt 0.01675000000000091 0.9375
vt 0.01675000000000091 1
vt 9.08995101411847e-16 1
vt 0.01675000000000091 1
vt 9.08995101411847e-16 1
vt 0.00837500000000091 0.96875
vt 0 1
vt 0.004331029034767606 0.9838249323803577
vt 0.03235013523928455 1
vt 9.08995101411847e-16 0.9375
vt 0.01675000000000091 0.9375
vt 0.01675000000000091 1
vt 9.08995101411847e-16 1
vt 0.01617373954302867 1
vt 0 0.9956640140458863
vt 0.016173739543028677 0.9676472083893831
vt 0 1
vt 0.004335985954113636 0.9838262604569713
vt 0.032352791610616854 1
vt 9.08995101411847e-16 0.9375
vt 0.01675000000000091 0.9375
vt 0.01675000000000091 1
vt 9.08995101411847e-16 1
vt 0.016175067619642273 1
vt 0 0.9956689709652324
vt 0.016175067619642276 0.9676498647607155
vt 0 0.9999999999999991
vt 0 0.9832499999999991
vt 0.03125 0.9916249999999991
vt 9.08995101411847e-16 0.9375
vt 0.01675000000000091 0.9375
vt 0.01675000000000091 1
vt 9.08995101411847e-16 1
vt 0 0.9999999999999991
vt 0 0.9832499999999991
vt 0.03125 0.9916249999999991
vt 0.016175067619642273 1
vt 0 0.9956689709652324
vt 0.016175067619642276 0.9676498647607155
vt 9.08995101411847e-16 0.9375
vt 0.01675000000000091 0.9375
vt 0.01675000000000091 1
vt 9.08995101411847e-16 1
vt 0 1
vt 0.004335985954113636 0.9838262604569713
vt 0.032352791610616854 1
vt 0.01617373954302867 1
vt 0 0.9956640140458863
vt 0.016173739543028677 0.9676472083893831
vt 9.08995101411847e-16 0.9375
vt 0.01675000000000091 0.9375
vt 0.01675000000000091 1
vt 9.08995101411847e-16 1
vt 0 1
vt 0.004331029034767606 0.9838249323803577
vt 0.03235013523928455 1
vt 0.01675000000000091 1
vt 9.08995101411847e-16 1
vt 0.00837500000000091 0.96875
vt 9.08995101411847e-16 0.9375
vt 0.01675000000000091 0.9375
vt 0.01675000000000091 1
vt 9.08995101411847e-16 1
vt 9.08995101411847e-16 0.96875
vt 0.01675000000000091 0.96875
vt 0.00837500000000091 1
vn 0 0 -1
vn -0.5000000000000033 0.8660254037844367 -2.0501241139855078e-16
vn 0 0 1
vn 0 0 -1
vn -0.8660254037844365 0.5000000000000039 -1.1825979099621779e-16
vn 0 0 1
vn 0 0 -1
vn -1 0 0
vn 0 0 1
vn 0 0 -1
vn -0.8660254037844366 -0.5000000000000037 1.182597909962178e-16
vn 0 0 1
vn 0 0 -1
vn -0.5000000000000034 -0.8660254037844367 2.0501241139855083e-16
vn 0 0 1
vn 0 0 -1
vn 0 -1 2.3684757858670006e-16
vn 0 0 1
vn 0 0 -1
vn 0.500000000000003 -0.866025403784437 2.0501241139855066e-16
vn 0 0 1
vn 0 0 -1
vn 0.8660254037844366 -0.5000000000000037 1.182597909962178e-16
vn 0 0 1
vn 0 0 -1
vn 1 -2.0717043678169205e-16 4.9067816306492786e-32
vn 0 0 1
vn 0 0 -1
vn 0.8660254037844368 0.5000000000000036 -1.1869139607284638e-16
vn 0 0 1
vn 0 0 -1
vn 0.5000000000000031 0.866025403784437 -2.050124113985507e-16
vn 0 0 1
vn 0 0 -1
vn 0 1 -2.3684757858670006e-16
vn 0 0 1
usemtl m_76e74502-788c-b2c2-6251-eb8357e0730b
f 1/1/1 2/2/1 3/3/1
f 2/4/2 1/5/2 4/6/2 5/7/2
f 5/8/3 4/9/3 6/10/3
f 7/11/4 1/12/4 3/13/4
f 1/14/5 7/15/5 8/16/5 4/17/5
f 4/18/6 8/19/6 6/20/6
f 9/21/7 7/22/7 3/23/7
f 7/24/8 9/25/8 10/26/8 8/27/8
f 8/28/9 10/29/9 6/30/9
f 11/31/10 9/32/10 3/33/10
f 9/34/11 11/35/11 12/36/11 10/37/11
f 10/38/12 12/39/12 6/40/12
f 13/41/13 11/42/13 3/43/13
f 11/44/14 13/45/14 14/46/14 12/47/14
f 12/48/15 14/49/15 6/50/15
f 15/51/16 13/52/16 3/53/16
f 13/54/17 15/55/17 16/56/17 14/57/17
f 14/58/18 16/59/18 6/60/18
f 17/61/19 15/62/19 3/63/19
f 15/64/20 17/65/20 18/66/20 16/67/20
f 16/68/21 18/69/21 6/70/21
f 19/71/22 17/72/22 3/73/22
f 17/74/23 19/75/23 20/76/23 18/77/23
f 18/78/24 20/79/24 6/80/24
f 21/81/25 19/82/25 3/83/25
f 19/84/26 21/85/26 22/86/26 20/87/26
f 20/88/27 22/89/27 6/90/27
f 23/91/28 21/92/28 3/93/28
f 21/94/29 23/95/29 24/96/29 22/97/29
f 22/98/30 24/99/30 6/100/30
f 25/101/31 23/102/31 3/103/31
f 23/104/32 25/105/32 26/106/32 24/107/32
f 24/108/33 26/109/33 6/110/33
f 2/111/34 25/112/34 3/113/34
f 25/114/35 2/115/35 5/116/35 26/117/35
f 26/118/36 5/119/36 6/120/36