# Made in Blockbench 5.1.6
mtllib nyc_subway_fare_gate_1_entrance_closed_light_layer.mtl

o right
v 0.48437499999999967 1.34375 -0.5012500000000001
v 0.32812499999999967 1.34375 -0.5012499999999999
v 0.3281249999999997 1.734375 -0.5012499999999998
v 0.4843749999999997 1.734375 -0.5012500000000001
vt 0.3818359375 0
vt 0.4208984375 0
vt 0.4208984375 0.09765625
vt 0.3818359375 0.09765625
vn -1.4210854715202005e-15 2.842170943040403e-16 -1
usemtl m_9bb9a684-8978-cb1e-7020-d145099b718c
f 1/1/1 2/2/1 3/3/1 4/4/1
o right
v 0.328125 1.34375 -0.06125
v 0.484375 1.34375 -0.06125
v 0.484375 1.734375 -0.06125
v 0.328125 1.734375 -0.06125
vt 0.341796875 0
vt 0.380859375 0
vt 0.380859375 0.09765625
vt 0.341796875 0.09765625
vn 0 0 1
usemtl m_9bb9a684-8978-cb1e-7020-d145099b718c
f 5/5/2 6/6/2 7/7/2 8/8/2
o cube
v 0.5 1.26625 0.5
v 0.5 1.14125 0.75
v 0.3125 1.094375 0.734375
v 0.3125 1.219375 0.5
vt 0.2177734375 0.0017455746593673105
vt 0.2177734375 0.0716234375
vt 0.1693263233721336 0.06638373020484845
vt 0.1689453125 0
vn -0.21821789023599242 0.8728715609439697 0.43643578047198484
usemtl m_9bb9a684-8978-cb1e-7020-d145099b718c
f 10/9/3 9/10/3 12/11/3 11/12/3