# Made in Blockbench 5.1.6
mtllib nyc_subway_fare_gate_6_exit_open.mtl

o left
v 0.59375 0 -0.375
v 0.40625 0 -0.375
v 0.40625 0.375 -0.375
v 0.59375 0.375 -0.375
v 0.59375 0 0.375
v 0.59375 0.375 0.375
v 0.40625 0 0.375
v 0.40625 0.375 0.375
vt 0.8828125 0.013671875
vt 0.904296875 0.013671875
vt 0.904296875 0.05065914062499999
vt 0.8828125 0.05065914062499999
vt 0.8828125 0.013671875
vt 0.947265625 0.013671875
vt 0.947265625 0.05065914062499999
vt 0.8828125 0.05065914062499999
vt 0.8828125 0.013671875
vt 0.904296875 0.013671875
vt 0.904296875 0.05065914062499999
vt 0.8828125 0.05065914062499999
vt 0.904296875 0.013671875
vt 0.96875 0.013671875
vt 0.96875 0.05065914062499999
vt 0.904296875 0.05065914062499999
vt 0.904296875 0.1123046875
vt 0.8828125 0.1123046875
vt 0.8828125 0.038330078125
vt 0.904296875 0.038330078125
vt 0.904296875 0.087646484375
vt 0.8828125 0.087646484375
vt 0.8828125 0.013671875
vt 0.904296875 0.013671875
vn 0 0 -1
vn 1 0 0
vn 0 0 1
vn -1 0 0
vn 0 1 0
vn 0 -1 0
usemtl m_48d4d747-3a18-c382-0191-bc92bdf1f794
f 1/1/1 2/2/1 3/3/1 4/4/1
f 5/5/2 1/6/2 4/7/2 6/8/2
f 7/9/3 5/10/3 6/11/3 8/12/3
f 2/13/4 7/14/4 8/15/4 3/16/4
f 8/17/5 6/18/5 4/19/5 3/20/5
f 2/21/6 1/22/6 5/23/6 7/24/6
o right
v -0.40625 0 -0.375
v -0.59375 0 -0.375
v -0.59375 0.375 -0.375
v -0.40625 0.375 -0.375
v -0.40625 0 0.375
v -0.40625 0.375 0.375
v -0.59375 0 0.375
v -0.59375 0.375 0.375
vt 0.8828125 0.013671875
vt 0.904296875 0.013671875
vt 0.904296875 0.05065914062499999
vt 0.8828125 0.05065914062499999
vt 0.904296875 0.013671875
vt 0.96875 0.013671875
vt 0.96875 0.05065914062499999
vt 0.904296875 0.05065914062499999
vt 0.8828125 0.013671875
vt 0.904296875 0.013671875
vt 0.904296875 0.05065914062499999
vt 0.8828125 0.05065914062499999
vt 0.8828125 0.013671875
vt 0.947265625 0.013671875
vt 0.947265625 0.05065914062499999
vt 0.8828125 0.05065914062499999
vt 0.904296875 0.087646484375
vt 0.8828125 0.087646484375
vt 0.8828125 0.013671875
vt 0.904296875 0.013671875
vt 0.904296875 0.1123046875
vt 0.8828125 0.1123046875
vt 0.8828125 0.038330078125
vt 0.904296875 0.038330078125
vn 0 0 -1
vn 1 0 0
vn 0 0 1
vn -1 0 0
vn 0 1 0
vn 0 -1 0
usemtl m_48d4d747-3a18-c382-0191-bc92bdf1f794
f 9/25/7 10/26/7 11/27/7 12/28/7
f 13/29/8 9/30/8 12/31/8 14/32/8
f 15/33/9 13/34/9 14/35/9 16/36/9
f 10/37/10 15/38/10 16/39/10 11/40/10
f 16/41/11 14/42/11 12/43/11 11/44/11
f 10/45/12 9/46/12 13/47/12 15/48/12
o right
v 0.47712375 0.375 -0.02287625
v 0.49162625 0.375 -0.03125
v 0.5 0.375 0
v 0.47712375 1.75 -0.02287625
v 0.49162625 1.75 -0.03125
v 0.5 1.75 0
v 0.46875 0.375 -0.00837375
v 0.46875 1.75 -0.00837375
v 0.46875 0.375 0.00837375
v 0.46875 1.75 0.00837375
v 0.47712375 0.375 0.02287625
v 0.47712375 1.75 0.02287625
v 0.49162625 0.375 0.03125
v 0.49162625 1.75 0.03125
v 0.50837375 0.375 0.03125
v 0.50837375 1.75 0.03125
v 0.52287625 0.375 0.02287625
v 0.52287625 1.75 0.02287625
v 0.53125 0.375 0.00837375
v 0.53125 1.75 0.00837375
v 0.53125 0.375 -0.00837375
v 0.53125 1.75 -0.00837375
v 0.52287625 0.375 -0.02287625
v 0.52287625 1.75 -0.02287625
v 0.50837375 0.375 -0.03125
v 0.50837375 1.75 -0.03125
vt 0.928846953125 0.11059874999999997
vt 0.925821640625 0.1123046875
vt 0.90625 0.11059874999999997
vt 0.90625 0.0595703125
vt 0.917950078125 0.0595703125
vt 0.917950078125 0.1123046875
vt 0.90625 0.1123046875
vt 0.90625 0.10889249999999995
vt 0.9175475 0.10934976562499998
vt 0.90625 0.1123046875
vt 0.92884875 0.11059882812499999
vt 0.925820078125 0.1123046875
vt 0.90625 0.11059882812499999
vt 0.90625 0.0595703125
vt 0.917950078125 0.0595703125
vt 0.917950078125 0.1123046875
vt 0.90625 0.1123046875
vt 0.90625 0.10889273437500002
vt 0.9175484375 0.10934953125000002
vt 0.90625 0.1123046875
vt 0.9280784375 0.11053804687500002
vt 0.9280784375 0.1123046875
vt 0.90625 0.11142140624999997
vt 0.90625 0.0595703125
vt 0.917950078125 0.0595703125
vt 0.917950078125 0.1123046875
vt 0.90625 0.1123046875
vt 0.9280784375 0.11053804687500002
vt 0.9280784375 0.1123046875
vt 0.90625 0.11142140624999997
vt 0.90625 0.10889273437500002
vt 0.9175484375 0.10934953125000002
vt 0.90625 0.1123046875
vt 0.90625 0.0595703125
vt 0.917950078125 0.0595703125
vt 0.917950078125 0.1123046875
vt 0.90625 0.1123046875
vt 0.92884875 0.11059882812499999
vt 0.925820078125 0.1123046875
vt 0.90625 0.11059882812499999
vt 0.90625 0.10889249999999995
vt 0.9175475 0.10934976562499998
vt 0.90625 0.1123046875
vt 0.90625 0.0595703125
vt 0.917950078125 0.0595703125
vt 0.917950078125 0.1123046875
vt 0.90625 0.1123046875
vt 0.928846953125 0.11059874999999997
vt 0.925821640625 0.1123046875
vt 0.90625 0.11059874999999997
vt 0.90625 0.10900874999999999
vt 0.917950078125 0.10900874999999999
vt 0.9121 0.1123046875
vt 0.90625 0.0595703125
vt 0.917950078125 0.0595703125
vt 0.917950078125 0.1123046875
vt 0.90625 0.1123046875
vt 0.917950078125 0.1123046875
vt 0.90625 0.1123046875
vt 0.9121 0.10900874999999999
vt 0.90625 0.1123046875
vt 0.909275234375 0.11059874999999997
vt 0.928846953125 0.1123046875
vt 0.90625 0.0595703125
vt 0.917950078125 0.0595703125
vt 0.917950078125 0.1123046875
vt 0.90625 0.1123046875
vt 0.9175475 0.1123046875
vt 0.90625 0.11184734375000005
vt 0.9175475 0.10889249999999995
vt 0.90625 0.1123046875
vt 0.90927875 0.11059882812499999
vt 0.92884875 0.1123046875
vt 0.90625 0.0595703125
vt 0.917950078125 0.0595703125
vt 0.917950078125 0.1123046875
vt 0.90625 0.1123046875
vt 0.9175484375 0.1123046875
vt 0.90625 0.111847890625
vt 0.9175484375 0.10889273437500002
vt 0.90625 0.1123046875
vt 0.90625 0.11053804687500002
vt 0.9280784375 0.11142140624999997
vt 0.90625 0.0595703125
vt 0.917950078125 0.0595703125
vt 0.917950078125 0.1123046875
vt 0.90625 0.1123046875
vt 0.90625 0.1123046875
vt 0.90625 0.11053804687500002
vt 0.9280784375 0.11142140624999997
vt 0.9175484375 0.1123046875
vt 0.90625 0.111847890625
vt 0.9175484375 0.10889273437500002
vt 0.90625 0.0595703125
vt 0.917950078125 0.0595703125
vt 0.917950078125 0.1123046875
vt 0.90625 0.1123046875
vt 0.90625 0.1123046875
vt 0.90927875 0.11059882812499999
vt 0.92884875 0.1123046875
vt 0.9175475 0.1123046875
vt 0.90625 0.11184734375000005
vt 0.9175475 0.10889249999999995
vt 0.90625 0.0595703125
vt 0.917950078125 0.0595703125
vt 0.917950078125 0.1123046875
vt 0.90625 0.1123046875
vt 0.90625 0.1123046875
vt 0.909275234375 0.11059874999999997
vt 0.928846953125 0.1123046875
vt 0.917950078125 0.1123046875
vt 0.90625 0.1123046875
vt 0.9121 0.10900874999999999
vt 0.90625 0.0595703125
vt 0.917950078125 0.0595703125
vt 0.917950078125 0.1123046875
vt 0.90625 0.1123046875
vt 0.90625 0.10900874999999999
vt 0.917950078125 0.10900874999999999
vt 0.9121 0.1123046875
vn 0 -1 0
vn -0.5000325911601279 0 -0.8660065864516784
vn 0 1 0
vn 0 -1 0
vn -0.8660065864516785 0 -0.5000325911601278
vn 0 1 0
vn 0 -1 0
vn -1 0 0
vn 0 1 0
vn 0 -1 0
vn -0.8660065864516785 0 0.5000325911601278
vn 0 1 0
vn 0 -1 0
vn -0.5000325911601279 0 0.8660065864516784
vn 0 1 0
vn 0 -1 0
vn 0 0 1
vn 0 1 0
vn 0 -1 0
vn 0.500032591160125 0 0.86600658645168
vn 0 1 0
vn 0 -1 0
vn 0.8660065864516799 0 0.5000325911601253
vn 0 1 0
vn 0 -1 0
vn 1 0 0
vn 0 1 0
vn 0 -1 0
vn 0.8660065864516799 0 -0.5000325911601253
vn 0 1 0
vn 0 -1 0
vn 0.500032591160125 0 -0.86600658645168
vn 0 1 0
vn 0 -1 0
vn 0 0 -1
vn 0 1 0
usemtl m_48d4d747-3a18-c382-0191-bc92bdf1f794
f 17/49/13 18/50/13 19/51/13
f 18/52/14 17/53/14 20/54/14 21/55/14
f 21/56/15 20/57/15 22/58/15
f 23/59/16 17/60/16 19/61/16
f 17/62/17 23/63/17 24/64/17 20/65/17
f 20/66/18 24/67/18 22/68/18
f 25/69/19 23/70/19 19/71/19
f 23/72/20 25/73/20 26/74/20 24/75/20
f 24/76/21 26/77/21 22/78/21
f 27/79/22 25/80/22 19/81/22
f 25/82/23 27/83/23 28/84/23 26/85/23
f 26/86/24 28/87/24 22/88/24
f 29/89/25 27/90/25 19/91/25
f 27/92/26 29/93/26 30/94/26 28/95/26
f 28/96/27 30/97/27 22/98/27
f 31/99/28 29/100/28 19/101/28
f 29/102/29 31/103/29 32/104/29 30/105/29
f 30/106/30 32/107/30 22/108/30
f 33/109/31 31/110/31 19/111/31
f 31/112/32 33/113/32 34/114/32 32/115/32
f 32/116/33 34/117/33 22/118/33
f 35/119/34 33/120/34 19/121/34
f 33/122/35 35/123/35 36/124/35 34/125/35
f 34/126/36 36/127/36 22/128/36
f 37/129/37 35/130/37 19/131/37
f 35/132/38 37/133/38 38/134/38 36/135/38
f 36/136/39 38/137/39 22/138/39
f 39/139/40 37/140/40 19/141/40
f 37/142/41 39/143/41 40/144/41 38/145/41
f 38/146/42 40/147/42 22/148/42
f 41/149/43 39/150/43 19/151/43
f 39/152/44 41/153/44 42/154/44 40/155/44
f 40/156/45 42/157/45 22/158/45
f 18/159/46 41/160/46 19/161/46
f 41/162/47 18/163/47 21/164/47 42/165/47
f 42/166/48 21/167/48 22/168/48
o left
v 0.59375 1.75 -0.0625
v 0.40625 1.75 -0.0625
v 0.40625 2.0625 -0.0625
v 0.59375 2.0625 -0.0625
v 0.59375 1.75 0.0625
v 0.59375 2.0625 0.0625
v 0.40625 1.75 0.0625
v 0.40625 2.0625 0.0625
vt 0.8984375 0
vt 1 0
vt 1 0.0751953125
vt 0.8984375 0.0751953125
vt 0.888671875 0.0087890625
vt 0.982421875 0.0087890625
vt 0.982421875 0.1142578125
vt 0.888671875 0.1142578125
vt 0.8984375 0
vt 1 0
vt 1 0.0751953125
vt 0.8984375 0.0751953125
vt 0.888671875 0.0087890625
vt 0.982421875 0.0087890625
vt 0.982421875 0.1142578125
vt 0.888671875 0.1142578125
vt 1 0.0869140625
vt 0.8984375 0.0869140625
vt 0.8984375 0.0234375
vt 1 0.0234375
vt 1 0.0869140625
vt 0.8984375 0.0869140625
vt 0.8984375 0.0234375
vt 1 0.0234375
vn 0 0 -1
vn 1 0 0
vn 0 0 1
vn -1 0 0
vn 0 1 0
vn 0 -1 0
usemtl m_48d4d747-3a18-c382-0191-bc92bdf1f794
f 43/169/49 44/170/49 45/171/49 46/172/49
f 47/173/50 43/174/50 46/175/50 48/176/50
f 49/177/51 47/178/51 48/179/51 50/180/51
f 44/181/52 49/182/52 50/183/52 45/184/52
f 50/185/53 48/186/53 46/187/53 45/188/53
f 44/189/54 43/190/54 47/191/54 49/192/54
o left
v -0.59375 1.75 0.06250000000000007
v -0.40625 1.75 0.06250000000000004
v -0.40625 2.0625 0.06250000000000004
v -0.59375 2.0625 0.06250000000000007
v -0.59375 1.75 -0.06249999999999994
v -0.59375 2.0625 -0.06249999999999994
v -0.40625 1.75 -0.06249999999999996
v -0.40625 2.0625 -0.06249999999999996
vt 0.8984375 0
vt 1 0
vt 1 0.0751953125
vt 0.8984375 0.0751953125
vt 0.888671875 0.0087890625
vt 0.982421875 0.0087890625
vt 0.982421875 0.1142578125
vt 0.888671875 0.1142578125
vt 0.8984375 0
vt 1 0
vt 1 0.0751953125
vt 0.8984375 0.0751953125
vt 0.888671875 0.0087890625
vt 0.982421875 0.0087890625
vt 0.982421875 0.1142578125
vt 0.888671875 0.1142578125
vt 1 0.0869140625
vt 0.8984375 0.0869140625
vt 0.8984375 0.0234375
vt 1 0.0234375
vt 1 0.0869140625
vt 0.8984375 0.0869140625
vt 0.8984375 0.0234375
vt 1 0.0234375
vn 1.4802973661668753e-16 0 1
vn -1 0 0
vn -1.1102230246251565e-16 0 -1
vn 1 0 0
vn 0 1 0
vn 0 -1 0
usemtl m_48d4d747-3a18-c382-0191-bc92bdf1f794
f 51/193/55 52/194/55 53/195/55 54/196/55
f 55/197/56 51/198/56 54/199/56 56/200/56
f 57/201/57 55/202/57 56/203/57 58/204/57
f 52/205/58 57/206/58 58/207/58 53/208/58
f 58/209/59 56/210/59 54/211/59 53/212/59
f 52/213/60 51/214/60 55/215/60 57/216/60
o right
v -0.49162625 0.375 -0.031249999999999948
v -0.47712375 0.375 0.022876250000000053
v -0.49162625 0.375 0.031250000000000056
v -0.5 0.375 5.35782974626967e-17
v -0.47712375 1.75 0.022876250000000053
v -0.49162625 1.75 0.031250000000000056
v -0.5 1.75 5.35782974626967e-17
v -0.46875 0.375 0.00837375000000005
v -0.46875 1.75 0.00837375000000005
v -0.46875 0.375 -0.008373749999999949
v -0.46875 1.75 -0.008373749999999949
v -0.47712375 0.375 -0.02287624999999995
v -0.47712375 1.75 -0.02287624999999995
v -0.49162625 1.75 -0.031249999999999948
v -0.5083737500000001 0.375 -0.031249999999999944
v -0.5083737500000001 1.75 -0.031249999999999944
v -0.5228762499999999 0.375 -0.022876249999999945
v -0.5228762499999999 1.75 -0.022876249999999945
v -0.53125 0.375 -0.008373749999999942
v -0.53125 1.75 -0.008373749999999942
v -0.53125 0.375 0.008373750000000056
v -0.53125 1.75 0.008373750000000056
v -0.5228762499999999 0.375 0.022876250000000056
v -0.5228762499999999 1.75 0.022876250000000056
v -0.5083737500000001 0.375 0.031250000000000056
v -0.5083737500000001 1.75 0.031250000000000056
vt 0.928846953125 0.11059874999999997
vt 0.925821640625 0.1123046875
vt 0.90625 0.11059874999999997
vt 0.90625 0.0595703125
vt 0.917950078125 0.0595703125
vt 0.917950078125 0.1123046875
vt 0.90625 0.1123046875
vt 0.90625 0.10889249999999995
vt 0.9175475 0.10934976562499998
vt 0.90625 0.1123046875
vt 0.92884875 0.11059882812499999
vt 0.925820078125 0.1123046875
vt 0.90625 0.11059882812499999
vt 0.90625 0.0595703125
vt 0.917950078125 0.0595703125
vt 0.917950078125 0.1123046875
vt 0.90625 0.1123046875
vt 0.90625 0.10889273437500002
vt 0.9175484375 0.10934953125000002
vt 0.90625 0.1123046875
vt 0.9280784375 0.11053804687500002
vt 0.9280784375 0.1123046875
vt 0.90625 0.11142140624999997
vt 0.90625 0.0595703125
vt 0.917950078125 0.0595703125
vt 0.917950078125 0.1123046875
vt 0.90625 0.1123046875
vt 0.9280784375 0.11053804687500002
vt 0.9280784375 0.1123046875
vt 0.90625 0.11142140624999997
vt 0.90625 0.10889273437500002
vt 0.9175484375 0.10934953125000002
vt 0.90625 0.1123046875
vt 0.90625 0.0595703125
vt 0.917950078125 0.0595703125
vt 0.917950078125 0.1123046875
vt 0.90625 0.1123046875
vt 0.92884875 0.11059882812499999
vt 0.925820078125 0.1123046875
vt 0.90625 0.11059882812499999
vt 0.90625 0.10889249999999995
vt 0.9175475 0.10934976562499998
vt 0.90625 0.1123046875
vt 0.90625 0.0595703125
vt 0.917950078125 0.0595703125
vt 0.917950078125 0.1123046875
vt 0.90625 0.1123046875
vt 0.928846953125 0.11059874999999997
vt 0.925821640625 0.1123046875
vt 0.90625 0.11059874999999997
vt 0.90625 0.10900874999999999
vt 0.917950078125 0.10900874999999999
vt 0.9121 0.1123046875
vt 0.90625 0.0595703125
vt 0.917950078125 0.0595703125
vt 0.917950078125 0.1123046875
vt 0.90625 0.1123046875
vt 0.917950078125 0.1123046875
vt 0.90625 0.1123046875
vt 0.9121 0.10900874999999999
vt 0.90625 0.1123046875
vt 0.909275234375 0.11059874999999997
vt 0.928846953125 0.1123046875
vt 0.90625 0.0595703125
vt 0.917950078125 0.0595703125
vt 0.917950078125 0.1123046875
vt 0.90625 0.1123046875
vt 0.9175475 0.1123046875
vt 0.90625 0.11184734375000005
vt 0.9175475 0.10889249999999995
vt 0.90625 0.1123046875
vt 0.90927875 0.11059882812499999
vt 0.92884875 0.1123046875
vt 0.90625 0.0595703125
vt 0.917950078125 0.0595703125
vt 0.917950078125 0.1123046875
vt 0.90625 0.1123046875
vt 0.9175484375 0.1123046875
vt 0.90625 0.111847890625
vt 0.9175484375 0.10889273437500002
vt 0.90625 0.1123046875
vt 0.90625 0.11053804687500002
vt 0.9280784375 0.11142140624999997
vt 0.90625 0.0595703125
vt 0.917950078125 0.0595703125
vt 0.917950078125 0.1123046875
vt 0.90625 0.1123046875
vt 0.90625 0.1123046875
vt 0.90625 0.11053804687500002
vt 0.9280784375 0.11142140624999997
vt 0.9175484375 0.1123046875
vt 0.90625 0.111847890625
vt 0.9175484375 0.10889273437500002
vt 0.90625 0.0595703125
vt 0.917950078125 0.0595703125
vt 0.917950078125 0.1123046875
vt 0.90625 0.1123046875
vt 0.90625 0.1123046875
vt 0.90927875 0.11059882812499999
vt 0.92884875 0.1123046875
vt 0.9175475 0.1123046875
vt 0.90625 0.11184734375000005
vt 0.9175475 0.10889249999999995
vt 0.90625 0.0595703125
vt 0.917950078125 0.0595703125
vt 0.917950078125 0.1123046875
vt 0.90625 0.1123046875
vt 0.90625 0.1123046875
vt 0.909275234375 0.11059874999999997
vt 0.928846953125 0.1123046875
vt 0.917950078125 0.1123046875
vt 0.90625 0.1123046875
vt 0.9121 0.10900874999999999
vt 0.90625 0.0595703125
vt 0.917950078125 0.0595703125
vt 0.917950078125 0.1123046875
vt 0.90625 0.1123046875
vt 0.90625 0.10900874999999999
vt 0.917950078125 0.10900874999999999
vt 0.9121 0.1123046875
vn 0 -1 0
vn 0.5000325911601281 0 0.8660065864516785
vn 0 1 0
vn 0 -1 0
vn 0.8660065864516785 0 0.5000325911601278
vn 0 1 0
vn 0 -1 0
vn 1 0 0
vn 0 1 0
vn 0 -1 0
vn 0.8660065864516786 0 -0.5000325911601279
vn 0 1 0
vn 0 -1 0
vn 0.5000325911601279 0 -0.8660065864516784
vn 0 1 0
vn 0 -1 0
vn -2.0716208102424824e-16 0 -1
vn 0 1 0
vn 0 -1 0
vn -0.5000325911601308 0 -0.8660065864516767
vn 0 1 0
vn 0 -1 0
vn -0.866006586451677 0 -0.5000325911601302
vn 0 1 0
vn 0 -1 0
vn -1 0 0
vn 0 1 0
vn 0 -1 0
vn -0.8660065864516772 0 0.5000325911601304
vn 0 1 0
vn 0 -1 0
vn -0.5000325911601308 0 0.8660065864516767
vn 0 1 0
vn 0 -1 0
vn 0 0 1
vn 0 1 0
usemtl m_48d4d747-3a18-c382-0191-bc92bdf1f794
f 60/217/61 61/218/61 62/219/61
f 61/220/62 60/221/62 63/222/62 64/223/62
f 64/224/63 63/225/63 65/226/63
f 66/227/64 60/228/64 62/229/64
f 60/230/65 66/231/65 67/232/65 63/233/65
f 63/234/66 67/235/66 65/236/66
f 68/237/67 66/238/67 62/239/67
f 66/240/68 68/241/68 69/242/68 67/243/68
f 67/244/69 69/245/69 65/246/69
f 70/247/70 68/248/70 62/249/70
f 68/250/71 70/251/71 71/252/71 69/253/71
f 69/254/72 71/255/72 65/256/72
f 59/257/73 70/258/73 62/259/73
f 70/260/74 59/261/74 72/262/74 71/263/74
f 71/264/75 72/265/75 65/266/75
f 73/267/76 59/268/76 62/269/76
f 59/270/77 73/271/77 74/272/77 72/273/77
f 72/274/78 74/275/78 65/276/78
f 75/277/79 73/278/79 62/279/79
f 73/280/80 75/281/80 76/282/80 74/283/80
f 74/284/81 76/285/81 65/286/81
f 77/287/82 75/288/82 62/289/82
f 75/290/83 77/291/83 78/292/83 76/293/83
f 76/294/84 78/295/84 65/296/84
f 79/297/85 77/298/85 62/299/85
f 77/300/86 79/301/86 80/302/86 78/303/86
f 78/304/87 80/305/87 65/306/87
f 81/307/88 79/308/88 62/309/88
f 79/310/89 81/311/89 82/312/89 80/313/89
f 80/314/90 82/315/90 65/316/90
f 83/317/91 81/318/91 62/319/91
f 81/320/92 83/321/92 84/322/92 82/323/92
f 82/324/93 84/325/93 65/326/93
f 61/327/94 83/328/94 62/329/94
f 83/330/95 61/331/95 64/332/95 84/333/95
f 84/334/96 64/335/96 65/336/96
o cube
v -0.59375 0 -0.375
v -0.59375 1.171875 -0.375
v -0.59375 1.171875 -0.5625
v -0.59375 0 -0.5625
v -0.40625 0 -0.5625
v -0.40625 1.125 -0.5625
v -0.40625 1.125 -0.375
v -0.40625 0 -0.375
vt 0.9423828125 0.04296875
vt 0.9423828125 0.10546875
vt 0.8818359375 0.10546875
vt 0.8818359375 0.04296875
vt 0.9423828125 0.04296875
vt 0.9423828125 0.10546875
vt 0.8818359375 0.10546875
vt 0.8818359375 0.04296875
vt 0.9423828125 0.09375
vt 0.9423828125 0.10546875
vt 0.8818359375 0.10546875
vt 0.8818359375 0.09375
vt 0.9423828125 0.09375
vt 0.9423828125 0.10546875
vt 0.8818359375 0.10546875
vt 0.8818359375 0.09375
vt 0.9423828125 0.04296875
vt 0.9423828125 0.10546875
vt 0.8818359375 0.10546875
vt 0.8818359375 0.04296875
vt 0.9423828125 0.04296875
vt 0.9423828125 0.10546875
vt 0.8818359375 0.10546875
vt 0.8818359375 0.04296875
vn -1 0 0
vn 1 0 0
vn 0.24253562503633297 0.9701425001453319 0
vn 0 -1 0
vn 0 0 -1
vn 0 0 1
usemtl m_48d4d747-3a18-c382-0191-bc92bdf1f794
f 85/337/97 86/338/97 87/339/97 88/340/97
f 89/341/98 90/342/98 91/343/98 92/344/98
f 87/345/99 86/346/99 91/347/99 90/348/99
f 85/349/100 88/350/100 89/351/100 92/352/100
f 88/353/101 87/354/101 90/355/101 89/356/101
f 92/357/102 91/358/102 86/359/102 85/360/102
o cube
v 0.40625 1.171875 -0.5625
v 0.40625 1.046875 -0.8125
v 0.40625 0 -0.5625
v 0.59375 1 -0.796875
v 0.59375 1.125 -0.5625
v 0.59375 0 -0.5625
vt 0.15625 1
vt 0.125 0.984375
vt 0.15625 0.853515625
vt 0.185546875 0.984375
vt 0.15625 1
vt 0.15625 0.859375
vt 0.4052734375 0.001745546874999948
vt 0.4052734375 0.0716234375
vt 0.356826328125 0.06638374999999996
vt 0.3564453125 0
vt 0.1719884375 0.8984375
vt 0.3065271875 0.8984375
vt 0.300375 0.921875
vt 0.1719884375 0.92186265625
vt 0.1484375 0.736328125
vt 0.1484375 0.876953125
vt 0.125 0.8828125
vt 0.125 0.736328125
vn -1 0 0
vn 1 0 0
vn 0.21821789023599242 0.8728715609439697 -0.43643578047198484
vn 0.022979445803036843 -0.23221334706226704 -0.9723933908232433
vn 0 0 1
usemtl m_48d4d747-3a18-c382-0191-bc92bdf1f794
f 93/361/103 94/362/103 95/363/103
f 96/364/104 97/365/104 98/366/104
f 94/367/105 93/368/105 97/369/105 96/370/105
f 95/371/106 94/372/106 96/373/106 98/374/106
f 98/375/107 97/376/107 93/377/107 95/378/107
o cube
v 0.40625 0 -0.375
v 0.40625 1.171875 -0.375
v 0.40625 1.171875 -0.5625
v 0.40625 0 -0.5625
v 0.59375 0 -0.5625
v 0.59375 1.125 -0.5625
v 0.59375 1.125 -0.375
v 0.59375 0 -0.375
vt 0.9423828125 0.04296875
vt 0.9423828125 0.10546875
vt 0.8818359375 0.10546875
vt 0.8818359375 0.04296875
vt 0.9423828125 0.04296875
vt 0.9423828125 0.10546875
vt 0.8818359375 0.10546875
vt 0.8818359375 0.04296875
vt 0.9423828125 0.09375
vt 0.9423828125 0.10546875
vt 0.8818359375 0.10546875
vt 0.8818359375 0.09375
vt 0.9423828125 0.09375
vt 0.9423828125 0.10546875
vt 0.8818359375 0.10546875
vt 0.8818359375 0.09375
vt 0.9423828125 0.04296875
vt 0.9423828125 0.10546875
vt 0.8818359375 0.10546875
vt 0.8818359375 0.04296875
vt 0.9423828125 0.04296875
vt 0.9423828125 0.10546875
vt 0.8818359375 0.10546875
vt 0.8818359375 0.04296875
vn -1 0 0
vn 1 0 0
vn 0.24253562503633297 0.9701425001453319 0
vn 0 -1 0
vn 0 0 -1
vn 0 0 1
usemtl m_48d4d747-3a18-c382-0191-bc92bdf1f794
f 99/379/108 100/380/108 101/381/108 102/382/108
f 103/383/109 104/384/109 105/385/109 106/386/109
f 101/387/110 100/388/110 105/389/110 104/390/110
f 99/391/111 102/392/111 103/393/111 106/394/111
f 102/395/112 101/396/112 104/397/112 103/398/112
f 106/399/113 105/400/113 100/401/113 99/402/113
o cube
v -0.40624999999999994 0 0.37500000000000006
v -0.40624999999999994 1.171875 0.37500000000000006
v -0.40624999999999994 1.171875 0.5625
v -0.40624999999999994 0 0.5625
v -0.5937499999999999 0 0.5625000000000001
v -0.5937499999999999 1.125 0.5625000000000001
v -0.59375 1.125 0.37500000000000006
v -0.59375 0 0.37500000000000006
vt 0.9423828125 0.04296875
vt 0.9423828125 0.10546875
vt 0.8818359375 0.10546875
vt 0.8818359375 0.04296875
vt 0.9423828125 0.04296875
vt 0.9423828125 0.10546875
vt 0.8818359375 0.10546875
vt 0.8818359375 0.04296875
vt 0.9423828125 0.09375
vt 0.9423828125 0.10546875
vt 0.8818359375 0.10546875
vt 0.8818359375 0.09375
vt 0.9423828125 0.09375
vt 0.9423828125 0.10546875
vt 0.8818359375 0.10546875
vt 0.8818359375 0.09375
vt 0.9423828125 0.04296875
vt 0.9423828125 0.10546875
vt 0.8818359375 0.10546875
vt 0.8818359375 0.04296875
vt 0.9423828125 0.04296875
vt 0.9423828125 0.10546875
vt 0.8818359375 0.10546875
vt 0.8818359375 0.04296875
vn 1 0 0
vn -1 0 5.9211894646675e-16
vn -0.2425356250363329 0.9701425001453321 0
vn 0 -1 0
vn 5.921189464667503e-16 0 1
vn 0 0 -1
usemtl m_48d4d747-3a18-c382-0191-bc92bdf1f794
f 107/403/114 108/404/114 109/405/114 110/406/114
f 111/407/115 112/408/115 113/409/115 114/410/115
f 109/411/116 108/412/116 113/413/116 112/414/116
f 107/415/117 110/416/117 111/417/117 114/418/117
f 110/419/118 109/420/118 112/421/118 111/422/118
f 114/423/119 113/424/119 108/425/119 107/426/119
o cube
v 0.5937500000000001 1.171875 0.5624999999999999
v 0.5937500000000001 1.046875 0.8124999999999999
v 0.5937500000000001 0 0.5624999999999999
v 0.4062500000000001 1 0.796875
v 0.40625000000000006 1.125 0.5625
v 0.40625000000000006 0 0.5625
vt 0.15625 1
vt 0.125 0.984375
vt 0.15625 0.853515625
vt 0.185546875 0.984375
vt 0.15625 1
vt 0.15625 0.859375
vt 0.4052734375 0.001745546874999948
vt 0.4052734375 0.0716234375
vt 0.356826328125 0.06638374999999996
vt 0.3564453125 0
vt 0.1719884375 0.8984375
vt 0.3065271875 0.8984375
vt 0.300375 0.921875
vt 0.1719884375 0.92186265625
vt 0.1484375 0.736328125
vt 0.1484375 0.876953125
vt 0.125 0.8828125
vt 0.125 0.736328125
vn 1 0 0
vn -1 0 2.3684757858670006e-16
vn -0.2182178902359921 0.8728715609439698 0.4364357804719849
vn -0.02297944580303629 -0.23221334706226704 0.9723933908232433
vn -5.9211894646675e-16 0 -1
usemtl m_48d4d747-3a18-c382-0191-bc92bdf1f794
f 115/427/120 116/428/120 117/429/120
f 118/430/121 119/431/121 120/432/121
f 116/433/122 115/434/122 119/435/122 118/436/122
f 117/437/123 116/438/123 118/439/123 120/440/123
f 120/441/124 119/442/124 115/443/124 117/444/124
o cube
v 0.59375 0 0.37499999999999994
v 0.59375 1.171875 0.37499999999999994
v 0.5937500000000001 1.171875 0.5624999999999999
v 0.5937500000000001 0 0.5624999999999999
v 0.40625000000000006 0 0.5625
v 0.40625000000000006 1.125 0.5625
v 0.40625000000000006 1.125 0.37499999999999994
v 0.40625000000000006 0 0.37499999999999994
vt 0.9423828125 0.04296875
vt 0.9423828125 0.10546875
vt 0.8818359375 0.10546875
vt 0.8818359375 0.04296875
vt 0.9423828125 0.04296875
vt 0.9423828125 0.10546875
vt 0.8818359375 0.10546875
vt 0.8818359375 0.04296875
vt 0.9423828125 0.09375
vt 0.9423828125 0.10546875
vt 0.8818359375 0.10546875
vt 0.8818359375 0.09375
vt 0.9423828125 0.09375
vt 0.9423828125 0.10546875
vt 0.8818359375 0.10546875
vt 0.8818359375 0.09375
vt 0.9423828125 0.04296875
vt 0.9423828125 0.10546875
vt 0.8818359375 0.10546875
vt 0.8818359375 0.04296875
vt 0.9423828125 0.04296875
vt 0.9423828125 0.10546875
vt 0.8818359375 0.10546875
vt 0.8818359375 0.04296875
vn 1 0 -5.921189464667503e-16
vn -1 0 0
vn -0.242535625036333 0.9701425001453319 1.436099387771683e-16
vn 0 -1 0
vn 5.9211894646675e-16 0 1
vn 0 0 -1
usemtl m_48d4d747-3a18-c382-0191-bc92bdf1f794
f 121/445/125 122/446/125 123/447/125 124/448/125
f 125/449/126 126/450/126 127/451/126 128/452/126
f 123/453/127 122/454/127 127/455/127 126/456/127
f 121/457/128 124/458/128 125/459/128 128/460/128
f 124/461/129 123/462/129 126/463/129 125/464/129
f 128/465/130 127/466/130 122/467/130 121/468/130
o cube
v -0.40624999999999994 1.171875 0.5625
v -0.4062499999999999 1.046875 0.8125
v -0.40624999999999994 0 0.5625
v -0.5937499999999999 1 0.7968750000000001
v -0.5937499999999999 1.125 0.5625000000000001
v -0.5937499999999999 0 0.5625000000000001
vt 0.15625 1
vt 0.125 0.984375
vt 0.15625 0.853515625
vt 0.185546875 0.984375
vt 0.15625 1
vt 0.15625 0.859375
vt 0.4052734375 0.001745546874999948
vt 0.4052734375 0.0716234375
vt 0.356826328125 0.06638374999999996
vt 0.3564453125 0
vt 0.1719884375 0.8984375
vt 0.3065271875 0.8984375
vt 0.300375 0.921875
vt 0.1719884375 0.92186265625
vt 0.1484375 0.736328125
vt 0.1484375 0.876953125
vt 0.125 0.8828125
vt 0.125 0.736328125
vn 1 0 -2.220446049250313e-16
vn -1 0 0
vn -0.2182178902359922 0.8728715609439696 0.43643578047198484
vn -0.02297944580303629 -0.23221334706226704 0.9723933908232433
vn -5.921189464667503e-16 0 -1
usemtl m_48d4d747-3a18-c382-0191-bc92bdf1f794
f 129/469/131 130/470/131 131/471/131
f 132/472/132 133/473/132 134/474/132
f 130/475/133 129/476/133 133/477/133 132/478/133
f 131/479/134 130/480/134 132/481/134 134/482/134
f 134/483/135 133/484/135 129/485/135 131/486/135
o cube
v -0.59375 1.171875 -0.5625
v -0.59375 1.046875 -0.8125
v -0.59375 0 -0.5625
v -0.40625 1 -0.796875
v -0.40625 1.125 -0.5625
v -0.40625 0 -0.5625
vt 0.15625 1
vt 0.125 0.984375
vt 0.15625 0.853515625
vt 0.185546875 0.984375
vt 0.15625 1
vt 0.15625 0.859375
vt 0.4052734375 0.001745546874999948
vt 0.4052734375 0.0716234375
vt 0.356826328125 0.06638374999999996
vt 0.3564453125 0
vt 0.1719884375 0.8984375
vt 0.3065271875 0.8984375
vt 0.300375 0.921875
vt 0.1719884375 0.92186265625
vt 0.1484375 0.736328125
vt 0.1484375 0.876953125
vt 0.125 0.8828125
vt 0.125 0.736328125
vn -1 0 0
vn 1 0 0
vn 0.21821789023599242 0.8728715609439697 -0.43643578047198484
vn 0.022979445803036843 -0.23221334706226704 -0.9723933908232433
vn 0 0 1
usemtl m_48d4d747-3a18-c382-0191-bc92bdf1f794
f 135/487/136 136/488/136 137/489/136
f 138/490/137 139/491/137 140/492/137
f 136/493/138 135/494/138 139/495/138 138/496/138
f 137/497/139 136/498/139 138/499/139 140/500/139
f 140/501/140 139/502/140 135/503/140 137/504/140
o left
v 0.5 1.09375 0.375
v 0.5 0.375 0.375
v 0.5 0.375 -0.375
v 0.5 1.09375 -0.375
v 0.5 0.375 -0.375
v 0.5 0.375 0.375
v 0.5 1.09375 0.375
v 0.5 1.09375 -0.375
vt 0.4599609375 0
vt 0.5537109375 0
vt 0.5537109375 0.10546875
vt 0.4599609375 0.10546875
vt 0.4599609375 0
vt 0.5537109375 0
vt 0.5537109375 0.10546875
vt 0.4599609375 0.10546875
vn 1 0 0
vn -1 0 0
usemtl m_48d4d747-3a18-c382-0191-bc92bdf1f794
f 142/505/141 143/506/141 144/507/141 141/508/141
f 145/509/142 146/510/142 147/511/142 148/512/142
o right
v -0.5 0.375 0.375
v -0.5 0.375 -0.375
v -0.5 1.09375 -0.375
v -0.5 1.09375 0.375
v -0.5 0.375 -0.375
v -0.5 0.375 0.375
v -0.5 1.09375 0.375
v -0.5 1.09375 -0.375
vt 0.4599609375 0
vt 0.5537109375 0
vt 0.5537109375 0.10546875
vt 0.4599609375 0.10546875
vt 0.4599609375 0
vt 0.5537109375 0
vt 0.5537109375 0.10546875
vt 0.4599609375 0.10546875
vn 1 0 0
vn -1 0 0
usemtl m_48d4d747-3a18-c382-0191-bc92bdf1f794
f 149/513/143 150/514/143 151/515/143 152/516/143
f 153/517/144 154/518/144 155/519/144 156/520/144
o right
v -0.448938125 0.375 0.01143812500000002
v -0.453125 0.375 0.004186874999999975
v -0.4375 0.375 -3.642476228985703e-21
v -0.448938125 1.75 0.01143812500000002
v -0.453125 1.75 0.004186874999999975
v -0.4375 1.75 1.5662647784638522e-19
v -0.441686875 0.375 0.015624999999999998
v -0.441686875 1.75 0.015624999999999998
v -0.433313125 0.375 0.015625
v -0.433313125 1.75 0.015625
v -0.426061875 0.375 0.011438125000000023
v -0.426061875 1.75 0.011438125000000023
v -0.421875 0.375 0.004186874999999982
v -0.421875 1.75 0.004186874999999982
v -0.421875 0.375 -0.004186874999999975
v -0.421875 1.75 -0.004186874999999975
v -0.426061875 0.375 -0.01143812500000002
v -0.426061875 1.75 -0.01143812500000002
v -0.433313125 0.375 -0.015624999999999998
v -0.433313125 1.75 -0.015624999999999998
v -0.441686875 0.375 -0.015625
v -0.441686875 1.75 -0.015625
v -0.448938125 0.375 -0.011438125000000023
v -0.448938125 1.75 -0.011438125000000023
v -0.453125 0.375 -0.004186874999999982
v -0.453125 1.75 -0.004186874999999982
vt 0.928846953125 0.11059874999999997
vt 0.925821640625 0.1123046875
vt 0.90625 0.11059874999999997
vt 0.90625 0.0595703125
vt 0.917950078125 0.0595703125
vt 0.917950078125 0.1123046875
vt 0.90625 0.1123046875
vt 0.90625 0.10889249999999995
vt 0.9175475 0.10934976562499998
vt 0.90625 0.1123046875
vt 0.92884875 0.11059882812499999
vt 0.925820078125 0.1123046875
vt 0.90625 0.11059882812499999
vt 0.90625 0.0595703125
vt 0.917950078125 0.0595703125
vt 0.917950078125 0.1123046875
vt 0.90625 0.1123046875
vt 0.90625 0.10889273437500002
vt 0.9175484375 0.10934953125000002
vt 0.90625 0.1123046875
vt 0.9280784375 0.11053804687500002
vt 0.9280784375 0.1123046875
vt 0.90625 0.11142140624999997
vt 0.90625 0.0595703125
vt 0.917950078125 0.0595703125
vt 0.917950078125 0.1123046875
vt 0.90625 0.1123046875
vt 0.9280784375 0.11053804687500002
vt 0.9280784375 0.1123046875
vt 0.90625 0.11142140624999997
vt 0.90625 0.10889273437500002
vt 0.9175484375 0.10934953125000002
vt 0.90625 0.1123046875
vt 0.90625 0.0595703125
vt 0.917950078125 0.0595703125
vt 0.917950078125 0.1123046875
vt 0.90625 0.1123046875
vt 0.92884875 0.11059882812499999
vt 0.925820078125 0.1123046875
vt 0.90625 0.11059882812499999
vt 0.90625 0.10889249999999995
vt 0.9175475 0.10934976562499998
vt 0.90625 0.1123046875
vt 0.90625 0.0595703125
vt 0.917950078125 0.0595703125
vt 0.917950078125 0.1123046875
vt 0.90625 0.1123046875
vt 0.928846953125 0.11059874999999997
vt 0.925821640625 0.1123046875
vt 0.90625 0.11059874999999997
vt 0.90625 0.10900874999999999
vt 0.917950078125 0.10900874999999999
vt 0.9121 0.1123046875
vt 0.90625 0.0595703125
vt 0.917950078125 0.0595703125
vt 0.917950078125 0.1123046875
vt 0.90625 0.1123046875
vt 0.917950078125 0.1123046875
vt 0.90625 0.1123046875
vt 0.9121 0.10900874999999999
vt 0.90625 0.1123046875
vt 0.909275234375 0.11059874999999997
vt 0.928846953125 0.1123046875
vt 0.90625 0.0595703125
vt 0.917950078125 0.0595703125
vt 0.917950078125 0.1123046875
vt 0.90625 0.1123046875
vt 0.9175475 0.1123046875
vt 0.90625 0.11184734375000005
vt 0.9175475 0.10889249999999995
vt 0.90625 0.1123046875
vt 0.90927875 0.11059882812499999
vt 0.92884875 0.1123046875
vt 0.90625 0.0595703125
vt 0.917950078125 0.0595703125
vt 0.917950078125 0.1123046875
vt 0.90625 0.1123046875
vt 0.9175484375 0.1123046875
vt 0.90625 0.111847890625
vt 0.9175484375 0.10889273437500002
vt 0.90625 0.1123046875
vt 0.90625 0.11053804687500002
vt 0.9280784375 0.11142140624999997
vt 0.90625 0.0595703125
vt 0.917950078125 0.0595703125
vt 0.917950078125 0.1123046875
vt 0.90625 0.1123046875
vt 0.90625 0.1123046875
vt 0.90625 0.11053804687500002
vt 0.9280784375 0.11142140624999997
vt 0.9175484375 0.1123046875
vt 0.90625 0.111847890625
vt 0.9175484375 0.10889273437500002
vt 0.90625 0.0595703125
vt 0.917950078125 0.0595703125
vt 0.917950078125 0.1123046875
vt 0.90625 0.1123046875
vt 0.90625 0.1123046875
vt 0.90927875 0.11059882812499999
vt 0.92884875 0.1123046875
vt 0.9175475 0.1123046875
vt 0.90625 0.11184734375000005
vt 0.9175475 0.10889249999999995
vt 0.90625 0.0595703125
vt 0.917950078125 0.0595703125
vt 0.917950078125 0.1123046875
vt 0.90625 0.1123046875
vt 0.90625 0.1123046875
vt 0.909275234375 0.11059874999999997
vt 0.928846953125 0.1123046875
vt 0.917950078125 0.1123046875
vt 0.90625 0.1123046875
vt 0.9121 0.10900874999999999
vt 0.90625 0.0595703125
vt 0.917950078125 0.0595703125
vt 0.917950078125 0.1123046875
vt 0.90625 0.1123046875
vt 0.90625 0.10900874999999999
vt 0.917950078125 0.10900874999999999
vt 0.9121 0.1123046875
vn 0 -1 0
vn -0.8660065864516812 0 0.5000325911601231
vn 0 1 0
vn 0 -1 0
vn -0.5000325911601232 0 0.8660065864516813
vn 0 1 0
vn 0 -1 0
vn -2.0716208102425029e-16 0 1
vn 0 1 0
vn 0 -1 0
vn 0.500032591160123 0 0.8660065864516813
vn 0 1 0
vn 0 -1 0
vn 0.8660065864516812 0 0.5000325911601232
vn 0 1 0
vn 0 -1 0
vn 1 0 0
vn 0 1 0
vn 0 -1 0
vn 0.8660065864516812 0 -0.5000325911601231
vn 0 1 0
vn 0 -1 0
vn 0.5000325911601232 0 -0.8660065864516813
vn 0 1 0
vn 0 -1 0
vn 2.0716208102425029e-16 0 -1
vn 0 1 0
vn 0 -1 0
vn -0.500032591160123 0 -0.8660065864516813
vn 0 1 0
vn 0 -1 0
vn -0.8660065864516812 0 -0.5000325911601232
vn 0 1 0
vn 0 -1 0
vn -1 0 0
vn 0 1 0
usemtl m_48d4d747-3a18-c382-0191-bc92bdf1f794
f 157/521/145 158/522/145 159/523/145
f 158/524/146 157/525/146 160/526/146 161/527/146
f 161/528/147 160/529/147 162/530/147
f 163/531/148 157/532/148 159/533/148
f 157/534/149 163/535/149 164/536/149 160/537/149
f 160/538/150 164/539/150 162/540/150
f 165/541/151 163/542/151 159/543/151
f 163/544/152 165/545/152 166/546/152 164/547/152
f 164/548/153 166/549/153 162/550/153
f 167/551/154 165/552/154 159/553/154
f 165/554/155 167/555/155 168/556/155 166/557/155
f 166/558/156 168/559/156 162/560/156
f 169/561/157 167/562/157 159/563/157
f 167/564/158 169/565/158 170/566/158 168/567/158
f 168/568/159 170/569/159 162/570/159
f 171/571/160 169/572/160 159/573/160
f 169/574/161 171/575/161 172/576/161 170/577/161
f 170/578/162 172/579/162 162/580/162
f 173/581/163 171/582/163 159/583/163
f 171/584/164 173/585/164 174/586/164 172/587/164
f 172/588/165 174/589/165 162/590/165
f 175/591/166 173/592/166 159/593/166
f 173/594/167 175/595/167 176/596/167 174/597/167
f 174/598/168 176/599/168 162/600/168
f 177/601/169 175/602/169 159/603/169
f 175/604/170 177/605/170 178/606/170 176/607/170
f 176/608/171 178/609/171 162/610/171
f 179/611/172 177/612/172 159/613/172
f 177/614/173 179/615/173 180/616/173 178/617/173
f 178/618/174 180/619/174 162/620/174
f 181/621/175 179/622/175 159/623/175
f 179/624/176 181/625/176 182/626/176 180/627/176
f 180/628/177 182/629/177 162/630/177
f 158/631/178 181/632/178 159/633/178
f 181/634/179 158/635/179 161/636/179 182/637/179
f 182/638/180 161/639/180 162/640/180
o left
v 0.448938125 0.375 -0.011438125000000023
v 0.453125 0.375 -0.004186874999999982
v 0.4375 0.375 0
v 0.448938125 1.75 -0.011438125000000023
v 0.453125 1.75 -0.004186874999999982
v 0.4375 1.75 0
v 0.441686875 0.375 -0.015625
v 0.441686875 1.75 -0.015625
v 0.433313125 0.375 -0.015624999999999998
v 0.433313125 1.75 -0.015624999999999998
v 0.426061875 0.375 -0.01143812500000002
v 0.426061875 1.75 -0.01143812500000002
v 0.421875 0.375 -0.004186874999999975
v 0.421875 1.75 -0.004186874999999975
v 0.421875 0.375 0.004186874999999982
v 0.421875 1.75 0.004186874999999982
v 0.426061875 0.375 0.011438125000000023
v 0.426061875 1.75 0.011438125000000023
v 0.433313125 0.375 0.015625
v 0.433313125 1.75 0.015625
v 0.441686875 0.375 0.015624999999999998
v 0.441686875 1.75 0.015624999999999998
v 0.448938125 0.375 0.01143812500000002
v 0.448938125 1.75 0.01143812500000002
v 0.453125 0.375 0.004186874999999975
v 0.453125 1.75 0.004186874999999975
vt 0.928846953125 0.11059874999999997
vt 0.925821640625 0.1123046875
vt 0.90625 0.11059874999999997
vt 0.90625 0.0595703125
vt 0.917950078125 0.0595703125
vt 0.917950078125 0.1123046875
vt 0.90625 0.1123046875
vt 0.90625 0.10889249999999995
vt 0.9175475 0.10934976562499998
vt 0.90625 0.1123046875
vt 0.92884875 0.11059882812499999
vt 0.925820078125 0.1123046875
vt 0.90625 0.11059882812499999
vt 0.90625 0.0595703125
vt 0.917950078125 0.0595703125
vt 0.917950078125 0.1123046875
vt 0.90625 0.1123046875
vt 0.90625 0.10889273437500002
vt 0.9175484375 0.10934953125000002
vt 0.90625 0.1123046875
vt 0.9280784375 0.11053804687500002
vt 0.9280784375 0.1123046875
vt 0.90625 0.11142140624999997
vt 0.90625 0.0595703125
vt 0.917950078125 0.0595703125
vt 0.917950078125 0.1123046875
vt 0.90625 0.1123046875
vt 0.9280784375 0.11053804687500002
vt 0.9280784375 0.1123046875
vt 0.90625 0.11142140624999997
vt 0.90625 0.10889273437500002
vt 0.9175484375 0.10934953125000002
vt 0.90625 0.1123046875
vt 0.90625 0.0595703125
vt 0.917950078125 0.0595703125
vt 0.917950078125 0.1123046875
vt 0.90625 0.1123046875
vt 0.92884875 0.11059882812499999
vt 0.925820078125 0.1123046875
vt 0.90625 0.11059882812499999
vt 0.90625 0.10889249999999995
vt 0.9175475 0.10934976562499998
vt 0.90625 0.1123046875
vt 0.90625 0.0595703125
vt 0.917950078125 0.0595703125
vt 0.917950078125 0.1123046875
vt 0.90625 0.1123046875
vt 0.928846953125 0.11059874999999997
vt 0.925821640625 0.1123046875
vt 0.90625 0.11059874999999997
vt 0.90625 0.10900874999999999
vt 0.917950078125 0.10900874999999999
vt 0.9121 0.1123046875
vt 0.90625 0.0595703125
vt 0.917950078125 0.0595703125
vt 0.917950078125 0.1123046875
vt 0.90625 0.1123046875
vt 0.917950078125 0.1123046875
vt 0.90625 0.1123046875
vt 0.9121 0.10900874999999999
vt 0.90625 0.1123046875
vt 0.909275234375 0.11059874999999997
vt 0.928846953125 0.1123046875
vt 0.90625 0.0595703125
vt 0.917950078125 0.0595703125
vt 0.917950078125 0.1123046875
vt 0.90625 0.1123046875
vt 0.9175475 0.1123046875
vt 0.90625 0.11184734375000005
vt 0.9175475 0.10889249999999995
vt 0.90625 0.1123046875
vt 0.90927875 0.11059882812499999
vt 0.92884875 0.1123046875
vt 0.90625 0.0595703125
vt 0.917950078125 0.0595703125
vt 0.917950078125 0.1123046875
vt 0.90625 0.1123046875
vt 0.9175484375 0.1123046875
vt 0.90625 0.111847890625
vt 0.9175484375 0.10889273437500002
vt 0.90625 0.1123046875
vt 0.90625 0.11053804687500002
vt 0.9280784375 0.11142140624999997
vt 0.90625 0.0595703125
vt 0.917950078125 0.0595703125
vt 0.917950078125 0.1123046875
vt 0.90625 0.1123046875
vt 0.90625 0.1123046875
vt 0.90625 0.11053804687500002
vt 0.9280784375 0.11142140624999997
vt 0.9175484375 0.1123046875
vt 0.90625 0.111847890625
vt 0.9175484375 0.10889273437500002
vt 0.90625 0.0595703125
vt 0.917950078125 0.0595703125
vt 0.917950078125 0.1123046875
vt 0.90625 0.1123046875
vt 0.90625 0.1123046875
vt 0.90927875 0.11059882812499999
vt 0.92884875 0.1123046875
vt 0.9175475 0.1123046875
vt 0.90625 0.11184734375000005
vt 0.9175475 0.10889249999999995
vt 0.90625 0.0595703125
vt 0.917950078125 0.0595703125
vt 0.917950078125 0.1123046875
vt 0.90625 0.1123046875
vt 0.90625 0.1123046875
vt 0.909275234375 0.11059874999999997
vt 0.928846953125 0.1123046875
vt 0.917950078125 0.1123046875
vt 0.90625 0.1123046875
vt 0.9121 0.10900874999999999
vt 0.90625 0.0595703125
vt 0.917950078125 0.0595703125
vt 0.917950078125 0.1123046875
vt 0.90625 0.1123046875
vt 0.90625 0.10900874999999999
vt 0.917950078125 0.10900874999999999
vt 0.9121 0.1123046875
vn 0 -1 0
vn 0.8660065864516812 0 -0.5000325911601232
vn 0 1 0
vn 0 -1 0
vn 0.500032591160123 0 -0.8660065864516813
vn 0 1 0
vn 0 -1 0
vn -2.0716208102425029e-16 0 -1
vn 0 1 0
vn 0 -1 0
vn -0.5000325911601232 0 -0.8660065864516813
vn 0 1 0
vn 0 -1 0
vn -0.8660065864516812 0 -0.5000325911601231
vn 0 1 0
vn 0 -1 0
vn -1 0 0
vn 0 1 0
vn 0 -1 0
vn -0.8660065864516812 0 0.5000325911601232
vn 0 1 0
vn 0 -1 0
vn -0.500032591160123 0 0.8660065864516813
vn 0 1 0
vn 0 -1 0
vn 2.0716208102425029e-16 0 1
vn 0 1 0
vn 0 -1 0
vn 0.5000325911601232 0 0.8660065864516813
vn 0 1 0
vn 0 -1 0
vn 0.8660065864516812 0 0.5000325911601231
vn 0 1 0
vn 0 -1 0
vn 1 0 0
vn 0 1 0
usemtl m_48d4d747-3a18-c382-0191-bc92bdf1f794
f 183/641/181 184/642/181 185/643/181
f 184/644/182 183/645/182 186/646/182 187/647/182
f 187/648/183 186/649/183 188/650/183
f 189/651/184 183/652/184 185/653/184
f 183/654/185 189/655/185 190/656/185 186/657/185
f 186/658/186 190/659/186 188/660/186
f 191/661/187 189/662/187 185/663/187
f 189/664/188 191/665/188 192/666/188 190/667/188
f 190/668/189 192/669/189 188/670/189
f 193/671/190 191/672/190 185/673/190
f 191/674/191 193/675/191 194/676/191 192/677/191
f 192/678/192 194/679/192 188/680/192
f 195/681/193 193/682/193 185/683/193
f 193/684/194 195/685/194 196/686/194 194/687/194
f 194/688/195 196/689/195 188/690/195
f 197/691/196 195/692/196 185/693/196
f 195/694/197 197/695/197 198/696/197 196/697/197
f 196/698/198 198/699/198 188/700/198
f 199/701/199 197/702/199 185/703/199
f 197/704/200 199/705/200 200/706/200 198/707/200
f 198/708/201 200/709/201 188/710/201
f 201/711/202 199/712/202 185/713/202
f 199/714/203 201/715/203 202/716/203 200/717/203
f 200/718/204 202/719/204 188/720/204
f 203/721/205 201/722/205 185/723/205
f 201/724/206 203/725/206 204/726/206 202/727/206
f 202/728/207 204/729/207 188/730/207
f 205/731/208 203/732/208 185/733/208
f 203/734/209 205/735/209 206/736/209 204/737/209
f 204/738/210 206/739/210 188/740/210
f 207/741/211 205/742/211 185/743/211
f 205/744/212 207/745/212 208/746/212 206/747/212
f 206/748/213 208/749/213 188/750/213
f 184/751/214 207/752/214 185/753/214
f 207/754/215 184/755/215 187/756/215 208/757/215
f 208/758/216 187/759/216 188/760/216
o left
v -0.40625 1.9375 0.06250000000000007
v 0.40625 1.9375 0.062499999999999965
v 0.40625 2.0625 0.062499999999999965
v -0.40625 2.0625 0.06250000000000007
v -0.40625 1.9375 -0.06249999999999994
v -0.40625 2.0625 -0.06249999999999994
v 0.40625 1.9375 -0.06250000000000003
v 0.40625 2.0625 -0.06250000000000003
vt 0.8984375 0
vt 1 0
vt 1 0.0751953125
vt 0.8984375 0.0751953125
vt 0.888671875 0.0087890625
vt 0.982421875 0.0087890625
vt 0.982421875 0.1142578125
vt 0.888671875 0.1142578125
vt 0.8984375 0
vt 1 0
vt 1 0.0751953125
vt 0.8984375 0.0751953125
vt 0.888671875 0.0087890625
vt 0.982421875 0.0087890625
vt 0.982421875 0.1142578125
vt 0.888671875 0.1142578125
vt 1 0.0869140625
vt 0.8984375 0.0869140625
vt 0.8984375 0.0234375
vt 1 0.0234375
vt 1 0.0869140625
vt 0.8984375 0.0869140625
vt 0.8984375 0.0234375
vt 1 0.0234375
vn 1.2810265668751805e-16 0 1
vn -1 0 0
vn -1.1102230246251565e-16 0 -1
vn 1 0 0
vn 0 1 0
vn 0 -1 0
usemtl m_48d4d747-3a18-c382-0191-bc92bdf1f794
f 209/761/217 210/762/217 211/763/217 212/764/217
f 213/765/218 209/766/218 212/767/218 214/768/218
f 215/769/219 213/770/219 214/771/219 216/772/219
f 210/773/220 215/774/220 216/775/220 211/776/220
f 216/777/221 214/778/221 212/779/221 211/780/221
f 210/781/222 209/782/222 213/783/222 215/784/222
o left
v -0.59375 1.09375 0.06250000000000007
v -0.40625 1.09375 0.06250000000000004
v -0.40625 1.40625 0.06250000000000004
v -0.59375 1.40625 0.06250000000000007
v -0.59375 1.09375 -0.06249999999999994
v -0.59375 1.40625 -0.06249999999999994
v -0.40625 1.09375 -0.06249999999999996
v -0.40625 1.40625 -0.06249999999999996
vt 0.8984375 0
vt 1 0
vt 1 0.0751953125
vt 0.8984375 0.0751953125
vt 0.888671875 0.0087890625
vt 0.982421875 0.0087890625
vt 0.982421875 0.1142578125
vt 0.888671875 0.1142578125
vt 0.8984375 0
vt 1 0
vt 1 0.0751953125
vt 0.8984375 0.0751953125
vt 0.888671875 0.0087890625
vt 0.982421875 0.0087890625
vt 0.982421875 0.1142578125
vt 0.888671875 0.1142578125
vt 1 0.0869140625
vt 0.8984375 0.0869140625
vt 0.8984375 0.0234375
vt 1 0.0234375
vt 1 0.0869140625
vt 0.8984375 0.0869140625
vt 0.8984375 0.0234375
vt 1 0.0234375
vn 1.4802973661668753e-16 0 1
vn -1 0 0
vn -1.1102230246251565e-16 0 -1
vn 1 0 0
vn 0 1 0
vn 0 -1 0
usemtl m_48d4d747-3a18-c382-0191-bc92bdf1f794
f 217/785/223 218/786/223 219/787/223 220/788/223
f 221/789/224 217/790/224 220/791/224 222/792/224
f 223/793/225 221/794/225 222/795/225 224/796/225
f 218/797/226 223/798/226 224/799/226 219/800/226
f 224/801/227 222/802/227 220/803/227 219/804/227
f 218/805/228 217/806/228 221/807/228 223/808/228
o left
v 0.40625 1.09375 0.06250000000000007
v 0.59375 1.09375 0.06250000000000004
v 0.59375 1.40625 0.06250000000000004
v 0.40625 1.40625 0.06250000000000007
v 0.40625 1.09375 -0.06249999999999994
v 0.40625 1.40625 -0.06249999999999994
v 0.59375 1.09375 -0.06249999999999996
v 0.59375 1.40625 -0.06249999999999996
vt 0.8984375 0
vt 1 0
vt 1 0.0751953125
vt 0.8984375 0.0751953125
vt 0.888671875 0.0087890625
vt 0.982421875 0.0087890625
vt 0.982421875 0.1142578125
vt 0.888671875 0.1142578125
vt 0.8984375 0
vt 1 0
vt 1 0.0751953125
vt 0.8984375 0.0751953125
vt 0.888671875 0.0087890625
vt 0.982421875 0.0087890625
vt 0.982421875 0.1142578125
vt 0.888671875 0.1142578125
vt 1 0.0869140625
vt 0.8984375 0.0869140625
vt 0.8984375 0.0234375
vt 1 0.0234375
vt 1 0.0869140625
vt 0.8984375 0.0869140625
vt 0.8984375 0.0234375
vt 1 0.0234375
vn 1.4802973661668753e-16 0 1
vn -1 0 0
vn -1.1102230246251565e-16 0 -1
vn 1 0 0
vn 0 1 0
vn 0 -1 0
usemtl m_48d4d747-3a18-c382-0191-bc92bdf1f794
f 225/809/229 226/810/229 227/811/229 228/812/229
f 229/813/230 225/814/230 228/815/230 230/816/230
f 231/817/231 229/818/231 230/819/231 232/820/231
f 226/821/232 231/822/232 232/823/232 227/824/232
f 232/825/233 230/826/233 228/827/233 227/828/233
f 226/829/234 225/830/234 229/831/234 231/832/234
o cube
v 0.4218749999999999 0.453125 -0.40625
v 0.4218749999999999 1.78125 -0.40625
v 0.4531249999999999 1.78125 -0.40625
v 0.4531249999999999 0.453125 -0.40625
v 0.453125 0.53125 -3.469446951953614e-18
v 0.453125 1.65625 -3.469446951953614e-18
v 0.421875 1.65625 3.469446951953614e-18
v 0.421875 0.53125 3.469446951953614e-18
v 0.45312499999999994 1.828125 -0.359375
v 0.4531249999999999 1.8046875 -0.3828125
v 0.4218749999999999 1.8046875 -0.3828125
v 0.42187499999999994 1.828125 -0.359375
v 0.42187499999999994 0.40625 -0.1484375
v 0.42187499999999994 0.40625 -0.359375
v 0.45312499999999994 0.40625 -0.359375
v 0.45312499999999994 0.40625 -0.1484375
v 0.453125 1.78125 -0.1015625
v 0.421875 1.78125 -0.1015625
v 0.453125 1.828125 -0.1015625
v 0.421875 1.828125 -0.1015625
v 0.421875 0.53125 -0.1015625
v 0.421875 0.453125 -0.1015625
v 0.453125 0.53125 -0.1015625
v 0.453125 0.453125 -0.1015625
vt 0.8341758578431373 0.15766655219780223
vt 0.8341758578431373 0.19780219780219777
vt 0.8349609375 0.19780219780219777
vt 0.8349609375 0.15766655219780223
vt 0 0.837890625
vt 0 0.978515625
vt 0 0.978515625
vt 0 0.837890625
vt 0.8296465521304676 0.19921875
vt 0.8326962846436652 0.19851047390109888
vt 0.8319112049868024 0.19851047390109888
vt 0.8304316317873303 0.19921875
vt 0.809264676423454 0.15625
vt 0.8304316317873303 0.15625
vt 0.8296465521304676 0.15625
vt 0.8100497560803167 0.15625
vt 0.0185546875 0.822265625
vt 0.04492187499999997 0.822265625
vt 0.0478515625 0.9970703125
vt 0.04492187499999997 1
vt 0.04492187499999997 1
vt 0.0478515625 0.9970703125
vt 0.04492187499999997 0.822265625
vt 0.0185546875 0.822265625
vt 0.794921875 0.19402472527472525
vt 0.8047353707107843 0.19780219780219777
vt 0.8055204503676471 0.19780219780219777
vt 0.7957069546568627 0.19402472527472525
vt 0.8047353707107843 0.19780219780219777
vt 0.8047353707107843 0.19921875
vt 0.8055204503676471 0.19921875
vt 0.8055204503676471 0.19780219780219777
vt 0.8047353707107843 0.19921875
vt 0.8296465521304676 0.19921875
vt 0.8304316317873303 0.19921875
vt 0.8055204503676471 0.19921875
vt 0 0.978515625
vt 0.0126953125 0.994140625
vt 0.0126953125 0.837890625
vt 0 0.837890625
vt 0.0126953125 0.994140625
vt 0.0126953125 1
vt 0.0126953125 0.828125
vt 0.0126953125 0.837890625
vt 0.0126953125 1
vt 0.04492187499999997 1
vt 0.0185546875 0.822265625
vt 0.0126953125 0.828125
vt 0.794921875 0.16002747252747263
vt 0.8047353707107843 0.16002747252747263
vt 0.8055204503676471 0.16002747252747263
vt 0.7957069546568627 0.16002747252747263
vt 0.8047353707107843 0.16002747252747263
vt 0.8047353707107843 0.15766655219780223
vt 0.8055204503676471 0.15766655219780223
vt 0.8055204503676471 0.16002747252747263
vt 0.8047353707107843 0.15766655219780223
vt 0.809264676423454 0.15625
vt 0.8100497560803167 0.15625
vt 0.8055204503676471 0.15766655219780223
vt 0 0.837890625
vt 0.0126953125 0.837890625
vt 0.0126953125 0.994140625
vt 0 0.978515625
vt 0.0126953125 0.837890625
vt 0.0126953125 0.828125
vt 0.0126953125 1
vt 0.0126953125 0.994140625
vt 0.0126953125 0.828125
vt 0.0185546875 0.822265625
vt 0.04492187499999997 1
vt 0.0126953125 1
vt 0.8333907781862745 0.1579920730311356
vt 0.8296465521304676 0.15625
vt 0.8304316317873303 0.15625
vt 0.8341758578431373 0.15766655219780223
vt 0.05078125 0.828125
vt 0.04492187499999997 0.822265625
vt 0.0478515625 0.9970703125
vt 0.05078125 0.994140625
vt 0.8341758578431373 0.19780219780219777
vt 0.8319112049868024 0.19851047390109888
vt 0.8326962846436652 0.19851047390109888
vt 0.8349609375 0.19780219780219777
vt 0.05078125 0.994140625
vt 0.0478515625 0.9970703125
vt 0.04492187499999997 0.822265625
vt 0.05078125 0.828125
vn 0 0 -1
vn 2.220446049250313e-16 0 1
vn 0 0.7071067811865476 -0.7071067811865476
vn 0 -1 0
vn 1 3.9695124902798894e-17 0
vn -1 0 2.3684757858670005e-15
vn 0 0.6305926250944657 0.7761140001162655
vn 0 0 1
vn 0 1 0
vn -1 0 0
vn 0 0 0
vn -1 3.1942480628575935e-17 2.153159805333637e-16
vn 0 -1 0
vn 0 0 1
vn 0 -0.7071067811865476 0.7071067811865476
vn 1 0 0
vn 0 0 0
vn 1 -1.5298767037896895e-16 -1.0312502225545313e-15
vn 0 -0.7071067811865476 -0.7071067811865476
vn -1 -2.0185873175002847e-17 1.1640520197584974e-15
vn 0 0.7071067811865476 -0.7071067811865476
vn 1 3.9040809657148365e-17 -3.9040809657148365e-17
usemtl m_48d4d747-3a18-c382-0191-bc92bdf1f794
f 233/833/235 234/834/235 235/835/235 236/836/235
f 237/837/236 238/838/236 239/839/236 240/840/236
f 241/841/237 242/842/237 243/843/237 244/844/237
f 245/845/238 246/846/238 247/847/238 248/848/238
f 248/849/239 247/850/239 242/851/239 241/852/239
f 244/853/240 243/854/240 246/855/240 245/856/240
f 238/857/241 249/858/241 250/859/241 239/860/241
f 249/861/242 251/862/242 252/863/242 250/864/242
f 251/865/243 241/866/243 244/867/243 252/868/243
f 239/869/244 250/870/244 253/871/244 240/872/244
f 250/873/245 252/874/245 254/875/245 253/876/245
f 252/877/246 244/878/246 245/879/246 254/880/246
f 240/881/247 253/882/247 255/883/247 237/884/247
f 253/885/248 254/886/248 256/887/248 255/888/248
f 254/889/249 245/890/249 248/891/249 256/892/249
f 237/893/250 255/894/250 249/895/250 238/896/250
f 255/897/251 256/898/251 251/899/251 249/900/251
f 256/901/252 248/902/252 241/903/252 251/904/252
f 236/905/253 247/906/253 246/907/253 233/908/253
f 233/909/254 246/910/254 243/911/254 234/912/254
f 234/913/255 243/914/255 242/915/255 235/916/255
f 235/917/256 242/918/256 247/919/256 236/920/256
o cube
v -0.45312500000000006 0.453125 -0.40625
v -0.45312500000000006 1.78125 -0.40625
v -0.42187500000000006 1.78125 -0.40625
v -0.42187500000000006 0.453125 -0.40625
v -0.42187499999999994 0.53125 -3.4840168568695676e-18
v -0.42187499999999994 1.65625 -3.615146001113053e-18
v -0.45312499999999994 1.65625 3.3237479027941753e-18
v -0.45312499999999994 0.53125 3.4548770470376608e-18
v -0.42187500000000006 1.828125 -0.359375
v -0.42187500000000006 1.8046875 -0.3828125
v -0.45312500000000006 1.8046875 -0.3828125
v -0.45312500000000006 1.828125 -0.359375
v -0.453125 0.40625 -0.1484375
v -0.45312500000000006 0.40625 -0.359375
v -0.42187500000000006 0.40625 -0.359375
v -0.421875 0.40625 -0.1484375
v -0.421875 1.78125 -0.1015625
v -0.453125 1.78125 -0.1015625
v -0.421875 1.828125 -0.1015625
v -0.453125 1.828125 -0.1015625
v -0.453125 0.53125 -0.1015625
v -0.453125 0.453125 -0.1015625
v -0.421875 0.53125 -0.1015625
v -0.421875 0.453125 -0.1015625
vt 0.8341758578431373 0.15766655219780223
vt 0.8341758578431373 0.19780219780219777
vt 0.8349609375 0.19780219780219777
vt 0.8349609375 0.15766655219780223
vt 0 0.837890625
vt 0 0.978515625
vt 0 0.978515625
vt 0 0.837890625
vt 0.8296465521304676 0.19921875
vt 0.8326962846436652 0.19851047390109888
vt 0.8319112049868024 0.19851047390109888
vt 0.8304316317873303 0.19921875
vt 0.809264676423454 0.15625
vt 0.8304316317873303 0.15625
vt 0.8296465521304676 0.15625
vt 0.8100497560803167 0.15625
vt 0.0185546875 0.822265625
vt 0.04492187499999997 0.822265625
vt 0.0478515625 0.9970703125
vt 0.04492187499999997 1
vt 0.04492187499999997 1
vt 0.0478515625 0.9970703125
vt 0.04492187499999997 0.822265625
vt 0.0185546875 0.822265625
vt 0.794921875 0.19402472527472525
vt 0.8047353707107843 0.19780219780219777
vt 0.8055204503676471 0.19780219780219777
vt 0.7957069546568627 0.19402472527472525
vt 0.8047353707107843 0.19780219780219777
vt 0.8047353707107843 0.19921875
vt 0.8055204503676471 0.19921875
vt 0.8055204503676471 0.19780219780219777
vt 0.8047353707107843 0.19921875
vt 0.8296465521304676 0.19921875
vt 0.8304316317873303 0.19921875
vt 0.8055204503676471 0.19921875
vt 0 0.978515625
vt 0.0126953125 0.994140625
vt 0.0126953125 0.837890625
vt 0 0.837890625
vt 0.0126953125 0.994140625
vt 0.0126953125 1
vt 0.0126953125 0.828125
vt 0.0126953125 0.837890625
vt 0.0126953125 1
vt 0.04492187499999997 1
vt 0.0185546875 0.822265625
vt 0.0126953125 0.828125
vt 0.794921875 0.16002747252747263
vt 0.8047353707107843 0.16002747252747263
vt 0.8055204503676471 0.16002747252747263
vt 0.7957069546568627 0.16002747252747263
vt 0.8047353707107843 0.16002747252747263
vt 0.8047353707107843 0.15766655219780223
vt 0.8055204503676471 0.15766655219780223
vt 0.8055204503676471 0.16002747252747263
vt 0.8047353707107843 0.15766655219780223
vt 0.809264676423454 0.15625
vt 0.8100497560803167 0.15625
vt 0.8055204503676471 0.15766655219780223
vt 0 0.837890625
vt 0.0126953125 0.837890625
vt 0.0126953125 0.994140625
vt 0 0.978515625
vt 0.0126953125 0.837890625
vt 0.0126953125 0.828125
vt 0.0126953125 1
vt 0.0126953125 0.994140625
vt 0.0126953125 0.828125
vt 0.0185546875 0.822265625
vt 0.04492187499999997 1
vt 0.0126953125 1
vt 0.8333907781862745 0.1579920730311356
vt 0.8296465521304676 0.15625
vt 0.8304316317873303 0.15625
vt 0.8341758578431373 0.15766655219780223
vt 0.05078125 0.828125
vt 0.04492187499999997 0.822265625
vt 0.0478515625 0.9970703125
vt 0.05078125 0.994140625
vt 0.8341758578431373 0.19780219780219777
vt 0.8319112049868024 0.19851047390109888
vt 0.8326962846436652 0.19851047390109888
vt 0.8349609375 0.19780219780219777
vt 0.05078125 0.994140625
vt 0.0478515625 0.9970703125
vt 0.04492187499999997 0.822265625
vt 0.05078125 0.828125
vn 0 0 -1
vn 2.220446049250313e-16 1.1655923932754232e-19 1
vn 0 0.7071067811865476 -0.7071067811865476
vn 0 -1 0
vn 1 -4.4105694336443214e-18 -2.631639762074445e-16
vn -1 0 0
vn 0 0.6305926250944657 0.7761140001162655
vn 0 0 1
vn 0 1 0
vn -1 0 5.465713352000771e-16
vn 0 0 0
vn -1 -7.09832902857243e-18 2.153159805333637e-16
vn 0 -1 0
vn 0 0 1
vn 0 -0.7071067811865476 0.7071067811865476
vn 1 0 -5.465713352000771e-16
vn 0 0 0
vn 1 3.399726008421532e-17 -3.399726008421532e-17
vn 0 -0.7071067811865476 -0.7071067811865476
vn -1 0 0
vn 0 0.7071067811865476 -0.7071067811865476
vn 1 0 0
usemtl m_48d4d747-3a18-c382-0191-bc92bdf1f794
f 257/921/257 258/922/257 259/923/257 260/924/257
f 261/925/258 262/926/258 263/927/258 264/928/258
f 265/929/259 266/930/259 267/931/259 268/932/259
f 269/933/260 270/934/260 271/935/260 272/936/260
f 272/937/261 271/938/261 266/939/261 265/940/261
f 268/941/262 267/942/262 270/943/262 269/944/262
f 262/945/263 273/946/263 274/947/263 263/948/263
f 273/949/264 275/950/264 276/951/264 274/952/264
f 275/953/265 265/954/265 268/955/265 276/956/265
f 263/957/266 274/958/266 277/959/266 264/960/266
f 274/961/267 276/962/267 278/963/267 277/964/267
f 276/965/268 268/966/268 269/967/268 278/968/268
f 264/969/269 277/970/269 279/971/269 261/972/269
f 277/973/270 278/974/270 280/975/270 279/976/270
f 278/977/271 269/978/271 272/979/271 280/980/271
f 261/981/272 279/982/272 273/983/272 262/984/272
f 279/985/273 280/986/273 275/987/273 273/988/273
f 280/989/274 272/990/274 265/991/274 275/992/274
f 260/993/275 271/994/275 270/995/275 257/996/275
f 257/997/276 270/998/276 267/999/276 258/1000/276
f 258/1001/277 267/1002/277 266/1003/277 259/1004/277
f 259/1005/278 266/1006/278 271/1007/278 260/1008/278