# Made in Blockbench 5.1.6
mtllib nyc_subway_signal_light_1_green.mtl

o light
v 0 0.8828125 0.088125
v 0 1.0859375 0.088125
v 0.013606875 1.072330625 0.09984375
v 0.0235675 1.03515625 0.10842249999999999
v 0.02721375 0.984375 0.1115625
v 0.0235675 0.93359375 0.10842249999999999
v 0.013606875 0.896419375 0.09984375
v 0.037174375 1.072330625 0.09670374999999999
v 0.064388125 1.03515625 0.10298375
v 0.07434875 0.984375 0.1052825
v 0.064388125 0.93359375 0.10298375
v 0.037174375 0.896419375 0.09670374999999999
v 0.05078125 1.072330625 0.091265
v 0.087955625 1.03515625 0.09356375
v 0.1015625 0.984375 0.09440499999999999
v 0.087955625 0.93359375 0.09356375
v 0.05078125 0.896419375 0.091265
v -0.05078125 1.072330625 0.091265
v -0.087955625 1.03515625 0.09356375
v -0.1015625 0.984375 0.09440499999999999
v -0.087955625 0.93359375 0.09356375
v -0.05078125 0.896419375 0.091265
v -0.037174375 1.072330625 0.09670374999999999
v -0.064388125 1.03515625 0.10298375
v -0.07434875 0.984375 0.1052825
v -0.064388125 0.93359375 0.10298375
v -0.037174375 0.896419375 0.09670374999999999
v -0.013606875 1.072330625 0.09984375
v -0.0235675 1.03515625 0.10842249999999999
v -0.02721375 0.984375 0.1115625
v -0.0235675 0.93359375 0.10842249999999999
v -0.013606875 0.896419375 0.09984375
v 0.05078125 1.072330625 0.08498499999999999
v 0.087955625 1.03515625 0.08268624999999999
v 0.1015625 0.984375 0.081845
v 0.087955625 0.93359375 0.08268624999999999
v 0.05078125 0.896419375 0.08498499999999999
v -0.05078125 1.072330625 0.08498499999999999
v -0.087955625 1.03515625 0.08268624999999999
v -0.1015625 0.984375 0.081845
v -0.087955625 0.93359375 0.08268624999999999
v -0.05078125 0.896419375 0.08498499999999999
vt 0.804515625 0.584196875
vt 0.81640625 0.584196875
vt 0.798546875 0.59375
vt 0.43575875 0.22171156250000001
vt 0.4399628125 0.20244937500000004
vt 0.4605525 0.20226968749999996
vt 0.44764875 0.22160781249999995
vt 0.4399628125 0.20244937500000004
vt 0.441340625 0.17698312500000002
vt 0.4651146875 0.17677593749999998
vt 0.4605525 0.20226968749999996
vt 0.441340625 0.17698312500000002
vt 0.43951875 0.15154500000000004
vt 0.4601084375 0.15136531249999996
vt 0.4651146875 0.17677593749999998
vt 0.4395434375 0.15034781249999996
vt 0.4361271875 0.13093031249999998
vt 0.448003125 0.13151812500000004
vt 0.46010875 0.15136562499999995
vt 0.448003125 0.13151812500000004
vt 0.4361271875 0.13093031249999998
vt 0.4306378125 0.12109375
vt 0.79762125 0.44906
vt 0.80080375 0.4424625
vt 0.8023725 0.46874875000000005
vt 0.450911875 0.223034375
vt 0.4617325 0.20245843750000003
vt 0.474416875 0.20205531249999997
vt 0.458233125 0.22280156250000005
vt 0.4617325 0.20245843750000003
vt 0.4651153125 0.1767784375
vt 0.4797609375 0.17631312499999996
vt 0.474416875 0.20205531249999997
vt 0.4651153125 0.1767784375
vt 0.4601084375 0.15136531249999996
vt 0.4727928125 0.1509621875
vt 0.4797609375 0.17631312499999996
vt 0.4601084375 0.15136531249999996
vt 0.448003125 0.13151812500000004
vt 0.4553246875 0.13128531249999997
vt 0.4727928125 0.1509621875
vt 0.65960375 0.44035
vt 0.65642125 0.4337525
vt 0.6611725 0.41406374999999995
vt 0.80133375 0.6612125
vt 0.80451625 0.66781
vt 0.799765 0.68749875
vt 0.397235625 0.22280156250000005
vt 0.381051875 0.20205531249999997
vt 0.39373625 0.20245843750000003
vt 0.404556875 0.223034375
vt 0.381051875 0.20205531249999997
vt 0.3757078125 0.17631312499999996
vt 0.3903534375 0.1767784375
vt 0.39373625 0.20245843750000003
vt 0.3757078125 0.17631312499999996
vt 0.3826759375 0.1509621875
vt 0.3953603125 0.15136531249999996
vt 0.3903534375 0.1767784375
vt 0.3826759375 0.1509621875
vt 0.4001440625 0.13128531249999997
vt 0.407465625 0.13151812500000004
vt 0.3953603125 0.15136531249999996
vt 0.80394125 0.39859625
vt 0.80075875 0.40519375
vt 0.79919 0.37890749999999995
vt 0.796875 0.521696875
vt 0.808765625 0.521696875
vt 0.814734375 0.53125
vt 0.40782 0.22160781249999995
vt 0.39491625 0.20226968749999996
vt 0.4155059375 0.20244937500000004
vt 0.41971 0.22171156250000001
vt 0.39491625 0.20226968749999996
vt 0.3903540625 0.17677593749999998
vt 0.414128125 0.17698312500000002
vt 0.4155059375 0.20244937500000004
vt 0.3903540625 0.17677593749999998
vt 0.3953603125 0.15136531249999996
vt 0.41595 0.15154500000000004
vt 0.414128125 0.17698312500000002
vt 0.39536 0.15136562499999995
vt 0.407465625 0.13151812500000004
vt 0.4193415625 0.13093031249999998
vt 0.4159253125 0.15034781249999996
vt 0.4193415625 0.13093031249999998
vt 0.407465625 0.13151812500000004
vt 0.4248309375 0.12109375
vt 0.4217109375 0.22184499999999996
vt 0.435315 0.22160749999999996
vt 0.428669375 0.23070281250000002
vt 0.4217109375 0.22184499999999996
vt 0.4163975 0.20285968750000005
vt 0.4399628125 0.20244843749999997
vt 0.435315 0.22160749999999996
vt 0.4163975 0.20285968750000005
vt 0.4141321875 0.17745781250000003
vt 0.441340625 0.17698312500000002
vt 0.4399628125 0.20244843749999997
vt 0.414128125 0.17698250000000004
vt 0.41595 0.15154500000000004
vt 0.43951875 0.15154500000000004
vt 0.441340625 0.17698250000000004
vt 0.4160521875 0.14843312500000005
vt 0.4225659375 0.12982562499999994
vt 0.4361271875 0.13093031249999998
vt 0.439543125 0.1503465625
vt 0.4361271875 0.13093031249999998
vt 0.4225659375 0.12982562499999994
vt 0.4300753125 0.12142937499999995
vt 0.80080375 0.4424625
vt 0.80394125 0.4424625
vt 0.8023725 0.46875
vt 0.26015 0.28125
vt 0.259 0.2549625
vt 0.2644375 0.2549625
vt 0.2632875 0.28125
vt 0.259 0.2549625
vt 0.258578125 0.22867499999999996
vt 0.264859375 0.22867499999999996
vt 0.2644375 0.2549625
vt 0.258578125 0.22867499999999996
vt 0.259 0.20238750000000005
vt 0.2644375 0.20238750000000005
vt 0.264859375 0.22867499999999996
vt 0.65845375 0.46663750000000004
vt 0.65960375 0.44035
vt 0.66274125 0.44035
vt 0.66389125 0.46663750000000004
vt 0.66274125 0.44035
vt 0.65960375 0.44035
vt 0.6611725 0.4140625
vt 0.79819625 0.6612125
vt 0.80133375 0.6612125
vt 0.799765 0.6875
vt 0.79819625 0.6612125
vt 0.79704625 0.634925
vt 0.80248375 0.634925
vt 0.80133375 0.6612125
vt 0.3215 0.27808124999999995
vt 0.321078125 0.25179375000000004
vt 0.327359375 0.25179375000000004
vt 0.3269375 0.27808124999999995
vt 0.321078125 0.25179375000000004
vt 0.3215 0.22550625000000002
vt 0.3269375 0.22550625000000002
vt 0.327359375 0.25179375000000004
vt 0.3215 0.22550625000000002
vt 0.32265 0.19921875
vt 0.3257875 0.19921875
vt 0.3269375 0.22550625000000002
vt 0.80075875 0.40519375
vt 0.79762125 0.40519375
vt 0.79919 0.37890625
vn 0.09405289170265974 0.702018362884677 0.7059208678988642
vn 0.12768908613003568 0.2553775545205802 0.9583724755701013
vn 0.1317377621873706 0.07059846942969218 0.9887674236786166
vn 0.1317387493682362 -0.07059853190368223 0.9887672876910613
vn 0.12768813613439325 -0.2553773422387426 0.9583726587093356
vn 0.09405289170265974 -0.702018362884677 0.7059208678988642
vn 0.19676103969102865 0.847915607786806 0.4922643754439651
vn 0.34114328588026244 0.39391967422306495 0.8534919734589259
vn 0.3687320365508974 0.11408574921495307 0.9225080634049171
vn 0.3687296285415641 -0.1140853228461775 0.9225090786256165
vn 0.34114533009358183 -0.3939209344140707 0.8534905747491808
vn 0.19676103969102865 -0.847915607786806 0.4922643754439651
vn -0.19676103969102865 0.847915607786806 0.4922643754439651
vn -0.34114315782972954 0.3939204792386694 0.853491653094708
vn -0.36873209148507546 0.11408446033297306 0.9225082008413672
vn -0.36872969197425776 -0.11408383455275421 0.922509237325193
vn -0.3411451083045852 -0.3939223287198208 0.8534900198688948
vn -0.19676103969102865 -0.847915607786806 0.4922643754439651
vn -0.09405289170265974 0.702018362884677 0.7059208678988642
vn -0.12768910627383778 0.2553769770684983 0.9583726267597298
vn -0.13173775467149426 0.07059927351396976 0.9887673672676567
vn -0.13173874068968083 -0.07059946036830947 0.9887672225540249
vn -0.12768817102461763 -0.2553763420492353 0.9583729205804701
vn -0.09405289170265974 -0.702018362884677 0.7059208678988642
vn 0 0.6525780924579532 0.7577214747147788
vn 0 0.22486070314408685 0.9743909195910782
vn 0 0.06171597552635426 0.9980937522922536
vn 0 -0.06171597552635426 0.9980937522922536
vn 0 -0.22486070314408682 0.9743909195910782
vn 0 -0.6525780924579532 0.7577214747147788
vn 0.2588204661467373 0.9659254455202977 0
vn 0.7071067811865476 0.7071067811865476 0
vn 0.9659254455202977 0.2588204661467373 0
vn 0.9659254455202978 -0.25882046614673737 0
vn 0.7071067811865476 -0.7071067811865476 0
vn 0.2588204661467373 -0.9659254455202977 0
vn -0.2588204661467373 0.9659254455202977 0
vn -0.7071067811865476 0.7071067811865476 0
vn -0.9659254455202977 0.2588204661467373 0
vn -0.9659254455202978 -0.25882046614673737 0
vn -0.7071067811865476 -0.7071067811865476 0
vn -0.2588204661467373 -0.9659254455202977 0
usemtl m_7f2020ae-d844-bc1c-4a4e-974d1b18d26e
f 3/1/1 8/2/1 2/3/1
f 3/4/2 4/5/2 9/6/2 8/7/2
f 4/8/3 5/9/3 10/10/3 9/11/3
f 5/12/4 6/13/4 11/14/4 10/15/4
f 6/16/5 7/17/5 12/18/5 11/19/5
f 12/20/6 7/21/6 1/22/6
f 8/23/7 13/24/7 2/25/7
f 8/26/8 9/27/8 14/28/8 13/29/8
f 9/30/9 10/31/9 15/32/9 14/33/9
f 10/34/10 11/35/10 16/36/10 15/37/10
f 11/38/11 12/39/11 17/40/11 16/41/11
f 17/42/12 12/43/12 1/44/12
f 18/45/13 23/46/13 2/47/13
f 18/48/14 19/49/14 24/50/14 23/51/14
f 19/52/15 20/53/15 25/54/15 24/55/15
f 20/56/16 21/57/16 26/58/16 25/59/16
f 21/60/17 22/61/17 27/62/17 26/63/17
f 27/64/18 22/65/18 1/66/18
f 23/67/19 28/68/19 2/69/19
f 23/70/20 24/71/20 29/72/20 28/73/20
f 24/74/21 25/75/21 30/76/21 29/77/21
f 25/78/22 26/79/22 31/80/22 30/81/22
f 26/82/23 27/83/23 32/84/23 31/85/23
f 32/86/24 27/87/24 1/88/24
f 28/89/25 3/90/25 2/91/25
f 28/92/26 29/93/26 4/94/26 3/95/26
f 29/96/27 30/97/27 5/98/27 4/99/27
f 30/100/28 31/101/28 6/102/28 5/103/28
f 31/104/29 32/105/29 7/106/29 6/107/29
f 7/108/30 32/109/30 1/110/30
f 13/111/31 33/112/31 2/113/31
f 13/114/32 14/115/32 34/116/32 33/117/32
f 14/118/33 15/119/33 35/120/33 34/121/33
f 15/122/34 16/123/34 36/124/34 35/125/34
f 16/126/35 17/127/35 37/128/35 36/129/35
f 37/130/36 17/131/36 1/132/36
f 38/133/37 18/134/37 2/135/37
f 38/136/38 39/137/38 19/138/38 18/139/38
f 39/140/39 40/141/39 20/142/39 19/143/39
f 40/144/40 41/145/40 21/146/40 20/147/40
f 41/148/41 42/149/41 22/150/41 21/151/41
f 22/152/42 42/153/42 1/154/42