# Made in Blockbench 5.1.6
mtllib nyc_subway_ticketing_area_fence_1.mtl

o cube
v -0.421875 1 0.0078125
v -0.421875 1 -0.0078125
v -0.421875 0 0.0078125
v -0.421875 0 -0.0078125
v -0.453125 1 -0.0078125
v -0.453125 1 0.0078125
v -0.453125 0 -0.0078125
v -0.453125 0 0.0078125
vt 0.9725 1
vt 0.9991666666666666 1
vt 0.9991666666666666 0.1466666666666666
vt 0.9725 0.1466666666666666
vt 0.9733333333333334 1
vt 1 1
vt 1 0.1466666666666666
vt 0.9733333333333334 0.1466666666666666
vt 0.9675 1
vt 0.9941666666666666 1
vt 0.9941666666666666 0.1466666666666666
vt 0.9675 0.1466666666666666
vt 0.9675 1
vt 0.9941666666666666 1
vt 0.9941666666666666 0.1466666666666666
vt 0.9675 0.1466666666666666
vt 0.9675 1
vt 0.9941666666666666 1
vt 0.9941666666666666 0.1466666666666666
vt 0.9675 0.1466666666666666
vt 0.9675 0.9941666666666666
vt 0.9941666666666666 0.9941666666666666
vt 0.9941666666666666 0.14083333333333337
vt 0.9675 0.14083333333333337
vn 0 0 -1
vn 1 0 0
vn 0 0 1
vn -1 0 0
vn 0 1 0
vn 0 -1 0
usemtl m_a95a18a0-ed1e-e686-2f0c-a4da00779607
f 4/4/1 7/3/1 5/2/1 2/1/1
f 3/8/2 4/7/2 2/6/2 1/5/2
f 8/12/3 3/11/3 1/10/3 6/9/3
f 7/16/4 8/15/4 6/14/4 5/13/4
f 6/20/5 1/19/5 2/18/5 5/17/5
f 7/24/6 4/23/6 3/22/6 8/21/6
o cube
v 0.5 1 0
v 0.5 1 0
v 0.5 0 0
v 0.5 0 0
v -0.5 1 0
v -0.5 1 0
v -0.5 0 0
v -0.5 0 0
vt 0.8533333333333334 1
vt 0 1
vt 0 0.13666666666666671
vt 0.8533333333333334 0.13666666666666671
vt 0 1
vt 0.8533333333333334 1
vt 0.8533333333333334 0.13666666666666671
vt 0 0.13666666666666671
vn 0 0 -1
vn 0 0 1
usemtl m_a95a18a0-ed1e-e686-2f0c-a4da00779607
f 12/28/7 15/27/7 13/26/7 10/25/7
f 16/32/8 11/31/8 9/30/8 14/29/8
o cube
v 0.453125 1 0.0078125
v 0.453125 1 -0.0078125
v 0.453125 0 0.0078125
v 0.453125 0 -0.0078125
v 0.421875 1 -0.0078125
v 0.421875 1 0.0078125
v 0.421875 0 -0.0078125
v 0.421875 0 0.0078125
vt 0.9725 1
vt 0.9991666666666666 1
vt 0.9991666666666666 0.1466666666666666
vt 0.9725 0.1466666666666666
vt 0.9733333333333334 1
vt 1 1
vt 1 0.1466666666666666
vt 0.9733333333333334 0.1466666666666666
vt 0.9675 1
vt 0.9941666666666666 1
vt 0.9941666666666666 0.1466666666666666
vt 0.9675 0.1466666666666666
vt 0.9675 1
vt 0.9941666666666666 1
vt 0.9941666666666666 0.1466666666666666
vt 0.9675 0.1466666666666666
vt 0.9675 1
vt 0.9941666666666666 1
vt 0.9941666666666666 0.1466666666666666
vt 0.9675 0.1466666666666666
vt 0.9675 0.9941666666666666
vt 0.9941666666666666 0.9941666666666666
vt 0.9941666666666666 0.14083333333333337
vt 0.9675 0.14083333333333337
vn 0 0 -1
vn 1 0 0
vn 0 0 1
vn -1 0 0
vn 0 1 0
vn 0 -1 0
usemtl m_a95a18a0-ed1e-e686-2f0c-a4da00779607
f 20/36/9 23/35/9 21/34/9 18/33/9
f 19/40/10 20/39/10 18/38/10 17/37/10
f 24/44/11 19/43/11 17/42/11 22/41/11
f 23/48/12 24/47/12 22/46/12 21/45/12
f 22/52/13 17/51/13 18/50/13 21/49/13
f 23/56/14 20/55/14 19/54/14 24/53/14
o cube
v -0.296875 1 0.0078125
v -0.296875 1 -0.0078125
v -0.296875 0 0.0078125
v -0.296875 0 -0.0078125
v -0.328125 1 -0.0078125
v -0.328125 1 0.0078125
v -0.328125 0 -0.0078125
v -0.328125 0 0.0078125
vt 0.9725 1
vt 0.9991666666666666 1
vt 0.9991666666666666 0.1466666666666666
vt 0.9725 0.1466666666666666
vt 0.9733333333333334 1
vt 1 1
vt 1 0.1466666666666666
vt 0.9733333333333334 0.1466666666666666
vt 0.9675 1
vt 0.9941666666666666 1
vt 0.9941666666666666 0.1466666666666666
vt 0.9675 0.1466666666666666
vt 0.9675 1
vt 0.9941666666666666 1
vt 0.9941666666666666 0.1466666666666666
vt 0.9675 0.1466666666666666
vt 0.9675 1
vt 0.9941666666666666 1
vt 0.9941666666666666 0.1466666666666666
vt 0.9675 0.1466666666666666
vt 0.9675 0.9941666666666666
vt 0.9941666666666666 0.9941666666666666
vt 0.9941666666666666 0.14083333333333337
vt 0.9675 0.14083333333333337
vn 0 0 -1
vn 1 0 0
vn 0 0 1
vn -1 0 0
vn 0 1 0
vn 0 -1 0
usemtl m_a95a18a0-ed1e-e686-2f0c-a4da00779607
f 28/60/15 31/59/15 29/58/15 26/57/15
f 27/64/16 28/63/16 26/62/16 25/61/16
f 32/68/17 27/67/17 25/66/17 30/65/17
f 31/72/18 32/71/18 30/70/18 29/69/18
f 30/76/19 25/75/19 26/74/19 29/73/19
f 31/80/20 28/79/20 27/78/20 32/77/20
o cube
v -0.171875 1 0.0078125
v -0.171875 1 -0.0078125
v -0.171875 0 0.0078125
v -0.171875 0 -0.0078125
v -0.203125 1 -0.0078125
v -0.203125 1 0.0078125
v -0.203125 0 -0.0078125
v -0.203125 0 0.0078125
vt 0.9725 1
vt 0.9991666666666666 1
vt 0.9991666666666666 0.1466666666666666
vt 0.9725 0.1466666666666666
vt 0.9733333333333334 1
vt 1 1
vt 1 0.1466666666666666
vt 0.9733333333333334 0.1466666666666666
vt 0.9675 1
vt 0.9941666666666666 1
vt 0.9941666666666666 0.1466666666666666
vt 0.9675 0.1466666666666666
vt 0.9675 1
vt 0.9941666666666666 1
vt 0.9941666666666666 0.1466666666666666
vt 0.9675 0.1466666666666666
vt 0.9675 1
vt 0.9941666666666666 1
vt 0.9941666666666666 0.1466666666666666
vt 0.9675 0.1466666666666666
vt 0.9675 0.9941666666666666
vt 0.9941666666666666 0.9941666666666666
vt 0.9941666666666666 0.14083333333333337
vt 0.9675 0.14083333333333337
vn 0 0 -1
vn 1 0 0
vn 0 0 1
vn -1 0 0
vn 0 1 0
vn 0 -1 0
usemtl m_a95a18a0-ed1e-e686-2f0c-a4da00779607
f 36/84/21 39/83/21 37/82/21 34/81/21
f 35/88/22 36/87/22 34/86/22 33/85/22
f 40/92/23 35/91/23 33/90/23 38/89/23
f 39/96/24 40/95/24 38/94/24 37/93/24
f 38/100/25 33/99/25 34/98/25 37/97/25
f 39/104/26 36/103/26 35/102/26 40/101/26
o cube
v -0.046875 1 0.0078125
v -0.046875 1 -0.0078125
v -0.046875 0 0.0078125
v -0.046875 0 -0.0078125
v -0.078125 1 -0.0078125
v -0.078125 1 0.0078125
v -0.078125 0 -0.0078125
v -0.078125 0 0.0078125
vt 0.9725 1
vt 0.9991666666666666 1
vt 0.9991666666666666 0.1466666666666666
vt 0.9725 0.1466666666666666
vt 0.9733333333333334 1
vt 1 1
vt 1 0.1466666666666666
vt 0.9733333333333334 0.1466666666666666
vt 0.9675 1
vt 0.9941666666666666 1
vt 0.9941666666666666 0.1466666666666666
vt 0.9675 0.1466666666666666
vt 0.9675 1
vt 0.9941666666666666 1
vt 0.9941666666666666 0.1466666666666666
vt 0.9675 0.1466666666666666
vt 0.9675 1
vt 0.9941666666666666 1
vt 0.9941666666666666 0.1466666666666666
vt 0.9675 0.1466666666666666
vt 0.9675 0.9941666666666666
vt 0.9941666666666666 0.9941666666666666
vt 0.9941666666666666 0.14083333333333337
vt 0.9675 0.14083333333333337
vn 0 0 -1
vn 1 0 0
vn 0 0 1
vn -1 0 0
vn 0 1 0
vn 0 -1 0
usemtl m_a95a18a0-ed1e-e686-2f0c-a4da00779607
f 44/108/27 47/107/27 45/106/27 42/105/27
f 43/112/28 44/111/28 42/110/28 41/109/28
f 48/116/29 43/115/29 41/114/29 46/113/29
f 47/120/30 48/119/30 46/118/30 45/117/30
f 46/124/31 41/123/31 42/122/31 45/121/31
f 47/128/32 44/127/32 43/126/32 48/125/32
o cube
v 0.078125 1 0.0078125
v 0.078125 1 -0.0078125
v 0.078125 0 0.0078125
v 0.078125 0 -0.0078125
v 0.046875 1 -0.0078125
v 0.046875 1 0.0078125
v 0.046875 0 -0.0078125
v 0.046875 0 0.0078125
vt 0.9725 1
vt 0.9991666666666666 1
vt 0.9991666666666666 0.1466666666666666
vt 0.9725 0.1466666666666666
vt 0.9733333333333334 1
vt 1 1
vt 1 0.1466666666666666
vt 0.9733333333333334 0.1466666666666666
vt 0.9675 1
vt 0.9941666666666666 1
vt 0.9941666666666666 0.1466666666666666
vt 0.9675 0.1466666666666666
vt 0.9675 1
vt 0.9941666666666666 1
vt 0.9941666666666666 0.1466666666666666
vt 0.9675 0.1466666666666666
vt 0.9675 1
vt 0.9941666666666666 1
vt 0.9941666666666666 0.1466666666666666
vt 0.9675 0.1466666666666666
vt 0.9675 0.9941666666666666
vt 0.9941666666666666 0.9941666666666666
vt 0.9941666666666666 0.14083333333333337
vt 0.9675 0.14083333333333337
vn 0 0 -1
vn 1 0 0
vn 0 0 1
vn -1 0 0
vn 0 1 0
vn 0 -1 0
usemtl m_a95a18a0-ed1e-e686-2f0c-a4da00779607
f 52/132/33 55/131/33 53/130/33 50/129/33
f 51/136/34 52/135/34 50/134/34 49/133/34
f 56/140/35 51/139/35 49/138/35 54/137/35
f 55/144/36 56/143/36 54/142/36 53/141/36
f 54/148/37 49/147/37 50/146/37 53/145/37
f 55/152/38 52/151/38 51/150/38 56/149/38
o cube
v 0.203125 1 0.0078125
v 0.203125 1 -0.0078125
v 0.203125 0 0.0078125
v 0.203125 0 -0.0078125
v 0.171875 1 -0.0078125
v 0.171875 1 0.0078125
v 0.171875 0 -0.0078125
v 0.171875 0 0.0078125
vt 0.9725 1
vt 0.9991666666666666 1
vt 0.9991666666666666 0.1466666666666666
vt 0.9725 0.1466666666666666
vt 0.9733333333333334 1
vt 1 1
vt 1 0.1466666666666666
vt 0.9733333333333334 0.1466666666666666
vt 0.9675 1
vt 0.9941666666666666 1
vt 0.9941666666666666 0.1466666666666666
vt 0.9675 0.1466666666666666
vt 0.9675 1
vt 0.9941666666666666 1
vt 0.9941666666666666 0.1466666666666666
vt 0.9675 0.1466666666666666
vt 0.9675 1
vt 0.9941666666666666 1
vt 0.9941666666666666 0.1466666666666666
vt 0.9675 0.1466666666666666
vt 0.9675 0.9941666666666666
vt 0.9941666666666666 0.9941666666666666
vt 0.9941666666666666 0.14083333333333337
vt 0.9675 0.14083333333333337
vn 0 0 -1
vn 1 0 0
vn 0 0 1
vn -1 0 0
vn 0 1 0
vn 0 -1 0
usemtl m_a95a18a0-ed1e-e686-2f0c-a4da00779607
f 60/156/39 63/155/39 61/154/39 58/153/39
f 59/160/40 60/159/40 58/158/40 57/157/40
f 64/164/41 59/163/41 57/162/41 62/161/41
f 63/168/42 64/167/42 62/166/42 61/165/42
f 62/172/43 57/171/43 58/170/43 61/169/43
f 63/176/44 60/175/44 59/174/44 64/173/44
o cube
v 0.328125 1 0.0078125
v 0.328125 1 -0.0078125
v 0.328125 0 0.0078125
v 0.328125 0 -0.0078125
v 0.296875 1 -0.0078125
v 0.296875 1 0.0078125
v 0.296875 0 -0.0078125
v 0.296875 0 0.0078125
vt 0.9725 1
vt 0.9991666666666666 1
vt 0.9991666666666666 0.1466666666666666
vt 0.9725 0.1466666666666666
vt 0.9733333333333334 1
vt 1 1
vt 1 0.1466666666666666
vt 0.9733333333333334 0.1466666666666666
vt 0.9675 1
vt 0.9941666666666666 1
vt 0.9941666666666666 0.1466666666666666
vt 0.9675 0.1466666666666666
vt 0.9675 1
vt 0.9941666666666666 1
vt 0.9941666666666666 0.1466666666666666
vt 0.9675 0.1466666666666666
vt 0.9675 1
vt 0.9941666666666666 1
vt 0.9941666666666666 0.1466666666666666
vt 0.9675 0.1466666666666666
vt 0.9675 0.9941666666666666
vt 0.9941666666666666 0.9941666666666666
vt 0.9941666666666666 0.14083333333333337
vt 0.9675 0.14083333333333337
vn 0 0 -1
vn 1 0 0
vn 0 0 1
vn -1 0 0
vn 0 1 0
vn 0 -1 0
usemtl m_a95a18a0-ed1e-e686-2f0c-a4da00779607
f 68/180/45 71/179/45 69/178/45 66/177/45
f 67/184/46 68/183/46 66/182/46 65/181/46
f 72/188/47 67/187/47 65/186/47 70/185/47
f 71/192/48 72/191/48 70/190/48 69/189/48
f 70/196/49 65/195/49 66/194/49 69/193/49
f 71/200/50 68/199/50 67/198/50 72/197/50