# Made in Blockbench 5.1.5
mtllib nyc_subway_bench_3a.mtl

o cube
v 0.5 0.5 -0.5
v 0.5 0.53125 -0.5
v 0.5 0.55 0.46875
v 0.5 0.53125 0.4765625
v -0.5 0.53125 0.4765625
v -0.5 0.55 0.46875
v -0.5 0.53125 -0.5
v -0.5 0.5 -0.5
v 0.5 0.5625 0.453125
v 0.5 0.5625 -0.5
v -0.5 0.5625 -0.5
v -0.5 0.5625 0.453125
v 0.5 0.4375 -0.5
v 0.5 0.4375 0.421875
v -0.5 0.4375 0.421875
v -0.5 0.4375 -0.5
v -0.5 0.5 0.466875
v 0.5 0.5 0.466875
v -0.5 0.46875 -0.5
v 0.5 0.46875 -0.5
vt 0.027343749999999625 0.875
vt 0.04101562499999944 0.875
vt 0.041015625000000215 1
vt 0.027343750000000402 1
vt 0.027343749999999625 0.875
vt 0.04101562499999944 0.875
vt 0.041015625000000215 1
vt 0.027343750000000402 1
vt 0 0.875
vt 0.1220703125 0.875
vt 0.1220703125 1
vt 0 1
vt 0 0.875
vt 0.115234375 0.875
vt 0.115234375 1
vt 0 1
vt 0.0068359375 0.875
vt 0.0078125 0.875
vt 0.0078125 1
vt 0.0068359375 1
vt 0.0078125 0.875
vt 0.01171875 0.875
vt 0.01171875 1
vt 0.0078125 1
vt 0.0068359374999999965 1
vt 0.005615234375000014 1
vt 0.0056152343749999965 0.875
vt 0.006835937499999979 0.875
vt 0.027343750000000402 1
vt 0.01367187500000059 1
vt 0.013671874999999813 0.875
vt 0.027343749999999625 0.875
vt 0.0078124999999999965 1
vt 0.003906250000000038 1
vt 0.0039062499999999965 0.875
vt 0.007812499999999955 0.875
vt 0.027343750000000402 1
vt 0.01367187500000059 1
vt 0.013671874999999813 0.875
vt 0.027343749999999625 0.875
vt 0.009765624999999955 1
vt 0.007812500000000316 1
vt 0.007812499999999955 0.875
vt 0.009765624999999594 0.875
vt 0.05468750000000003 1
vt 0.041015625000000215 1
vt 0.04101562499999944 0.875
vt 0.05468749999999925 0.875
vt 0.015624999999999955 1
vt 0.011718750000000677 1
vt 0.011718749999999955 0.875
vt 0.015624999999999233 0.875
vt 0.05468750000000003 1
vt 0.041015625000000215 1
vt 0.04101562499999944 0.875
vt 0.05468749999999925 0.875
vt 0 0.875
vt 0.00561523437499992 0.875
vt 0.005615234375 1
vt 7.979727989493313e-17 1
vt 0 0.875
vt 0.013671874999999813 0.875
vt 0.01367187500000059 1
vt 7.771561172375989e-16 1
vt 0 0.875
vt 0.0039062499999999445 0.875
vt 0.00390625 1
vt 5.551115123125783e-17 1
vt 0 0.875
vt 0.013671874999999813 0.875
vt 0.01367187500000059 1
vt 7.771561172375989e-16 1
vn 1 0 0
vn -1 0 0
vn 0 1 0
vn 0 -1 0
vn 0 0.3846153846153839 0.9230769230769236
vn 0 0 -1
vn 0 -0.29609877111408106 0.9551573261744535
vn -1 0 0
vn 0 0 -1
vn 1 0 0
vn 0 0.7808688094430316 0.624695047554423
vn 1 0 0
vn 0 0 -1
vn -1 0 0
vn 0 -0.5843047258450758 0.8115343414514945
vn -1 0 0
vn 0 0 -1
vn 1 0 0
usemtl m_4d3cb037-acad-7f56-4c9f-2c2cbfa6b75f
f 1/1/1 2/2/1 3/3/1 4/4/1
f 5/5/2 6/6/2 7/7/2 8/8/2
f 9/9/3 10/10/3 11/11/3 12/12/3
f 13/13/4 14/14/4 15/15/4 16/16/4
f 4/17/5 3/18/5 6/19/5 5/20/5
f 8/21/6 7/22/6 2/23/6 1/24/6
f 5/25/7 17/26/7 18/27/7 4/28/7
f 8/29/8 19/30/8 17/31/8 5/32/8
f 1/33/9 20/34/9 19/35/9 8/36/9
f 4/37/10 18/38/10 20/39/10 1/40/10
f 12/41/11 6/42/11 3/43/11 9/44/11
f 9/45/12 3/46/12 2/47/12 10/48/12
f 10/49/13 2/50/13 7/51/13 11/52/13
f 11/53/14 7/54/14 6/55/14 12/56/14
f 14/57/15 18/58/15 17/59/15 15/60/15
f 15/61/16 17/62/16 19/63/16 16/64/16
f 16/65/17 19/66/17 20/67/17 13/68/17
f 13/69/18 20/70/18 18/71/18 14/72/18
o cube
v 0.5 0.734375 -0.3996875
v 0.5 0.75 -0.401875
v 0.5 0.75 0.21875
v 0.5 0.734375 0.234375
v 0.453125 0.734375 0.234375
v 0.453125 0.75 0.21875
v 0.453125 0.75 -0.401875
v 0.453125 0.734375 -0.3996875
v 0.5 0.745 0.22875
v 0.453125 0.745 0.22875
v 0.453125 0.7421875 -0.40078125
v 0.5 0.7421875 -0.40078125
vt 0.00390625 0.998291015625
vt 0.00390625 0.9981689453125
vt 0.015625 0.9981689453125
vt 0.015625 0.998291015625
vt 0 0.998291015625
vt 0 0.9981689453125
vt 0.01171875 0.9981689453125
vt 0.01171875 0.998291015625
vt 0.0009765625 0.98828125
vt 0.0009765625 1
vt 0 1
vt 0 0.98828125
vt 0.0009765625 0.984375
vt 0.0009765625 0.99609375
vt 0 0.99609375
vt 0 0.984375
vt 0 0.998291015625
vt 0 0.9981689453125
vt 0.0009765625 0.9981689453125
vt 0.0009765625 0.998291015625
vt 0.0009765625 0.998291015625
vt 0.0009765625 0.9981689453125
vt 0.001953125 0.9981689453125
vt 0.001953125 0.998291015625
vt 0.0009765625 0.998046875
vt 0.0009765625 0.9981689453125
vt 0 0.9981689453125
vt 0 0.998046875
vt 0.01171875 0.998046875
vt 0.01171875 0.9981689453125
vt 0 0.9981689453125
vt 0 0.998046875
vt 0.001953125 0.998046875
vt 0.001953125 0.9981689453125
vt 0.0009765625 0.9981689453125
vt 0.0009765625 0.998046875
vt 0.015625 0.998046875
vt 0.015625 0.9981689453125
vt 0.00390625 0.9981689453125
vt 0.00390625 0.998046875
vn 1 0 0
vn -1 0 0
vn 0 1 0
vn 0 -1 0
vn 0 0.8944271909999161 0.44721359549995804
vn 0 -0.1386478445344068 -0.9903417466743302
vn 0 0.4678877204190323 0.8837879163470621
vn -1 0 0
vn 0 -0.1386478445344068 -0.9903417466743302
vn 1 0 0
usemtl m_4d3cb037-acad-7f56-4c9f-2c2cbfa6b75f
f 23/73/19 29/74/19 32/75/19 22/76/19
f 27/77/20 31/78/20 30/79/20 26/80/20
f 23/81/21 22/82/21 27/83/21 26/84/21
f 21/85/22 24/86/22 25/87/22 28/88/22
f 26/89/23 30/90/23 29/91/23 23/92/23
f 22/93/24 32/94/24 31/95/24 27/96/24
f 24/97/25 29/98/25 30/99/25 25/100/25
f 25/101/26 30/102/26 31/103/26 28/104/26
f 28/105/27 31/106/27 32/107/27 21/108/27
f 21/109/28 32/110/28 29/111/28 24/112/28
o cube
v 0.5 0.5625 -0.5
v 0.5 1 -0.5
v 0.5 1 -0.4375
v 0.5 0.5625 -0.375
v -0.5 0.5625 -0.375
v -0.5 1 -0.4375
v -0.5 1 -0.5
v -0.5 0.5625 -0.5
v 0.5 1.015625 -0.4583333333333333
v -0.5 1.015625 -0.4583333333333333
v 0.5 1.015625 -0.47916666666666663
v -0.5 1.015625 -0.47916666666666663
v -0.5 0.5625 -0.41666666666666663
v -0.5 0.5625 -0.4583333333333333
v 0.5 0.5625 -0.41666666666666663
v 0.5 0.5625 -0.4583333333333333
vt 0.015625 1
vt 0.0126953125 1
vt 0.010416666666666666 0.9453125
vt 0.015625 0.9453125
vt 0 0.9453125
vt 0.005208333333333334 0.9453125
vt 0.002604166666666667 1
vt 0 1
vt 0.0078125 1
vt 0.005208333333333333 1
vt 0.005208333333333333 0.875
vt 0.0078125 0.875
vt 0 0.875
vt 0.005208333333333334 0.875
vt 0.005208333333333334 1
vt 0 1
vt 0 0.875
vt 0.0546875 0.875
vt 0.0546875 1
vt 0 1
vt 0 0.875
vt 0.0546875 0.875
vt 0.0546875 1
vt 0 1
vt 0 0.875
vt 0.002604166666666666 0.875
vt 0.002604166666666666 1
vt 0 1
vt 0.002604166666666666 0.875
vt 0.005208333333333333 0.875
vt 0.005208333333333333 1
vt 0.002604166666666666 1
vt 0.0078125 1
vt 0.005208333333333334 1
vt 0.010416666666666668 0.9453125
vt 0.015625 0.9453125
vt 0.005208333333333334 1
vt 0.002604166666666667 1
vt 0.005208333333333334 0.9453125
vt 0.010416666666666668 0.9453125
vt 0.015625 1
vt 0.010416666666666668 1
vt 0.010416666666666668 0.875
vt 0.015625 0.875
vt 0.010416666666666668 1
vt 0.005208333333333334 1
vt 0.005208333333333334 0.875
vt 0.010416666666666668 0.875
vt 0 0.9453125
vt 0.005208333333333332 0.9453125
vt 0.009765625 1
vt 0.0068359375 1
vt 0.005208333333333332 0.9453125
vt 0.010416666666666666 0.9453125
vt 0.0126953125 1
vt 0.009765625 1
vn 1 0 0
vn -1 0 0
vn 0 0.8000000000000005 -0.5999999999999993
vn 0 -1 0
vn 0 0.14142135623730953 0.9899494936611667
vn 0 0 -1
vn 0 0.7999999999999998 0.6000000000000004
vn 0 1 0
vn -1 0 0
vn -1 0 0
vn 0 -1 0
vn 0 -1 0
vn 1 0 0
vn 1 0 0
usemtl m_4d3cb037-acad-7f56-4c9f-2c2cbfa6b75f
f 34/113/29 43/114/29 48/115/29 33/116/29
f 40/117/30 46/118/30 44/119/30 39/120/30
f 39/121/31 44/122/31 43/123/31 34/124/31
f 33/125/32 48/126/32 46/127/32 40/128/32
f 36/129/33 35/130/33 38/131/33 37/132/33
f 40/133/34 39/134/34 34/135/34 33/136/34
f 35/137/35 41/138/35 42/139/35 38/140/35
f 41/141/36 43/142/36 44/143/36 42/144/36
f 38/145/37 42/146/37 45/147/37 37/148/37
f 42/149/38 44/150/38 46/151/38 45/152/38
f 37/153/39 45/154/39 47/155/39 36/156/39
f 45/157/40 46/158/40 48/159/40 47/160/40
f 36/161/41 47/162/41 41/163/41 35/164/41
f 47/165/42 48/166/42 43/167/42 41/168/42
o cube
v 0.5 0.734375 0.234375
v 0.5 0.734375 0.21875
v 0.5 0.5625 0.265625
v 0.5 0.5625 0.25
v 0.453125 0.734375 0.234375
v 0.453125 0.734375 0.21875
v 0.453125 0.5625 0.265625
v 0.453125 0.5625 0.25
vt 0.001953125 0.984375
vt 0.001953125 1
vt 0 1
vt 0 0.984375
vt 0.015625 0.984375
vt 0.015625 1
vt 0.013671875 1
vt 0.013671875 0.984375
vt 0.015625 0.984375
vt 0.015625 0.986328125
vt 0.009765625 0.986328125
vt 0.009765625 0.984375
vt 0.015625 0.998046875
vt 0.015625 1
vt 0.009765625 1
vt 0.009765625 0.998046875
vt 0.015625 0.984375
vt 0.015625 1
vt 0.009765625 1
vt 0.009765625 0.984375
vt 0.005859375 0.984375
vt 0.005859375 1
vt 0 1
vt 0 0.984375
vn 1 0 0
vn -1 0 0
vn 0 1 0
vn 0 -1 0
vn 0 0.17888543819998318 0.9838699100999075
vn 0 -0.17888543819998318 -0.9838699100999075
usemtl m_4d3cb037-acad-7f56-4c9f-2c2cbfa6b75f
f 52/169/43 50/170/43 49/171/43 51/172/43
f 55/173/44 53/174/44 54/175/44 56/176/44
f 49/177/45 50/178/45 54/179/45 53/180/45
f 52/181/46 51/182/46 55/183/46 56/184/46
f 51/185/47 49/186/47 53/187/47 55/188/47
f 56/189/48 54/190/48 50/191/48 52/192/48
o cube
v 0.059375 0.4375 0.390625
v 0.059375 0.4375 0.375
v 0.059375 0.015625 0.25
v 0.059375 0.015625 0.234375
v -0.065625 0.4375 0.390625
v -0.065625 0.4375 0.375
v -0.065625 0.015625 0.25
v -0.065625 0.015625 0.234375
vt 0.001953125 0.984375
vt 0.001953125 1
vt 0 1
vt 0 0.984375
vt 0.015625 0.984375
vt 0.015625 1
vt 0.013671875 1
vt 0.013671875 0.984375
vt 0.015625 0.984375
vt 0.015625 0.986328125
vt 0.009765625 0.986328125
vt 0.009765625 0.984375
vt 0.015625 0.998046875
vt 0.015625 1
vt 0.009765625 1
vt 0.009765625 0.998046875
vt 0.015625 0.984375
vt 0.015625 1
vt 0.009765625 1
vt 0.009765625 0.984375
vt 0.005859375 0.984375
vt 0.005859375 1
vt 0 1
vt 0 0.984375
vn 1 0 0
vn -1 0 0
vn 0 1 0
vn 0 -1 0
vn 0 -0.316227766016838 0.948683298050514
vn 0 0.316227766016838 -0.948683298050514
usemtl m_4d3cb037-acad-7f56-4c9f-2c2cbfa6b75f
f 60/193/49 58/194/49 57/195/49 59/196/49
f 63/197/50 61/198/50 62/199/50 64/200/50
f 57/201/51 58/202/51 62/203/51 61/204/51
f 60/205/52 59/206/52 63/207/52 64/208/52
f 59/209/53 57/210/53 61/211/53 63/212/53
f 64/213/54 62/214/54 58/215/54 60/216/54
o cube
v 0.0625 0.4375 -0.484375
v 0.0625 0.4375 -0.5
v 0.0625 0.015625 -0.484375
v 0.0625 0.015625 -0.5
v -0.0625 0.4375 -0.5
v -0.0625 0.4375 -0.484375
v -0.0625 0.015625 -0.5
v -0.0625 0.015625 -0.484375
vt 0 1
vt 0.015625 1
vt 0.015625 0.947265625
vt 0 0.947265625
vt 0.091796875 1
vt 0.09375 1
vt 0.09375 0.947265625
vt 0.091796875 0.947265625
vt 0 1
vt 0.015625 1
vt 0.015625 0.947265625
vt 0 0.947265625
vt 0.001953125 1
vt 0.00390625 1
vt 0.00390625 0.947265625
vt 0.001953125 0.947265625
vt 0 0.998046875
vt 0.015625 0.998046875
vt 0.015625 0.99609375
vt 0 0.99609375
vt 0 0.908203125
vt 0.015625 0.908203125
vt 0.015625 0.90625
vt 0 0.90625
vn 0 0 -1
vn 1 0 0
vn 0 0 1
vn -1 0 0
vn 0 1 0
vn 0 -1 0
usemtl m_4d3cb037-acad-7f56-4c9f-2c2cbfa6b75f
f 68/220/55 71/219/55 69/218/55 66/217/55
f 67/224/56 68/223/56 66/222/56 65/221/56
f 72/228/57 67/227/57 65/226/57 70/225/57
f 71/232/58 72/231/58 70/230/58 69/229/58
f 70/236/59 65/235/59 66/234/59 69/233/59
f 71/240/60 68/239/60 67/238/60 72/237/60
o cube
v 0.0625 0.015625 0.25
v 0.0625 0.015625 -0.5
v 0.0625 0 0.234375
v 0.0625 0 -0.484375
v -0.0625 0.015625 0.25
v -0.0625 0.015625 -0.5
v -0.0625 0 0.234375
v -0.0625 0 -0.484375
vt 0.09375 0.984375
vt 0.09375 0.986328125
vt 0 0.986328125
vt 0 0.984375
vt 0.095703125 0.984375
vt 0.095703125 0.986328125
vt 0.001953125 0.986328125
vt 0.001953125 0.984375
vt 0.015625 0.904296875
vt 0.015625 0.998046875
vt 0 0.998046875
vt 0 0.904296875
vt 0.015625 0.90625
vt 0.015625 1
vt 0 1
vt 0 0.90625
vt 0.015625 0.984375
vt 0.015625 0.986328125
vt 0 0.986328125
vt 0 0.984375
vt 0.015625 0.984375
vt 0.015625 0.986328125
vt 0 0.986328125
vt 0 0.984375
vn 1 0 0
vn -1 0 0
vn 0 1 0
vn 0 -1 0
vn 0 -0.7071067811865476 0.7071067811865476
vn 0 -0.7071067811865476 -0.7071067811865476
usemtl m_4d3cb037-acad-7f56-4c9f-2c2cbfa6b75f
f 76/241/61 74/242/61 73/243/61 75/244/61
f 79/245/62 77/246/62 78/247/62 80/248/62
f 73/249/63 74/250/63 78/251/63 77/252/63
f 76/253/64 75/254/64 79/255/64 80/256/64
f 75/257/65 73/258/65 77/259/65 79/260/65
f 80/261/66 78/262/66 74/263/66 76/264/66