# Made in Blockbench 5.1.6
mtllib nyc_subway_fare_gate_3_exit_open_light_layer.mtl

o cube
v -0.40625 0.5005035355204148 -0.7237678380385684
v -0.59375 0.5005035355204148 -0.7237678380385684
v -0.59375 0.6875000000000007 -0.7374999999999987
v -0.40625 0.6875000000000007 -0.7374999999999987
vt 0.0341796875 0
vt 0.0654296875 0
vt 0.0654296875 0.03125
vt 0.0341796875 0.03125
vn 0 -0.07323819712762855 -0.9973144772244584
usemtl m_30d2bf5b-8313-36d4-e34e-e4ef9b8b052f
f 1/1/1 2/2/1 3/3/1 4/4/1
o cube
v 0.4062500109600934 0.5005035359637691 0.7237678320012297
v 0.5937500109600935 0.5005035361683944 0.7237678292147653
v 0.5937500109600934 0.6875000006479803 0.7374999911761958
v 0.4062500109600933 0.687500000443355 0.7374999939626602
vt 0 0
vt 0.03125 0
vt 0.03125 0.03125
vt 0 0.03125
vn 1.490116089732521e-8 -0.07323819712762909 0.9973144772244582
usemtl m_30d2bf5b-8313-36d4-e34e-e4ef9b8b052f
f 5/5/2 6/6/2 7/7/2 8/8/2
o cube
v -0.40625 1.0344019436604737 -0.6852902913087922
v -0.59375 1.0344019436604737 -0.6852902913087922
v -0.59375 1.2111786389571106 -0.5085135960121553
v -0.40625 1.2111786389571106 -0.5085135960121553
vt 0.2724609375 0.0048828125
vt 0.3134765625 0.0048828125
vt 0.3134765625 0.0595703125
vt 0.2724609375 0.0595703125
vn 0 0.7071067811865474 -0.7071067811865478
usemtl m_30d2bf5b-8313-36d4-e34e-e4ef9b8b052f
f 9/9/3 10/10/3 11/11/3 12/12/3