# Made in Blockbench 5.1.6
mtllib nyc_subway_platform_light.mtl

o cube
v 0.09375 0.96875 -0.5
v -0.09375 0.96875 -0.5
v -0.09375 1 -0.5
v 0.09375 1 -0.5
v 0.09375 0.96875 0.5
v 0.09375 1 0.5
v -0.09375 0.96875 0.5
v -0.09375 1 0.5
vt 0.01171875 0.99609375
vt 0.03515625 0.99609375
vt 0.03515625 1
vt 0.01171875 1
vt 0 0.99609375
vt 0.125 0.99609375
vt 0.125 1
vt 0 1
vt 0.01171875 0.99609375
vt 0.03515625 0.99609375
vt 0.03515625 1
vt 0.01171875 1
vt 0 0.99609375
vt 0.125 0.99609375
vt 0.125 1
vt 0 1
vt 0.03515625 1
vt 0.01171875 1
vt 0.01171875 0.875
vt 0.03515625 0.875
vt 0.03515625 1
vt 0.01171875 1
vt 0.01171875 0.875
vt 0.03515625 0.875
vn 0 0 -1
vn 1 0 0
vn 0 0 1
vn -1 0 0
vn 0 1 0
vn 0 -1 0
usemtl m_b244a1d9-14ad-d2ea-cef7-b53f712ed174
f 1/1/1 2/2/1 3/3/1 4/4/1
f 5/5/2 1/6/2 4/7/2 6/8/2
f 7/9/3 5/10/3 6/11/3 8/12/3
f 2/13/4 7/14/4 8/15/4 3/16/4
f 8/17/5 6/18/5 4/19/5 3/20/5
f 2/21/6 1/22/6 5/23/6 7/24/6
o cube
v -0.078125 0.921875 -0.5
v -0.09375 0.921875 -0.5
v -0.09375 0.96875 -0.5
v -0.078125 0.96875 -0.5
v -0.078125 0.921875 0.5
v -0.078125 0.96875 0.5
v -0.09375 0.921875 0.5
v -0.09375 0.96875 0.5
vt 0.044921875 0.994140625
vt 0.046875 0.994140625
vt 0.046875 1
vt 0.044921875 1
vt 0 0.994140625
vt 0.125 0.994140625
vt 0.125 1
vt 0 1
vt 0 0.994140625
vt 0.001953125 0.994140625
vt 0.001953125 1
vt 0 1
vt 0 0.994140625
vt 0.125 0.994140625
vt 0.125 1
vt 0 1
vt 0.046875 1
vt 0.044921875 1
vt 0.044921875 0.875
vt 0.046875 0.875
vt 0.046875 1
vt 0.044921875 1
vt 0.044921875 0.875
vt 0.046875 0.875
vn 0 0 -1
vn 1 0 0
vn 0 0 1
vn -1 0 0
vn 0 1 0
vn 0 -1 0
usemtl m_b244a1d9-14ad-d2ea-cef7-b53f712ed174
f 9/25/7 10/26/7 11/27/7 12/28/7
f 13/29/8 9/30/8 12/31/8 14/32/8
f 15/33/9 13/34/9 14/35/9 16/36/9
f 10/37/10 15/38/10 16/39/10 11/40/10
f 16/41/11 14/42/11 12/43/11 11/44/11
f 10/45/12 9/46/12 13/47/12 15/48/12
o cube
v 0.09375 0.921875 -0.5
v 0.078125 0.921875 -0.5
v 0.078125 0.96875 -0.5
v 0.09375 0.96875 -0.5
v 0.09375 0.921875 0.5
v 0.09375 0.96875 0.5
v 0.078125 0.921875 0.5
v 0.078125 0.96875 0.5
vt 0.04296875 0.994140625
vt 0.044921875 0.994140625
vt 0.044921875 1
vt 0.04296875 1
vt 0 0.994140625
vt 0.125 0.994140625
vt 0.125 1
vt 0 1
vt 0.001953125 0.994140625
vt 0.00390625 0.994140625
vt 0.00390625 1
vt 0.001953125 1
vt 0 0.994140625
vt 0.125 0.994140625
vt 0.125 1
vt 0 1
vt 0.044921875 1
vt 0.04296875 1
vt 0.04296875 0.875
vt 0.044921875 0.875
vt 0.044921875 1
vt 0.04296875 1
vt 0.04296875 0.875
vt 0.044921875 0.875
vn 0 0 -1
vn 1 0 0
vn 0 0 1
vn -1 0 0
vn 0 1 0
vn 0 -1 0
usemtl m_b244a1d9-14ad-d2ea-cef7-b53f712ed174
f 17/49/13 18/50/13 19/51/13 20/52/13
f 21/53/14 17/54/14 20/55/14 22/56/14
f 23/57/15 21/58/15 22/59/15 24/60/15
f 18/61/16 23/62/16 24/63/16 19/64/16
f 24/65/17 22/66/17 20/67/17 19/68/17
f 18/69/18 17/70/18 21/71/18 23/72/18
o cube
v 0.078125 0.921875 -0.5
v -0.078125 0.921875 -0.5
v -0.078125 0.96875 -0.5
v 0.078125 0.96875 -0.5
v 0.078125 0.921875 -0.484375
v 0.078125 0.96875 -0.484375
v -0.078125 0.921875 -0.484375
v -0.078125 0.96875 -0.484375
vt 0.052734375 0.994140625
vt 0.072265625 0.994140625
vt 0.072265625 1
vt 0.052734375 1
vt 0.123046875 0.994140625
vt 0.125 0.994140625
vt 0.125 1
vt 0.123046875 1
vt 0.013671875 0.994140625
vt 0.033203125 0.994140625
vt 0.033203125 1
vt 0.013671875 1
vt 0 0.994140625
vt 0.001953125 0.994140625
vt 0.001953125 1
vt 0 1
vt 0.072265625 0.876953125
vt 0.052734375 0.876953125
vt 0.052734375 0.875
vt 0.072265625 0.875
vt 0.072265625 1
vt 0.052734375 1
vt 0.052734375 0.998046875
vt 0.072265625 0.998046875
vn 0 0 -1
vn 1 0 0
vn 0 0 1
vn -1 0 0
vn 0 1 0
vn 0 -1 0
usemtl m_b244a1d9-14ad-d2ea-cef7-b53f712ed174
f 25/73/19 26/74/19 27/75/19 28/76/19
f 29/77/20 25/78/20 28/79/20 30/80/20
f 31/81/21 29/82/21 30/83/21 32/84/21
f 26/85/22 31/86/22 32/87/22 27/88/22
f 32/89/23 30/90/23 28/91/23 27/92/23
f 26/93/24 25/94/24 29/95/24 31/96/24
o cylinder
v -0.022876587736527412 0.9603765877365275 -0.484375
v -0.008373412263472583 0.96875 -0.484375
v 0 0.9375 -0.484375
v -0.022876587736527412 0.9603765877365275 -0.4375
v -0.008373412263472583 0.96875 -0.4375
v 0 0.9375 -0.4375
v -0.031249999999999997 0.9458734122634725 -0.484375
v -0.031249999999999997 0.9458734122634725 -0.4375
v -0.031249999999999997 0.9291265877365275 -0.484375
v -0.031249999999999997 0.9291265877365275 -0.4375
v -0.022876587736527416 0.9146234122634725 -0.484375
v -0.022876587736527416 0.9146234122634727 -0.4375
v -0.008373412263472593 0.90625 -0.484375
v -0.008373412263472593 0.90625 -0.4375
v 0.00837341226347257 0.90625 -0.484375
v 0.00837341226347257 0.90625 -0.4375
v 0.022876587736527412 0.9146234122634725 -0.484375
v 0.022876587736527412 0.9146234122634725 -0.4375
v 0.031249999999999997 0.9291265877365275 -0.484375
v 0.031249999999999997 0.9291265877365275 -0.4375
v 0.03125 0.9458734122634725 -0.484375
v 0.03125 0.9458734122634725 -0.4375
v 0.02287658773652742 0.9603765877365275 -0.484375
v 0.02287658773652742 0.9603765877365275 -0.4375
v 0.00837341226347258 0.96875 -0.484375
v 0.00837341226347258 0.96875 -0.4375
vt 0.004043766904910569 0.9979781165475448
vt 0.003502388275564618 1
vt 0 0.9979781165475448
vt 1.1362438767648086e-16 0.9921875
vt 0.0020937500000001137 0.9921875
vt 0.0020937500000001137 1
vt 1.1362438767648086e-16 1
vt 8.673617379884035e-19 0.9959559010486729
vt 0.0020217174428785846 0.9964978992929371
vt 0 1
vt 0.004044098951327107 0.9979782825571214
vt 0.0035021007070629023 1
vt 0 0.9979782825571214
vt 1.1362438767648086e-16 0.9921875
vt 0.0020937500000001137 0.9921875
vt 0.0020937500000001137 1
vt 1.1362438767648086e-16 1
vt 4.336808689942018e-19 0.9959562330950894
vt 0.0020218834524552845 0.9964976117244354
vt 0 1
vt 0.00390625 0.9979062499999999
vt 0.00390625 0.9999999999999999
vt 0 0.9989531249999999
vt 1.1362438767648086e-16 0.9921875
vt 0.0020937500000001137 0.9921875
vt 0.0020937500000001137 1
vt 1.1362438767648086e-16 1
vt 0.00390625 0.9979062499999999
vt 0.00390625 0.9999999999999999
vt 0 0.9989531249999999
vt 4.336808689942018e-19 0.9959562330950894
vt 0.0020218834524552845 0.9964976117244354
vt 0 1
vt 1.1362438767648086e-16 0.9921875
vt 0.0020937500000001137 0.9921875
vt 0.0020937500000001137 1
vt 1.1362438767648086e-16 1
vt 0.004044098951327107 0.9979782825571214
vt 0.0035021007070629023 1
vt 0 0.9979782825571214
vt 8.673617379884035e-19 0.9959559010486729
vt 0.0020217174428785846 0.9964978992929371
vt 0 1
vt 1.1362438767648086e-16 0.9921875
vt 0.0020937500000001137 0.9921875
vt 0.0020937500000001137 1
vt 1.1362438767648086e-16 1
vt 0.004043766904910569 0.9979781165475448
vt 0.003502388275564618 1
vt 0 0.9979781165475448
vt 1.1362438767648086e-16 0.99609375
vt 0.0020937500000001137 0.99609375
vt 0.0010468750000001137 1
vt 1.1362438767648086e-16 0.9921875
vt 0.0020937500000001137 0.9921875
vt 0.0020937500000001137 1
vt 1.1362438767648086e-16 1
vt 0.0020937500000001137 1
vt 1.1362438767648086e-16 1
vt 0.0010468750000001137 0.99609375
vt 0 1
vt 0.0005413786293459507 0.9979781165475448
vt 0.004043766904910569 1
vt 1.1362438767648086e-16 0.9921875
vt 0.0020937500000001137 0.9921875
vt 0.0020937500000001137 1
vt 1.1362438767648086e-16 1
vt 0.0020217174428785838 1
vt 0 0.9994580017557358
vt 0.0020217174428785846 0.9959559010486729
vt 0 1
vt 0.0005419982442642045 0.9979782825571214
vt 0.004044098951327107 1
vt 1.1362438767648086e-16 0.9921875
vt 0.0020937500000001137 0.9921875
vt 0.0020937500000001137 1
vt 1.1362438767648086e-16 1
vt 0.002021883452455284 1
vt 0 0.999458621370654
vt 0.0020218834524552845 0.9959562330950894
vt 0 0.9999999999999999
vt 0 0.9979062499999999
vt 0.00390625 0.9989531249999999
vt 1.1362438767648086e-16 0.9921875
vt 0.0020937500000001137 0.9921875
vt 0.0020937500000001137 1
vt 1.1362438767648086e-16 1
vt 0 0.9999999999999999
vt 0 0.9979062499999999
vt 0.00390625 0.9989531249999999
vt 0.002021883452455284 1
vt 0 0.999458621370654
vt 0.0020218834524552845 0.9959562330950894
vt 1.1362438767648086e-16 0.9921875
vt 0.0020937500000001137 0.9921875
vt 0.0020937500000001137 1
vt 1.1362438767648086e-16 1
vt 0 1
vt 0.0005419982442642045 0.9979782825571214
vt 0.004044098951327107 1
vt 0.0020217174428785838 1
vt 0 0.9994580017557358
vt 0.0020217174428785846 0.9959559010486729
vt 1.1362438767648086e-16 0.9921875
vt 0.0020937500000001137 0.9921875
vt 0.0020937500000001137 1
vt 1.1362438767648086e-16 1
vt 0 1
vt 0.0005413786293459507 0.9979781165475448
vt 0.004043766904910569 1
vt 0.0020937500000001137 1
vt 1.1362438767648086e-16 1
vt 0.0010468750000001137 0.99609375
vt 1.1362438767648086e-16 0.9921875
vt 0.0020937500000001137 0.9921875
vt 0.0020937500000001137 1
vt 1.1362438767648086e-16 1
vt 1.1362438767648086e-16 0.99609375
vt 0.0020937500000001137 0.99609375
vt 0.0010468750000001137 1
vn 0 0 -1
vn -0.49999999999999833 0.8660254037844397 0
vn 0 0 1
vn 0 0 -1
vn -0.8660254037844398 0.499999999999998 0
vn 0 0 1
vn 0 0 -1
vn -1 0 0
vn 0 0 1
vn 0 0 -1
vn -0.8660254037844399 -0.49999999999999784 1.173965808429594e-15
vn 0 0 1
vn 0 0 -1
vn -0.4999999999999985 -0.8660254037844395 0
vn 0 0 1
vn 0 0 -1
vn 0 -1 0
vn 0 0 1
vn 0 0 -1
vn 0.49999999999999795 -0.8660254037844398 0
vn 0 0 1
vn 0 0 -1
vn 0.8660254037844398 -0.499999999999998 0
vn 0 0 1
vn 0 0 -1
vn 1 -2.071704367816948e-16 0
vn 0 0 1
vn 0 0 -1
vn 0.8660254037844399 0.49999999999999784 0
vn 0 0 1
vn 0 0 -1
vn 0.4999999999999981 0.8660254037844398 0
vn 0 0 1
vn 0 0 -1
vn 0 1 0
vn 0 0 1
usemtl m_923188b2-791b-3b6b-fb74-d5d56651c300
f 33/97/25 34/98/25 35/99/25
f 34/100/26 33/101/26 36/102/26 37/103/26
f 37/104/27 36/105/27 38/106/27
f 39/107/28 33/108/28 35/109/28
f 33/110/29 39/111/29 40/112/29 36/113/29
f 36/114/30 40/115/30 38/116/30
f 41/117/31 39/118/31 35/119/31
f 39/120/32 41/121/32 42/122/32 40/123/32
f 40/124/33 42/125/33 38/126/33
f 43/127/34 41/128/34 35/129/34
f 41/130/35 43/131/35 44/132/35 42/133/35
f 42/134/36 44/135/36 38/136/36
f 45/137/37 43/138/37 35/139/37
f 43/140/38 45/141/38 46/142/38 44/143/38
f 44/144/39 46/145/39 38/146/39
f 47/147/40 45/148/40 35/149/40
f 45/150/41 47/151/41 48/152/41 46/153/41
f 46/154/42 48/155/42 38/156/42
f 49/157/43 47/158/43 35/159/43
f 47/160/44 49/161/44 50/162/44 48/163/44
f 48/164/45 50/165/45 38/166/45
f 51/167/46 49/168/46 35/169/46
f 49/170/47 51/171/47 52/172/47 50/173/47
f 50/174/48 52/175/48 38/176/48
f 53/177/49 51/178/49 35/179/49
f 51/180/50 53/181/50 54/182/50 52/183/50
f 52/184/51 54/185/51 38/186/51
f 55/187/52 53/188/52 35/189/52
f 53/190/53 55/191/53 56/192/53 54/193/53
f 54/194/54 56/195/54 38/196/54
f 57/197/55 55/198/55 35/199/55
f 55/200/56 57/201/56 58/202/56 56/203/56
f 56/204/57 58/205/57 38/206/57
f 34/207/58 57/208/58 35/209/58
f 57/210/59 34/211/59 37/212/59 58/213/59
f 58/214/60 37/215/60 38/216/60
o cylinder
v -0.022876587736527412 0.9603765877365275 -0.5
v -0.008373412263472583 0.96875 -0.5
v 0 0.9375 -0.5
v -0.022876587736527412 0.9603765877365275 -0.484375
v -0.008373412263472583 0.96875 -0.484375
v 0 0.9375 -0.484375
v -0.031249999999999997 0.9458734122634725 -0.5
v -0.031249999999999997 0.9458734122634725 -0.484375
v -0.031249999999999997 0.9291265877365275 -0.5
v -0.031249999999999997 0.9291265877365275 -0.484375
v -0.022876587736527416 0.9146234122634725 -0.5
v -0.022876587736527416 0.9146234122634725 -0.484375
v -0.008373412263472593 0.90625 -0.5
v -0.008373412263472593 0.90625 -0.484375
v 0.00837341226347257 0.90625 -0.5
v 0.00837341226347257 0.90625 -0.484375
v 0.022876587736527412 0.9146234122634725 -0.5
v 0.022876587736527412 0.9146234122634725 -0.484375
v 0.031249999999999997 0.9291265877365275 -0.5
v 0.031249999999999997 0.9291265877365275 -0.484375
v 0.03125 0.9458734122634725 -0.5
v 0.03125 0.9458734122634725 -0.484375
v 0.02287658773652742 0.9603765877365275 -0.5
v 0.02287658773652742 0.9603765877365275 -0.484375
v 0.00837341226347258 0.96875 -0.5
v 0.00837341226347258 0.96875 -0.484375
vt 0.004043766904910569 0.9979781165475448
vt 0.003502388275564618 1
vt 0 0.9979781165475448
vt 1.1362438767648086e-16 0.9921875
vt 0.0020937500000001137 0.9921875
vt 0.0020937500000001137 1
vt 1.1362438767648086e-16 1
vt 8.673617379884035e-19 0.9959559010486729
vt 0.0020217174428785846 0.9964978992929371
vt 0 1
vt 0.004044098951327107 0.9979782825571214
vt 0.0035021007070629023 1
vt 0 0.9979782825571214
vt 1.1362438767648086e-16 0.9921875
vt 0.0020937500000001137 0.9921875
vt 0.0020937500000001137 1
vt 1.1362438767648086e-16 1
vt 4.336808689942018e-19 0.9959562330950894
vt 0.0020218834524552845 0.9964976117244354
vt 0 1
vt 0.00390625 0.9979062499999999
vt 0.00390625 0.9999999999999999
vt 0 0.9989531249999999
vt 1.1362438767648086e-16 0.9921875
vt 0.0020937500000001137 0.9921875
vt 0.0020937500000001137 1
vt 1.1362438767648086e-16 1
vt 0.00390625 0.9979062499999999
vt 0.00390625 0.9999999999999999
vt 0 0.9989531249999999
vt 4.336808689942018e-19 0.9959562330950894
vt 0.0020218834524552845 0.9964976117244354
vt 0 1
vt 1.1362438767648086e-16 0.9921875
vt 0.0020937500000001137 0.9921875
vt 0.0020937500000001137 1
vt 1.1362438767648086e-16 1
vt 0.004044098951327107 0.9979782825571214
vt 0.0035021007070629023 1
vt 0 0.9979782825571214
vt 8.673617379884035e-19 0.9959559010486729
vt 0.0020217174428785846 0.9964978992929371
vt 0 1
vt 1.1362438767648086e-16 0.9921875
vt 0.0020937500000001137 0.9921875
vt 0.0020937500000001137 1
vt 1.1362438767648086e-16 1
vt 0.004043766904910569 0.9979781165475448
vt 0.003502388275564618 1
vt 0 0.9979781165475448
vt 1.1362438767648086e-16 0.99609375
vt 0.0020937500000001137 0.99609375
vt 0.0010468750000001137 1
vt 1.1362438767648086e-16 0.9921875
vt 0.0020937500000001137 0.9921875
vt 0.0020937500000001137 1
vt 1.1362438767648086e-16 1
vt 0.0020937500000001137 1
vt 1.1362438767648086e-16 1
vt 0.0010468750000001137 0.99609375
vt 0 1
vt 0.0005413786293459507 0.9979781165475448
vt 0.004043766904910569 1
vt 1.1362438767648086e-16 0.9921875
vt 0.0020937500000001137 0.9921875
vt 0.0020937500000001137 1
vt 1.1362438767648086e-16 1
vt 0.0020217174428785838 1
vt 0 0.9994580017557358
vt 0.0020217174428785846 0.9959559010486729
vt 0 1
vt 0.0005419982442642045 0.9979782825571214
vt 0.004044098951327107 1
vt 1.1362438767648086e-16 0.9921875
vt 0.0020937500000001137 0.9921875
vt 0.0020937500000001137 1
vt 1.1362438767648086e-16 1
vt 0.002021883452455284 1
vt 0 0.999458621370654
vt 0.0020218834524552845 0.9959562330950894
vt 0 0.9999999999999999
vt 0 0.9979062499999999
vt 0.00390625 0.9989531249999999
vt 1.1362438767648086e-16 0.9921875
vt 0.0020937500000001137 0.9921875
vt 0.0020937500000001137 1
vt 1.1362438767648086e-16 1
vt 0 0.9999999999999999
vt 0 0.9979062499999999
vt 0.00390625 0.9989531249999999
vt 0.002021883452455284 1
vt 0 0.999458621370654
vt 0.0020218834524552845 0.9959562330950894
vt 1.1362438767648086e-16 0.9921875
vt 0.0020937500000001137 0.9921875
vt 0.0020937500000001137 1
vt 1.1362438767648086e-16 1
vt 0 1
vt 0.0005419982442642045 0.9979782825571214
vt 0.004044098951327107 1
vt 0.0020217174428785838 1
vt 0 0.9994580017557358
vt 0.0020217174428785846 0.9959559010486729
vt 1.1362438767648086e-16 0.9921875
vt 0.0020937500000001137 0.9921875
vt 0.0020937500000001137 1
vt 1.1362438767648086e-16 1
vt 0 1
vt 0.0005413786293459507 0.9979781165475448
vt 0.004043766904910569 1
vt 0.0020937500000001137 1
vt 1.1362438767648086e-16 1
vt 0.0010468750000001137 0.99609375
vt 1.1362438767648086e-16 0.9921875
vt 0.0020937500000001137 0.9921875
vt 0.0020937500000001137 1
vt 1.1362438767648086e-16 1
vt 1.1362438767648086e-16 0.99609375
vt 0.0020937500000001137 0.99609375
vt 0.0010468750000001137 1
vn 0 0 -1
vn -0.49999999999999833 0.8660254037844397 0
vn 0 0 1
vn 0 0 -1
vn -0.8660254037844398 0.49999999999999806 0
vn 0 0 1
vn 0 0 -1
vn -1 0 0
vn 0 0 1
vn 0 0 -1
vn -0.86602540378444 -0.49999999999999795 0
vn 0 0 1
vn 0 0 -1
vn -0.49999999999999856 -0.8660254037844397 0
vn 0 0 1
vn 0 0 -1
vn 0 -1 0
vn 0 0 1
vn 0 0 -1
vn 0.49999999999999806 -0.8660254037844399 0
vn 0 0 1
vn 0 0 -1
vn 0.8660254037844398 -0.49999999999999806 0
vn 0 0 1
vn 0 0 -1
vn 1 -2.071704367816948e-16 0
vn 0 0 1
vn 0 0 -1
vn 0.86602540378444 0.49999999999999795 0
vn 0 0 1
vn 0 0 -1
vn 0.49999999999999806 0.8660254037844397 0
vn 0 0 1
vn 0 0 -1
vn 0 1 0
vn 0 0 1
usemtl m_4ca23a5b-85ff-7c83-1bf4-9ae296f869f6
f 59/217/61 60/218/61 61/219/61
f 60/220/62 59/221/62 62/222/62 63/223/62
f 63/224/63 62/225/63 64/226/63
f 65/227/64 59/228/64 61/229/64
f 59/230/65 65/231/65 66/232/65 62/233/65
f 62/234/66 66/235/66 64/236/66
f 67/237/67 65/238/67 61/239/67
f 65/240/68 67/241/68 68/242/68 66/243/68
f 66/244/69 68/245/69 64/246/69
f 69/247/70 67/248/70 61/249/70
f 67/250/71 69/251/71 70/252/71 68/253/71
f 68/254/72 70/255/72 64/256/72
f 71/257/73 69/258/73 61/259/73
f 69/260/74 71/261/74 72/262/74 70/263/74
f 70/264/75 72/265/75 64/266/75
f 73/267/76 71/268/76 61/269/76
f 71/270/77 73/271/77 74/272/77 72/273/77
f 72/274/78 74/275/78 64/276/78
f 75/277/79 73/278/79 61/279/79
f 73/280/80 75/281/80 76/282/80 74/283/80
f 74/284/81 76/285/81 64/286/81
f 77/287/82 75/288/82 61/289/82
f 75/290/83 77/291/83 78/292/83 76/293/83
f 76/294/84 78/295/84 64/296/84
f 79/297/85 77/298/85 61/299/85
f 77/300/86 79/301/86 80/302/86 78/303/86
f 78/304/87 80/305/87 64/306/87
f 81/307/88 79/308/88 61/309/88
f 79/310/89 81/311/89 82/312/89 80/313/89
f 80/314/90 82/315/90 64/316/90
f 83/317/91 81/318/91 61/319/91
f 81/320/92 83/321/92 84/322/92 82/323/92
f 82/324/93 84/325/93 64/326/93
f 60/327/94 83/328/94 61/329/94
f 83/330/95 60/331/95 63/332/95 84/333/95
f 84/334/96 63/335/96 64/336/96