# Made in Blockbench 5.1.6
mtllib nyc_subway_lcd_pids_light_layer.mtl

o light
v 0.38040555061911285 0.6870636050249939 -0.4921875
v 0.38040555061911285 0.6870636050249939 -0.5078125
v 0.37702368165132993 0.6718089799137449 -0.4921875
v 0.37702368165132993 0.6718089799137449 -0.5078125
v 0.38040555061911285 0.6870636050249939 -0.5078125
v 0.38040555061911285 0.6870636050249939 -0.4921875
v 0.37702368165132993 0.6718089799137449 -0.5078125
v 0.37702368165132993 0.6718089799137449 -0.4921875
vt 0.00390625 0.95703125
vt 0.125 0.95703125
vt 0.125 0.87890625
vt 0.00390625 0.87890625
vt 0 0.95703125
vt 0.12109375 0.95703125
vt 0.12109375 0.87890625
vt 0 0.87890625
vn 0.9762960071199334 -0.21643961393810288 0
vn -0.9762960071199334 0.21643961393810288 0
usemtl m_e218a18c-79e0-ecb4-ecc9-570316dcff82
f 3/4/1 4/3/1 2/2/1 1/1/1
f 7/8/2 8/7/2 6/6/2 5/5/2