# Made in Blockbench 5.1.6
mtllib nyc_subway_ticket_machine_1_light_layer.mtl

o cube
v -0.5 1.5 0.375
v 0.5 1.5 0.375
v 0.5 1.75 0.375
v -0.5 1.75 0.375
vt 0 0.5625
vt 0.25 0.5625
vt 0.25 0.625
vt 0 0.625
vn 0 0 1
usemtl m_e9079b9a-10f8-c0b1-29b5-c07107d03866
f 1/1/1 2/2/1 3/3/1 4/4/1
o cube
v 0.4375 0.8125 0.21875
v 0.4375 1.40625 0.1875
v -0.4375 1.40625 0.1875
v -0.4375 0.8125 0.21875
vt 0.484375 0.6796875
vt 0.484375 0.828125
vt 0.265625 0.828125
vt 0.265625 0.6796875
vn 0 0.05255883312276367 0.9986178293325098
usemtl m_e9079b9a-10f8-c0b1-29b5-c07107d03866
f 5/5/2 6/6/2 7/7/2 8/8/2