# Made in Blockbench 5.1.6
mtllib nyc_subway_entrance_2_roof_3.mtl

o cube
v 0.5 0.375 0.5
v 0.5 0.375 0.375
v 0.5 0 0.5
v 0.5 0 0.375
v -0.5 0.375 0.375
v -0.5 0.375 0.5
v -0.5 0 0.375
v -0.5 0 0.5
vt 1.0625 0.875
vt 0.0625 0.875
vt 0.0625 0.5
vt 1.0625 0.5
vt 1 0.875
vt 0.875 0.875
vt 0.875 0.5
vt 1 0.5
vt 0.625 0.875
vt -0.375 0.875
vt -0.375 0.5
vt 0.625 0.5
vt 0.125 0.875
vt 0 0.875
vt 0 0.5
vt 0.125 0.5
vt 0.625 0.125
vt -0.375 0.125
vt -0.375 0
vt 0.625 0
vt 0.625 1
vt -0.375 1
vt -0.375 0.875
vt 0.625 0.875
vn 0 0 -1
vn 1 0 0
vn 0 0 1
vn -1 0 0
vn 0 1 0
vn 0 -1 0
usemtl m_e70d8a61-7516-cbc3-246b-546d68436d1f
f 4/4/1 7/3/1 5/2/1 2/1/1
f 3/8/2 4/7/2 2/6/2 1/5/2
f 8/12/3 3/11/3 1/10/3 6/9/3
f 7/16/4 8/15/4 6/14/4 5/13/4
f 6/20/5 1/19/5 2/18/5 5/17/5
f 7/24/6 4/23/6 3/22/6 8/21/6
o cube
v 0.5 0.1875 -0.046875
v -0.5 0.1875 -0.046875
v -0.5 0.375 -0.046875
v 0.5 0.375 -0.046875
v 0.5 0.1875 0.046875
v 0.5 0.375 0.046875
v -0.5 0.1875 0.046875
v -0.5 0.375 0.046875
vt 0 0.75
vt 1 0.75
vt 1 0.9375
vt 0 0.9375
vt 0.015625 0.75
vt 0.109375 0.75
vt 0.109375 0.9375
vt 0.015625 0.9375
vt 0 0.75
vt 1 0.75
vt 1 0.9375
vt 0 0.9375
vt 0.015625 0.75
vt 0.109375 0.75
vt 0.109375 0.9375
vt 0.015625 0.9375
vt 0 0.890625
vt 1 0.890625
vt 1 0.984375
vt 0 0.984375
vt 0 0.890625
vt 1 0.890625
vt 1 0.984375
vt 0 0.984375
vn 0 0 -1
vn 1 0 0
vn 0 0 1
vn -1 0 0
vn 0 1 0
vn 0 -1 0
usemtl m_e70d8a61-7516-cbc3-246b-546d68436d1f
f 9/25/7 10/26/7 11/27/7 12/28/7
f 13/29/8 9/30/8 12/31/8 14/32/8
f 15/33/9 13/34/9 14/35/9 16/36/9
f 10/37/10 15/38/10 16/39/10 11/40/10
f 16/41/11 14/42/11 12/43/11 11/44/11
f 10/45/12 9/46/12 13/47/12 15/48/12
o cube
v 0.5 0.375 -0.5
v -0.5 0.375 -0.5
v -0.5 0.5 -0.5
v 0.5 0.5 -0.5
v 0.5 0.375 0.5
v 0.5 0.5 0.5
v -0.5 0.375 0.5
v -0.5 0.5 0.5
vt 0 0.875
vt 1 0.875
vt 1 1
vt 0 1
vt 0 0.875
vt 1 0.875
vt 1 1
vt 0 1
vt 0 0.875
vt 1 0.875
vt 1 1
vt 0 1
vt 0 0.875
vt 1 0.875
vt 1 1
vt 0 1
vt 0 0
vt 1 0
vt 1 1
vt 0 1
vt 0 0
vt 1 0
vt 1 1
vt 0 1
vn 0 0 -1
vn 1 0 0
vn 0 0 1
vn -1 0 0
vn 0 1 0
vn 0 -1 0
usemtl m_e70d8a61-7516-cbc3-246b-546d68436d1f
f 17/49/13 18/50/13 19/51/13 20/52/13
f 21/53/14 17/54/14 20/55/14 22/56/14
f 23/57/15 21/58/15 22/59/15 24/60/15
f 18/61/16 23/62/16 24/63/16 19/64/16
f 24/65/17 22/66/17 20/67/17 19/68/17
f 18/69/18 17/70/18 21/71/18 23/72/18