# Made in Blockbench 5.1.5
mtllib nyc_subway_fare_gate_5_entrance_closed.mtl

o left
v -0.375 0.375 0.375
v -0.375 0.375 -0.375
v -0.375 0 0.375
v -0.375 0 -0.375
v -0.625 0.375 -0.375
v -0.625 0.375 0.375
v -0.625 0 -0.375
v -0.625 0 0.375
vt 0.8828125 0.05065914062499999
vt 0.904296875 0.05065914062499999
vt 0.904296875 0.013671875
vt 0.8828125 0.013671875
vt 0.904296875 0.05065914062499999
vt 0.96875 0.05065914062499999
vt 0.96875 0.013671875
vt 0.904296875 0.013671875
vt 0.8828125 0.05065914062499999
vt 0.904296875 0.05065914062499999
vt 0.904296875 0.013671875
vt 0.8828125 0.013671875
vt 0.8828125 0.05065914062499999
vt 0.947265625 0.05065914062499999
vt 0.947265625 0.013671875
vt 0.8828125 0.013671875
vt 0.8828125 0.1123046875
vt 0.904296875 0.1123046875
vt 0.904296875 0.038330078125
vt 0.8828125 0.038330078125
vt 0.8828125 0.087646484375
vt 0.904296875 0.087646484375
vt 0.904296875 0.013671875
vt 0.8828125 0.013671875
vn 0 0 -1
vn 1 0 0
vn 0 0 1
vn -1 0 0
vn 0 1 0
vn 0 -1 0
usemtl m_c4285295-d1e0-dcfc-0036-196fac025b3b
f 4/4/1 7/3/1 5/2/1 2/1/1
f 3/8/2 4/7/2 2/6/2 1/5/2
f 8/12/3 3/11/3 1/10/3 6/9/3
f 7/16/4 8/15/4 6/14/4 5/13/4
f 6/20/5 1/19/5 2/18/5 5/17/5
f 7/24/6 4/23/6 3/22/6 8/21/6
o right
v 0.625 0.375 0.375
v 0.625 0.375 -0.375
v 0.625 0 0.375
v 0.625 0 -0.375
v 0.375 0.375 -0.375
v 0.375 0.375 0.375
v 0.375 0 -0.375
v 0.375 0 0.375
vt 0.8828125 0.05065914062499999
vt 0.904296875 0.05065914062499999
vt 0.904296875 0.013671875
vt 0.8828125 0.013671875
vt 0.8828125 0.05065914062499999
vt 0.947265625 0.05065914062499999
vt 0.947265625 0.013671875
vt 0.8828125 0.013671875
vt 0.8828125 0.05065914062499999
vt 0.904296875 0.05065914062499999
vt 0.904296875 0.013671875
vt 0.8828125 0.013671875
vt 0.904296875 0.05065914062499999
vt 0.96875 0.05065914062499999
vt 0.96875 0.013671875
vt 0.904296875 0.013671875
vt 0.8828125 0.087646484375
vt 0.904296875 0.087646484375
vt 0.904296875 0.013671875
vt 0.8828125 0.013671875
vt 0.8828125 0.1123046875
vt 0.904296875 0.1123046875
vt 0.904296875 0.038330078125
vt 0.8828125 0.038330078125
vn 0 0 -1
vn 1 0 0
vn 0 0 1
vn -1 0 0
vn 0 1 0
vn 0 -1 0
usemtl m_c4285295-d1e0-dcfc-0036-196fac025b3b
f 12/28/7 15/27/7 13/26/7 10/25/7
f 11/32/8 12/31/8 10/30/8 9/29/8
f 16/36/9 11/35/9 9/34/9 14/33/9
f 15/40/10 16/39/10 14/38/10 13/37/10
f 14/44/11 9/43/11 10/42/11 13/41/11
f 15/48/12 12/47/12 11/46/12 16/45/12
o cube
v 0.5878444320450493 0.9814169108934822 0.6155311944600482
v 0.5878444320450493 0.9814169108934822 0.6155311944600482
v 0.5944334470241525 0.9212148289782844 0.8580848879274555
v 0.5944334470241525 0.9212148289782844 0.8580848879274555
v 0.4023436447963977 0.9541638009577914 0.6138061063568988
v 0.4023436447963977 0.9541638009577914 0.6138061063568988
v 0.4089326597755008 0.8939617190425936 0.8563597998243061
v 0.4089326597755008 0.8939617190425936 0.8563597998243061
vt 0 1
vt 0.0234375 1
vt 0.0234375 0.96875
vt 0 0.96875
vt 0 1
vt 0 1
vt 0 0.96875
vt 0 0.96875
vt 0.1728515625 0.0595703125
vt 0.2138671875 0.0595703125
vt 0.2138671875 0.0048828125
vt 0.1728515625 0.0048828125
vt 0.015625 1
vt 0.015625 1
vt 0.015625 0.96875
vt 0.015625 0.96875
vt 0 0.984375
vt 0.0234375 0.984375
vt 0.0234375 0.984375
vt 0 0.984375
vt 0 1
vt 0.0234375 1
vt 0.0234375 1
vt 0 1
vn 0.14323618919833245 -0.9596274017476324 -0.24207156776256877
vn 0.9893375319928088 0.14534991965701768 0.009200469883463418
vn -0.14323618919833245 0.9596274017476324 0.24207156776256877
vn -0.9893375319928088 -0.14534991965701768 -0.009200469883463418
vn -0.02635605991641232 0.240808327660791 -0.9702147738696293
vn 0.02635605991641232 -0.240808327660791 0.9702147738696293
usemtl m_c4285295-d1e0-dcfc-0036-196fac025b3b
f 20/52/13 23/51/13 21/50/13 18/49/13
f 19/56/14 20/55/14 18/54/14 17/53/14
f 24/60/15 19/59/15 17/58/15 22/57/15
f 23/64/16 24/63/16 22/62/16 21/61/16
f 22/68/17 17/67/17 18/66/17 21/65/17
f 23/72/18 20/71/18 19/70/18 24/69/18
o left
v -0.375 0.875 -0.515625
v -0.375 0.796875 -0.9375
v -0.375 0 -0.5625
v -0.375 0 -0.875
v -0.625 0.875 -0.515625
v -0.625 0.796875 -0.9375
v -0.625 0 -0.5625
v -0.625 0 -0.875
v -0.375 0.8154646064324059 -0.9174889065812599
v -0.375 0 -0.8601769678379703
v -0.625 0 -0.8601769678379703
v -0.625 0.8154646064324059 -0.9174889065812599
vt 0.8828125 0.013671875
vt 0.9135104373082907 0.013671875
vt 0.9135104373082907 0.09997554687499999
vt 0.8828125 0.09997554687499999
vt 0.96875 0.09997554687499999
vt 0.9380520626917093 0.09997554687499999
vt 0.9380520626917093 0.013671875
vt 0.96875 0.013671875
vt 0.904296875 0.013671875
vt 0.904296875 0.04890469765557626
vt 0.8828125 0.04890469765557626
vt 0.8828125 0.013671875
vt 0.8828125 0.1123046875
vt 0.8828125 0.07707179042518175
vt 0.904296875 0.07707179042518175
vt 0.904296875 0.1123046875
vt 0.904296875 0.013671875
vt 0.904296875 0.09997554687499999
vt 0.8828125 0.09997554687499999
vt 0.8828125 0.013671875
vt 0.904296875 0.013671875
vt 0.904296875 0.09997554687499999
vt 0.8828125 0.09997554687499999
vt 0.8828125 0.013671875
vt 0.9150390625 0.09997554687499999
vt 0.9135104373082907 0.09997554687499999
vt 0.9135104373082907 0.013671875
vt 0.9150390625 0.013671875
vt 0.904296875 0.07531734374999999
vt 0.904296875 0.07707179042518175
vt 0.8828125 0.07707179042518175
vt 0.8828125 0.07531734374999999
vt 0.9365234375 0.013671875
vt 0.9380520626917093 0.013671875
vt 0.9380520626917093 0.09997554687499999
vt 0.9365234375 0.09997554687499999
vt 0.8828125 0.05065914062499999
vt 0.8828125 0.04890469765557626
vt 0.904296875 0.04890469765557626
vt 0.904296875 0.05065914062499999
vn 1 0 0
vn -1 0 0
vn 0 0.9892034623538708 -0.14654866108946238
vn 0 -1 0
vn 0 -0.05349472137161191 0.998568132270089
vn 0 -0.07819124531863149 -0.9969383778125515
vn 1 0 0
vn 0 -1 0
vn -1 0 0
vn 0 0.7326496763843674 -0.6806059445037794
usemtl m_c4285295-d1e0-dcfc-0036-196fac025b3b
f 27/73/19 34/74/19 33/75/19 25/76/19
f 29/77/20 36/78/20 35/79/20 31/80/20
f 25/81/21 33/82/21 36/83/21 29/84/21
f 31/85/22 35/86/22 34/87/22 27/88/22
f 27/89/23 25/90/23 29/91/23 31/92/23
f 32/93/24 30/94/24 26/95/24 28/96/24
f 26/97/25 33/98/25 34/99/25 28/100/25
f 28/101/26 34/102/26 35/103/26 32/104/26
f 32/105/27 35/106/27 36/107/27 30/108/27
f 30/109/28 36/110/28 33/111/28 26/112/28
o right
v -0.4375 0.375 0
v -0.4375 1.75 0
v -0.42912625 0.375 0.03125
v -0.42912625 1.75 0.03125
v -0.41462375 0.375 0.02287625
v -0.41462375 1.75 0.02287625
v -0.40625 0.375 0.00837375
v -0.40625 1.75 0.00837375
v -0.40625 0.375 -0.00837375
v -0.40625 1.75 -0.00837375
v -0.41462375 0.375 -0.02287625
v -0.41462375 1.75 -0.02287625
v -0.42912625 0.375 -0.03125
v -0.42912625 1.75 -0.03125
v -0.44587375 0.375 -0.03125
v -0.44587375 1.75 -0.03125
v -0.46037625 0.375 -0.02287625
v -0.46037625 1.75 -0.02287625
v -0.46875 0.375 -0.00837375
v -0.46875 1.75 -0.00837375
v -0.46875 0.375 0.00837375
v -0.46875 1.75 0.00837375
v -0.46037625 0.375 0.02287625
v -0.46037625 1.75 0.02287625
v -0.44587375 0.375 0.03125
v -0.44587375 1.75 0.03125
vt 0.928846953125 0.11059874999999997
vt 0.925821640625 0.1123046875
vt 0.90625 0.11059874999999997
vt 0.90625 0.0595703125
vt 0.917950078125 0.0595703125
vt 0.917950078125 0.1123046875
vt 0.90625 0.1123046875
vt 0.90625 0.10889249999999995
vt 0.9175475 0.10934976562499998
vt 0.90625 0.1123046875
vt 0.92884875 0.11059882812499999
vt 0.925820078125 0.1123046875
vt 0.90625 0.11059882812499999
vt 0.90625 0.0595703125
vt 0.917950078125 0.0595703125
vt 0.917950078125 0.1123046875
vt 0.90625 0.1123046875
vt 0.90625 0.10889273437500002
vt 0.9175484375 0.10934953125000002
vt 0.90625 0.1123046875
vt 0.9280784375 0.11053804687500002
vt 0.9280784375 0.1123046875
vt 0.90625 0.11142140624999997
vt 0.90625 0.0595703125
vt 0.917950078125 0.0595703125
vt 0.917950078125 0.1123046875
vt 0.90625 0.1123046875
vt 0.9280784375 0.11053804687500002
vt 0.9280784375 0.1123046875
vt 0.90625 0.11142140624999997
vt 0.90625 0.10889273437500002
vt 0.9175484375 0.10934953125000002
vt 0.90625 0.1123046875
vt 0.90625 0.0595703125
vt 0.917950078125 0.0595703125
vt 0.917950078125 0.1123046875
vt 0.90625 0.1123046875
vt 0.92884875 0.11059882812499999
vt 0.925820078125 0.1123046875
vt 0.90625 0.11059882812499999
vt 0.90625 0.10889249999999995
vt 0.9175475 0.10934976562499998
vt 0.90625 0.1123046875
vt 0.90625 0.0595703125
vt 0.917950078125 0.0595703125
vt 0.917950078125 0.1123046875
vt 0.90625 0.1123046875
vt 0.928846953125 0.11059874999999997
vt 0.925821640625 0.1123046875
vt 0.90625 0.11059874999999997
vt 0.90625 0.10900874999999999
vt 0.917950078125 0.10900874999999999
vt 0.9121 0.1123046875
vt 0.90625 0.0595703125
vt 0.917950078125 0.0595703125
vt 0.917950078125 0.1123046875
vt 0.90625 0.1123046875
vt 0.917950078125 0.1123046875
vt 0.90625 0.1123046875
vt 0.9121 0.10900874999999999
vt 0.90625 0.1123046875
vt 0.909275234375 0.11059874999999997
vt 0.928846953125 0.1123046875
vt 0.90625 0.0595703125
vt 0.917950078125 0.0595703125
vt 0.917950078125 0.1123046875
vt 0.90625 0.1123046875
vt 0.9175475 0.1123046875
vt 0.90625 0.11184734375000005
vt 0.9175475 0.10889249999999995
vt 0.90625 0.1123046875
vt 0.90927875 0.11059882812499999
vt 0.92884875 0.1123046875
vt 0.90625 0.0595703125
vt 0.917950078125 0.0595703125
vt 0.917950078125 0.1123046875
vt 0.90625 0.1123046875
vt 0.9175484375 0.1123046875
vt 0.90625 0.111847890625
vt 0.9175484375 0.10889273437500002
vt 0.90625 0.1123046875
vt 0.90625 0.11053804687500002
vt 0.9280784375 0.11142140624999997
vt 0.90625 0.0595703125
vt 0.917950078125 0.0595703125
vt 0.917950078125 0.1123046875
vt 0.90625 0.1123046875
vt 0.90625 0.1123046875
vt 0.90625 0.11053804687500002
vt 0.9280784375 0.11142140624999997
vt 0.9175484375 0.1123046875
vt 0.90625 0.111847890625
vt 0.9175484375 0.10889273437500002
vt 0.90625 0.0595703125
vt 0.917950078125 0.0595703125
vt 0.917950078125 0.1123046875
vt 0.90625 0.1123046875
vt 0.90625 0.1123046875
vt 0.90927875 0.11059882812499999
vt 0.92884875 0.1123046875
vt 0.9175475 0.1123046875
vt 0.90625 0.11184734375000005
vt 0.9175475 0.10889249999999995
vt 0.90625 0.0595703125
vt 0.917950078125 0.0595703125
vt 0.917950078125 0.1123046875
vt 0.90625 0.1123046875
vt 0.90625 0.1123046875
vt 0.909275234375 0.11059874999999997
vt 0.928846953125 0.1123046875
vt 0.917950078125 0.1123046875
vt 0.90625 0.1123046875
vt 0.9121 0.10900874999999999
vt 0.90625 0.0595703125
vt 0.917950078125 0.0595703125
vt 0.917950078125 0.1123046875
vt 0.90625 0.1123046875
vt 0.90625 0.10900874999999999
vt 0.917950078125 0.10900874999999999
vt 0.9121 0.1123046875
vn 0 -1 0
vn 0.5000325911601272 0 0.8660065864516789
vn 0 1 0
vn 0 -1 0
vn 0.8660065864516789 0 0.5000325911601272
vn 0 1 0
vn 0 -1 0
vn 1 0 0
vn 0 1 0
vn 0 -1 0
vn 0.8660065864516789 0 -0.5000325911601272
vn 0 1 0
vn 0 -1 0
vn 0.5000325911601272 0 -0.8660065864516789
vn 0 1 0
vn 0 -1 0
vn 0 0 -1
vn 0 1 0
vn 0 -1 0
vn -0.5000325911601272 0 -0.8660065864516789
vn 0 1 0
vn 0 -1 0
vn -0.8660065864516789 0 -0.5000325911601272
vn 0 1 0
vn 0 -1 0
vn -1 0 0
vn 0 1 0
vn 0 -1 0
vn -0.8660065864516789 0 0.5000325911601272
vn 0 1 0
vn 0 -1 0
vn -0.5000325911601272 0 0.8660065864516789
vn 0 1 0
vn 0 -1 0
vn 0 0 1
vn 0 1 0
usemtl m_c4285295-d1e0-dcfc-0036-196fac025b3b
f 41/113/29 39/114/29 37/115/29
f 39/116/30 41/117/30 42/118/30 40/119/30
f 40/120/31 42/121/31 38/122/31
f 43/123/32 41/124/32 37/125/32
f 41/126/33 43/127/33 44/128/33 42/129/33
f 42/130/34 44/131/34 38/132/34
f 45/133/35 43/134/35 37/135/35
f 43/136/36 45/137/36 46/138/36 44/139/36
f 44/140/37 46/141/37 38/142/37
f 47/143/38 45/144/38 37/145/38
f 45/146/39 47/147/39 48/148/39 46/149/39
f 46/150/40 48/151/40 38/152/40
f 49/153/41 47/154/41 37/155/41
f 47/156/42 49/157/42 50/158/42 48/159/42
f 48/160/43 50/161/43 38/162/43
f 51/163/44 49/164/44 37/165/44
f 49/166/45 51/167/45 52/168/45 50/169/45
f 50/170/46 52/171/46 38/172/46
f 53/173/47 51/174/47 37/175/47
f 51/176/48 53/177/48 54/178/48 52/179/48
f 52/180/49 54/181/49 38/182/49
f 55/183/50 53/184/50 37/185/50
f 53/186/51 55/187/51 56/188/51 54/189/51
f 54/190/52 56/191/52 38/192/52
f 57/193/53 55/194/53 37/195/53
f 55/196/54 57/197/54 58/198/54 56/199/54
f 56/200/55 58/201/55 38/202/55
f 59/203/56 57/204/56 37/205/56
f 57/206/57 59/207/57 60/208/57 58/209/57
f 58/210/58 60/211/58 38/212/58
f 61/213/59 59/214/59 37/215/59
f 59/216/60 61/217/60 62/218/60 60/219/60
f 60/220/61 62/221/61 38/222/61
f 39/223/62 61/224/62 37/225/62
f 61/226/63 39/227/63 40/228/63 62/229/63
f 62/230/64 40/231/64 38/232/64
o left
v -0.40625 1.84375 0.03125
v -0.40625 1.84375 -0.03125
v -0.40625 1.75 0.03125
v -0.40625 1.75 -0.03125
v -0.46875 1.84375 -0.03125
v -0.46875 1.84375 0.03125
v -0.46875 1.75 -0.03125
v -0.46875 1.75 0.03125
vt 0.8984375 0.0751953125
vt 1 0.0751953125
vt 1 0
vt 0.8984375 0
vt 0.888671875 0.1142578125
vt 0.982421875 0.1142578125
vt 0.982421875 0.0087890625
vt 0.888671875 0.0087890625
vt 0.8984375 0.0751953125
vt 1 0.0751953125
vt 1 0
vt 0.8984375 0
vt 0.888671875 0.1142578125
vt 0.982421875 0.1142578125
vt 0.982421875 0.0087890625
vt 0.888671875 0.0087890625
vt 0.8984375 0.0869140625
vt 1 0.0869140625
vt 1 0.0234375
vt 0.8984375 0.0234375
vt 0.8984375 0.0869140625
vt 1 0.0869140625
vt 1 0.0234375
vt 0.8984375 0.0234375
vn 0 0 -1
vn 1 0 0
vn 0 0 1
vn -1 0 0
vn 0 1 0
vn 0 -1 0
usemtl m_c4285295-d1e0-dcfc-0036-196fac025b3b
f 66/236/65 69/235/65 67/234/65 64/233/65
f 65/240/66 66/239/66 64/238/66 63/237/66
f 70/244/67 65/243/67 63/242/67 68/241/67
f 69/248/68 70/247/68 68/246/68 67/245/68
f 68/252/69 63/251/69 64/250/69 67/249/69
f 69/256/70 66/255/70 65/254/70 70/253/70
o doorLeft
v -0.0390625 1.7109375 0.015625
v -0.0390625 1.7109375 -0.015625
v -0.0390625 0.4140625 0.015625
v -0.0390625 0.4140625 -0.015625
v -0.4375 1.71875 0.015625
v -0.4375 1.71875 -0.015625
v -0.4375 0.40625 0.015625
v -0.4375 0.40625 -0.015625
v -0.03125 1.6875 0.015625
v -0.03125 1.6875 -0.015625
v -0.4375 1.6875 -0.015625
v -0.4375 1.6875 0.015625
v -0.0625 1.71875 0.015625
v -0.0625 1.71875 -0.015625
v -0.0625 1.6875 -0.015625
v -0.0625 0.40625 -0.015625
v -0.0625 0.40625 0.015625
v -0.0625 1.6875 0.015625
v -0.03125 0.4375 0.015625
v -0.03125 0.4375 -0.015625
v -0.0625 0.4375 -0.015625
v -0.4375 0.4375 -0.015625
v -0.4375 0.4375 0.015625
v -0.0625 0.4375 0.015625
vt 0.8483072916666666 0.1640625
vt 0.8483072916666666 0.16585286458333337
vt 0.7632955293525403 0.16585286458333337
vt 0.7632955293525403 0.1640625
vt 0.8483072916666666 0.1640625
vt 0.8483072916666666 0.16585286458333337
vt 0.7632955293525403 0.16585286458333337
vt 0.7632955293525403 0.1640625
vt 0.8457539498141264 0.2392578125
vt 0.8392145834822705 0.2392578125
vt 0.8392145834822705 0.234375
vt 0.8457539498141264 0.234375
vt 0.8457539498141264 0.2392578125
vt 0.8392145834822705 0.2392578125
vt 0.8392145834822705 0.234375
vt 0.8457539498141264 0.234375
vt 0.7060546875 0.05078125
vt 0.7060546875 0.0546875
vt 0.7021484375 0.0546875
vt 0.7021484375 0.05078125
vt 0.7021484375 0.05078125
vt 0.7021484375 0.0546875
vt 0.7060546875 0.0546875
vt 0.7060546875 0.05078125
vt 0.7632955293525403 0.2392578125
vt 0.7632955293525403 0.23746744791666663
vt 0.8483072916666666 0.23746744791666663
vt 0.8483072916666666 0.2392578125
vt 0.7060546875 0.2109375
vt 0.7021484375 0.2109375
vt 0.7021484375 0.21484375
vt 0.7060546875 0.21484375
vt 0.7632955293525403 0.2392578125
vt 0.7632955293525403 0.23746744791666663
vt 0.8483072916666666 0.23746744791666663
vt 0.8483072916666666 0.2392578125
vt 0.7060546875 0.21484375
vt 0.7021484375 0.21484375
vt 0.7021484375 0.2109375
vt 0.7060546875 0.2109375
vt 0.7607421875 0.234375
vt 0.8392145834822705 0.234375
vt 0.8392145834822705 0.2392578125
vt 0.7607421875 0.2392578125
vt 0.6552734375 0.21484375
vt 0.7021484375 0.21484375
vt 0.7021484375 0.2109375
vt 0.6552734375 0.2109375
vt 0.6552734375 0.05078125
vt 0.6552734375 0.0546875
vt 0.7021484375 0.0546875
vt 0.7021484375 0.05078125
vt 0.7607421875 0.234375
vt 0.8392145834822705 0.234375
vt 0.8392145834822705 0.2392578125
vt 0.7607421875 0.2392578125
vt 0.7021484375 0.05078125
vt 0.7021484375 0.0546875
vt 0.6552734375 0.0546875
vt 0.6552734375 0.05078125
vt 0.6552734375 0.2109375
vt 0.7021484375 0.2109375
vt 0.7021484375 0.21484375
vt 0.6552734375 0.21484375
vt 0.7632955293525403 0.23746744791666663
vt 0.7632955293525403 0.16585286458333337
vt 0.8483072916666666 0.16585286458333337
vt 0.8483072916666666 0.23746744791666663
vt 0.7060546875 0.2109375
vt 0.7060546875 0.0546875
vt 0.7021484375 0.0546875
vt 0.7021484375 0.2109375
vt 0.7021484375 0.2109375
vt 0.7021484375 0.0546875
vt 0.6552734375 0.0546875
vt 0.6552734375 0.2109375
vt 0.7632955293525403 0.23746744791666663
vt 0.7632955293525403 0.16585286458333337
vt 0.8483072916666666 0.16585286458333337
vt 0.8483072916666666 0.23746744791666663
vt 0.6552734375 0.2109375
vt 0.6552734375 0.0546875
vt 0.7021484375 0.0546875
vt 0.7021484375 0.2109375
vt 0.7021484375 0.2109375
vt 0.7021484375 0.0546875
vt 0.7060546875 0.0546875
vt 0.7060546875 0.2109375
vn 0.948683298050514 -0.316227766016838 0
vn -1 0 0
vn 0.316227766016838 0.948683298050514 0
vn 0.316227766016838 -0.948683298050514 0
vn 0 0 1
vn 0 0 -1
vn 0.948683298050514 0.316227766016838 0
vn 0 0 -1
vn -1 0 0
vn 0 0 1
vn 0 1 0
vn 0 0 -1
vn 0 0 -1
vn 0 -1 0
vn 0 0 1
vn 0 0 1
vn 1 0 0
vn 0 0 -1
vn 0 0 -1
vn -1 0 0
vn 0 0 1
vn 0 0 1
usemtl m_c4285295-d1e0-dcfc-0036-196fac025b3b
f 74/257/71 90/258/71 89/259/71 73/260/71
f 77/261/72 93/262/72 92/263/72 78/264/72
f 72/265/73 84/266/73 83/267/73 71/268/73
f 73/269/74 87/270/74 86/271/74 74/272/74
f 73/273/75 89/274/75 94/275/75 87/276/75
f 86/277/76 91/278/76 90/279/76 74/280/76
f 71/281/77 79/282/77 80/283/77 72/284/77
f 80/285/78 85/286/78 84/287/78 72/288/78
f 76/289/79 81/290/79 82/291/79 75/292/79
f 71/293/80 83/294/80 88/295/80 79/296/80
f 75/297/81 83/298/81 84/299/81 76/300/81
f 76/301/82 84/302/82 85/303/82 81/304/82
f 78/305/83 92/306/83 91/307/83 86/308/83
f 78/309/84 86/310/84 87/311/84 77/312/84
f 87/313/85 94/314/85 93/315/85 77/316/85
f 82/317/86 88/318/86 83/319/86 75/320/86
f 79/321/87 89/322/87 90/323/87 80/324/87
f 80/325/88 90/326/88 91/327/88 85/328/88
f 85/329/89 91/330/89 92/331/89 81/332/89
f 81/333/90 92/334/90 93/335/90 82/336/90
f 82/337/91 93/338/91 94/339/91 88/340/91
f 88/341/92 94/342/92 89/343/92 79/344/92
o left
v -0.375 1.75 -0.375
v -0.375 1.75 -0.46875
v -0.375 0 -0.375
v -0.375 0 -0.5625
v -0.625 1.75 -0.375
v -0.625 1.75 -0.46875
v -0.625 0 -0.375
v -0.625 0 -0.5625
vt 0.9150390625 0.013671875
vt 0.9150390625 0.09997554687499999
vt 0.8828125 0.09997554687499999
vt 0.8828125 0.013671875
vt 0.96875 0.013671875
vt 0.96875 0.09997554687499999
vt 0.9365234375 0.09997554687499999
vt 0.9365234375 0.013671875
vt 0.904296875 0.013671875
vt 0.904296875 0.05065914062499999
vt 0.8828125 0.05065914062499999
vt 0.8828125 0.013671875
vt 0.904296875 0.07531734374999999
vt 0.904296875 0.1123046875
vt 0.8828125 0.1123046875
vt 0.8828125 0.07531734374999999
vt 0.904296875 0.013671875
vt 0.904296875 0.09997554687499999
vt 0.8828125 0.09997554687499999
vt 0.8828125 0.013671875
vt 0.904296875 0.013671875
vt 0.904296875 0.09997554687499999
vt 0.8828125 0.09997554687499999
vt 0.8828125 0.013671875
vn 1 0 0
vn -1 0 0
vn 0 1 0
vn 0 -1 0
vn 0 0 1
vn 0 0.05349472137161191 -0.998568132270089
usemtl m_c4285295-d1e0-dcfc-0036-196fac025b3b
f 98/345/93 96/346/93 95/347/93 97/348/93
f 101/349/94 99/350/94 100/351/94 102/352/94
f 95/353/95 96/354/95 100/355/95 99/356/95
f 98/357/96 97/358/96 101/359/96 102/360/96
f 97/361/97 95/362/97 99/363/97 101/364/97
f 102/365/98 100/366/98 96/367/98 98/368/98
o left
v 0.625 1.75 -0.375
v 0.625 1.75 -0.46875
v 0.625 0 -0.375
v 0.625 0 -0.5625
v 0.375 1.75 -0.375
v 0.375 1.75 -0.46875
v 0.375 0 -0.375
v 0.375 0 -0.5625
vt 0.9150390625 0.013671875
vt 0.9150390625 0.09997554687499999
vt 0.8828125 0.09997554687499999
vt 0.8828125 0.013671875
vt 0.96875 0.013671875
vt 0.96875 0.09997554687499999
vt 0.9365234375 0.09997554687499999
vt 0.9365234375 0.013671875
vt 0.904296875 0.013671875
vt 0.904296875 0.05065914062499999
vt 0.8828125 0.05065914062499999
vt 0.8828125 0.013671875
vt 0.904296875 0.07531734374999999
vt 0.904296875 0.1123046875
vt 0.8828125 0.1123046875
vt 0.8828125 0.07531734374999999
vt 0.904296875 0.013671875
vt 0.904296875 0.09997554687499999
vt 0.8828125 0.09997554687499999
vt 0.8828125 0.013671875
vt 0.904296875 0.013671875
vt 0.904296875 0.09997554687499999
vt 0.8828125 0.09997554687499999
vt 0.8828125 0.013671875
vn 1 0 0
vn -1 0 0
vn 0 1 0
vn 0 -1 0
vn 0 0 1
vn 0 0.05349472137161191 -0.998568132270089
usemtl m_c4285295-d1e0-dcfc-0036-196fac025b3b
f 106/369/99 104/370/99 103/371/99 105/372/99
f 109/373/100 107/374/100 108/375/100 110/376/100
f 103/377/101 104/378/101 108/379/101 107/380/101
f 106/381/102 105/382/102 109/383/102 110/384/102
f 105/385/103 103/386/103 107/387/103 109/388/103
f 110/389/104 108/390/104 104/391/104 106/392/104
o left
v 0.625 0.875 -0.515625
v 0.625 0.796875 -0.9375
v 0.625 0 -0.5625
v 0.625 0 -0.875
v 0.375 0.875 -0.515625
v 0.375 0.796875 -0.9375
v 0.375 0 -0.5625
v 0.375 0 -0.875
v 0.625 0.8154646064324059 -0.9174889065812599
v 0.625 0 -0.8601769678379703
v 0.375 0 -0.8601769678379703
v 0.375 0.8154646064324059 -0.9174889065812599
vt 0.8828125 0.013671875
vt 0.9135104373082907 0.013671875
vt 0.9135104373082907 0.09997554687499999
vt 0.8828125 0.09997554687499999
vt 0.96875 0.09997554687499999
vt 0.9380520626917093 0.09997554687499999
vt 0.9380520626917093 0.013671875
vt 0.96875 0.013671875
vt 0.904296875 0.013671875
vt 0.904296875 0.04890469765557626
vt 0.8828125 0.04890469765557626
vt 0.8828125 0.013671875
vt 0.8828125 0.1123046875
vt 0.8828125 0.07707179042518175
vt 0.904296875 0.07707179042518175
vt 0.904296875 0.1123046875
vt 0.904296875 0.013671875
vt 0.904296875 0.09997554687499999
vt 0.8828125 0.09997554687499999
vt 0.8828125 0.013671875
vt 0.904296875 0.013671875
vt 0.904296875 0.09997554687499999
vt 0.8828125 0.09997554687499999
vt 0.8828125 0.013671875
vt 0.9150390625 0.09997554687499999
vt 0.9135104373082907 0.09997554687499999
vt 0.9135104373082907 0.013671875
vt 0.9150390625 0.013671875
vt 0.904296875 0.07531734374999999
vt 0.904296875 0.07707179042518175
vt 0.8828125 0.07707179042518175
vt 0.8828125 0.07531734374999999
vt 0.9365234375 0.013671875
vt 0.9380520626917093 0.013671875
vt 0.9380520626917093 0.09997554687499999
vt 0.9365234375 0.09997554687499999
vt 0.8828125 0.05065914062499999
vt 0.8828125 0.04890469765557626
vt 0.904296875 0.04890469765557626
vt 0.904296875 0.05065914062499999
vn 1 0 0
vn -1 0 0
vn 0 0.9892034623538708 -0.14654866108946238
vn 0 -1 0
vn 0 -0.05349472137161191 0.998568132270089
vn 0 -0.07819124531863149 -0.9969383778125515
vn 1 0 0
vn 0 -1 0
vn -1 0 0
vn 0 0.7326496763843674 -0.6806059445037794
usemtl m_c4285295-d1e0-dcfc-0036-196fac025b3b
f 113/393/105 120/394/105 119/395/105 111/396/105
f 115/397/106 122/398/106 121/399/106 117/400/106
f 111/401/107 119/402/107 122/403/107 115/404/107
f 117/405/108 121/406/108 120/407/108 113/408/108
f 113/409/109 111/410/109 115/411/109 117/412/109
f 118/413/110 116/414/110 112/415/110 114/416/110
f 112/417/111 119/418/111 120/419/111 114/420/111
f 114/421/112 120/422/112 121/423/112 118/424/112
f 118/425/113 121/426/113 122/427/113 116/428/113
f 116/429/114 122/430/114 119/431/114 112/432/114
o left
v 0.37500000000000006 0.875 0.515625
v 0.3750000000000001 0.796875 0.9375
v 0.37500000000000006 0 0.5625
v 0.3750000000000001 0 0.875
v 0.6250000000000001 0.875 0.5156249999999999
v 0.6250000000000001 0.796875 0.9374999999999999
v 0.6250000000000001 0 0.5624999999999999
v 0.6250000000000001 0 0.8749999999999999
v 0.3750000000000001 0.8154646064324059 0.9174889065812599
v 0.3750000000000001 0 0.8601769678379703
v 0.6250000000000001 0 0.8601769678379702
v 0.6250000000000001 0.8154646064324059 0.9174889065812598
vt 0.8828125 0.013671875
vt 0.9135104373082907 0.013671875
vt 0.9135104373082907 0.09997554687499999
vt 0.8828125 0.09997554687499999
vt 0.96875 0.09997554687499999
vt 0.9380520626917093 0.09997554687499999
vt 0.9380520626917093 0.013671875
vt 0.96875 0.013671875
vt 0.904296875 0.013671875
vt 0.904296875 0.04890469765557626
vt 0.8828125 0.04890469765557626
vt 0.8828125 0.013671875
vt 0.8828125 0.1123046875
vt 0.8828125 0.07707179042518175
vt 0.904296875 0.07707179042518175
vt 0.904296875 0.1123046875
vt 0.904296875 0.013671875
vt 0.904296875 0.09997554687499999
vt 0.8828125 0.09997554687499999
vt 0.8828125 0.013671875
vt 0.904296875 0.013671875
vt 0.904296875 0.09997554687499999
vt 0.8828125 0.09997554687499999
vt 0.8828125 0.013671875
vt 0.9150390625 0.09997554687499999
vt 0.9135104373082907 0.09997554687499999
vt 0.9135104373082907 0.013671875
vt 0.9150390625 0.013671875
vt 0.904296875 0.07531734374999999
vt 0.904296875 0.07707179042518175
vt 0.8828125 0.07707179042518175
vt 0.8828125 0.07531734374999999
vt 0.9365234375 0.013671875
vt 0.9380520626917093 0.013671875
vt 0.9380520626917093 0.09997554687499999
vt 0.9365234375 0.09997554687499999
vt 0.8828125 0.05065914062499999
vt 0.8828125 0.04890469765557626
vt 0.904296875 0.04890469765557626
vt 0.904296875 0.05065914062499999
vn -1 0 1.2246467991473532e-16
vn 1 0 -1.2246467991473532e-16
vn 1.7947034872254036e-17 0.9892034623538708 0.14654866108946238
vn 0 -1 0
vn -1.2228932669151153e-16 -0.05349472137161191 -0.998568132270089
vn 1.2208973933352958e-16 -0.07819124531863149 0.9969383778125515
vn -1 0 1.2246467991473532e-16
vn 0 -1 0
vn 1 0 -1.2246467991473532e-16
vn 8.335018914172146e-17 0.7326496763843674 0.6806059445037794
usemtl m_c4285295-d1e0-dcfc-0036-196fac025b3b
f 125/433/115 132/434/115 131/435/115 123/436/115
f 127/437/116 134/438/116 133/439/116 129/440/116
f 123/441/117 131/442/117 134/443/117 127/444/117
f 129/445/118 133/446/118 132/447/118 125/448/118
f 125/449/119 123/450/119 127/451/119 129/452/119
f 130/453/120 128/454/120 124/455/120 126/456/120
f 124/457/121 131/458/121 132/459/121 126/460/121
f 126/461/122 132/462/122 133/463/122 130/464/122
f 130/465/123 133/466/123 134/467/123 128/468/123
f 128/469/124 134/470/124 131/471/124 124/472/124
o left
v 0.37500000000000006 1.75 0.37499999999999994
v 0.37500000000000006 1.75 0.46874999999999994
v 0.37500000000000006 0 0.37499999999999994
v 0.37500000000000006 0 0.5625
v 0.625 1.75 0.37499999999999994
v 0.6250000000000001 1.75 0.46874999999999994
v 0.625 0 0.37499999999999994
v 0.6250000000000001 0 0.5624999999999999
vt 0.9150390625 0.013671875
vt 0.9150390625 0.09997554687499999
vt 0.8828125 0.09997554687499999
vt 0.8828125 0.013671875
vt 0.96875 0.013671875
vt 0.96875 0.09997554687499999
vt 0.9365234375 0.09997554687499999
vt 0.9365234375 0.013671875
vt 0.904296875 0.013671875
vt 0.904296875 0.05065914062499999
vt 0.8828125 0.05065914062499999
vt 0.8828125 0.013671875
vt 0.904296875 0.07531734374999999
vt 0.904296875 0.1123046875
vt 0.8828125 0.1123046875
vt 0.8828125 0.07531734374999999
vt 0.904296875 0.013671875
vt 0.904296875 0.09997554687499999
vt 0.8828125 0.09997554687499999
vt 0.8828125 0.013671875
vt 0.904296875 0.013671875
vt 0.904296875 0.09997554687499999
vt 0.8828125 0.09997554687499999
vt 0.8828125 0.013671875
vn -1 0 1.2246467991473532e-16
vn 1 0 -1.2246467991473532e-16
vn 0 1 0
vn 0 -1 0
vn -1.2246467991473532e-16 0 -1
vn 1.2228932669151153e-16 0.05349472137161191 0.998568132270089
usemtl m_c4285295-d1e0-dcfc-0036-196fac025b3b
f 138/473/125 136/474/125 135/475/125 137/476/125
f 141/477/126 139/478/126 140/479/126 142/480/126
f 135/481/127 136/482/127 140/483/127 139/484/127
f 138/485/128 137/486/128 141/487/128 142/488/128
f 137/489/129 135/490/129 139/491/129 141/492/129
f 142/493/130 140/494/130 136/495/130 138/496/130
o left
v -0.6249999999999999 0.875 0.5156250000000001
v -0.6249999999999999 0.796875 0.9375000000000001
v -0.6249999999999999 0 0.5625000000000001
v -0.6249999999999999 0 0.8750000000000001
v -0.37499999999999994 0.875 0.515625
v -0.3749999999999999 0.796875 0.9375
v -0.37499999999999994 0 0.5625
v -0.3749999999999999 0 0.875
v -0.6249999999999999 0.8154646064324059 0.91748890658126
v -0.6249999999999999 0 0.8601769678379704
v -0.3749999999999999 0 0.8601769678379703
v -0.3749999999999999 0.8154646064324059 0.9174889065812599
vt 0.8828125 0.013671875
vt 0.9135104373082907 0.013671875
vt 0.9135104373082907 0.09997554687499999
vt 0.8828125 0.09997554687499999
vt 0.96875 0.09997554687499999
vt 0.9380520626917093 0.09997554687499999
vt 0.9380520626917093 0.013671875
vt 0.96875 0.013671875
vt 0.904296875 0.013671875
vt 0.904296875 0.04890469765557626
vt 0.8828125 0.04890469765557626
vt 0.8828125 0.013671875
vt 0.8828125 0.1123046875
vt 0.8828125 0.07707179042518175
vt 0.904296875 0.07707179042518175
vt 0.904296875 0.1123046875
vt 0.904296875 0.013671875
vt 0.904296875 0.09997554687499999
vt 0.8828125 0.09997554687499999
vt 0.8828125 0.013671875
vt 0.904296875 0.013671875
vt 0.904296875 0.09997554687499999
vt 0.8828125 0.09997554687499999
vt 0.8828125 0.013671875
vt 0.9150390625 0.09997554687499999
vt 0.9135104373082907 0.09997554687499999
vt 0.9135104373082907 0.013671875
vt 0.9150390625 0.013671875
vt 0.904296875 0.07531734374999999
vt 0.904296875 0.07707179042518175
vt 0.8828125 0.07707179042518175
vt 0.8828125 0.07531734374999999
vt 0.9365234375 0.013671875
vt 0.9380520626917093 0.013671875
vt 0.9380520626917093 0.09997554687499999
vt 0.9365234375 0.09997554687499999
vt 0.8828125 0.05065914062499999
vt 0.8828125 0.04890469765557626
vt 0.904296875 0.04890469765557626
vt 0.904296875 0.05065914062499999
vn -1 0 1.2246467991473532e-16
vn 1 0 -1.2246467991473532e-16
vn 1.7947034872254036e-17 0.9892034623538708 0.14654866108946238
vn 0 -1 0
vn -1.2228932669151153e-16 -0.05349472137161191 -0.998568132270089
vn 1.2208973933352958e-16 -0.07819124531863149 0.9969383778125515
vn -1 0 1.2246467991473532e-16
vn 0 -1 0
vn 1 0 -1.2246467991473532e-16
vn 8.335018914172146e-17 0.7326496763843674 0.6806059445037794
usemtl m_c4285295-d1e0-dcfc-0036-196fac025b3b
f 145/497/131 152/498/131 151/499/131 143/500/131
f 147/501/132 154/502/132 153/503/132 149/504/132
f 143/505/133 151/506/133 154/507/133 147/508/133
f 149/509/134 153/510/134 152/511/134 145/512/134
f 145/513/135 143/514/135 147/515/135 149/516/135
f 150/517/136 148/518/136 144/519/136 146/520/136
f 144/521/137 151/522/137 152/523/137 146/524/137
f 146/525/138 152/526/138 153/527/138 150/528/138
f 150/529/139 153/530/139 154/531/139 148/532/139
f 148/533/140 154/534/140 151/535/140 144/536/140
o left
v -0.625 1.75 0.37500000000000006
v -0.6249999999999999 1.75 0.46875000000000006
v -0.625 0 0.37500000000000006
v -0.6249999999999999 0 0.5625000000000001
v -0.37499999999999994 1.75 0.37500000000000006
v -0.37499999999999994 1.75 0.46875000000000006
v -0.37499999999999994 0 0.37500000000000006
v -0.37499999999999994 0 0.5625
vt 0.9150390625 0.013671875
vt 0.9150390625 0.09997554687499999
vt 0.8828125 0.09997554687499999
vt 0.8828125 0.013671875
vt 0.96875 0.013671875
vt 0.96875 0.09997554687499999
vt 0.9365234375 0.09997554687499999
vt 0.9365234375 0.013671875
vt 0.904296875 0.013671875
vt 0.904296875 0.05065914062499999
vt 0.8828125 0.05065914062499999
vt 0.8828125 0.013671875
vt 0.904296875 0.07531734374999999
vt 0.904296875 0.1123046875
vt 0.8828125 0.1123046875
vt 0.8828125 0.07531734374999999
vt 0.904296875 0.013671875
vt 0.904296875 0.09997554687499999
vt 0.8828125 0.09997554687499999
vt 0.8828125 0.013671875
vt 0.904296875 0.013671875
vt 0.904296875 0.09997554687499999
vt 0.8828125 0.09997554687499999
vt 0.8828125 0.013671875
vn -1 0 1.2246467991473532e-16
vn 1 0 -1.2246467991473532e-16
vn 0 1 0
vn 0 -1 0
vn -1.2246467991473532e-16 0 -1
vn 1.2228932669151153e-16 0.05349472137161191 0.998568132270089
usemtl m_c4285295-d1e0-dcfc-0036-196fac025b3b
f 158/537/141 156/538/141 155/539/141 157/540/141
f 161/541/142 159/542/142 160/543/142 162/544/142
f 155/545/143 156/546/143 160/547/143 159/548/143
f 158/549/144 157/550/144 161/551/144 162/552/144
f 157/553/145 155/554/145 159/555/145 161/556/145
f 162/557/146 160/558/146 156/559/146 158/560/146
o cube
v 0.609375 0.9189476384613338 0.8659444588472226
v 0.609375 0.9893400731063522 0.587431564513656
v 0.609375 0.8258058841649857 0.8572461400372186
v 0.609375 0.864948318810004 0.5787332457036518
v 0.390625 0.8876976384613338 0.8659444588472226
v 0.390625 0.9580900731063522 0.587431564513656
v 0.390625 0.8258058841649857 0.8572461400372186
v 0.390625 0.864948318810004 0.5787332457036518
vt 0.947265625 0.3349609375
vt 0.947265625 0.3427734375
vt 0.912109375 0.3427734375
vt 0.912109375 0.3349609375
vt 0.943359375 0.3349609375
vt 0.943359375 0.3427734375
vt 0.908203125 0.3427734375
vt 0.908203125 0.3349609375
vt 0.935546875 0.3154296875
vt 0.935546875 0.3505859375
vt 0.908203125 0.3505859375
vt 0.908203125 0.3154296875
vt 0.935546875 0.302734375
vt 0.935546875 0.337890625
vt 0.908203125 0.337890625
vt 0.908203125 0.302734375
vt 0.935546875 0.3349609375
vt 0.935546875 0.3427734375
vt 0.908203125 0.3427734375
vt 0.908203125 0.3349609375
vt 0.9375 0.3349609375
vt 0.9375 0.3427734375
vt 0.91015625 0.3427734375
vt 0.91015625 0.3349609375
vn 1 0 0
vn -1 0 0
vn -0.13719229023561344 0.9603460316492941 0.2427215997709315
vn 0 -0.9902680687415704 -0.13917310096006544
vn 0.01328216765877924 -0.09297517361145535 0.9955798316128164
vn -0.013282167658779329 0.09297517361145506 -0.9955798316128166
usemtl m_c4285295-d1e0-dcfc-0036-196fac025b3b
f 166/561/147 164/562/147 163/563/147 165/564/147
f 169/565/148 167/566/148 168/567/148 170/568/148
f 163/569/149 164/570/149 168/571/149 167/572/149
f 166/573/150 165/574/150 169/575/150 170/576/150
f 165/577/151 163/578/151 167/579/151 169/580/151
f 170/581/152 168/582/152 164/583/152 166/584/152
o doorLeft
v 0.0390625 1.7109375 -0.015625000000000003
v 0.0390625 1.7109375 0.015624999999999995
v 0.0390625 0.4140625 -0.015625000000000003
v 0.0390625 0.4140625 0.015624999999999995
v 0.4375 1.71875 -0.015625000000000052
v 0.4375 1.71875 0.015624999999999946
v 0.4375 0.40625 -0.015625000000000052
v 0.4375 0.40625 0.015624999999999946
v 0.031249999999999997 1.6875 -0.015625000000000003
v 0.03125 1.6875 0.015624999999999997
v 0.4375 1.6875 0.015624999999999946
v 0.4375 1.6875 -0.015625000000000052
v 0.0625 1.71875 -0.015625000000000007
v 0.0625 1.71875 0.015624999999999993
v 0.0625 1.6875 0.015624999999999993
v 0.0625 0.40625 0.015624999999999993
v 0.0625 0.40625 -0.015625000000000007
v 0.0625 1.6875 -0.015625000000000007
v 0.031249999999999997 0.4375 -0.015625000000000003
v 0.03125 0.4375 0.015624999999999997
v 0.0625 0.4375 0.015624999999999993
v 0.4375 0.4375 0.015624999999999946
v 0.4375 0.4375 -0.015625000000000052
v 0.0625 0.4375 -0.015625000000000007
vt 0.8483072916666666 0.1640625
vt 0.8483072916666666 0.16585286458333337
vt 0.7632955293525403 0.16585286458333337
vt 0.7632955293525403 0.1640625
vt 0.8483072916666666 0.1640625
vt 0.8483072916666666 0.16585286458333337
vt 0.7632955293525403 0.16585286458333337
vt 0.7632955293525403 0.1640625
vt 0.8457539498141264 0.2392578125
vt 0.8392145834822705 0.2392578125
vt 0.8392145834822705 0.234375
vt 0.8457539498141264 0.234375
vt 0.8457539498141264 0.2392578125
vt 0.8392145834822705 0.2392578125
vt 0.8392145834822705 0.234375
vt 0.8457539498141264 0.234375
vt 0.7060546875 0.05078125
vt 0.7060546875 0.0546875
vt 0.7021484375 0.0546875
vt 0.7021484375 0.05078125
vt 0.7021484375 0.05078125
vt 0.7021484375 0.0546875
vt 0.7060546875 0.0546875
vt 0.7060546875 0.05078125
vt 0.7632955293525403 0.2392578125
vt 0.7632955293525403 0.23746744791666663
vt 0.8483072916666666 0.23746744791666663
vt 0.8483072916666666 0.2392578125
vt 0.7060546875 0.2109375
vt 0.7021484375 0.2109375
vt 0.7021484375 0.21484375
vt 0.7060546875 0.21484375
vt 0.7632955293525403 0.2392578125
vt 0.7632955293525403 0.23746744791666663
vt 0.8483072916666666 0.23746744791666663
vt 0.8483072916666666 0.2392578125
vt 0.7060546875 0.21484375
vt 0.7021484375 0.21484375
vt 0.7021484375 0.2109375
vt 0.7060546875 0.2109375
vt 0.7607421875 0.234375
vt 0.8392145834822705 0.234375
vt 0.8392145834822705 0.2392578125
vt 0.7607421875 0.2392578125
vt 0.6552734375 0.21484375
vt 0.7021484375 0.21484375
vt 0.7021484375 0.2109375
vt 0.6552734375 0.2109375
vt 0.6552734375 0.05078125
vt 0.6552734375 0.0546875
vt 0.7021484375 0.0546875
vt 0.7021484375 0.05078125
vt 0.7607421875 0.234375
vt 0.8392145834822705 0.234375
vt 0.8392145834822705 0.2392578125
vt 0.7607421875 0.2392578125
vt 0.7021484375 0.05078125
vt 0.7021484375 0.0546875
vt 0.6552734375 0.0546875
vt 0.6552734375 0.05078125
vt 0.6552734375 0.2109375
vt 0.7021484375 0.2109375
vt 0.7021484375 0.21484375
vt 0.6552734375 0.21484375
vt 0.7632955293525403 0.23746744791666663
vt 0.7632955293525403 0.16585286458333337
vt 0.8483072916666666 0.16585286458333337
vt 0.8483072916666666 0.23746744791666663
vt 0.7060546875 0.2109375
vt 0.7060546875 0.0546875
vt 0.7021484375 0.0546875
vt 0.7021484375 0.2109375
vt 0.7021484375 0.2109375
vt 0.7021484375 0.0546875
vt 0.6552734375 0.0546875
vt 0.6552734375 0.2109375
vt 0.7632955293525403 0.23746744791666663
vt 0.7632955293525403 0.16585286458333337
vt 0.8483072916666666 0.16585286458333337
vt 0.8483072916666666 0.23746744791666663
vt 0.6552734375 0.2109375
vt 0.6552734375 0.0546875
vt 0.7021484375 0.0546875
vt 0.7021484375 0.2109375
vt 0.7021484375 0.2109375
vt 0.7021484375 0.0546875
vt 0.7060546875 0.0546875
vt 0.7060546875 0.2109375
vn -0.948683298050514 -0.316227766016838 1.1618019643621164e-16
vn 1 0 -1.2246467991473532e-16
vn -0.316227766016838 0.948683298050514 3.872673214540388e-17
vn -0.316227766016838 -0.948683298050514 3.872673214540388e-17
vn -1.2246467991473532e-16 0 -1
vn 1.2246467991473532e-16 0 1
vn -0.948683298050514 0.316227766016838 1.1618019643621164e-16
vn 1.2246467991473532e-16 0 1
vn 1 0 -1.2246467991473532e-16
vn -1.2246467991473532e-16 0 -1
vn 0 1 0
vn 1.2246467991473532e-16 0 1
vn 1.2246467991473532e-16 0 1
vn 0 -1 0
vn -1.2246467991473532e-16 0 -1
vn -1.2246467991473532e-16 0 -1
vn -1 0 1.2246467991473532e-16
vn 1.2246467991473532e-16 0 1
vn 1.2246467991473532e-16 0 1
vn 1 0 -1.2246467991473532e-16
vn -1.2246467991473532e-16 0 -1
vn -1.2246467991473532e-16 0 -1
usemtl m_c4285295-d1e0-dcfc-0036-196fac025b3b
f 174/585/153 190/586/153 189/587/153 173/588/153
f 177/589/154 193/590/154 192/591/154 178/592/154
f 172/593/155 184/594/155 183/595/155 171/596/155
f 173/597/156 187/598/156 186/599/156 174/600/156
f 173/601/157 189/602/157 194/603/157 187/604/157
f 186/605/158 191/606/158 190/607/158 174/608/158
f 171/609/159 179/610/159 180/611/159 172/612/159
f 180/613/160 185/614/160 184/615/160 172/616/160
f 176/617/161 181/618/161 182/619/161 175/620/161
f 171/621/162 183/622/162 188/623/162 179/624/162
f 175/625/163 183/626/163 184/627/163 176/628/163
f 176/629/164 184/630/164 185/631/164 181/632/164
f 178/633/165 192/634/165 191/635/165 186/636/165
f 178/637/166 186/638/166 187/639/166 177/640/166
f 187/641/167 194/642/167 193/643/167 177/644/167
f 182/645/168 188/646/168 183/647/168 175/648/168
f 179/649/169 189/650/169 190/651/169 180/652/169
f 180/653/170 190/654/170 191/655/170 185/656/170
f 185/657/171 191/658/171 192/659/171 181/660/171
f 181/661/172 192/662/172 193/663/172 182/664/172
f 182/665/173 193/666/173 194/667/173 188/668/173
f 188/669/174 194/670/174 189/671/174 179/672/174
o left
v 0.40625 1.84375 -0.03125000000000005
v 0.40625 1.84375 0.03124999999999995
v 0.40625 1.75 -0.03125000000000005
v 0.40625 1.75 0.03124999999999995
v 0.46875 1.84375 0.03124999999999994
v 0.46875 1.84375 -0.031250000000000056
v 0.46875 1.75 0.03124999999999994
v 0.46875 1.75 -0.031250000000000056
vt 0.8984375 0.0751953125
vt 1 0.0751953125
vt 1 0
vt 0.8984375 0
vt 0.888671875 0.1142578125
vt 0.982421875 0.1142578125
vt 0.982421875 0.0087890625
vt 0.888671875 0.0087890625
vt 0.8984375 0.0751953125
vt 1 0.0751953125
vt 1 0
vt 0.8984375 0
vt 0.888671875 0.1142578125
vt 0.982421875 0.1142578125
vt 0.982421875 0.0087890625
vt 0.888671875 0.0087890625
vt 0.8984375 0.0869140625
vt 1 0.0869140625
vt 1 0.0234375
vt 0.8984375 0.0234375
vt 0.8984375 0.0869140625
vt 1 0.0869140625
vt 1 0.0234375
vt 0.8984375 0.0234375
vn 1.2246467991473532e-16 0 1
vn -1 0 1.2246467991473532e-16
vn -1.2246467991473532e-16 0 -1
vn 1 0 -1.2246467991473532e-16
vn 0 1 0
vn 0 -1 0
usemtl m_c4285295-d1e0-dcfc-0036-196fac025b3b
f 198/676/175 201/675/175 199/674/175 196/673/175
f 197/680/176 198/679/176 196/678/176 195/677/176
f 202/684/177 197/683/177 195/682/177 200/681/177
f 201/688/178 202/687/178 200/686/178 199/685/178
f 200/692/179 195/691/179 196/690/179 199/689/179
f 201/696/180 198/695/180 197/694/180 202/693/180
o right
v 0.4375 0.375 -5.35782974626967e-17
v 0.4375 1.75 -5.35782974626967e-17
v 0.42912625 0.375 -0.031250000000000056
v 0.42912625 1.75 -0.031250000000000056
v 0.41462375 0.375 -0.022876250000000053
v 0.41462375 1.75 -0.022876250000000053
v 0.40625 0.375 -0.00837375000000005
v 0.40625 1.75 -0.00837375000000005
v 0.40625 0.375 0.008373749999999949
v 0.40625 1.75 0.008373749999999949
v 0.41462375 0.375 0.02287624999999995
v 0.41462375 1.75 0.02287624999999995
v 0.42912625 0.375 0.031249999999999948
v 0.42912625 1.75 0.031249999999999948
v 0.44587375 0.375 0.031249999999999944
v 0.44587375 1.75 0.031249999999999944
v 0.46037625 0.375 0.022876249999999945
v 0.46037625 1.75 0.022876249999999945
v 0.46875 0.375 0.008373749999999942
v 0.46875 1.75 0.008373749999999942
v 0.46875 0.375 -0.008373750000000056
v 0.46875 1.75 -0.008373750000000056
v 0.46037625 0.375 -0.022876250000000056
v 0.46037625 1.75 -0.022876250000000056
v 0.44587375 0.375 -0.031250000000000056
v 0.44587375 1.75 -0.031250000000000056
vt 0.928846953125 0.11059874999999997
vt 0.925821640625 0.1123046875
vt 0.90625 0.11059874999999997
vt 0.90625 0.0595703125
vt 0.917950078125 0.0595703125
vt 0.917950078125 0.1123046875
vt 0.90625 0.1123046875
vt 0.90625 0.10889249999999995
vt 0.9175475 0.10934976562499998
vt 0.90625 0.1123046875
vt 0.92884875 0.11059882812499999
vt 0.925820078125 0.1123046875
vt 0.90625 0.11059882812499999
vt 0.90625 0.0595703125
vt 0.917950078125 0.0595703125
vt 0.917950078125 0.1123046875
vt 0.90625 0.1123046875
vt 0.90625 0.10889273437500002
vt 0.9175484375 0.10934953125000002
vt 0.90625 0.1123046875
vt 0.9280784375 0.11053804687500002
vt 0.9280784375 0.1123046875
vt 0.90625 0.11142140624999997
vt 0.90625 0.0595703125
vt 0.917950078125 0.0595703125
vt 0.917950078125 0.1123046875
vt 0.90625 0.1123046875
vt 0.9280784375 0.11053804687500002
vt 0.9280784375 0.1123046875
vt 0.90625 0.11142140624999997
vt 0.90625 0.10889273437500002
vt 0.9175484375 0.10934953125000002
vt 0.90625 0.1123046875
vt 0.90625 0.0595703125
vt 0.917950078125 0.0595703125
vt 0.917950078125 0.1123046875
vt 0.90625 0.1123046875
vt 0.92884875 0.11059882812499999
vt 0.925820078125 0.1123046875
vt 0.90625 0.11059882812499999
vt 0.90625 0.10889249999999995
vt 0.9175475 0.10934976562499998
vt 0.90625 0.1123046875
vt 0.90625 0.0595703125
vt 0.917950078125 0.0595703125
vt 0.917950078125 0.1123046875
vt 0.90625 0.1123046875
vt 0.928846953125 0.11059874999999997
vt 0.925821640625 0.1123046875
vt 0.90625 0.11059874999999997
vt 0.90625 0.10900874999999999
vt 0.917950078125 0.10900874999999999
vt 0.9121 0.1123046875
vt 0.90625 0.0595703125
vt 0.917950078125 0.0595703125
vt 0.917950078125 0.1123046875
vt 0.90625 0.1123046875
vt 0.917950078125 0.1123046875
vt 0.90625 0.1123046875
vt 0.9121 0.10900874999999999
vt 0.90625 0.1123046875
vt 0.909275234375 0.11059874999999997
vt 0.928846953125 0.1123046875
vt 0.90625 0.0595703125
vt 0.917950078125 0.0595703125
vt 0.917950078125 0.1123046875
vt 0.90625 0.1123046875
vt 0.9175475 0.1123046875
vt 0.90625 0.11184734375000005
vt 0.9175475 0.10889249999999995
vt 0.90625 0.1123046875
vt 0.90927875 0.11059882812499999
vt 0.92884875 0.1123046875
vt 0.90625 0.0595703125
vt 0.917950078125 0.0595703125
vt 0.917950078125 0.1123046875
vt 0.90625 0.1123046875
vt 0.9175484375 0.1123046875
vt 0.90625 0.111847890625
vt 0.9175484375 0.10889273437500002
vt 0.90625 0.1123046875
vt 0.90625 0.11053804687500002
vt 0.9280784375 0.11142140624999997
vt 0.90625 0.0595703125
vt 0.917950078125 0.0595703125
vt 0.917950078125 0.1123046875
vt 0.90625 0.1123046875
vt 0.90625 0.1123046875
vt 0.90625 0.11053804687500002
vt 0.9280784375 0.11142140624999997
vt 0.9175484375 0.1123046875
vt 0.90625 0.111847890625
vt 0.9175484375 0.10889273437500002
vt 0.90625 0.0595703125
vt 0.917950078125 0.0595703125
vt 0.917950078125 0.1123046875
vt 0.90625 0.1123046875
vt 0.90625 0.1123046875
vt 0.90927875 0.11059882812499999
vt 0.92884875 0.1123046875
vt 0.9175475 0.1123046875
vt 0.90625 0.11184734375000005
vt 0.9175475 0.10889249999999995
vt 0.90625 0.0595703125
vt 0.917950078125 0.0595703125
vt 0.917950078125 0.1123046875
vt 0.90625 0.1123046875
vt 0.90625 0.1123046875
vt 0.909275234375 0.11059874999999997
vt 0.928846953125 0.1123046875
vt 0.917950078125 0.1123046875
vt 0.90625 0.1123046875
vt 0.9121 0.10900874999999999
vt 0.90625 0.0595703125
vt 0.917950078125 0.0595703125
vt 0.917950078125 0.1123046875
vt 0.90625 0.1123046875
vt 0.90625 0.10900874999999999
vt 0.917950078125 0.10900874999999999
vt 0.9121 0.1123046875
vn 0 -1 0
vn -0.5000325911601281 0 -0.8660065864516785
vn 0 1 0
vn 0 -1 0
vn -0.8660065864516786 0 -0.5000325911601277
vn 0 1 0
vn 0 -1 0
vn -1 0 1.2246467991473532e-16
vn 0 1 0
vn 0 -1 0
vn -0.8660065864516784 0 0.5000325911601279
vn 0 1 0
vn 0 -1 0
vn -0.5000325911601278 0 0.8660065864516785
vn 0 1 0
vn 0 -1 0
vn 1.2246467991473532e-16 0 1
vn 0 1 0
vn 0 -1 0
vn 0.5000325911601281 0 0.8660065864516785
vn 0 1 0
vn 0 -1 0
vn 0.8660065864516786 0 0.5000325911601277
vn 0 1 0
vn 0 -1 0
vn 1 0 -1.2246467991473532e-16
vn 0 1 0
vn 0 -1 0
vn 0.8660065864516784 0 -0.5000325911601279
vn 0 1 0
vn 0 -1 0
vn 0.5000325911601278 0 -0.8660065864516785
vn 0 1 0
vn 0 -1 0
vn -1.2246467991473532e-16 0 -1
vn 0 1 0
usemtl m_c4285295-d1e0-dcfc-0036-196fac025b3b
f 207/697/181 205/698/181 203/699/181
f 205/700/182 207/701/182 208/702/182 206/703/182
f 206/704/183 208/705/183 204/706/183
f 209/707/184 207/708/184 203/709/184
f 207/710/185 209/711/185 210/712/185 208/713/185
f 208/714/186 210/715/186 204/716/186
f 211/717/187 209/718/187 203/719/187
f 209/720/188 211/721/188 212/722/188 210/723/188
f 210/724/189 212/725/189 204/726/189
f 213/727/190 211/728/190 203/729/190
f 211/730/191 213/731/191 214/732/191 212/733/191
f 212/734/192 214/735/192 204/736/192
f 215/737/193 213/738/193 203/739/193
f 213/740/194 215/741/194 216/742/194 214/743/194
f 214/744/195 216/745/195 204/746/195
f 217/747/196 215/748/196 203/749/196
f 215/750/197 217/751/197 218/752/197 216/753/197
f 216/754/198 218/755/198 204/756/198
f 219/757/199 217/758/199 203/759/199
f 217/760/200 219/761/200 220/762/200 218/763/200
f 218/764/201 220/765/201 204/766/201
f 221/767/202 219/768/202 203/769/202
f 219/770/203 221/771/203 222/772/203 220/773/203
f 220/774/204 222/775/204 204/776/204
f 223/777/205 221/778/205 203/779/205
f 221/780/206 223/781/206 224/782/206 222/783/206
f 222/784/207 224/785/207 204/786/207
f 225/787/208 223/788/208 203/789/208
f 223/790/209 225/791/209 226/792/209 224/793/209
f 224/794/210 226/795/210 204/796/210
f 227/797/211 225/798/211 203/799/211
f 225/800/212 227/801/212 228/802/212 226/803/212
f 226/804/213 228/805/213 204/806/213
f 205/807/214 227/808/214 203/809/214
f 227/810/215 205/811/215 206/812/215 228/813/215
f 228/814/216 206/815/216 204/816/216
o cube
v 0.625 1.828125 0.46875
v 0.625 1.828125 -0.46875
v 0.625 1.75 0.46875
v 0.625 1.75 -0.46875
v 0.375 1.828125 0.46875
v 0.375 1.828125 -0.46875
v 0.375 1.75 0.46875
v 0.375 1.75 -0.46875
v 0.625 1.8125 0.46875
v 0.625 1.8125 -0.46875
v 0.375 1.8125 -0.46875
v 0.375 1.8125 0.46875
v 0.625 1.859375 -0.453125
v 0.375 1.859375 -0.453125
v 0.375 1.8125 -0.375
v 0.375 1.75 -0.375
v 0.625 1.75 -0.375
v 0.625 1.8125 -0.375
v 0.625 1.859375 0.453125
v 0.375 1.859375 0.453125
v 0.375 1.8125 0.375
v 0.375 1.75 0.375
v 0.625 1.75 0.375
v 0.625 1.8125 0.375
v 0.625 1.8125 0.3125
v 0.375 1.8125 0.3125
v 0.375 1.8125 0.3125
v 0.375 1.875 0.3125
v 0.625 1.875 0.3125
v 0.625 1.8125 0.3125
v 0.625 1.8125 -0.3125
v 0.375 1.8125 -0.3125
v 0.375 1.8125 -0.3125
v 0.375 1.875 -0.3125
v 0.625 1.875 -0.3125
v 0.625 1.8125 -0.3125
v 0.625 1.7921875 -0.3546875
v 0.375 1.7921875 -0.3546875
v 0.375 1.8125 -0.34375
v 0.375 1.875 -0.421875
v 0.625 1.875 -0.421875
v 0.625 1.8125 -0.34375
v 0.625 1.7921875 0.3546875
v 0.375 1.7921875 0.3546875
v 0.375 1.8125 0.34375
v 0.375 1.875 0.421875
v 0.625 1.875 0.421875
v 0.625 1.8125 0.34375
vt 1 0.109375
vt 0.94140625 0.109375
vt 0.94140625 0.1015625
vt 1 0.1015625
vt 0.8828125 0.1015625
vt 0.94140625 0.1015625
vt 0.94140625 0.109375
vt 0.8828125 0.109375
vt 0.8828125 0.1171875
vt 0.8828125 0.05859375
vt 0.9140625 0.05859375
vt 0.9140625 0.1171875
vt 0.9140625 0
vt 0.9140625 0.05859375
vt 0.8828125 0.05859375
vt 0.8828125 0
vt 0.9140625 0.1015625
vt 0.9140625 0.109375
vt 0.8828125 0.109375
vt 0.8828125 0.1015625
vt 0.9140625 0.1015625
vt 0.9140625 0.109375
vt 0.8828125 0.109375
vt 0.8828125 0.1015625
vt 1 0.1171875
vt 0.94140625 0.1171875
vt 0.94140625 0.109375
vt 1 0.109375
vt 0.8828125 0.1171875
vt 0.8828125 0.109375
vt 0.9140625 0.109375
vt 0.9140625 0.1171875
vt 0.8828125 0.109375
vt 0.94140625 0.109375
vt 0.94140625 0.1171875
vt 0.8828125 0.1171875
vt 0.8828125 0.1171875
vt 0.8828125 0.109375
vt 0.9140625 0.109375
vt 0.9140625 0.1171875
vt 0.9140625 0.029296875
vt 0.9140625 0.03662109375
vt 0.8828125 0.03662109375
vt 0.8828125 0.029296875
vt 0.970703125 0.1171875
vt 0.96337890625 0.1171875
vt 0.96337890625 0.109375
vt 0.970703125 0.109375
vt 0.970703125 0.109375
vt 0.96337890625 0.1015625
vt 0.970703125 0.1015625
vt 0.8828125 0.087890625
vt 0.8828125 0.08056640625
vt 0.9140625 0.08056640625
vt 0.9140625 0.087890625
vt 0.912109375 0.1015625
vt 0.91943359375 0.109375
vt 0.912109375 0.109375
vt 0.912109375 0.109375
vt 0.91943359375 0.109375
vt 0.91943359375 0.1171875
vt 0.912109375 0.1171875
vt 0.9140625 0
vt 0.9140625 0.029296875
vt 0.8828125 0.029296875
vt 0.8828125 0
vt 1 0.1171875
vt 0.970703125 0.1171875
vt 0.970703125 0.109375
vt 1 0.109375
vt 1 0.109375
vt 0.970703125 0.109375
vt 0.970703125 0.1015625
vt 1 0.1015625
vt 0.8828125 0.1171875
vt 0.8828125 0.087890625
vt 0.9140625 0.087890625
vt 0.9140625 0.1171875
vt 0.8828125 0.1015625
vt 0.912109375 0.1015625
vt 0.912109375 0.109375
vt 0.8828125 0.109375
vt 0.8828125 0.109375
vt 0.912109375 0.109375
vt 0.912109375 0.1171875
vt 0.8828125 0.1171875
vt 0.8828125 0.0732421875
vt 0.8828125 0.06591796875
vt 0.9140625 0.06591796875
vt 0.9140625 0.0732421875
vt 0.9560546875 0.109375
vt 0.94873046875 0.1015625
vt 0.94873046875 0.109375
vt 0.9560546875 0.1015625
vt 0.9560546875 0.1171875
vt 0.94873046875 0.1171875
vt 0.94873046875 0.109375
vt 0.9560546875 0.109375
vt 0.9140625 0.0439453125
vt 0.9140625 0.05126953125
vt 0.8828125 0.05126953125
vt 0.8828125 0.0439453125
vt 0.9267578125 0.109375
vt 0.93408203125 0.109375
vt 0.93408203125 0.1171875
vt 0.9267578125 0.1171875
vt 0.9267578125 0.1015625
vt 0.93408203125 0.109375
vt 0.93408203125 0.1015625
vt 0.9267578125 0.109375
vt 0.8828125 0.06591796875
vt 0.8828125 0.062255859375
vt 0.9140625 0.062255859375
vt 0.9140625 0.06591796875
vt 0.94873046875 0.109375
vt 0.945068359375 0.109375
vt 0.945068359375 0.1015625
vt 0.94873046875 0.1015625
vt 0.94873046875 0.1171875
vt 0.945068359375 0.1171875
vt 0.945068359375 0.109375
vt 0.94873046875 0.109375
vt 0.9140625 0.05126953125
vt 0.9140625 0.054931640625
vt 0.8828125 0.054931640625
vt 0.8828125 0.05126953125
vt 0.93408203125 0.109375
vt 0.937744140625 0.109375
vt 0.937744140625 0.1171875
vt 0.93408203125 0.1171875
vt 0.9140625 0.05859375
vt 0.9140625 0.062255859375
vt 0.8828125 0.062255859375
vt 0.8828125 0.05859375
vt 0.94140625 0.1015625
vt 0.945068359375 0.1015625
vt 0.945068359375 0.109375
vt 0.94140625 0.109375
vt 0.945068359375 0.109375
vt 0.945068359375 0.1171875
vt 0.94140625 0.1171875
vt 0.8828125 0.05859375
vt 0.8828125 0.054931640625
vt 0.9140625 0.054931640625
vt 0.9140625 0.05859375
vt 0.94140625 0.1171875
vt 0.937744140625 0.1171875
vt 0.937744140625 0.109375
vt 0.94140625 0.109375
vt 0.94140625 0.109375
vt 0.937744140625 0.109375
vt 0.94140625 0.1015625
vt 0.9140625 0.0732421875
vt 0.9140625 0.08056640625
vt 0.8828125 0.08056640625
vt 0.8828125 0.0732421875
vt 0.9560546875 0.1015625
vt 0.96337890625 0.1015625
vt 0.9560546875 0.109375
vt 0.9560546875 0.109375
vt 0.96337890625 0.109375
vt 0.96337890625 0.1171875
vt 0.9560546875 0.1171875
vt 0.8828125 0.0439453125
vt 0.8828125 0.03662109375
vt 0.9140625 0.03662109375
vt 0.9140625 0.0439453125
vt 0.9267578125 0.1171875
vt 0.91943359375 0.1171875
vt 0.91943359375 0.109375
vt 0.9267578125 0.109375
vt 0.9267578125 0.109375
vt 0.91943359375 0.109375
vt 0.91943359375 0.1015625
vt 0.9267578125 0.1015625
vt 0.912109375 0.1015625
vt 0.91943359375 0.1015625
vt 0.912109375 0.109375
vt 0.8828125 0.11464843749999998
vt 0.8841796875 0.1171875
vt 0.8880859375 0.1171875
vt 0.8880859375 0.1171875
vt 0.94140625 0.109375
vt 0.937744140625 0.1015625
vt 0.94140625 0.1015625
vt 0.945068359375 0.1015625
vt 0.945068359375 0.109375
vt 0.94140625 0.109375
vt 0.8853515625 0.11464843749999998
vt 0.8828125 0.1171875
vt 0.8828125 0.109375
vt 0.9560546875 0.1015625
vt 0.96337890625 0.1015625
vt 0.96337890625 0.109375
vt 0.970703125 0.109375
vt 0.96337890625 0.109375
vt 0.970703125 0.1015625
vn 1 0 0
vn -1 0 0
vn 0 0.44721359549995804 -0.8944271909999161
vn 0 -1 0
vn 0 0 1
vn 0 0 -1
vn 1 0 0
vn 0 0 -1
vn -1 0 0
vn 0 0 1
vn 0 0.8944271909999161 0.44721359549995804
vn -1 0 0
vn -1 0 0
vn 0 -0.43381561877289976 -0.9010016697591
vn 1 0 0
vn 1 0 0
vn 0 0.44721359549995804 0.8944271909999161
vn -1 0 0
vn -1 0 0
vn 0 -1 0
vn 1 0 0
vn 1 0 0
vn 0 -1 0
vn 0 0 0
vn -1 0 0
vn 0 1 0
vn 1 0 0
vn 0 0 0
vn 0 -0.9010016697591001 0.4338156187728992
vn -1 0 0
vn -1 0 0
vn 0 1 0
vn 1 0 0
vn 0 -0.43381561877289976 0.9010016697591
vn 1 0 0
vn -1 0 0
vn 0 0.8944271909999161 -0.44721359549995804
vn 1 0 0
vn 1 0 0
vn 0 -0.9010016697591001 -0.4338156187728992
vn 0 0 0
vn -1 0 0
vn 0 1 0
vn 1 0 0
vn 1 0 0
vn 1 0 0
vn 1 0 0
vn 1 0 0
vn -1 0 0
vn -1 0 0
vn -1 0 0
vn -1 0 0
usemtl m_c4285295-d1e0-dcfc-0036-196fac025b3b
f 238/817/217 246/818/217 245/819/217 232/820/217
f 236/821/218 244/822/218 243/823/218 239/824/218
f 234/825/219 242/826/219 241/827/219 230/828/219
f 232/829/220 245/830/220 244/831/220 236/832/220
f 231/833/221 237/834/221 240/835/221 235/836/221
f 236/837/222 239/838/222 238/839/222 232/840/222
f 230/841/223 241/842/223 246/843/223 238/844/223
f 230/845/224 238/846/224 239/847/224 234/848/224
f 239/849/225 243/850/225 242/851/225 234/852/225
f 233/853/226 240/854/226 237/855/226 229/856/226
f 247/857/227 275/858/227 274/859/227 248/860/227
f 248/861/228 274/862/228 273/863/228 249/864/228
f 249/865/229 272/866/229 250/867/229
f 250/868/230 272/869/230 271/870/230 251/871/230
f 251/872/231 276/873/231 252/874/231
f 252/875/232 276/876/232 275/877/232 247/878/232
f 229/879/233 247/880/233 248/881/233 233/882/233
f 233/883/234 248/884/234 249/885/234 240/886/234
f 240/887/235 249/888/235 250/889/235 235/890/235
f 235/891/236 250/892/236 251/893/236 231/894/236
f 231/895/237 251/896/237 252/897/237 237/898/237
f 237/899/238 252/900/238 247/901/238 229/902/238
f 254/903/239 260/904/239 259/905/239 253/906/239
f 255/907/240 260/908/240 261/909/240 254/910/240
f 256/911/241 262/912/241 261/913/241 255/914/241
f 257/915/242 263/916/242 262/917/242 256/918/242
f 258/919/243 264/920/243 263/921/243 257/922/243
f 253/923/244 264/924/244 259/925/244 258/926/244
f 260/927/245 266/928/245 265/929/245 259/930/245
f 261/931/246 267/932/246 266/933/246 260/934/246
f 262/935/247 268/936/247 267/937/247 261/938/247
f 263/939/248 269/940/248 268/941/248 262/942/248
f 264/943/249 270/944/249 269/945/249 263/946/249
f 245/947/250 265/948/250 266/949/250 244/950/250
f 244/951/251 266/952/251 267/953/251
f 243/954/252 267/955/252 268/956/252 242/957/252
f 242/958/253 268/959/253 269/960/253 241/961/253
f 241/962/254 269/963/254 270/964/254 246/965/254
f 246/966/255 270/967/255 245/968/255
f 253/969/256 271/970/256 272/971/256 254/972/256
f 254/973/257 272/974/257 255/975/257
f 255/976/258 273/977/258 274/978/258 256/979/258
f 256/980/259 274/981/259 275/982/259 257/983/259
f 257/984/260 275/985/260 276/986/260 258/987/260
f 258/988/261 276/989/261 271/990/261 253/991/261
f 251/992/262 271/993/262 252/994/262
f 265/995/263 270/996/263 264/997/263 259/998/263
f 246/999/264 265/1000/264 245/1001/264
f 266/1002/265 267/1003/265 243/1004/265
f 266/1005/266 243/1006/266 244/1007/266
f 254/1008/267 272/1009/267 273/1010/267
f 249/1011/268 273/1012/268 250/1013/268
o cube
v -0.375 1.828125 0.46875
v -0.375 1.828125 -0.46875
v -0.375 1.75 0.46875
v -0.375 1.75 -0.46875
v -0.625 1.828125 0.46875
v -0.625 1.828125 -0.46875
v -0.625 1.75 0.46875
v -0.625 1.75 -0.46875
v -0.375 1.8125 0.46875
v -0.375 1.8125 -0.46875
v -0.625 1.8125 -0.46875
v -0.625 1.8125 0.46875
v -0.375 1.859375 -0.453125
v -0.625 1.859375 -0.453125
v -0.625 1.8125 -0.375
v -0.625 1.75 -0.375
v -0.375 1.75 -0.375
v -0.375 1.8125 -0.375
v -0.375 1.859375 0.453125
v -0.625 1.859375 0.453125
v -0.625 1.8125 0.375
v -0.625 1.75 0.375
v -0.375 1.75 0.375
v -0.375 1.8125 0.375
v -0.375 1.8125 0.3125
v -0.625 1.8125 0.3125
v -0.625 1.8125 0.3125
v -0.625 1.875 0.3125
v -0.375 1.875 0.3125
v -0.375 1.8125 0.3125
v -0.375 1.8125 -0.3125
v -0.625 1.8125 -0.3125
v -0.625 1.8125 -0.3125
v -0.625 1.875 -0.3125
v -0.375 1.875 -0.3125
v -0.375 1.8125 -0.3125
v -0.375 1.7921875 -0.3546875
v -0.625 1.7921875 -0.3546875
v -0.625 1.8125 -0.34375
v -0.625 1.875 -0.421875
v -0.375 1.875 -0.421875
v -0.375 1.8125 -0.34375
v -0.375 1.7921875 0.3546875
v -0.625 1.7921875 0.3546875
v -0.625 1.8125 0.34375
v -0.625 1.875 0.421875
v -0.375 1.875 0.421875
v -0.375 1.8125 0.34375
vt 1 0.109375
vt 0.94140625 0.109375
vt 0.94140625 0.1015625
vt 1 0.1015625
vt 0.8828125 0.1015625
vt 0.94140625 0.1015625
vt 0.94140625 0.109375
vt 0.8828125 0.109375
vt 0.8828125 0.1171875
vt 0.8828125 0.05859375
vt 0.9140625 0.05859375
vt 0.9140625 0.1171875
vt 0.9140625 0
vt 0.9140625 0.05859375
vt 0.8828125 0.05859375
vt 0.8828125 0
vt 0.9140625 0.1015625
vt 0.9140625 0.109375
vt 0.8828125 0.109375
vt 0.8828125 0.1015625
vt 0.9140625 0.1015625
vt 0.9140625 0.109375
vt 0.8828125 0.109375
vt 0.8828125 0.1015625
vt 1 0.1171875
vt 0.94140625 0.1171875
vt 0.94140625 0.109375
vt 1 0.109375
vt 0.8828125 0.1171875
vt 0.8828125 0.109375
vt 0.9140625 0.109375
vt 0.9140625 0.1171875
vt 0.8828125 0.109375
vt 0.94140625 0.109375
vt 0.94140625 0.1171875
vt 0.8828125 0.1171875
vt 0.8828125 0.1171875
vt 0.8828125 0.109375
vt 0.9140625 0.109375
vt 0.9140625 0.1171875
vt 0.9140625 0.029296875
vt 0.9140625 0.03662109375
vt 0.8828125 0.03662109375
vt 0.8828125 0.029296875
vt 0.970703125 0.1171875
vt 0.96337890625 0.1171875
vt 0.96337890625 0.109375
vt 0.970703125 0.109375
vt 0.970703125 0.109375
vt 0.96337890625 0.1015625
vt 0.970703125 0.1015625
vt 0.8828125 0.087890625
vt 0.8828125 0.08056640625
vt 0.9140625 0.08056640625
vt 0.9140625 0.087890625
vt 0.912109375 0.1015625
vt 0.91943359375 0.109375
vt 0.912109375 0.109375
vt 0.912109375 0.109375
vt 0.91943359375 0.109375
vt 0.91943359375 0.1171875
vt 0.912109375 0.1171875
vt 0.9140625 0
vt 0.9140625 0.029296875
vt 0.8828125 0.029296875
vt 0.8828125 0
vt 1 0.1171875
vt 0.970703125 0.1171875
vt 0.970703125 0.109375
vt 1 0.109375
vt 1 0.109375
vt 0.970703125 0.109375
vt 0.970703125 0.1015625
vt 1 0.1015625
vt 0.8828125 0.1171875
vt 0.8828125 0.087890625
vt 0.9140625 0.087890625
vt 0.9140625 0.1171875
vt 0.8828125 0.1015625
vt 0.912109375 0.1015625
vt 0.912109375 0.109375
vt 0.8828125 0.109375
vt 0.8828125 0.109375
vt 0.912109375 0.109375
vt 0.912109375 0.1171875
vt 0.8828125 0.1171875
vt 0.8828125 0.0732421875
vt 0.8828125 0.06591796875
vt 0.9140625 0.06591796875
vt 0.9140625 0.0732421875
vt 0.9560546875 0.109375
vt 0.94873046875 0.1015625
vt 0.94873046875 0.109375
vt 0.9560546875 0.1015625
vt 0.9560546875 0.1171875
vt 0.94873046875 0.1171875
vt 0.94873046875 0.109375
vt 0.9560546875 0.109375
vt 0.9140625 0.0439453125
vt 0.9140625 0.05126953125
vt 0.8828125 0.05126953125
vt 0.8828125 0.0439453125
vt 0.9267578125 0.109375
vt 0.93408203125 0.109375
vt 0.93408203125 0.1171875
vt 0.9267578125 0.1171875
vt 0.9267578125 0.1015625
vt 0.93408203125 0.109375
vt 0.93408203125 0.1015625
vt 0.9267578125 0.109375
vt 0.8828125 0.06591796875
vt 0.8828125 0.062255859375
vt 0.9140625 0.062255859375
vt 0.9140625 0.06591796875
vt 0.94873046875 0.109375
vt 0.945068359375 0.109375
vt 0.945068359375 0.1015625
vt 0.94873046875 0.1015625
vt 0.94873046875 0.1171875
vt 0.945068359375 0.1171875
vt 0.945068359375 0.109375
vt 0.94873046875 0.109375
vt 0.9140625 0.05126953125
vt 0.9140625 0.054931640625
vt 0.8828125 0.054931640625
vt 0.8828125 0.05126953125
vt 0.93408203125 0.109375
vt 0.937744140625 0.109375
vt 0.937744140625 0.1171875
vt 0.93408203125 0.1171875
vt 0.9140625 0.05859375
vt 0.9140625 0.062255859375
vt 0.8828125 0.062255859375
vt 0.8828125 0.05859375
vt 0.94140625 0.1015625
vt 0.945068359375 0.1015625
vt 0.945068359375 0.109375
vt 0.94140625 0.109375
vt 0.945068359375 0.109375
vt 0.945068359375 0.1171875
vt 0.94140625 0.1171875
vt 0.8828125 0.05859375
vt 0.8828125 0.054931640625
vt 0.9140625 0.054931640625
vt 0.9140625 0.05859375
vt 0.94140625 0.1171875
vt 0.937744140625 0.1171875
vt 0.937744140625 0.109375
vt 0.94140625 0.109375
vt 0.94140625 0.109375
vt 0.937744140625 0.109375
vt 0.94140625 0.1015625
vt 0.9140625 0.0732421875
vt 0.9140625 0.08056640625
vt 0.8828125 0.08056640625
vt 0.8828125 0.0732421875
vt 0.9560546875 0.1015625
vt 0.96337890625 0.1015625
vt 0.9560546875 0.109375
vt 0.9560546875 0.109375
vt 0.96337890625 0.109375
vt 0.96337890625 0.1171875
vt 0.9560546875 0.1171875
vt 0.8828125 0.0439453125
vt 0.8828125 0.03662109375
vt 0.9140625 0.03662109375
vt 0.9140625 0.0439453125
vt 0.9267578125 0.1171875
vt 0.91943359375 0.1171875
vt 0.91943359375 0.109375
vt 0.9267578125 0.109375
vt 0.9267578125 0.109375
vt 0.91943359375 0.109375
vt 0.91943359375 0.1015625
vt 0.9267578125 0.1015625
vt 0.912109375 0.1015625
vt 0.91943359375 0.1015625
vt 0.912109375 0.109375
vt 0.8828125 0.11464843749999998
vt 0.8841796875 0.1171875
vt 0.8880859375 0.1171875
vt 0.8880859375 0.1171875
vt 0.94140625 0.109375
vt 0.937744140625 0.1015625
vt 0.94140625 0.1015625
vt 0.945068359375 0.1015625
vt 0.945068359375 0.109375
vt 0.94140625 0.109375
vt 0.8853515625 0.11464843749999998
vt 0.8828125 0.1171875
vt 0.8828125 0.109375
vt 0.9560546875 0.1015625
vt 0.96337890625 0.1015625
vt 0.96337890625 0.109375
vt 0.970703125 0.109375
vt 0.96337890625 0.109375
vt 0.970703125 0.1015625
vn 1 0 0
vn -1 0 0
vn 0 0.44721359549995804 -0.8944271909999161
vn 0 -1 0
vn 0 0 1
vn 0 0 -1
vn 1 0 0
vn 0 0 -1
vn -1 0 0
vn 0 0 1
vn 0 0.8944271909999161 0.44721359549995804
vn -1 0 0
vn -1 0 0
vn 0 -0.43381561877289976 -0.9010016697591
vn 1 0 0
vn 1 0 0
vn 0 0.44721359549995804 0.8944271909999161
vn -1 0 0
vn -1 0 0
vn 0 -1 0
vn 1 0 0
vn 1 0 0
vn 0 -1 0
vn 0 0 0
vn -1 0 0
vn 0 1 0
vn 1 0 0
vn 0 0 0
vn 0 -0.9010016697591001 0.4338156187728992
vn -1 0 0
vn -1 0 0
vn 0 1 0
vn 1 0 0
vn 0 -0.43381561877289976 0.9010016697591
vn 1 0 0
vn -1 0 0
vn 0 0.8944271909999161 -0.44721359549995804
vn 1 0 0
vn 1 0 0
vn 0 -0.9010016697591001 -0.4338156187728992
vn 0 0 0
vn -1 0 0
vn 0 1 0
vn 1 0 0
vn 1 0 0
vn 1 0 0
vn 1 0 0
vn 1 0 0
vn -1 0 0
vn -1 0 0
vn -1 0 0
vn -1 0 0
usemtl m_c4285295-d1e0-dcfc-0036-196fac025b3b
f 286/1014/269 294/1015/269 293/1016/269 280/1017/269
f 284/1018/270 292/1019/270 291/1020/270 287/1021/270
f 282/1022/271 290/1023/271 289/1024/271 278/1025/271
f 280/1026/272 293/1027/272 292/1028/272 284/1029/272
f 279/1030/273 285/1031/273 288/1032/273 283/1033/273
f 284/1034/274 287/1035/274 286/1036/274 280/1037/274
f 278/1038/275 289/1039/275 294/1040/275 286/1041/275
f 278/1042/276 286/1043/276 287/1044/276 282/1045/276
f 287/1046/277 291/1047/277 290/1048/277 282/1049/277
f 281/1050/278 288/1051/278 285/1052/278 277/1053/278
f 295/1054/279 323/1055/279 322/1056/279 296/1057/279
f 296/1058/280 322/1059/280 321/1060/280 297/1061/280
f 297/1062/281 320/1063/281 298/1064/281
f 298/1065/282 320/1066/282 319/1067/282 299/1068/282
f 299/1069/283 324/1070/283 300/1071/283
f 300/1072/284 324/1073/284 323/1074/284 295/1075/284
f 277/1076/285 295/1077/285 296/1078/285 281/1079/285
f 281/1080/286 296/1081/286 297/1082/286 288/1083/286
f 288/1084/287 297/1085/287 298/1086/287 283/1087/287
f 283/1088/288 298/1089/288 299/1090/288 279/1091/288
f 279/1092/289 299/1093/289 300/1094/289 285/1095/289
f 285/1096/290 300/1097/290 295/1098/290 277/1099/290
f 302/1100/291 308/1101/291 307/1102/291 301/1103/291
f 303/1104/292 308/1105/292 309/1106/292 302/1107/292
f 304/1108/293 310/1109/293 309/1110/293 303/1111/293
f 305/1112/294 311/1113/294 310/1114/294 304/1115/294
f 306/1116/295 312/1117/295 311/1118/295 305/1119/295
f 301/1120/296 312/1121/296 307/1122/296 306/1123/296
f 308/1124/297 314/1125/297 313/1126/297 307/1127/297
f 309/1128/298 315/1129/298 314/1130/298 308/1131/298
f 310/1132/299 316/1133/299 315/1134/299 309/1135/299
f 311/1136/300 317/1137/300 316/1138/300 310/1139/300
f 312/1140/301 318/1141/301 317/1142/301 311/1143/301
f 293/1144/302 313/1145/302 314/1146/302 292/1147/302
f 292/1148/303 314/1149/303 315/1150/303
f 291/1151/304 315/1152/304 316/1153/304 290/1154/304
f 290/1155/305 316/1156/305 317/1157/305 289/1158/305
f 289/1159/306 317/1160/306 318/1161/306 294/1162/306
f 294/1163/307 318/1164/307 293/1165/307
f 301/1166/308 319/1167/308 320/1168/308 302/1169/308
f 302/1170/309 320/1171/309 303/1172/309
f 303/1173/310 321/1174/310 322/1175/310 304/1176/310
f 304/1177/311 322/1178/311 323/1179/311 305/1180/311
f 305/1181/312 323/1182/312 324/1183/312 306/1184/312
f 306/1185/313 324/1186/313 319/1187/313 301/1188/313
f 299/1189/314 319/1190/314 300/1191/314
f 313/1192/315 318/1193/315 312/1194/315 307/1195/315
f 294/1196/316 313/1197/316 293/1198/316
f 314/1199/317 315/1200/317 291/1201/317
f 314/1202/318 291/1203/318 292/1204/318
f 302/1205/319 320/1206/319 321/1207/319
f 297/1208/320 321/1209/320 298/1210/320
o cube
v 0.5625 1.1873286918443218 0.4997080054696319
v 0.5625 1.1873286918443218 0.4997080054696319
v 0.5625 1.0625 0.5062499999999999
v 0.5625 1.0625 0.5062499999999999
v 0.4375 1.1873286918443218 0.4997080054696319
v 0.4375 1.1873286918443218 0.4997080054696319
v 0.4375 1.0625 0.5062499999999999
v 0.4375 1.0625 0.5062499999999999
vt 0.068359375 0.03125
vt 0.099609375 0.03125
vt 0.099609375 0
vt 0.068359375 0
vn 0 0.05233595624294384 0.998629534754574
usemtl m_c4285295-d1e0-dcfc-0036-196fac025b3b
f 332/1214/321 327/1213/321 325/1212/321 330/1211/321
o cube
v -0.5624999999999979 1.1873286918443213 -0.4997080054696347
v -0.5624999999999979 1.1873286918443213 -0.4997080054696347
v -0.5624999999999979 1.0624999999999996 -0.5062500000000026
v -0.5624999999999979 1.0624999999999996 -0.5062500000000026
v -0.4374999999999979 1.1873286918443213 -0.4997080054696342
v -0.4374999999999979 1.1873286918443213 -0.4997080054696342
v -0.4374999999999979 1.0624999999999996 -0.5062500000000022
v -0.4374999999999979 1.0624999999999996 -0.5062500000000022
vt 0.1025390625 0.03125
vt 0.1337890625 0.03125
vt 0.1337890625 0
vt 0.1025390625 0
vn 3.93833311894298e-15 0.052335956242943814 -0.998629534754574
usemtl m_c4285295-d1e0-dcfc-0036-196fac025b3b
f 340/1218/322 335/1217/322 333/1216/322 338/1215/322