# Made in Blockbench 5.1.6
mtllib nyc_subway_fare_gate_2_entrance_open_light_layer.mtl

o cube
v 0.3721875 1.171875 0.844375
v 0.3721875 1.921875 0.844375
v 0.21281249999999996 1.171875 0.844375
v 0.21281249999999996 1.921875 0.844375
vt 0.361328125 0
vt 0.400390625 0
vt 0.400390625 0.1875
vt 0.361328125 0.1875
vn 0 0 1
usemtl m_fc00bc72-3161-766e-f24b-47dd31802908
f 3/1/1 1/2/1 2/3/1 4/4/1
o cube
v 0.34375 1.094375 1.34375
v 0.34375 0.969375 1.59375
v 0.15625 0.9225 1.578125
v 0.15625 1.0475 1.34375
vt 0.267578125 0.0017455468750000591
vt 0.267578125 0.0716234375
vt 0.21913101562499993 0.06638375000000041
vt 0.21875 0
vn -0.21821789023599242 0.8728715609439697 0.43643578047198484
usemtl m_fc00bc72-3161-766e-f24b-47dd31802908
f 6/5/2 5/6/2 8/7/2 7/8/2
o cube
v 0.3721875 1.171875 -0.8475
v 0.21281249999999996 1.171875 -0.8475
v 0.21281249999999996 1.921875 -0.8475
v 0.3721875 1.921875 -0.8475
vt 0.4013671875 0
vt 0.4404296875 0
vt 0.4404296875 0.1875
vt 0.4013671875 0.1875
vn 0 0 -1
usemtl m_fc00bc72-3161-766e-f24b-47dd31802908
f 9/9/3 10/10/3 11/11/3 12/12/3