# Made in Blockbench 5.1.6
mtllib nyc_subway_fare_gate_5_twoway_closed.mtl

o left
v -0.375 0 -0.375
v -0.625 0 -0.375
v -0.625 0.375 -0.375
v -0.375 0.375 -0.375
v -0.375 0 0.375
v -0.375 0.375 0.375
v -0.625 0 0.375
v -0.625 0.375 0.375
vt 0.8828125 0.013671875
vt 0.904296875 0.013671875
vt 0.904296875 0.05065914062499999
vt 0.8828125 0.05065914062499999
vt 0.904296875 0.013671875
vt 0.96875 0.013671875
vt 0.96875 0.05065914062499999
vt 0.904296875 0.05065914062499999
vt 0.8828125 0.013671875
vt 0.904296875 0.013671875
vt 0.904296875 0.05065914062499999
vt 0.8828125 0.05065914062499999
vt 0.8828125 0.013671875
vt 0.947265625 0.013671875
vt 0.947265625 0.05065914062499999
vt 0.8828125 0.05065914062499999
vt 0.8828125 0.038330078125
vt 0.904296875 0.038330078125
vt 0.904296875 0.1123046875
vt 0.8828125 0.1123046875
vt 0.8828125 0.013671875
vt 0.904296875 0.013671875
vt 0.904296875 0.087646484375
vt 0.8828125 0.087646484375
vn 0 0 -1
vn 1 0 0
vn 0 0 1
vn -1 0 0
vn 0 1 0
vn 0 -1 0
usemtl m_5b5e0a41-816c-9ca0-add2-67ee1e4537c3
f 1/1/1 2/2/1 3/3/1 4/4/1
f 5/5/2 1/6/2 4/7/2 6/8/2
f 7/9/3 5/10/3 6/11/3 8/12/3
f 2/13/4 7/14/4 8/15/4 3/16/4
f 8/17/5 6/18/5 4/19/5 3/20/5
f 2/21/6 1/22/6 5/23/6 7/24/6
o right
v 0.625 0 -0.375
v 0.375 0 -0.375
v 0.375 0.375 -0.375
v 0.625 0.375 -0.375
v 0.625 0 0.375
v 0.625 0.375 0.375
v 0.375 0 0.375
v 0.375 0.375 0.375
vt 0.8828125 0.013671875
vt 0.904296875 0.013671875
vt 0.904296875 0.05065914062499999
vt 0.8828125 0.05065914062499999
vt 0.8828125 0.013671875
vt 0.947265625 0.013671875
vt 0.947265625 0.05065914062499999
vt 0.8828125 0.05065914062499999
vt 0.8828125 0.013671875
vt 0.904296875 0.013671875
vt 0.904296875 0.05065914062499999
vt 0.8828125 0.05065914062499999
vt 0.904296875 0.013671875
vt 0.96875 0.013671875
vt 0.96875 0.05065914062499999
vt 0.904296875 0.05065914062499999
vt 0.8828125 0.013671875
vt 0.904296875 0.013671875
vt 0.904296875 0.087646484375
vt 0.8828125 0.087646484375
vt 0.8828125 0.038330078125
vt 0.904296875 0.038330078125
vt 0.904296875 0.1123046875
vt 0.8828125 0.1123046875
vn 0 0 -1
vn 1 0 0
vn 0 0 1
vn -1 0 0
vn 0 1 0
vn 0 -1 0
usemtl m_5b5e0a41-816c-9ca0-add2-67ee1e4537c3
f 9/25/7 10/26/7 11/27/7 12/28/7
f 13/29/8 9/30/8 12/31/8 14/32/8
f 15/33/9 13/34/9 14/35/9 16/36/9
f 10/37/10 15/38/10 16/39/10 11/40/10
f 16/41/11 14/42/11 12/43/11 11/44/11
f 10/45/12 9/46/12 13/47/12 15/48/12
o left
v -0.375 0 -0.5625
v -0.375 0 -0.860176875
v -0.375 0.815464375 -0.91748875
v -0.375 0.875 -0.515625
v -0.625 0.875 -0.515625
v -0.625 0.815464375 -0.91748875
v -0.625 0 -0.860176875
v -0.625 0 -0.5625
v -0.625 0 -0.875
v -0.625 0.796875 -0.9375
v -0.375 0.796875 -0.9375
v -0.375 0 -0.875
vt 0.8828125 0.013671875
vt 0.91351046875 0.013671875
vt 0.91351046875 0.09997554687499999
vt 0.8828125 0.09997554687499999
vt 0.96875 0.09997554687499999
vt 0.93805203125 0.09997554687499999
vt 0.93805203125 0.013671875
vt 0.96875 0.013671875
vt 0.904296875 0.013671875
vt 0.904296875 0.04890468749999999
vt 0.8828125 0.04890468749999999
vt 0.8828125 0.013671875
vt 0.8828125 0.1123046875
vt 0.8828125 0.07707179687499999
vt 0.904296875 0.07707179687499999
vt 0.904296875 0.1123046875
vt 0.904296875 0.013671875
vt 0.904296875 0.09997554687499999
vt 0.8828125 0.09997554687499999
vt 0.8828125 0.013671875
vt 0.904296875 0.013671875
vt 0.904296875 0.09997554687499999
vt 0.8828125 0.09997554687499999
vt 0.8828125 0.013671875
vt 0.9150390625 0.09997554687499999
vt 0.91351046875 0.09997554687499999
vt 0.91351046875 0.013671875
vt 0.9150390625 0.013671875
vt 0.904296875 0.07531734374999999
vt 0.904296875 0.07707179687499999
vt 0.8828125 0.07707179687499999
vt 0.8828125 0.07531734374999999
vt 0.9365234375 0.013671875
vt 0.93805203125 0.013671875
vt 0.93805203125 0.09997554687499999
vt 0.9365234375 0.09997554687499999
vt 0.8828125 0.05065914062499999
vt 0.8828125 0.04890468749999999
vt 0.904296875 0.04890468749999999
vt 0.904296875 0.05065914062499999
vn 1 0 0
vn -1 0 0
vn 0 0.9892033714914956 -0.1465492744091831
vn 0 -1 0
vn 0 -0.05349472137161191 0.998568132270089
vn 0 -0.07819124531863149 -0.9969383778125515
vn 1 0 0
vn 0 -1 0
vn -1 0 0
vn 0 0.7326565570687861 -0.6805985376006274
usemtl m_5b5e0a41-816c-9ca0-add2-67ee1e4537c3
f 17/49/13 18/50/13 19/51/13 20/52/13
f 21/53/14 22/54/14 23/55/14 24/56/14
f 20/57/15 19/58/15 22/59/15 21/60/15
f 24/61/16 23/62/16 18/63/16 17/64/16
f 17/65/17 20/66/17 21/67/17 24/68/17
f 25/69/18 26/70/18 27/71/18 28/72/18
f 27/73/19 19/74/19 18/75/19 28/76/19
f 28/77/20 18/78/20 23/79/20 25/80/20
f 25/81/21 23/82/21 22/83/21 26/84/21
f 26/85/22 22/86/22 19/87/22 27/88/22
o right
v -0.41462375 0.375 0.02287625
v -0.42912625 0.375 0.03125
v -0.4375 0.375 0
v -0.41462375 1.75 0.02287625
v -0.42912625 1.75 0.03125
v -0.4375 1.75 0
v -0.40625 0.375 0.00837375
v -0.40625 1.75 0.00837375
v -0.40625 0.375 -0.00837375
v -0.40625 1.75 -0.00837375
v -0.41462375 0.375 -0.02287625
v -0.41462375 1.75 -0.02287625
v -0.42912625 0.375 -0.03125
v -0.42912625 1.75 -0.03125
v -0.44587375 0.375 -0.03125
v -0.44587375 1.75 -0.03125
v -0.46037625 0.375 -0.02287625
v -0.46037625 1.75 -0.02287625
v -0.46875 0.375 -0.00837375
v -0.46875 1.75 -0.00837375
v -0.46875 0.375 0.00837375
v -0.46875 1.75 0.00837375
v -0.46037625 0.375 0.02287625
v -0.46037625 1.75 0.02287625
v -0.44587375 0.375 0.03125
v -0.44587375 1.75 0.03125
vt 0.928846953125 0.11059874999999997
vt 0.925821640625 0.1123046875
vt 0.90625 0.11059874999999997
vt 0.90625 0.0595703125
vt 0.917950078125 0.0595703125
vt 0.917950078125 0.1123046875
vt 0.90625 0.1123046875
vt 0.90625 0.10889249999999995
vt 0.9175475 0.10934976562499998
vt 0.90625 0.1123046875
vt 0.92884875 0.11059882812499999
vt 0.925820078125 0.1123046875
vt 0.90625 0.11059882812499999
vt 0.90625 0.0595703125
vt 0.917950078125 0.0595703125
vt 0.917950078125 0.1123046875
vt 0.90625 0.1123046875
vt 0.90625 0.10889273437500002
vt 0.9175484375 0.10934953125000002
vt 0.90625 0.1123046875
vt 0.9280784375 0.11053804687500002
vt 0.9280784375 0.1123046875
vt 0.90625 0.11142140624999997
vt 0.90625 0.0595703125
vt 0.917950078125 0.0595703125
vt 0.917950078125 0.1123046875
vt 0.90625 0.1123046875
vt 0.9280784375 0.11053804687500002
vt 0.9280784375 0.1123046875
vt 0.90625 0.11142140624999997
vt 0.90625 0.10889273437500002
vt 0.9175484375 0.10934953125000002
vt 0.90625 0.1123046875
vt 0.90625 0.0595703125
vt 0.917950078125 0.0595703125
vt 0.917950078125 0.1123046875
vt 0.90625 0.1123046875
vt 0.92884875 0.11059882812499999
vt 0.925820078125 0.1123046875
vt 0.90625 0.11059882812499999
vt 0.90625 0.10889249999999995
vt 0.9175475 0.10934976562499998
vt 0.90625 0.1123046875
vt 0.90625 0.0595703125
vt 0.917950078125 0.0595703125
vt 0.917950078125 0.1123046875
vt 0.90625 0.1123046875
vt 0.928846953125 0.11059874999999997
vt 0.925821640625 0.1123046875
vt 0.90625 0.11059874999999997
vt 0.90625 0.10900874999999999
vt 0.917950078125 0.10900874999999999
vt 0.9121 0.1123046875
vt 0.90625 0.0595703125
vt 0.917950078125 0.0595703125
vt 0.917950078125 0.1123046875
vt 0.90625 0.1123046875
vt 0.917950078125 0.1123046875
vt 0.90625 0.1123046875
vt 0.9121 0.10900874999999999
vt 0.90625 0.1123046875
vt 0.909275234375 0.11059874999999997
vt 0.928846953125 0.1123046875
vt 0.90625 0.0595703125
vt 0.917950078125 0.0595703125
vt 0.917950078125 0.1123046875
vt 0.90625 0.1123046875
vt 0.9175475 0.1123046875
vt 0.90625 0.11184734375000005
vt 0.9175475 0.10889249999999995
vt 0.90625 0.1123046875
vt 0.90927875 0.11059882812499999
vt 0.92884875 0.1123046875
vt 0.90625 0.0595703125
vt 0.917950078125 0.0595703125
vt 0.917950078125 0.1123046875
vt 0.90625 0.1123046875
vt 0.9175484375 0.1123046875
vt 0.90625 0.111847890625
vt 0.9175484375 0.10889273437500002
vt 0.90625 0.1123046875
vt 0.90625 0.11053804687500002
vt 0.9280784375 0.11142140624999997
vt 0.90625 0.0595703125
vt 0.917950078125 0.0595703125
vt 0.917950078125 0.1123046875
vt 0.90625 0.1123046875
vt 0.90625 0.1123046875
vt 0.90625 0.11053804687500002
vt 0.9280784375 0.11142140624999997
vt 0.9175484375 0.1123046875
vt 0.90625 0.111847890625
vt 0.9175484375 0.10889273437500002
vt 0.90625 0.0595703125
vt 0.917950078125 0.0595703125
vt 0.917950078125 0.1123046875
vt 0.90625 0.1123046875
vt 0.90625 0.1123046875
vt 0.90927875 0.11059882812499999
vt 0.92884875 0.1123046875
vt 0.9175475 0.1123046875
vt 0.90625 0.11184734375000005
vt 0.9175475 0.10889249999999995
vt 0.90625 0.0595703125
vt 0.917950078125 0.0595703125
vt 0.917950078125 0.1123046875
vt 0.90625 0.1123046875
vt 0.90625 0.1123046875
vt 0.909275234375 0.11059874999999997
vt 0.928846953125 0.1123046875
vt 0.917950078125 0.1123046875
vt 0.90625 0.1123046875
vt 0.9121 0.10900874999999999
vt 0.90625 0.0595703125
vt 0.917950078125 0.0595703125
vt 0.917950078125 0.1123046875
vt 0.90625 0.1123046875
vt 0.90625 0.10900874999999999
vt 0.917950078125 0.10900874999999999
vt 0.9121 0.1123046875
vn 0 -1 0
vn 0.5000325911601279 0 0.8660065864516784
vn 0 1 0
vn 0 -1 0
vn 0.8660065864516785 0 0.5000325911601278
vn 0 1 0
vn 0 -1 0
vn 1 0 0
vn 0 1 0
vn 0 -1 0
vn 0.8660065864516785 0 -0.5000325911601278
vn 0 1 0
vn 0 -1 0
vn 0.5000325911601279 0 -0.8660065864516784
vn 0 1 0
vn 0 -1 0
vn 0 0 -1
vn 0 1 0
vn 0 -1 0
vn -0.5000325911601279 0 -0.8660065864516784
vn 0 1 0
vn 0 -1 0
vn -0.8660065864516785 0 -0.5000325911601278
vn 0 1 0
vn 0 -1 0
vn -1 0 0
vn 0 1 0
vn 0 -1 0
vn -0.8660065864516785 0 0.5000325911601278
vn 0 1 0
vn 0 -1 0
vn -0.5000325911601279 0 0.8660065864516784
vn 0 1 0
vn 0 -1 0
vn 0 0 1
vn 0 1 0
usemtl m_5b5e0a41-816c-9ca0-add2-67ee1e4537c3
f 29/89/23 30/90/23 31/91/23
f 30/92/24 29/93/24 32/94/24 33/95/24
f 33/96/25 32/97/25 34/98/25
f 35/99/26 29/100/26 31/101/26
f 29/102/27 35/103/27 36/104/27 32/105/27
f 32/106/28 36/107/28 34/108/28
f 37/109/29 35/110/29 31/111/29
f 35/112/30 37/113/30 38/114/30 36/115/30
f 36/116/31 38/117/31 34/118/31
f 39/119/32 37/120/32 31/121/32
f 37/122/33 39/123/33 40/124/33 38/125/33
f 38/126/34 40/127/34 34/128/34
f 41/129/35 39/130/35 31/131/35
f 39/132/36 41/133/36 42/134/36 40/135/36
f 40/136/37 42/137/37 34/138/37
f 43/139/38 41/140/38 31/141/38
f 41/142/39 43/143/39 44/144/39 42/145/39
f 42/146/40 44/147/40 34/148/40
f 45/149/41 43/150/41 31/151/41
f 43/152/42 45/153/42 46/154/42 44/155/42
f 44/156/43 46/157/43 34/158/43
f 47/159/44 45/160/44 31/161/44
f 45/162/45 47/163/45 48/164/45 46/165/45
f 46/166/46 48/167/46 34/168/46
f 49/169/47 47/170/47 31/171/47
f 47/172/48 49/173/48 50/174/48 48/175/48
f 48/176/49 50/177/49 34/178/49
f 51/179/50 49/180/50 31/181/50
f 49/182/51 51/183/51 52/184/51 50/185/51
f 50/186/52 52/187/52 34/188/52
f 53/189/53 51/190/53 31/191/53
f 51/192/54 53/193/54 54/194/54 52/195/54
f 52/196/55 54/197/55 34/198/55
f 30/199/56 53/200/56 31/201/56
f 53/202/57 30/203/57 33/204/57 54/205/57
f 54/206/58 33/207/58 34/208/58
o left
v -0.40625 1.75 -0.03125
v -0.46875 1.75 -0.03125
v -0.46875 1.84375 -0.03125
v -0.40625 1.84375 -0.03125
v -0.40625 1.75 0.03125
v -0.40625 1.84375 0.03125
v -0.46875 1.75 0.03125
v -0.46875 1.84375 0.03125
vt 0.8984375 0
vt 1 0
vt 1 0.0751953125
vt 0.8984375 0.0751953125
vt 0.888671875 0.0087890625
vt 0.982421875 0.0087890625
vt 0.982421875 0.1142578125
vt 0.888671875 0.1142578125
vt 0.8984375 0
vt 1 0
vt 1 0.0751953125
vt 0.8984375 0.0751953125
vt 0.888671875 0.0087890625
vt 0.982421875 0.0087890625
vt 0.982421875 0.1142578125
vt 0.888671875 0.1142578125
vt 0.8984375 0.0234375
vt 1 0.0234375
vt 1 0.0869140625
vt 0.8984375 0.0869140625
vt 0.8984375 0.0234375
vt 1 0.0234375
vt 1 0.0869140625
vt 0.8984375 0.0869140625
vn 0 0 -1
vn 1 0 0
vn 0 0 1
vn -1 0 0
vn 0 1 0
vn 0 -1 0
usemtl m_5b5e0a41-816c-9ca0-add2-67ee1e4537c3
f 55/209/59 56/210/59 57/211/59 58/212/59
f 59/213/60 55/214/60 58/215/60 60/216/60
f 61/217/61 59/218/61 60/219/61 62/220/61
f 56/221/62 61/222/62 62/223/62 57/224/62
f 62/225/63 60/226/63 58/227/63 57/228/63
f 56/229/64 55/230/64 59/231/64 61/232/64
o left
v -0.375 0 -0.5625
v -0.375 1.75 -0.46875
v -0.375 1.75 -0.375
v -0.375 0 -0.375
v -0.625 0 -0.375
v -0.625 1.75 -0.375
v -0.625 1.75 -0.46875
v -0.625 0 -0.5625
vt 0.9150390625 0.013671875
vt 0.9150390625 0.09997554687499999
vt 0.8828125 0.09997554687499999
vt 0.8828125 0.013671875
vt 0.96875 0.013671875
vt 0.96875 0.09997554687499999
vt 0.9365234375 0.09997554687499999
vt 0.9365234375 0.013671875
vt 0.904296875 0.013671875
vt 0.904296875 0.05065914062499999
vt 0.8828125 0.05065914062499999
vt 0.8828125 0.013671875
vt 0.904296875 0.07531734374999999
vt 0.904296875 0.1123046875
vt 0.8828125 0.1123046875
vt 0.8828125 0.07531734374999999
vt 0.904296875 0.013671875
vt 0.904296875 0.09997554687499999
vt 0.8828125 0.09997554687499999
vt 0.8828125 0.013671875
vt 0.904296875 0.013671875
vt 0.904296875 0.09997554687499999
vt 0.8828125 0.09997554687499999
vt 0.8828125 0.013671875
vn 1 0 0
vn -1 0 0
vn 0 1 0
vn 0 -1 0
vn 0 0 1
vn 0 0.05349472137161191 -0.998568132270089
usemtl m_5b5e0a41-816c-9ca0-add2-67ee1e4537c3
f 63/233/65 64/234/65 65/235/65 66/236/65
f 67/237/66 68/238/66 69/239/66 70/240/66
f 65/241/67 64/242/67 69/243/67 68/244/67
f 63/245/68 66/246/68 67/247/68 70/248/68
f 66/249/69 65/250/69 68/251/69 67/252/69
f 70/253/70 69/254/70 64/255/70 63/256/70
o left
v 0.625 0 -0.5625
v 0.625 1.75 -0.46875
v 0.625 1.75 -0.375
v 0.625 0 -0.375
v 0.375 0 -0.375
v 0.375 1.75 -0.375
v 0.375 1.75 -0.46875
v 0.375 0 -0.5625
vt 0.9150390625 0.013671875
vt 0.9150390625 0.09997554687499999
vt 0.8828125 0.09997554687499999
vt 0.8828125 0.013671875
vt 0.96875 0.013671875
vt 0.96875 0.09997554687499999
vt 0.9365234375 0.09997554687499999
vt 0.9365234375 0.013671875
vt 0.904296875 0.013671875
vt 0.904296875 0.05065914062499999
vt 0.8828125 0.05065914062499999
vt 0.8828125 0.013671875
vt 0.904296875 0.07531734374999999
vt 0.904296875 0.1123046875
vt 0.8828125 0.1123046875
vt 0.8828125 0.07531734374999999
vt 0.904296875 0.013671875
vt 0.904296875 0.09997554687499999
vt 0.8828125 0.09997554687499999
vt 0.8828125 0.013671875
vt 0.904296875 0.013671875
vt 0.904296875 0.09997554687499999
vt 0.8828125 0.09997554687499999
vt 0.8828125 0.013671875
vn 1 0 0
vn -1 0 0
vn 0 1 0
vn 0 -1 0
vn 0 0 1
vn 0 0.05349472137161191 -0.998568132270089
usemtl m_5b5e0a41-816c-9ca0-add2-67ee1e4537c3
f 71/257/71 72/258/71 73/259/71 74/260/71
f 75/261/72 76/262/72 77/263/72 78/264/72
f 73/265/73 72/266/73 77/267/73 76/268/73
f 71/269/74 74/270/74 75/271/74 78/272/74
f 74/273/75 73/274/75 76/275/75 75/276/75
f 78/277/76 77/278/76 72/279/76 71/280/76
o left
v 0.625 0 -0.5625
v 0.625 0 -0.860176875
v 0.625 0.815464375 -0.91748875
v 0.625 0.875 -0.515625
v 0.375 0.875 -0.515625
v 0.375 0.815464375 -0.91748875
v 0.375 0 -0.860176875
v 0.375 0 -0.5625
v 0.375 0 -0.875
v 0.375 0.796875 -0.9375
v 0.625 0.796875 -0.9375
v 0.625 0 -0.875
vt 0.8828125 0.013671875
vt 0.91351046875 0.013671875
vt 0.91351046875 0.09997554687499999
vt 0.8828125 0.09997554687499999
vt 0.96875 0.09997554687499999
vt 0.93805203125 0.09997554687499999
vt 0.93805203125 0.013671875
vt 0.96875 0.013671875
vt 0.904296875 0.013671875
vt 0.904296875 0.04890468749999999
vt 0.8828125 0.04890468749999999
vt 0.8828125 0.013671875
vt 0.8828125 0.1123046875
vt 0.8828125 0.07707179687499999
vt 0.904296875 0.07707179687499999
vt 0.904296875 0.1123046875
vt 0.904296875 0.013671875
vt 0.904296875 0.09997554687499999
vt 0.8828125 0.09997554687499999
vt 0.8828125 0.013671875
vt 0.904296875 0.013671875
vt 0.904296875 0.09997554687499999
vt 0.8828125 0.09997554687499999
vt 0.8828125 0.013671875
vt 0.9150390625 0.09997554687499999
vt 0.91351046875 0.09997554687499999
vt 0.91351046875 0.013671875
vt 0.9150390625 0.013671875
vt 0.904296875 0.07531734374999999
vt 0.904296875 0.07707179687499999
vt 0.8828125 0.07707179687499999
vt 0.8828125 0.07531734374999999
vt 0.9365234375 0.013671875
vt 0.93805203125 0.013671875
vt 0.93805203125 0.09997554687499999
vt 0.9365234375 0.09997554687499999
vt 0.8828125 0.05065914062499999
vt 0.8828125 0.04890468749999999
vt 0.904296875 0.04890468749999999
vt 0.904296875 0.05065914062499999
vn 1 0 0
vn -1 0 0
vn 0 0.9892033714914956 -0.1465492744091831
vn 0 -1 0
vn 0 -0.05349472137161191 0.998568132270089
vn 0 -0.07819124531863149 -0.9969383778125515
vn 1 0 0
vn 0 -1 0
vn -1 0 0
vn 0 0.7326565570687861 -0.6805985376006274
usemtl m_5b5e0a41-816c-9ca0-add2-67ee1e4537c3
f 79/281/77 80/282/77 81/283/77 82/284/77
f 83/285/78 84/286/78 85/287/78 86/288/78
f 82/289/79 81/290/79 84/291/79 83/292/79
f 86/293/80 85/294/80 80/295/80 79/296/80
f 79/297/81 82/298/81 83/299/81 86/300/81
f 87/301/82 88/302/82 89/303/82 90/304/82
f 89/305/83 81/306/83 80/307/83 90/308/83
f 90/309/84 80/310/84 85/311/84 87/312/84
f 87/313/85 85/314/85 84/315/85 88/316/85
f 88/317/86 84/318/86 81/319/86 89/320/86
o left
v 0.37500000000000006 0 0.5625
v 0.3750000000000001 0 0.860176875
v 0.3750000000000001 0.815464375 0.91748875
v 0.37500000000000006 0.875 0.515625
v 0.6250000000000001 0.875 0.5156249999999999
v 0.6250000000000001 0.815464375 0.9174887499999999
v 0.6250000000000001 0 0.8601768749999998
v 0.6250000000000001 0 0.5624999999999999
v 0.6250000000000001 0 0.8749999999999999
v 0.6250000000000001 0.796875 0.9374999999999999
v 0.3750000000000001 0.796875 0.9375
v 0.3750000000000001 0 0.875
vt 0.8828125 0.013671875
vt 0.91351046875 0.013671875
vt 0.91351046875 0.09997554687499999
vt 0.8828125 0.09997554687499999
vt 0.96875 0.09997554687499999
vt 0.93805203125 0.09997554687499999
vt 0.93805203125 0.013671875
vt 0.96875 0.013671875
vt 0.904296875 0.013671875
vt 0.904296875 0.04890468749999999
vt 0.8828125 0.04890468749999999
vt 0.8828125 0.013671875
vt 0.8828125 0.1123046875
vt 0.8828125 0.07707179687499999
vt 0.904296875 0.07707179687499999
vt 0.904296875 0.1123046875
vt 0.904296875 0.013671875
vt 0.904296875 0.09997554687499999
vt 0.8828125 0.09997554687499999
vt 0.8828125 0.013671875
vt 0.904296875 0.013671875
vt 0.904296875 0.09997554687499999
vt 0.8828125 0.09997554687499999
vt 0.8828125 0.013671875
vt 0.9150390625 0.09997554687499999
vt 0.91351046875 0.09997554687499999
vt 0.91351046875 0.013671875
vt 0.9150390625 0.013671875
vt 0.904296875 0.07531734374999999
vt 0.904296875 0.07707179687499999
vt 0.8828125 0.07707179687499999
vt 0.8828125 0.07531734374999999
vt 0.9365234375 0.013671875
vt 0.93805203125 0.013671875
vt 0.93805203125 0.09997554687499999
vt 0.9365234375 0.09997554687499999
vt 0.8828125 0.05065914062499999
vt 0.8828125 0.04890468749999999
vt 0.904296875 0.04890468749999999
vt 0.904296875 0.05065914062499999
vn -1 -1.310613872077511e-17 1.8648123483309826e-16
vn 1 0 0
vn 6.832143724500472e-17 0.9892033714914956 0.1465492744091831
vn 0 -1 0
vn -4.4345333284127654e-16 -0.05349472137161192 -0.998568132270089
vn 4.51410548559665e-16 -0.07819124531863149 0.9969383778125515
vn -1 0 0
vn 0 -1 0
vn 1 0 0
vn 3.0168247933207177e-16 0.7326565570687861 0.6805985376006274
usemtl m_5b5e0a41-816c-9ca0-add2-67ee1e4537c3
f 91/321/87 92/322/87 93/323/87 94/324/87
f 95/325/88 96/326/88 97/327/88 98/328/88
f 94/329/89 93/330/89 96/331/89 95/332/89
f 98/333/90 97/334/90 92/335/90 91/336/90
f 91/337/91 94/338/91 95/339/91 98/340/91
f 99/341/92 100/342/92 101/343/92 102/344/92
f 101/345/93 93/346/93 92/347/93 102/348/93
f 102/349/94 92/350/94 97/351/94 99/352/94
f 99/353/95 97/354/95 96/355/95 100/356/95
f 100/357/96 96/358/96 93/359/96 101/360/96
o left
v 0.37500000000000006 0 0.5625
v 0.37500000000000006 1.75 0.46874999999999994
v 0.37500000000000006 1.75 0.37499999999999994
v 0.37500000000000006 0 0.37499999999999994
v 0.625 0 0.37499999999999994
v 0.625 1.75 0.37499999999999994
v 0.6250000000000001 1.75 0.46874999999999994
v 0.6250000000000001 0 0.5624999999999999
vt 0.9150390625 0.013671875
vt 0.9150390625 0.09997554687499999
vt 0.8828125 0.09997554687499999
vt 0.8828125 0.013671875
vt 0.96875 0.013671875
vt 0.96875 0.09997554687499999
vt 0.9365234375 0.09997554687499999
vt 0.9365234375 0.013671875
vt 0.904296875 0.013671875
vt 0.904296875 0.05065914062499999
vt 0.8828125 0.05065914062499999
vt 0.8828125 0.013671875
vt 0.904296875 0.07531734374999999
vt 0.904296875 0.1123046875
vt 0.8828125 0.1123046875
vt 0.8828125 0.07531734374999999
vt 0.904296875 0.013671875
vt 0.904296875 0.09997554687499999
vt 0.8828125 0.09997554687499999
vt 0.8828125 0.013671875
vt 0.904296875 0.013671875
vt 0.904296875 0.09997554687499999
vt 0.8828125 0.09997554687499999
vt 0.8828125 0.013671875
vn -1 0 0
vn 1 0 -1.1842378929335002e-15
vn 0 1 0
vn 0 -1 0
vn 0 0 -1
vn 0 0.053494721371611875 0.998568132270089
usemtl m_5b5e0a41-816c-9ca0-add2-67ee1e4537c3
f 103/361/97 104/362/97 105/363/97 106/364/97
f 107/365/98 108/366/98 109/367/98 110/368/98
f 105/369/99 104/370/99 109/371/99 108/372/99
f 103/373/100 106/374/100 107/375/100 110/376/100
f 106/377/101 105/378/101 108/379/101 107/380/101
f 110/381/102 109/382/102 104/383/102 103/384/102
o left
v -0.6249999999999999 0 0.5625000000000001
v -0.6249999999999999 0 0.8601768750000001
v -0.6249999999999999 0.815464375 0.9174887500000001
v -0.6249999999999999 0.875 0.5156250000000001
v -0.37499999999999994 0.875 0.515625
v -0.3749999999999999 0.815464375 0.91748875
v -0.3749999999999999 0 0.860176875
v -0.37499999999999994 0 0.5625
v -0.3749999999999999 0 0.875
v -0.3749999999999999 0.796875 0.9375
v -0.6249999999999999 0.796875 0.9375000000000001
v -0.6249999999999999 0 0.8750000000000001
vt 0.8828125 0.013671875
vt 0.91351046875 0.013671875
vt 0.91351046875 0.09997554687499999
vt 0.8828125 0.09997554687499999
vt 0.96875 0.09997554687499999
vt 0.93805203125 0.09997554687499999
vt 0.93805203125 0.013671875
vt 0.96875 0.013671875
vt 0.904296875 0.013671875
vt 0.904296875 0.04890468749999999
vt 0.8828125 0.04890468749999999
vt 0.8828125 0.013671875
vt 0.8828125 0.1123046875
vt 0.8828125 0.07707179687499999
vt 0.904296875 0.07707179687499999
vt 0.904296875 0.1123046875
vt 0.904296875 0.013671875
vt 0.904296875 0.09997554687499999
vt 0.8828125 0.09997554687499999
vt 0.8828125 0.013671875
vt 0.904296875 0.013671875
vt 0.904296875 0.09997554687499999
vt 0.8828125 0.09997554687499999
vt 0.8828125 0.013671875
vt 0.9150390625 0.09997554687499999
vt 0.91351046875 0.09997554687499999
vt 0.91351046875 0.013671875
vt 0.9150390625 0.013671875
vt 0.904296875 0.07531734374999999
vt 0.904296875 0.07707179687499999
vt 0.8828125 0.07707179687499999
vt 0.8828125 0.07531734374999999
vt 0.9365234375 0.013671875
vt 0.93805203125 0.013671875
vt 0.93805203125 0.09997554687499999
vt 0.9365234375 0.09997554687499999
vt 0.8828125 0.05065914062499999
vt 0.8828125 0.04890468749999999
vt 0.904296875 0.04890468749999999
vt 0.904296875 0.05065914062499999
vn -1 0 0
vn 1 9.608210157473549e-18 -1.3671081413638652e-16
vn 6.832143724500472e-17 0.9892033714914956 0.1465492744091831
vn 0 -1 0
vn -4.4345333284127674e-16 -0.05349472137161191 -0.998568132270089
vn 4.51410548559665e-16 -0.07819124531863149 0.9969383778125515
vn -1 0 0
vn 0 -1 0
vn 1 0 0
vn 3.0168247933207177e-16 0.7326565570687861 0.6805985376006274
usemtl m_5b5e0a41-816c-9ca0-add2-67ee1e4537c3
f 111/385/103 112/386/103 113/387/103 114/388/103
f 115/389/104 116/390/104 117/391/104 118/392/104
f 114/393/105 113/394/105 116/395/105 115/396/105
f 118/397/106 117/398/106 112/399/106 111/400/106
f 111/401/107 114/402/107 115/403/107 118/404/107
f 119/405/108 120/406/108 121/407/108 122/408/108
f 121/409/109 113/410/109 112/411/109 122/412/109
f 122/413/110 112/414/110 117/415/110 119/416/110
f 119/417/111 117/418/111 116/419/111 120/420/111
f 120/421/112 116/422/112 113/423/112 121/424/112
o left
v -0.6249999999999999 0 0.5625000000000001
v -0.6249999999999999 1.75 0.46875000000000006
v -0.625 1.75 0.37500000000000006
v -0.625 0 0.37500000000000006
v -0.37499999999999994 0 0.37500000000000006
v -0.37499999999999994 1.75 0.37500000000000006
v -0.37499999999999994 1.75 0.46875000000000006
v -0.37499999999999994 0 0.5625
vt 0.9150390625 0.013671875
vt 0.9150390625 0.09997554687499999
vt 0.8828125 0.09997554687499999
vt 0.8828125 0.013671875
vt 0.96875 0.013671875
vt 0.96875 0.09997554687499999
vt 0.9365234375 0.09997554687499999
vt 0.9365234375 0.013671875
vt 0.904296875 0.013671875
vt 0.904296875 0.05065914062499999
vt 0.8828125 0.05065914062499999
vt 0.8828125 0.013671875
vt 0.904296875 0.07531734374999999
vt 0.904296875 0.1123046875
vt 0.8828125 0.1123046875
vt 0.8828125 0.07531734374999999
vt 0.904296875 0.013671875
vt 0.904296875 0.09997554687499999
vt 0.8828125 0.09997554687499999
vt 0.8828125 0.013671875
vt 0.904296875 0.013671875
vt 0.904296875 0.09997554687499999
vt 0.8828125 0.09997554687499999
vt 0.8828125 0.013671875
vn -1 6.344131569286612e-17 1.1842378929335002e-15
vn 1 0 0
vn 0 1 0
vn 0 -1 0
vn 0 0 -1
vn 0 0.05349472137161189 0.998568132270089
usemtl m_5b5e0a41-816c-9ca0-add2-67ee1e4537c3
f 123/425/113 124/426/113 125/427/113 126/428/113
f 127/429/114 128/430/114 129/431/114 130/432/114
f 125/433/115 124/434/115 129/435/115 128/436/115
f 123/437/116 126/438/116 127/439/116 130/440/116
f 126/441/117 125/442/117 128/443/117 127/444/117
f 130/445/118 129/446/118 124/447/118 123/448/118
o cube
v 0.609375 0.864948318810004 0.5787332457036518
v 0.609375 0.9893401656621852 0.5874317732362159
v 0.609375 0.9189474187720729 0.8659442102581371
v 0.609375 0.8258058841649857 0.8572461400372186
v 0.390625 0.8258058841649857 0.8572461400372186
v 0.390625 0.8876976384613338 0.8659444588472226
v 0.390625 0.9580898534170912 0.5874313159245704
v 0.390625 0.864948318810004 0.5787332457036518
vt 0.947265625 0.3349609375
vt 0.947265625 0.3427734375
vt 0.912109375 0.3427734375
vt 0.912109375 0.3349609375
vt 0.943359375 0.3349609375
vt 0.943359375 0.3427734375
vt 0.908203125 0.3427734375
vt 0.908203125 0.3349609375
vt 0.935546875 0.3154296875
vt 0.935546875 0.3505859375
vt 0.908203125 0.3505859375
vt 0.908203125 0.3154296875
vt 0.935546875 0.302734375
vt 0.935546875 0.337890625
vt 0.908203125 0.337890625
vt 0.908203125 0.302734375
vt 0.935546875 0.3349609375
vt 0.935546875 0.3427734375
vt 0.908203125 0.3427734375
vt 0.908203125 0.3349609375
vt 0.9375 0.3349609375
vt 0.9375 0.3427734375
vt 0.91015625 0.3427734375
vt 0.91015625 0.3349609375
vn 1 0 0
vn -1 0 0
vn -0.13719408399175287 0.9603454403207422 0.2427229255196625
vn 0 -0.9902680687415704 -0.1391731009600651
vn 0.013282860296342519 -0.09297275598743114 0.9955800481460291
vn -0.013279874193254305 0.09297275967533888 -0.9955800876372343
usemtl m_5b5e0a41-816c-9ca0-add2-67ee1e4537c3
f 131/449/119 132/450/119 133/451/119 134/452/119
f 135/453/120 136/454/120 137/455/120 138/456/120
f 133/457/121 132/458/121 137/459/121 136/460/121
f 131/461/122 134/462/122 135/463/122 138/464/122
f 134/465/123 133/466/123 136/467/123 135/468/123
f 138/469/124 137/470/124 132/471/124 131/472/124
o left
v 0.40625 1.75 0.03124999999999995
v 0.46875 1.75 0.03124999999999994
v 0.46875 1.84375 0.03124999999999994
v 0.40625 1.84375 0.03124999999999995
v 0.40625 1.75 -0.03125000000000005
v 0.40625 1.84375 -0.03125000000000005
v 0.46875 1.75 -0.031250000000000056
v 0.46875 1.84375 -0.031250000000000056
vt 0.8984375 0
vt 1 0
vt 1 0.0751953125
vt 0.8984375 0.0751953125
vt 0.888671875 0.0087890625
vt 0.982421875 0.0087890625
vt 0.982421875 0.1142578125
vt 0.888671875 0.1142578125
vt 0.8984375 0
vt 1 0
vt 1 0.0751953125
vt 0.8984375 0.0751953125
vt 0.888671875 0.0087890625
vt 0.982421875 0.0087890625
vt 0.982421875 0.1142578125
vt 0.888671875 0.1142578125
vt 0.8984375 0.0234375
vt 1 0.0234375
vt 1 0.0869140625
vt 0.8984375 0.0869140625
vt 0.8984375 0.0234375
vt 1 0.0234375
vt 1 0.0869140625
vt 0.8984375 0.0869140625
vn 1.6653345369377348e-16 0 1
vn -1 0 0
vn -1.1102230246251565e-16 0 -1
vn 1 0 0
vn 0 1 0
vn 0 -1 0
usemtl m_5b5e0a41-816c-9ca0-add2-67ee1e4537c3
f 139/473/125 140/474/125 141/475/125 142/476/125
f 143/477/126 139/478/126 142/479/126 144/480/126
f 145/481/127 143/482/127 144/483/127 146/484/127
f 140/485/128 145/486/128 146/487/128 141/488/128
f 146/489/129 144/490/129 142/491/129 141/492/129
f 140/493/130 139/494/130 143/495/130 145/496/130
o right
v 0.41462375 0.375 -0.022876250000000053
v 0.42912625 0.375 -0.031250000000000056
v 0.4375 0.375 -5.35782974626967e-17
v 0.41462375 1.75 -0.022876250000000053
v 0.42912625 1.75 -0.031250000000000056
v 0.4375 1.75 -5.35782974626967e-17
v 0.40625 0.375 -0.00837375000000005
v 0.40625 1.75 -0.00837375000000005
v 0.40625 0.375 0.008373749999999949
v 0.40625 1.75 0.008373749999999949
v 0.41462375 0.375 0.02287624999999995
v 0.41462375 1.75 0.02287624999999995
v 0.42912625 0.375 0.031249999999999948
v 0.42912625 1.75 0.031249999999999948
v 0.44587375 0.375 0.031249999999999944
v 0.44587375 1.75 0.031249999999999944
v 0.46037625 0.375 0.022876249999999945
v 0.46037625 1.75 0.022876249999999945
v 0.46875 0.375 0.008373749999999942
v 0.46875 1.75 0.008373749999999942
v 0.46875 0.375 -0.008373750000000056
v 0.46875 1.75 -0.008373750000000056
v 0.46037625 0.375 -0.022876250000000056
v 0.46037625 1.75 -0.022876250000000056
v 0.44587375 0.375 -0.031250000000000056
v 0.44587375 1.75 -0.031250000000000056
vt 0.928846953125 0.11059874999999997
vt 0.925821640625 0.1123046875
vt 0.90625 0.11059874999999997
vt 0.90625 0.0595703125
vt 0.917950078125 0.0595703125
vt 0.917950078125 0.1123046875
vt 0.90625 0.1123046875
vt 0.90625 0.10889249999999995
vt 0.9175475 0.10934976562499998
vt 0.90625 0.1123046875
vt 0.92884875 0.11059882812499999
vt 0.925820078125 0.1123046875
vt 0.90625 0.11059882812499999
vt 0.90625 0.0595703125
vt 0.917950078125 0.0595703125
vt 0.917950078125 0.1123046875
vt 0.90625 0.1123046875
vt 0.90625 0.10889273437500002
vt 0.9175484375 0.10934953125000002
vt 0.90625 0.1123046875
vt 0.9280784375 0.11053804687500002
vt 0.9280784375 0.1123046875
vt 0.90625 0.11142140624999997
vt 0.90625 0.0595703125
vt 0.917950078125 0.0595703125
vt 0.917950078125 0.1123046875
vt 0.90625 0.1123046875
vt 0.9280784375 0.11053804687500002
vt 0.9280784375 0.1123046875
vt 0.90625 0.11142140624999997
vt 0.90625 0.10889273437500002
vt 0.9175484375 0.10934953125000002
vt 0.90625 0.1123046875
vt 0.90625 0.0595703125
vt 0.917950078125 0.0595703125
vt 0.917950078125 0.1123046875
vt 0.90625 0.1123046875
vt 0.92884875 0.11059882812499999
vt 0.925820078125 0.1123046875
vt 0.90625 0.11059882812499999
vt 0.90625 0.10889249999999995
vt 0.9175475 0.10934976562499998
vt 0.90625 0.1123046875
vt 0.90625 0.0595703125
vt 0.917950078125 0.0595703125
vt 0.917950078125 0.1123046875
vt 0.90625 0.1123046875
vt 0.928846953125 0.11059874999999997
vt 0.925821640625 0.1123046875
vt 0.90625 0.11059874999999997
vt 0.90625 0.10900874999999999
vt 0.917950078125 0.10900874999999999
vt 0.9121 0.1123046875
vt 0.90625 0.0595703125
vt 0.917950078125 0.0595703125
vt 0.917950078125 0.1123046875
vt 0.90625 0.1123046875
vt 0.917950078125 0.1123046875
vt 0.90625 0.1123046875
vt 0.9121 0.10900874999999999
vt 0.90625 0.1123046875
vt 0.909275234375 0.11059874999999997
vt 0.928846953125 0.1123046875
vt 0.90625 0.0595703125
vt 0.917950078125 0.0595703125
vt 0.917950078125 0.1123046875
vt 0.90625 0.1123046875
vt 0.9175475 0.1123046875
vt 0.90625 0.11184734375000005
vt 0.9175475 0.10889249999999995
vt 0.90625 0.1123046875
vt 0.90927875 0.11059882812499999
vt 0.92884875 0.1123046875
vt 0.90625 0.0595703125
vt 0.917950078125 0.0595703125
vt 0.917950078125 0.1123046875
vt 0.90625 0.1123046875
vt 0.9175484375 0.1123046875
vt 0.90625 0.111847890625
vt 0.9175484375 0.10889273437500002
vt 0.90625 0.1123046875
vt 0.90625 0.11053804687500002
vt 0.9280784375 0.11142140624999997
vt 0.90625 0.0595703125
vt 0.917950078125 0.0595703125
vt 0.917950078125 0.1123046875
vt 0.90625 0.1123046875
vt 0.90625 0.1123046875
vt 0.90625 0.11053804687500002
vt 0.9280784375 0.11142140624999997
vt 0.9175484375 0.1123046875
vt 0.90625 0.111847890625
vt 0.9175484375 0.10889273437500002
vt 0.90625 0.0595703125
vt 0.917950078125 0.0595703125
vt 0.917950078125 0.1123046875
vt 0.90625 0.1123046875
vt 0.90625 0.1123046875
vt 0.90927875 0.11059882812499999
vt 0.92884875 0.1123046875
vt 0.9175475 0.1123046875
vt 0.90625 0.11184734375000005
vt 0.9175475 0.10889249999999995
vt 0.90625 0.0595703125
vt 0.917950078125 0.0595703125
vt 0.917950078125 0.1123046875
vt 0.90625 0.1123046875
vt 0.90625 0.1123046875
vt 0.909275234375 0.11059874999999997
vt 0.928846953125 0.1123046875
vt 0.917950078125 0.1123046875
vt 0.90625 0.1123046875
vt 0.9121 0.10900874999999999
vt 0.90625 0.0595703125
vt 0.917950078125 0.0595703125
vt 0.917950078125 0.1123046875
vt 0.90625 0.1123046875
vt 0.90625 0.10900874999999999
vt 0.917950078125 0.10900874999999999
vt 0.9121 0.1123046875
vn 0 -1 0
vn -0.5000325911601281 0 -0.8660065864516785
vn 0 1 0
vn 0 -1 0
vn -0.8660065864516785 0 -0.5000325911601278
vn 0 1 0
vn 0 -1 0
vn -1 0 0
vn 0 1 0
vn 0 -1 0
vn -0.8660065864516786 0 0.5000325911601279
vn 0 1 0
vn 0 -1 0
vn -0.5000325911601279 0 0.8660065864516784
vn 0 1 0
vn 0 -1 0
vn 2.071620810242489e-16 0 1
vn 0 1 0
vn 0 -1 0
vn 0.5000325911601279 0 0.8660065864516784
vn 0 1 0
vn 0 -1 0
vn 0.8660065864516785 0 0.5000325911601278
vn 0 1 0
vn 0 -1 0
vn 1 0 0
vn 0 1 0
vn 0 -1 0
vn 0.8660065864516786 0 -0.5000325911601279
vn 0 1 0
vn 0 -1 0
vn 0.5000325911601279 0 -0.8660065864516784
vn 0 1 0
vn 0 -1 0
vn 0 0 -1
vn 0 1 0
usemtl m_5b5e0a41-816c-9ca0-add2-67ee1e4537c3
f 147/497/131 148/498/131 149/499/131
f 148/500/132 147/501/132 150/502/132 151/503/132
f 151/504/133 150/505/133 152/506/133
f 153/507/134 147/508/134 149/509/134
f 147/510/135 153/511/135 154/512/135 150/513/135
f 150/514/136 154/515/136 152/516/136
f 155/517/137 153/518/137 149/519/137
f 153/520/138 155/521/138 156/522/138 154/523/138
f 154/524/139 156/525/139 152/526/139
f 157/527/140 155/528/140 149/529/140
f 155/530/141 157/531/141 158/532/141 156/533/141
f 156/534/142 158/535/142 152/536/142
f 159/537/143 157/538/143 149/539/143
f 157/540/144 159/541/144 160/542/144 158/543/144
f 158/544/145 160/545/145 152/546/145
f 161/547/146 159/548/146 149/549/146
f 159/550/147 161/551/147 162/552/147 160/553/147
f 160/554/148 162/555/148 152/556/148
f 163/557/149 161/558/149 149/559/149
f 161/560/150 163/561/150 164/562/150 162/563/150
f 162/564/151 164/565/151 152/566/151
f 165/567/152 163/568/152 149/569/152
f 163/570/153 165/571/153 166/572/153 164/573/153
f 164/574/154 166/575/154 152/576/154
f 167/577/155 165/578/155 149/579/155
f 165/580/156 167/581/156 168/582/156 166/583/156
f 166/584/157 168/585/157 152/586/157
f 169/587/158 167/588/158 149/589/158
f 167/590/159 169/591/159 170/592/159 168/593/159
f 168/594/160 170/595/160 152/596/160
f 171/597/161 169/598/161 149/599/161
f 169/600/162 171/601/162 172/602/162 170/603/162
f 170/604/163 172/605/163 152/606/163
f 148/607/164 171/608/164 149/609/164
f 171/610/165 148/611/165 151/612/165 172/613/165
f 172/614/166 151/615/166 152/616/166
o cube
v 0.625 1.8125 -0.46875
v 0.625 1.8125 -0.375
v 0.625 1.75 -0.375
v 0.625 1.75 -0.46875
v 0.375 1.75 -0.46875
v 0.375 1.75 -0.375
v 0.375 1.8125 -0.375
v 0.375 1.8125 -0.46875
v 0.375 1.828125 -0.46875
v 0.375 1.859375 -0.453125
v 0.625 1.859375 -0.453125
v 0.625 1.828125 -0.46875
v 0.625 1.75 0.46875
v 0.625 1.8125 0.46875
v 0.375 1.8125 0.46875
v 0.375 1.75 0.46875
v 0.375 1.828125 0.46875
v 0.625 1.828125 0.46875
v 0.625 1.859375 0.453125
v 0.625 1.875 0.421875
v 0.375 1.875 0.421875
v 0.375 1.859375 0.453125
v 0.375 1.8125 0.34375
v 0.375 1.8125 0.375
v 0.375 1.7921875 0.3546875
v 0.375 1.75 0.375
v 0.625 1.7921875 0.3546875
v 0.625 1.75 0.375
v 0.625 1.8125 0.34375
v 0.625 1.8125 0.375
v 0.375 1.8125 0.3125
v 0.375 1.8125 -0.3125
v 0.625 1.8125 -0.3125
v 0.625 1.8125 0.3125
v 0.375 1.8125 0.3125
v 0.375 1.8125 -0.3125
v 0.375 1.875 0.3125
v 0.375 1.875 -0.3125
v 0.625 1.875 0.3125
v 0.625 1.875 -0.3125
v 0.625 1.8125 0.3125
v 0.625 1.8125 -0.3125
v 0.375 1.7921875 -0.3546875
v 0.625 1.7921875 -0.3546875
v 0.375 1.8125 -0.34375
v 0.375 1.875 -0.421875
v 0.625 1.875 -0.421875
v 0.625 1.8125 -0.34375
vt 1 0.109375
vt 0.94140625 0.109375
vt 0.94140625 0.1015625
vt 1 0.1015625
vt 0.8828125 0.1015625
vt 0.94140625 0.1015625
vt 0.94140625 0.109375
vt 0.8828125 0.109375
vt 0.8828125 0.1171875
vt 0.8828125 0.05859375
vt 0.9140625 0.05859375
vt 0.9140625 0.1171875
vt 0.9140625 0
vt 0.9140625 0.05859375
vt 0.8828125 0.05859375
vt 0.8828125 0
vt 0.9140625 0.1015625
vt 0.9140625 0.109375
vt 0.8828125 0.109375
vt 0.8828125 0.1015625
vt 0.9140625 0.1015625
vt 0.9140625 0.109375
vt 0.8828125 0.109375
vt 0.8828125 0.1015625
vt 1 0.1171875
vt 0.94140625 0.1171875
vt 0.94140625 0.109375
vt 1 0.109375
vt 0.8828125 0.1171875
vt 0.8828125 0.109375
vt 0.9140625 0.109375
vt 0.9140625 0.1171875
vt 0.8828125 0.109375
vt 0.94140625 0.109375
vt 0.94140625 0.1171875
vt 0.8828125 0.1171875
vt 0.8828125 0.1171875
vt 0.8828125 0.109375
vt 0.9140625 0.109375
vt 0.9140625 0.1171875
vt 0.9140625 0.029296875
vt 0.9140625 0.03662109375
vt 0.8828125 0.03662109375
vt 0.8828125 0.029296875
vt 0.970703125 0.1171875
vt 0.96337890625 0.1171875
vt 0.96337890625 0.109375
vt 0.970703125 0.109375
vt 0.970703125 0.109375
vt 0.96337890625 0.1015625
vt 0.970703125 0.1015625
vt 0.8828125 0.087890625
vt 0.8828125 0.08056640625
vt 0.9140625 0.08056640625
vt 0.9140625 0.087890625
vt 0.912109375 0.1015625
vt 0.91943359375 0.109375
vt 0.912109375 0.109375
vt 0.912109375 0.109375
vt 0.91943359375 0.109375
vt 0.91943359375 0.1171875
vt 0.912109375 0.1171875
vt 0.9140625 0
vt 0.9140625 0.029296875
vt 0.8828125 0.029296875
vt 0.8828125 0
vt 1 0.1171875
vt 0.970703125 0.1171875
vt 0.970703125 0.109375
vt 1 0.109375
vt 1 0.109375
vt 0.970703125 0.109375
vt 0.970703125 0.1015625
vt 1 0.1015625
vt 0.8828125 0.1171875
vt 0.8828125 0.087890625
vt 0.9140625 0.087890625
vt 0.9140625 0.1171875
vt 0.8828125 0.1015625
vt 0.912109375 0.1015625
vt 0.912109375 0.109375
vt 0.8828125 0.109375
vt 0.8828125 0.109375
vt 0.912109375 0.109375
vt 0.912109375 0.1171875
vt 0.8828125 0.1171875
vt 0.8828125 0.0732421875
vt 0.8828125 0.06591796875
vt 0.9140625 0.06591796875
vt 0.9140625 0.0732421875
vt 0.9560546875 0.109375
vt 0.94873046875 0.1015625
vt 0.94873046875 0.109375
vt 0.9560546875 0.1015625
vt 0.9560546875 0.1171875
vt 0.94873046875 0.1171875
vt 0.94873046875 0.109375
vt 0.9560546875 0.109375
vt 0.9140625 0.0439453125
vt 0.9140625 0.05126953125
vt 0.8828125 0.05126953125
vt 0.8828125 0.0439453125
vt 0.9267578125 0.109375
vt 0.93408203125 0.109375
vt 0.93408203125 0.1171875
vt 0.9267578125 0.1171875
vt 0.9267578125 0.1015625
vt 0.93408203125 0.109375
vt 0.93408203125 0.1015625
vt 0.9267578125 0.109375
vt 0.8828125 0.06591796875
vt 0.8828125 0.062255859375
vt 0.9140625 0.062255859375
vt 0.9140625 0.06591796875
vt 0.94873046875 0.109375
vt 0.945068359375 0.109375
vt 0.945068359375 0.1015625
vt 0.94873046875 0.1015625
vt 0.94873046875 0.1171875
vt 0.945068359375 0.1171875
vt 0.945068359375 0.109375
vt 0.94873046875 0.109375
vt 0.9140625 0.05126953125
vt 0.9140625 0.054931640625
vt 0.8828125 0.054931640625
vt 0.8828125 0.05126953125
vt 0.93408203125 0.109375
vt 0.937744140625 0.109375
vt 0.937744140625 0.1171875
vt 0.93408203125 0.1171875
vt 0.9140625 0.05859375
vt 0.9140625 0.062255859375
vt 0.8828125 0.062255859375
vt 0.8828125 0.05859375
vt 0.94140625 0.1015625
vt 0.945068359375 0.1015625
vt 0.945068359375 0.109375
vt 0.94140625 0.109375
vt 0.945068359375 0.109375
vt 0.945068359375 0.1171875
vt 0.94140625 0.1171875
vt 0.8828125 0.05859375
vt 0.8828125 0.054931640625
vt 0.9140625 0.054931640625
vt 0.9140625 0.05859375
vt 0.94140625 0.1171875
vt 0.937744140625 0.1171875
vt 0.937744140625 0.109375
vt 0.94140625 0.109375
vt 0.94140625 0.109375
vt 0.937744140625 0.109375
vt 0.94140625 0.1015625
vt 0.9140625 0.0732421875
vt 0.9140625 0.08056640625
vt 0.8828125 0.08056640625
vt 0.8828125 0.0732421875
vt 0.9560546875 0.1015625
vt 0.96337890625 0.1015625
vt 0.9560546875 0.109375
vt 0.9560546875 0.109375
vt 0.96337890625 0.109375
vt 0.96337890625 0.1171875
vt 0.9560546875 0.1171875
vt 0.8828125 0.0439453125
vt 0.8828125 0.03662109375
vt 0.9140625 0.03662109375
vt 0.9140625 0.0439453125
vt 0.9267578125 0.1171875
vt 0.91943359375 0.1171875
vt 0.91943359375 0.109375
vt 0.9267578125 0.109375
vt 0.9267578125 0.109375
vt 0.91943359375 0.109375
vt 0.91943359375 0.1015625
vt 0.9267578125 0.1015625
vt 0.912109375 0.1015625
vt 0.91943359375 0.1015625
vt 0.912109375 0.109375
vt 0.8828125 0.11464843749999998
vt 0.8841796875 0.1171875
vt 0.8880859375 0.1171875
vt 0.8880859375 0.1171875
vt 0.94140625 0.109375
vt 0.937744140625 0.1015625
vt 0.94140625 0.1015625
vt 0.945068359375 0.1015625
vt 0.945068359375 0.109375
vt 0.94140625 0.109375
vt 0.8853515625 0.11464843749999998
vt 0.8828125 0.1171875
vt 0.8828125 0.109375
vt 0.9560546875 0.1015625
vt 0.96337890625 0.1015625
vt 0.96337890625 0.109375
vt 0.970703125 0.109375
vt 0.96337890625 0.109375
vt 0.970703125 0.1015625
vn 1 0 0
vn -1 0 0
vn 0 0.44721359549995804 -0.8944271909999161
vn 0 -1 0
vn 0 0 1
vn 0 0 -1
vn 1 0 0
vn 0 0 -1
vn -1 0 0
vn 0 0 1
vn 0 0.8944271909999161 0.44721359549995804
vn -1 0 0
vn -1 0 0
vn 0 -0.43381561877289976 -0.9010016697591
vn 1 0 0
vn 1 0 0
vn 0 0.44721359549995804 0.8944271909999161
vn -1 0 0
vn -1 0 0
vn 0 -1 0
vn 1 0 0
vn 1 0 0
vn 0 -1 0
vn 0 0 0
vn -1 0 0
vn 0 1 0
vn 1 0 0
vn 0 0 0
vn 0 -0.9010016697591001 0.4338156187728992
vn -1 0 0
vn -1 0 0
vn 0 1 0
vn 1 0 0
vn 0 -0.43381561877289976 0.9010016697591
vn 1 0 0
vn -1 0 0
vn 0 0.8944271909999161 -0.44721359549995804
vn 1 0 0
vn 1 0 0
vn 0 -0.9010016697591001 -0.4338156187728992
vn 0 0 0
vn -1 0 0
vn 0 1 0
vn 1 0 0
vn 1 0 0
vn 1 0 0
vn 1 0 0
vn 1 0 0
vn -1 0 0
vn -1 0 0
vn -1 0 0
vn -1 0 0
usemtl m_5b5e0a41-816c-9ca0-add2-67ee1e4537c3
f 173/617/167 174/618/167 175/619/167 176/620/167
f 177/621/168 178/622/168 179/623/168 180/624/168
f 181/625/169 182/626/169 183/627/169 184/628/169
f 176/629/170 175/630/170 178/631/170 177/632/170
f 185/633/171 186/634/171 187/635/171 188/636/171
f 177/637/172 180/638/172 173/639/172 176/640/172
f 184/641/173 183/642/173 174/643/173 173/644/173
f 184/645/174 173/646/174 180/647/174 181/648/174
f 180/649/175 179/650/175 182/651/175 181/652/175
f 189/653/176 187/654/176 186/655/176 190/656/176
f 191/657/177 192/658/177 193/659/177 194/660/177
f 194/661/178 193/662/178 195/663/178 196/664/178
f 196/665/179 197/666/179 198/667/179
f 198/668/180 197/669/180 199/670/180 200/671/180
f 200/672/181 201/673/181 202/674/181
f 202/675/182 201/676/182 192/677/182 191/678/182
f 190/679/183 191/680/183 194/681/183 189/682/183
f 189/683/184 194/684/184 196/685/184 187/686/184
f 187/687/185 196/688/185 198/689/185 188/690/185
f 188/691/186 198/692/186 200/693/186 185/694/186
f 185/695/187 200/696/187 202/697/187 186/698/187
f 186/699/188 202/700/188 191/701/188 190/702/188
f 203/703/189 204/704/189 205/705/189 206/706/189
f 207/707/190 204/708/190 208/709/190 203/710/190
f 209/711/191 210/712/191 208/713/191 207/714/191
f 211/715/192 212/716/192 210/717/192 209/718/192
f 213/719/193 214/720/193 212/721/193 211/722/193
f 206/723/194 214/724/194 205/725/194 213/726/194
f 204/727/195 215/728/195 216/729/195 205/730/195
f 208/731/196 217/732/196 215/733/196 204/734/196
f 210/735/197 218/736/197 217/737/197 208/738/197
f 212/739/198 219/740/198 218/741/198 210/742/198
f 214/743/199 220/744/199 219/745/199 212/746/199
f 175/747/200 216/748/200 215/749/200 178/750/200
f 178/751/201 215/752/201 217/753/201
f 179/754/202 217/755/202 218/756/202 182/757/202
f 182/758/203 218/759/203 219/760/203 183/761/203
f 183/762/204 219/763/204 220/764/204 174/765/204
f 174/766/205 220/767/205 175/768/205
f 206/769/206 199/770/206 197/771/206 203/772/206
f 203/773/207 197/774/207 207/775/207
f 207/776/208 195/777/208 193/778/208 209/779/208
f 209/780/209 193/781/209 192/782/209 211/783/209
f 211/784/210 192/785/210 201/786/210 213/787/210
f 213/788/211 201/789/211 199/790/211 206/791/211
f 200/792/212 199/793/212 202/794/212
f 216/795/213 220/796/213 214/797/213 205/798/213
f 174/799/214 216/800/214 175/801/214
f 215/802/215 217/803/215 179/804/215
f 215/805/216 179/806/216 178/807/216
f 203/808/217 197/809/217 195/810/217
f 196/811/218 195/812/218 198/813/218
o cube
v -0.375 1.8125 -0.46875
v -0.375 1.8125 -0.375
v -0.375 1.75 -0.375
v -0.375 1.75 -0.46875
v -0.625 1.75 -0.46875
v -0.625 1.75 -0.375
v -0.625 1.8125 -0.375
v -0.625 1.8125 -0.46875
v -0.625 1.828125 -0.46875
v -0.625 1.859375 -0.453125
v -0.375 1.859375 -0.453125
v -0.375 1.828125 -0.46875
v -0.375 1.75 0.46875
v -0.375 1.8125 0.46875
v -0.625 1.8125 0.46875
v -0.625 1.75 0.46875
v -0.625 1.828125 0.46875
v -0.375 1.828125 0.46875
v -0.375 1.859375 0.453125
v -0.375 1.875 0.421875
v -0.625 1.875 0.421875
v -0.625 1.859375 0.453125
v -0.625 1.8125 0.34375
v -0.625 1.8125 0.375
v -0.625 1.7921875 0.3546875
v -0.625 1.75 0.375
v -0.375 1.7921875 0.3546875
v -0.375 1.75 0.375
v -0.375 1.8125 0.34375
v -0.375 1.8125 0.375
v -0.625 1.8125 0.3125
v -0.625 1.8125 -0.3125
v -0.375 1.8125 -0.3125
v -0.375 1.8125 0.3125
v -0.625 1.8125 0.3125
v -0.625 1.8125 -0.3125
v -0.625 1.875 0.3125
v -0.625 1.875 -0.3125
v -0.375 1.875 0.3125
v -0.375 1.875 -0.3125
v -0.375 1.8125 0.3125
v -0.375 1.8125 -0.3125
v -0.625 1.7921875 -0.3546875
v -0.375 1.7921875 -0.3546875
v -0.625 1.8125 -0.34375
v -0.625 1.875 -0.421875
v -0.375 1.875 -0.421875
v -0.375 1.8125 -0.34375
vt 1 0.109375
vt 0.94140625 0.109375
vt 0.94140625 0.1015625
vt 1 0.1015625
vt 0.8828125 0.1015625
vt 0.94140625 0.1015625
vt 0.94140625 0.109375
vt 0.8828125 0.109375
vt 0.8828125 0.1171875
vt 0.8828125 0.05859375
vt 0.9140625 0.05859375
vt 0.9140625 0.1171875
vt 0.9140625 0
vt 0.9140625 0.05859375
vt 0.8828125 0.05859375
vt 0.8828125 0
vt 0.9140625 0.1015625
vt 0.9140625 0.109375
vt 0.8828125 0.109375
vt 0.8828125 0.1015625
vt 0.9140625 0.1015625
vt 0.9140625 0.109375
vt 0.8828125 0.109375
vt 0.8828125 0.1015625
vt 1 0.1171875
vt 0.94140625 0.1171875
vt 0.94140625 0.109375
vt 1 0.109375
vt 0.8828125 0.1171875
vt 0.8828125 0.109375
vt 0.9140625 0.109375
vt 0.9140625 0.1171875
vt 0.8828125 0.109375
vt 0.94140625 0.109375
vt 0.94140625 0.1171875
vt 0.8828125 0.1171875
vt 0.8828125 0.1171875
vt 0.8828125 0.109375
vt 0.9140625 0.109375
vt 0.9140625 0.1171875
vt 0.9140625 0.029296875
vt 0.9140625 0.03662109375
vt 0.8828125 0.03662109375
vt 0.8828125 0.029296875
vt 0.970703125 0.1171875
vt 0.96337890625 0.1171875
vt 0.96337890625 0.109375
vt 0.970703125 0.109375
vt 0.970703125 0.109375
vt 0.96337890625 0.1015625
vt 0.970703125 0.1015625
vt 0.8828125 0.087890625
vt 0.8828125 0.08056640625
vt 0.9140625 0.08056640625
vt 0.9140625 0.087890625
vt 0.912109375 0.1015625
vt 0.91943359375 0.109375
vt 0.912109375 0.109375
vt 0.912109375 0.109375
vt 0.91943359375 0.109375
vt 0.91943359375 0.1171875
vt 0.912109375 0.1171875
vt 0.9140625 0
vt 0.9140625 0.029296875
vt 0.8828125 0.029296875
vt 0.8828125 0
vt 1 0.1171875
vt 0.970703125 0.1171875
vt 0.970703125 0.109375
vt 1 0.109375
vt 1 0.109375
vt 0.970703125 0.109375
vt 0.970703125 0.1015625
vt 1 0.1015625
vt 0.8828125 0.1171875
vt 0.8828125 0.087890625
vt 0.9140625 0.087890625
vt 0.9140625 0.1171875
vt 0.8828125 0.1015625
vt 0.912109375 0.1015625
vt 0.912109375 0.109375
vt 0.8828125 0.109375
vt 0.8828125 0.109375
vt 0.912109375 0.109375
vt 0.912109375 0.1171875
vt 0.8828125 0.1171875
vt 0.8828125 0.0732421875
vt 0.8828125 0.06591796875
vt 0.9140625 0.06591796875
vt 0.9140625 0.0732421875
vt 0.9560546875 0.109375
vt 0.94873046875 0.1015625
vt 0.94873046875 0.109375
vt 0.9560546875 0.1015625
vt 0.9560546875 0.1171875
vt 0.94873046875 0.1171875
vt 0.94873046875 0.109375
vt 0.9560546875 0.109375
vt 0.9140625 0.0439453125
vt 0.9140625 0.05126953125
vt 0.8828125 0.05126953125
vt 0.8828125 0.0439453125
vt 0.9267578125 0.109375
vt 0.93408203125 0.109375
vt 0.93408203125 0.1171875
vt 0.9267578125 0.1171875
vt 0.9267578125 0.1015625
vt 0.93408203125 0.109375
vt 0.93408203125 0.1015625
vt 0.9267578125 0.109375
vt 0.8828125 0.06591796875
vt 0.8828125 0.062255859375
vt 0.9140625 0.062255859375
vt 0.9140625 0.06591796875
vt 0.94873046875 0.109375
vt 0.945068359375 0.109375
vt 0.945068359375 0.1015625
vt 0.94873046875 0.1015625
vt 0.94873046875 0.1171875
vt 0.945068359375 0.1171875
vt 0.945068359375 0.109375
vt 0.94873046875 0.109375
vt 0.9140625 0.05126953125
vt 0.9140625 0.054931640625
vt 0.8828125 0.054931640625
vt 0.8828125 0.05126953125
vt 0.93408203125 0.109375
vt 0.937744140625 0.109375
vt 0.937744140625 0.1171875
vt 0.93408203125 0.1171875
vt 0.9140625 0.05859375
vt 0.9140625 0.062255859375
vt 0.8828125 0.062255859375
vt 0.8828125 0.05859375
vt 0.94140625 0.1015625
vt 0.945068359375 0.1015625
vt 0.945068359375 0.109375
vt 0.94140625 0.109375
vt 0.945068359375 0.109375
vt 0.945068359375 0.1171875
vt 0.94140625 0.1171875
vt 0.8828125 0.05859375
vt 0.8828125 0.054931640625
vt 0.9140625 0.054931640625
vt 0.9140625 0.05859375
vt 0.94140625 0.1171875
vt 0.937744140625 0.1171875
vt 0.937744140625 0.109375
vt 0.94140625 0.109375
vt 0.94140625 0.109375
vt 0.937744140625 0.109375
vt 0.94140625 0.1015625
vt 0.9140625 0.0732421875
vt 0.9140625 0.08056640625
vt 0.8828125 0.08056640625
vt 0.8828125 0.0732421875
vt 0.9560546875 0.1015625
vt 0.96337890625 0.1015625
vt 0.9560546875 0.109375
vt 0.9560546875 0.109375
vt 0.96337890625 0.109375
vt 0.96337890625 0.1171875
vt 0.9560546875 0.1171875
vt 0.8828125 0.0439453125
vt 0.8828125 0.03662109375
vt 0.9140625 0.03662109375
vt 0.9140625 0.0439453125
vt 0.9267578125 0.1171875
vt 0.91943359375 0.1171875
vt 0.91943359375 0.109375
vt 0.9267578125 0.109375
vt 0.9267578125 0.109375
vt 0.91943359375 0.109375
vt 0.91943359375 0.1015625
vt 0.9267578125 0.1015625
vt 0.912109375 0.1015625
vt 0.91943359375 0.1015625
vt 0.912109375 0.109375
vt 0.8828125 0.11464843749999998
vt 0.8841796875 0.1171875
vt 0.8880859375 0.1171875
vt 0.8880859375 0.1171875
vt 0.94140625 0.109375
vt 0.937744140625 0.1015625
vt 0.94140625 0.1015625
vt 0.945068359375 0.1015625
vt 0.945068359375 0.109375
vt 0.94140625 0.109375
vt 0.8853515625 0.11464843749999998
vt 0.8828125 0.1171875
vt 0.8828125 0.109375
vt 0.9560546875 0.1015625
vt 0.96337890625 0.1015625
vt 0.96337890625 0.109375
vt 0.970703125 0.109375
vt 0.96337890625 0.109375
vt 0.970703125 0.1015625
vn 1 0 0
vn -1 0 0
vn 0 0.44721359549995804 -0.8944271909999161
vn 0 -1 0
vn 0 0 1
vn 0 0 -1
vn 1 0 0
vn 0 0 -1
vn -1 0 0
vn 0 0 1
vn 0 0.8944271909999161 0.44721359549995804
vn -1 0 0
vn -1 0 0
vn 0 -0.43381561877289976 -0.9010016697591
vn 1 0 0
vn 1 0 0
vn 0 0.44721359549995804 0.8944271909999161
vn -1 0 0
vn -1 0 0
vn 0 -1 0
vn 1 0 0
vn 1 0 0
vn 0 -1 0
vn 0 0 0
vn -1 0 0
vn 0 1 0
vn 1 0 0
vn 0 0 0
vn 0 -0.9010016697591001 0.4338156187728992
vn -1 0 0
vn -1 0 0
vn 0 1 0
vn 1 0 0
vn 0 -0.43381561877289976 0.9010016697591
vn 1 0 0
vn -1 0 0
vn 0 0.8944271909999161 -0.44721359549995804
vn 1 0 0
vn 1 0 0
vn 0 -0.9010016697591001 -0.4338156187728992
vn 0 0 0
vn -1 0 0
vn 0 1 0
vn 1 0 0
vn 1 0 0
vn 1 0 0
vn 1 0 0
vn 1 0 0
vn -1 0 0
vn -1 0 0
vn -1 0 0
vn -1 0 0
usemtl m_5b5e0a41-816c-9ca0-add2-67ee1e4537c3
f 221/814/219 222/815/219 223/816/219 224/817/219
f 225/818/220 226/819/220 227/820/220 228/821/220
f 229/822/221 230/823/221 231/824/221 232/825/221
f 224/826/222 223/827/222 226/828/222 225/829/222
f 233/830/223 234/831/223 235/832/223 236/833/223
f 225/834/224 228/835/224 221/836/224 224/837/224
f 232/838/225 231/839/225 222/840/225 221/841/225
f 232/842/226 221/843/226 228/844/226 229/845/226
f 228/846/227 227/847/227 230/848/227 229/849/227
f 237/850/228 235/851/228 234/852/228 238/853/228
f 239/854/229 240/855/229 241/856/229 242/857/229
f 242/858/230 241/859/230 243/860/230 244/861/230
f 244/862/231 245/863/231 246/864/231
f 246/865/232 245/866/232 247/867/232 248/868/232
f 248/869/233 249/870/233 250/871/233
f 250/872/234 249/873/234 240/874/234 239/875/234
f 238/876/235 239/877/235 242/878/235 237/879/235
f 237/880/236 242/881/236 244/882/236 235/883/236
f 235/884/237 244/885/237 246/886/237 236/887/237
f 236/888/238 246/889/238 248/890/238 233/891/238
f 233/892/239 248/893/239 250/894/239 234/895/239
f 234/896/240 250/897/240 239/898/240 238/899/240
f 251/900/241 252/901/241 253/902/241 254/903/241
f 255/904/242 252/905/242 256/906/242 251/907/242
f 257/908/243 258/909/243 256/910/243 255/911/243
f 259/912/244 260/913/244 258/914/244 257/915/244
f 261/916/245 262/917/245 260/918/245 259/919/245
f 254/920/246 262/921/246 253/922/246 261/923/246
f 252/924/247 263/925/247 264/926/247 253/927/247
f 256/928/248 265/929/248 263/930/248 252/931/248
f 258/932/249 266/933/249 265/934/249 256/935/249
f 260/936/250 267/937/250 266/938/250 258/939/250
f 262/940/251 268/941/251 267/942/251 260/943/251
f 223/944/252 264/945/252 263/946/252 226/947/252
f 226/948/253 263/949/253 265/950/253
f 227/951/254 265/952/254 266/953/254 230/954/254
f 230/955/255 266/956/255 267/957/255 231/958/255
f 231/959/256 267/960/256 268/961/256 222/962/256
f 222/963/257 268/964/257 223/965/257
f 254/966/258 247/967/258 245/968/258 251/969/258
f 251/970/259 245/971/259 255/972/259
f 255/973/260 243/974/260 241/975/260 257/976/260
f 257/977/261 241/978/261 240/979/261 259/980/261
f 259/981/262 240/982/262 249/983/262 261/984/262
f 261/985/263 249/986/263 247/987/263 254/988/263
f 248/989/264 247/990/264 250/991/264
f 264/992/265 268/993/265 262/994/265 253/995/265
f 222/996/266 264/997/266 223/998/266
f 263/999/267 265/1000/267 227/1001/267
f 263/1002/268 227/1003/268 226/1004/268
f 251/1005/269 245/1006/269 243/1007/269
f 244/1008/270 243/1009/270 246/1010/270