# Made in Blockbench 5.1.6
mtllib nyc_subway_entrance_2_fence_1.mtl

o cube
v 0.5 0 0.15625
v 0.5 0 -0.15625
v -0.5 0 0.15625
v -0.5 0 -0.15625
v 0.5 0.171875 -0.15625
v 0.5 0.171875 0.15625
v -0.5 0.171875 0.15625
v -0.5 0.171875 -0.15625
vt 1 0.625
vt 1 0.9375
vt 0 0.9375
vt 0 0.625
vt 0.375 0.71875
vt 0.375 0.875
vt 0.0625 0.875
vt 0.0625 0.71875
vt 1 0.71875
vt 1 0.875
vt 0 0.875
vt 0 0.71875
vt 0.375 0.71875
vt 0.375 0.875
vt 0.0625 0.875
vt 0.0625 0.71875
vt 1 0.71875
vt 1 0.875
vt 0 0.875
vt 0 0.71875
vt 1 0.6875
vt 1 1
vt 0 1
vt 0 0.6875
vn 0 -1 0
vn 1 0 0
vn 0 0 1
vn -1 0 0
vn 0 0 -1
vn 0 1 0
usemtl m_e70d8a61-7516-cbc3-246b-546d68436d1f
f 2/1/1 1/2/1 3/3/1 4/4/1
f 2/5/2 5/6/2 6/7/2 1/8/2
f 1/9/3 6/10/3 7/11/3 3/12/3
f 3/13/4 7/14/4 8/15/4 4/16/4
f 4/17/5 8/18/5 5/19/5 2/20/5
f 6/21/6 5/22/6 8/23/6 7/24/6
o cube
v 0.5 1 0.0078125
v 0.5 1 -0.0078125
v 0.5 0.171875 0.0078125
v 0.5 0.171875 -0.0078125
v -0.5 1 -0.0078125
v -0.5 1 0.0078125
v -0.5 0.171875 -0.0078125
v -0.5 0.171875 0.0078125
vt 0.0234375 1
vt 0.9765625 1
vt 0.9765625 0.171875
vt 0.0234375 0.171875
vt 0 0.984375
vt 0.015625 0.984375
vt 0.015625 0.15625
vt 0 0.15625
vt 0.03125 1
vt 0.9765625 1
vt 0.9765625 0.171875
vt 0.03125 0.171875
vt 0 0.984375
vt 0.015625 0.984375
vt 0.015625 0.15625
vt 0 0.15625
vt 0 1
vt 1 1
vt 1 0.984375
vt 0 0.984375
vt 0 0.953125
vt 1 0.953125
vt 1 0.9375
vt 0 0.9375
vn 0 0 -1
vn 1 0 0
vn 0 0 1
vn -1 0 0
vn 0 1 0
vn 0 -1 0
usemtl m_17109026-49f5-5767-fb74-fa869e902a8d
f 12/28/7 15/27/7 13/26/7 10/25/7
f 11/32/8 12/31/8 10/30/8 9/29/8
f 16/36/9 11/35/9 9/34/9 14/33/9
f 15/40/10 16/39/10 14/38/10 13/37/10
f 14/44/11 9/43/11 10/42/11 13/41/11
f 15/48/12 12/47/12 11/46/12 16/45/12