# Made in Blockbench 5.1.6
mtllib nyc_subway_emergency_exit_door_open.mtl

o cube
v 0.4296875 1.9375 1.734723475976807e-18
v 0.4453125 1.9375 -1.734723475976807e-18
v 0.4296875 0 1.734723475976807e-18
v 0.4453125 0 -1.734723475976807e-18
v 0.4453124999999998 1.9375 -0.875
v 0.4296874999999998 1.9375 -0.875
v 0.4453124999999998 0 -0.875
v 0.4296874999999998 0 -0.875
vt 0 1
vt 1 1
vt 1 0
vt 0 0
vt 0.9850520833333334 1
vt 1 1
vt 1 0.5733333333333333
vt 0.9850520833333334 0.5733333333333333
vt 0 1
vt 1 1
vt 1 0
vt 0 0
vt 0.9889583333333334 1
vt 1 1
vt 1 0.5733333333333333
vt 0.9889583333333334 0.5733333333333333
vt 0.9811458333333334 1
vt 1 1
vt 1 0.5733333333333333
vt 0.9811458333333334 0.5733333333333333
vt 0.9811458333333334 0.9970833333333333
vt 1 0.9970833333333333
vt 1 0.5704166666666667
vt 0.9811458333333334 0.5704166666666667
vn 1 0 -2.220446049250313e-16
vn 2.220446049250313e-16 0 1
vn -1 0 2.220446049250313e-16
vn -2.220446049250313e-16 0 -1
vn 0 1 0
vn 0 -1 0
usemtl m_a95a18a0-ed1e-e686-2f0c-a4da00779607
f 4/4/1 7/3/1 5/2/1 2/1/1
f 3/8/2 4/7/2 2/6/2 1/5/2
f 8/12/3 3/11/3 1/10/3 6/9/3
f 7/16/4 8/15/4 6/14/4 5/13/4
f 6/20/5 1/19/5 2/18/5 5/17/5
f 7/24/6 4/23/6 3/22/6 8/21/6
o cube
v 0.5 2 0.015625
v 0.5 2 -0.015625
v 0.5 0 0.015625
v 0.5 0 -0.015625
v 0.4375 2 -0.015625
v 0.4375 2 0.015625
v 0.4375 0 -0.015625
v 0.4375 0 0.015625
vt 0 1
vt 0.0033333333333333335 1
vt 0.0033333333333333335 0.9466666666666667
vt 0 0.9466666666666667
vt 0.0025 1
vt 0.004166666666666667 1
vt 0.004166666666666667 0.9466666666666667
vt 0.0025 0.9466666666666667
vt 0.0033333333333333335 1
vt 0.006666666666666667 1
vt 0.006666666666666667 0.9466666666666667
vt 0.0033333333333333335 0.9466666666666667
vt 0.0025 1
vt 0.004166666666666667 1
vt 0.004166666666666667 0.9466666666666667
vt 0.0025 0.9466666666666667
vt 0.0033333333333333335 0.99875
vt 0.006666666666666667 0.99875
vt 0.006666666666666667 0.9979166666666667
vt 0.0033333333333333335 0.9979166666666667
vt 0.0033333333333333335 0.99875
vt 0.006666666666666667 0.99875
vt 0.006666666666666667 0.9979166666666667
vt 0.0033333333333333335 0.9979166666666667
vn 0 0 -1
vn 1 0 0
vn 0 0 1
vn -1 0 0
vn 0 1 0
vn 0 -1 0
usemtl m_a95a18a0-ed1e-e686-2f0c-a4da00779607
f 12/28/7 15/27/7 13/26/7 10/25/7
f 11/32/8 12/31/8 10/30/8 9/29/8
f 16/36/9 11/35/9 9/34/9 14/33/9
f 15/40/10 16/39/10 14/38/10 13/37/10
f 14/44/11 9/43/11 10/42/11 13/41/11
f 15/48/12 12/47/12 11/46/12 16/45/12
o cube
v -0.4375 2 0.015625
v -0.4375 2 -0.015625
v -0.4375 0 0.015625
v -0.4375 0 -0.015625
v -0.5 2 -0.015625
v -0.5 2 0.015625
v -0.5 0 -0.015625
v -0.5 0 0.015625
vt 0 1
vt 0.0033333333333333335 1
vt 0.0033333333333333335 0.9466666666666667
vt 0 0.9466666666666667
vt 0.0025 1
vt 0.004166666666666667 1
vt 0.004166666666666667 0.9466666666666667
vt 0.0025 0.9466666666666667
vt 0.0033333333333333335 1
vt 0.006666666666666667 1
vt 0.006666666666666667 0.9466666666666667
vt 0.0033333333333333335 0.9466666666666667
vt 0.0025 1
vt 0.004166666666666667 1
vt 0.004166666666666667 0.9466666666666667
vt 0.0025 0.9466666666666667
vt 0.0033333333333333335 0.99875
vt 0.006666666666666667 0.99875
vt 0.006666666666666667 0.9979166666666667
vt 0.0033333333333333335 0.9979166666666667
vt 0.0033333333333333335 0.99875
vt 0.006666666666666667 0.99875
vt 0.006666666666666667 0.9979166666666667
vt 0.0033333333333333335 0.9979166666666667
vn 0 0 -1
vn 1 0 0
vn 0 0 1
vn -1 0 0
vn 0 1 0
vn 0 -1 0
usemtl m_a95a18a0-ed1e-e686-2f0c-a4da00779607
f 20/52/13 23/51/13 21/50/13 18/49/13
f 19/56/14 20/55/14 18/54/14 17/53/14
f 24/60/15 19/59/15 17/58/15 22/57/15
f 23/64/16 24/63/16 22/62/16 21/61/16
f 22/68/17 17/67/17 18/66/17 21/65/17
f 23/72/18 20/71/18 19/70/18 24/69/18
o cube
v 0.4375 2 0.015625
v 0.4375 2 -0.015625
v 0.4375 1.9375 0.015625
v 0.4375 1.9375 -0.015625
v -0.4375 2 -0.015625
v -0.4375 2 0.015625
v -0.4375 1.9375 -0.015625
v -0.4375 1.9375 0.015625
vt 0 1
vt 0.04666666666666667 1
vt 0.04666666666666667 0.9983333333333333
vt 0 0.9983333333333333
vt 0.0025 1
vt 0.004166666666666667 1
vt 0.004166666666666667 0.9983333333333333
vt 0.0025 0.9983333333333333
vt 0.006666666666666667 1
vt 0.05333333333333334 1
vt 0.05333333333333334 0.9983333333333333
vt 0.006666666666666667 0.9983333333333333
vt 0.0025 1
vt 0.004166666666666667 1
vt 0.004166666666666667 0.9983333333333333
vt 0.0025 0.9983333333333333
vt 0.006666666666666667 0.99875
vt 0.05333333333333334 0.99875
vt 0.05333333333333334 0.9979166666666667
vt 0.006666666666666667 0.9979166666666667
vt 0.006666666666666667 0.99875
vt 0.05333333333333334 0.99875
vt 0.05333333333333334 0.9979166666666667
vt 0.006666666666666667 0.9979166666666667
vn 0 0 -1
vn 1 0 0
vn 0 0 1
vn -1 0 0
vn 0 1 0
vn 0 -1 0
usemtl m_a95a18a0-ed1e-e686-2f0c-a4da00779607
f 28/76/19 31/75/19 29/74/19 26/73/19
f 27/80/20 28/79/20 26/78/20 25/77/20
f 32/84/21 27/83/21 25/82/21 30/81/21
f 31/88/22 32/87/22 30/86/22 29/85/22
f 30/92/23 25/91/23 26/90/23 29/89/23
f 31/96/24 28/95/24 27/94/24 32/93/24
o cube
v 0.3984375 0.9906250000000003 -0.034374999999999926
v 0.4296875 0.9906250000000003 -0.03437499999999993
v 0.3984375 0.9312499999999999 -0.034374999999999926
v 0.4296875 0.9312499999999999 -0.03437499999999993
v 0.42968749999999983 0.9906250000000003 -0.840625
v 0.39843749999999983 0.9906250000000003 -0.840625
v 0.42968749999999983 0.9312499999999999 -0.840625
v 0.39843749999999983 0.9312499999999999 -0.840625
vt 0.484375 0.4960039062500001
vt 0.6212122905027933 0.4960039062500001
vt 0.6212122905027933 0.4888541666666667
vt 0.484375 0.4888541666666667
vt 0.500286312849162 0.4960039062500001
vt 0.5055900837988827 0.4960039062500001
vt 0.5055900837988827 0.4888541666666667
vt 0.500286312849162 0.4888541666666667
vt 0.48994395949720676 0.4960039062500001
vt 0.6267812500000001 0.4960039062500001
vt 0.6267812500000001 0.4888541666666667
vt 0.48994395949720676 0.4888541666666667
vt 0.484375 0.4960039062500001
vt 0.4896787709497207 0.4960039062500001
vt 0.4896787709497207 0.4888541666666667
vt 0.484375 0.4888541666666667
vt 0.48994395949720676 0.50390625
vt 0.6267812500000001 0.50390625
vt 0.6267812500000001 0.5001432291666666
vt 0.48994395949720676 0.5001432291666666
vt 0.48994395949720676 0.49261718750000005
vt 0.6267812500000001 0.49261718750000005
vt 0.6267812500000001 0.4888541666666667
vt 0.48994395949720676 0.4888541666666667
vn 1 0 -2.220446049250313e-16
vn 2.220446049250313e-16 0 1
vn -1 0 2.220446049250313e-16
vn -2.220446049250313e-16 0 -1
vn 0 1 0
vn 0 -1 0
usemtl m_a95a18a0-ed1e-e686-2f0c-a4da00779607
f 36/100/25 39/99/25 37/98/25 34/97/25
f 35/104/26 36/103/26 34/102/26 33/101/26
f 40/108/27 35/107/27 33/106/27 38/105/27
f 39/112/28 40/111/28 38/110/28 37/109/28
f 38/116/29 33/115/29 34/114/29 37/113/29
f 39/120/30 36/119/30 35/118/30 40/117/30
o cube
v 0.4453125 0.9906250000000003 -0.03437499999999993
v 0.4765625 0.9906250000000003 -0.03437499999999994
v 0.4453125 0.9312499999999999 -0.03437499999999993
v 0.4765625 0.9312499999999999 -0.03437499999999994
v 0.47656249999999983 0.9906250000000003 -0.840625
v 0.44531249999999983 0.9906250000000003 -0.840625
v 0.47656249999999983 0.9312499999999999 -0.840625
v 0.44531249999999983 0.9312499999999999 -0.840625
vt 0.484375 0.4960039062500001
vt 0.6212122905027933 0.4960039062500001
vt 0.6212122905027933 0.4888541666666667
vt 0.484375 0.4888541666666667
vt 0.500286312849162 0.4960039062500001
vt 0.5055900837988827 0.4960039062500001
vt 0.5055900837988827 0.4888541666666667
vt 0.500286312849162 0.4888541666666667
vt 0.48994395949720676 0.4960039062500001
vt 0.6267812500000001 0.4960039062500001
vt 0.6267812500000001 0.4888541666666667
vt 0.48994395949720676 0.4888541666666667
vt 0.484375 0.4960039062500001
vt 0.4896787709497207 0.4960039062500001
vt 0.4896787709497207 0.4888541666666667
vt 0.484375 0.4888541666666667
vt 0.48994395949720676 0.50390625
vt 0.6267812500000001 0.50390625
vt 0.6267812500000001 0.5001432291666666
vt 0.48994395949720676 0.5001432291666666
vt 0.48994395949720676 0.49261718750000005
vt 0.6267812500000001 0.49261718750000005
vt 0.6267812500000001 0.4888541666666667
vt 0.48994395949720676 0.4888541666666667
vn 1 0 -2.220446049250313e-16
vn 2.220446049250313e-16 0 1
vn -1 0 2.220446049250313e-16
vn -2.220446049250313e-16 0 -1
vn 0 1 0
vn 0 -1 0
usemtl m_a95a18a0-ed1e-e686-2f0c-a4da00779607
f 44/124/31 47/123/31 45/122/31 42/121/31
f 43/128/32 44/127/32 42/126/32 41/125/32
f 48/132/33 43/131/33 41/130/33 46/129/33
f 47/136/34 48/135/34 46/134/34 45/133/34
f 46/140/35 41/139/35 42/138/35 45/137/35
f 47/144/36 44/143/36 43/142/36 48/141/36