# Made in Blockbench 5.1.6
mtllib nyc_subway_entrance_1_globe_light_1y_light_layer.mtl

o sphere
v 1.5439038936193581e-18 1.9684375 1.73472347597677e-20
v 1.5439038936193581e-18 2.4690625 1.73472347597677e-20
v 0.03353551611520768 2.435526983884792 0.12515624999999997
v 0.05808521776958458 2.34390625 0.21677698388479227
v 0.06707103223041538 2.21875 0.2503125
v 0.05808521776958459 2.09359375 0.21677698388479233
v 0.03353551611520768 2.001973016115208 0.12515624999999997
v 0.09162073388479224 2.435526983884792 0.09162073388479226
v 0.1586917661152077 2.34390625 0.1586917661152077
v 0.1832414677695845 2.21875 0.1832414677695846
v 0.1586917661152077 2.09359375 0.1586917661152077
v 0.09162073388479224 2.001973016115208 0.09162073388479226
v 0.12515624999999994 2.435526983884792 0.033535516115207685
v 0.21677698388479222 2.34390625 0.058085217769584585
v 0.2503125 2.21875 0.06707103223041538
v 0.21677698388479233 2.09359375 0.05808521776958459
v 0.12515624999999994 2.001973016115208 0.033535516115207685
v 0.12515624999999994 2.435526983884792 -0.0335355161152077
v 0.21677698388479222 2.34390625 -0.05808521776958461
v 0.2503125 2.21875 -0.06707103223041541
v 0.21677698388479233 2.09359375 -0.05808521776958462
v 0.12515624999999994 2.001973016115208 -0.0335355161152077
v 0.09162073388479224 2.435526983884792 -0.09162073388479225
v 0.1586917661152077 2.34390625 -0.1586917661152077
v 0.18324146776958458 2.21875 -0.18324146776958455
v 0.1586917661152077 2.09359375 -0.1586917661152077
v 0.09162073388479224 2.001973016115208 -0.09162073388479225
v 0.03353551611520772 2.435526983884792 -0.1251562499999999
v 0.05808521776958464 2.34390625 -0.21677698388479222
v 0.06707103223041545 2.21875 -0.25031249999999994
v 0.058085217769584654 2.09359375 -0.21677698388479227
v 0.03353551611520772 2.001973016115208 -0.1251562499999999
v -0.03353551611520763 2.435526983884792 -0.12515624999999997
v -0.058085217769584495 2.34390625 -0.21677698388479227
v -0.06707103223041529 2.21875 -0.2503125
v -0.05808521776958451 2.09359375 -0.21677698388479233
v -0.03353551611520763 2.001973016115208 -0.12515624999999997
v -0.09162073388479224 2.435526983884792 -0.09162073388479228
v -0.1586917661152076 2.34390625 -0.15869176611520774
v -0.1832414677695845 2.21875 -0.1832414677695846
v -0.1586917661152076 2.09359375 -0.15869176611520774
v -0.09162073388479224 2.001973016115208 -0.09162073388479228
v -0.12515624999999994 2.435526983884792 -0.03353551611520767
v -0.21677698388479225 2.34390625 -0.058085217769584564
v -0.25031249999999994 2.21875 -0.06707103223041536
v -0.21677698388479225 2.09359375 -0.05808521776958457
v -0.12515624999999994 2.001973016115208 -0.03353551611520767
v -0.12515625 2.435526983884792 0.03353551611520763
v -0.21677698388479225 2.34390625 0.05808521776958449
v -0.2503125 2.21875 0.06707103223041527
v -0.21677698388479233 2.09359375 0.058085217769584495
v -0.12515625 2.001973016115208 0.03353551611520763
v -0.09162073388479225 2.435526983884792 0.09162073388479224
v -0.15869176611520774 2.34390625 0.15869176611520763
v -0.18324146776958464 2.21875 0.18324146776958455
v -0.15869176611520774 2.09359375 0.15869176611520763
v -0.09162073388479225 2.001973016115208 0.09162073388479224
v -0.03353551611520767 2.435526983884792 0.12515624999999997
v -0.05808521776958457 2.34390625 0.21677698388479227
v -0.06707103223041534 2.21875 0.2503125
v -0.05808521776958457 2.09359375 0.21677698388479233
v -0.03353551611520767 2.001973016115208 0.12515624999999997
vt 0.22801632112805265 0.9346067203288857
vt 0.24360257123879625 0.9407326186100335
vt 0.22397488284983166 0.9677805945294575
vt 0.22801632112805265 0.9346067203288857
vt 0.23414600862805263 0.9022535953288857
vt 0.26114201040598173 0.9128638934900378
vt 0.24360257123879625 0.9407326186100335
vt 0.35741953971971885 0.757142065194059
vt 0.35073125 0.7254083939290883
vt 0.38390435356263675 0.7207849223886678
vt 0.38614810356263674 0.7531380473886677
vt 0.35073125 0.7254083939290883
vt 0.3484875 0.6930552689290883
vt 0.37721606384291795 0.689051251123697
vt 0.38390435356263675 0.7207849223886678
vt 0.3484875 0.6930552689290883
vt 0.35009248617094035 0.6601657297790124
vt 0.36667903795225876 0.6578539940088022
vt 0.37721606384291795 0.689051251123697
vt 0.4927441585612251 0.8521907197800389
vt 0.47809999999999997 0.8603151546711142
vt 0.4697265625 0.8279620296711142
vt 0.24360257123879625 0.9407326186100335
vt 0.2558678185021624 0.952135317055319
vt 0.22770643260064544 0.9701290797784926
vt 0.24360257123879625 0.9407326186100335
vt 0.26114201040598173 0.9128638934900378
vt 0.2823859038746447 0.9326138182836821
vt 0.2558678185021624 0.952135317055319
vt 0.37557064643736326 0.9875130473886677
vt 0.37781439643736325 0.9551599223886678
vt 0.4109875 0.9597833939290883
vt 0.40429921028028115 0.991517065194059
vt 0.37781439643736325 0.9551599223886678
vt 0.3845026861570821 0.923426251123697
vt 0.41323125 0.9274302689290882
vt 0.4109875 0.9597833939290883
vt 0.516949360395752 0.8745157275126938
vt 0.4927441585612251 0.8521907197800389
vt 0.5016081966379995 0.837982037531529
vt 0.5323022250026973 0.8499057277682137
vt 0.5016081966379995 0.837982037531529
vt 0.4927441585612251 0.8521907197800389
vt 0.4697265625 0.8279620296711142
vt 0.2558678185021624 0.952135317055319
vt 0.2610612497910494 0.9680565636683589
vt 0.22770643260064544 0.9701290797784926
vt 0.1469 0.46875
vt 0.1407703125 0.435546875
vt 0.1697765625 0.435546875
vt 0.163646875 0.46875
vt 0.4232687175903253 0.9994484373052668
vt 0.41226394644658054 0.9689418130508213
vt 0.44448125 0.9597833939290883
vt 0.45116953971971885 0.991517065194059
vt 0.4109875 0.9597833939290883
vt 0.41323125 0.9274302689290882
vt 0.4422375 0.9274302689290882
vt 0.44448125 0.9597833939290883
vt 0.4140352958771463 0.9206480700470593
vt 0.42755983028919364 0.890625
vt 0.44384248617094035 0.8945407297790124
vt 0.4422375 0.9274302689290883
vt 0.5024661994160119 0.8212571562614408
vt 0.5016081966379995 0.837982037531529
vt 0.4697265625 0.8279620296711142
vt 0.2610612497910494 0.9680565636683589
vt 0.25787870378045896 0.9844982552831563
vt 0.22770643260064544 0.9701290797784926
vt 0.4335016276258903 0.765625
vt 0.40698354225340794 0.746103501228363
vt 0.4282274357220709 0.7263535764347189
vt 0.44576687488925637 0.7542223015547146
vt 0.45116953971971885 0.991517065194059
vt 0.44448125 0.9597833939290883
vt 0.47765435356263675 0.9551599223886678
vt 0.47989810356263674 0.9875130473886677
vt 0.44448125 0.9597833939290883
vt 0.4422375 0.9274302689290882
vt 0.47096606384291795 0.923426251123697
vt 0.47765435356263675 0.9551599223886678
vt 0.4422375 0.9274302689290882
vt 0.44384248617094035 0.8945407297790124
vt 0.46042903795225876 0.8922289940088022
vt 0.47096606384291795 0.923426251123697
vt 0.49510270740854107 0.8062159858375164
vt 0.5024661994160119 0.8212571562614408
vt 0.4697265625 0.8279620296711142
vt 0.240060256922132 0.9934167918761018
vt 0.224661581879679 1
vt 0.21964288362805265 0.9669598453288857
vt 0.44576687488925637 0.7542223015547146
vt 0.4282274357220709 0.7263535764347189
vt 0.4552234375 0.7157432782735668
vt 0.46135312500000003 0.7480964032735667
vt 0.28182064643736326 0.6281380473886677
vt 0.28406439643736325 0.5957849223886678
vt 0.3172375 0.6004083939290883
vt 0.31054921028028115 0.632142065194059
vt 0.28406439643736325 0.5957849223886678
vt 0.2907526861570821 0.564051251123697
vt 0.31948125 0.5680552689290883
vt 0.3172375 0.6004083939290883
vt 0.2907526861570821 0.564051251123697
vt 0.3012897120477413 0.5328539940088022
vt 0.31787626382905965 0.5351657297790124
vt 0.31948125 0.5680552689290883
vt 0.48136682209761245 0.796635626919885
vt 0.49510270740854107 0.8062159858375164
vt 0.4697265625 0.8279620296711143
vt 0.224661581879679 1
vt 0.2080026240304402 0.998286248080115
vt 0.21964288362805262 0.9669598453288857
vt 0.46135312500000003 0.7480964032735667
vt 0.4552234375 0.7157432782735668
vt 0.4842296875 0.7157432782735668
vt 0.47809999999999997 0.7480964032735667
vt 0.3295187175903253 0.6400734373052668
vt 0.31851394644658054 0.6095668130508212
vt 0.35073125 0.6004083939290883
vt 0.35741953971971885 0.632142065194059
vt 0.3172375 0.6004083939290883
vt 0.31948125 0.5680552689290883
vt 0.3484875 0.5680552689290883
vt 0.35073125 0.6004083939290883
vt 0.3202852958771463 0.5612730700470593
vt 0.33380983028919364 0.53125
vt 0.35009248617094035 0.5351657297790124
vt 0.3484875 0.5680552689290883
vt 0.4647078642483736 0.794921875
vt 0.48136682209761245 0.796635626919885
vt 0.4697265625 0.8279620296711143
vt 0.2080026240304402 0.998286248080115
vt 0.19426673871951156 0.9887058891624836
vt 0.21964288362805262 0.9669598453288857
vt 0.47809999999999997 0.7480964032735667
vt 0.4842296875 0.7157432782735668
vt 0.5112256892779291 0.7263535764347189
vt 0.49368625011074363 0.7542223015547146
vt 0.35741953971971885 0.632142065194059
vt 0.35073125 0.6004083939290883
vt 0.38390435356263675 0.5957849223886678
vt 0.38614810356263674 0.6281380473886677
vt 0.35073125 0.6004083939290883
vt 0.3484875 0.5680552689290883
vt 0.37721606384291795 0.564051251123697
vt 0.38390435356263675 0.5957849223886678
vt 0.3484875 0.5680552689290883
vt 0.35009248617094035 0.5351657297790124
vt 0.36667903795225876 0.5328539940088022
vt 0.37721606384291795 0.564051251123697
vt 0.44435041759145893 0.8062159858375164
vt 0.45808630290238755 0.796635626919885
vt 0.4697265625 0.8279620296711143
vt 0.19426673871951156 0.9887058891624836
vt 0.18690324671204078 0.9736647187385591
vt 0.21964288362805265 0.9669598453288857
vt 0.49368625011074363 0.7542223015547146
vt 0.5112256892779291 0.7263535764347189
vt 0.5324695827465921 0.746103501228363
vt 0.5059514973741097 0.765625
vt 0.28182064643736326 0.8781380473886677
vt 0.28406439643736325 0.8457849223886678
vt 0.3172375 0.8504083939290883
vt 0.31054921028028115 0.882142065194059
vt 0.28406439643736325 0.8457849223886678
vt 0.2907526861570821 0.814051251123697
vt 0.31948125 0.8180552689290883
vt 0.3172375 0.8504083939290883
vt 0.2907526861570821 0.814051251123697
vt 0.3012897120477413 0.7828539940088022
vt 0.31787626382905965 0.7851657297790124
vt 0.31948125 0.8180552689290883
vt 0.43698692558398816 0.8212571562614408
vt 0.44435041759145893 0.8062159858375164
vt 0.4697265625 0.8279620296711142
vt 0.18690324671204078 0.9736647187385591
vt 0.18776124949005313 0.9569398374684709
vt 0.21964288362805265 0.9669598453288857
vt 0.193775 0.46875
vt 0.1876453125 0.435546875
vt 0.2166515625 0.435546875
vt 0.210521875 0.46875
vt 0.3295187175903253 0.8900734373052668
vt 0.31851394644658054 0.8595668130508213
vt 0.35073125 0.8504083939290883
vt 0.35741953971971885 0.882142065194059
vt 0.3172375 0.8504083939290883
vt 0.31948125 0.8180552689290883
vt 0.3484875 0.8180552689290883
vt 0.35073125 0.8504083939290883
vt 0.31948125 0.8180552689290883
vt 0.31787626382905965 0.7851657297790124
vt 0.33415891971080636 0.78125
vt 0.3476834541228537 0.8112730700470593
vt 0.4378449283620005 0.837982037531529
vt 0.43698692558398816 0.8212571562614408
vt 0.4697265625 0.8279620296711142
vt 0.18776124949005313 0.9569398374684709
vt 0.1966252875668275 0.9427311552199611
vt 0.21964288362805265 0.9669598453288858
vt 0.18776124949005313 0.9569398374684709
vt 0.15706722112535534 0.9450161472317862
vt 0.17242008573230064 0.9204061474873062
vt 0.1966252875668275 0.9427311552199611
vt 0.35741953971971885 0.882142065194059
vt 0.35073125 0.8504083939290883
vt 0.38390435356263675 0.8457849223886678
vt 0.38614810356263674 0.8781380473886677
vt 0.35073125 0.8504083939290883
vt 0.3484875 0.8180552689290883
vt 0.37721606384291795 0.814051251123697
vt 0.38390435356263675 0.8457849223886678
vt 0.4071508999973027 0.8499057277682137
vt 0.4378449283620005 0.837982037531529
vt 0.4467089664387749 0.8521907197800389
vt 0.422503764604248 0.8745157275126938
vt 0.4467089664387749 0.8521907197800389
vt 0.4378449283620005 0.837982037531529
vt 0.4697265625 0.8279620296711142
vt 0.1966252875668275 0.9427311552199611
vt 0.21126944612805265 0.9346067203288857
vt 0.21964288362805262 0.9669598453288858
vt 0.1966252875668275 0.9427311552199611
vt 0.1755697190941375 0.9174139515354081
vt 0.20093398103951754 0.903342108904514
vt 0.21126944612805265 0.9346067203288857
vt 0.28182064643736326 0.7531380473886677
vt 0.28406439643736325 0.7207849223886678
vt 0.3172375 0.7254083939290883
vt 0.31054921028028115 0.757142065194059
vt 0.28406439643736325 0.7207849223886678
vt 0.2907526861570821 0.689051251123697
vt 0.31948125 0.6930552689290883
vt 0.3172375 0.7254083939290883
vt 0.2907526861570821 0.689051251123697
vt 0.3012897120477413 0.6578539940088022
vt 0.31787626382905965 0.6601657297790124
vt 0.31948125 0.6930552689290883
vt 0.46135312500000003 0.8603151546711142
vt 0.4467089664387749 0.8521907197800389
vt 0.4697265625 0.8279620296711142
vt 0.21126944612805265 0.9346067203288857
vt 0.22801632112805265 0.9346067203288857
vt 0.21964288362805262 0.9669598453288858
vt 0.21126944612805265 0.9346067203288857
vt 0.20513975862805264 0.9022535953288857
vt 0.23414600862805263 0.9022535953288857
vt 0.22801632112805265 0.9346067203288857
vt 0.3295187175903253 0.7650734373052668
vt 0.31851394644658054 0.7345668130508212
vt 0.35073125 0.7254083939290883
vt 0.35741953971971885 0.757142065194059
vt 0.3172375 0.7254083939290883
vt 0.31948125 0.6930552689290883
vt 0.3484875 0.6930552689290883
vt 0.35073125 0.7254083939290883
vt 0.3202852958771463 0.6862730700470593
vt 0.33380983028919364 0.65625
vt 0.35009248617094035 0.6601657297790124
vt 0.3484875 0.6930552689290883
vt 0.47809999999999997 0.8603151546711142
vt 0.46135312500000003 0.8603151546711142
vt 0.4697265625 0.8279620296711142
vn 0.12940952255126048 0.9659258262890683 0.22414386804201336
vn 0.35355339059327356 0.7071067811865476 0.6123724356957945
vn 0.4829629131445343 0.2588190451025209 0.8365163037378078
vn 0.48296291314453454 -0.2588190451025205 0.8365163037378079
vn 0.35355339059327406 -0.7071067811865475 0.6123724356957945
vn 0.12940952255126048 -0.9659258262890683 0.22414386804201336
vn 0.2241438680420134 0.9659258262890683 0.12940952255126045
vn 0.6123724356957946 0.7071067811865479 0.3535533905932734
vn 0.8365163037378078 0.25881904510252035 0.48296291314453466
vn 0.8365163037378079 -0.2588190451025204 0.48296291314453454
vn 0.6123724356957945 -0.7071067811865476 0.35355339059327395
vn 0.2241438680420134 -0.9659258262890683 0.12940952255126045
vn 0.2588190451025208 0.9659258262890683 0
vn 0.7071067811865476 0.7071067811865476 0
vn 0.9659258262890683 0.25881904510252135 0
vn 0.9659258262890683 -0.2588190451025206 0
vn 0.7071067811865474 -0.7071067811865477 0
vn 0.2588190451025208 -0.9659258262890683 0
vn 0.22414386804201344 0.9659258262890684 -0.12940952255126054
vn 0.6123724356957947 0.7071067811865477 -0.35355339059327345
vn 0.8365163037378078 0.25881904510252124 -0.4829629131445344
vn 0.8365163037378079 -0.2588190451025205 -0.4829629131445347
vn 0.6123724356957944 -0.7071067811865476 -0.35355339059327384
vn 0.22414386804201344 -0.9659258262890684 -0.12940952255126054
vn 0.12940952255126048 0.9659258262890684 -0.2241438680420135
vn 0.35355339059327356 0.7071067811865479 -0.6123724356957945
vn 0.4829629131445343 0.25881904510252063 -0.8365163037378079
vn 0.4829629131445344 -0.25881904510252063 -0.8365163037378078
vn 0.35355339059327384 -0.7071067811865476 -0.6123724356957946
vn 0.12940952255126045 -0.9659258262890684 -0.22414386804201344
vn 2.1421085491659507e-16 0.9659258262890684 -0.25881904510252085
vn 3.457380107981025e-16 0.7071067811865477 -0.7071067811865474
vn 3.9922386720674047e-16 0.2588190451025209 -0.9659258262890683
vn 4.6098401439747e-16 -0.2588190451025206 -0.9659258262890683
vn 5.988358008101104e-16 -0.7071067811865476 -0.7071067811865475
vn 2.1421085491659507e-16 -0.9659258262890684 -0.25881904510252085
vn -0.1294095225512604 0.9659258262890683 -0.22414386804201347
vn -0.3535533905932734 0.7071067811865477 -0.6123724356957946
vn -0.48296291314453405 0.25881904510252085 -0.8365163037378082
vn -0.48296291314453416 -0.2588190451025205 -0.836516303737808
vn -0.3535533905932737 -0.7071067811865476 -0.6123724356957947
vn -0.1294095225512604 -0.9659258262890683 -0.22414386804201347
vn -0.22414386804201342 0.9659258262890683 -0.1294095225512604
vn -0.6123724356957944 0.7071067811865477 -0.35355339059327384
vn -0.836516303737808 0.2588190451025207 -0.48296291314453427
vn -0.8365163037378078 -0.2588190451025207 -0.48296291314453427
vn -0.6123724356957947 -0.7071067811865474 -0.35355339059327384
vn -0.22414386804201347 -0.9659258262890683 -0.12940952255126043
vn -0.2588190451025208 0.9659258262890684 -2.142108549165952e-16
vn -0.7071067811865474 0.7071067811865477 0
vn -0.9659258262890684 0.25881904510252074 -3.9922386720674086e-16
vn -0.9659258262890683 -0.25881904510252085 -6.914760215962056e-16
vn -0.7071067811865477 -0.7071067811865475 -5.988358008101112e-16
vn -0.2588190451025208 -0.9659258262890684 -2.142108549165952e-16
vn -0.2241438680420134 0.9659258262890683 0.12940952255126054
vn -0.612372435695795 0.7071067811865475 0.35355339059327334
vn -0.8365163037378083 0.258819045102521 0.48296291314453355
vn -0.8365163037378082 -0.2588190451025205 0.482962913144534
vn -0.6123724356957946 -0.7071067811865474 0.35355339059327423
vn -0.2241438680420134 -0.9659258262890683 0.12940952255126054
vn -0.12940952255126054 0.9659258262890683 0.22414386804201333
vn -0.3535533905932737 0.7071067811865478 0.6123724356957945
vn -0.48296291314453405 0.2588190451025209 0.8365163037378079
vn -0.48296291314453454 -0.258819045102521 0.8365163037378078
vn -0.3535533905932741 -0.7071067811865476 0.6123724356957944
vn -0.12940952255126054 -0.9659258262890683 0.22414386804201333
vn 0 0.9659258262890683 0.25881904510252074
vn 0 0.7071067811865477 0.7071067811865475
vn 0 0.2588190451025209 0.9659258262890683
vn 0 -0.2588190451025205 0.9659258262890683
vn 0 -0.7071067811865476 0.7071067811865476
vn 0 -0.9659258262890683 0.25881904510252074
usemtl m_7d477fe7-c1e3-2c16-0caa-429ca962fca8
f 3/1/1 8/2/1 2/3/1
f 3/4/2 4/5/2 9/6/2 8/7/2
f 4/8/3 5/9/3 10/10/3 9/11/3
f 5/12/4 6/13/4 11/14/4 10/15/4
f 6/16/5 7/17/5 12/18/5 11/19/5
f 12/20/6 7/21/6 1/22/6
f 8/23/7 13/24/7 2/25/7
f 8/26/8 9/27/8 14/28/8 13/29/8
f 9/30/9 10/31/9 15/32/9 14/33/9
f 10/34/10 11/35/10 16/36/10 15/37/10
f 11/38/11 12/39/11 17/40/11 16/41/11
f 17/42/12 12/43/12 1/44/12
f 13/45/13 18/46/13 2/47/13
f 13/48/14 14/49/14 19/50/14 18/51/14
f 14/52/15 15/53/15 20/54/15 19/55/15
f 15/56/16 16/57/16 21/58/16 20/59/16
f 16/60/17 17/61/17 22/62/17 21/63/17
f 22/64/18 17/65/18 1/66/18
f 18/67/19 23/68/19 2/69/19
f 18/70/20 19/71/20 24/72/20 23/73/20
f 19/74/21 20/75/21 25/76/21 24/77/21
f 20/78/22 21/79/22 26/80/22 25/81/22
f 21/82/23 22/83/23 27/84/23 26/85/23
f 27/86/24 22/87/24 1/88/24
f 23/89/25 28/90/25 2/91/25
f 23/92/26 24/93/26 29/94/26 28/95/26
f 24/96/27 25/97/27 30/98/27 29/99/27
f 25/100/28 26/101/28 31/102/28 30/103/28
f 26/104/29 27/105/29 32/106/29 31/107/29
f 32/108/30 27/109/30 1/110/30
f 28/111/31 33/112/31 2/113/31
f 28/114/32 29/115/32 34/116/32 33/117/32
f 29/118/33 30/119/33 35/120/33 34/121/33
f 30/122/34 31/123/34 36/124/34 35/125/34
f 31/126/35 32/127/35 37/128/35 36/129/35
f 37/130/36 32/131/36 1/132/36
f 33/133/37 38/134/37 2/135/37
f 33/136/38 34/137/38 39/138/38 38/139/38
f 34/140/39 35/141/39 40/142/39 39/143/39
f 35/144/40 36/145/40 41/146/40 40/147/40
f 36/148/41 37/149/41 42/150/41 41/151/41
f 42/152/42 37/153/42 1/154/42
f 38/155/43 43/156/43 2/157/43
f 38/158/44 39/159/44 44/160/44 43/161/44
f 39/162/45 40/163/45 45/164/45 44/165/45
f 40/166/46 41/167/46 46/168/46 45/169/46
f 41/170/47 42/171/47 47/172/47 46/173/47
f 47/174/48 42/175/48 1/176/48
f 43/177/49 48/178/49 2/179/49
f 43/180/50 44/181/50 49/182/50 48/183/50
f 44/184/51 45/185/51 50/186/51 49/187/51
f 45/188/52 46/189/52 51/190/52 50/191/52
f 46/192/53 47/193/53 52/194/53 51/195/53
f 52/196/54 47/197/54 1/198/54
f 48/199/55 53/200/55 2/201/55
f 48/202/56 49/203/56 54/204/56 53/205/56
f 49/206/57 50/207/57 55/208/57 54/209/57
f 50/210/58 51/211/58 56/212/58 55/213/58
f 51/214/59 52/215/59 57/216/59 56/217/59
f 57/218/60 52/219/60 1/220/60
f 53/221/61 58/222/61 2/223/61
f 53/224/62 54/225/62 59/226/62 58/227/62
f 54/228/63 55/229/63 60/230/63 59/231/63
f 55/232/64 56/233/64 61/234/64 60/235/64
f 56/236/65 57/237/65 62/238/65 61/239/65
f 62/240/66 57/241/66 1/242/66
f 58/243/67 3/244/67 2/245/67
f 58/246/68 59/247/68 4/248/68 3/249/68
f 59/250/69 60/251/69 5/252/69 4/253/69
f 60/254/70 61/255/70 6/256/70 5/257/70
f 61/258/71 62/259/71 7/260/71 6/261/71
f 7/262/72 62/263/72 1/264/72