# Made in Blockbench 5.1.6
mtllib nyc_subway_fare_gate_2_twoway_open_exit_light_layer.mtl

o cube
v 0.21281249999999996 1.171875 0.844375
v 0.3721875 1.171875 0.844375
v 0.3721875 1.921875 0.844375
v 0.21281249999999996 1.921875 0.844375
vt 0.361328125 0
vt 0.400390625 0
vt 0.400390625 0.1875
vt 0.361328125 0.1875
vn 0 0 1
usemtl m_85014c9e-0d62-6d4c-1773-a5d82cf891c0
f 1/1/1 2/2/1 3/3/1 4/4/1
o cube
v 0.34375 0.969375 1.59375
v 0.34375 1.094375 1.34375
v 0.15625 1.0475 1.34375
v 0.15625 0.9225 1.578125
vt 0.2177734375 0.0017455468750000591
vt 0.2177734375 0.0716234375
vt 0.16932632812499993 0.06638375000000041
vt 0.1689453125 0
vn -0.2182178902359924 0.8728715609439696 0.43643578047198517
usemtl m_85014c9e-0d62-6d4c-1773-a5d82cf891c0
f 5/5/2 6/6/2 7/7/2 8/8/2
o cube
v 0.3721875 1.171875 -0.8475
v 0.21281249999999996 1.171875 -0.8475
v 0.21281249999999996 1.921875 -0.8475
v 0.3721875 1.921875 -0.8475
vt 0.44140625 0
vt 0.48046875 0
vt 0.48046875 0.1875
vt 0.44140625 0.1875
vn 0 0 -1
usemtl m_85014c9e-0d62-6d4c-1773-a5d82cf891c0
f 9/9/3 10/10/3 11/11/3 12/12/3