# Made in Blockbench 5.1.6
mtllib nyc_subway_ticket_machine_7_light_layer.mtl

o cube
v -0.4375 1.21875 0.3125
v -0.4375 0.9140625 0.375
v 0.03125 0.9140625 0.375
v 0.03125 1.21875 0.3125
vt 0 0.546875
vt 0 0.5012929687500001
vt 0.05859375 0.5012929687500001
vt 0.05859375 0.546875
vn 0 0.20094414372133132 0.9796027006414901
usemtl m_f159d624-465b-b916-ef5b-6923c0929e28
f 1/1/1 2/2/1 3/3/1 4/4/1
o cube
v -0.4375 1.75 0.5
v -0.5 1.75 0.4375
v 0.5 1.75 0.4375
v 0.4375 1.75 0.5
v 0.4375 2 0.5
v -0.4375 2 0.5
v 0.5 1.75 -0.375
v -0.5 1.75 -0.375
vt 0.2734375 1
vt 0.265625 0.9921875
vt 0.390625 0.9921875
vt 0.3828125 1
vt 0.5625 0.6875
vt 0.5625 0.71875
vt 0.453125 0.71875
vt 0.453125 0.6875
vt 0.390625 0.890625
vt 0.390625 0.9921875
vt 0.265625 0.9921875
vt 0.265625 0.890625
vn 0 -1 0
vn 0 0 1
vn 0 -1 0
usemtl m_f159d624-465b-b916-ef5b-6923c0929e28
f 5/5/2 6/6/2 7/7/2 8/8/2
f 8/9/3 9/10/3 10/11/3 5/12/3
f 11/13/4 7/14/4 6/15/4 12/16/4