# Made in Blockbench 5.1.6
mtllib nyc_subway_fare_gate_5_exit_closed.mtl

o left
v 0.625 0 -0.375
v 0.375 0 -0.375
v 0.375 0.375 -0.375
v 0.625 0.375 -0.375
v 0.625 0 0.375
v 0.625 0.375 0.375
v 0.375 0 0.375
v 0.375 0.375 0.375
vt 0.8828125 0.013671875
vt 0.904296875 0.013671875
vt 0.904296875 0.05065914062499999
vt 0.8828125 0.05065914062499999
vt 0.8828125 0.013671875
vt 0.947265625 0.013671875
vt 0.947265625 0.05065914062499999
vt 0.8828125 0.05065914062499999
vt 0.8828125 0.013671875
vt 0.904296875 0.013671875
vt 0.904296875 0.05065914062499999
vt 0.8828125 0.05065914062499999
vt 0.904296875 0.013671875
vt 0.96875 0.013671875
vt 0.96875 0.05065914062499999
vt 0.904296875 0.05065914062499999
vt 0.904296875 0.1123046875
vt 0.8828125 0.1123046875
vt 0.8828125 0.038330078125
vt 0.904296875 0.038330078125
vt 0.904296875 0.087646484375
vt 0.8828125 0.087646484375
vt 0.8828125 0.013671875
vt 0.904296875 0.013671875
vn 0 0 -1
vn 1 0 0
vn 0 0 1
vn -1 0 0
vn 0 1 0
vn 0 -1 0
usemtl m_920b030c-7859-2e1a-3e8d-997053cdc82f
f 1/1/1 2/2/1 3/3/1 4/4/1
f 5/5/2 1/6/2 4/7/2 6/8/2
f 7/9/3 5/10/3 6/11/3 8/12/3
f 2/13/4 7/14/4 8/15/4 3/16/4
f 8/17/5 6/18/5 4/19/5 3/20/5
f 2/21/6 1/22/6 5/23/6 7/24/6
o right
v -0.375 0 -0.375
v -0.625 0 -0.375
v -0.625 0.375 -0.375
v -0.375 0.375 -0.375
v -0.375 0 0.375
v -0.375 0.375 0.375
v -0.625 0 0.375
v -0.625 0.375 0.375
vt 0.8828125 0.013671875
vt 0.904296875 0.013671875
vt 0.904296875 0.05065914062499999
vt 0.8828125 0.05065914062499999
vt 0.904296875 0.013671875
vt 0.96875 0.013671875
vt 0.96875 0.05065914062499999
vt 0.904296875 0.05065914062499999
vt 0.8828125 0.013671875
vt 0.904296875 0.013671875
vt 0.904296875 0.05065914062499999
vt 0.8828125 0.05065914062499999
vt 0.8828125 0.013671875
vt 0.947265625 0.013671875
vt 0.947265625 0.05065914062499999
vt 0.8828125 0.05065914062499999
vt 0.904296875 0.087646484375
vt 0.8828125 0.087646484375
vt 0.8828125 0.013671875
vt 0.904296875 0.013671875
vt 0.904296875 0.1123046875
vt 0.8828125 0.1123046875
vt 0.8828125 0.038330078125
vt 0.904296875 0.038330078125
vn 0 0 -1
vn 1 0 0
vn 0 0 1
vn -1 0 0
vn 0 1 0
vn 0 -1 0
usemtl m_920b030c-7859-2e1a-3e8d-997053cdc82f
f 9/25/7 10/26/7 11/27/7 12/28/7
f 13/29/8 9/30/8 12/31/8 14/32/8
f 15/33/9 13/34/9 14/35/9 16/36/9
f 10/37/10 15/38/10 16/39/10 11/40/10
f 16/41/11 14/42/11 12/43/11 11/44/11
f 10/45/12 9/46/12 13/47/12 15/48/12
o left
v 0.375 0 0.5625
v 0.375 0 0.8601769678379703
v 0.375 0.8154646064324059 0.9174889065812599
v 0.375 0.875 0.515625
v 0.625 0.875 0.515625
v 0.625 0.8154646064324059 0.9174889065812599
v 0.625 0 0.8601769678379703
v 0.625 0 0.5625
v 0.625 0 0.875
v 0.625 0.796875 0.9375
v 0.375 0.796875 0.9375
v 0.375 0 0.875
vt 0.8828125 0.013671875
vt 0.9135104373082907 0.013671875
vt 0.9135104373082907 0.09997554687499999
vt 0.8828125 0.09997554687499999
vt 0.96875 0.09997554687499999
vt 0.9380520626917093 0.09997554687499999
vt 0.9380520626917093 0.013671875
vt 0.96875 0.013671875
vt 0.904296875 0.013671875
vt 0.904296875 0.04890469765557626
vt 0.8828125 0.04890469765557626
vt 0.8828125 0.013671875
vt 0.8828125 0.1123046875
vt 0.8828125 0.07707179042518175
vt 0.904296875 0.07707179042518175
vt 0.904296875 0.1123046875
vt 0.904296875 0.013671875
vt 0.904296875 0.09997554687499999
vt 0.8828125 0.09997554687499999
vt 0.8828125 0.013671875
vt 0.904296875 0.013671875
vt 0.904296875 0.09997554687499999
vt 0.8828125 0.09997554687499999
vt 0.8828125 0.013671875
vt 0.9150390625 0.09997554687499999
vt 0.9135104373082907 0.09997554687499999
vt 0.9135104373082907 0.013671875
vt 0.9150390625 0.013671875
vt 0.904296875 0.07531734374999999
vt 0.904296875 0.07707179042518175
vt 0.8828125 0.07707179042518175
vt 0.8828125 0.07531734374999999
vt 0.9365234375 0.013671875
vt 0.9380520626917093 0.013671875
vt 0.9380520626917093 0.09997554687499999
vt 0.9365234375 0.09997554687499999
vt 0.8828125 0.05065914062499999
vt 0.8828125 0.04890469765557626
vt 0.904296875 0.04890469765557626
vt 0.904296875 0.05065914062499999
vn -1 0 0
vn 1 0 0
vn 0 0.9892034623538708 0.14654866108946238
vn 0 -1 0
vn 0 -0.05349472137161191 -0.998568132270089
vn 0 -0.07819124531863149 0.9969383778125515
vn -1 0 0
vn 0 -1 0
vn 1 0 0
vn 0 0.7326496763843674 0.6806059445037794
usemtl m_920b030c-7859-2e1a-3e8d-997053cdc82f
f 17/49/13 18/50/13 19/51/13 20/52/13
f 21/53/14 22/54/14 23/55/14 24/56/14
f 20/57/15 19/58/15 22/59/15 21/60/15
f 24/61/16 23/62/16 18/63/16 17/64/16
f 17/65/17 20/66/17 21/67/17 24/68/17
f 25/69/18 26/70/18 27/71/18 28/72/18
f 27/73/19 19/74/19 18/75/19 28/76/19
f 28/77/20 18/78/20 23/79/20 25/80/20
f 25/81/21 23/82/21 22/83/21 26/84/21
f 26/85/22 22/86/22 19/87/22 27/88/22
o right
v 0.41462375 0.375 -0.02287625
v 0.42912625 0.375 -0.03125
v 0.4375 0.375 0
v 0.41462375 1.75 -0.02287625
v 0.42912625 1.75 -0.03125
v 0.4375 1.75 0
v 0.40625 0.375 -0.00837375
v 0.40625 1.75 -0.00837375
v 0.40625 0.375 0.00837375
v 0.40625 1.75 0.00837375
v 0.41462375 0.375 0.02287625
v 0.41462375 1.75 0.02287625
v 0.42912625 0.375 0.03125
v 0.42912625 1.75 0.03125
v 0.44587375 0.375 0.03125
v 0.44587375 1.75 0.03125
v 0.46037625 0.375 0.02287625
v 0.46037625 1.75 0.02287625
v 0.46875 0.375 0.00837375
v 0.46875 1.75 0.00837375
v 0.46875 0.375 -0.00837375
v 0.46875 1.75 -0.00837375
v 0.46037625 0.375 -0.02287625
v 0.46037625 1.75 -0.02287625
v 0.44587375 0.375 -0.03125
v 0.44587375 1.75 -0.03125
vt 0.928846953125 0.11059874999999997
vt 0.925821640625 0.1123046875
vt 0.90625 0.11059874999999997
vt 0.90625 0.0595703125
vt 0.917950078125 0.0595703125
vt 0.917950078125 0.1123046875
vt 0.90625 0.1123046875
vt 0.90625 0.10889249999999995
vt 0.9175475 0.10934976562499998
vt 0.90625 0.1123046875
vt 0.92884875 0.11059882812499999
vt 0.925820078125 0.1123046875
vt 0.90625 0.11059882812499999
vt 0.90625 0.0595703125
vt 0.917950078125 0.0595703125
vt 0.917950078125 0.1123046875
vt 0.90625 0.1123046875
vt 0.90625 0.10889273437500002
vt 0.9175484375 0.10934953125000002
vt 0.90625 0.1123046875
vt 0.9280784375 0.11053804687500002
vt 0.9280784375 0.1123046875
vt 0.90625 0.11142140624999997
vt 0.90625 0.0595703125
vt 0.917950078125 0.0595703125
vt 0.917950078125 0.1123046875
vt 0.90625 0.1123046875
vt 0.9280784375 0.11053804687500002
vt 0.9280784375 0.1123046875
vt 0.90625 0.11142140624999997
vt 0.90625 0.10889273437500002
vt 0.9175484375 0.10934953125000002
vt 0.90625 0.1123046875
vt 0.90625 0.0595703125
vt 0.917950078125 0.0595703125
vt 0.917950078125 0.1123046875
vt 0.90625 0.1123046875
vt 0.92884875 0.11059882812499999
vt 0.925820078125 0.1123046875
vt 0.90625 0.11059882812499999
vt 0.90625 0.10889249999999995
vt 0.9175475 0.10934976562499998
vt 0.90625 0.1123046875
vt 0.90625 0.0595703125
vt 0.917950078125 0.0595703125
vt 0.917950078125 0.1123046875
vt 0.90625 0.1123046875
vt 0.928846953125 0.11059874999999997
vt 0.925821640625 0.1123046875
vt 0.90625 0.11059874999999997
vt 0.90625 0.10900874999999999
vt 0.917950078125 0.10900874999999999
vt 0.9121 0.1123046875
vt 0.90625 0.0595703125
vt 0.917950078125 0.0595703125
vt 0.917950078125 0.1123046875
vt 0.90625 0.1123046875
vt 0.917950078125 0.1123046875
vt 0.90625 0.1123046875
vt 0.9121 0.10900874999999999
vt 0.90625 0.1123046875
vt 0.909275234375 0.11059874999999997
vt 0.928846953125 0.1123046875
vt 0.90625 0.0595703125
vt 0.917950078125 0.0595703125
vt 0.917950078125 0.1123046875
vt 0.90625 0.1123046875
vt 0.9175475 0.1123046875
vt 0.90625 0.11184734375000005
vt 0.9175475 0.10889249999999995
vt 0.90625 0.1123046875
vt 0.90927875 0.11059882812499999
vt 0.92884875 0.1123046875
vt 0.90625 0.0595703125
vt 0.917950078125 0.0595703125
vt 0.917950078125 0.1123046875
vt 0.90625 0.1123046875
vt 0.9175484375 0.1123046875
vt 0.90625 0.111847890625
vt 0.9175484375 0.10889273437500002
vt 0.90625 0.1123046875
vt 0.90625 0.11053804687500002
vt 0.9280784375 0.11142140624999997
vt 0.90625 0.0595703125
vt 0.917950078125 0.0595703125
vt 0.917950078125 0.1123046875
vt 0.90625 0.1123046875
vt 0.90625 0.1123046875
vt 0.90625 0.11053804687500002
vt 0.9280784375 0.11142140624999997
vt 0.9175484375 0.1123046875
vt 0.90625 0.111847890625
vt 0.9175484375 0.10889273437500002
vt 0.90625 0.0595703125
vt 0.917950078125 0.0595703125
vt 0.917950078125 0.1123046875
vt 0.90625 0.1123046875
vt 0.90625 0.1123046875
vt 0.90927875 0.11059882812499999
vt 0.92884875 0.1123046875
vt 0.9175475 0.1123046875
vt 0.90625 0.11184734375000005
vt 0.9175475 0.10889249999999995
vt 0.90625 0.0595703125
vt 0.917950078125 0.0595703125
vt 0.917950078125 0.1123046875
vt 0.90625 0.1123046875
vt 0.90625 0.1123046875
vt 0.909275234375 0.11059874999999997
vt 0.928846953125 0.1123046875
vt 0.917950078125 0.1123046875
vt 0.90625 0.1123046875
vt 0.9121 0.10900874999999999
vt 0.90625 0.0595703125
vt 0.917950078125 0.0595703125
vt 0.917950078125 0.1123046875
vt 0.90625 0.1123046875
vt 0.90625 0.10900874999999999
vt 0.917950078125 0.10900874999999999
vt 0.9121 0.1123046875
vn 0 -1 0
vn -0.5000325911601279 0 -0.8660065864516784
vn 0 1 0
vn 0 -1 0
vn -0.8660065864516785 0 -0.5000325911601278
vn 0 1 0
vn 0 -1 0
vn -1 0 0
vn 0 1 0
vn 0 -1 0
vn -0.8660065864516785 0 0.5000325911601278
vn 0 1 0
vn 0 -1 0
vn -0.5000325911601279 0 0.8660065864516784
vn 0 1 0
vn 0 -1 0
vn 0 0 1
vn 0 1 0
vn 0 -1 0
vn 0.5000325911601279 0 0.8660065864516784
vn 0 1 0
vn 0 -1 0
vn 0.8660065864516785 0 0.5000325911601278
vn 0 1 0
vn 0 -1 0
vn 1 0 0
vn 0 1 0
vn 0 -1 0
vn 0.8660065864516785 0 -0.5000325911601278
vn 0 1 0
vn 0 -1 0
vn 0.5000325911601279 0 -0.8660065864516784
vn 0 1 0
vn 0 -1 0
vn 0 0 -1
vn 0 1 0
usemtl m_920b030c-7859-2e1a-3e8d-997053cdc82f
f 29/89/23 30/90/23 31/91/23
f 30/92/24 29/93/24 32/94/24 33/95/24
f 33/96/25 32/97/25 34/98/25
f 35/99/26 29/100/26 31/101/26
f 29/102/27 35/103/27 36/104/27 32/105/27
f 32/106/28 36/107/28 34/108/28
f 37/109/29 35/110/29 31/111/29
f 35/112/30 37/113/30 38/114/30 36/115/30
f 36/116/31 38/117/31 34/118/31
f 39/119/32 37/120/32 31/121/32
f 37/122/33 39/123/33 40/124/33 38/125/33
f 38/126/34 40/127/34 34/128/34
f 41/129/35 39/130/35 31/131/35
f 39/132/36 41/133/36 42/134/36 40/135/36
f 40/136/37 42/137/37 34/138/37
f 43/139/38 41/140/38 31/141/38
f 41/142/39 43/143/39 44/144/39 42/145/39
f 42/146/40 44/147/40 34/148/40
f 45/149/41 43/150/41 31/151/41
f 43/152/42 45/153/42 46/154/42 44/155/42
f 44/156/43 46/157/43 34/158/43
f 47/159/44 45/160/44 31/161/44
f 45/162/45 47/163/45 48/164/45 46/165/45
f 46/166/46 48/167/46 34/168/46
f 49/169/47 47/170/47 31/171/47
f 47/172/48 49/173/48 50/174/48 48/175/48
f 48/176/49 50/177/49 34/178/49
f 51/179/50 49/180/50 31/181/50
f 49/182/51 51/183/51 52/184/51 50/185/51
f 50/186/52 52/187/52 34/188/52
f 53/189/53 51/190/53 31/191/53
f 51/192/54 53/193/54 54/194/54 52/195/54
f 52/196/55 54/197/55 34/198/55
f 30/199/56 53/200/56 31/201/56
f 53/202/57 30/203/57 33/204/57 54/205/57
f 54/206/58 33/207/58 34/208/58
o left
v 0.46875 1.75 -0.03125
v 0.40625 1.75 -0.03125
v 0.40625 1.84375 -0.03125
v 0.46875 1.84375 -0.03125
v 0.46875 1.75 0.03125
v 0.46875 1.84375 0.03125
v 0.40625 1.75 0.03125
v 0.40625 1.84375 0.03125
vt 0.8984375 0
vt 1 0
vt 1 0.0751953125
vt 0.8984375 0.0751953125
vt 0.888671875 0.0087890625
vt 0.982421875 0.0087890625
vt 0.982421875 0.1142578125
vt 0.888671875 0.1142578125
vt 0.8984375 0
vt 1 0
vt 1 0.0751953125
vt 0.8984375 0.0751953125
vt 0.888671875 0.0087890625
vt 0.982421875 0.0087890625
vt 0.982421875 0.1142578125
vt 0.888671875 0.1142578125
vt 1 0.0869140625
vt 0.8984375 0.0869140625
vt 0.8984375 0.0234375
vt 1 0.0234375
vt 1 0.0869140625
vt 0.8984375 0.0869140625
vt 0.8984375 0.0234375
vt 1 0.0234375
vn 0 0 -1
vn 1 0 0
vn 0 0 1
vn -1 0 0
vn 0 1 0
vn 0 -1 0
usemtl m_920b030c-7859-2e1a-3e8d-997053cdc82f
f 55/209/59 56/210/59 57/211/59 58/212/59
f 59/213/60 55/214/60 58/215/60 60/216/60
f 61/217/61 59/218/61 60/219/61 62/220/61
f 56/221/62 61/222/62 62/223/62 57/224/62
f 62/225/63 60/226/63 58/227/63 57/228/63
f 56/229/64 55/230/64 59/231/64 61/232/64
o doorLeft
v 0.0390625 0.4140625 0.015625
v 0.03125 0.4375 0.015625
v 0.03125 0.4375 -0.015625
v 0.0390625 0.4140625 -0.015625
v 0.4375 0.40625 -0.015625
v 0.4375 0.4375 -0.015625
v 0.4375 0.4375 0.015625
v 0.4375 0.40625 0.015625
v 0.0390625 1.7109375 0.015625
v 0.0625 1.71875 0.015625
v 0.0625 1.71875 -0.015625
v 0.0390625 1.7109375 -0.015625
v 0.0625 0.40625 -0.015625
v 0.0625 0.40625 0.015625
v 0.0625 0.4375 -0.015625
v 0.0625 0.4375 0.015625
v 0.03125 1.6875 -0.015625
v 0.03125 1.6875 0.015625
v 0.0625 1.6875 0.015625
v 0.4375 1.71875 0.015625
v 0.4375 1.6875 0.015625
v 0.4375 1.6875 -0.015625
v 0.4375 1.71875 -0.015625
v 0.0625 1.6875 -0.015625
vt 0.8483072916666666 0.1640625
vt 0.8483072916666666 0.16585286458333337
vt 0.7632955293525403 0.16585286458333337
vt 0.7632955293525403 0.1640625
vt 0.8483072916666666 0.1640625
vt 0.8483072916666666 0.16585286458333337
vt 0.7632955293525403 0.16585286458333337
vt 0.7632955293525403 0.1640625
vt 0.8457539498141264 0.2392578125
vt 0.8392145834822705 0.2392578125
vt 0.8392145834822705 0.234375
vt 0.8457539498141264 0.234375
vt 0.8457539498141264 0.2392578125
vt 0.8392145834822705 0.2392578125
vt 0.8392145834822705 0.234375
vt 0.8457539498141264 0.234375
vt 0.7060546875 0.05078125
vt 0.7060546875 0.0546875
vt 0.7021484375 0.0546875
vt 0.7021484375 0.05078125
vt 0.7021484375 0.05078125
vt 0.7021484375 0.0546875
vt 0.7060546875 0.0546875
vt 0.7060546875 0.05078125
vt 0.7632955293525403 0.2392578125
vt 0.7632955293525403 0.23746744791666663
vt 0.8483072916666666 0.23746744791666663
vt 0.8483072916666666 0.2392578125
vt 0.7060546875 0.2109375
vt 0.7021484375 0.2109375
vt 0.7021484375 0.21484375
vt 0.7060546875 0.21484375
vt 0.7632955293525403 0.2392578125
vt 0.7632955293525403 0.23746744791666663
vt 0.8483072916666666 0.23746744791666663
vt 0.8483072916666666 0.2392578125
vt 0.7060546875 0.21484375
vt 0.7021484375 0.21484375
vt 0.7021484375 0.2109375
vt 0.7060546875 0.2109375
vt 0.7607421875 0.234375
vt 0.8392145834822705 0.234375
vt 0.8392145834822705 0.2392578125
vt 0.7607421875 0.2392578125
vt 0.6552734375 0.21484375
vt 0.7021484375 0.21484375
vt 0.7021484375 0.2109375
vt 0.6552734375 0.2109375
vt 0.6552734375 0.05078125
vt 0.6552734375 0.0546875
vt 0.7021484375 0.0546875
vt 0.7021484375 0.05078125
vt 0.7607421875 0.234375
vt 0.8392145834822705 0.234375
vt 0.8392145834822705 0.2392578125
vt 0.7607421875 0.2392578125
vt 0.7021484375 0.05078125
vt 0.7021484375 0.0546875
vt 0.6552734375 0.0546875
vt 0.6552734375 0.05078125
vt 0.6552734375 0.2109375
vt 0.7021484375 0.2109375
vt 0.7021484375 0.21484375
vt 0.6552734375 0.21484375
vt 0.7632955293525403 0.23746744791666663
vt 0.7632955293525403 0.16585286458333337
vt 0.8483072916666666 0.16585286458333337
vt 0.8483072916666666 0.23746744791666663
vt 0.7060546875 0.2109375
vt 0.7060546875 0.0546875
vt 0.7021484375 0.0546875
vt 0.7021484375 0.2109375
vt 0.7021484375 0.2109375
vt 0.7021484375 0.0546875
vt 0.6552734375 0.0546875
vt 0.6552734375 0.2109375
vt 0.7632955293525403 0.23746744791666663
vt 0.7632955293525403 0.16585286458333337
vt 0.8483072916666666 0.16585286458333337
vt 0.8483072916666666 0.23746744791666663
vt 0.6552734375 0.2109375
vt 0.6552734375 0.0546875
vt 0.7021484375 0.0546875
vt 0.7021484375 0.2109375
vt 0.7021484375 0.2109375
vt 0.7021484375 0.0546875
vt 0.7060546875 0.0546875
vt 0.7060546875 0.2109375
vn -0.948683298050514 -0.316227766016838 0
vn 1 0 0
vn -0.316227766016838 0.948683298050514 0
vn -0.316227766016838 -0.948683298050514 0
vn 0 0 -1
vn 0 0 1
vn -0.948683298050514 0.316227766016838 0
vn 0 0 1
vn 1 0 0
vn 0 0 -1
vn 0 1 0
vn 0 0 1
vn 0 0 1
vn 0 -1 0
vn 0 0 -1
vn 0 0 -1
vn -1 0 0
vn 0 0 1
vn 0 0 1
vn 1 0 0
vn 0 0 -1
vn 0 0 -1
usemtl m_920b030c-7859-2e1a-3e8d-997053cdc82f
f 63/233/65 64/234/65 65/235/65 66/236/65
f 67/237/66 68/238/66 69/239/66 70/240/66
f 71/241/67 72/242/67 73/243/67 74/244/67
f 66/245/68 75/246/68 76/247/68 63/248/68
f 66/249/69 65/250/69 77/251/69 75/252/69
f 76/253/70 78/254/70 64/255/70 63/256/70
f 74/257/71 79/258/71 80/259/71 71/260/71
f 80/261/72 81/262/72 72/263/72 71/264/72
f 82/265/73 83/266/73 84/267/73 85/268/73
f 74/269/74 73/270/74 86/271/74 79/272/74
f 85/273/75 73/274/75 72/275/75 82/276/75
f 82/277/76 72/278/76 81/279/76 83/280/76
f 70/281/77 69/282/77 78/283/77 76/284/77
f 70/285/78 76/286/78 75/287/78 67/288/78
f 75/289/79 77/290/79 68/291/79 67/292/79
f 84/293/80 86/294/80 73/295/80 85/296/80
f 79/297/81 65/298/81 64/299/81 80/300/81
f 80/301/82 64/302/82 78/303/82 81/304/82
f 81/305/83 78/306/83 69/307/83 83/308/83
f 83/309/84 69/310/84 68/311/84 84/312/84
f 84/313/85 68/314/85 77/315/85 86/316/85
f 86/317/86 77/318/86 65/319/86 79/320/86
o left
v 0.375 0 0.5625
v 0.375 1.75 0.46875
v 0.375 1.75 0.375
v 0.375 0 0.375
v 0.625 0 0.375
v 0.625 1.75 0.375
v 0.625 1.75 0.46875
v 0.625 0 0.5625
vt 0.9150390625 0.013671875
vt 0.9150390625 0.09997554687499999
vt 0.8828125 0.09997554687499999
vt 0.8828125 0.013671875
vt 0.96875 0.013671875
vt 0.96875 0.09997554687499999
vt 0.9365234375 0.09997554687499999
vt 0.9365234375 0.013671875
vt 0.904296875 0.013671875
vt 0.904296875 0.05065914062499999
vt 0.8828125 0.05065914062499999
vt 0.8828125 0.013671875
vt 0.904296875 0.07531734374999999
vt 0.904296875 0.1123046875
vt 0.8828125 0.1123046875
vt 0.8828125 0.07531734374999999
vt 0.904296875 0.013671875
vt 0.904296875 0.09997554687499999
vt 0.8828125 0.09997554687499999
vt 0.8828125 0.013671875
vt 0.904296875 0.013671875
vt 0.904296875 0.09997554687499999
vt 0.8828125 0.09997554687499999
vt 0.8828125 0.013671875
vn -1 0 0
vn 1 0 0
vn 0 1 0
vn 0 -1 0
vn 0 0 -1
vn 0 0.05349472137161191 0.998568132270089
usemtl m_920b030c-7859-2e1a-3e8d-997053cdc82f
f 87/321/87 88/322/87 89/323/87 90/324/87
f 91/325/88 92/326/88 93/327/88 94/328/88
f 89/329/89 88/330/89 93/331/89 92/332/89
f 87/333/90 90/334/90 91/335/90 94/336/90
f 90/337/91 89/338/91 92/339/91 91/340/91
f 94/341/92 93/342/92 88/343/92 87/344/92
o left
v -0.625 0 0.5625
v -0.625 1.75 0.46875
v -0.625 1.75 0.375
v -0.625 0 0.375
v -0.375 0 0.375
v -0.375 1.75 0.375
v -0.375 1.75 0.46875
v -0.375 0 0.5625
vt 0.9150390625 0.013671875
vt 0.9150390625 0.09997554687499999
vt 0.8828125 0.09997554687499999
vt 0.8828125 0.013671875
vt 0.96875 0.013671875
vt 0.96875 0.09997554687499999
vt 0.9365234375 0.09997554687499999
vt 0.9365234375 0.013671875
vt 0.904296875 0.013671875
vt 0.904296875 0.05065914062499999
vt 0.8828125 0.05065914062499999
vt 0.8828125 0.013671875
vt 0.904296875 0.07531734374999999
vt 0.904296875 0.1123046875
vt 0.8828125 0.1123046875
vt 0.8828125 0.07531734374999999
vt 0.904296875 0.013671875
vt 0.904296875 0.09997554687499999
vt 0.8828125 0.09997554687499999
vt 0.8828125 0.013671875
vt 0.904296875 0.013671875
vt 0.904296875 0.09997554687499999
vt 0.8828125 0.09997554687499999
vt 0.8828125 0.013671875
vn -1 0 0
vn 1 0 0
vn 0 1 0
vn 0 -1 0
vn 0 0 -1
vn 0 0.05349472137161191 0.998568132270089
usemtl m_920b030c-7859-2e1a-3e8d-997053cdc82f
f 95/345/93 96/346/93 97/347/93 98/348/93
f 99/349/94 100/350/94 101/351/94 102/352/94
f 97/353/95 96/354/95 101/355/95 100/356/95
f 95/357/96 98/358/96 99/359/96 102/360/96
f 98/361/97 97/362/97 100/363/97 99/364/97
f 102/365/98 101/366/98 96/367/98 95/368/98
o left
v -0.625 0 0.5625
v -0.625 0 0.8601769678379703
v -0.625 0.8154646064324059 0.9174889065812599
v -0.625 0.875 0.515625
v -0.375 0.875 0.515625
v -0.375 0.8154646064324059 0.9174889065812599
v -0.375 0 0.8601769678379703
v -0.375 0 0.5625
v -0.375 0 0.875
v -0.375 0.796875 0.9375
v -0.625 0.796875 0.9375
v -0.625 0 0.875
vt 0.8828125 0.013671875
vt 0.9135104373082907 0.013671875
vt 0.9135104373082907 0.09997554687499999
vt 0.8828125 0.09997554687499999
vt 0.96875 0.09997554687499999
vt 0.9380520626917093 0.09997554687499999
vt 0.9380520626917093 0.013671875
vt 0.96875 0.013671875
vt 0.904296875 0.013671875
vt 0.904296875 0.04890469765557626
vt 0.8828125 0.04890469765557626
vt 0.8828125 0.013671875
vt 0.8828125 0.1123046875
vt 0.8828125 0.07707179042518175
vt 0.904296875 0.07707179042518175
vt 0.904296875 0.1123046875
vt 0.904296875 0.013671875
vt 0.904296875 0.09997554687499999
vt 0.8828125 0.09997554687499999
vt 0.8828125 0.013671875
vt 0.904296875 0.013671875
vt 0.904296875 0.09997554687499999
vt 0.8828125 0.09997554687499999
vt 0.8828125 0.013671875
vt 0.9150390625 0.09997554687499999
vt 0.9135104373082907 0.09997554687499999
vt 0.9135104373082907 0.013671875
vt 0.9150390625 0.013671875
vt 0.904296875 0.07531734374999999
vt 0.904296875 0.07707179042518175
vt 0.8828125 0.07707179042518175
vt 0.8828125 0.07531734374999999
vt 0.9365234375 0.013671875
vt 0.9380520626917093 0.013671875
vt 0.9380520626917093 0.09997554687499999
vt 0.9365234375 0.09997554687499999
vt 0.8828125 0.05065914062499999
vt 0.8828125 0.04890469765557626
vt 0.904296875 0.04890469765557626
vt 0.904296875 0.05065914062499999
vn -1 0 0
vn 1 0 0
vn 0 0.9892034623538708 0.14654866108946238
vn 0 -1 0
vn 0 -0.05349472137161191 -0.998568132270089
vn 0 -0.07819124531863149 0.9969383778125515
vn -1 0 0
vn 0 -1 0
vn 1 0 0
vn 0 0.7326496763843674 0.6806059445037794
usemtl m_920b030c-7859-2e1a-3e8d-997053cdc82f
f 103/369/99 104/370/99 105/371/99 106/372/99
f 107/373/100 108/374/100 109/375/100 110/376/100
f 106/377/101 105/378/101 108/379/101 107/380/101
f 110/381/102 109/382/102 104/383/102 103/384/102
f 103/385/103 106/386/103 107/387/103 110/388/103
f 111/389/104 112/390/104 113/391/104 114/392/104
f 113/393/105 105/394/105 104/395/105 114/396/105
f 114/397/106 104/398/106 109/399/106 111/400/106
f 111/401/107 109/402/107 108/403/107 112/404/107
f 112/405/108 108/406/108 105/407/108 113/408/108
o left
v -0.37500000000000006 0 -0.5625
v -0.3750000000000001 0 -0.8601769678379703
v -0.3750000000000001 0.8154646064324059 -0.9174889065812599
v -0.37500000000000006 0.875 -0.515625
v -0.6250000000000001 0.875 -0.5156249999999999
v -0.6250000000000001 0.8154646064324059 -0.9174889065812598
v -0.6250000000000001 0 -0.8601769678379702
v -0.6250000000000001 0 -0.5624999999999999
v -0.6250000000000001 0 -0.8749999999999999
v -0.6250000000000001 0.796875 -0.9374999999999999
v -0.3750000000000001 0.796875 -0.9375
v -0.3750000000000001 0 -0.875
vt 0.8828125 0.013671875
vt 0.9135104373082907 0.013671875
vt 0.9135104373082907 0.09997554687499999
vt 0.8828125 0.09997554687499999
vt 0.96875 0.09997554687499999
vt 0.9380520626917093 0.09997554687499999
vt 0.9380520626917093 0.013671875
vt 0.96875 0.013671875
vt 0.904296875 0.013671875
vt 0.904296875 0.04890469765557626
vt 0.8828125 0.04890469765557626
vt 0.8828125 0.013671875
vt 0.8828125 0.1123046875
vt 0.8828125 0.07707179042518175
vt 0.904296875 0.07707179042518175
vt 0.904296875 0.1123046875
vt 0.904296875 0.013671875
vt 0.904296875 0.09997554687499999
vt 0.8828125 0.09997554687499999
vt 0.8828125 0.013671875
vt 0.904296875 0.013671875
vt 0.904296875 0.09997554687499999
vt 0.8828125 0.09997554687499999
vt 0.8828125 0.013671875
vt 0.9150390625 0.09997554687499999
vt 0.9135104373082907 0.09997554687499999
vt 0.9135104373082907 0.013671875
vt 0.9150390625 0.013671875
vt 0.904296875 0.07531734374999999
vt 0.904296875 0.07707179042518175
vt 0.8828125 0.07707179042518175
vt 0.8828125 0.07531734374999999
vt 0.9365234375 0.013671875
vt 0.9380520626917093 0.013671875
vt 0.9380520626917093 0.09997554687499999
vt 0.9365234375 0.09997554687499999
vt 0.8828125 0.05065914062499999
vt 0.8828125 0.04890469765557626
vt 0.904296875 0.04890469765557626
vt 0.904296875 0.05065914062499999
vn 1 -1.3106145490594099e-17 -1.8648117667428448e-16
vn -1 0 0
vn -3.4160708450004825e-17 0.9892034623538708 -0.14654866108946238
vn 0 -1 0
vn 4.4345333284127654e-16 -0.05349472137161192 0.998568132270089
vn -4.51410548559665e-16 -0.07819124531863149 -0.9969383778125515
vn 1 0 0
vn 0 -1 0
vn -1 0 0
vn -3.016820066652443e-16 0.7326496763843674 -0.6806059445037794
usemtl m_920b030c-7859-2e1a-3e8d-997053cdc82f
f 115/409/109 116/410/109 117/411/109 118/412/109
f 119/413/110 120/414/110 121/415/110 122/416/110
f 118/417/111 117/418/111 120/419/111 119/420/111
f 122/421/112 121/422/112 116/423/112 115/424/112
f 115/425/113 118/426/113 119/427/113 122/428/113
f 123/429/114 124/430/114 125/431/114 126/432/114
f 125/433/115 117/434/115 116/435/115 126/436/115
f 126/437/116 116/438/116 121/439/116 123/440/116
f 123/441/117 121/442/117 120/443/117 124/444/117
f 124/445/118 120/446/118 117/447/118 125/448/118
o left
v -0.37500000000000006 0 -0.5625
v -0.37500000000000006 1.75 -0.46874999999999994
v -0.37500000000000006 1.75 -0.37499999999999994
v -0.37500000000000006 0 -0.37499999999999994
v -0.625 0 -0.37499999999999994
v -0.625 1.75 -0.37499999999999994
v -0.6250000000000001 1.75 -0.46874999999999994
v -0.6250000000000001 0 -0.5624999999999999
vt 0.9150390625 0.013671875
vt 0.9150390625 0.09997554687499999
vt 0.8828125 0.09997554687499999
vt 0.8828125 0.013671875
vt 0.96875 0.013671875
vt 0.96875 0.09997554687499999
vt 0.9365234375 0.09997554687499999
vt 0.9365234375 0.013671875
vt 0.904296875 0.013671875
vt 0.904296875 0.05065914062499999
vt 0.8828125 0.05065914062499999
vt 0.8828125 0.013671875
vt 0.904296875 0.07531734374999999
vt 0.904296875 0.1123046875
vt 0.8828125 0.1123046875
vt 0.8828125 0.07531734374999999
vt 0.904296875 0.013671875
vt 0.904296875 0.09997554687499999
vt 0.8828125 0.09997554687499999
vt 0.8828125 0.013671875
vt 0.904296875 0.013671875
vt 0.904296875 0.09997554687499999
vt 0.8828125 0.09997554687499999
vt 0.8828125 0.013671875
vn 1 0 0
vn -1 0 1.1842378929335002e-15
vn 0 1 0
vn 0 -1 0
vn 0 0 1
vn 0 0.053494721371611875 -0.998568132270089
usemtl m_920b030c-7859-2e1a-3e8d-997053cdc82f
f 127/449/119 128/450/119 129/451/119 130/452/119
f 131/453/120 132/454/120 133/455/120 134/456/120
f 129/457/121 128/458/121 133/459/121 132/460/121
f 127/461/122 130/462/122 131/463/122 134/464/122
f 130/465/123 129/466/123 132/467/123 131/468/123
f 134/469/124 133/470/124 128/471/124 127/472/124
o left
v 0.6249999999999999 0 -0.5625000000000001
v 0.6249999999999999 0 -0.8601769678379704
v 0.6249999999999999 0.8154646064324059 -0.91748890658126
v 0.6249999999999999 0.875 -0.5156250000000001
v 0.37499999999999994 0.875 -0.515625
v 0.3749999999999999 0.8154646064324059 -0.9174889065812599
v 0.3749999999999999 0 -0.8601769678379703
v 0.37499999999999994 0 -0.5625
v 0.3749999999999999 0 -0.875
v 0.3749999999999999 0.796875 -0.9375
v 0.6249999999999999 0.796875 -0.9375000000000001
v 0.6249999999999999 0 -0.8750000000000001
vt 0.8828125 0.013671875
vt 0.9135104373082907 0.013671875
vt 0.9135104373082907 0.09997554687499999
vt 0.8828125 0.09997554687499999
vt 0.96875 0.09997554687499999
vt 0.9380520626917093 0.09997554687499999
vt 0.9380520626917093 0.013671875
vt 0.96875 0.013671875
vt 0.904296875 0.013671875
vt 0.904296875 0.04890469765557626
vt 0.8828125 0.04890469765557626
vt 0.8828125 0.013671875
vt 0.8828125 0.1123046875
vt 0.8828125 0.07707179042518175
vt 0.904296875 0.07707179042518175
vt 0.904296875 0.1123046875
vt 0.904296875 0.013671875
vt 0.904296875 0.09997554687499999
vt 0.8828125 0.09997554687499999
vt 0.8828125 0.013671875
vt 0.904296875 0.013671875
vt 0.904296875 0.09997554687499999
vt 0.8828125 0.09997554687499999
vt 0.8828125 0.013671875
vt 0.9150390625 0.09997554687499999
vt 0.9135104373082907 0.09997554687499999
vt 0.9135104373082907 0.013671875
vt 0.9150390625 0.013671875
vt 0.904296875 0.07531734374999999
vt 0.904296875 0.07707179042518175
vt 0.8828125 0.07707179042518175
vt 0.8828125 0.07531734374999999
vt 0.9365234375 0.013671875
vt 0.9380520626917093 0.013671875
vt 0.9380520626917093 0.09997554687499999
vt 0.9365234375 0.09997554687499999
vt 0.8828125 0.05065914062499999
vt 0.8828125 0.04890469765557626
vt 0.904296875 0.04890469765557626
vt 0.904296875 0.05065914062499999
vn 1 0 0
vn -1 9.608214714759079e-18 1.3671076572691306e-16
vn -3.4160708450004825e-17 0.9892034623538708 -0.14654866108946238
vn 0 -1 0
vn 4.4345333284127674e-16 -0.05349472137161191 0.998568132270089
vn -4.51410548559665e-16 -0.07819124531863149 -0.9969383778125515
vn 1 0 0
vn 0 -1 0
vn -1 0 0
vn -3.016820066652443e-16 0.7326496763843674 -0.6806059445037794
usemtl m_920b030c-7859-2e1a-3e8d-997053cdc82f
f 135/473/125 136/474/125 137/475/125 138/476/125
f 139/477/126 140/478/126 141/479/126 142/480/126
f 138/481/127 137/482/127 140/483/127 139/484/127
f 142/485/128 141/486/128 136/487/128 135/488/128
f 135/489/129 138/490/129 139/491/129 142/492/129
f 143/493/130 144/494/130 145/495/130 146/496/130
f 145/497/131 137/498/131 136/499/131 146/500/131
f 146/501/132 136/502/132 141/503/132 143/504/132
f 143/505/133 141/506/133 140/507/133 144/508/133
f 144/509/134 140/510/134 137/511/134 145/512/134
o left
v 0.6249999999999999 0 -0.5625000000000001
v 0.6249999999999999 1.75 -0.46875000000000006
v 0.625 1.75 -0.37500000000000006
v 0.625 0 -0.37500000000000006
v 0.37499999999999994 0 -0.37500000000000006
v 0.37499999999999994 1.75 -0.37500000000000006
v 0.37499999999999994 1.75 -0.46875000000000006
v 0.37499999999999994 0 -0.5625
vt 0.9150390625 0.013671875
vt 0.9150390625 0.09997554687499999
vt 0.8828125 0.09997554687499999
vt 0.8828125 0.013671875
vt 0.96875 0.013671875
vt 0.96875 0.09997554687499999
vt 0.9365234375 0.09997554687499999
vt 0.9365234375 0.013671875
vt 0.904296875 0.013671875
vt 0.904296875 0.05065914062499999
vt 0.8828125 0.05065914062499999
vt 0.8828125 0.013671875
vt 0.904296875 0.07531734374999999
vt 0.904296875 0.1123046875
vt 0.8828125 0.1123046875
vt 0.8828125 0.07531734374999999
vt 0.904296875 0.013671875
vt 0.904296875 0.09997554687499999
vt 0.8828125 0.09997554687499999
vt 0.8828125 0.013671875
vt 0.904296875 0.013671875
vt 0.904296875 0.09997554687499999
vt 0.8828125 0.09997554687499999
vt 0.8828125 0.013671875
vn 1 6.344131569286612e-17 -1.1842378929335002e-15
vn -1 0 0
vn 0 1 0
vn 0 -1 0
vn 0 0 1
vn 0 0.05349472137161189 -0.998568132270089
usemtl m_920b030c-7859-2e1a-3e8d-997053cdc82f
f 147/513/135 148/514/135 149/515/135 150/516/135
f 151/517/136 152/518/136 153/519/136 154/520/136
f 149/521/137 148/522/137 153/523/137 152/524/137
f 147/525/138 150/526/138 151/527/138 154/528/138
f 150/529/139 149/530/139 152/531/139 151/532/139
f 154/533/140 153/534/140 148/535/140 147/536/140
o cube
v -0.609375 0.864948318810004 -0.5787332457036518
v -0.609375 0.9893400731063522 -0.587431564513656
v -0.609375 0.9189476384613338 -0.8659444588472226
v -0.609375 0.8258058841649857 -0.8572461400372186
v -0.390625 0.8258058841649857 -0.8572461400372186
v -0.390625 0.8876976384613338 -0.8659444588472226
v -0.390625 0.9580900731063522 -0.587431564513656
v -0.390625 0.864948318810004 -0.5787332457036518
vt 0.947265625 0.3349609375
vt 0.947265625 0.3427734375
vt 0.912109375 0.3427734375
vt 0.912109375 0.3349609375
vt 0.943359375 0.3349609375
vt 0.943359375 0.3427734375
vt 0.908203125 0.3427734375
vt 0.908203125 0.3349609375
vt 0.935546875 0.3154296875
vt 0.935546875 0.3505859375
vt 0.908203125 0.3505859375
vt 0.908203125 0.3154296875
vt 0.935546875 0.302734375
vt 0.935546875 0.337890625
vt 0.908203125 0.337890625
vt 0.908203125 0.302734375
vt 0.935546875 0.3349609375
vt 0.935546875 0.3427734375
vt 0.908203125 0.3427734375
vt 0.908203125 0.3349609375
vt 0.9375 0.3349609375
vt 0.9375 0.3427734375
vt 0.91015625 0.3427734375
vt 0.91015625 0.3349609375
vn -1 0 0
vn 1 0 0
vn 0.13719229023561344 0.9603460316492941 -0.24272159977093163
vn 0 -0.9902680687415704 0.1391731009600651
vn -0.013282167658779251 -0.09297517361145474 -0.9955798316128166
vn 0.013282167658779407 0.09297517361145581 0.9955798316128164
usemtl m_920b030c-7859-2e1a-3e8d-997053cdc82f
f 155/537/141 156/538/141 157/539/141 158/540/141
f 159/541/142 160/542/142 161/543/142 162/544/142
f 157/545/143 156/546/143 161/547/143 160/548/143
f 155/549/144 158/550/144 159/551/144 162/552/144
f 158/553/145 157/554/145 160/555/145 159/556/145
f 162/557/146 161/558/146 156/559/146 155/560/146
o doorLeft
v -0.0390625 0.4140625 -0.015624999999999995
v -0.03125 0.4375 -0.015624999999999997
v -0.031249999999999997 0.4375 0.015625000000000003
v -0.0390625 0.4140625 0.015625000000000003
v -0.4375 0.40625 0.015625000000000052
v -0.4375 0.4375 0.015625000000000052
v -0.4375 0.4375 -0.015624999999999946
v -0.4375 0.40625 -0.015624999999999946
v -0.0390625 1.7109375 -0.015624999999999995
v -0.0625 1.71875 -0.015624999999999993
v -0.0625 1.71875 0.015625000000000007
v -0.0390625 1.7109375 0.015625000000000003
v -0.0625 0.40625 0.015625000000000007
v -0.0625 0.40625 -0.015624999999999993
v -0.0625 0.4375 0.015625000000000007
v -0.0625 0.4375 -0.015624999999999993
v -0.031249999999999997 1.6875 0.015625000000000003
v -0.03125 1.6875 -0.015624999999999997
v -0.0625 1.6875 -0.015624999999999993
v -0.4375 1.71875 -0.015624999999999946
v -0.4375 1.6875 -0.015624999999999946
v -0.4375 1.6875 0.015625000000000052
v -0.4375 1.71875 0.015625000000000052
v -0.0625 1.6875 0.015625000000000007
vt 0.8483072916666666 0.1640625
vt 0.8483072916666666 0.16585286458333337
vt 0.7632955293525403 0.16585286458333337
vt 0.7632955293525403 0.1640625
vt 0.8483072916666666 0.1640625
vt 0.8483072916666666 0.16585286458333337
vt 0.7632955293525403 0.16585286458333337
vt 0.7632955293525403 0.1640625
vt 0.8457539498141264 0.2392578125
vt 0.8392145834822705 0.2392578125
vt 0.8392145834822705 0.234375
vt 0.8457539498141264 0.234375
vt 0.8457539498141264 0.2392578125
vt 0.8392145834822705 0.2392578125
vt 0.8392145834822705 0.234375
vt 0.8457539498141264 0.234375
vt 0.7060546875 0.05078125
vt 0.7060546875 0.0546875
vt 0.7021484375 0.0546875
vt 0.7021484375 0.05078125
vt 0.7021484375 0.05078125
vt 0.7021484375 0.0546875
vt 0.7060546875 0.0546875
vt 0.7060546875 0.05078125
vt 0.7632955293525403 0.2392578125
vt 0.7632955293525403 0.23746744791666663
vt 0.8483072916666666 0.23746744791666663
vt 0.8483072916666666 0.2392578125
vt 0.7060546875 0.2109375
vt 0.7021484375 0.2109375
vt 0.7021484375 0.21484375
vt 0.7060546875 0.21484375
vt 0.7632955293525403 0.2392578125
vt 0.7632955293525403 0.23746744791666663
vt 0.8483072916666666 0.23746744791666663
vt 0.8483072916666666 0.2392578125
vt 0.7060546875 0.21484375
vt 0.7021484375 0.21484375
vt 0.7021484375 0.2109375
vt 0.7060546875 0.2109375
vt 0.7607421875 0.234375
vt 0.8392145834822705 0.234375
vt 0.8392145834822705 0.2392578125
vt 0.7607421875 0.2392578125
vt 0.6552734375 0.21484375
vt 0.7021484375 0.21484375
vt 0.7021484375 0.2109375
vt 0.6552734375 0.2109375
vt 0.6552734375 0.05078125
vt 0.6552734375 0.0546875
vt 0.7021484375 0.0546875
vt 0.7021484375 0.05078125
vt 0.7607421875 0.234375
vt 0.8392145834822705 0.234375
vt 0.8392145834822705 0.2392578125
vt 0.7607421875 0.2392578125
vt 0.7021484375 0.05078125
vt 0.7021484375 0.0546875
vt 0.6552734375 0.0546875
vt 0.6552734375 0.05078125
vt 0.6552734375 0.2109375
vt 0.7021484375 0.2109375
vt 0.7021484375 0.21484375
vt 0.6552734375 0.21484375
vt 0.7632955293525403 0.23746744791666663
vt 0.7632955293525403 0.16585286458333337
vt 0.8483072916666666 0.16585286458333337
vt 0.8483072916666666 0.23746744791666663
vt 0.7060546875 0.2109375
vt 0.7060546875 0.0546875
vt 0.7021484375 0.0546875
vt 0.7021484375 0.2109375
vt 0.7021484375 0.2109375
vt 0.7021484375 0.0546875
vt 0.6552734375 0.0546875
vt 0.6552734375 0.2109375
vt 0.7632955293525403 0.23746744791666663
vt 0.7632955293525403 0.16585286458333337
vt 0.8483072916666666 0.16585286458333337
vt 0.8483072916666666 0.23746744791666663
vt 0.6552734375 0.2109375
vt 0.6552734375 0.0546875
vt 0.7021484375 0.0546875
vt 0.7021484375 0.2109375
vt 0.7021484375 0.2109375
vt 0.7021484375 0.0546875
vt 0.7060546875 0.0546875
vt 0.7060546875 0.2109375
vn 0.948683298050514 -0.316227766016838 -1.0532500405730105e-16
vn -1 0 0
vn 0.316227766016838 0.948683298050514 0
vn 0.316227766016838 -0.948683298050514 0
vn 1.1102230246251564e-16 -3.7007434154171895e-17 1
vn -1.1102230246251565e-16 0 -1
vn 0.9486832980505138 0.31622776601683805 -1.0532500405730103e-16
vn -1.1102230246251565e-16 0 -1
vn -1 0 0
vn 1.4802973661668753e-16 0 1
vn 0 1 0
vn -1.249000902703301e-16 0 -1
vn -1.249000902703301e-16 0 -1
vn 0 -1 0
vn 1.2027416100105862e-16 0 1
vn 1.2027416100105862e-16 0 1
vn 1 0 -1.1102230246251565e-16
vn -1.1102230246251565e-16 0 -1
vn -1.249000902703301e-16 0 -1
vn -1 0 0
vn 1.2027416100105862e-16 0 1
vn 1.1102230246251565e-16 0 1
usemtl m_920b030c-7859-2e1a-3e8d-997053cdc82f
f 163/561/147 164/562/147 165/563/147 166/564/147
f 167/565/148 168/566/148 169/567/148 170/568/148
f 171/569/149 172/570/149 173/571/149 174/572/149
f 166/573/150 175/574/150 176/575/150 163/576/150
f 166/577/151 165/578/151 177/579/151 175/580/151
f 176/581/152 178/582/152 164/583/152 163/584/152
f 174/585/153 179/586/153 180/587/153 171/588/153
f 180/589/154 181/590/154 172/591/154 171/592/154
f 182/593/155 183/594/155 184/595/155 185/596/155
f 174/597/156 173/598/156 186/599/156 179/600/156
f 185/601/157 173/602/157 172/603/157 182/604/157
f 182/605/158 172/606/158 181/607/158 183/608/158
f 170/609/159 169/610/159 178/611/159 176/612/159
f 170/613/160 176/614/160 175/615/160 167/616/160
f 175/617/161 177/618/161 168/619/161 167/620/161
f 184/621/162 186/622/162 173/623/162 185/624/162
f 179/625/163 165/626/163 164/627/163 180/628/163
f 180/629/164 164/630/164 178/631/164 181/632/164
f 181/633/165 178/634/165 169/635/165 183/636/165
f 183/637/166 169/638/166 168/639/166 184/640/166
f 184/641/167 168/642/167 177/643/167 186/644/167
f 186/645/168 177/646/168 165/647/168 179/648/168
o left
v -0.46875 1.75 0.031250000000000056
v -0.40625 1.75 0.03125000000000005
v -0.40625 1.84375 0.03125000000000005
v -0.46875 1.84375 0.031250000000000056
v -0.46875 1.75 -0.03124999999999994
v -0.46875 1.84375 -0.03124999999999994
v -0.40625 1.75 -0.03124999999999995
v -0.40625 1.84375 -0.03124999999999995
vt 0.8984375 0
vt 1 0
vt 1 0.0751953125
vt 0.8984375 0.0751953125
vt 0.888671875 0.0087890625
vt 0.982421875 0.0087890625
vt 0.982421875 0.1142578125
vt 0.888671875 0.1142578125
vt 0.8984375 0
vt 1 0
vt 1 0.0751953125
vt 0.8984375 0.0751953125
vt 0.888671875 0.0087890625
vt 0.982421875 0.0087890625
vt 0.982421875 0.1142578125
vt 0.888671875 0.1142578125
vt 1 0.0869140625
vt 0.8984375 0.0869140625
vt 0.8984375 0.0234375
vt 1 0.0234375
vt 1 0.0869140625
vt 0.8984375 0.0869140625
vt 0.8984375 0.0234375
vt 1 0.0234375
vn 1.1102230246251565e-16 0 1
vn -1 0 0
vn -1.6653345369377348e-16 0 -1
vn 1 0 0
vn 0 1 0
vn 0 -1 0
usemtl m_920b030c-7859-2e1a-3e8d-997053cdc82f
f 187/649/169 188/650/169 189/651/169 190/652/169
f 191/653/170 187/654/170 190/655/170 192/656/170
f 193/657/171 191/658/171 192/659/171 194/660/171
f 188/661/172 193/662/172 194/663/172 189/664/172
f 194/665/173 192/666/173 190/667/173 189/668/173
f 188/669/174 187/670/174 191/671/174 193/672/174
o right
v -0.41462375 0.375 0.022876250000000053
v -0.42912625 0.375 0.031250000000000056
v -0.4375 0.375 5.35782974626967e-17
v -0.41462375 1.75 0.022876250000000053
v -0.42912625 1.75 0.031250000000000056
v -0.4375 1.75 5.35782974626967e-17
v -0.40625 0.375 0.00837375000000005
v -0.40625 1.75 0.00837375000000005
v -0.40625 0.375 -0.008373749999999949
v -0.40625 1.75 -0.008373749999999949
v -0.41462375 0.375 -0.02287624999999995
v -0.41462375 1.75 -0.02287624999999995
v -0.42912625 0.375 -0.031249999999999948
v -0.42912625 1.75 -0.031249999999999948
v -0.44587375 0.375 -0.031249999999999944
v -0.44587375 1.75 -0.031249999999999944
v -0.46037625 0.375 -0.022876249999999945
v -0.46037625 1.75 -0.022876249999999945
v -0.46875 0.375 -0.008373749999999942
v -0.46875 1.75 -0.008373749999999942
v -0.46875 0.375 0.008373750000000056
v -0.46875 1.75 0.008373750000000056
v -0.46037625 0.375 0.022876250000000056
v -0.46037625 1.75 0.022876250000000056
v -0.44587375 0.375 0.031250000000000056
v -0.44587375 1.75 0.031250000000000056
vt 0.928846953125 0.11059874999999997
vt 0.925821640625 0.1123046875
vt 0.90625 0.11059874999999997
vt 0.90625 0.0595703125
vt 0.917950078125 0.0595703125
vt 0.917950078125 0.1123046875
vt 0.90625 0.1123046875
vt 0.90625 0.10889249999999995
vt 0.9175475 0.10934976562499998
vt 0.90625 0.1123046875
vt 0.92884875 0.11059882812499999
vt 0.925820078125 0.1123046875
vt 0.90625 0.11059882812499999
vt 0.90625 0.0595703125
vt 0.917950078125 0.0595703125
vt 0.917950078125 0.1123046875
vt 0.90625 0.1123046875
vt 0.90625 0.10889273437500002
vt 0.9175484375 0.10934953125000002
vt 0.90625 0.1123046875
vt 0.9280784375 0.11053804687500002
vt 0.9280784375 0.1123046875
vt 0.90625 0.11142140624999997
vt 0.90625 0.0595703125
vt 0.917950078125 0.0595703125
vt 0.917950078125 0.1123046875
vt 0.90625 0.1123046875
vt 0.9280784375 0.11053804687500002
vt 0.9280784375 0.1123046875
vt 0.90625 0.11142140624999997
vt 0.90625 0.10889273437500002
vt 0.9175484375 0.10934953125000002
vt 0.90625 0.1123046875
vt 0.90625 0.0595703125
vt 0.917950078125 0.0595703125
vt 0.917950078125 0.1123046875
vt 0.90625 0.1123046875
vt 0.92884875 0.11059882812499999
vt 0.925820078125 0.1123046875
vt 0.90625 0.11059882812499999
vt 0.90625 0.10889249999999995
vt 0.9175475 0.10934976562499998
vt 0.90625 0.1123046875
vt 0.90625 0.0595703125
vt 0.917950078125 0.0595703125
vt 0.917950078125 0.1123046875
vt 0.90625 0.1123046875
vt 0.928846953125 0.11059874999999997
vt 0.925821640625 0.1123046875
vt 0.90625 0.11059874999999997
vt 0.90625 0.10900874999999999
vt 0.917950078125 0.10900874999999999
vt 0.9121 0.1123046875
vt 0.90625 0.0595703125
vt 0.917950078125 0.0595703125
vt 0.917950078125 0.1123046875
vt 0.90625 0.1123046875
vt 0.917950078125 0.1123046875
vt 0.90625 0.1123046875
vt 0.9121 0.10900874999999999
vt 0.90625 0.1123046875
vt 0.909275234375 0.11059874999999997
vt 0.928846953125 0.1123046875
vt 0.90625 0.0595703125
vt 0.917950078125 0.0595703125
vt 0.917950078125 0.1123046875
vt 0.90625 0.1123046875
vt 0.9175475 0.1123046875
vt 0.90625 0.11184734375000005
vt 0.9175475 0.10889249999999995
vt 0.90625 0.1123046875
vt 0.90927875 0.11059882812499999
vt 0.92884875 0.1123046875
vt 0.90625 0.0595703125
vt 0.917950078125 0.0595703125
vt 0.917950078125 0.1123046875
vt 0.90625 0.1123046875
vt 0.9175484375 0.1123046875
vt 0.90625 0.111847890625
vt 0.9175484375 0.10889273437500002
vt 0.90625 0.1123046875
vt 0.90625 0.11053804687500002
vt 0.9280784375 0.11142140624999997
vt 0.90625 0.0595703125
vt 0.917950078125 0.0595703125
vt 0.917950078125 0.1123046875
vt 0.90625 0.1123046875
vt 0.90625 0.1123046875
vt 0.90625 0.11053804687500002
vt 0.9280784375 0.11142140624999997
vt 0.9175484375 0.1123046875
vt 0.90625 0.111847890625
vt 0.9175484375 0.10889273437500002
vt 0.90625 0.0595703125
vt 0.917950078125 0.0595703125
vt 0.917950078125 0.1123046875
vt 0.90625 0.1123046875
vt 0.90625 0.1123046875
vt 0.90927875 0.11059882812499999
vt 0.92884875 0.1123046875
vt 0.9175475 0.1123046875
vt 0.90625 0.11184734375000005
vt 0.9175475 0.10889249999999995
vt 0.90625 0.0595703125
vt 0.917950078125 0.0595703125
vt 0.917950078125 0.1123046875
vt 0.90625 0.1123046875
vt 0.90625 0.1123046875
vt 0.909275234375 0.11059874999999997
vt 0.928846953125 0.1123046875
vt 0.917950078125 0.1123046875
vt 0.90625 0.1123046875
vt 0.9121 0.10900874999999999
vt 0.90625 0.0595703125
vt 0.917950078125 0.0595703125
vt 0.917950078125 0.1123046875
vt 0.90625 0.1123046875
vt 0.90625 0.10900874999999999
vt 0.917950078125 0.10900874999999999
vt 0.9121 0.1123046875
vn 0 -1 0
vn 0.5000325911601281 0 0.8660065864516785
vn 0 1 0
vn 0 -1 0
vn 0.8660065864516785 0 0.5000325911601278
vn 0 1 0
vn 0 -1 0
vn 1 0 0
vn 0 1 0
vn 0 -1 0
vn 0.8660065864516786 0 -0.5000325911601279
vn 0 1 0
vn 0 -1 0
vn 0.5000325911601279 0 -0.8660065864516784
vn 0 1 0
vn 0 -1 0
vn -2.071620810242489e-16 0 -1
vn 0 1 0
vn 0 -1 0
vn -0.5000325911601279 0 -0.8660065864516784
vn 0 1 0
vn 0 -1 0
vn -0.8660065864516785 0 -0.5000325911601278
vn 0 1 0
vn 0 -1 0
vn -1 0 0
vn 0 1 0
vn 0 -1 0
vn -0.8660065864516786 0 0.5000325911601279
vn 0 1 0
vn 0 -1 0
vn -0.5000325911601279 0 0.8660065864516784
vn 0 1 0
vn 0 -1 0
vn 0 0 1
vn 0 1 0
usemtl m_920b030c-7859-2e1a-3e8d-997053cdc82f
f 195/673/175 196/674/175 197/675/175
f 196/676/176 195/677/176 198/678/176 199/679/176
f 199/680/177 198/681/177 200/682/177
f 201/683/178 195/684/178 197/685/178
f 195/686/179 201/687/179 202/688/179 198/689/179
f 198/690/180 202/691/180 200/692/180
f 203/693/181 201/694/181 197/695/181
f 201/696/182 203/697/182 204/698/182 202/699/182
f 202/700/183 204/701/183 200/702/183
f 205/703/184 203/704/184 197/705/184
f 203/706/185 205/707/185 206/708/185 204/709/185
f 204/710/186 206/711/186 200/712/186
f 207/713/187 205/714/187 197/715/187
f 205/716/188 207/717/188 208/718/188 206/719/188
f 206/720/189 208/721/189 200/722/189
f 209/723/190 207/724/190 197/725/190
f 207/726/191 209/727/191 210/728/191 208/729/191
f 208/730/192 210/731/192 200/732/192
f 211/733/193 209/734/193 197/735/193
f 209/736/194 211/737/194 212/738/194 210/739/194
f 210/740/195 212/741/195 200/742/195
f 213/743/196 211/744/196 197/745/196
f 211/746/197 213/747/197 214/748/197 212/749/197
f 212/750/198 214/751/198 200/752/198
f 215/753/199 213/754/199 197/755/199
f 213/756/200 215/757/200 216/758/200 214/759/200
f 214/760/201 216/761/201 200/762/201
f 217/763/202 215/764/202 197/765/202
f 215/766/203 217/767/203 218/768/203 216/769/203
f 216/770/204 218/771/204 200/772/204
f 219/773/205 217/774/205 197/775/205
f 217/776/206 219/777/206 220/778/206 218/779/206
f 218/780/207 220/781/207 200/782/207
f 196/783/208 219/784/208 197/785/208
f 219/786/209 196/787/209 199/788/209 220/789/209
f 220/790/210 199/791/210 200/792/210
o cube
v -0.625 1.8125 0.46875
v -0.625 1.8125 0.375
v -0.625 1.75 0.375
v -0.625 1.75 0.46875
v -0.375 1.75 0.46875
v -0.375 1.75 0.375
v -0.375 1.8125 0.375
v -0.375 1.8125 0.46875
v -0.375 1.828125 0.46875
v -0.375 1.859375 0.453125
v -0.625 1.859375 0.453125
v -0.625 1.828125 0.46875
v -0.625 1.75 -0.46875
v -0.625 1.8125 -0.46875
v -0.375 1.8125 -0.46875
v -0.375 1.75 -0.46875
v -0.375 1.828125 -0.46875
v -0.625 1.828125 -0.46875
v -0.625 1.859375 -0.453125
v -0.625 1.875 -0.421875
v -0.375 1.875 -0.421875
v -0.375 1.859375 -0.453125
v -0.375 1.8125 -0.34375
v -0.375 1.8125 -0.375
v -0.375 1.7921875 -0.3546875
v -0.375 1.75 -0.375
v -0.625 1.7921875 -0.3546875
v -0.625 1.75 -0.375
v -0.625 1.8125 -0.34375
v -0.625 1.8125 -0.375
v -0.375 1.8125 -0.3125
v -0.375 1.8125 0.3125
v -0.625 1.8125 0.3125
v -0.625 1.8125 -0.3125
v -0.375 1.8125 -0.3125
v -0.375 1.8125 0.3125
v -0.375 1.875 -0.3125
v -0.375 1.875 0.3125
v -0.625 1.875 -0.3125
v -0.625 1.875 0.3125
v -0.625 1.8125 -0.3125
v -0.625 1.8125 0.3125
v -0.375 1.7921875 0.3546875
v -0.625 1.7921875 0.3546875
v -0.375 1.8125 0.34375
v -0.375 1.875 0.421875
v -0.625 1.875 0.421875
v -0.625 1.8125 0.34375
vt 1 0.109375
vt 0.94140625 0.109375
vt 0.94140625 0.1015625
vt 1 0.1015625
vt 0.8828125 0.1015625
vt 0.94140625 0.1015625
vt 0.94140625 0.109375
vt 0.8828125 0.109375
vt 0.8828125 0.1171875
vt 0.8828125 0.05859375
vt 0.9140625 0.05859375
vt 0.9140625 0.1171875
vt 0.9140625 0
vt 0.9140625 0.05859375
vt 0.8828125 0.05859375
vt 0.8828125 0
vt 0.9140625 0.1015625
vt 0.9140625 0.109375
vt 0.8828125 0.109375
vt 0.8828125 0.1015625
vt 0.9140625 0.1015625
vt 0.9140625 0.109375
vt 0.8828125 0.109375
vt 0.8828125 0.1015625
vt 1 0.1171875
vt 0.94140625 0.1171875
vt 0.94140625 0.109375
vt 1 0.109375
vt 0.8828125 0.1171875
vt 0.8828125 0.109375
vt 0.9140625 0.109375
vt 0.9140625 0.1171875
vt 0.8828125 0.109375
vt 0.94140625 0.109375
vt 0.94140625 0.1171875
vt 0.8828125 0.1171875
vt 0.8828125 0.1171875
vt 0.8828125 0.109375
vt 0.9140625 0.109375
vt 0.9140625 0.1171875
vt 0.9140625 0.029296875
vt 0.9140625 0.03662109375
vt 0.8828125 0.03662109375
vt 0.8828125 0.029296875
vt 0.970703125 0.1171875
vt 0.96337890625 0.1171875
vt 0.96337890625 0.109375
vt 0.970703125 0.109375
vt 0.970703125 0.109375
vt 0.96337890625 0.1015625
vt 0.970703125 0.1015625
vt 0.8828125 0.087890625
vt 0.8828125 0.08056640625
vt 0.9140625 0.08056640625
vt 0.9140625 0.087890625
vt 0.912109375 0.1015625
vt 0.91943359375 0.109375
vt 0.912109375 0.109375
vt 0.912109375 0.109375
vt 0.91943359375 0.109375
vt 0.91943359375 0.1171875
vt 0.912109375 0.1171875
vt 0.9140625 0
vt 0.9140625 0.029296875
vt 0.8828125 0.029296875
vt 0.8828125 0
vt 1 0.1171875
vt 0.970703125 0.1171875
vt 0.970703125 0.109375
vt 1 0.109375
vt 1 0.109375
vt 0.970703125 0.109375
vt 0.970703125 0.1015625
vt 1 0.1015625
vt 0.8828125 0.1171875
vt 0.8828125 0.087890625
vt 0.9140625 0.087890625
vt 0.9140625 0.1171875
vt 0.8828125 0.1015625
vt 0.912109375 0.1015625
vt 0.912109375 0.109375
vt 0.8828125 0.109375
vt 0.8828125 0.109375
vt 0.912109375 0.109375
vt 0.912109375 0.1171875
vt 0.8828125 0.1171875
vt 0.8828125 0.0732421875
vt 0.8828125 0.06591796875
vt 0.9140625 0.06591796875
vt 0.9140625 0.0732421875
vt 0.9560546875 0.109375
vt 0.94873046875 0.1015625
vt 0.94873046875 0.109375
vt 0.9560546875 0.1015625
vt 0.9560546875 0.1171875
vt 0.94873046875 0.1171875
vt 0.94873046875 0.109375
vt 0.9560546875 0.109375
vt 0.9140625 0.0439453125
vt 0.9140625 0.05126953125
vt 0.8828125 0.05126953125
vt 0.8828125 0.0439453125
vt 0.9267578125 0.109375
vt 0.93408203125 0.109375
vt 0.93408203125 0.1171875
vt 0.9267578125 0.1171875
vt 0.9267578125 0.1015625
vt 0.93408203125 0.109375
vt 0.93408203125 0.1015625
vt 0.9267578125 0.109375
vt 0.8828125 0.06591796875
vt 0.8828125 0.062255859375
vt 0.9140625 0.062255859375
vt 0.9140625 0.06591796875
vt 0.94873046875 0.109375
vt 0.945068359375 0.109375
vt 0.945068359375 0.1015625
vt 0.94873046875 0.1015625
vt 0.94873046875 0.1171875
vt 0.945068359375 0.1171875
vt 0.945068359375 0.109375
vt 0.94873046875 0.109375
vt 0.9140625 0.05126953125
vt 0.9140625 0.054931640625
vt 0.8828125 0.054931640625
vt 0.8828125 0.05126953125
vt 0.93408203125 0.109375
vt 0.937744140625 0.109375
vt 0.937744140625 0.1171875
vt 0.93408203125 0.1171875
vt 0.9140625 0.05859375
vt 0.9140625 0.062255859375
vt 0.8828125 0.062255859375
vt 0.8828125 0.05859375
vt 0.94140625 0.1015625
vt 0.945068359375 0.1015625
vt 0.945068359375 0.109375
vt 0.94140625 0.109375
vt 0.945068359375 0.109375
vt 0.945068359375 0.1171875
vt 0.94140625 0.1171875
vt 0.8828125 0.05859375
vt 0.8828125 0.054931640625
vt 0.9140625 0.054931640625
vt 0.9140625 0.05859375
vt 0.94140625 0.1171875
vt 0.937744140625 0.1171875
vt 0.937744140625 0.109375
vt 0.94140625 0.109375
vt 0.94140625 0.109375
vt 0.937744140625 0.109375
vt 0.94140625 0.1015625
vt 0.9140625 0.0732421875
vt 0.9140625 0.08056640625
vt 0.8828125 0.08056640625
vt 0.8828125 0.0732421875
vt 0.9560546875 0.1015625
vt 0.96337890625 0.1015625
vt 0.9560546875 0.109375
vt 0.9560546875 0.109375
vt 0.96337890625 0.109375
vt 0.96337890625 0.1171875
vt 0.9560546875 0.1171875
vt 0.8828125 0.0439453125
vt 0.8828125 0.03662109375
vt 0.9140625 0.03662109375
vt 0.9140625 0.0439453125
vt 0.9267578125 0.1171875
vt 0.91943359375 0.1171875
vt 0.91943359375 0.109375
vt 0.9267578125 0.109375
vt 0.9267578125 0.109375
vt 0.91943359375 0.109375
vt 0.91943359375 0.1015625
vt 0.9267578125 0.1015625
vt 0.912109375 0.1015625
vt 0.91943359375 0.1015625
vt 0.912109375 0.109375
vt 0.8828125 0.11464843749999998
vt 0.8841796875 0.1171875
vt 0.8880859375 0.1171875
vt 0.8880859375 0.1171875
vt 0.94140625 0.109375
vt 0.937744140625 0.1015625
vt 0.94140625 0.1015625
vt 0.945068359375 0.1015625
vt 0.945068359375 0.109375
vt 0.94140625 0.109375
vt 0.8853515625 0.11464843749999998
vt 0.8828125 0.1171875
vt 0.8828125 0.109375
vt 0.9560546875 0.1015625
vt 0.96337890625 0.1015625
vt 0.96337890625 0.109375
vt 0.970703125 0.109375
vt 0.96337890625 0.109375
vt 0.970703125 0.1015625
vn -1 0 0
vn 1 0 0
vn 0 0.44721359549995804 0.8944271909999161
vn 0 -1 0
vn 0 0 -1
vn 0 0 1
vn -1 0 0
vn 0 0 1
vn 1 0 0
vn 0 0 -1
vn 0 0.8944271909999161 -0.44721359549995804
vn 1 0 0
vn 1 0 0
vn 0 -0.43381561877289976 0.9010016697591
vn -1 0 0
vn -1 0 0
vn 0 0.44721359549995804 -0.8944271909999161
vn 1 0 0
vn 1 0 0
vn 0 -1 0
vn -1 0 0
vn -1 0 0
vn 0 -1 0
vn 0 0 0
vn 1 0 0
vn 0 1 0
vn -1 0 0
vn 0 0 0
vn 0 -0.9010016697591001 -0.4338156187728992
vn 1 0 0
vn 1 0 0
vn 0 1 0
vn -1 0 0
vn 0 -0.43381561877289976 -0.9010016697591
vn -1 0 0
vn 1 0 0
vn 0 0.8944271909999161 0.44721359549995804
vn -1 0 0
vn -1 0 0
vn 0 -0.9010016697591001 0.4338156187728992
vn 0 0 0
vn 1 0 0
vn 0 1 0
vn -1 0 0
vn -1 0 0
vn -1 0 0
vn -1 0 0
vn -1 0 0
vn 1 0 0
vn 1 0 0
vn 1 0 0
vn 1 0 0
usemtl m_920b030c-7859-2e1a-3e8d-997053cdc82f
f 221/793/211 222/794/211 223/795/211 224/796/211
f 225/797/212 226/798/212 227/799/212 228/800/212
f 229/801/213 230/802/213 231/803/213 232/804/213
f 224/805/214 223/806/214 226/807/214 225/808/214
f 233/809/215 234/810/215 235/811/215 236/812/215
f 225/813/216 228/814/216 221/815/216 224/816/216
f 232/817/217 231/818/217 222/819/217 221/820/217
f 232/821/218 221/822/218 228/823/218 229/824/218
f 228/825/219 227/826/219 230/827/219 229/828/219
f 237/829/220 235/830/220 234/831/220 238/832/220
f 239/833/221 240/834/221 241/835/221 242/836/221
f 242/837/222 241/838/222 243/839/222 244/840/222
f 244/841/223 245/842/223 246/843/223
f 246/844/224 245/845/224 247/846/224 248/847/224
f 248/848/225 249/849/225 250/850/225
f 250/851/226 249/852/226 240/853/226 239/854/226
f 238/855/227 239/856/227 242/857/227 237/858/227
f 237/859/228 242/860/228 244/861/228 235/862/228
f 235/863/229 244/864/229 246/865/229 236/866/229
f 236/867/230 246/868/230 248/869/230 233/870/230
f 233/871/231 248/872/231 250/873/231 234/874/231
f 234/875/232 250/876/232 239/877/232 238/878/232
f 251/879/233 252/880/233 253/881/233 254/882/233
f 255/883/234 252/884/234 256/885/234 251/886/234
f 257/887/235 258/888/235 256/889/235 255/890/235
f 259/891/236 260/892/236 258/893/236 257/894/236
f 261/895/237 262/896/237 260/897/237 259/898/237
f 254/899/238 262/900/238 253/901/238 261/902/238
f 252/903/239 263/904/239 264/905/239 253/906/239
f 256/907/240 265/908/240 263/909/240 252/910/240
f 258/911/241 266/912/241 265/913/241 256/914/241
f 260/915/242 267/916/242 266/917/242 258/918/242
f 262/919/243 268/920/243 267/921/243 260/922/243
f 223/923/244 264/924/244 263/925/244 226/926/244
f 226/927/245 263/928/245 265/929/245
f 227/930/246 265/931/246 266/932/246 230/933/246
f 230/934/247 266/935/247 267/936/247 231/937/247
f 231/938/248 267/939/248 268/940/248 222/941/248
f 222/942/249 268/943/249 223/944/249
f 254/945/250 247/946/250 245/947/250 251/948/250
f 251/949/251 245/950/251 255/951/251
f 255/952/252 243/953/252 241/954/252 257/955/252
f 257/956/253 241/957/253 240/958/253 259/959/253
f 259/960/254 240/961/254 249/962/254 261/963/254
f 261/964/255 249/965/255 247/966/255 254/967/255
f 248/968/256 247/969/256 250/970/256
f 264/971/257 268/972/257 262/973/257 253/974/257
f 222/975/258 264/976/258 223/977/258
f 263/978/259 265/979/259 227/980/259
f 263/981/260 227/982/260 226/983/260
f 251/984/261 245/985/261 243/986/261
f 244/987/262 243/988/262 246/989/262
o cube
v 0.375 1.8125 0.46875
v 0.375 1.8125 0.375
v 0.375 1.75 0.375
v 0.375 1.75 0.46875
v 0.625 1.75 0.46875
v 0.625 1.75 0.375
v 0.625 1.8125 0.375
v 0.625 1.8125 0.46875
v 0.625 1.828125 0.46875
v 0.625 1.859375 0.453125
v 0.375 1.859375 0.453125
v 0.375 1.828125 0.46875
v 0.375 1.75 -0.46875
v 0.375 1.8125 -0.46875
v 0.625 1.8125 -0.46875
v 0.625 1.75 -0.46875
v 0.625 1.828125 -0.46875
v 0.375 1.828125 -0.46875
v 0.375 1.859375 -0.453125
v 0.375 1.875 -0.421875
v 0.625 1.875 -0.421875
v 0.625 1.859375 -0.453125
v 0.625 1.8125 -0.34375
v 0.625 1.8125 -0.375
v 0.625 1.7921875 -0.3546875
v 0.625 1.75 -0.375
v 0.375 1.7921875 -0.3546875
v 0.375 1.75 -0.375
v 0.375 1.8125 -0.34375
v 0.375 1.8125 -0.375
v 0.625 1.8125 -0.3125
v 0.625 1.8125 0.3125
v 0.375 1.8125 0.3125
v 0.375 1.8125 -0.3125
v 0.625 1.8125 -0.3125
v 0.625 1.8125 0.3125
v 0.625 1.875 -0.3125
v 0.625 1.875 0.3125
v 0.375 1.875 -0.3125
v 0.375 1.875 0.3125
v 0.375 1.8125 -0.3125
v 0.375 1.8125 0.3125
v 0.625 1.7921875 0.3546875
v 0.375 1.7921875 0.3546875
v 0.625 1.8125 0.34375
v 0.625 1.875 0.421875
v 0.375 1.875 0.421875
v 0.375 1.8125 0.34375
vt 1 0.109375
vt 0.94140625 0.109375
vt 0.94140625 0.1015625
vt 1 0.1015625
vt 0.8828125 0.1015625
vt 0.94140625 0.1015625
vt 0.94140625 0.109375
vt 0.8828125 0.109375
vt 0.8828125 0.1171875
vt 0.8828125 0.05859375
vt 0.9140625 0.05859375
vt 0.9140625 0.1171875
vt 0.9140625 0
vt 0.9140625 0.05859375
vt 0.8828125 0.05859375
vt 0.8828125 0
vt 0.9140625 0.1015625
vt 0.9140625 0.109375
vt 0.8828125 0.109375
vt 0.8828125 0.1015625
vt 0.9140625 0.1015625
vt 0.9140625 0.109375
vt 0.8828125 0.109375
vt 0.8828125 0.1015625
vt 1 0.1171875
vt 0.94140625 0.1171875
vt 0.94140625 0.109375
vt 1 0.109375
vt 0.8828125 0.1171875
vt 0.8828125 0.109375
vt 0.9140625 0.109375
vt 0.9140625 0.1171875
vt 0.8828125 0.109375
vt 0.94140625 0.109375
vt 0.94140625 0.1171875
vt 0.8828125 0.1171875
vt 0.8828125 0.1171875
vt 0.8828125 0.109375
vt 0.9140625 0.109375
vt 0.9140625 0.1171875
vt 0.9140625 0.029296875
vt 0.9140625 0.03662109375
vt 0.8828125 0.03662109375
vt 0.8828125 0.029296875
vt 0.970703125 0.1171875
vt 0.96337890625 0.1171875
vt 0.96337890625 0.109375
vt 0.970703125 0.109375
vt 0.970703125 0.109375
vt 0.96337890625 0.1015625
vt 0.970703125 0.1015625
vt 0.8828125 0.087890625
vt 0.8828125 0.08056640625
vt 0.9140625 0.08056640625
vt 0.9140625 0.087890625
vt 0.912109375 0.1015625
vt 0.91943359375 0.109375
vt 0.912109375 0.109375
vt 0.912109375 0.109375
vt 0.91943359375 0.109375
vt 0.91943359375 0.1171875
vt 0.912109375 0.1171875
vt 0.9140625 0
vt 0.9140625 0.029296875
vt 0.8828125 0.029296875
vt 0.8828125 0
vt 1 0.1171875
vt 0.970703125 0.1171875
vt 0.970703125 0.109375
vt 1 0.109375
vt 1 0.109375
vt 0.970703125 0.109375
vt 0.970703125 0.1015625
vt 1 0.1015625
vt 0.8828125 0.1171875
vt 0.8828125 0.087890625
vt 0.9140625 0.087890625
vt 0.9140625 0.1171875
vt 0.8828125 0.1015625
vt 0.912109375 0.1015625
vt 0.912109375 0.109375
vt 0.8828125 0.109375
vt 0.8828125 0.109375
vt 0.912109375 0.109375
vt 0.912109375 0.1171875
vt 0.8828125 0.1171875
vt 0.8828125 0.0732421875
vt 0.8828125 0.06591796875
vt 0.9140625 0.06591796875
vt 0.9140625 0.0732421875
vt 0.9560546875 0.109375
vt 0.94873046875 0.1015625
vt 0.94873046875 0.109375
vt 0.9560546875 0.1015625
vt 0.9560546875 0.1171875
vt 0.94873046875 0.1171875
vt 0.94873046875 0.109375
vt 0.9560546875 0.109375
vt 0.9140625 0.0439453125
vt 0.9140625 0.05126953125
vt 0.8828125 0.05126953125
vt 0.8828125 0.0439453125
vt 0.9267578125 0.109375
vt 0.93408203125 0.109375
vt 0.93408203125 0.1171875
vt 0.9267578125 0.1171875
vt 0.9267578125 0.1015625
vt 0.93408203125 0.109375
vt 0.93408203125 0.1015625
vt 0.9267578125 0.109375
vt 0.8828125 0.06591796875
vt 0.8828125 0.062255859375
vt 0.9140625 0.062255859375
vt 0.9140625 0.06591796875
vt 0.94873046875 0.109375
vt 0.945068359375 0.109375
vt 0.945068359375 0.1015625
vt 0.94873046875 0.1015625
vt 0.94873046875 0.1171875
vt 0.945068359375 0.1171875
vt 0.945068359375 0.109375
vt 0.94873046875 0.109375
vt 0.9140625 0.05126953125
vt 0.9140625 0.054931640625
vt 0.8828125 0.054931640625
vt 0.8828125 0.05126953125
vt 0.93408203125 0.109375
vt 0.937744140625 0.109375
vt 0.937744140625 0.1171875
vt 0.93408203125 0.1171875
vt 0.9140625 0.05859375
vt 0.9140625 0.062255859375
vt 0.8828125 0.062255859375
vt 0.8828125 0.05859375
vt 0.94140625 0.1015625
vt 0.945068359375 0.1015625
vt 0.945068359375 0.109375
vt 0.94140625 0.109375
vt 0.945068359375 0.109375
vt 0.945068359375 0.1171875
vt 0.94140625 0.1171875
vt 0.8828125 0.05859375
vt 0.8828125 0.054931640625
vt 0.9140625 0.054931640625
vt 0.9140625 0.05859375
vt 0.94140625 0.1171875
vt 0.937744140625 0.1171875
vt 0.937744140625 0.109375
vt 0.94140625 0.109375
vt 0.94140625 0.109375
vt 0.937744140625 0.109375
vt 0.94140625 0.1015625
vt 0.9140625 0.0732421875
vt 0.9140625 0.08056640625
vt 0.8828125 0.08056640625
vt 0.8828125 0.0732421875
vt 0.9560546875 0.1015625
vt 0.96337890625 0.1015625
vt 0.9560546875 0.109375
vt 0.9560546875 0.109375
vt 0.96337890625 0.109375
vt 0.96337890625 0.1171875
vt 0.9560546875 0.1171875
vt 0.8828125 0.0439453125
vt 0.8828125 0.03662109375
vt 0.9140625 0.03662109375
vt 0.9140625 0.0439453125
vt 0.9267578125 0.1171875
vt 0.91943359375 0.1171875
vt 0.91943359375 0.109375
vt 0.9267578125 0.109375
vt 0.9267578125 0.109375
vt 0.91943359375 0.109375
vt 0.91943359375 0.1015625
vt 0.9267578125 0.1015625
vt 0.912109375 0.1015625
vt 0.91943359375 0.1015625
vt 0.912109375 0.109375
vt 0.8828125 0.11464843749999998
vt 0.8841796875 0.1171875
vt 0.8880859375 0.1171875
vt 0.8880859375 0.1171875
vt 0.94140625 0.109375
vt 0.937744140625 0.1015625
vt 0.94140625 0.1015625
vt 0.945068359375 0.1015625
vt 0.945068359375 0.109375
vt 0.94140625 0.109375
vt 0.8853515625 0.11464843749999998
vt 0.8828125 0.1171875
vt 0.8828125 0.109375
vt 0.9560546875 0.1015625
vt 0.96337890625 0.1015625
vt 0.96337890625 0.109375
vt 0.970703125 0.109375
vt 0.96337890625 0.109375
vt 0.970703125 0.1015625
vn -1 0 0
vn 1 0 0
vn 0 0.44721359549995804 0.8944271909999161
vn 0 -1 0
vn 0 0 -1
vn 0 0 1
vn -1 0 0
vn 0 0 1
vn 1 0 0
vn 0 0 -1
vn 0 0.8944271909999161 -0.44721359549995804
vn 1 0 0
vn 1 0 0
vn 0 -0.43381561877289976 0.9010016697591
vn -1 0 0
vn -1 0 0
vn 0 0.44721359549995804 -0.8944271909999161
vn 1 0 0
vn 1 0 0
vn 0 -1 0
vn -1 0 0
vn -1 0 0
vn 0 -1 0
vn 0 0 0
vn 1 0 0
vn 0 1 0
vn -1 0 0
vn 0 0 0
vn 0 -0.9010016697591001 -0.4338156187728992
vn 1 0 0
vn 1 0 0
vn 0 1 0
vn -1 0 0
vn 0 -0.43381561877289976 -0.9010016697591
vn -1 0 0
vn 1 0 0
vn 0 0.8944271909999161 0.44721359549995804
vn -1 0 0
vn -1 0 0
vn 0 -0.9010016697591001 0.4338156187728992
vn 0 0 0
vn 1 0 0
vn 0 1 0
vn -1 0 0
vn -1 0 0
vn -1 0 0
vn -1 0 0
vn -1 0 0
vn 1 0 0
vn 1 0 0
vn 1 0 0
vn 1 0 0
usemtl m_920b030c-7859-2e1a-3e8d-997053cdc82f
f 269/990/263 270/991/263 271/992/263 272/993/263
f 273/994/264 274/995/264 275/996/264 276/997/264
f 277/998/265 278/999/265 279/1000/265 280/1001/265
f 272/1002/266 271/1003/266 274/1004/266 273/1005/266
f 281/1006/267 282/1007/267 283/1008/267 284/1009/267
f 273/1010/268 276/1011/268 269/1012/268 272/1013/268
f 280/1014/269 279/1015/269 270/1016/269 269/1017/269
f 280/1018/270 269/1019/270 276/1020/270 277/1021/270
f 276/1022/271 275/1023/271 278/1024/271 277/1025/271
f 285/1026/272 283/1027/272 282/1028/272 286/1029/272
f 287/1030/273 288/1031/273 289/1032/273 290/1033/273
f 290/1034/274 289/1035/274 291/1036/274 292/1037/274
f 292/1038/275 293/1039/275 294/1040/275
f 294/1041/276 293/1042/276 295/1043/276 296/1044/276
f 296/1045/277 297/1046/277 298/1047/277
f 298/1048/278 297/1049/278 288/1050/278 287/1051/278
f 286/1052/279 287/1053/279 290/1054/279 285/1055/279
f 285/1056/280 290/1057/280 292/1058/280 283/1059/280
f 283/1060/281 292/1061/281 294/1062/281 284/1063/281
f 284/1064/282 294/1065/282 296/1066/282 281/1067/282
f 281/1068/283 296/1069/283 298/1070/283 282/1071/283
f 282/1072/284 298/1073/284 287/1074/284 286/1075/284
f 299/1076/285 300/1077/285 301/1078/285 302/1079/285
f 303/1080/286 300/1081/286 304/1082/286 299/1083/286
f 305/1084/287 306/1085/287 304/1086/287 303/1087/287
f 307/1088/288 308/1089/288 306/1090/288 305/1091/288
f 309/1092/289 310/1093/289 308/1094/289 307/1095/289
f 302/1096/290 310/1097/290 301/1098/290 309/1099/290
f 300/1100/291 311/1101/291 312/1102/291 301/1103/291
f 304/1104/292 313/1105/292 311/1106/292 300/1107/292
f 306/1108/293 314/1109/293 313/1110/293 304/1111/293
f 308/1112/294 315/1113/294 314/1114/294 306/1115/294
f 310/1116/295 316/1117/295 315/1118/295 308/1119/295
f 271/1120/296 312/1121/296 311/1122/296 274/1123/296
f 274/1124/297 311/1125/297 313/1126/297
f 275/1127/298 313/1128/298 314/1129/298 278/1130/298
f 278/1131/299 314/1132/299 315/1133/299 279/1134/299
f 279/1135/300 315/1136/300 316/1137/300 270/1138/300
f 270/1139/301 316/1140/301 271/1141/301
f 302/1142/302 295/1143/302 293/1144/302 299/1145/302
f 299/1146/303 293/1147/303 303/1148/303
f 303/1149/304 291/1150/304 289/1151/304 305/1152/304
f 305/1153/305 289/1154/305 288/1155/305 307/1156/305
f 307/1157/306 288/1158/306 297/1159/306 309/1160/306
f 309/1161/307 297/1162/307 295/1163/307 302/1164/307
f 296/1165/308 295/1166/308 298/1167/308
f 312/1168/309 316/1169/309 310/1170/309 301/1171/309
f 270/1172/310 312/1173/310 271/1174/310
f 311/1175/311 313/1176/311 275/1177/311
f 311/1178/312 275/1179/312 274/1180/312
f 299/1181/313 293/1182/313 291/1183/313
f 292/1184/314 291/1185/314 294/1186/314