# Made in Blockbench 5.1.5
mtllib nyc_subway_platform_barrier_3b.mtl

o cube
v 0.5 1 -0.4375
v 0.5 1 -0.5
v 0.5 0 -0.4375
v 0.5 0 -0.5
v -0.5 1 -0.5
v -0.5 1 -0.4375
v -0.5 0 -0.5
v -0.5 0 -0.4375
vt 0.029411764705882353 1
vt 0.9705882352941176 1
vt 0.9705882352941176 0
vt 0.029411764705882353 0
vt 0.029411764705882353 1
vt 0.9705882352941176 1
vt 0.9705882352941176 0
vt 0.029411764705882353 0
vt 0 1
vt 0.058823529411764705 1
vt 0.058823529411764705 0.99609375
vt 0 0.99609375
vt 0 0.99609375
vt 0.058823529411764705 0.99609375
vt 0.058823529411764705 0.9921875
vt 0 0.9921875
vn 0 0 -1
vn 0 0 1
vn 0 1 0
vn 0 -1 0
usemtl m_c16e93e4-d475-6732-dfe9-6f3c555e5120
f 4/4/1 7/3/1 5/2/1 2/1/1
f 8/8/2 3/7/2 1/6/2 6/5/2
f 6/12/3 1/11/3 2/10/3 5/9/3
f 7/16/4 4/15/4 3/14/4 8/13/4