# Made in Blockbench 5.1.6
mtllib nyc_subway_fare_gate_6_entrance_closed.mtl

o left
v -0.40625 0.375 0.375
v -0.40625 0.375 -0.375
v -0.40625 0 0.375
v -0.40625 0 -0.375
v -0.59375 0.375 -0.375
v -0.59375 0.375 0.375
v -0.59375 0 -0.375
v -0.59375 0 0.375
vt 0.8828125 0.05065914062499999
vt 0.904296875 0.05065914062499999
vt 0.904296875 0.013671875
vt 0.8828125 0.013671875
vt 0.904296875 0.05065914062499999
vt 0.96875 0.05065914062499999
vt 0.96875 0.013671875
vt 0.904296875 0.013671875
vt 0.8828125 0.05065914062499999
vt 0.904296875 0.05065914062499999
vt 0.904296875 0.013671875
vt 0.8828125 0.013671875
vt 0.8828125 0.05065914062499999
vt 0.947265625 0.05065914062499999
vt 0.947265625 0.013671875
vt 0.8828125 0.013671875
vt 0.8828125 0.1123046875
vt 0.904296875 0.1123046875
vt 0.904296875 0.038330078125
vt 0.8828125 0.038330078125
vt 0.8828125 0.087646484375
vt 0.904296875 0.087646484375
vt 0.904296875 0.013671875
vt 0.8828125 0.013671875
vn 0 0 -1
vn 1 0 0
vn 0 0 1
vn -1 0 0
vn 0 1 0
vn 0 -1 0
usemtl m_c4285295-d1e0-dcfc-0036-196fac025b3b
f 4/4/1 7/3/1 5/2/1 2/1/1
f 3/8/2 4/7/2 2/6/2 1/5/2
f 8/12/3 3/11/3 1/10/3 6/9/3
f 7/16/4 8/15/4 6/14/4 5/13/4
f 6/20/5 1/19/5 2/18/5 5/17/5
f 7/24/6 4/23/6 3/22/6 8/21/6
o right
v 0.59375 0.375 0.375
v 0.59375 0.375 -0.375
v 0.59375 0 0.375
v 0.59375 0 -0.375
v 0.40625 0.375 -0.375
v 0.40625 0.375 0.375
v 0.40625 0 -0.375
v 0.40625 0 0.375
vt 0.8828125 0.05065914062499999
vt 0.904296875 0.05065914062499999
vt 0.904296875 0.013671875
vt 0.8828125 0.013671875
vt 0.8828125 0.05065914062499999
vt 0.947265625 0.05065914062499999
vt 0.947265625 0.013671875
vt 0.8828125 0.013671875
vt 0.8828125 0.05065914062499999
vt 0.904296875 0.05065914062499999
vt 0.904296875 0.013671875
vt 0.8828125 0.013671875
vt 0.904296875 0.05065914062499999
vt 0.96875 0.05065914062499999
vt 0.96875 0.013671875
vt 0.904296875 0.013671875
vt 0.8828125 0.087646484375
vt 0.904296875 0.087646484375
vt 0.904296875 0.013671875
vt 0.8828125 0.013671875
vt 0.8828125 0.1123046875
vt 0.904296875 0.1123046875
vt 0.904296875 0.038330078125
vt 0.8828125 0.038330078125
vn 0 0 -1
vn 1 0 0
vn 0 0 1
vn -1 0 0
vn 0 1 0
vn 0 -1 0
usemtl m_c4285295-d1e0-dcfc-0036-196fac025b3b
f 12/28/7 15/27/7 13/26/7 10/25/7
f 11/32/8 12/31/8 10/30/8 9/29/8
f 16/36/9 11/35/9 9/34/9 14/33/9
f 15/40/10 16/39/10 14/38/10 13/37/10
f 14/44/11 9/43/11 10/42/11 13/41/11
f 15/48/12 12/47/12 11/46/12 16/45/12
o right
v -0.5 0.375 0
v -0.5 1.75 0
v -0.49162625 0.375 0.03125
v -0.49162625 1.75 0.03125
v -0.47712375 0.375 0.02287625
v -0.47712375 1.75 0.02287625
v -0.46875 0.375 0.00837375
v -0.46875 1.75 0.00837375
v -0.46875 0.375 -0.00837375
v -0.46875 1.75 -0.00837375
v -0.47712375 0.375 -0.02287625
v -0.47712375 1.75 -0.02287625
v -0.49162625 0.375 -0.03125
v -0.49162625 1.75 -0.03125
v -0.50837375 0.375 -0.03125
v -0.50837375 1.75 -0.03125
v -0.52287625 0.375 -0.02287625
v -0.52287625 1.75 -0.02287625
v -0.53125 0.375 -0.00837375
v -0.53125 1.75 -0.00837375
v -0.53125 0.375 0.00837375
v -0.53125 1.75 0.00837375
v -0.52287625 0.375 0.02287625
v -0.52287625 1.75 0.02287625
v -0.50837375 0.375 0.03125
v -0.50837375 1.75 0.03125
vt 0.928846953125 0.11059874999999997
vt 0.925821640625 0.1123046875
vt 0.90625 0.11059874999999997
vt 0.90625 0.0595703125
vt 0.917950078125 0.0595703125
vt 0.917950078125 0.1123046875
vt 0.90625 0.1123046875
vt 0.90625 0.10889249999999995
vt 0.9175475 0.10934976562499998
vt 0.90625 0.1123046875
vt 0.92884875 0.11059882812499999
vt 0.925820078125 0.1123046875
vt 0.90625 0.11059882812499999
vt 0.90625 0.0595703125
vt 0.917950078125 0.0595703125
vt 0.917950078125 0.1123046875
vt 0.90625 0.1123046875
vt 0.90625 0.10889273437500002
vt 0.9175484375 0.10934953125000002
vt 0.90625 0.1123046875
vt 0.9280784375 0.11053804687500002
vt 0.9280784375 0.1123046875
vt 0.90625 0.11142140624999997
vt 0.90625 0.0595703125
vt 0.917950078125 0.0595703125
vt 0.917950078125 0.1123046875
vt 0.90625 0.1123046875
vt 0.9280784375 0.11053804687500002
vt 0.9280784375 0.1123046875
vt 0.90625 0.11142140624999997
vt 0.90625 0.10889273437500002
vt 0.9175484375 0.10934953125000002
vt 0.90625 0.1123046875
vt 0.90625 0.0595703125
vt 0.917950078125 0.0595703125
vt 0.917950078125 0.1123046875
vt 0.90625 0.1123046875
vt 0.92884875 0.11059882812499999
vt 0.925820078125 0.1123046875
vt 0.90625 0.11059882812499999
vt 0.90625 0.10889249999999995
vt 0.9175475 0.10934976562499998
vt 0.90625 0.1123046875
vt 0.90625 0.0595703125
vt 0.917950078125 0.0595703125
vt 0.917950078125 0.1123046875
vt 0.90625 0.1123046875
vt 0.928846953125 0.11059874999999997
vt 0.925821640625 0.1123046875
vt 0.90625 0.11059874999999997
vt 0.90625 0.10900874999999999
vt 0.917950078125 0.10900874999999999
vt 0.9121 0.1123046875
vt 0.90625 0.0595703125
vt 0.917950078125 0.0595703125
vt 0.917950078125 0.1123046875
vt 0.90625 0.1123046875
vt 0.917950078125 0.1123046875
vt 0.90625 0.1123046875
vt 0.9121 0.10900874999999999
vt 0.90625 0.1123046875
vt 0.909275234375 0.11059874999999997
vt 0.928846953125 0.1123046875
vt 0.90625 0.0595703125
vt 0.917950078125 0.0595703125
vt 0.917950078125 0.1123046875
vt 0.90625 0.1123046875
vt 0.9175475 0.1123046875
vt 0.90625 0.11184734375000005
vt 0.9175475 0.10889249999999995
vt 0.90625 0.1123046875
vt 0.90927875 0.11059882812499999
vt 0.92884875 0.1123046875
vt 0.90625 0.0595703125
vt 0.917950078125 0.0595703125
vt 0.917950078125 0.1123046875
vt 0.90625 0.1123046875
vt 0.9175484375 0.1123046875
vt 0.90625 0.111847890625
vt 0.9175484375 0.10889273437500002
vt 0.90625 0.1123046875
vt 0.90625 0.11053804687500002
vt 0.9280784375 0.11142140624999997
vt 0.90625 0.0595703125
vt 0.917950078125 0.0595703125
vt 0.917950078125 0.1123046875
vt 0.90625 0.1123046875
vt 0.90625 0.1123046875
vt 0.90625 0.11053804687500002
vt 0.9280784375 0.11142140624999997
vt 0.9175484375 0.1123046875
vt 0.90625 0.111847890625
vt 0.9175484375 0.10889273437500002
vt 0.90625 0.0595703125
vt 0.917950078125 0.0595703125
vt 0.917950078125 0.1123046875
vt 0.90625 0.1123046875
vt 0.90625 0.1123046875
vt 0.90927875 0.11059882812499999
vt 0.92884875 0.1123046875
vt 0.9175475 0.1123046875
vt 0.90625 0.11184734375000005
vt 0.9175475 0.10889249999999995
vt 0.90625 0.0595703125
vt 0.917950078125 0.0595703125
vt 0.917950078125 0.1123046875
vt 0.90625 0.1123046875
vt 0.90625 0.1123046875
vt 0.909275234375 0.11059874999999997
vt 0.928846953125 0.1123046875
vt 0.917950078125 0.1123046875
vt 0.90625 0.1123046875
vt 0.9121 0.10900874999999999
vt 0.90625 0.0595703125
vt 0.917950078125 0.0595703125
vt 0.917950078125 0.1123046875
vt 0.90625 0.1123046875
vt 0.90625 0.10900874999999999
vt 0.917950078125 0.10900874999999999
vt 0.9121 0.1123046875
vn 0 -1 0
vn 0.5000325911601272 0 0.8660065864516789
vn 0 1 0
vn 0 -1 0
vn 0.8660065864516789 0 0.5000325911601272
vn 0 1 0
vn 0 -1 0
vn 1 0 0
vn 0 1 0
vn 0 -1 0
vn 0.8660065864516789 0 -0.5000325911601272
vn 0 1 0
vn 0 -1 0
vn 0.5000325911601272 0 -0.8660065864516789
vn 0 1 0
vn 0 -1 0
vn 0 0 -1
vn 0 1 0
vn 0 -1 0
vn -0.5000325911601272 0 -0.8660065864516789
vn 0 1 0
vn 0 -1 0
vn -0.8660065864516789 0 -0.5000325911601272
vn 0 1 0
vn 0 -1 0
vn -1 0 0
vn 0 1 0
vn 0 -1 0
vn -0.8660065864516789 0 0.5000325911601272
vn 0 1 0
vn 0 -1 0
vn -0.5000325911601272 0 0.8660065864516789
vn 0 1 0
vn 0 -1 0
vn 0 0 1
vn 0 1 0
usemtl m_c4285295-d1e0-dcfc-0036-196fac025b3b
f 21/49/13 19/50/13 17/51/13
f 19/52/14 21/53/14 22/54/14 20/55/14
f 20/56/15 22/57/15 18/58/15
f 23/59/16 21/60/16 17/61/16
f 21/62/17 23/63/17 24/64/17 22/65/17
f 22/66/18 24/67/18 18/68/18
f 25/69/19 23/70/19 17/71/19
f 23/72/20 25/73/20 26/74/20 24/75/20
f 24/76/21 26/77/21 18/78/21
f 27/79/22 25/80/22 17/81/22
f 25/82/23 27/83/23 28/84/23 26/85/23
f 26/86/24 28/87/24 18/88/24
f 29/89/25 27/90/25 17/91/25
f 27/92/26 29/93/26 30/94/26 28/95/26
f 28/96/27 30/97/27 18/98/27
f 31/99/28 29/100/28 17/101/28
f 29/102/29 31/103/29 32/104/29 30/105/29
f 30/106/30 32/107/30 18/108/30
f 33/109/31 31/110/31 17/111/31
f 31/112/32 33/113/32 34/114/32 32/115/32
f 32/116/33 34/117/33 18/118/33
f 35/119/34 33/120/34 17/121/34
f 33/122/35 35/123/35 36/124/35 34/125/35
f 34/126/36 36/127/36 18/128/36
f 37/129/37 35/130/37 17/131/37
f 35/132/38 37/133/38 38/134/38 36/135/38
f 36/136/39 38/137/39 18/138/39
f 39/139/40 37/140/40 17/141/40
f 37/142/41 39/143/41 40/144/41 38/145/41
f 38/146/42 40/147/42 18/148/42
f 41/149/43 39/150/43 17/151/43
f 39/152/44 41/153/44 42/154/44 40/155/44
f 40/156/45 42/157/45 18/158/45
f 19/159/46 41/160/46 17/161/46
f 41/162/47 19/163/47 20/164/47 42/165/47
f 42/166/48 20/167/48 18/168/48
o left
v -0.40625 2.0625 0.0625
v -0.40625 2.0625 -0.0625
v -0.40625 1.75 0.0625
v -0.40625 1.75 -0.0625
v -0.59375 2.0625 -0.0625
v -0.59375 2.0625 0.0625
v -0.59375 1.75 -0.0625
v -0.59375 1.75 0.0625
vt 0.8984375 0.0751953125
vt 1 0.0751953125
vt 1 0
vt 0.8984375 0
vt 0.888671875 0.1142578125
vt 0.982421875 0.1142578125
vt 0.982421875 0.0087890625
vt 0.888671875 0.0087890625
vt 0.8984375 0.0751953125
vt 1 0.0751953125
vt 1 0
vt 0.8984375 0
vt 0.888671875 0.1142578125
vt 0.982421875 0.1142578125
vt 0.982421875 0.0087890625
vt 0.888671875 0.0087890625
vt 0.8984375 0.0869140625
vt 1 0.0869140625
vt 1 0.0234375
vt 0.8984375 0.0234375
vt 0.8984375 0.0869140625
vt 1 0.0869140625
vt 1 0.0234375
vt 0.8984375 0.0234375
vn 0 0 -1
vn 1 0 0
vn 0 0 1
vn -1 0 0
vn 0 1 0
vn 0 -1 0
usemtl m_c4285295-d1e0-dcfc-0036-196fac025b3b
f 46/172/49 49/171/49 47/170/49 44/169/49
f 45/176/50 46/175/50 44/174/50 43/173/50
f 50/180/51 45/179/51 43/178/51 48/177/51
f 49/184/52 50/183/52 48/182/52 47/181/52
f 48/188/53 43/187/53 44/186/53 47/185/53
f 49/192/54 46/191/54 45/190/54 50/189/54
o left
v 0.40625 2.0625 -0.06250000000000004
v 0.40625 2.0625 0.06249999999999996
v 0.40625 1.75 -0.06250000000000004
v 0.40625 1.75 0.06249999999999996
v 0.59375 2.0625 0.06249999999999994
v 0.59375 2.0625 -0.06250000000000007
v 0.59375 1.75 0.06249999999999994
v 0.59375 1.75 -0.06250000000000007
vt 0.8984375 0.0751953125
vt 1 0.0751953125
vt 1 0
vt 0.8984375 0
vt 0.888671875 0.1142578125
vt 0.982421875 0.1142578125
vt 0.982421875 0.0087890625
vt 0.888671875 0.0087890625
vt 0.8984375 0.0751953125
vt 1 0.0751953125
vt 1 0
vt 0.8984375 0
vt 0.888671875 0.1142578125
vt 0.982421875 0.1142578125
vt 0.982421875 0.0087890625
vt 0.888671875 0.0087890625
vt 0.8984375 0.0869140625
vt 1 0.0869140625
vt 1 0.0234375
vt 0.8984375 0.0234375
vt 0.8984375 0.0869140625
vt 1 0.0869140625
vt 1 0.0234375
vt 0.8984375 0.0234375
vn 1.2246467991473532e-16 0 1
vn -1 0 1.2246467991473532e-16
vn -1.2246467991473532e-16 0 -1
vn 1 0 -1.2246467991473532e-16
vn 0 1 0
vn 0 -1 0
usemtl m_c4285295-d1e0-dcfc-0036-196fac025b3b
f 54/196/55 57/195/55 55/194/55 52/193/55
f 53/200/56 54/199/56 52/198/56 51/197/56
f 58/204/57 53/203/57 51/202/57 56/201/57
f 57/208/58 58/207/58 56/206/58 55/205/58
f 56/212/59 51/211/59 52/210/59 55/209/59
f 57/216/60 54/215/60 53/214/60 58/213/60
o right
v 0.5 0.375 -5.35782974626967e-17
v 0.5 1.75 -5.35782974626967e-17
v 0.49162625 0.375 -0.031250000000000056
v 0.49162625 1.75 -0.031250000000000056
v 0.47712375 0.375 -0.022876250000000053
v 0.47712375 1.75 -0.022876250000000053
v 0.46875 0.375 -0.00837375000000005
v 0.46875 1.75 -0.00837375000000005
v 0.46875 0.375 0.008373749999999949
v 0.46875 1.75 0.008373749999999949
v 0.47712375 0.375 0.02287624999999995
v 0.47712375 1.75 0.02287624999999995
v 0.49162625 0.375 0.031249999999999948
v 0.49162625 1.75 0.031249999999999948
v 0.5083737500000001 0.375 0.031249999999999944
v 0.5083737500000001 1.75 0.031249999999999944
v 0.5228762499999999 0.375 0.022876249999999945
v 0.5228762499999999 1.75 0.022876249999999945
v 0.53125 0.375 0.008373749999999942
v 0.53125 1.75 0.008373749999999942
v 0.53125 0.375 -0.008373750000000056
v 0.53125 1.75 -0.008373750000000056
v 0.5228762499999999 0.375 -0.022876250000000056
v 0.5228762499999999 1.75 -0.022876250000000056
v 0.5083737500000001 0.375 -0.031250000000000056
v 0.5083737500000001 1.75 -0.031250000000000056
vt 0.928846953125 0.11059874999999997
vt 0.925821640625 0.1123046875
vt 0.90625 0.11059874999999997
vt 0.90625 0.0595703125
vt 0.917950078125 0.0595703125
vt 0.917950078125 0.1123046875
vt 0.90625 0.1123046875
vt 0.90625 0.10889249999999995
vt 0.9175475 0.10934976562499998
vt 0.90625 0.1123046875
vt 0.92884875 0.11059882812499999
vt 0.925820078125 0.1123046875
vt 0.90625 0.11059882812499999
vt 0.90625 0.0595703125
vt 0.917950078125 0.0595703125
vt 0.917950078125 0.1123046875
vt 0.90625 0.1123046875
vt 0.90625 0.10889273437500002
vt 0.9175484375 0.10934953125000002
vt 0.90625 0.1123046875
vt 0.9280784375 0.11053804687500002
vt 0.9280784375 0.1123046875
vt 0.90625 0.11142140624999997
vt 0.90625 0.0595703125
vt 0.917950078125 0.0595703125
vt 0.917950078125 0.1123046875
vt 0.90625 0.1123046875
vt 0.9280784375 0.11053804687500002
vt 0.9280784375 0.1123046875
vt 0.90625 0.11142140624999997
vt 0.90625 0.10889273437500002
vt 0.9175484375 0.10934953125000002
vt 0.90625 0.1123046875
vt 0.90625 0.0595703125
vt 0.917950078125 0.0595703125
vt 0.917950078125 0.1123046875
vt 0.90625 0.1123046875
vt 0.92884875 0.11059882812499999
vt 0.925820078125 0.1123046875
vt 0.90625 0.11059882812499999
vt 0.90625 0.10889249999999995
vt 0.9175475 0.10934976562499998
vt 0.90625 0.1123046875
vt 0.90625 0.0595703125
vt 0.917950078125 0.0595703125
vt 0.917950078125 0.1123046875
vt 0.90625 0.1123046875
vt 0.928846953125 0.11059874999999997
vt 0.925821640625 0.1123046875
vt 0.90625 0.11059874999999997
vt 0.90625 0.10900874999999999
vt 0.917950078125 0.10900874999999999
vt 0.9121 0.1123046875
vt 0.90625 0.0595703125
vt 0.917950078125 0.0595703125
vt 0.917950078125 0.1123046875
vt 0.90625 0.1123046875
vt 0.917950078125 0.1123046875
vt 0.90625 0.1123046875
vt 0.9121 0.10900874999999999
vt 0.90625 0.1123046875
vt 0.909275234375 0.11059874999999997
vt 0.928846953125 0.1123046875
vt 0.90625 0.0595703125
vt 0.917950078125 0.0595703125
vt 0.917950078125 0.1123046875
vt 0.90625 0.1123046875
vt 0.9175475 0.1123046875
vt 0.90625 0.11184734375000005
vt 0.9175475 0.10889249999999995
vt 0.90625 0.1123046875
vt 0.90927875 0.11059882812499999
vt 0.92884875 0.1123046875
vt 0.90625 0.0595703125
vt 0.917950078125 0.0595703125
vt 0.917950078125 0.1123046875
vt 0.90625 0.1123046875
vt 0.9175484375 0.1123046875
vt 0.90625 0.111847890625
vt 0.9175484375 0.10889273437500002
vt 0.90625 0.1123046875
vt 0.90625 0.11053804687500002
vt 0.9280784375 0.11142140624999997
vt 0.90625 0.0595703125
vt 0.917950078125 0.0595703125
vt 0.917950078125 0.1123046875
vt 0.90625 0.1123046875
vt 0.90625 0.1123046875
vt 0.90625 0.11053804687500002
vt 0.9280784375 0.11142140624999997
vt 0.9175484375 0.1123046875
vt 0.90625 0.111847890625
vt 0.9175484375 0.10889273437500002
vt 0.90625 0.0595703125
vt 0.917950078125 0.0595703125
vt 0.917950078125 0.1123046875
vt 0.90625 0.1123046875
vt 0.90625 0.1123046875
vt 0.90927875 0.11059882812499999
vt 0.92884875 0.1123046875
vt 0.9175475 0.1123046875
vt 0.90625 0.11184734375000005
vt 0.9175475 0.10889249999999995
vt 0.90625 0.0595703125
vt 0.917950078125 0.0595703125
vt 0.917950078125 0.1123046875
vt 0.90625 0.1123046875
vt 0.90625 0.1123046875
vt 0.909275234375 0.11059874999999997
vt 0.928846953125 0.1123046875
vt 0.917950078125 0.1123046875
vt 0.90625 0.1123046875
vt 0.9121 0.10900874999999999
vt 0.90625 0.0595703125
vt 0.917950078125 0.0595703125
vt 0.917950078125 0.1123046875
vt 0.90625 0.1123046875
vt 0.90625 0.10900874999999999
vt 0.917950078125 0.10900874999999999
vt 0.9121 0.1123046875
vn 0 -1 0
vn -0.5000325911601281 0 -0.8660065864516785
vn 0 1 0
vn 0 -1 0
vn -0.8660065864516786 0 -0.5000325911601277
vn 0 1 0
vn 0 -1 0
vn -1 0 1.2246467991473532e-16
vn 0 1 0
vn 0 -1 0
vn -0.8660065864516784 0 0.5000325911601279
vn 0 1 0
vn 0 -1 0
vn -0.5000325911601278 0 0.8660065864516785
vn 0 1 0
vn 0 -1 0
vn 1.2246467991473532e-16 0 1
vn 0 1 0
vn 0 -1 0
vn 0.5000325911601281 0 0.8660065864516785
vn 0 1 0
vn 0 -1 0
vn 0.8660065864516786 0 0.5000325911601277
vn 0 1 0
vn 0 -1 0
vn 1 0 -1.2246467991473532e-16
vn 0 1 0
vn 0 -1 0
vn 0.8660065864516784 0 -0.5000325911601279
vn 0 1 0
vn 0 -1 0
vn 0.5000325911601278 0 -0.8660065864516785
vn 0 1 0
vn 0 -1 0
vn -1.2246467991473532e-16 0 -1
vn 0 1 0
usemtl m_c4285295-d1e0-dcfc-0036-196fac025b3b
f 63/217/61 61/218/61 59/219/61
f 61/220/62 63/221/62 64/222/62 62/223/62
f 62/224/63 64/225/63 60/226/63
f 65/227/64 63/228/64 59/229/64
f 63/230/65 65/231/65 66/232/65 64/233/65
f 64/234/66 66/235/66 60/236/66
f 67/237/67 65/238/67 59/239/67
f 65/240/68 67/241/68 68/242/68 66/243/68
f 66/244/69 68/245/69 60/246/69
f 69/247/70 67/248/70 59/249/70
f 67/250/71 69/251/71 70/252/71 68/253/71
f 68/254/72 70/255/72 60/256/72
f 71/257/73 69/258/73 59/259/73
f 69/260/74 71/261/74 72/262/74 70/263/74
f 70/264/75 72/265/75 60/266/75
f 73/267/76 71/268/76 59/269/76
f 71/270/77 73/271/77 74/272/77 72/273/77
f 72/274/78 74/275/78 60/276/78
f 75/277/79 73/278/79 59/279/79
f 73/280/80 75/281/80 76/282/80 74/283/80
f 74/284/81 76/285/81 60/286/81
f 77/287/82 75/288/82 59/289/82
f 75/290/83 77/291/83 78/292/83 76/293/83
f 76/294/84 78/295/84 60/296/84
f 79/297/85 77/298/85 59/299/85
f 77/300/86 79/301/86 80/302/86 78/303/86
f 78/304/87 80/305/87 60/306/87
f 81/307/88 79/308/88 59/309/88
f 79/310/89 81/311/89 82/312/89 80/313/89
f 80/314/90 82/315/90 60/316/90
f 83/317/91 81/318/91 59/319/91
f 81/320/92 83/321/92 84/322/92 82/323/92
f 82/324/93 84/325/93 60/326/93
f 61/327/94 83/328/94 59/329/94
f 83/330/95 61/331/95 62/332/95 84/333/95
f 84/334/96 62/335/96 60/336/96
o cube
v 0.59375 1.0484375 0.8125
v 0.59375 1.1734375 0.5625
v 0.40625 1.0015625 0.796875
v 0.40625 1.1265625 0.5625
vt 0.2177734375 0.001745546874999948
vt 0.2177734375 0.0716234375
vt 0.169326328125 0.06638374999999996
vt 0.1689453125 0
vn -0.21821789023599242 0.8728715609439697 0.43643578047198484
usemtl m_c4285295-d1e0-dcfc-0036-196fac025b3b
f 85/337/97 86/338/97 88/339/97 87/340/97
o cube
v 0.59375 1.171875 0.5625
v 0.59375 1.171875 0.375
v 0.59375 0 0.5625
v 0.59375 0 0.375
v 0.40625 1.125 0.5625
v 0.40625 1.125 0.375
v 0.40625 0 0.5625
v 0.40625 0 0.375
vt 0.9423828125 0.04296875
vt 0.9423828125 0.10546875
vt 0.8818359375 0.10546875
vt 0.8818359375 0.04296875
vt 0.9423828125 0.04296875
vt 0.9423828125 0.10546875
vt 0.8818359375 0.10546875
vt 0.8818359375 0.04296875
vt 0.9423828125 0.09375
vt 0.9423828125 0.10546875
vt 0.8818359375 0.10546875
vt 0.8818359375 0.09375
vt 0.9423828125 0.09375
vt 0.9423828125 0.10546875
vt 0.8818359375 0.10546875
vt 0.8818359375 0.09375
vt 0.9423828125 0.04296875
vt 0.9423828125 0.10546875
vt 0.8818359375 0.10546875
vt 0.8818359375 0.04296875
vt 0.9423828125 0.04296875
vt 0.9423828125 0.10546875
vt 0.8818359375 0.10546875
vt 0.8818359375 0.04296875
vn 1 0 0
vn -1 0 0
vn -0.24253562503633297 0.9701425001453319 0
vn 0 -1 0
vn 0 0 1
vn 0 0 -1
usemtl m_c4285295-d1e0-dcfc-0036-196fac025b3b
f 92/341/98 90/342/98 89/343/98 91/344/98
f 95/345/99 93/346/99 94/347/99 96/348/99
f 89/349/100 90/350/100 94/351/100 93/352/100
f 92/353/101 91/354/101 95/355/101 96/356/101
f 91/357/102 89/358/102 93/359/102 95/360/102
f 96/361/103 94/362/103 90/363/103 92/364/103
o cube
v -0.40625 1.046875 0.8125
v -0.40625 1.171875 0.5625
v -0.40625 0 0.5625
v -0.59375 1 0.796875
v -0.59375 1.125 0.5625
v -0.59375 0 0.5625
vt 0.15625 1
vt 0.125 0.984375
vt 0.15625 0.853515625
vt 0.185546875 0.984375
vt 0.15625 1
vt 0.15625 0.859375
vt 0.4052734375 0.001745546874999948
vt 0.4052734375 0.0716234375
vt 0.356826328125 0.06638374999999996
vt 0.3564453125 0
vt 0.1719884375 0.8984375
vt 0.3065271875 0.8984375
vt 0.300375 0.921875
vt 0.1719884375 0.92186265625
vt 0.1484375 0.736328125
vt 0.1484375 0.876953125
vt 0.125 0.8828125
vt 0.125 0.736328125
vn 1 0 0
vn -1 0 0
vn -0.21821789023599242 0.8728715609439697 0.43643578047198484
vn -0.022979445803036843 -0.23221334706226704 0.9723933908232433
vn 0 0 -1
usemtl m_c4285295-d1e0-dcfc-0036-196fac025b3b
f 98/365/104 97/366/104 99/367/104
f 100/368/105 101/369/105 102/370/105
f 97/371/106 98/372/106 101/373/106 100/374/106
f 99/375/107 97/376/107 100/377/107 102/378/107
f 102/379/108 101/380/108 98/381/108 99/382/108
o cube
v -0.40625 1.171875 0.5625
v -0.40625 1.171875 0.375
v -0.40625 0 0.5625
v -0.40625 0 0.375
v -0.59375 1.125 0.5625
v -0.59375 1.125 0.375
v -0.59375 0 0.5625
v -0.59375 0 0.375
vt 0.9423828125 0.04296875
vt 0.9423828125 0.10546875
vt 0.8818359375 0.10546875
vt 0.8818359375 0.04296875
vt 0.9423828125 0.04296875
vt 0.9423828125 0.10546875
vt 0.8818359375 0.10546875
vt 0.8818359375 0.04296875
vt 0.9423828125 0.09375
vt 0.9423828125 0.10546875
vt 0.8818359375 0.10546875
vt 0.8818359375 0.09375
vt 0.9423828125 0.09375
vt 0.9423828125 0.10546875
vt 0.8818359375 0.10546875
vt 0.8818359375 0.09375
vt 0.9423828125 0.04296875
vt 0.9423828125 0.10546875
vt 0.8818359375 0.10546875
vt 0.8818359375 0.04296875
vt 0.9423828125 0.04296875
vt 0.9423828125 0.10546875
vt 0.8818359375 0.10546875
vt 0.8818359375 0.04296875
vn 1 0 0
vn -1 0 0
vn -0.24253562503633297 0.9701425001453319 0
vn 0 -1 0
vn 0 0 1
vn 0 0 -1
usemtl m_c4285295-d1e0-dcfc-0036-196fac025b3b
f 106/383/109 104/384/109 103/385/109 105/386/109
f 109/387/110 107/388/110 108/389/110 110/390/110
f 103/391/111 104/392/111 108/393/111 107/394/111
f 106/395/112 105/396/112 109/397/112 110/398/112
f 105/399/113 103/400/113 107/401/113 109/402/113
f 110/403/114 108/404/114 104/405/114 106/406/114
o cube
v 0.40624999999999994 1.171875 -0.5625
v 0.40624999999999994 1.171875 -0.37500000000000006
v 0.40624999999999994 0 -0.5625
v 0.40624999999999994 0 -0.37500000000000006
v 0.5937499999999999 1.125 -0.5625000000000001
v 0.59375 1.125 -0.37500000000000006
v 0.5937499999999999 0 -0.5625000000000001
v 0.59375 0 -0.37500000000000006
vt 0.9423828125 0.04296875
vt 0.9423828125 0.10546875
vt 0.8818359375 0.10546875
vt 0.8818359375 0.04296875
vt 0.9423828125 0.04296875
vt 0.9423828125 0.10546875
vt 0.8818359375 0.10546875
vt 0.8818359375 0.04296875
vt 0.9423828125 0.09375
vt 0.9423828125 0.10546875
vt 0.8818359375 0.10546875
vt 0.8818359375 0.09375
vt 0.9423828125 0.09375
vt 0.9423828125 0.10546875
vt 0.8818359375 0.10546875
vt 0.8818359375 0.09375
vt 0.9423828125 0.04296875
vt 0.9423828125 0.10546875
vt 0.8818359375 0.10546875
vt 0.8818359375 0.04296875
vt 0.9423828125 0.04296875
vt 0.9423828125 0.10546875
vt 0.8818359375 0.10546875
vt 0.8818359375 0.04296875
vn -1 0 1.2246467991473532e-16
vn 1 0 -1.2246467991473532e-16
vn 0.24253562503633297 0.9701425001453319 -2.970204768799478e-17
vn 0 -1 0
vn -1.2246467991473532e-16 0 -1
vn 1.2246467991473532e-16 0 1
usemtl m_c4285295-d1e0-dcfc-0036-196fac025b3b
f 114/407/115 112/408/115 111/409/115 113/410/115
f 117/411/116 115/412/116 116/413/116 118/414/116
f 111/415/117 112/416/117 116/417/117 115/418/117
f 114/419/118 113/420/118 117/421/118 118/422/118
f 113/423/119 111/424/119 115/425/119 117/426/119
f 118/427/120 116/428/120 112/429/120 114/430/120
o cube
v -0.5937500000000001 1.046875 -0.8124999999999999
v -0.5937500000000001 1.171875 -0.5624999999999999
v -0.5937500000000001 0 -0.5624999999999999
v -0.4062500000000001 1 -0.796875
v -0.40625000000000006 1.125 -0.5625
v -0.40625000000000006 0 -0.5625
vt 0.15625 1
vt 0.125 0.984375
vt 0.15625 0.853515625
vt 0.185546875 0.984375
vt 0.15625 1
vt 0.15625 0.859375
vt 0.4052734375 0.001745546874999948
vt 0.4052734375 0.0716234375
vt 0.356826328125 0.06638374999999996
vt 0.3564453125 0
vt 0.1719884375 0.8984375
vt 0.3065271875 0.8984375
vt 0.300375 0.921875
vt 0.1719884375 0.92186265625
vt 0.1484375 0.736328125
vt 0.1484375 0.876953125
vt 0.125 0.8828125
vt 0.125 0.736328125
vn -1 0 1.2246467991473532e-16
vn 1 0 -1.2246467991473532e-16
vn 0.21821789023599236 0.8728715609439697 -0.43643578047198484
vn 0.022979445803036725 -0.23221334706226704 -0.9723933908232433
vn 1.2246467991473532e-16 0 1
usemtl m_c4285295-d1e0-dcfc-0036-196fac025b3b
f 120/431/121 119/432/121 121/433/121
f 122/434/122 123/435/122 124/436/122
f 119/437/123 120/438/123 123/439/123 122/440/123
f 121/441/124 119/442/124 122/443/124 124/444/124
f 124/445/125 123/446/125 120/447/125 121/448/125
o cube
v -0.5937500000000001 1.171875 -0.5624999999999999
v -0.59375 1.171875 -0.37499999999999994
v -0.5937500000000001 0 -0.5624999999999999
v -0.59375 0 -0.37499999999999994
v -0.40625000000000006 1.125 -0.5625
v -0.40625000000000006 1.125 -0.37499999999999994
v -0.40625000000000006 0 -0.5625
v -0.40625000000000006 0 -0.37499999999999994
vt 0.9423828125 0.04296875
vt 0.9423828125 0.10546875
vt 0.8818359375 0.10546875
vt 0.8818359375 0.04296875
vt 0.9423828125 0.04296875
vt 0.9423828125 0.10546875
vt 0.8818359375 0.10546875
vt 0.8818359375 0.04296875
vt 0.9423828125 0.09375
vt 0.9423828125 0.10546875
vt 0.8818359375 0.10546875
vt 0.8818359375 0.09375
vt 0.9423828125 0.09375
vt 0.9423828125 0.10546875
vt 0.8818359375 0.10546875
vt 0.8818359375 0.09375
vt 0.9423828125 0.04296875
vt 0.9423828125 0.10546875
vt 0.8818359375 0.10546875
vt 0.8818359375 0.04296875
vt 0.9423828125 0.04296875
vt 0.9423828125 0.10546875
vt 0.8818359375 0.10546875
vt 0.8818359375 0.04296875
vn -1 0 1.2246467991473532e-16
vn 1 0 -1.2246467991473532e-16
vn 0.24253562503633297 0.9701425001453319 -2.970204768799478e-17
vn 0 -1 0
vn -1.2246467991473532e-16 0 -1
vn 1.2246467991473532e-16 0 1
usemtl m_c4285295-d1e0-dcfc-0036-196fac025b3b
f 128/449/126 126/450/126 125/451/126 127/452/126
f 131/453/127 129/454/127 130/455/127 132/456/127
f 125/457/128 126/458/128 130/459/128 129/460/128
f 128/461/129 127/462/129 131/463/129 132/464/129
f 127/465/130 125/466/130 129/467/130 131/468/130
f 132/469/131 130/470/131 126/471/131 128/472/131
o cube
v 0.4062499999999999 1.046875 -0.8125
v 0.40624999999999994 1.171875 -0.5625
v 0.40624999999999994 0 -0.5625
v 0.5937499999999999 1 -0.7968750000000001
v 0.5937499999999999 1.125 -0.5625000000000001
v 0.5937499999999999 0 -0.5625000000000001
vt 0.15625 1
vt 0.125 0.984375
vt 0.15625 0.853515625
vt 0.185546875 0.984375
vt 0.15625 1
vt 0.15625 0.859375
vt 0.4052734375 0.001745546874999948
vt 0.4052734375 0.0716234375
vt 0.356826328125 0.06638374999999996
vt 0.3564453125 0
vt 0.1719884375 0.8984375
vt 0.3065271875 0.8984375
vt 0.300375 0.921875
vt 0.1719884375 0.92186265625
vt 0.1484375 0.736328125
vt 0.1484375 0.876953125
vt 0.125 0.8828125
vt 0.125 0.736328125
vn -1 0 1.2246467991473532e-16
vn 1 0 -1.2246467991473532e-16
vn 0.21821789023599236 0.8728715609439697 -0.43643578047198484
vn 0.022979445803036725 -0.23221334706226704 -0.9723933908232433
vn 1.2246467991473532e-16 0 1
usemtl m_c4285295-d1e0-dcfc-0036-196fac025b3b
f 134/473/132 133/474/132 135/475/132
f 136/476/133 137/477/133 138/478/133
f 133/479/134 134/480/134 137/481/134 136/482/134
f 135/483/135 133/484/135 136/485/135 138/486/135
f 138/487/136 137/488/136 134/489/136 135/490/136
o cube
v 0.59375 1.046875 0.8125
v 0.59375 1.171875 0.5625
v 0.59375 0 0.5625
v 0.40625 1 0.796875
v 0.40625 1.125 0.5625
v 0.40625 0 0.5625
vt 0.15625 1
vt 0.125 0.984375
vt 0.15625 0.853515625
vt 0.185546875 0.984375
vt 0.15625 1
vt 0.15625 0.859375
vt 0.4052734375 0.001745546874999948
vt 0.4052734375 0.0716234375
vt 0.356826328125 0.06638374999999996
vt 0.3564453125 0
vt 0.1719884375 0.8984375
vt 0.3065271875 0.8984375
vt 0.300375 0.921875
vt 0.1719884375 0.92186265625
vt 0.1484375 0.736328125
vt 0.1484375 0.876953125
vt 0.125 0.8828125
vt 0.125 0.736328125
vn 1 0 0
vn -1 0 0
vn -0.21821789023599242 0.8728715609439697 0.43643578047198484
vn -0.022979445803036843 -0.23221334706226704 0.9723933908232433
vn 0 0 -1
usemtl m_c4285295-d1e0-dcfc-0036-196fac025b3b
f 140/491/137 139/492/137 141/493/137
f 142/494/138 143/495/138 144/496/138
f 139/497/139 140/498/139 143/499/139 142/500/139
f 141/501/140 139/502/140 142/503/140 144/504/140
f 144/505/141 143/506/141 140/507/141 141/508/141
o left
v -0.5 1.09375 0.375
v -0.5 1.09375 -0.375
v -0.5 0.375 0.375
v -0.5 0.375 -0.375
v -0.5 1.09375 -0.375
v -0.5 1.09375 0.375
v -0.5 0.375 -0.375
v -0.5 0.375 0.375
vt 0.4599609375 0.10546875
vt 0.5537109375 0.10546875
vt 0.5537109375 0
vt 0.4599609375 0
vt 0.4599609375 0.10546875
vt 0.5537109375 0.10546875
vt 0.5537109375 0
vt 0.4599609375 0
vn 1 0 0
vn -1 0 0
usemtl m_c4285295-d1e0-dcfc-0036-196fac025b3b
f 147/512/142 148/511/142 146/510/142 145/509/142
f 151/516/143 152/515/143 150/514/143 149/513/143
o right
v 0.5 1.09375 0.375
v 0.5 1.09375 -0.375
v 0.5 0.375 0.375
v 0.5 0.375 -0.375
v 0.5 1.09375 -0.375
v 0.5 1.09375 0.375
v 0.5 0.375 -0.375
v 0.5 0.375 0.375
vt 0.4599609375 0.10546875
vt 0.5537109375 0.10546875
vt 0.5537109375 0
vt 0.4599609375 0
vt 0.4599609375 0.10546875
vt 0.5537109375 0.10546875
vt 0.5537109375 0
vt 0.4599609375 0
vn 1 0 0
vn -1 0 0
usemtl m_c4285295-d1e0-dcfc-0036-196fac025b3b
f 155/520/144 156/519/144 154/518/144 153/517/144
f 159/524/145 160/523/145 158/522/145 157/521/145
o right
v 0.4375 0.375 0
v 0.4375 1.75 0
v 0.441686875 0.375 0.015625
v 0.441686875 1.75 0.015625
v 0.448938125 0.375 0.011438125
v 0.448938125 1.75 0.011438125
v 0.453125 0.375 0.004186875
v 0.453125 1.75 0.004186875
v 0.453125 0.375 -0.004186875
v 0.453125 1.75 -0.004186875
v 0.448938125 0.375 -0.011438125
v 0.448938125 1.75 -0.011438125
v 0.441686875 0.375 -0.015625
v 0.441686875 1.75 -0.015625
v 0.433313125 0.375 -0.015625
v 0.433313125 1.75 -0.015625
v 0.426061875 0.375 -0.011438125
v 0.426061875 1.75 -0.011438125
v 0.421875 0.375 -0.004186875
v 0.421875 1.75 -0.004186875
v 0.421875 0.375 0.004186875
v 0.421875 1.75 0.004186875
v 0.426061875 0.375 0.011438125
v 0.426061875 1.75 0.011438125
v 0.433313125 0.375 0.015625
v 0.433313125 1.75 0.015625
vt 0.928846953125 0.11059874999999997
vt 0.925821640625 0.1123046875
vt 0.90625 0.11059874999999997
vt 0.90625 0.0595703125
vt 0.917950078125 0.0595703125
vt 0.917950078125 0.1123046875
vt 0.90625 0.1123046875
vt 0.90625 0.10889249999999995
vt 0.9175475 0.10934976562499998
vt 0.90625 0.1123046875
vt 0.92884875 0.11059882812499999
vt 0.925820078125 0.1123046875
vt 0.90625 0.11059882812499999
vt 0.90625 0.0595703125
vt 0.917950078125 0.0595703125
vt 0.917950078125 0.1123046875
vt 0.90625 0.1123046875
vt 0.90625 0.10889273437500002
vt 0.9175484375 0.10934953125000002
vt 0.90625 0.1123046875
vt 0.9280784375 0.11053804687500002
vt 0.9280784375 0.1123046875
vt 0.90625 0.11142140624999997
vt 0.90625 0.0595703125
vt 0.917950078125 0.0595703125
vt 0.917950078125 0.1123046875
vt 0.90625 0.1123046875
vt 0.9280784375 0.11053804687500002
vt 0.9280784375 0.1123046875
vt 0.90625 0.11142140624999997
vt 0.90625 0.10889273437500002
vt 0.9175484375 0.10934953125000002
vt 0.90625 0.1123046875
vt 0.90625 0.0595703125
vt 0.917950078125 0.0595703125
vt 0.917950078125 0.1123046875
vt 0.90625 0.1123046875
vt 0.92884875 0.11059882812499999
vt 0.925820078125 0.1123046875
vt 0.90625 0.11059882812499999
vt 0.90625 0.10889249999999995
vt 0.9175475 0.10934976562499998
vt 0.90625 0.1123046875
vt 0.90625 0.0595703125
vt 0.917950078125 0.0595703125
vt 0.917950078125 0.1123046875
vt 0.90625 0.1123046875
vt 0.928846953125 0.11059874999999997
vt 0.925821640625 0.1123046875
vt 0.90625 0.11059874999999997
vt 0.90625 0.10900874999999999
vt 0.917950078125 0.10900874999999999
vt 0.9121 0.1123046875
vt 0.90625 0.0595703125
vt 0.917950078125 0.0595703125
vt 0.917950078125 0.1123046875
vt 0.90625 0.1123046875
vt 0.917950078125 0.1123046875
vt 0.90625 0.1123046875
vt 0.9121 0.10900874999999999
vt 0.90625 0.1123046875
vt 0.909275234375 0.11059874999999997
vt 0.928846953125 0.1123046875
vt 0.90625 0.0595703125
vt 0.917950078125 0.0595703125
vt 0.917950078125 0.1123046875
vt 0.90625 0.1123046875
vt 0.9175475 0.1123046875
vt 0.90625 0.11184734375000005
vt 0.9175475 0.10889249999999995
vt 0.90625 0.1123046875
vt 0.90927875 0.11059882812499999
vt 0.92884875 0.1123046875
vt 0.90625 0.0595703125
vt 0.917950078125 0.0595703125
vt 0.917950078125 0.1123046875
vt 0.90625 0.1123046875
vt 0.9175484375 0.1123046875
vt 0.90625 0.111847890625
vt 0.9175484375 0.10889273437500002
vt 0.90625 0.1123046875
vt 0.90625 0.11053804687500002
vt 0.9280784375 0.11142140624999997
vt 0.90625 0.0595703125
vt 0.917950078125 0.0595703125
vt 0.917950078125 0.1123046875
vt 0.90625 0.1123046875
vt 0.90625 0.1123046875
vt 0.90625 0.11053804687500002
vt 0.9280784375 0.11142140624999997
vt 0.9175484375 0.1123046875
vt 0.90625 0.111847890625
vt 0.9175484375 0.10889273437500002
vt 0.90625 0.0595703125
vt 0.917950078125 0.0595703125
vt 0.917950078125 0.1123046875
vt 0.90625 0.1123046875
vt 0.90625 0.1123046875
vt 0.90927875 0.11059882812499999
vt 0.92884875 0.1123046875
vt 0.9175475 0.1123046875
vt 0.90625 0.11184734375000005
vt 0.9175475 0.10889249999999995
vt 0.90625 0.0595703125
vt 0.917950078125 0.0595703125
vt 0.917950078125 0.1123046875
vt 0.90625 0.1123046875
vt 0.90625 0.1123046875
vt 0.909275234375 0.11059874999999997
vt 0.928846953125 0.1123046875
vt 0.917950078125 0.1123046875
vt 0.90625 0.1123046875
vt 0.9121 0.10900874999999999
vt 0.90625 0.0595703125
vt 0.917950078125 0.0595703125
vt 0.917950078125 0.1123046875
vt 0.90625 0.1123046875
vt 0.90625 0.10900874999999999
vt 0.917950078125 0.10900874999999999
vt 0.9121 0.1123046875
vn 0 -1 0
vn 0.5000325911601272 0 0.8660065864516789
vn 0 1 0
vn 0 -1 0
vn 0.8660065864516789 0 0.5000325911601272
vn 0 1 0
vn 0 -1 0
vn 1 0 0
vn 0 1 0
vn 0 -1 0
vn 0.8660065864516789 0 -0.5000325911601272
vn 0 1 0
vn 0 -1 0
vn 0.5000325911601272 0 -0.8660065864516789
vn 0 1 0
vn 0 -1 0
vn 0 0 -1
vn 0 1 0
vn 0 -1 0
vn -0.5000325911601272 0 -0.8660065864516789
vn 0 1 0
vn 0 -1 0
vn -0.8660065864516789 0 -0.5000325911601272
vn 0 1 0
vn 0 -1 0
vn -1 0 0
vn 0 1 0
vn 0 -1 0
vn -0.8660065864516789 0 0.5000325911601272
vn 0 1 0
vn 0 -1 0
vn -0.5000325911601272 0 0.8660065864516789
vn 0 1 0
vn 0 -1 0
vn 0 0 1
vn 0 1 0
usemtl m_c4285295-d1e0-dcfc-0036-196fac025b3b
f 165/525/146 163/526/146 161/527/146
f 163/528/147 165/529/147 166/530/147 164/531/147
f 164/532/148 166/533/148 162/534/148
f 167/535/149 165/536/149 161/537/149
f 165/538/150 167/539/150 168/540/150 166/541/150
f 166/542/151 168/543/151 162/544/151
f 169/545/152 167/546/152 161/547/152
f 167/548/153 169/549/153 170/550/153 168/551/153
f 168/552/154 170/553/154 162/554/154
f 171/555/155 169/556/155 161/557/155
f 169/558/156 171/559/156 172/560/156 170/561/156
f 170/562/157 172/563/157 162/564/157
f 173/565/158 171/566/158 161/567/158
f 171/568/159 173/569/159 174/570/159 172/571/159
f 172/572/160 174/573/160 162/574/160
f 175/575/161 173/576/161 161/577/161
f 173/578/162 175/579/162 176/580/162 174/581/162
f 174/582/163 176/583/163 162/584/163
f 177/585/164 175/586/164 161/587/164
f 175/588/165 177/589/165 178/590/165 176/591/165
f 176/592/166 178/593/166 162/594/166
f 179/595/167 177/596/167 161/597/167
f 177/598/168 179/599/168 180/600/168 178/601/168
f 178/602/169 180/603/169 162/604/169
f 181/605/170 179/606/170 161/607/170
f 179/608/171 181/609/171 182/610/171 180/611/171
f 180/612/172 182/613/172 162/614/172
f 183/615/173 181/616/173 161/617/173
f 181/618/174 183/619/174 184/620/174 182/621/174
f 182/622/175 184/623/175 162/624/175
f 185/625/176 183/626/176 161/627/176
f 183/628/177 185/629/177 186/630/177 184/631/177
f 184/632/178 186/633/178 162/634/178
f 163/635/179 185/636/179 161/637/179
f 185/638/180 163/639/180 164/640/180 186/641/180
f 186/642/181 164/643/181 162/644/181
o left
v -0.4375 0.375 0
v -0.4375 1.75 0
v -0.433313125 0.375 0.015625
v -0.433313125 1.75 0.015625
v -0.426061875 0.375 0.011438125
v -0.426061875 1.75 0.011438125
v -0.421875 0.375 0.004186875
v -0.421875 1.75 0.004186875
v -0.421875 0.375 -0.004186875
v -0.421875 1.75 -0.004186875
v -0.426061875 0.375 -0.011438125
v -0.426061875 1.75 -0.011438125
v -0.433313125 0.375 -0.015625
v -0.433313125 1.75 -0.015625
v -0.441686875 0.375 -0.015625
v -0.441686875 1.75 -0.015625
v -0.448938125 0.375 -0.011438125
v -0.448938125 1.75 -0.011438125
v -0.453125 0.375 -0.004186875
v -0.453125 1.75 -0.004186875
v -0.453125 0.375 0.004186875
v -0.453125 1.75 0.004186875
v -0.448938125 0.375 0.011438125
v -0.448938125 1.75 0.011438125
v -0.441686875 0.375 0.015625
v -0.441686875 1.75 0.015625
vt 0.928846953125 0.11059874999999997
vt 0.925821640625 0.1123046875
vt 0.90625 0.11059874999999997
vt 0.90625 0.0595703125
vt 0.917950078125 0.0595703125
vt 0.917950078125 0.1123046875
vt 0.90625 0.1123046875
vt 0.90625 0.10889249999999995
vt 0.9175475 0.10934976562499998
vt 0.90625 0.1123046875
vt 0.92884875 0.11059882812499999
vt 0.925820078125 0.1123046875
vt 0.90625 0.11059882812499999
vt 0.90625 0.0595703125
vt 0.917950078125 0.0595703125
vt 0.917950078125 0.1123046875
vt 0.90625 0.1123046875
vt 0.90625 0.10889273437500002
vt 0.9175484375 0.10934953125000002
vt 0.90625 0.1123046875
vt 0.9280784375 0.11053804687500002
vt 0.9280784375 0.1123046875
vt 0.90625 0.11142140624999997
vt 0.90625 0.0595703125
vt 0.917950078125 0.0595703125
vt 0.917950078125 0.1123046875
vt 0.90625 0.1123046875
vt 0.9280784375 0.11053804687500002
vt 0.9280784375 0.1123046875
vt 0.90625 0.11142140624999997
vt 0.90625 0.10889273437500002
vt 0.9175484375 0.10934953125000002
vt 0.90625 0.1123046875
vt 0.90625 0.0595703125
vt 0.917950078125 0.0595703125
vt 0.917950078125 0.1123046875
vt 0.90625 0.1123046875
vt 0.92884875 0.11059882812499999
vt 0.925820078125 0.1123046875
vt 0.90625 0.11059882812499999
vt 0.90625 0.10889249999999995
vt 0.9175475 0.10934976562499998
vt 0.90625 0.1123046875
vt 0.90625 0.0595703125
vt 0.917950078125 0.0595703125
vt 0.917950078125 0.1123046875
vt 0.90625 0.1123046875
vt 0.928846953125 0.11059874999999997
vt 0.925821640625 0.1123046875
vt 0.90625 0.11059874999999997
vt 0.90625 0.10900874999999999
vt 0.917950078125 0.10900874999999999
vt 0.9121 0.1123046875
vt 0.90625 0.0595703125
vt 0.917950078125 0.0595703125
vt 0.917950078125 0.1123046875
vt 0.90625 0.1123046875
vt 0.917950078125 0.1123046875
vt 0.90625 0.1123046875
vt 0.9121 0.10900874999999999
vt 0.90625 0.1123046875
vt 0.909275234375 0.11059874999999997
vt 0.928846953125 0.1123046875
vt 0.90625 0.0595703125
vt 0.917950078125 0.0595703125
vt 0.917950078125 0.1123046875
vt 0.90625 0.1123046875
vt 0.9175475 0.1123046875
vt 0.90625 0.11184734375000005
vt 0.9175475 0.10889249999999995
vt 0.90625 0.1123046875
vt 0.90927875 0.11059882812499999
vt 0.92884875 0.1123046875
vt 0.90625 0.0595703125
vt 0.917950078125 0.0595703125
vt 0.917950078125 0.1123046875
vt 0.90625 0.1123046875
vt 0.9175484375 0.1123046875
vt 0.90625 0.111847890625
vt 0.9175484375 0.10889273437500002
vt 0.90625 0.1123046875
vt 0.90625 0.11053804687500002
vt 0.9280784375 0.11142140624999997
vt 0.90625 0.0595703125
vt 0.917950078125 0.0595703125
vt 0.917950078125 0.1123046875
vt 0.90625 0.1123046875
vt 0.90625 0.1123046875
vt 0.90625 0.11053804687500002
vt 0.9280784375 0.11142140624999997
vt 0.9175484375 0.1123046875
vt 0.90625 0.111847890625
vt 0.9175484375 0.10889273437500002
vt 0.90625 0.0595703125
vt 0.917950078125 0.0595703125
vt 0.917950078125 0.1123046875
vt 0.90625 0.1123046875
vt 0.90625 0.1123046875
vt 0.90927875 0.11059882812499999
vt 0.92884875 0.1123046875
vt 0.9175475 0.1123046875
vt 0.90625 0.11184734375000005
vt 0.9175475 0.10889249999999995
vt 0.90625 0.0595703125
vt 0.917950078125 0.0595703125
vt 0.917950078125 0.1123046875
vt 0.90625 0.1123046875
vt 0.90625 0.1123046875
vt 0.909275234375 0.11059874999999997
vt 0.928846953125 0.1123046875
vt 0.917950078125 0.1123046875
vt 0.90625 0.1123046875
vt 0.9121 0.10900874999999999
vt 0.90625 0.0595703125
vt 0.917950078125 0.0595703125
vt 0.917950078125 0.1123046875
vt 0.90625 0.1123046875
vt 0.90625 0.10900874999999999
vt 0.917950078125 0.10900874999999999
vt 0.9121 0.1123046875
vn 0 -1 0
vn 0.5000325911601272 0 0.8660065864516789
vn 0 1 0
vn 0 -1 0
vn 0.8660065864516789 0 0.5000325911601272
vn 0 1 0
vn 0 -1 0
vn 1 0 0
vn 0 1 0
vn 0 -1 0
vn 0.8660065864516789 0 -0.5000325911601272
vn 0 1 0
vn 0 -1 0
vn 0.5000325911601272 0 -0.8660065864516789
vn 0 1 0
vn 0 -1 0
vn 0 0 -1
vn 0 1 0
vn 0 -1 0
vn -0.5000325911601272 0 -0.8660065864516789
vn 0 1 0
vn 0 -1 0
vn -0.8660065864516789 0 -0.5000325911601272
vn 0 1 0
vn 0 -1 0
vn -1 0 0
vn 0 1 0
vn 0 -1 0
vn -0.8660065864516789 0 0.5000325911601272
vn 0 1 0
vn 0 -1 0
vn -0.5000325911601272 0 0.8660065864516789
vn 0 1 0
vn 0 -1 0
vn 0 0 1
vn 0 1 0
usemtl m_c4285295-d1e0-dcfc-0036-196fac025b3b
f 191/645/182 189/646/182 187/647/182
f 189/648/183 191/649/183 192/650/183 190/651/183
f 190/652/184 192/653/184 188/654/184
f 193/655/185 191/656/185 187/657/185
f 191/658/186 193/659/186 194/660/186 192/661/186
f 192/662/187 194/663/187 188/664/187
f 195/665/188 193/666/188 187/667/188
f 193/668/189 195/669/189 196/670/189 194/671/189
f 194/672/190 196/673/190 188/674/190
f 197/675/191 195/676/191 187/677/191
f 195/678/192 197/679/192 198/680/192 196/681/192
f 196/682/193 198/683/193 188/684/193
f 199/685/194 197/686/194 187/687/194
f 197/688/195 199/689/195 200/690/195 198/691/195
f 198/692/196 200/693/196 188/694/196
f 201/695/197 199/696/197 187/697/197
f 199/698/198 201/699/198 202/700/198 200/701/198
f 200/702/199 202/703/199 188/704/199
f 203/705/200 201/706/200 187/707/200
f 201/708/201 203/709/201 204/710/201 202/711/201
f 202/712/202 204/713/202 188/714/202
f 205/715/203 203/716/203 187/717/203
f 203/718/204 205/719/204 206/720/204 204/721/204
f 204/722/205 206/723/205 188/724/205
f 207/725/206 205/726/206 187/727/206
f 205/728/207 207/729/207 208/730/207 206/731/207
f 206/732/208 208/733/208 188/734/208
f 209/735/209 207/736/209 187/737/209
f 207/738/210 209/739/210 210/740/210 208/741/210
f 208/742/211 210/743/211 188/744/211
f 211/745/212 209/746/212 187/747/212
f 209/748/213 211/749/213 212/750/213 210/751/213
f 210/752/214 212/753/214 188/754/214
f 189/755/215 211/756/215 187/757/215
f 211/758/216 189/759/216 190/760/216 212/761/216
f 212/762/217 190/763/217 188/764/217
o left
v -0.40625 2.0625 -0.062499999999999965
v -0.40625 2.0625 0.06250000000000003
v -0.40625 1.9375 -0.062499999999999965
v -0.40625 1.9375 0.06250000000000003
v 0.40625 2.0625 0.06249999999999994
v 0.40625 2.0625 -0.06250000000000007
v 0.40625 1.9375 0.06249999999999994
v 0.40625 1.9375 -0.06250000000000007
vt 0.8984375 0.0751953125
vt 1 0.0751953125
vt 1 0
vt 0.8984375 0
vt 0.888671875 0.1142578125
vt 0.982421875 0.1142578125
vt 0.982421875 0.0087890625
vt 0.888671875 0.0087890625
vt 0.8984375 0.0751953125
vt 1 0.0751953125
vt 1 0
vt 0.8984375 0
vt 0.888671875 0.1142578125
vt 0.982421875 0.1142578125
vt 0.982421875 0.0087890625
vt 0.888671875 0.0087890625
vt 0.8984375 0.0869140625
vt 1 0.0869140625
vt 1 0.0234375
vt 0.8984375 0.0234375
vt 0.8984375 0.0869140625
vt 1 0.0869140625
vt 1 0.0234375
vt 0.8984375 0.0234375
vn 1.2246467991473532e-16 0 1
vn -1 0 1.2246467991473532e-16
vn -1.2246467991473532e-16 0 -1
vn 1 0 -1.2246467991473532e-16
vn 0 1 0
vn 0 -1 0
usemtl m_c4285295-d1e0-dcfc-0036-196fac025b3b
f 216/768/218 219/767/218 217/766/218 214/765/218
f 215/772/219 216/771/219 214/770/219 213/769/219
f 220/776/220 215/775/220 213/774/220 218/773/220
f 219/780/221 220/779/221 218/778/221 217/777/221
f 218/784/222 213/783/222 214/782/222 217/781/222
f 219/788/223 216/787/223 215/786/223 220/785/223
o left
v 0.40625 1.40625 -0.06250000000000004
v 0.40625 1.40625 0.06249999999999996
v 0.40625 1.09375 -0.06250000000000004
v 0.40625 1.09375 0.06249999999999996
v 0.59375 1.40625 0.06249999999999994
v 0.59375 1.40625 -0.06250000000000007
v 0.59375 1.09375 0.06249999999999994
v 0.59375 1.09375 -0.06250000000000007
vt 0.8984375 0.0751953125
vt 1 0.0751953125
vt 1 0
vt 0.8984375 0
vt 0.888671875 0.1142578125
vt 0.982421875 0.1142578125
vt 0.982421875 0.0087890625
vt 0.888671875 0.0087890625
vt 0.8984375 0.0751953125
vt 1 0.0751953125
vt 1 0
vt 0.8984375 0
vt 0.888671875 0.1142578125
vt 0.982421875 0.1142578125
vt 0.982421875 0.0087890625
vt 0.888671875 0.0087890625
vt 0.8984375 0.0869140625
vt 1 0.0869140625
vt 1 0.0234375
vt 0.8984375 0.0234375
vt 0.8984375 0.0869140625
vt 1 0.0869140625
vt 1 0.0234375
vt 0.8984375 0.0234375
vn 1.2246467991473532e-16 0 1
vn -1 0 1.2246467991473532e-16
vn -1.2246467991473532e-16 0 -1
vn 1 0 -1.2246467991473532e-16
vn 0 1 0
vn 0 -1 0
usemtl m_c4285295-d1e0-dcfc-0036-196fac025b3b
f 224/792/224 227/791/224 225/790/224 222/789/224
f 223/796/225 224/795/225 222/794/225 221/793/225
f 228/800/226 223/799/226 221/798/226 226/797/226
f 227/804/227 228/803/227 226/802/227 225/801/227
f 226/808/228 221/807/228 222/806/228 225/805/228
f 227/812/229 224/811/229 223/810/229 228/809/229
o left
v -0.59375 1.40625 -0.06250000000000004
v -0.59375 1.40625 0.06249999999999996
v -0.59375 1.09375 -0.06250000000000004
v -0.59375 1.09375 0.06249999999999996
v -0.40625 1.40625 0.06249999999999994
v -0.40625 1.40625 -0.06250000000000007
v -0.40625 1.09375 0.06249999999999994
v -0.40625 1.09375 -0.06250000000000007
vt 0.8984375 0.0751953125
vt 1 0.0751953125
vt 1 0
vt 0.8984375 0
vt 0.888671875 0.1142578125
vt 0.982421875 0.1142578125
vt 0.982421875 0.0087890625
vt 0.888671875 0.0087890625
vt 0.8984375 0.0751953125
vt 1 0.0751953125
vt 1 0
vt 0.8984375 0
vt 0.888671875 0.1142578125
vt 0.982421875 0.1142578125
vt 0.982421875 0.0087890625
vt 0.888671875 0.0087890625
vt 0.8984375 0.0869140625
vt 1 0.0869140625
vt 1 0.0234375
vt 0.8984375 0.0234375
vt 0.8984375 0.0869140625
vt 1 0.0869140625
vt 1 0.0234375
vt 0.8984375 0.0234375
vn 1.2246467991473532e-16 0 1
vn -1 0 1.2246467991473532e-16
vn -1.2246467991473532e-16 0 -1
vn 1 0 -1.2246467991473532e-16
vn 0 1 0
vn 0 -1 0
usemtl m_c4285295-d1e0-dcfc-0036-196fac025b3b
f 232/816/230 235/815/230 233/814/230 230/813/230
f 231/820/231 232/819/231 230/818/231 229/817/231
f 236/824/232 231/823/232 229/822/232 234/821/232
f 235/828/233 236/827/233 234/826/233 233/825/233
f 234/832/234 229/831/234 230/830/234 233/829/234
f 235/836/235 232/835/235 231/834/235 236/833/235
o cube
v 0.40625 2 0.063125
v 0.40625 2 0.063125
v 0.40625 1.984375 0.063125
v 0.40625 1.984375 0.063125
v -0.40625 2 0.063125
v -0.40625 2 0.063125
v -0.40625 1.984375 0.063125
v -0.40625 1.984375 0.063125
vt 0.2060546875 0.0068359375
vt 0.2109375 0.0068359375
vt 0.2109375 0.005859375
vt 0.2060546875 0.005859375
vn 0 0 1
usemtl m_c4285295-d1e0-dcfc-0036-196fac025b3b
f 244/840/236 239/839/236 237/838/236 242/837/236
o cube
v -0.40625 2 -0.06312499999999995
v -0.40625 2 -0.06312499999999995
v -0.40625 1.984375 -0.06312499999999995
v -0.40625 1.984375 -0.06312499999999995
v 0.40625 2 -0.06312500000000006
v 0.40625 2 -0.06312500000000006
v 0.40625 1.984375 -0.06312500000000006
v 0.40625 1.984375 -0.06312500000000006
vt 0.3056640625 0.0068359375
vt 0.310546875 0.0068359375
vt 0.310546875 0.005859375
vt 0.3056640625 0.005859375
vn -1.2246467991473532e-16 0 -1
usemtl m_c4285295-d1e0-dcfc-0036-196fac025b3b
f 252/844/237 247/843/237 245/842/237 250/841/237
o left
v 0.59375 1.40625 0.063125
v 0.59375 1.40625 0.063125
v 0.59375 1.09375 0.063125
v 0.59375 1.09375 0.063125
v 0.40625 1.40625 0.063125
v 0.40625 1.40625 0.063125
v 0.40625 1.09375 0.063125
v 0.40625 1.09375 0.063125
vt 0.6083984375 0.0390625
vt 0.6318359375 0.0390625
vt 0.6318359375 0
vt 0.6083984375 0
vn 0 0 1
usemtl m_c4285295-d1e0-dcfc-0036-196fac025b3b
f 260/848/238 255/847/238 253/846/238 258/845/238
o left
v -0.59375 1.40625 -0.06312500000000001
v -0.59375 1.40625 -0.06312500000000001
v -0.59375 1.09375 -0.06312499999999999
v -0.59375 1.09375 -0.06312499999999999
v -0.40625 1.40625 -0.06312500000000001
v -0.40625 1.40625 -0.06312500000000001
v -0.40625 1.09375 -0.06312499999999999
v -0.40625 1.09375 -0.06312499999999999
vt 0.634765625 0.0390625
vt 0.658203125 0.0390625
vt 0.658203125 0
vt 0.634765625 0
vn 1.4997597826618576e-32 -1.2246467991473532e-16 -1
usemtl m_c4285295-d1e0-dcfc-0036-196fac025b3b
f 268/852/239 263/851/239 261/850/239 266/849/239
o cube
v -0.03125 1.78125 0.015625
v -0.03125 1.78125 -0.015625
v -0.03125 0.453125 0.015625
v -0.03125 0.453125 -0.015625
v -0.4375 1.65625 0.015625
v -0.4375 1.65625 -0.015625
v -0.4375 0.53125 0.015625
v -0.4375 0.53125 -0.015625
v -0.3359375 1.78125 0.015625
v -0.3359375 1.78125 -0.015625
v -0.3359375 1.828125 0.015625
v -0.3359375 1.828125 -0.015625
v -0.078125 1.828125 0.015625
v -0.078125 1.828125 -0.015625
v -0.3359375 0.53125 -0.015625
v -0.3359375 0.453125 -0.015625
v -0.2890625 0.40625 -0.015625
v -0.3359375 0.53125 0.015625
v -0.3359375 0.453125 0.015625
v -0.2890625 0.40625 0.015625
v -0.078125 0.40625 0.015625
v -0.078125 0.40625 -0.015625
v -0.0546875 1.8046875 -0.015625
v -0.0546875 1.8046875 0.015625
vt 0.8341758578431373 0.15766655219780223
vt 0.8341758578431373 0.19780219780219777
vt 0.8349609375 0.19780219780219777
vt 0.8349609375 0.15766655219780223
vt 0 0.837890625
vt 0 0.978515625
vt 0 0.978515625
vt 0 0.837890625
vt 0.8296465521304676 0.19921875
vt 0.8326962846436652 0.19851047390109888
vt 0.8319112049868024 0.19851047390109888
vt 0.8304316317873303 0.19921875
vt 0.809264676423454 0.15625
vt 0.8304316317873303 0.15625
vt 0.8296465521304676 0.15625
vt 0.8100497560803167 0.15625
vt 0.0185546875 0.822265625
vt 0.04492187499999997 0.822265625
vt 0.0478515625 0.9970703125
vt 0.04492187499999997 1
vt 0.04492187499999997 1
vt 0.0478515625 0.9970703125
vt 0.04492187499999997 0.822265625
vt 0.0185546875 0.822265625
vt 0.794921875 0.19402472527472525
vt 0.8047353707107843 0.19780219780219777
vt 0.8055204503676471 0.19780219780219777
vt 0.7957069546568627 0.19402472527472525
vt 0.8047353707107843 0.19780219780219777
vt 0.8047353707107843 0.19921875
vt 0.8055204503676471 0.19921875
vt 0.8055204503676471 0.19780219780219777
vt 0.8047353707107843 0.19921875
vt 0.8296465521304676 0.19921875
vt 0.8304316317873303 0.19921875
vt 0.8055204503676471 0.19921875
vt 0 0.978515625
vt 0.0126953125 0.994140625
vt 0.0126953125 0.837890625
vt 0 0.837890625
vt 0.0126953125 0.994140625
vt 0.0126953125 1
vt 0.0126953125 0.828125
vt 0.0126953125 0.837890625
vt 0.0126953125 1
vt 0.04492187499999997 1
vt 0.0185546875 0.822265625
vt 0.0126953125 0.828125
vt 0.794921875 0.16002747252747263
vt 0.8047353707107843 0.16002747252747263
vt 0.8055204503676471 0.16002747252747263
vt 0.7957069546568627 0.16002747252747263
vt 0.8047353707107843 0.16002747252747263
vt 0.8047353707107843 0.15766655219780223
vt 0.8055204503676471 0.15766655219780223
vt 0.8055204503676471 0.16002747252747263
vt 0.8047353707107843 0.15766655219780223
vt 0.809264676423454 0.15625
vt 0.8100497560803167 0.15625
vt 0.8055204503676471 0.15766655219780223
vt 0 0.837890625
vt 0.0126953125 0.837890625
vt 0.0126953125 0.994140625
vt 0 0.978515625
vt 0.0126953125 0.837890625
vt 0.0126953125 0.828125
vt 0.0126953125 1
vt 0.0126953125 0.994140625
vt 0.0126953125 0.828125
vt 0.0185546875 0.822265625
vt 0.04492187499999997 1
vt 0.0126953125 1
vt 0.8333907781862745 0.1579920730311356
vt 0.8296465521304676 0.15625
vt 0.8304316317873303 0.15625
vt 0.8341758578431373 0.15766655219780223
vt 0.05078125 0.828125
vt 0.04492187499999997 0.822265625
vt 0.0478515625 0.9970703125
vt 0.05078125 0.994140625
vt 0.8341758578431373 0.19780219780219777
vt 0.8319112049868024 0.19851047390109888
vt 0.8326962846436652 0.19851047390109888
vt 0.8349609375 0.19780219780219777
vt 0.05078125 0.994140625
vt 0.0478515625 0.9970703125
vt 0.04492187499999997 0.822265625
vt 0.05078125 0.828125
vn 1 0 0
vn -1 0 0
vn 0.7071067811865476 0.7071067811865476 0
vn 0 -1 0
vn 0 0 1
vn 0 0 -1
vn -0.7761140001162655 0.6305926250944657 0
vn -1 0 0
vn 0 1 0
vn 0 0 -1
vn 0 0 0
vn 0 0 -1
vn 0 -1 0
vn -1 0 0
vn -0.7071067811865476 -0.7071067811865476 0
vn 0 0 1
vn 0 0 0
vn 0 0 1
vn 0.7071067811865476 -0.7071067811865476 0
vn 0 0 -1
vn 0.7071067811865476 0.7071067811865476 0
vn 0 0 1
usemtl m_c4285295-d1e0-dcfc-0036-196fac025b3b
f 272/853/240 270/854/240 269/855/240 271/856/240
f 275/857/241 273/858/241 274/859/241 276/860/241
f 281/861/242 292/862/242 291/863/242 282/864/242
f 285/865/243 290/866/243 289/867/243 288/868/243
f 288/869/244 289/870/244 292/871/244 281/872/244
f 282/873/245 291/874/245 290/875/245 285/876/245
f 273/877/246 277/878/246 278/879/246 274/880/246
f 277/881/247 279/882/247 280/883/247 278/884/247
f 279/885/248 281/886/248 282/887/248 280/888/248
f 274/889/249 278/890/249 283/891/249 276/892/249
f 278/893/250 280/894/250 284/895/250 283/896/250
f 280/897/251 282/898/251 285/899/251 284/900/251
f 276/901/252 283/902/252 286/903/252 275/904/252
f 283/905/253 284/906/253 287/907/253 286/908/253
f 284/909/254 285/910/254 288/911/254 287/912/254
f 275/913/255 286/914/255 277/915/255 273/916/255
f 286/917/256 287/918/256 279/919/256 277/920/256
f 287/921/257 288/922/257 281/923/257 279/924/257
f 271/925/258 289/926/258 290/927/258 272/928/258
f 272/929/259 290/930/259 291/931/259 270/932/259
f 270/933/260 291/934/260 292/935/260 269/936/260
f 269/937/261 292/938/261 289/939/261 271/940/261
o cube
v 0.031249999999999997 1.78125 -0.015625000000000003
v 0.03125 1.78125 0.015624999999999997
v 0.031249999999999997 0.453125 -0.015625000000000003
v 0.03125 0.453125 0.015624999999999997
v 0.4375 1.65625 -0.015625000000000052
v 0.4375 1.65625 0.015624999999999946
v 0.4375 0.53125 -0.015625000000000052
v 0.4375 0.53125 0.015624999999999946
v 0.3359375 1.78125 -0.01562500000000004
v 0.3359375 1.78125 0.015624999999999958
v 0.3359375 1.828125 -0.01562500000000004
v 0.3359375 1.828125 0.015624999999999958
v 0.078125 1.828125 -0.01562500000000001
v 0.078125 1.828125 0.01562499999999999
v 0.3359375 0.53125 0.015624999999999958
v 0.3359375 0.453125 0.015624999999999958
v 0.2890625 0.40625 0.015624999999999965
v 0.3359375 0.53125 -0.01562500000000004
v 0.3359375 0.453125 -0.01562500000000004
v 0.2890625 0.40625 -0.015625000000000035
v 0.078125 0.40625 -0.01562500000000001
v 0.078125 0.40625 0.01562499999999999
v 0.0546875 1.8046875 0.015624999999999993
v 0.0546875 1.8046875 -0.015625000000000007
vt 0.8341758578431373 0.15766655219780223
vt 0.8341758578431373 0.19780219780219777
vt 0.8349609375 0.19780219780219777
vt 0.8349609375 0.15766655219780223
vt 0 0.837890625
vt 0 0.978515625
vt 0 0.978515625
vt 0 0.837890625
vt 0.8296465521304676 0.19921875
vt 0.8326962846436652 0.19851047390109888
vt 0.8319112049868024 0.19851047390109888
vt 0.8304316317873303 0.19921875
vt 0.809264676423454 0.15625
vt 0.8304316317873303 0.15625
vt 0.8296465521304676 0.15625
vt 0.8100497560803167 0.15625
vt 0.0185546875 0.822265625
vt 0.04492187499999997 0.822265625
vt 0.0478515625 0.9970703125
vt 0.04492187499999997 1
vt 0.04492187499999997 1
vt 0.0478515625 0.9970703125
vt 0.04492187499999997 0.822265625
vt 0.0185546875 0.822265625
vt 0.794921875 0.19402472527472525
vt 0.8047353707107843 0.19780219780219777
vt 0.8055204503676471 0.19780219780219777
vt 0.7957069546568627 0.19402472527472525
vt 0.8047353707107843 0.19780219780219777
vt 0.8047353707107843 0.19921875
vt 0.8055204503676471 0.19921875
vt 0.8055204503676471 0.19780219780219777
vt 0.8047353707107843 0.19921875
vt 0.8296465521304676 0.19921875
vt 0.8304316317873303 0.19921875
vt 0.8055204503676471 0.19921875
vt 0 0.978515625
vt 0.0126953125 0.994140625
vt 0.0126953125 0.837890625
vt 0 0.837890625
vt 0.0126953125 0.994140625
vt 0.0126953125 1
vt 0.0126953125 0.828125
vt 0.0126953125 0.837890625
vt 0.0126953125 1
vt 0.04492187499999997 1
vt 0.0185546875 0.822265625
vt 0.0126953125 0.828125
vt 0.794921875 0.16002747252747263
vt 0.8047353707107843 0.16002747252747263
vt 0.8055204503676471 0.16002747252747263
vt 0.7957069546568627 0.16002747252747263
vt 0.8047353707107843 0.16002747252747263
vt 0.8047353707107843 0.15766655219780223
vt 0.8055204503676471 0.15766655219780223
vt 0.8055204503676471 0.16002747252747263
vt 0.8047353707107843 0.15766655219780223
vt 0.809264676423454 0.15625
vt 0.8100497560803167 0.15625
vt 0.8055204503676471 0.15766655219780223
vt 0 0.837890625
vt 0.0126953125 0.837890625
vt 0.0126953125 0.994140625
vt 0 0.978515625
vt 0.0126953125 0.837890625
vt 0.0126953125 0.828125
vt 0.0126953125 1
vt 0.0126953125 0.994140625
vt 0.0126953125 0.828125
vt 0.0185546875 0.822265625
vt 0.04492187499999997 1
vt 0.0126953125 1
vt 0.8333907781862745 0.1579920730311356
vt 0.8296465521304676 0.15625
vt 0.8304316317873303 0.15625
vt 0.8341758578431373 0.15766655219780223
vt 0.05078125 0.828125
vt 0.04492187499999997 0.822265625
vt 0.0478515625 0.9970703125
vt 0.05078125 0.994140625
vt 0.8341758578431373 0.19780219780219777
vt 0.8319112049868024 0.19851047390109888
vt 0.8326962846436652 0.19851047390109888
vt 0.8349609375 0.19780219780219777
vt 0.05078125 0.994140625
vt 0.0478515625 0.9970703125
vt 0.04492187499999997 0.822265625
vt 0.05078125 0.828125
vn -1 0 1.2246467991473532e-16
vn 1 0 -1.2246467991473532e-16
vn -0.7071067811865476 0.7071067811865476 8.659560562354934e-17
vn 0 -1 0
vn -1.2246467991473532e-16 0 -1
vn 1.2246467991473532e-16 0 1
vn 0.7761140001162655 0.6305926250944657 -9.504655260158331e-17
vn 1 0 -1.2246467991473532e-16
vn 0 1 0
vn 1.2246467991473532e-16 0 1
vn 0 0 0
vn 1.2246467991473532e-16 0 1
vn 0 -1 0
vn 1 0 -1.2246467991473532e-16
vn 0.7071067811865476 -0.7071067811865476 -8.659560562354934e-17
vn -1.2246467991473532e-16 0 -1
vn 0 0 0
vn -1.2246467991473532e-16 0 -1
vn -0.7071067811865476 -0.7071067811865476 8.659560562354934e-17
vn 1.2246467991473532e-16 0 1
vn -0.7071067811865476 0.7071067811865476 8.659560562354934e-17
vn -1.2246467991473532e-16 0 -1
usemtl m_c4285295-d1e0-dcfc-0036-196fac025b3b
f 296/941/262 294/942/262 293/943/262 295/944/262
f 299/945/263 297/946/263 298/947/263 300/948/263
f 305/949/264 316/950/264 315/951/264 306/952/264
f 309/953/265 314/954/265 313/955/265 312/956/265
f 312/957/266 313/958/266 316/959/266 305/960/266
f 306/961/267 315/962/267 314/963/267 309/964/267
f 297/965/268 301/966/268 302/967/268 298/968/268
f 301/969/269 303/970/269 304/971/269 302/972/269
f 303/973/270 305/974/270 306/975/270 304/976/270
f 298/977/271 302/978/271 307/979/271 300/980/271
f 302/981/272 304/982/272 308/983/272 307/984/272
f 304/985/273 306/986/273 309/987/273 308/988/273
f 300/989/274 307/990/274 310/991/274 299/992/274
f 307/993/275 308/994/275 311/995/275 310/996/275
f 308/997/276 309/998/276 312/999/276 311/1000/276
f 299/1001/277 310/1002/277 301/1003/277 297/1004/277
f 310/1005/278 311/1006/278 303/1007/278 301/1008/278
f 311/1009/279 312/1010/279 305/1011/279 303/1012/279
f 295/1013/280 313/1014/280 314/1015/280 296/1016/280
f 296/1017/281 314/1018/281 315/1019/281 294/1020/281
f 294/1021/282 315/1022/282 316/1023/282 293/1024/282
f 293/1025/283 316/1026/283 313/1027/283 295/1028/283