# Made in Blockbench 5.1.6
mtllib nyc_subway_fare_gate_5_entrance_closed_light_layer.mtl

o doorLeft
v -0.038762019230769246 0.4137537202380952 -0.0159375
v -0.030937500000000007 0.43720238095238095 -0.0159375
v -0.030937500000000007 0.43720238095238095 0.0159375
v -0.038762019230769246 0.4137537202380952 0.0159375
v -0.4378125 0.40593749999999995 0.0159375
v -0.4378125 0.43720238095238095 0.0159375
v -0.4378125 0.43720238095238095 -0.0159375
v -0.4378125 0.40593749999999995 -0.0159375
v -0.038762019230769246 1.7112462797619048 -0.0159375
v -0.062235576923076935 1.7190625000000002 -0.0159375
v -0.062235576923076935 1.7190625000000002 0.0159375
v -0.038762019230769246 1.7112462797619048 0.0159375
v -0.062235576923076935 0.40593749999999995 0.0159375
v -0.062235576923076935 0.40593749999999995 -0.0159375
v -0.062235576923076935 0.43720238095238095 0.0159375
v -0.062235576923076935 0.43720238095238095 -0.0159375
v -0.030937500000000007 1.6877976190476192 0.0159375
v -0.030937500000000007 1.6877976190476192 -0.0159375
v -0.062235576923076935 1.6877976190476192 -0.0159375
v -0.4378125 1.7190625000000002 -0.0159375
v -0.4378125 1.6877976190476192 -0.0159375
v -0.4378125 1.6877976190476192 0.0159375
v -0.4378125 1.7190625000000002 0.0159375
v -0.062235576923076935 1.6877976190476192 0.0159375
vt 0.8483072916666666 0.1640625
vt 0.8483072916666666 0.16585286458333337
vt 0.7632955293525403 0.16585286458333337
vt 0.7632955293525403 0.1640625
vt 0.8483072916666666 0.1640625
vt 0.8483072916666666 0.16585286458333337
vt 0.7632955293525403 0.16585286458333337
vt 0.7632955293525403 0.1640625
vt 0.8457539498141264 0.2392578125
vt 0.8392145834822705 0.2392578125
vt 0.8392145834822705 0.234375
vt 0.8457539498141264 0.234375
vt 0.8457539498141264 0.2392578125
vt 0.8392145834822705 0.2392578125
vt 0.8392145834822705 0.234375
vt 0.8457539498141264 0.234375
vt 0.7060546875 0.05078125
vt 0.7060546875 0.0546875
vt 0.7021484375 0.0546875
vt 0.7021484375 0.05078125
vt 0.7021484375 0.05078125
vt 0.7021484375 0.0546875
vt 0.7060546875 0.0546875
vt 0.7060546875 0.05078125
vt 0.7632955293525403 0.2392578125
vt 0.7632955293525403 0.23746744791666663
vt 0.8483072916666666 0.23746744791666663
vt 0.8483072916666666 0.2392578125
vt 0.7060546875 0.2109375
vt 0.7021484375 0.2109375
vt 0.7021484375 0.21484375
vt 0.7060546875 0.21484375
vt 0.7632955293525403 0.2392578125
vt 0.7632955293525403 0.23746744791666663
vt 0.8483072916666666 0.23746744791666663
vt 0.8483072916666666 0.2392578125
vt 0.7060546875 0.21484375
vt 0.7021484375 0.21484375
vt 0.7021484375 0.2109375
vt 0.7060546875 0.2109375
vt 0.7607421875 0.234375
vt 0.8392145834822705 0.234375
vt 0.8392145834822705 0.2392578125
vt 0.7607421875 0.2392578125
vt 0.6552734375 0.21484375
vt 0.7021484375 0.21484375
vt 0.7021484375 0.2109375
vt 0.6552734375 0.2109375
vt 0.6552734375 0.05078125
vt 0.6552734375 0.0546875
vt 0.7021484375 0.0546875
vt 0.7021484375 0.05078125
vt 0.7607421875 0.234375
vt 0.8392145834822705 0.234375
vt 0.8392145834822705 0.2392578125
vt 0.7607421875 0.2392578125
vt 0.7021484375 0.05078125
vt 0.7021484375 0.0546875
vt 0.6552734375 0.0546875
vt 0.6552734375 0.05078125
vt 0.6552734375 0.2109375
vt 0.7021484375 0.2109375
vt 0.7021484375 0.21484375
vt 0.6552734375 0.21484375
vt 0.7632955293525403 0.23746744791666663
vt 0.7632955293525403 0.16585286458333337
vt 0.8483072916666666 0.16585286458333337
vt 0.8483072916666666 0.23746744791666663
vt 0.7060546875 0.2109375
vt 0.7060546875 0.0546875
vt 0.7021484375 0.0546875
vt 0.7021484375 0.2109375
vt 0.7021484375 0.2109375
vt 0.7021484375 0.0546875
vt 0.6552734375 0.0546875
vt 0.6552734375 0.2109375
vt 0.7632955293525403 0.23746744791666663
vt 0.7632955293525403 0.16585286458333337
vt 0.8483072916666666 0.16585286458333337
vt 0.8483072916666666 0.23746744791666663
vt 0.6552734375 0.2109375
vt 0.6552734375 0.0546875
vt 0.7021484375 0.0546875
vt 0.7021484375 0.2109375
vt 0.7021484375 0.2109375
vt 0.7021484375 0.0546875
vt 0.7060546875 0.0546875
vt 0.7060546875 0.2109375
vn 0.9485825327166074 -0.3165299016284976 0
vn -1 0 0
vn 0.31592585476068463 0.9487838817632448 0
vn 0.31592585476068064 -0.9487838817632462 0
vn 0 0 1
vn 0 0 -1
vn 0.948582532716607 0.31652990162849903 0
vn 0 0 -1
vn -1 0 0
vn 0 0 1
vn 0 1 0
vn 0 0 -1
vn 0 0 -1
vn 0 -1 0
vn 0 0 1
vn 0 0 1
vn 1 0 0
vn 0 0 -1
vn 0 0 -1
vn -1 0 0
vn 0 0 1
vn 0 0 1
usemtl m_0e1c25ad-fae4-2822-e841-3803d2d53e4a
f 1/1/1 2/2/1 3/3/1 4/4/1
f 5/5/2 6/6/2 7/7/2 8/8/2
f 9/9/3 10/10/3 11/11/3 12/12/3
f 4/13/4 13/14/4 14/15/4 1/16/4
f 4/17/5 3/18/5 15/19/5 13/20/5
f 14/21/6 16/22/6 2/23/6 1/24/6
f 12/25/7 17/26/7 18/27/7 9/28/7
f 18/29/8 19/30/8 10/31/8 9/32/8
f 20/33/9 21/34/9 22/35/9 23/36/9
f 12/37/10 11/38/10 24/39/10 17/40/10
f 23/41/11 11/42/11 10/43/11 20/44/11
f 20/45/12 10/46/12 19/47/12 21/48/12
f 8/49/13 7/50/13 16/51/13 14/52/13
f 8/53/14 14/54/14 13/55/14 5/56/14
f 13/57/15 15/58/15 6/59/15 5/60/15
f 22/61/16 24/62/16 11/63/16 23/64/16
f 17/65/17 3/66/17 2/67/17 18/68/17
f 18/69/18 2/70/18 16/71/18 19/72/18
f 19/73/19 16/74/19 7/75/19 21/76/19
f 21/77/20 7/78/20 6/79/20 22/80/20
f 22/81/21 6/82/21 15/83/21 24/84/21
f 24/85/22 15/86/22 3/87/22 17/88/22
o doorLeft
v 0.038762019230769246 0.4137537202380952 0.01593749999999997
v 0.030937500000000007 0.43720238095238095 0.015937499999999973
v 0.030937500000000007 0.43720238095238095 -0.01593749999999998
v 0.038762019230769246 0.4137537202380952 -0.01593749999999998
v 0.4378125 0.40593749999999995 -0.015937500000000028
v 0.4378125 0.43720238095238095 -0.015937500000000028
v 0.4378125 0.43720238095238095 0.01593749999999992
v 0.4378125 0.40593749999999995 0.01593749999999992
v 0.038762019230769246 1.7112462797619048 0.01593749999999997
v 0.062235576923076935 1.7190625000000002 0.01593749999999997
v 0.062235576923076935 1.7190625000000002 -0.015937499999999983
v 0.038762019230769246 1.7112462797619048 -0.01593749999999998
v 0.062235576923076935 0.40593749999999995 -0.015937499999999983
v 0.062235576923076935 0.40593749999999995 0.01593749999999997
v 0.062235576923076935 0.43720238095238095 -0.015937499999999983
v 0.062235576923076935 0.43720238095238095 0.01593749999999997
v 0.030937500000000007 1.6877976190476192 -0.01593749999999998
v 0.030937500000000007 1.6877976190476192 0.015937499999999973
v 0.062235576923076935 1.6877976190476192 0.01593749999999997
v 0.4378125 1.7190625000000002 0.01593749999999992
v 0.4378125 1.6877976190476192 0.01593749999999992
v 0.4378125 1.6877976190476192 -0.015937500000000028
v 0.4378125 1.7190625000000002 -0.015937500000000028
v 0.062235576923076935 1.6877976190476192 -0.015937499999999983
vt 0.8483072916666666 0.1640625
vt 0.8483072916666666 0.16585286458333337
vt 0.7632955293525403 0.16585286458333337
vt 0.7632955293525403 0.1640625
vt 0.8483072916666666 0.1640625
vt 0.8483072916666666 0.16585286458333337
vt 0.7632955293525403 0.16585286458333337
vt 0.7632955293525403 0.1640625
vt 0.8457539498141264 0.2392578125
vt 0.8392145834822705 0.2392578125
vt 0.8392145834822705 0.234375
vt 0.8457539498141264 0.234375
vt 0.8457539498141264 0.2392578125
vt 0.8392145834822705 0.2392578125
vt 0.8392145834822705 0.234375
vt 0.8457539498141264 0.234375
vt 0.7060546875 0.05078125
vt 0.7060546875 0.0546875
vt 0.7021484375 0.0546875
vt 0.7021484375 0.05078125
vt 0.7021484375 0.05078125
vt 0.7021484375 0.0546875
vt 0.7060546875 0.0546875
vt 0.7060546875 0.05078125
vt 0.7632955293525403 0.2392578125
vt 0.7632955293525403 0.23746744791666663
vt 0.8483072916666666 0.23746744791666663
vt 0.8483072916666666 0.2392578125
vt 0.7060546875 0.2109375
vt 0.7021484375 0.2109375
vt 0.7021484375 0.21484375
vt 0.7060546875 0.21484375
vt 0.7632955293525403 0.2392578125
vt 0.7632955293525403 0.23746744791666663
vt 0.8483072916666666 0.23746744791666663
vt 0.8483072916666666 0.2392578125
vt 0.7060546875 0.21484375
vt 0.7021484375 0.21484375
vt 0.7021484375 0.2109375
vt 0.7060546875 0.2109375
vt 0.7607421875 0.234375
vt 0.8392145834822705 0.234375
vt 0.8392145834822705 0.2392578125
vt 0.7607421875 0.2392578125
vt 0.6552734375 0.21484375
vt 0.7021484375 0.21484375
vt 0.7021484375 0.2109375
vt 0.6552734375 0.2109375
vt 0.6552734375 0.05078125
vt 0.6552734375 0.0546875
vt 0.7021484375 0.0546875
vt 0.7021484375 0.05078125
vt 0.7607421875 0.234375
vt 0.8392145834822705 0.234375
vt 0.8392145834822705 0.2392578125
vt 0.7607421875 0.2392578125
vt 0.7021484375 0.05078125
vt 0.7021484375 0.0546875
vt 0.6552734375 0.0546875
vt 0.6552734375 0.05078125
vt 0.6552734375 0.2109375
vt 0.7021484375 0.2109375
vt 0.7021484375 0.21484375
vt 0.6552734375 0.21484375
vt 0.7632955293525403 0.23746744791666663
vt 0.7632955293525403 0.16585286458333337
vt 0.8483072916666666 0.16585286458333337
vt 0.8483072916666666 0.23746744791666663
vt 0.7060546875 0.2109375
vt 0.7060546875 0.0546875
vt 0.7021484375 0.0546875
vt 0.7021484375 0.2109375
vt 0.7021484375 0.2109375
vt 0.7021484375 0.0546875
vt 0.6552734375 0.0546875
vt 0.6552734375 0.2109375
vt 0.7632955293525403 0.23746744791666663
vt 0.7632955293525403 0.16585286458333337
vt 0.8483072916666666 0.16585286458333337
vt 0.8483072916666666 0.23746744791666663
vt 0.6552734375 0.2109375
vt 0.6552734375 0.0546875
vt 0.7021484375 0.0546875
vt 0.7021484375 0.2109375
vt 0.7021484375 0.2109375
vt 0.7021484375 0.0546875
vt 0.7060546875 0.0546875
vt 0.7060546875 0.2109375
vn -0.9485825327166074 -0.31652990162849765 0
vn 1 0 0
vn -0.31592585476068463 0.9487838817632448 0
vn -0.31592585476068064 -0.9487838817632462 0
vn -1.1085176129129824e-16 -3.698981995419367e-17 -1
vn 1.1085176129129826e-16 0 1
vn -0.9485825327166072 0.31652990162849903 0
vn 1.1085176129129826e-16 0 1
vn 1 0 0
vn -1.478023483883977e-16 0 -1
vn 0 1 0
vn 1.2932705483984798e-16 0 1
vn 1.2932705483984798e-16 0 1
vn 0 -1 0
vn -1.2008940806557314e-16 0 -1
vn -1.2008940806557314e-16 0 -1
vn -1 0 0
vn 1.1085176129129826e-16 0 1
vn 1.29327054839848e-16 0 1
vn 1 0 0
vn -1.2008940806557314e-16 0 -1
vn -1.1085176129129826e-16 0 -1
usemtl m_0e1c25ad-fae4-2822-e841-3803d2d53e4a
f 25/89/23 26/90/23 27/91/23 28/92/23
f 29/93/24 30/94/24 31/95/24 32/96/24
f 33/97/25 34/98/25 35/99/25 36/100/25
f 28/101/26 37/102/26 38/103/26 25/104/26
f 28/105/27 27/106/27 39/107/27 37/108/27
f 38/109/28 40/110/28 26/111/28 25/112/28
f 36/113/29 41/114/29 42/115/29 33/116/29
f 42/117/30 43/118/30 34/119/30 33/120/30
f 44/121/31 45/122/31 46/123/31 47/124/31
f 36/125/32 35/126/32 48/127/32 41/128/32
f 47/129/33 35/130/33 34/131/33 44/132/33
f 44/133/34 34/134/34 43/135/34 45/136/34
f 32/137/35 31/138/35 40/139/35 38/140/35
f 32/141/36 38/142/36 37/143/36 29/144/36
f 37/145/37 39/146/37 30/147/37 29/148/37
f 46/149/38 48/150/38 35/151/38 47/152/38
f 41/153/39 27/154/39 26/155/39 42/156/39
f 42/157/40 26/158/40 40/159/40 43/160/40
f 43/161/41 40/162/41 31/163/41 45/164/41
f 45/165/42 31/166/42 30/167/42 46/168/42
f 46/169/43 30/170/43 39/171/43 48/172/43
f 48/173/44 39/174/44 27/175/44 41/176/44
o cube
v 0.5944334470241525 0.9212148289782844 0.8580848879274555
v 0.4089326597755008 0.8939617190425936 0.8563597998243061
v 0.4023436447963977 0.9541638009577914 0.6138061063568988
v 0.5878444320450493 0.9814169108934822 0.6155311944600482
v 0.5944334470241525 0.9212148289782844 0.8580848879274555
v 0.5878444320450493 0.9814169108934822 0.6155311944600482
v 0.4089326597755008 0.8939617190425936 0.8563597998243061
v 0.4023436447963977 0.9541638009577914 0.6138061063568988
vt 0 0.96875
vt 0.0234375 0.96875
vt 0.0234375 1
vt 0 1
vt 0 0.96875
vt 0 0.96875
vt 0 1
vt 0 1
vt 0.1728515625 0.0048828125
vt 0.2138671875 0.0048828125
vt 0.2138671875 0.0595703125
vt 0.1728515625 0.0595703125
vt 0.015625 0.96875
vt 0.015625 0.96875
vt 0.015625 1
vt 0.015625 1
vt 0 0.984375
vt 0.0234375 0.984375
vt 0.0234375 0.984375
vt 0 0.984375
vt 0 1
vt 0.0234375 1
vt 0.0234375 1
vt 0 1
vn 0.1432361891983327 -0.9596274017476323 -0.24207156776256897
vn 0 0 0
vn -0.14323618919833273 0.9596274017476323 0.24207156776256855
vn 0 0 0
vn 0 0 0
vn 0 0 0
usemtl m_0e1c25ad-fae4-2822-e841-3803d2d53e4a
f 49/177/45 50/178/45 51/179/45 52/180/45
f 53/181/46 49/182/46 52/183/46 54/184/46
f 55/185/47 53/186/47 54/187/47 56/188/47
f 50/189/48 55/190/48 56/191/48 51/192/48
f 56/193/49 54/194/49 52/195/49 51/196/49
f 50/197/50 49/198/50 53/199/50 55/200/50
o cube
v 0.4375 1.0625 0.5062499999999999
v 0.5625 1.0625 0.5062499999999999
v 0.5625 1.1873286918443218 0.4997080054696319
v 0.4375 1.1873286918443218 0.4997080054696319
vt 0.068359375 0
vt 0.099609375 0
vt 0.099609375 0.03125
vt 0.068359375 0.03125
vn 0 0.052335956242943724 0.9986295347545739
usemtl m_0e1c25ad-fae4-2822-e841-3803d2d53e4a
f 57/201/51 58/202/51 59/203/51 60/204/51
o cube
v -0.4374999999999979 1.0624999999999996 -0.5062500000000022
v -0.5624999999999979 1.0624999999999996 -0.5062500000000026
v -0.5624999999999979 1.1873286918443213 -0.4997080054696347
v -0.4374999999999979 1.1873286918443213 -0.4997080054696342
vt 0.1025390625 0
vt 0.1337890625 0
vt 0.1337890625 0.03125
vt 0.1025390625 0.03125
vn 3.547844808176755e-15 0.052335956242943724 -0.9986295347545739
usemtl m_0e1c25ad-fae4-2822-e841-3803d2d53e4a
f 61/205/52 62/206/52 63/207/52 64/208/52