# Made in Blockbench 5.1.6
mtllib nyc_subway_entrance_2_roof_5_light_layer.mtl

o cube
v -0.296875 -0.0006250000000000006 0.328125
v -0.296875 -0.0006250000000000006 -0.484375
v -0.296875 -0.0006250000000000006 0.328125
v -0.296875 -0.0006250000000000006 -0.484375
v -0.484375 -0.0006250000000000006 -0.484375
v -0.484375 -0.0006250000000000006 0.328125
v -0.484375 -0.0006250000000000006 -0.484375
v -0.484375 -0.0006250000000000006 0.328125
vt 0.1875 0.828125
vt 0 0.828125
vt 0 0.015625
vt 0.1875 0.015625
vn 0 -1 0
usemtl m_29c6f511-170d-cb3c-366d-ef73eb7732c6
f 7/4/1 4/3/1 3/2/1 8/1/1
o cube
v 0.12656250000000002 0.46875 0.5015624999999999
v 0.12656250000000002 0.46875 -0.5015624999999999
v 0.12656250000000002 0.453125 0.5015624999999999
v 0.12656250000000002 0.453125 -0.5015624999999999
v -0.5 0.46875 -0.5015624999999999
v -0.5 0.46875 0.5015624999999999
v -0.5 0.453125 -0.5015624999999999
v -0.5 0.453125 0.5015624999999999
vt 0.6890625 0.96875
vt 0.0625 0.96875
vt 0.0625 0.953125
vt 0.6890625 0.953125
vt 1 0.96875
vt 0 0.96875
vt 0 0.953125
vt 1 0.953125
vt 0.6390625 0.96875
vt 0.012499999999999956 0.96875
vt 0.012499999999999956 0.953125
vt 0.6390625 0.953125
vt 1 0.96875
vt 0 0.96875
vt 0 0.953125
vt 1 0.953125
vt 0.6390625 1
vt 0.012499999999999956 1
vt 0.012499999999999956 0
vt 0.6390625 0
vt 0.6390625 1
vt 0.012499999999999956 1
vt 0.012499999999999956 0
vt 0.6390625 0
vn 0 0 -1
vn 1 0 0
vn 0 0 1
vn -1 0 0
vn 0 1 0
vn 0 -1 0
usemtl m_29c6f511-170d-cb3c-366d-ef73eb7732c6
f 12/8/2 15/7/2 13/6/2 10/5/2
f 11/12/3 12/11/3 10/10/3 9/9/3
f 16/16/4 11/15/4 9/14/4 14/13/4
f 15/20/5 16/19/5 14/18/5 13/17/5
f 14/24/6 9/23/6 10/22/6 13/21/6
f 15/28/7 12/27/7 11/26/7 16/25/7