# Made in Blockbench 5.1.6
mtllib nyc_subway_fare_gate_7_exit_open.mtl

o right
v -0.5 0.84375 0.5
v -0.5 1.1875 0.5
v -0.5 1.1875 -0.5
v -0.5 0.84375 -0.5
v -0.390625 1 -0.5
v -0.390625 1.1875 -0.5
v -0.390625 1.1875 0.5
v -0.390625 1 0.5
vt 0.390625 0.83203125
vt 0.390625 0.875
vt 0.265625 0.875
vt 0.265625 0.83203125
vt 0.390625 0.9765625
vt 0.390625 1
vt 0.265625 1
vt 0.265625 0.9765625
vt 0.537109375 0.875
vt 0.537109375 1
vt 0.5234375 1
vt 0.5234375 0.875
vt 0.265625 0.9527218749999999
vt 0.390625 0.9527218749999999
vt 0.390625 0.9765625
vt 0.265625 0.9765625
vt 0.513671875 0.80078125
vt 0.513671875 0.84375
vt 0.5 0.84375
vt 0.5 0.8203125
vt 0.115234375 0.3984375
vt 0.115234375 0.421875
vt 0.1015625 0.421875
vt 0.1015625 0.37890625
vn -1 0 0
vn 1 0 0
vn 0 1 0
vn 0.8192319205190405 -0.5734623443633283 0
vn 0 0 -1
vn 0 0 1
usemtl m_a412791d-ea2d-7bc4-a074-0bc570f883e4
f 1/1/1 2/2/1 3/3/1 4/4/1
f 5/5/2 6/6/2 7/7/2 8/8/2
f 3/9/3 2/10/3 7/11/3 6/12/3
f 1/13/4 4/14/4 5/15/4 8/16/4
f 4/17/5 3/18/5 6/19/5 5/20/5
f 8/21/6 7/22/6 2/23/6 1/24/6
o right
v -0.5 0.1875 0.5
v -0.5 1 0.5
v -0.5 1 0.265625
v -0.5 0.1875 0.265625
v -0.390625 0.1875 0.3125
v -0.390625 1 0.3125
v -0.390625 1 0.5
v -0.390625 0.1875 0.5
vt 0.451171875 0.5625
vt 0.451171875 0.6640625
vt 0.421875 0.6640625
vt 0.421875 0.5625
vt 0.484375 0.5
vt 0.484375 0.6015625
vt 0.4609375 0.6015625
vt 0.4609375 0.5
vt 0.279296875 0.642578125
vt 0.279296875 0.671875
vt 0.265625 0.671875
vt 0.265625 0.6484375
vt 0.623046875 0.798828125
vt 0.623046875 0.828125
vt 0.609375 0.822265625
vt 0.609375 0.798828125
vt 0.0615234375 0.3515625
vt 0.0615234375 0.453125
vt 0.046875 0.453125
vt 0.046875 0.3515625
vt 0.451171875 0.34375
vt 0.451171875 0.4453125
vt 0.4375 0.4453125
vt 0.4375 0.34375
vn -1 0 0
vn 1 0 0
vn 0 1 0
vn 0 -1 0
vn 0.39391929857916774 0 -0.919145030018058
vn 0 0 1
usemtl m_a412791d-ea2d-7bc4-a074-0bc570f883e4
f 9/25/7 10/26/7 11/27/7 12/28/7
f 13/29/8 14/30/8 15/31/8 16/32/8
f 11/33/9 10/34/9 15/35/9 14/36/9
f 9/37/10 12/38/10 13/39/10 16/40/10
f 12/41/11 11/42/11 14/43/11 13/44/11
f 16/45/12 15/46/12 10/47/12 9/48/12
o right
v -0.5 0.1875 -0.265625
v -0.5 1 -0.265625
v -0.5 1 -0.5
v -0.5 0.1875 -0.5
v -0.390625 0.1875 -0.5
v -0.390625 1 -0.5
v -0.390625 1 -0.3125
v -0.390625 0.1875 -0.3125
vt 0.458984375 0.8984375
vt 0.458984375 1
vt 0.4296875 1
vt 0.4296875 0.8984375
vt 0.4921875 0.8984375
vt 0.4921875 1
vt 0.46875 1
vt 0.46875 0.8984375
vt 0.623046875 0.697265625
vt 0.623046875 0.7265625
vt 0.609375 0.720703125
vt 0.609375 0.697265625
vt 0.623046875 0.572265625
vt 0.623046875 0.6015625
vt 0.609375 0.6015625
vt 0.609375 0.578125
vt 0.365234375 0.3359375
vt 0.365234375 0.4375
vt 0.3515625 0.4375
vt 0.3515625 0.3359375
vt 0.5615234375 0.765625
vt 0.5615234375 0.8671875
vt 0.546875 0.8671875
vt 0.546875 0.765625
vn -1 0 0
vn 1 0 0
vn 0 1 0
vn 0 -1 0
vn 0 0 -1
vn 0.39391929857916774 0 0.919145030018058
usemtl m_a412791d-ea2d-7bc4-a074-0bc570f883e4
f 17/49/13 18/50/13 19/51/13 20/52/13
f 21/53/14 22/54/14 23/55/14 24/56/14
f 19/57/15 18/58/15 23/59/15 22/60/15
f 17/61/16 20/62/16 21/63/16 24/64/16
f 20/65/17 19/66/17 22/67/17 21/68/17
f 24/69/18 23/70/18 18/71/18 17/72/18
o right
v -0.5 0 0.5
v -0.5 0.234375 0.5
v -0.5 0.234375 -0.5
v -0.5 0 -0.5
v -0.390625 0 -0.5
v -0.390625 0.1875 -0.5
v -0.390625 0.1875 0.5
v -0.390625 0 0.5
vt 0.390625 0.603515625
vt 0.390625 0.6328125
vt 0.265625 0.6328125
vt 0.265625 0.603515625
vt 0.5859375 0.640625
vt 0.5859375 0.6640625
vt 0.4609375 0.6640625
vt 0.4609375 0.640625
vt 0.6015625 0.7265625
vt 0.4765625 0.7265625
vt 0.4765625 0.7119140625
vt 0.6015625 0.7119140625
vt 0.537109375 0.7421875
vt 0.537109375 0.8671875
vt 0.5234375 0.8671875
vt 0.5234375 0.7421875
vt 0.623046875 0.533203125
vt 0.623046875 0.5625
vt 0.609375 0.556640625
vt 0.609375 0.533203125
vt 0.623046875 0.494140625
vt 0.623046875 0.517578125
vt 0.609375 0.5234375
vt 0.609375 0.494140625
vn -1 0 0
vn 1 0 0
vn 0.39391929857916774 0.919145030018058 0
vn 0 -1 0
vn 0 0 -1
vn 0 0 1
usemtl m_a412791d-ea2d-7bc4-a074-0bc570f883e4
f 25/73/19 26/74/19 27/75/19 28/76/19
f 29/77/20 30/78/20 31/79/20 32/80/20
f 27/81/21 26/82/21 31/83/21 30/84/21
f 25/85/22 28/86/22 29/87/22 32/88/22
f 28/89/23 27/90/23 30/91/23 29/92/23
f 32/93/24 31/94/24 26/95/24 25/96/24
o turnstile
v -0.4116112737852331 0.9816942527016707 0.025120323461725935
v -0.4116115862252681 0.9816939402616356 -0.025120441856934926
v -0.4779027632434519 0.9154027632434519 0
v -0.3784656434171137 0.9485486223335513 0.025120323461726005
v -0.3784659558571487 0.9485483098935162 -0.025120441856934975
v -0.35636882708604156 0.8601600041042253 -0.012560220928467442
v -0.3563686708660241 0.8601601603242428 0.012560161730862999
v -0.38951441559513345 0.8270144155951334 -2.7041662777268865e-17
v -0.4293743372906541 0.9639311891962498 0.0686298816047911
v -0.3962287069225347 0.9307855588281302 0.06862988160479104
v -0.36525020261873453 0.8512786285715324 0.034314940802395576
v -0.46013992846001084 0.933165598026893 0.0937498816047911
v -0.4269942980918914 0.9000199676587736 0.09374988160479104
v -0.3806329982034129 0.835895832986854 0.046874940802395584
v -0.4956655143088379 0.8976400121780659 0.09375032346172596
v -0.4625198839407184 0.8644943818099465 0.09375032346172602
v -0.3983957911278264 0.8181330400624405 0.046875161730863
v -0.5264314179182296 0.8668741085686742 0.06862955814306508
v -0.4932857875501101 0.8337284782005547 0.06862955814306504
v -0.41377874293252226 0.8027500882577446 0.03431477907153257
v -0.5441939402616356 0.8491115862252682 0.025120441856934857
v -0.5110483098935162 0.8159659558571488 0.025120441856934905
v -0.4226600041042253 0.7938688270860416 0.012560220928467414
v -0.5441942527016705 0.8491112737852331 -0.025120323461725998
v -0.5110486223335512 0.8159656434171138 -0.02512032346172603
v -0.4226601603242428 0.7938686708660241 -0.012560161730863014
v -0.5264311891962496 0.8668743372906541 -0.06862988160479115
v -0.49328555882813024 0.8337287069225348 -0.06862988160479112
v -0.41377862857153236 0.8027502026187346 -0.03431494080239554
v -0.4956655980268929 0.8976399284600108 -0.09374988160479117
v -0.4625199676587735 0.8644942980918914 -0.09374988160479113
v -0.398395832986854 0.818132998203413 -0.04687494080239555
v -0.4601400121780658 0.9331655143088379 -0.09375032346172602
v -0.4269943818099464 0.9000198839407184 -0.09375032346172604
v -0.3806330400624404 0.8358957911278264 -0.04687516173086302
v -0.4293741085686742 0.9639314179182296 -0.06862955814306516
v -0.3962284782005548 0.9307857875501102 -0.06862955814306511
v -0.3652500882577446 0.8512787429325223 -0.03431477907153259
vt 0.55001484375 0.75467265625
vt 0.546875 0.749234375
vt 0.55859375 0.74609375
vt 0.5814004673078857 0.84375
vt 0.5772573674059333 0.839606176758837
vt 0.5816986646340192 0.8351660274450338
vt 0.5858417086281855 0.8393090714392001
vt 0.01171875 0.6832109375
vt 0.0101484375 0.6859304687500001
vt 0.005859375 0.681640625
vt 0.55545390625 0.7578125
vt 0.55001484375 0.75467265625
vt 0.55859375 0.74609375
vt 0.6253297273858789 0.8576763739331242
vt 0.6237451450063375 0.8520355152510859
vt 0.6297913247803172 0.8503370734936465
vt 0.6313759071598587 0.855977932175685
vt 0.0101484375 0.6859304687500001
vt 0.0074296875000000005 0.6875
vt 0.005859375 0.681640625
vt 0.56173359375 0.7578125
vt 0.55545390625 0.7578125
vt 0.55859375 0.74609375
vt 0.61588116194062 0.857676698615286
vt 0.6174657924936625 0.8520356684433236
vt 0.6235114725632936 0.8537339698280377
vt 0.6219268420102511 0.859375
vt 0.0074296875000000005 0.6875
vt 0.0042890624999999995 0.6875
vt 0.005859375 0.681640625
vt 0.56717265625 0.75467265625
vt 0.56173359375 0.7578125
vt 0.55859375 0.74609375
vt 0.6098350303401413 0.8559780853679226
vt 0.6114196127196828 0.8503372266858843
vt 0.6174657924936625 0.8520356684433236
vt 0.6158812101141211 0.857676527125362
vt 0.0042890624999999995 0.6875
vt 0.0015703124999999997 0.6859304687500001
vt 0.005859375 0.681640625
vt 0.5703125 0.749234375
vt 0.56717265625 0.75467265625
vt 0.55859375 0.74609375
vt 0.5791972337604753 0.8002465714392001
vt 0.5833402777546416 0.7961035274450338
vt 0.5877815749827275 0.800543676758837
vt 0.5836384750807749 0.8046875
vt 0.0015703124999999997 0.6859304687500001
vt 0 0.6832109375
vt 0.005859375 0.681640625
vt 0.5703125 0.74295390625
vt 0.5703125 0.749234375
vt 0.55859375 0.74609375
vt 0.5747566840046416 0.7958058711950338
vt 0.5788996527546416 0.7916629024450338
vt 0.5833402777546416 0.7961035274450338
vt 0.5791973090046416 0.8002464961950337
vt 0 0.6832109375
vt 0 0.6800710937500001
vt 0.005859375 0.681640625
vt 0.56717265625 0.737515625
vt 0.5703125 0.74295390625
vt 0.55859375 0.74609375
vt 0.5703166095779274 0.7913646109651029
vt 0.5744600151894657 0.7872219286198744
vt 0.5789001455919839 0.7916624096076914
vt 0.5747566840046416 0.7958058711950338
vt 0 0.6800710937500001
vt 0.0015703124999999997 0.6773515625
vt 0.005859375 0.681640625
vt 0.56173359375 0.734375
vt 0.56717265625 0.737515625
vt 0.55859375 0.74609375
vt 0.609705160030476 0.6301833633668374
vt 0.6081201014018123 0.6245426384903716
vt 0.6141661377556865 0.6228436862631663
vt 0.6157511963843504 0.6284844111396322
vt 0.0015703124999999997 0.6773515625
vt 0.0042890624999999995 0.67578125
vt 0.005859375 0.681640625
vt 0.55545390625 0.734375
vt 0.56173359375 0.734375
vt 0.55859375 0.74609375
vt 0.6002557292815442 0.6301837112138604
vt 0.6018408360981877 0.6245428148515386
vt 0.6078863727595668 0.6262416266638294
vt 0.6063012659429232 0.6318825230261512
vt 0.0042890624999999995 0.67578125
vt 0.0074296875000000005 0.67578125
vt 0.005859375 0.681640625
vt 0.55001484375 0.737515625
vt 0.55545390625 0.734375
vt 0.55859375 0.74609375
vt 0.5942097411156496 0.6284845875007992
vt 0.5957947997443135 0.6228438626243333
vt 0.6018408360981877 0.6245428148515386
vt 0.600255777469524 0.6301835397280044
vt 0.0074296875000000005 0.67578125
vt 0.0101484375 0.6773515625
vt 0.005859375 0.681640625
vt 0.546875 0.74295390625
vt 0.55001484375 0.737515625
vt 0.55859375 0.74609375
vt 0.5902828264655278 0.8348689392765424
vt 0.5861393648781855 0.8307254776892001
vt 0.5905794952807036 0.826284996701383
vt 0.594722900892242 0.8304276790466116
vt 0.0101484375 0.6773515625
vt 0.01171875 0.6800710937500001
vt 0.005859375 0.681640625
vt 0.546875 0.749234375
vt 0.546875 0.74295390625
vt 0.55859375 0.74609375
vt 0.5858417086281855 0.8393090714392001
vt 0.5816987398781854 0.8351661026892001
vt 0.5861393648781855 0.8307254776892001
vt 0.5902823336281855 0.8348684464392001
vt 0.01171875 0.6800710937500001
vt 0.01171875 0.6832109375
vt 0.005859375 0.681640625
vt 0.5725370338854986 0.8282211922783083
vt 0.581698336775189 0.8351663552191243
vt 0.5772573674059333 0.839606176758837
vt 0.570316161607758 0.8304411516225365
vt 0.6251993125597025 0.8397978558596835
vt 0.6297913247803172 0.8503370734936465
vt 0.623745447181945 0.8520354303664663
vt 0.6221759487436626 0.8406473871933235
vt 0.6221759487436626 0.8406473871933235
vt 0.6237454799936625 0.8520356684433236
vt 0.6174657924936625 0.8520356684433236
vt 0.6190353237436625 0.8406473871933235
vt 0.619035290931945 0.8406476252701809
vt 0.6174657924936625 0.8520356684433236
vt 0.6114199148952904 0.8503373115705039
vt 0.616011927115905 0.8397980939365408
vt 0.5947224529220726 0.791378323848446
vt 0.5877812471238973 0.8005433489847464
vt 0.5833402777546416 0.7961035274450338
vt 0.592501580644332 0.7891583645042177
vt 0.5925017931968368 0.789158203368646
vt 0.5833402777546416 0.7961035274450338
vt 0.5802650872284036 0.7906278244338585
vt 0.5909638148772871 0.7864202753407642
vt 0.5858432587461062 0.7824995940162363
vt 0.5789006015645113 0.7916628656162217
vt 0.5744600151894657 0.7872219286198744
vt 0.5836232802522323 0.7802786714875696
vt 0.6095736614423952 0.6123046875
vt 0.6141661377556865 0.6228436862631663
vt 0.6081204844598298 0.6245425308500543
vt 0.6065509923481878 0.6131537523515387
vt 0.6065509923481878 0.6131537523515387
vt 0.6081205235981878 0.6245428148515386
vt 0.6018408360981877 0.6245428148515386
vt 0.6034103673481878 0.6131537523515387
vt 0.6034103282098298 0.613154036353023
vt 0.6018408360981877 0.6245428148515386
vt 0.595795182802331 0.6228439702646508
vt 0.6003876591156223 0.6123049715014844
vt 0.5814166861904644 0.819341283560548
vt 0.590579951253231 0.8262845406928528
vt 0.5861393648781855 0.8307254776892001
vt 0.5791967076965905 0.8215622060892147
vt 0.5791967022461115 0.8215621988953956
vt 0.5861393648781855 0.8307254776892001
vt 0.5806626214289543 0.8337988148705977
vt 0.576457963651634 0.8230987333429058
vn -0.7071067811865471 0.7071067811865479 -3.905666667976723e-21
vn 0.7071067811592004 0.7071067811592012 -0.00000879478909454961
vn 0.7071067811865475 -0.7071067811865476 1.1049025801828518e-15
vn -0.707106781186547 0.707106781186548 -6.066311434873955e-16
vn 0.6123693262446086 0.6123693262446065 0.5000076164914399
vn 0.7071067811865478 -0.7071067811865472 -4.0442076232493065e-16
vn -0.7071067811865475 0.7071067811865476 0
vn 0.35355339059327484 0.3535533905932728 0.8660254037844386
vn 0.7071067811865475 -0.7071067811865476 0
vn -0.707106781186548 0.707106781186547 2.2204488533663847e-16
vn 0.000006218855007414791 0.000006218855009089566 0.9999999999613258
vn 0.707106781186547 -0.707106781186548 1.480299235577592e-16
vn -0.7071067811865476 0.7071067811865475 3.845901638174252e-16
vn -0.35355877626601917 -0.35355877626602 0.8660210063563987
vn 0.7071067811865481 -0.7071067811865469 5.524518943001616e-16
vn -0.7071067811865477 0.7071067811865474 2.220446049250314e-16
vn -0.6123724356957945 -0.6123724356957944 0.5000000000000004
vn 0.7071067811865482 -0.7071067811865468 6.608288062170421e-16
vn -0.7071067811865478 0.7071067811865472 -1.3810859138396638e-16
vn -0.7071067811592011 -0.7071067811592006 0.000008794789094273394
vn 0.7071067811865481 -0.7071067811865469 -7.811333335953445e-21
vn -0.7071067811865476 0.7071067811865475 -1.087734589867394e-15
vn -0.6123693262446075 -0.6123693262446083 -0.5000076164914391
vn 0.7071067811865487 -0.7071067811865464 -2.8706200629157385e-15
vn -0.7071067811865478 0.7071067811865472 -8.332838307662104e-16
vn -0.3535533905932732 -0.35355339059327445 -0.8660254037844386
vn 0.7071067811865471 -0.7071067811865479 -7.691850745534262e-16
vn -0.707106781186548 0.707106781186547 -7.40147350328297e-16
vn -0.000006218855007889586 -0.0000062188550070521965 -0.9999999999613258
vn 0.7071067811865451 -0.7071067811865499 2.0930404585336204e-21
vn -0.7071067811865474 0.7071067811865477 -4.856958309230641e-16
vn 0.3535587762660197 0.35355877626601867 -0.8660210063563989
vn 0.7071067811865471 -0.7071067811865479 7.691803276348504e-16
vn -0.7071067811865472 0.7071067811865478 -2.220446049250313e-16
vn 0.6123724356957944 0.6123724356957947 -0.5000000000000002
vn 0.7071067811865475 -0.7071067811865476 1.2529477526837931e-15
vn 0.9701426171439231 0.2425351569242405 -0.000007541467248051476
vn 0.8889059432724233 0.16129848305274042 0.4287528698211222
vn 0.6669729688499153 -0.06063390625908244 0.7426106572325062
vn 0.3638090627324727 -0.36379839748720905 0.8574926774378067
vn 0.06062966840613321 -0.6669777918135495 0.7426066714866517
vn -0.16130159395600452 -0.8889084690650033 0.4287464628562718
vn -0.24253515692424077 -0.9701426171439229 0.000007541467249093666
vn -0.16129848305274078 -0.8889059432724236 -0.42875286982112193
vn 0.06063390625908377 -0.666972968849916 -0.7426106572325054
vn 0.36379839748721027 -0.36380906273247315 -0.857492677437806
vn 0.66697779181355 -0.060629668406132764 -0.7426066714866513
vn 0.8889084690650028 0.16130159395600416 -0.4287464628562732
usemtl m_a412791d-ea2d-7bc4-a074-0bc570f883e4
f 33/97/25 34/98/25 35/99/25
f 33/100/26 36/101/26 37/102/26 34/103/26
f 38/104/27 39/105/27 40/106/27
f 41/107/28 33/108/28 35/109/28
f 41/110/29 42/111/29 36/112/29 33/113/29
f 39/114/30 43/115/30 40/116/30
f 44/117/31 41/118/31 35/119/31
f 44/120/32 45/121/32 42/122/32 41/123/32
f 43/124/33 46/125/33 40/126/33
f 47/127/34 44/128/34 35/129/34
f 47/130/35 48/131/35 45/132/35 44/133/35
f 46/134/36 49/135/36 40/136/36
f 50/137/37 47/138/37 35/139/37
f 50/140/38 51/141/38 48/142/38 47/143/38
f 49/144/39 52/145/39 40/146/39
f 53/147/40 50/148/40 35/149/40
f 53/150/41 54/151/41 51/152/41 50/153/41
f 52/154/42 55/155/42 40/156/42
f 56/157/43 53/158/43 35/159/43
f 56/160/44 57/161/44 54/162/44 53/163/44
f 55/164/45 58/165/45 40/166/45
f 59/167/46 56/168/46 35/169/46
f 59/170/47 60/171/47 57/172/47 56/173/47
f 58/174/48 61/175/48 40/176/48
f 62/177/49 59/178/49 35/179/49
f 62/180/50 63/181/50 60/182/50 59/183/50
f 61/184/51 64/185/51 40/186/51
f 65/187/52 62/188/52 35/189/52
f 65/190/53 66/191/53 63/192/53 62/193/53
f 64/194/54 67/195/54 40/196/54
f 68/197/55 65/198/55 35/199/55
f 68/200/56 69/201/56 66/202/56 65/203/56
f 67/204/57 70/205/57 40/206/57
f 34/207/58 68/208/58 35/209/58
f 34/210/59 37/211/59 69/212/59 68/213/59
f 70/214/60 38/215/60 40/216/60
f 38/217/61 37/218/61 36/219/61 39/220/61
f 39/221/62 36/222/62 42/223/62 43/224/62
f 43/225/63 42/226/63 45/227/63 46/228/63
f 46/229/64 45/230/64 48/231/64 49/232/64
f 49/233/65 48/234/65 51/235/65 52/236/65
f 52/237/66 51/238/66 54/239/66 55/240/66
f 55/241/67 54/242/67 57/243/67 58/244/67
f 58/245/68 57/246/68 60/247/68 61/248/68
f 61/249/69 60/250/69 63/251/69 64/252/69
f 64/253/70 63/254/70 66/255/70 67/256/70
f 67/257/71 66/258/71 69/259/71 70/260/71
f 70/261/72 69/262/72 37/263/72 38/264/72
o turnstile
v 0.1279315114148583 0.7128671364148582 0.44818420056860764
v 0.12943304486549362 0.7288724198654936 0.4528793347828306
v 0.10820312500000001 0.7160156249999999 0.4736318057334659
v -0.38769348858514174 0.8847421364148583 0.027178151027749054
v -0.3861919551345064 0.9007474198654936 0.03187328524197192
v -0.40742187499999993 0.8878906249999999 0.052625756192607266
v 0.1211430959506355 0.6977055959506352 0.4503086046179723
v -0.3944819040493647 0.8695805959506353 0.029302555077113664
v 0.11088815404936475 0.6874506540493646 0.45868172961797227
v -0.40473684595063536 0.8593256540493647 0.037675680077113666
v 0.09991317608514177 0.6848488010851418 0.47106107556860766
v -0.4157118239148583 0.8567238010851418 0.05005502602774907
v 0.09115976763450645 0.6905991426345064 0.4841293347828306
v -0.42446523236549355 0.8624741426345064 0.06312328524197194
v 0.08697320513450651 0.7031588301345063 0.49438427668410123
v -0.42865179486549354 0.8750338301345064 0.07337822714324267
v 0.08847473858514193 0.7191641135851418 0.49907941089832414
v -0.4271502614148582 0.8910391135851418 0.07807336135746551
v 0.09526315404936486 0.7343256540493645 0.49695500684895955
v -0.4203618459506353 0.9062006540493647 0.07594895730810085
v 0.1055180959506355 0.7445805959506351 0.48858188184895956
v -0.4101069040493646 0.9164555959506353 0.06757583230810085
v 0.11649307391485836 0.7471824489148582 0.4762025358983242
v -0.3991319260851417 0.9190574489148582 0.05519648635746549
v 0.12524648236549368 0.7414321073654935 0.46313427668410123
v -0.3903785176345064 0.9133071073654936 0.04212822714324266
vt 0.030203125 0.680734375
vt 0.03125 0.682546875
vt 0.02734375 0.68359375
vt 0.3984375 0.7770625
vt 0.3984375 0.77496875
vt 0.484375 0.77496875
vt 0.484375 0.7770625
vt 0 0.659109375
vt 0.001046875 0.657296875
vt 0.00390625 0.66015625
vt 0.028390625 0.6796875
vt 0.030203125 0.680734375
vt 0.02734375 0.68359375
vt 0.12527734375 0.3359375
vt 0.12737109375 0.3359375
vt 0.12737109375 0.421875
vt 0.12527734375 0.421875
vt 0.001046875 0.657296875
vt 0.002859375 0.65625
vt 0.00390625 0.66015625
vt 0.026296875 0.6796875
vt 0.028390625 0.6796875
vt 0.02734375 0.68359375
vt 0.12737109375 0.3359375
vt 0.12946484375 0.3359375
vt 0.12946484375 0.421875
vt 0.12737109375 0.421875
vt 0.002859375 0.65625
vt 0.004953125 0.65625
vt 0.00390625 0.66015625
vt 0.024484375 0.680734375
vt 0.026296875 0.6796875
vt 0.02734375 0.68359375
vt 0.12946484375 0.3359375
vt 0.13155859375 0.3359375
vt 0.13155859375 0.421875
vt 0.12946484375 0.421875
vt 0.004953125 0.65625
vt 0.006765625 0.657296875
vt 0.00390625 0.66015625
vt 0.0234375 0.682546875
vt 0.024484375 0.680734375
vt 0.02734375 0.68359375
vt 0.46875 0.72028125
vt 0.46875 0.722375
vt 0.3828125 0.722375
vt 0.3828125 0.72028125
vt 0.006765625 0.657296875
vt 0.0078125 0.659109375
vt 0.00390625 0.66015625
vt 0.0234375 0.684640625
vt 0.0234375 0.682546875
vt 0.02734375 0.68359375
vt 0.46875 0.722375
vt 0.46875 0.72446875
vt 0.3828125 0.72446875
vt 0.3828125 0.722375
vt 0.0078125 0.659109375
vt 0.0078125 0.661203125
vt 0.00390625 0.66015625
vt 0.024484375 0.686453125
vt 0.0234375 0.684640625
vt 0.02734375 0.68359375
vt 0.46875 0.72446875
vt 0.46875 0.7265625
vt 0.3828125 0.7265625
vt 0.3828125 0.72446875
vt 0.0078125 0.661203125
vt 0.006765625 0.663015625
vt 0.00390625 0.66015625
vt 0.026296875 0.6875
vt 0.024484375 0.686453125
vt 0.02734375 0.68359375
vt 0.37527734375 0.3515625
vt 0.37737109375 0.3515625
vt 0.37737109375 0.4375
vt 0.37527734375 0.4375
vt 0.006765625 0.663015625
vt 0.004953125 0.6640625
vt 0.00390625 0.66015625
vt 0.028390625 0.6875
vt 0.026296875 0.6875
vt 0.02734375 0.68359375
vt 0.37737109375 0.3515625
vt 0.37946484375 0.3515625
vt 0.37946484375 0.4375
vt 0.37737109375 0.4375
vt 0.004953125 0.6640625
vt 0.002859375 0.6640625
vt 0.00390625 0.66015625
vt 0.030203125 0.686453125
vt 0.028390625 0.6875
vt 0.02734375 0.68359375
vt 0.37946484375 0.3515625
vt 0.38155859375 0.3515625
vt 0.38155859375 0.4375
vt 0.37946484375 0.4375
vt 0.002859375 0.6640625
vt 0.001046875 0.663015625
vt 0.00390625 0.66015625
vt 0.03125 0.684640625
vt 0.030203125 0.686453125
vt 0.02734375 0.68359375
vt 0.3984375 0.78125
vt 0.3984375 0.77915625
vt 0.484375 0.77915625
vt 0.484375 0.78125
vt 0.001046875 0.663015625
vt 0 0.661203125
vt 0.00390625 0.66015625
vt 0.03125 0.682546875
vt 0.03125 0.684640625
vt 0.02734375 0.68359375
vt 0.3984375 0.77915625
vt 0.3984375 0.7770625
vt 0.484375 0.7770625
vt 0.484375 0.77915625
vt 0 0.661203125
vt 0 0.659109375
vt 0.00390625 0.66015625
vn 0.7499999999999999 -0.2500000000000002 0.6123724356957947
vn 0.6553329560126678 0.15536067586768096 -0.7391899466021141
vn -0.7500000000000004 0.2500000000000021 -0.6123724356957932
vn 0.7499999999999997 -0.25000000000000067 0.6123724356957946
vn 0.522679594787443 -0.3433618124712487 -0.780326026048916
vn -0.7500000000000007 0.250000000000001 -0.6123724356957932
vn 0.7500000000000004 -0.24999999999999978 0.6123724356957942
vn 0.24999999999999944 -0.7500000000000004 -0.6123724356957944
vn -0.7500000000000007 0.25000000000000117 -0.6123724356957935
vn 0.7499999999999994 -0.2500000000000002 0.612372435695795
vn -0.08965889115809983 -0.9557002984167897 -0.28035374590391904
vn -0.7499999999999999 0.25000000000000144 -0.6123724356957939
vn 0.7500000000000004 -0.25000000000000033 0.612372435695794
vn -0.40534681594017097 -0.905319096085164 0.12685146065657688
vn -0.7500000000000014 0.25000000000000183 -0.6123724356957921
vn 0.7500000000000002 -0.2500000000000001 0.6123724356957945
vn -0.6123724356957946 -0.6123724356957945 0.5
vn -0.75 0.24999999999999972 -0.6123724356957946
vn 0.7500000000000002 -0.2500000000000021 0.6123724356957935
vn -0.6553329560126671 -0.15536067586767224 0.7391899466021166
vn -0.7500000000000002 0.25000000000000006 -0.6123724356957945
vn 0.7499999999999988 -0.25000000000000794 0.6123724356957929
vn -0.5226795947874414 0.3433618124712522 0.7803260260489154
vn -0.7500000000000002 0.2500000000000003 -0.6123724356957945
vn 0.7500000000000018 -0.25000000000000355 0.6123724356957911
vn -0.24999999999999944 0.7500000000000004 0.6123724356957944
vn -0.7500000000000002 0.2500000000000002 -0.6123724356957945
vn 0.7500000000000036 -0.2500000000000024 0.6123724356957894
vn 0.08965889115809034 0.9557002984167875 0.28035374590392953
vn -0.7500000000000004 0.25 -0.6123724356957942
vn 0.7500000000000011 -0.250000000000002 0.6123724356957924
vn 0.4053468159401743 0.9053190960851618 -0.1268514606565816
vn -0.7500000000000002 0.25 -0.6123724356957944
vn 0.7499999999999999 -0.2500000000000002 0.6123724356957946
vn 0.6123724356957945 0.6123724356957946 -0.5000000000000001
vn -0.7500000000000002 0.24999999999999978 -0.6123724356957946
usemtl m_a412791d-ea2d-7bc4-a074-0bc570f883e4
f 71/265/73 72/266/73 73/267/73
f 72/268/74 71/269/74 74/270/74 75/271/74
f 75/272/75 74/273/75 76/274/75
f 77/275/76 71/276/76 73/277/76
f 71/278/77 77/279/77 78/280/77 74/281/77
f 74/282/78 78/283/78 76/284/78
f 79/285/79 77/286/79 73/287/79
f 77/288/80 79/289/80 80/290/80 78/291/80
f 78/292/81 80/293/81 76/294/81
f 81/295/82 79/296/82 73/297/82
f 79/298/83 81/299/83 82/300/83 80/301/83
f 80/302/84 82/303/84 76/304/84
f 83/305/85 81/306/85 73/307/85
f 81/308/86 83/309/86 84/310/86 82/311/86
f 82/312/87 84/313/87 76/314/87
f 85/315/88 83/316/88 73/317/88
f 83/318/89 85/319/89 86/320/89 84/321/89
f 84/322/90 86/323/90 76/324/90
f 87/325/91 85/326/91 73/327/91
f 85/328/92 87/329/92 88/330/92 86/331/92
f 86/332/93 88/333/93 76/334/93
f 89/335/94 87/336/94 73/337/94
f 87/338/95 89/339/95 90/340/95 88/341/95
f 88/342/96 90/343/96 76/344/96
f 91/345/97 89/346/97 73/347/97
f 89/348/98 91/349/98 92/350/98 90/351/98
f 90/352/99 92/353/99 76/354/99
f 93/355/100 91/356/100 73/357/100
f 91/358/101 93/359/101 94/360/101 92/361/101
f 92/362/102 94/363/102 76/364/102
f 95/365/103 93/366/103 73/367/103
f 93/368/104 95/369/104 96/370/104 94/371/104
f 94/372/105 96/373/105 76/374/105
f 72/375/106 95/376/106 73/377/106
f 95/378/107 72/379/107 75/380/107 96/381/107
f 96/382/108 75/383/108 76/384/108
o turnstile
v 0.09991319431545281 0.6848488057055737 -0.47106105528123393
v 0.09115978578240941 0.6905991461919706 -0.48412931490798894
v 0.10820314178089291 0.7160156298890653 -0.4736317868632586
v -0.4157118200707089 0.8567238018899255 -0.050055021802021815
v -0.42446522860375224 0.8624741423763224 -0.06312328142877677
v -0.4074218726052688 0.8878906260734171 -0.05262575338404632
v 0.11088817197366357 0.6874506598047538 -0.45868170929784374
v -0.40473684241249813 0.8593256559891055 -0.0376756758186316
v 0.12114311326259447 0.697705602608805 -0.4503085846535596
v -0.39448190112356735 0.8695805987931567 -0.029302551174347453
v 0.12793152797214707 0.7128671435018483 -0.44818418125311343
v -0.38769348641401463 0.8847421396862002 -0.027178147773901137
v 0.12943306072803445 0.7288724267922966 -0.45287931623558414
v -0.38619195365812725 0.9007474229766484 -0.031873282756371926
v 0.12524649777937652 0.7414321135861599 -0.4631342588185281
v -0.3903785166067853 0.9133071097705118 -0.042128225339315935
v 0.11649308924633311 0.7471824540725568 -0.4762025184452831
v -0.39913192513982865 0.9190574502569087 -0.05519648496607084
v 0.10551811158812235 0.7445805999733768 -0.48858186442867335
v -0.4101069027980394 0.9164555961577286 -0.06757583094946108
v 0.09526317029919157 0.7343256571693255 -0.49695498907295754
v -0.4203618440869702 0.9062006533536773 -0.07594895559374522
v 0.08847475558963874 0.7191641162762821 -0.4990793924734037
v -0.4271502587965229 0.891039112460634 -0.07807335899419149
v 0.08697322283375147 0.7031588329858338 -0.49438425749093284
v -0.42865179155241034 0.8750338291701858 -0.07337822401172069
vt 0.5024453125 0.78055703125
vt 0.50451953125 0.7802734375
vt 0.5040125 0.78428515625
vt 0.4966545789263195 0.35864715580561923
vt 0.4987334851763195 0.35889559330561915
vt 0.4885327039263195 0.4442252808056192
vt 0.48645379767631947 0.44397684330561915
vt 0.3785046875 0.6560382812500001
vt 0.38057890625 0.6563218749999999
vt 0.37901171875 0.66005
vt 0.50079140625 0.78183984375
vt 0.5024453125 0.78055703125
vt 0.5040125 0.78428515625
vt 0.4987334851763195 0.35889559330561915
vt 0.5008118609454233 0.3591441453375912
vt 0.4906110415439322 0.44447415197538387
vt 0.4885326657748284 0.4442255999434118
vt 0.38057890625 0.6563218749999999
vt 0.3822328125 0.6576046875
vt 0.37901171875 0.66005
vt 0.5 0.783778125
vt 0.50079140625 0.78183984375
vt 0.5040125 0.78428515625
vt 0.3224198029379637 0.6420906789796317
vt 0.3239957473982653 0.643468321640914
vt 0.2674504438895266 0.7081815926008652
vt 0.2658744733264533 0.7068047307533941
vt 0.3822328125 0.6576046875
vt 0.38302421875 0.6595429687500001
vt 0.37901171875 0.66005
vt 0.50028359375 0.78585234375
vt 0.5 0.783778125
vt 0.5040125 0.78428515625
vt 0.3239957473982653 0.643468321640914
vt 0.3255723098982653 0.644845665390914
vt 0.2690269973982653 0.709559727890914
vt 0.2674504348982653 0.708181602890914
vt 0.38302421875 0.6595429687500001
vt 0.382740625 0.6616171875
vt 0.37901171875 0.66005
vt 0.5015671875 0.78750625
vt 0.50028359375 0.78585234375
vt 0.5040125 0.78428515625
vt 0.3255723098982653 0.644845665390914
vt 0.3271484375 0.6462230050218081
vt 0.27060359827406616 0.7109375
vt 0.2690266941000655 0.7095600750047204
vt 0.382740625 0.6616171875
vt 0.38145703124999997 0.6632710937499999
vt 0.37901171875 0.66005
vt 0.5035046875 0.78829765625
vt 0.5015671875 0.78750625
vt 0.5040125 0.78428515625
vt 0.2890625 0.3521701713399874
vt 0.29114095173979293 0.3519214590094536
vt 0.30134183433505457 0.4372519942640808
vt 0.2992630493151794 0.4375
vt 0.38145703124999997 0.6632710937499999
vt 0.37951953125 0.6640625
vt 0.37901171875 0.66005
vt 0.50557890625 0.7880140625000001
vt 0.5035046875 0.78829765625
vt 0.5040125 0.78428515625
vt 0.29114095173979293 0.3519214590094536
vt 0.2932190767397929 0.3516730215094537
vt 0.30341985798979293 0.4370027090094536
vt 0.30134173298979294 0.4372511465094536
vt 0.37951953125 0.6640625
vt 0.3774453125 0.66377890625
vt 0.37901171875 0.66005
vt 0.5072328125 0.78673125
vt 0.50557890625 0.7880140625000001
vt 0.5040125 0.78428515625
vt 0.2932190767397929 0.3516730215094537
vt 0.29529745358322457 0.3514244784611047
vt 0.30549819140284584 0.43675380266533814
vt 0.30341981455941425 0.437002345713687
vt 0.3774453125 0.66377890625
vt 0.37579140625 0.66249609375
vt 0.37901171875 0.66005
vt 0.50802421875 0.7847929687499999
vt 0.5072328125 0.78673125
vt 0.5040125 0.78428515625
vt 0.03931240163488944 0.6222964187862905
vt 0.040888338174264224 0.6209187670639731
vt 0.0974340398650608 0.685632493723369
vt 0.09585807721842499 0.6870093646320252
vt 0.37579140625 0.66249609375
vt 0.375 0.6605578125
vt 0.37901171875 0.66005
vt 0.5077406250000001 0.78271875
vt 0.50802421875 0.7847929687499999
vt 0.5040125 0.78428515625
vt 0.040888338174264224 0.6209187670639731
vt 0.04246411942426422 0.6195414233139731
vt 0.09900943192426423 0.6842547045639731
vt 0.09743365067426422 0.6856320483139731
vt 0.375 0.6605578125
vt 0.37528359375 0.65848359375
vt 0.37901171875 0.66005
vt 0.5064578125 0.7810648437500001
vt 0.5077406250000001 0.78271875
vt 0.5040125 0.78428515625
vt 0.04246411942426422 0.6195414233139731
vt 0.04404022851436956 0.6181640625
vt 0.1005859375 0.6828777975079683
vt 0.09900982840989465 0.6842551583219414
vt 0.37528359375 0.65848359375
vt 0.37656640625 0.6568296874999999
vt 0.37901171875 0.66005
vt 0.50451953125 0.7802734375
vt 0.5064578125 0.7810648437500001
vt 0.5040125 0.78428515625
vt 0.4945761279015278 0.3583984375
vt 0.4966545789263195 0.35864715580561923
vt 0.4864537843069052 0.4439769551409689
vt 0.484375 0.44372894342900615
vt 0.37656640625 0.6568296874999999
vt 0.3785046875 0.6560382812500001
vt 0.37901171875 0.66005
vn 0.7500000209253279 -0.24999999444997067 -0.6123724123333957
vn -0.40534677087764187 -0.9053191216907012 -0.12685142190864918
vn -0.7500000209253279 0.24999999444996446 0.6123724123333983
vn 0.7500000209253253 -0.24999999444997023 -0.6123724123333991
vn -0.08965884967361722 -0.9557002888517669 0.28035379177719927
vn -0.7500000209253266 0.2499999944499644 0.6123724123333998
vn 0.7500000209253241 -0.24999999444997106 -0.6123724123334003
vn 0.2500000267915491 -0.7499999578331542 0.6123724764018154
vn -0.7500000209253261 0.24999999444996474 0.6123724123334006
vn 0.7500000209253266 -0.24999999444996712 -0.6123724123333988
vn 0.5226795997081569 -0.3433617489997887 0.7803260506818461
vn -0.7500000209253268 0.24999999444996351 0.6123724123334
vn 0.7500000209253275 -0.24999999444996351 -0.612372412333399
vn 0.6553329377402094 0.15536074363771657 0.739189948557962
vn -0.7500000209253261 0.24999999444996573 0.6123724123333999
vn 0.7500000209253277 -0.24999999444996585 -0.6123724123333979
vn 0.6123723991300001 0.612372489605218 0.49999997875847463
vn -0.7500000209253266 0.24999999444996807 0.6123724123333987
vn 0.7500000209253286 -0.24999999444996684 -0.6123724123333967
vn 0.40534677087764726 0.9053191216906977 0.12685142190865695
vn -0.7500000209253254 0.2499999944499664 0.6123724123334008
vn 0.7500000209253277 -0.24999999444996668 -0.6123724123333977
vn 0.0896588496736152 0.9557002888517663 -0.280353791777202
vn -0.7500000209253272 0.24999999444996684 0.6123724123333982
vn 0.750000020925328 -0.24999999444996635 -0.6123724123333972
vn -0.2500000267915508 0.7499999578331525 -0.6123724764018166
vn -0.7500000209253266 0.24999999444996712 0.612372412333399
vn 0.7500000209253235 -0.24999999444997323 -0.6123724123334001
vn -0.522679599708155 0.34336174899979316 -0.7803260506818456
vn -0.7500000209253264 0.24999999444996762 0.6123724123333991
vn 0.7500000209253255 -0.24999999444996523 -0.6123724123334009
vn -0.6553329377402103 -0.15536074363772578 -0.7391899485579594
vn -0.7500000209253266 0.24999999444996662 0.6123724123333992
vn 0.7500000209253259 -0.24999999444996762 -0.6123724123333997
vn -0.6123723991300001 -0.6123724896052178 -0.4999999787584749
vn -0.7500000209253261 0.2499999944499619 0.6123724123334015
usemtl m_a412791d-ea2d-7bc4-a074-0bc570f883e4
f 97/385/109 98/386/109 99/387/109
f 98/388/110 97/389/110 100/390/110 101/391/110
f 101/392/111 100/393/111 102/394/111
f 103/395/112 97/396/112 99/397/112
f 97/398/113 103/399/113 104/400/113 100/401/113
f 100/402/114 104/403/114 102/404/114
f 105/405/115 103/406/115 99/407/115
f 103/408/116 105/409/116 106/410/116 104/411/116
f 104/412/117 106/413/117 102/414/117
f 107/415/118 105/416/118 99/417/118
f 105/418/119 107/419/119 108/420/119 106/421/119
f 106/422/120 108/423/120 102/424/120
f 109/425/121 107/426/121 99/427/121
f 107/428/122 109/429/122 110/430/122 108/431/122
f 108/432/123 110/433/123 102/434/123
f 111/435/124 109/436/124 99/437/124
f 109/438/125 111/439/125 112/440/125 110/441/125
f 110/442/126 112/443/126 102/444/126
f 113/445/127 111/446/127 99/447/127
f 111/448/128 113/449/128 114/450/128 112/451/128
f 112/452/129 114/453/129 102/454/129
f 115/455/130 113/456/130 99/457/130
f 113/458/131 115/459/131 116/460/131 114/461/131
f 114/462/132 116/463/132 102/464/132
f 117/465/133 115/466/133 99/467/133
f 115/468/134 117/469/134 118/470/134 116/471/134
f 116/472/135 118/473/135 102/474/135
f 119/475/136 117/476/136 99/477/136
f 117/478/137 119/479/137 120/480/137 118/481/137
f 118/482/138 120/483/138 102/484/138
f 121/485/139 119/486/139 99/487/139
f 119/488/140 121/489/140 122/490/140 120/491/140
f 120/492/141 122/493/141 102/494/141
f 98/495/142 121/496/142 99/497/142
f 121/498/143 98/499/143 101/500/143 122/501/143
f 122/502/144 101/503/144 102/504/144
o turnstile
v -0.4489981143476441 0.13593750118205727 0.022876899136852147
v -0.4635018648716446 0.1359375011926176 0.031250023229189544
v -0.47187498791598087 0.13593750019219153 2.2705189006710924e-8
v -0.4489981249181578 0.8234375011820569 0.022876879959742028
v -0.4635018754421583 0.8234375011926174 0.03125000405207941
v -0.47187499848649467 0.8234375001921913 3.5280789331681994e-9
v -0.4406249884399813 0.13593750090622936 0.00837314966085273
v -0.44062499901049523 0.8234375009062289 0.008373130483742544
v -0.44062498739198047 0.1359375004391098 -0.008373100339147094
v -0.44062499796249416 0.8234375004391095 -0.00837311951625742
v -0.44899811148431773 0.13593749990580328 -0.022876850863147613
v -0.44899812205483147 0.8234374999058028 -0.022876870040257895
v -0.4635018609603172 0.13593749944924394 -0.031249976770810345
v -0.46350187153083094 0.8234374994492437 -0.03124999594792048
v -0.480248110960317 0.13593749919176545 -0.03124997781881142
v -0.48024812153083096 0.8234374991917652 -0.031249996995921507
v -0.49475186148431766 0.1359374992023259 -0.02287685372647405
v -0.4947518720548314 0.8234374992023256 -0.02287687290358413
v -0.5031249873919802 0.1359374994781537 -0.008373104250474606
v -0.503124997962494 0.8234374994781535 -0.008373123427584714
v -0.5031249884399812 0.13593749994527338 0.008373145749525301
v -0.5031249990104951 0.823437499945273 0.008373126572415256
v -0.4947518643476439 0.1359375004785799 0.022876896273525904
v -0.4947518749181577 0.8234375004785797 0.022876877096415723
v -0.48024811487164437 0.13593750093513912 0.0312500221811885
v -0.4802481254421583 0.8234375009351388 0.031250003004078326
vt 0.63350546875 0.64522734375
vt 0.632221875 0.6468812500000001
vt 0.6297765625 0.64366015625
vt 0 0.6227855050218081
vt 0.0015761276017347003 0.621408165390914
vt 0.05812174339993446 0.6861225750047204
vt 0.05654483922593384 0.6875
vt 0.62733203125 0.7492085937499999
vt 0.6260484375 0.7475546875
vt 0.62977734375 0.7459875
vt 0.6337890625 0.643153125
vt 0.63350546875 0.64522734375
vt 0.6297765625 0.64366015625
vt 0.0015761276017347003 0.621408165390914
vt 0.0031526901017347037 0.620030821640914
vt 0.059698002601734704 0.684744102890914
vt 0.0581214401017347 0.686122227890914
vt 0.6260484375 0.7475546875
vt 0.62576484375 0.7454804687500001
vt 0.62977734375 0.7459875
vt 0.63299765625 0.64121484375
vt 0.6337890625 0.643153125
vt 0.6297765625 0.64366015625
vt 0.0031526901017347037 0.620030821640914
vt 0.0047286345620363435 0.6186531789796317
vt 0.06127396417354672 0.6833672307533941
vt 0.05969799361047339 0.6847440926008652
vt 0.62576484375 0.7454804687500001
vt 0.62655625 0.7435421875
vt 0.62977734375 0.7459875
vt 0.63134375 0.63993203125
vt 0.63299765625 0.64121484375
vt 0.6297765625 0.64366015625
vt 0.2579772015545767 0.3513316453375912
vt 0.2600555773236805 0.35108309330561915
vt 0.2702563967251716 0.4364130999434118
vt 0.2681780209560678 0.43666165197538387
vt 0.62655625 0.7435421875
vt 0.62821015625 0.7422593749999999
vt 0.62977734375 0.7459875
vt 0.62926953125 0.6396484375
vt 0.63134375 0.63993203125
vt 0.6297765625 0.64366015625
vt 0.2600555773236805 0.35108309330561915
vt 0.2621344835736805 0.35083465580561923
vt 0.27233526482368053 0.43616434330561915
vt 0.2702563585736805 0.4364127808056192
vt 0.62821015625 0.7422593749999999
vt 0.630284375 0.7419757812500001
vt 0.62977734375 0.7459875
vt 0.62733125 0.6404398437500001
vt 0.62926953125 0.6396484375
vt 0.6297765625 0.64366015625
vt 0.2621344835736805 0.35083465580561923
vt 0.2642129345984722 0.3505859375
vt 0.2744140625 0.43591644342900615
vt 0.2723352781930948 0.4361644551409689
vt 0.630284375 0.7419757812500001
vt 0.63222265625 0.7427671874999999
vt 0.62977734375 0.7459875
vt 0.6260484374999999 0.64209375
vt 0.62733125 0.6404398437500001
vt 0.6297765625 0.64366015625
vt 0.36123320898563044 0.6416015625
vt 0.3628093180757358 0.6429789233139731
vt 0.30626360909010536 0.7076926583219414
vt 0.3046875 0.7063152975079683
vt 0.63222265625 0.7427671874999999
vt 0.63350546875 0.74442109375
vt 0.62977734375 0.7459875
vt 0.62576484375 0.6441679687499999
vt 0.6260484374999999 0.64209375
vt 0.6297765625 0.64366015625
vt 0.3628093180757358 0.6429789233139731
vt 0.36438509932573576 0.6443562670639731
vt 0.30783978682573576 0.7090695483139731
vt 0.3062640055757358 0.7076922045639731
vt 0.63350546875 0.74442109375
vt 0.6337890625 0.7464953125
vt 0.62977734375 0.7459875
vt 0.62655625 0.64610625
vt 0.62576484375 0.6441679687499999
vt 0.6297765625 0.64366015625
vt 0.36438509932573576 0.6443562670639731
vt 0.36596103586511053 0.6457339187862905
vt 0.309415360281575 0.7104468646320252
vt 0.30783939763493917 0.709069993723369
vt 0.6337890625 0.7464953125
vt 0.63299765625 0.74843359375
vt 0.62977734375 0.7459875
vt 0.62821015625 0.6473890625000001
vt 0.62655625 0.64610625
vt 0.6297765625 0.64366015625
vt 0.33067910891677543 0.3514244784611047
vt 0.3327574857602071 0.3516730215094537
vt 0.32255674794058575 0.437002345713687
vt 0.32047837109715416 0.43675380266533814
vt 0.63299765625 0.74843359375
vt 0.63134375 0.74971640625
vt 0.62977734375 0.7459875
vt 0.630284375 0.6476726562499999
vt 0.62821015625 0.6473890625000001
vt 0.6297765625 0.64366015625
vt 0.3327574857602071 0.3516730215094537
vt 0.33483561076020707 0.3519214590094536
vt 0.32463482951020706 0.4372511465094536
vt 0.32255670451020707 0.4370027090094536
vt 0.63134375 0.74971640625
vt 0.62926953125 0.75
vt 0.62977734375 0.7459875
vt 0.632221875 0.6468812500000001
vt 0.630284375 0.6476726562499999
vt 0.6297765625 0.64366015625
vt 0.33483561076020707 0.3519214590094536
vt 0.3369140625 0.3521701713399874
vt 0.3267135131848206 0.4375
vt 0.32463472816494543 0.4372519942640808
vt 0.62926953125 0.75
vt 0.62733203125 0.7492085937499999
vt 0.62977734375 0.7459875
vn 1.5375292039543357e-8 -0.9999999999999997 2.7893981071833746e-8
vn 0.4999722259470521 3.184456040528083e-8 0.8660414385475727
vn -1.5375292317099113e-8 0.9999999999999997 -2.789397857290307e-8
vn 1.5375296480435455e-8 -0.9999999999999996 2.789397661778105e-8
vn 0.866041375969802 2.7261857438176662e-8 0.49997233434294286
vn -1.537529037420882e-8 0.9999999999999996 -2.7893980579816223e-8
vn 1.5375295647768187e-8 -0.9999999999999997 2.7893979731278786e-8
vn 0.9999999999999981 1.5375294259989406e-8 6.258122459515698e-8
vn -1.537529081829803e-8 0.9999999999999996 -2.7893978852298575e-8
vn 1.5375293926922495e-8 -0.9999999999999996 2.7893973380824577e-8
vn 0.8660414385475779 -6.305739264078626e-10 -0.49997222594704416
vn -1.5375291040342635e-8 0.9999999999999997 -2.7893979466303163e-8
vn 1.5375301476439063e-8 -0.9999999999999996 2.7893980890564143e-8
vn 0.49997233434294114 -1.6470118435751857e-8 -0.8660413759698032
vn -1.537529215056566e-8 0.9999999999999996 -2.789398060571194e-8
vn 1.5375294815100918e-8 -0.9999999999999997 2.7893979097987473e-8
vn 6.258123950093358e-8 -2.789397734677035e-8 -0.9999999999999978
vn -1.53752894860304e-8 0.9999999999999996 -2.789397992669735e-8
vn 1.5375291428920693e-8 -0.9999999999999997 2.7893979932424848e-8
vn -0.4999722259470468 -3.184456040528083e-8 -0.8660414385475756
vn -1.537529270567717e-8 0.9999999999999996 -2.7893979051972712e-8
vn 1.5375295425723582e-8 -0.9999999999999996 2.7893976048076816e-8
vn -0.8660413759698065 -2.7261857105109755e-8 -0.4999723343429351
vn -1.5375294259989403e-8 0.9999999999999996 -2.7893977368755262e-8
vn 1.537529442652286e-8 -0.9999999999999996 2.7893979731278716e-8
vn -0.999999999999998 -1.537529464856746e-8 -6.258123397094203e-8
vn -1.537529398243365e-8 0.9999999999999996 -2.7893978266312192e-8
vn 1.5375294815100918e-8 -0.9999999999999996 2.789398102004231e-8
vn -0.8660414385475781 6.305738708967112e-10 0.49997222594704366
vn -1.5375294371011705e-8 0.9999999999999996 -2.789397951809452e-8
vn 1.5375295536745884e-8 -0.9999999999999996 2.789398180985973e-8
vn -0.499972334342933 1.6470118407996285e-8 0.8660413759698081
vn -1.5375292039543357e-8 0.9999999999999997 -2.7893977187485665e-8
vn 1.5375292317099113e-8 -0.9999999999999997 2.7893980962585194e-8
vn -6.258123784351303e-8 2.7893977417420947e-8 0.9999999999999978
vn -1.5375294815100918e-8 0.9999999999999996 -2.7893977906716322e-8
usemtl m_a412791d-ea2d-7bc4-a074-0bc570f883e4
f 123/505/145 124/506/145 125/507/145
f 124/508/146 123/509/146 126/510/146 127/511/146
f 127/512/147 126/513/147 128/514/147
f 129/515/148 123/516/148 125/517/148
f 123/518/149 129/519/149 130/520/149 126/521/149
f 126/522/150 130/523/150 128/524/150
f 131/525/151 129/526/151 125/527/151
f 129/528/152 131/529/152 132/530/152 130/531/152
f 130/532/153 132/533/153 128/534/153
f 133/535/154 131/536/154 125/537/154
f 131/538/155 133/539/155 134/540/155 132/541/155
f 132/542/156 134/543/156 128/544/156
f 135/545/157 133/546/157 125/547/157
f 133/548/158 135/549/158 136/550/158 134/551/158
f 134/552/159 136/553/159 128/554/159
f 137/555/160 135/556/160 125/557/160
f 135/558/161 137/559/161 138/560/161 136/561/161
f 136/562/162 138/563/162 128/564/162
f 139/565/163 137/566/163 125/567/163
f 137/568/164 139/569/164 140/570/164 138/571/164
f 138/572/165 140/573/165 128/574/165
f 141/575/166 139/576/166 125/577/166
f 139/578/167 141/579/167 142/580/167 140/581/167
f 140/582/168 142/583/168 128/584/168
f 143/585/169 141/586/169 125/587/169
f 141/588/170 143/589/170 144/590/170 142/591/170
f 142/592/171 144/593/171 128/594/171
f 145/595/172 143/596/172 125/597/172
f 143/598/173 145/599/173 146/600/173 144/601/173
f 144/602/174 146/603/174 128/604/174
f 147/605/175 145/606/175 125/607/175
f 145/608/176 147/609/176 148/610/176 146/611/176
f 146/612/177 148/613/177 128/614/177
f 124/615/178 147/616/178 125/617/178
f 147/618/179 124/619/179 127/620/179 148/621/179
f 148/622/180 127/623/180 128/624/180
o right
v -0.5 1.1875 0.5
v -0.5 1.1875 -0.5
v -0.5 0 0.5
v -0.5 0 -0.5
v -0.609375 1.1875 -0.5
v -0.609375 1.1875 0.5
v -0.609375 0 -0.5
v -0.609375 0 0.5
vt 0.0546875 0.609375
vt 0.068359375 0.609375
vt 0.068359375 0.4609375
vt 0.0546875 0.4609375
vt 0.1328125 1
vt 0.2578125 1
vt 0.2578125 0.8515625
vt 0.1328125 0.8515625
vt 0 0.609375
vt 0.013671875 0.609375
vt 0.013671875 0.4609375
vt 0 0.4609375
vt 0 1
vt 0.125 1
vt 0.125 0.8515625
vt 0 0.8515625
vt 0.0234375 0.4609375
vt 0.037109375 0.4609375
vt 0.037109375 0.3359375
vt 0.0234375 0.3359375
vt 0.5390625 0.4765625
vt 0.552734375 0.4765625
vt 0.552734375 0.6015625
vt 0.5390625 0.6015625
vn 0 0 -1
vn 1 0 0
vn 0 0 1
vn -1 0 0
vn 0 1 0
vn 0 -1 0
usemtl m_a412791d-ea2d-7bc4-a074-0bc570f883e4
f 152/628/181 155/627/181 153/626/181 150/625/181
f 151/632/182 152/631/182 150/630/182 149/629/182
f 156/636/183 151/635/183 149/634/183 154/633/183
f 155/640/184 156/639/184 154/638/184 153/637/184
f 154/644/185 149/643/185 150/642/185 153/641/185
f 155/648/186 152/647/186 151/646/186 156/645/186
o left
v 0.5 0.84375 0.5
v 0.5 1.1875 0.5
v 0.5 1.1875 -0.5
v 0.5 0.84375 -0.5
v 0.609375 1 -0.5
v 0.609375 1.1875 -0.5
v 0.609375 1.1875 0.5
v 0.609375 1 0.5
vt 0.390625 0.77734375
vt 0.390625 0.8203125
vt 0.265625 0.8203125
vt 0.265625 0.77734375
vt 0.390625 0.9140625
vt 0.390625 0.9375
vt 0.265625 0.9375
vt 0.265625 0.9140625
vt 0.529296875 0.3359375
vt 0.529296875 0.4609375
vt 0.515625 0.4609375
vt 0.515625 0.3359375
vt 0.265625 0.8902218749999999
vt 0.390625 0.8902218749999999
vt 0.390625 0.9140625
vt 0.265625 0.9140625
vt 0.599609375 0.55859375
vt 0.599609375 0.6015625
vt 0.5859375 0.6015625
vt 0.5859375 0.578125
vt 0.599609375 0.5234375
vt 0.599609375 0.546875
vt 0.5859375 0.546875
vt 0.5859375 0.50390625
vn -1 0 0
vn 1 0 0
vn 0 1 0
vn 0.8192319205190405 -0.5734623443633283 0
vn 0 0 -1
vn 0 0 1
usemtl m_a412791d-ea2d-7bc4-a074-0bc570f883e4
f 157/649/187 158/650/187 159/651/187 160/652/187
f 161/653/188 162/654/188 163/655/188 164/656/188
f 159/657/189 158/658/189 163/659/189 162/660/189
f 157/661/190 160/662/190 161/663/190 164/664/190
f 160/665/191 159/666/191 162/667/191 161/668/191
f 164/669/192 163/670/192 158/671/192 157/672/192
o left
v 0.5 0.1875 0.5
v 0.5 1 0.5
v 0.5 1 0.265625
v 0.5 0.1875 0.265625
v 0.609375 0.1875 0.3125
v 0.609375 1 0.3125
v 0.609375 1 0.5
v 0.609375 0.1875 0.5
vt 0.458984375 0.7890625
vt 0.458984375 0.890625
vt 0.4296875 0.890625
vt 0.4296875 0.7890625
vt 0.1328125 0.4296875
vt 0.1328125 0.53125
vt 0.109375 0.53125
vt 0.109375 0.4296875
vt 0.623046875 0.369140625
vt 0.623046875 0.3984375
vt 0.609375 0.3984375
vt 0.609375 0.375
vt 0.630859375 0.759765625
vt 0.630859375 0.7890625
vt 0.6171875 0.783203125
vt 0.6171875 0.759765625
vt 0.4052734375 0.3515625
vt 0.4052734375 0.453125
vt 0.390625 0.453125
vt 0.390625 0.3515625
vt 0.576171875 0.5
vt 0.576171875 0.6015625
vt 0.5625 0.6015625
vt 0.5625 0.5
vn -1 0 0
vn 1 0 0
vn 0 1 0
vn 0 -1 0
vn 0.39391929857916774 0 -0.919145030018058
vn 0 0 1
usemtl m_a412791d-ea2d-7bc4-a074-0bc570f883e4
f 165/673/193 166/674/193 167/675/193 168/676/193
f 169/677/194 170/678/194 171/679/194 172/680/194
f 167/681/195 166/682/195 171/683/195 170/684/195
f 165/685/196 168/686/196 169/687/196 172/688/196
f 168/689/197 167/690/197 170/691/197 169/692/197
f 172/693/198 171/694/198 166/695/198 165/696/198
o left
v 0.5 0.1875 -0.265625
v 0.5 1 -0.265625
v 0.5 1 -0.5
v 0.5 0.1875 -0.5
v 0.609375 0.1875 -0.5
v 0.609375 1 -0.5
v 0.609375 1 -0.3125
v 0.609375 0.1875 -0.3125
vt 0.451171875 0.453125
vt 0.451171875 0.5546875
vt 0.421875 0.5546875
vt 0.421875 0.453125
vt 0.4921875 0.7890625
vt 0.4921875 0.890625
vt 0.46875 0.890625
vt 0.46875 0.7890625
vt 0.630859375 0.455078125
vt 0.630859375 0.484375
vt 0.6171875 0.478515625
vt 0.6171875 0.455078125
vt 0.630859375 0.416015625
vt 0.630859375 0.4453125
vt 0.6171875 0.4453125
vt 0.6171875 0.421875
vt 0.576171875 0.390625
vt 0.576171875 0.4921875
vt 0.5625 0.4921875
vt 0.5625 0.390625
vt 0.4287109375 0.34375
vt 0.4287109375 0.4453125
vt 0.4140625 0.4453125
vt 0.4140625 0.34375
vn -1 0 0
vn 1 0 0
vn 0 1 0
vn 0 -1 0
vn 0 0 -1
vn 0.39391929857916774 0 0.919145030018058
usemtl m_a412791d-ea2d-7bc4-a074-0bc570f883e4
f 173/697/199 174/698/199 175/699/199 176/700/199
f 177/701/200 178/702/200 179/703/200 180/704/200
f 175/705/201 174/706/201 179/707/201 178/708/201
f 173/709/202 176/710/202 177/711/202 180/712/202
f 176/713/203 175/714/203 178/715/203 177/716/203
f 180/717/204 179/718/204 174/719/204 173/720/204
o left
v 0.5 0 0.5
v 0.5 0.234375 0.5
v 0.5 0.234375 -0.5
v 0.5 0 -0.5
v 0.609375 0 -0.5
v 0.609375 0.1875 -0.5
v 0.609375 0.1875 0.5
v 0.609375 0 0.5
vt 0.5078125 0.736328125
vt 0.5078125 0.765625
vt 0.3828125 0.765625
vt 0.3828125 0.736328125
vt 0.5859375 0.609375
vt 0.5859375 0.6328125
vt 0.4609375 0.6328125
vt 0.4609375 0.609375
vt 0.6015625 0.703125
vt 0.4765625 0.703125
vt 0.4765625 0.6884765625
vt 0.6015625 0.6884765625
vt 0.552734375 0.34375
vt 0.552734375 0.46875
vt 0.5390625 0.46875
vt 0.5390625 0.34375
vt 0.576171875 0.353515625
vt 0.576171875 0.3828125
vt 0.5625 0.376953125
vt 0.5625 0.353515625
vt 0.638671875 0.658203125
vt 0.638671875 0.681640625
vt 0.625 0.6875
vt 0.625 0.658203125
vn -1 0 0
vn 1 0 0
vn 0.39391929857916774 0.919145030018058 0
vn 0 -1 0
vn 0 0 -1
vn 0 0 1
usemtl m_a412791d-ea2d-7bc4-a074-0bc570f883e4
f 181/721/205 182/722/205 183/723/205 184/724/205
f 185/725/206 186/726/206 187/727/206 188/728/206
f 183/729/207 182/730/207 187/731/207 186/732/207
f 181/733/208 184/734/208 185/735/208 188/736/208
f 184/737/209 183/738/209 186/739/209 185/740/209
f 188/741/210 187/742/210 182/743/210 181/744/210
o left
v 0.5 1.1875 0.5
v 0.5 1.1875 -0.5
v 0.5 0 0.5
v 0.5 0 -0.5
v 0.390625 1.1875 -0.5
v 0.390625 1.1875 0.5
v 0.390625 0 -0.5
v 0.390625 0 0.5
vt 0.5 1
vt 0.513671875 1
vt 0.513671875 0.8515625
vt 0.5 0.8515625
vt 0.1328125 0.84375
vt 0.2578125 0.84375
vt 0.2578125 0.6953125
vt 0.1328125 0.6953125
vt 0.4921875 0.6015625
vt 0.505859375 0.6015625
vt 0.505859375 0.453125
vt 0.4921875 0.453125
vt 0 0.84375
vt 0.125 0.84375
vt 0.125 0.6953125
vt 0 0.6953125
vt 0 0.453125
vt 0.013671875 0.453125
vt 0.013671875 0.328125
vt 0 0.328125
vt 0.546875 0.875
vt 0.560546875 0.875
vt 0.560546875 1
vt 0.546875 1
vn 0 0 -1
vn 1 0 0
vn 0 0 1
vn -1 0 0
vn 0 1 0
vn 0 -1 0
usemtl m_a412791d-ea2d-7bc4-a074-0bc570f883e4
f 192/748/211 195/747/211 193/746/211 190/745/211
f 191/752/212 192/751/212 190/750/212 189/749/212
f 196/756/213 191/755/213 189/754/213 194/753/213
f 195/760/214 196/759/214 194/758/214 193/757/214
f 194/764/215 189/763/215 190/762/215 193/761/215
f 195/768/216 192/767/216 191/766/216 196/765/216
o cube
v 0.28125 0.8125 -0.40625
v 0.28125 0.8125 0.40625
v 0.28125 0.796875 -0.40625
v 0.28125 0.796875 0.40625
v 0.390625 0.9375 -0.4375
v 0.390625 0.9375 0.4375
v 0.390625 0.5625 -0.4375
v 0.390625 0.5625 0.4375
vt 0.46484375 0.708984375
vt 0.46484375 0.7109375
vt 0.36328125 0.7109375
vt 0.36328125 0.708984375
vt 0.375 0.71875
vt 0.375 0.765625
vt 0.265625 0.765625
vt 0.265625 0.71875
vt 0.14453125 0.5107421875
vt 0.24609375 0.5107421875
vt 0.25 0.53125
vt 0.140625 0.53125
vt 0.46484375 0.708984375
vt 0.36328125 0.708984375
vt 0.359375 0.6766546875
vt 0.46875 0.6766546875
vt 0.4130859375 0.826171875
vt 0.4130859375 0.828125
vt 0.3984375 0.84375
vt 0.3984375 0.796875
vt 0.4130859375 0.6171875
vt 0.4130859375 0.6640625
vt 0.3984375 0.6484375
vt 0.3984375 0.646484375
vn -1 0 0
vn 1 0 0
vn -0.7525766947068778 0.658504607868518 0
vn -0.9061831399952655 -0.42288546533112387 0
vn -0.27472112789737807 0 -0.9615239476408232
vn -0.27472112789737807 0 0.9615239476408232
usemtl m_a412791d-ea2d-7bc4-a074-0bc570f883e4
f 200/769/217 198/770/217 197/771/217 199/772/217
f 203/773/218 201/774/218 202/775/218 204/776/218
f 197/777/219 198/778/219 202/779/219 201/780/219
f 200/781/220 199/782/220 203/783/220 204/784/220
f 199/785/221 197/786/221 201/787/221 203/788/221
f 204/789/222 202/790/222 198/791/222 200/792/222
o cube
v -0.609375 1 -0.6875
v -0.609375 1.1875 -0.5
v -0.609375 0 -0.671875
v -0.609375 0 -0.5
v -0.390625 1 -0.6875
v -0.390625 1.1875 -0.5
v -0.390625 0 -0.671875
v -0.390625 0 -0.5
v -0.4453125 1 -0.703125
v -0.4453125 1.1875 -0.5
v -0.5 1 -0.709375
v -0.5 1.1875 -0.5
v -0.5546875 1 -0.703125
v -0.5546875 1.1875 -0.5
v -0.4453125 0 -0.5
v -0.5 0 -0.5
v -0.5546875 0 -0.5
v -0.4453125 0 -0.6875
v -0.5 0 -0.69375
v -0.5546875 0 -0.6875
v -0.4453125 0.15625 -0.6875
v -0.390625 0.15625 -0.671875
v -0.390625 0.185546875 -0.5
v -0.4453125 0.185546875 -0.5
v -0.5 0.185546875 -0.5
v -0.5546875 0.185546875 -0.5
v -0.609375 0.185546875 -0.5
v -0.609375 0.15625 -0.671875
v -0.5546875 0.15625 -0.6875
v -0.5 0.15625 -0.69375
vt 0.078125 0.625
vt 0.080078125 0.51953125
vt 0.1015625 0.52319296875
vt 0.1015625 0.6484375
vt 0.0234375 0.6171875
vt 0.0234375 0.49194296875
vt 0.044921875 0.48828125
vt 0.046875 0.59375
vt 0.6235454282521813 0.9062496807817826
vt 0.6167094907521813 0.9062496807817826
vt 0.6167094907521813 0.8716957745317826
vt 0.6235454282521813 0.8731309307817825
vt 0.59765625 0.9970703125
vt 0.5908203125 0.9990234375
vt 0.5908203125 0.9755859375
vt 0.59765625 0.9755859375
vt 0.241378125 0.49999843750000006
vt 0.2419140625 0.39451328125000007
vt 0.2490234375 0.39451328125000007
vt 0.2484875 0.49999843750000006
vt 0.109375 0.6875
vt 0.109375 0.56225546875
vt 0.1162109375 0.56225546875
vt 0.1162109375 0.6875
vt 0.5885248372263499 0.45803033436823937
vt 0.5955833263441594 0.45718125
vt 0.592700171938001 0.491615020915828
vt 0.5860127674058405 0.49105501285645614
vt 0.5955833263441594 0.45718125
vt 0.6024637950941595 0.45718125
vt 0.5994919200941594 0.4921875
vt 0.5927005138441594 0.49161093749999996
vt 0.6098530092478187 0.871121743522115
vt 0.6167094907521813 0.8716957745317826
vt 0.6167094907521813 0.9062498334315731
vt 0.6098943109755874 0.90625
vt 0.1298828125 0.6875
vt 0.1298828125 0.56225546875
vt 0.13671875 0.56225546875
vt 0.13671875 0.6875
vt 0.123046875 0.6875
vt 0.123046875 0.56225546875
vt 0.1298828125 0.56225546875
vt 0.1298828125 0.6875
vt 0.1162109375 0.6875
vt 0.1162109375 0.56225546875
vt 0.123046875 0.56225546875
vt 0.123046875 0.6875
vt 0.5703125 0.9755859375
vt 0.5771484375 0.9755859375
vt 0.5771484375 0.9990234375
vt 0.5703125 0.9970703125
vt 0.5771484375 0.9755859375
vt 0.583984375 0.9755859375
vt 0.583984375 0.9998046875
vt 0.5771484375 0.9990234375
vt 0.583984375 0.9755859375
vt 0.5908203125 0.9755859375
vt 0.5908203125 0.9990234375
vt 0.583984375 0.9998046875
vt 0.14116171874999994 0.49999843749999995
vt 0.140625 0.39451328125000007
vt 0.14773515625 0.39451328125000007
vt 0.14827109374999992 0.49999843749999995
vt 0.14795703125 0.5
vt 0.14773515625 0.39451328125000007
vt 0.154615625 0.39451328125000007
vt 0.1548375 0.5
vt 0.23481171875 0.5
vt 0.23503359375 0.39451328125000007
vt 0.2419140625 0.39451328125000007
vt 0.2416921875 0.5
vt 0.14773515625 0.37498203125000007
vt 0.14773515625 0.39451328125000007
vt 0.140625 0.39451328125000007
vt 0.140625 0.37498203125000007
vt 0.044921875 0.46875
vt 0.044921875 0.48828125
vt 0.0234375 0.49194296875
vt 0.0234375 0.46875
vt 0.13671875 0.5390625
vt 0.13671875 0.56225546875
vt 0.1298828125 0.56225546875
vt 0.1298828125 0.5390625
vt 0.1298828125 0.5390625
vt 0.1298828125 0.56225546875
vt 0.123046875 0.56225546875
vt 0.123046875 0.5390625
vt 0.123046875 0.5390625
vt 0.123046875 0.56225546875
vt 0.1162109375 0.56225546875
vt 0.1162109375 0.5390625
vt 0.1162109375 0.5390625
vt 0.1162109375 0.56225546875
vt 0.109375 0.56225546875
vt 0.109375 0.5390625
vt 0.1015625 0.5
vt 0.1015625 0.52319296875
vt 0.080078125 0.51953125
vt 0.080078125 0.5
vt 0.2490234375 0.37498203125000007
vt 0.2490234375 0.39451328125000007
vt 0.2419140625 0.39451328125000007
vt 0.2419140625 0.37498203125000007
vt 0.2419140625 0.37498203125000007
vt 0.2419140625 0.39451328125000007
vt 0.23503359375 0.39451328125000007
vt 0.23503359375 0.37498203125000007
vt 0.154615625 0.37498203125000007
vt 0.154615625 0.39451328125000007
vt 0.14773515625 0.39451328125000007
vt 0.14773515625 0.37498203125000007
vn -1 0 0
vn 1 0 0
vn 0 0.7348034446274879 -0.6782801027330658
vn 0 -1 0
vn -0.27467758758906335 -0.01780317697336522 -0.9613715565617218
vn 0 0 1
vn 0.19025461941800856 0.7213820986266158 -0.6658911679630299
vn 0.07602163096745172 0.7427946859111421 -0.6651892709652018
vn -0.0772858685040218 0.7326056285277063 -0.6762513494101905
vn 0 0 1
vn 0 0 1
vn 0 0 1
vn 0 -1 0
vn 0 -1 0
vn 0 -1 0
vn 0.27467758758906335 -0.01780317697336522 -0.9613715565617218
vn 0.11352737747652361 -0.018395639868881118 -0.9933645529195803
vn -0.11352737747652354 -0.018395639868881115 -0.9933645529195803
vn 0.274721127897378 0 -0.9615239476408232
vn 1 0 0
vn 0 0 1
vn 0 0 1
vn 0 0 1
vn 0 0 1
vn -1 0 0
vn -0.274721127897378 0 -0.9615239476408232
vn -0.113546591160732 0 -0.9935326726564043
vn 0.11354659116073204 0 -0.9935326726564043
usemtl m_a412791d-ea2d-7bc4-a074-0bc570f883e4
f 205/793/223 232/794/223 231/795/223 206/796/223
f 210/797/224 227/798/224 226/799/224 209/800/224
f 206/801/225 218/802/225 217/803/225 205/804/225
f 207/805/226 224/806/226 221/807/226 208/808/226
f 217/809/227 233/810/227 232/811/227 205/812/227
f 206/813/228 231/814/228 230/815/228 218/816/228
f 209/817/229 213/818/229 214/819/229 210/820/229
f 213/821/230 215/822/230 216/823/230 214/824/230
f 215/825/231 217/826/231 218/827/231 216/828/231
f 214/829/232 228/830/232 227/831/232 210/832/232
f 216/833/233 229/834/233 228/835/233 214/836/233
f 218/837/234 230/838/234 229/839/234 216/840/234
f 212/841/235 219/842/235 222/843/235 211/844/235
f 219/845/236 220/846/236 223/847/236 222/848/236
f 220/849/237 221/850/237 224/851/237 223/852/237
f 209/853/238 226/854/238 225/855/238 213/856/238
f 213/857/239 225/858/239 234/859/239 215/860/239
f 215/861/240 234/862/240 233/863/240 217/864/240
f 222/865/241 225/866/241 226/867/241 211/868/241
f 211/869/242 226/870/242 227/871/242 212/872/242
f 212/873/243 227/874/243 228/875/243 219/876/243
f 219/877/244 228/878/244 229/879/244 220/880/244
f 220/881/245 229/882/245 230/883/245 221/884/245
f 221/885/246 230/886/246 231/887/246 208/888/246
f 208/889/247 231/890/247 232/891/247 207/892/247
f 207/893/248 232/894/248 233/895/248 224/896/248
f 224/897/249 233/898/249 234/899/249 223/900/249
f 223/901/250 234/902/250 225/903/250 222/904/250
o cube
v 0.390625 1 -0.6875
v 0.390625 1.1875 -0.5
v 0.390625 0 -0.671875
v 0.390625 0 -0.5
v 0.609375 1 -0.6875
v 0.609375 1.1875 -0.5
v 0.609375 0 -0.671875
v 0.609375 0 -0.5
v 0.5546875 1 -0.703125
v 0.5546875 1.1875 -0.5
v 0.5 1 -0.709375
v 0.5 1.1875 -0.5
v 0.4453125 1 -0.703125
v 0.4453125 1.1875 -0.5
v 0.5546875 0 -0.5
v 0.5 0 -0.5
v 0.4453125 0 -0.5
v 0.5546875 0 -0.6875
v 0.5 0 -0.69375
v 0.4453125 0 -0.6875
v 0.5546875 0.15625 -0.6875
v 0.609375 0.15625 -0.671875
v 0.609375 0.185546875 -0.5
v 0.5546875 0.185546875 -0.5
v 0.5 0.185546875 -0.5
v 0.4453125 0.185546875 -0.5
v 0.390625 0.185546875 -0.5
v 0.390625 0.15625 -0.671875
v 0.4453125 0.15625 -0.6875
v 0.5 0.15625 -0.69375
vt 0.390625 0.5859375
vt 0.392578125 0.48046875
vt 0.4140625 0.48413046875
vt 0.4140625 0.609375
vt 0.3984375 1
vt 0.3984375 0.87475546875
vt 0.419921875 0.87109375
vt 0.421875 0.9765625
vt 0.6001079282521813 0.39843733343157306
vt 0.5932719907521813 0.39843733343157306
vt 0.5932719907521813 0.36388342718157307
vt 0.6001079282521813 0.3653185834315731
vt 0.59765625 0.9580078125
vt 0.5908203125 0.9599609375
vt 0.5908203125 0.9365234375
vt 0.59765625 0.9365234375
vt 0.085128125 0.49218593750000006
vt 0.0856640625 0.38670078125000007
vt 0.0927734375 0.38670078125000007
vt 0.0922375 0.49218593750000006
vt 0.1484375 0.6875
vt 0.1484375 0.56225546875
vt 0.1552734375 0.56225546875
vt 0.1552734375 0.6875
vt 0.5885248372263499 0.41115533436823937
vt 0.5955833263441594 0.41030625
vt 0.592700171938001 0.444740020915828
vt 0.5860127674058405 0.44418001285645614
vt 0.5955833263441594 0.41030625
vt 0.6024637950941595 0.41030625
vt 0.5994919200941594 0.4453125
vt 0.5927005138441594 0.44473593749999996
vt 0.5864155092478187 0.363309243522115
vt 0.5932719907521813 0.3638832745317825
vt 0.5932719907521813 0.39843733343157306
vt 0.5864568109755874 0.3984375
vt 0.1689453125 0.6875
vt 0.1689453125 0.56225546875
vt 0.17578125 0.56225546875
vt 0.17578125 0.6875
vt 0.162109375 0.6875
vt 0.162109375 0.56225546875
vt 0.1689453125 0.56225546875
vt 0.1689453125 0.6875
vt 0.1552734375 0.6875
vt 0.1552734375 0.56225546875
vt 0.162109375 0.56225546875
vt 0.162109375 0.6875
vt 0.5703125 0.9365234375
vt 0.5771484375 0.9365234375
vt 0.5771484375 0.9599609375
vt 0.5703125 0.9580078125
vt 0.5771484375 0.9365234375
vt 0.583984375 0.9365234375
vt 0.583984375 0.9607421875
vt 0.5771484375 0.9599609375
vt 0.583984375 0.9365234375
vt 0.5908203125 0.9365234375
vt 0.5908203125 0.9599609375
vt 0.583984375 0.9607421875
vt 0.16459921874999994 0.49999843749999995
vt 0.1640625 0.39451328125000007
vt 0.17117265625 0.39451328125000007
vt 0.17170859374999992 0.49999843749999995
vt 0.17139453125 0.5
vt 0.17117265625 0.39451328125000007
vt 0.178053125 0.39451328125000007
vt 0.178275 0.5
vt 0.07856171875 0.4921875
vt 0.07878359375 0.38670078125000007
vt 0.0856640625 0.38670078125000007
vt 0.0854421875 0.4921875
vt 0.17117265625 0.37498203125000007
vt 0.17117265625 0.39451328125000007
vt 0.1640625 0.39451328125000007
vt 0.1640625 0.37498203125000007
vt 0.419921875 0.8515625
vt 0.419921875 0.87109375
vt 0.3984375 0.87475546875
vt 0.3984375 0.8515625
vt 0.17578125 0.5390625
vt 0.17578125 0.56225546875
vt 0.1689453125 0.56225546875
vt 0.1689453125 0.5390625
vt 0.1689453125 0.5390625
vt 0.1689453125 0.56225546875
vt 0.162109375 0.56225546875
vt 0.162109375 0.5390625
vt 0.162109375 0.5390625
vt 0.162109375 0.56225546875
vt 0.1552734375 0.56225546875
vt 0.1552734375 0.5390625
vt 0.1552734375 0.5390625
vt 0.1552734375 0.56225546875
vt 0.1484375 0.56225546875
vt 0.1484375 0.5390625
vt 0.4140625 0.4609375
vt 0.4140625 0.48413046875
vt 0.392578125 0.48046875
vt 0.392578125 0.4609375
vt 0.0927734375 0.36716953125000007
vt 0.0927734375 0.38670078125000007
vt 0.0856640625 0.38670078125000007
vt 0.0856640625 0.36716953125000007
vt 0.0856640625 0.36716953125000007
vt 0.0856640625 0.38670078125000007
vt 0.07878359375 0.38670078125000007
vt 0.07878359375 0.36716953125000007
vt 0.178053125 0.37498203125000007
vt 0.178053125 0.39451328125000007
vt 0.17117265625 0.39451328125000007
vt 0.17117265625 0.37498203125000007
vn -1 0 0
vn 1 0 0
vn 0 0.7348034446274879 -0.6782801027330658
vn 0 -1 0
vn -0.27467758758906335 -0.01780317697336522 -0.9613715565617218
vn 0 0 1
vn 0.19025461941800856 0.7213820986266158 -0.6658911679630299
vn 0.07602163096745172 0.7427946859111421 -0.6651892709652018
vn -0.0772858685040218 0.7326056285277063 -0.6762513494101905
vn 0 0 1
vn 0 0 1
vn 0 0 1
vn 0 -1 0
vn 0 -1 0
vn 0 -1 0
vn 0.27467758758906335 -0.01780317697336522 -0.9613715565617218
vn 0.11352737747652361 -0.018395639868881118 -0.9933645529195803
vn -0.11352737747652354 -0.018395639868881115 -0.9933645529195803
vn 0.274721127897378 0 -0.9615239476408232
vn 1 0 0
vn 0 0 1
vn 0 0 1
vn 0 0 1
vn 0 0 1
vn -1 0 0
vn -0.274721127897378 0 -0.9615239476408232
vn -0.113546591160732 0 -0.9935326726564043
vn 0.11354659116073204 0 -0.9935326726564043
usemtl m_a412791d-ea2d-7bc4-a074-0bc570f883e4
f 235/905/251 262/906/251 261/907/251 236/908/251
f 240/909/252 257/910/252 256/911/252 239/912/252
f 236/913/253 248/914/253 247/915/253 235/916/253
f 237/917/254 254/918/254 251/919/254 238/920/254
f 247/921/255 263/922/255 262/923/255 235/924/255
f 236/925/256 261/926/256 260/927/256 248/928/256
f 239/929/257 243/930/257 244/931/257 240/932/257
f 243/933/258 245/934/258 246/935/258 244/936/258
f 245/937/259 247/938/259 248/939/259 246/940/259
f 244/941/260 258/942/260 257/943/260 240/944/260
f 246/945/261 259/946/261 258/947/261 244/948/261
f 248/949/262 260/950/262 259/951/262 246/952/262
f 242/953/263 249/954/263 252/955/263 241/956/263
f 249/957/264 250/958/264 253/959/264 252/960/264
f 250/961/265 251/962/265 254/963/265 253/964/265
f 239/965/266 256/966/266 255/967/266 243/968/266
f 243/969/267 255/970/267 264/971/267 245/972/267
f 245/973/268 264/974/268 263/975/268 247/976/268
f 252/977/269 255/978/269 256/979/269 241/980/269
f 241/981/270 256/982/270 257/983/270 242/984/270
f 242/985/271 257/986/271 258/987/271 249/988/271
f 249/989/272 258/990/272 259/991/272 250/992/272
f 250/993/273 259/994/273 260/995/273 251/996/273
f 251/997/274 260/998/274 261/999/274 238/1000/274
f 238/1001/275 261/1002/275 262/1003/275 237/1004/275
f 237/1005/276 262/1006/276 263/1007/276 254/1008/276
f 254/1009/277 263/1010/277 264/1011/277 253/1012/277
f 253/1013/278 264/1014/278 255/1015/278 252/1016/278
o cube
v 0.609375 1 0.6875
v 0.609375 1.1875 0.5
v 0.609375 0 0.671875
v 0.609375 0 0.5
v 0.390625 1 0.6875
v 0.390625 1.1875 0.5
v 0.390625 0 0.671875
v 0.390625 0 0.5
v 0.4453125 1 0.703125
v 0.4453125 1.1875 0.5
v 0.5 1 0.709375
v 0.5 1.1875 0.5
v 0.5546875 1 0.703125
v 0.5546875 1.1875 0.5
v 0.4453125 0 0.5
v 0.5 0 0.5
v 0.5546875 0 0.5
v 0.4453125 0 0.6875
v 0.5 0 0.69375
v 0.5546875 0 0.6875
v 0.4453125 0.15625 0.6875
v 0.390625 0.15625 0.671875
v 0.390625 0.185546875 0.5
v 0.4453125 0.185546875 0.5
v 0.5 0.185546875 0.5
v 0.5546875 0.185546875 0.5
v 0.609375 0.185546875 0.5
v 0.609375 0.15625 0.671875
v 0.5546875 0.15625 0.6875
v 0.5 0.15625 0.69375
vt 0.265625 0.5703125
vt 0.267578125 0.46484375
vt 0.2890625 0.46850546875
vt 0.2890625 0.59375
vt 0.296875 0.59375
vt 0.296875 0.46850546875
vt 0.318359375 0.46484375
vt 0.3203125 0.5703125
vt 0.6235454282521813 0.9999998334315731
vt 0.6167094907521813 0.9999998334315731
vt 0.6167094907521813 0.9654459271815731
vt 0.6235454282521813 0.9668810834315731
vt 0.5703125 0.9001953125
vt 0.5771484375 0.8982421875
vt 0.5771484375 0.9216796875
vt 0.5703125 0.9216796875
vt 0.467940625 0.49218593750000006
vt 0.4684765625 0.38670078125000007
vt 0.4755859375 0.38670078125000007
vt 0.47505 0.49218593750000006
vt 0.1875 0.6875
vt 0.1875 0.56225546875
vt 0.1943359375 0.56225546875
vt 0.1943359375 0.6875
vt 0.5963373372263499 0.7392803343682394
vt 0.6033958263441594 0.73843125
vt 0.600512671938001 0.7728650209158281
vt 0.5938252674058405 0.7723050128564561
vt 0.6033958263441594 0.73843125
vt 0.6102762950941595 0.73843125
vt 0.6073044200941594 0.7734375
vt 0.6005130138441594 0.7728609375
vt 0.6098530092478187 0.964871743522115
vt 0.6167094907521813 0.9654457745317825
vt 0.6167094907521813 0.9999998334315731
vt 0.6098943109755874 1
vt 0.2080078125 0.6875
vt 0.2080078125 0.56225546875
vt 0.21484375 0.56225546875
vt 0.21484375 0.6875
vt 0.201171875 0.6875
vt 0.201171875 0.56225546875
vt 0.2080078125 0.56225546875
vt 0.2080078125 0.6875
vt 0.1943359375 0.6875
vt 0.1943359375 0.56225546875
vt 0.201171875 0.56225546875
vt 0.201171875 0.6875
vt 0.59765625 0.9216796875
vt 0.5908203125 0.9216796875
vt 0.5908203125 0.8982421875
vt 0.59765625 0.9001953125
vt 0.5908203125 0.9216796875
vt 0.583984375 0.9216796875
vt 0.583984375 0.8974609375
vt 0.5908203125 0.8982421875
vt 0.583984375 0.9216796875
vt 0.5771484375 0.9216796875
vt 0.5771484375 0.8982421875
vt 0.583984375 0.8974609375
vt 0.18803671874999994 0.49999843749999995
vt 0.1875 0.39451328125000007
vt 0.19461015625 0.39451328125000007
vt 0.19514609374999992 0.49999843749999995
vt 0.19483203125 0.5
vt 0.19461015625 0.39451328125000007
vt 0.201490625 0.39451328125000007
vt 0.2017125 0.5
vt 0.46137421875 0.4921875
vt 0.46159609375 0.38670078125000007
vt 0.4684765625 0.38670078125000007
vt 0.4682546875 0.4921875
vt 0.19461015625 0.37498203125000007
vt 0.19461015625 0.39451328125000007
vt 0.1875 0.39451328125000007
vt 0.1875 0.37498203125000007
vt 0.318359375 0.4453125
vt 0.318359375 0.46484375
vt 0.296875 0.46850546875
vt 0.296875 0.4453125
vt 0.21484375 0.5390625
vt 0.21484375 0.56225546875
vt 0.2080078125 0.56225546875
vt 0.2080078125 0.5390625
vt 0.2080078125 0.5390625
vt 0.2080078125 0.56225546875
vt 0.201171875 0.56225546875
vt 0.201171875 0.5390625
vt 0.201171875 0.5390625
vt 0.201171875 0.56225546875
vt 0.1943359375 0.56225546875
vt 0.1943359375 0.5390625
vt 0.1943359375 0.5390625
vt 0.1943359375 0.56225546875
vt 0.1875 0.56225546875
vt 0.1875 0.5390625
vt 0.2890625 0.4453125
vt 0.2890625 0.46850546875
vt 0.267578125 0.46484375
vt 0.267578125 0.4453125
vt 0.4755859375 0.36716953125000007
vt 0.4755859375 0.38670078125000007
vt 0.4684765625 0.38670078125000007
vt 0.4684765625 0.36716953125000007
vt 0.4684765625 0.36716953125000007
vt 0.4684765625 0.38670078125000007
vt 0.46159609375 0.38670078125000007
vt 0.46159609375 0.36716953125000007
vt 0.201490625 0.37498203125000007
vt 0.201490625 0.39451328125000007
vt 0.19461015625 0.39451328125000007
vt 0.19461015625 0.37498203125000007
vn 1 0 0
vn -1 0 0
vn 0 0.7348034446274879 0.6782801027330658
vn 0 -1 0
vn 0.27467758758906335 -0.01780317697336522 0.9613715565617218
vn 0 0 -1
vn -0.19025461941800856 0.7213820986266158 0.6658911679630299
vn -0.07602163096745172 0.7427946859111421 0.6651892709652018
vn 0.0772858685040218 0.7326056285277063 0.6762513494101905
vn 0 0 -1
vn 0 0 -1
vn 0 0 -1
vn 0 -1 0
vn 0 -1 0
vn 0 -1 0
vn -0.27467758758906335 -0.01780317697336522 0.9613715565617218
vn -0.11352737747652361 -0.018395639868881118 0.9933645529195803
vn 0.11352737747652354 -0.018395639868881115 0.9933645529195803
vn -0.274721127897378 0 0.9615239476408232
vn -1 0 0
vn 0 0 -1
vn 0 0 -1
vn 0 0 -1
vn 0 0 -1
vn 1 0 0
vn 0.274721127897378 0 0.9615239476408232
vn 0.113546591160732 0 0.9935326726564043
vn -0.11354659116073204 0 0.9935326726564043
usemtl m_a412791d-ea2d-7bc4-a074-0bc570f883e4
f 265/1017/279 292/1018/279 291/1019/279 266/1020/279
f 270/1021/280 287/1022/280 286/1023/280 269/1024/280
f 266/1025/281 278/1026/281 277/1027/281 265/1028/281
f 267/1029/282 284/1030/282 281/1031/282 268/1032/282
f 277/1033/283 293/1034/283 292/1035/283 265/1036/283
f 266/1037/284 291/1038/284 290/1039/284 278/1040/284
f 269/1041/285 273/1042/285 274/1043/285 270/1044/285
f 273/1045/286 275/1046/286 276/1047/286 274/1048/286
f 275/1049/287 277/1050/287 278/1051/287 276/1052/287
f 274/1053/288 288/1054/288 287/1055/288 270/1056/288
f 276/1057/289 289/1058/289 288/1059/289 274/1060/289
f 278/1061/290 290/1062/290 289/1063/290 276/1064/290
f 272/1065/291 279/1066/291 282/1067/291 271/1068/291
f 279/1069/292 280/1070/292 283/1071/292 282/1072/292
f 280/1073/293 281/1074/293 284/1075/293 283/1076/293
f 269/1077/294 286/1078/294 285/1079/294 273/1080/294
f 273/1081/295 285/1082/295 294/1083/295 275/1084/295
f 275/1085/296 294/1086/296 293/1087/296 277/1088/296
f 282/1089/297 285/1090/297 286/1091/297 271/1092/297
f 271/1093/298 286/1094/298 287/1095/298 272/1096/298
f 272/1097/299 287/1098/299 288/1099/299 279/1100/299
f 279/1101/300 288/1102/300 289/1103/300 280/1104/300
f 280/1105/301 289/1106/301 290/1107/301 281/1108/301
f 281/1109/302 290/1110/302 291/1111/302 268/1112/302
f 268/1113/303 291/1114/303 292/1115/303 267/1116/303
f 267/1117/304 292/1118/304 293/1119/304 284/1120/304
f 284/1121/305 293/1122/305 294/1123/305 283/1124/305
f 283/1125/306 294/1126/306 285/1127/306 282/1128/306
o cube
v -0.390625 1 0.6875
v -0.390625 1.1875 0.5
v -0.390625 0 0.671875
v -0.390625 0 0.5
v -0.609375 1 0.6875
v -0.609375 1.1875 0.5
v -0.609375 0 0.671875
v -0.609375 0 0.5
v -0.5546875 1 0.703125
v -0.5546875 1.1875 0.5
v -0.5 1 0.709375
v -0.5 1.1875 0.5
v -0.4453125 1 0.703125
v -0.4453125 1.1875 0.5
v -0.5546875 0 0.5
v -0.5 0 0.5
v -0.4453125 0 0.5
v -0.5546875 0 0.6875
v -0.5 0 0.69375
v -0.4453125 0 0.6875
v -0.5546875 0.15625 0.6875
v -0.609375 0.15625 0.671875
v -0.609375 0.185546875 0.5
v -0.5546875 0.185546875 0.5
v -0.5 0.185546875 0.5
v -0.4453125 0.185546875 0.5
v -0.390625 0.185546875 0.5
v -0.390625 0.15625 0.671875
v -0.4453125 0.15625 0.6875
v -0.5 0.15625 0.69375
vt 0.328125 0.5703125
vt 0.330078125 0.46484375
vt 0.3515625 0.46850546875
vt 0.3515625 0.59375
vt 0.359375 0.59375
vt 0.359375 0.46850546875
vt 0.380859375 0.46484375
vt 0.3828125 0.5703125
vt 0.6235454282521813 0.9531248334315731
vt 0.6167094907521813 0.9531248334315731
vt 0.6167094907521813 0.9185709271815731
vt 0.6235454282521813 0.9200060834315731
vt 0.5703125 0.8611328125
vt 0.5771484375 0.8591796875
vt 0.5771484375 0.8826171875
vt 0.5703125 0.8826171875
vt 0.522628125 0.6015609375000001
vt 0.5231640625 0.49607578125000007
vt 0.5302734375 0.49607578125000007
vt 0.5297375 0.6015609375000001
vt 0.2265625 0.6875
vt 0.2265625 0.56225546875
vt 0.2333984375 0.56225546875
vt 0.2333984375 0.6875
vt 0.5963373372263499 0.6455303343682394
vt 0.6033958263441594 0.64468125
vt 0.600512671938001 0.6791150209158281
vt 0.5938252674058405 0.6785550128564561
vt 0.6033958263441594 0.64468125
vt 0.6102762950941595 0.64468125
vt 0.6073044200941594 0.6796875
vt 0.6005130138441594 0.6791109375
vt 0.6098530092478187 0.917996743522115
vt 0.6167094907521813 0.9185707745317825
vt 0.6167094907521813 0.9531248334315731
vt 0.6098943109755874 0.953125
vt 0.2470703125 0.6875
vt 0.2470703125 0.56225546875
vt 0.25390625 0.56225546875
vt 0.25390625 0.6875
vt 0.240234375 0.6875
vt 0.240234375 0.56225546875
vt 0.2470703125 0.56225546875
vt 0.2470703125 0.6875
vt 0.2333984375 0.6875
vt 0.2333984375 0.56225546875
vt 0.240234375 0.56225546875
vt 0.240234375 0.6875
vt 0.59765625 0.8826171875
vt 0.5908203125 0.8826171875
vt 0.5908203125 0.8591796875
vt 0.59765625 0.8611328125
vt 0.5908203125 0.8826171875
vt 0.583984375 0.8826171875
vt 0.583984375 0.8583984375
vt 0.5908203125 0.8591796875
vt 0.583984375 0.8826171875
vt 0.5771484375 0.8826171875
vt 0.5771484375 0.8591796875
vt 0.583984375 0.8583984375
vt 0.21147421874999994 0.49999843749999995
vt 0.2109375 0.39451328125000007
vt 0.21804765625 0.39451328125000007
vt 0.21858359374999992 0.49999843749999995
vt 0.21826953125 0.5
vt 0.21804765625 0.39451328125000007
vt 0.224928125 0.39451328125000007
vt 0.22515 0.5
vt 0.51606171875 0.6015625
vt 0.51628359375 0.49607578125000007
vt 0.5231640625 0.49607578125000007
vt 0.5229421875 0.6015625
vt 0.21804765625 0.37498203125000007
vt 0.21804765625 0.39451328125000007
vt 0.2109375 0.39451328125000007
vt 0.2109375 0.37498203125000007
vt 0.380859375 0.4453125
vt 0.380859375 0.46484375
vt 0.359375 0.46850546875
vt 0.359375 0.4453125
vt 0.25390625 0.5390625
vt 0.25390625 0.56225546875
vt 0.2470703125 0.56225546875
vt 0.2470703125 0.5390625
vt 0.2470703125 0.5390625
vt 0.2470703125 0.56225546875
vt 0.240234375 0.56225546875
vt 0.240234375 0.5390625
vt 0.240234375 0.5390625
vt 0.240234375 0.56225546875
vt 0.2333984375 0.56225546875
vt 0.2333984375 0.5390625
vt 0.2333984375 0.5390625
vt 0.2333984375 0.56225546875
vt 0.2265625 0.56225546875
vt 0.2265625 0.5390625
vt 0.3515625 0.4453125
vt 0.3515625 0.46850546875
vt 0.330078125 0.46484375
vt 0.330078125 0.4453125
vt 0.5302734375 0.47654453125000007
vt 0.5302734375 0.49607578125000007
vt 0.5231640625 0.49607578125000007
vt 0.5231640625 0.47654453125000007
vt 0.5231640625 0.47654453125000007
vt 0.5231640625 0.49607578125000007
vt 0.51628359375 0.49607578125000007
vt 0.51628359375 0.47654453125000007
vt 0.224928125 0.37498203125000007
vt 0.224928125 0.39451328125000007
vt 0.21804765625 0.39451328125000007
vt 0.21804765625 0.37498203125000007
vn 1 0 0
vn -1 0 0
vn 0 0.7348034446274879 0.6782801027330658
vn 0 -1 0
vn 0.27467758758906335 -0.01780317697336522 0.9613715565617218
vn 0 0 -1
vn -0.19025461941800856 0.7213820986266158 0.6658911679630299
vn -0.07602163096745172 0.7427946859111421 0.6651892709652018
vn 0.0772858685040218 0.7326056285277063 0.6762513494101905
vn 0 0 -1
vn 0 0 -1
vn 0 0 -1
vn 0 -1 0
vn 0 -1 0
vn 0 -1 0
vn -0.27467758758906335 -0.01780317697336522 0.9613715565617218
vn -0.11352737747652361 -0.018395639868881118 0.9933645529195803
vn 0.11352737747652354 -0.018395639868881115 0.9933645529195803
vn -0.274721127897378 0 0.9615239476408232
vn -1 0 0
vn 0 0 -1
vn 0 0 -1
vn 0 0 -1
vn 0 0 -1
vn 1 0 0
vn 0.274721127897378 0 0.9615239476408232
vn 0.113546591160732 0 0.9935326726564043
vn -0.11354659116073204 0 0.9935326726564043
usemtl m_a412791d-ea2d-7bc4-a074-0bc570f883e4
f 295/1129/307 322/1130/307 321/1131/307 296/1132/307
f 300/1133/308 317/1134/308 316/1135/308 299/1136/308
f 296/1137/309 308/1138/309 307/1139/309 295/1140/309
f 297/1141/310 314/1142/310 311/1143/310 298/1144/310
f 307/1145/311 323/1146/311 322/1147/311 295/1148/311
f 296/1149/312 321/1150/312 320/1151/312 308/1152/312
f 299/1153/313 303/1154/313 304/1155/313 300/1156/313
f 303/1157/314 305/1158/314 306/1159/314 304/1160/314
f 305/1161/315 307/1162/315 308/1163/315 306/1164/315
f 304/1165/316 318/1166/316 317/1167/316 300/1168/316
f 306/1169/317 319/1170/317 318/1171/317 304/1172/317
f 308/1173/318 320/1174/318 319/1175/318 306/1176/318
f 302/1177/319 309/1178/319 312/1179/319 301/1180/319
f 309/1181/320 310/1182/320 313/1183/320 312/1184/320
f 310/1185/321 311/1186/321 314/1187/321 313/1188/321
f 299/1189/322 316/1190/322 315/1191/322 303/1192/322
f 303/1193/323 315/1194/323 324/1195/323 305/1196/323
f 305/1197/324 324/1198/324 323/1199/324 307/1200/324
f 312/1201/325 315/1202/325 316/1203/325 301/1204/325
f 301/1205/326 316/1206/326 317/1207/326 302/1208/326
f 302/1209/327 317/1210/327 318/1211/327 309/1212/327
f 309/1213/328 318/1214/328 319/1215/328 310/1216/328
f 310/1217/329 319/1218/329 320/1219/329 311/1220/329
f 311/1221/330 320/1222/330 321/1223/330 298/1224/330
f 298/1225/331 321/1226/331 322/1227/331 297/1228/331
f 297/1229/332 322/1230/332 323/1231/332 314/1232/332
f 314/1233/333 323/1234/333 324/1235/333 313/1236/333
f 313/1237/334 324/1238/334 315/1239/334 312/1240/334