# Made in Blockbench 5.1.5
mtllib nyc_subway_platform_barrier_1b.mtl

o cube
v 0.5 1 -0.4375
v 0.5 1 -0.5
v 0.5 0 -0.4375
v 0.5 0 -0.5
v -0.5 1 -0.5
v -0.5 1 -0.4375
v -0.5 0 -0.5
v -0.5 0 -0.4375
vt 0.029411764705882353 1
vt 0.9705882352941176 1
vt 0.9705882352941176 0
vt 0.029411764705882353 0
vt 0.029411764705882353 1
vt 0.9705882352941176 1
vt 0.9705882352941176 0
vt 0.029411764705882353 0
vt 0 1
vt 0.058823529411764705 1
vt 0.058823529411764705 0.99609375
vt 0 0.99609375
vt 0 0.99609375
vt 0.058823529411764705 0.99609375
vt 0.058823529411764705 0.9921875
vt 0 0.9921875
vn 0 0 -1
vn 0 0 1
vn 0 1 0
vn 0 -1 0
usemtl m_96cdfeef-1a12-6e44-6453-20c1ffbe9472
f 4/4/1 7/3/1 5/2/1 2/1/1
f 8/8/2 3/7/2 1/6/2 6/5/2
f 6/12/3 1/11/3 2/10/3 5/9/3
f 7/16/4 4/15/4 3/14/4 8/13/4
o cylinder
v -0.5 1.109375 -0.390625
v 0.5 1.1093750000000002 -0.390625
v -0.5 1.1051882938682638 -0.375
v 0.5 1.105188293868264 -0.375
v -0.5 1.0979367061317362 -0.3791867061317363
v 0.5 1.0979367061317364 -0.3791867061317363
v -0.5 1.09375 -0.3864382938682637
v 0.5 1.0937500000000002 -0.3864382938682637
v -0.5 1.09375 -0.3948117061317363
v 0.5 1.0937500000000002 -0.3948117061317363
v -0.5 1.0979367061317362 -0.4020632938682637
v 0.5 1.0979367061317364 -0.4020632938682637
v -0.5 1.1051882938682638 -0.40625
v 0.5 1.105188293868264 -0.40625
v -0.5 1.1135617061317362 -0.40625
v 0.5 1.1135617061317364 -0.40625
v -0.5 1.1208132938682638 -0.4020632938682637
v 0.5 1.120813293868264 -0.4020632938682637
v -0.5 1.125 -0.3948117061317363
v 0.5 1.1250000000000002 -0.3948117061317363
v -0.5 1.125 -0.3864382938682637
v 0.5 1.1250000000000002 -0.3864382938682637
v -0.5 1.1208132938682638 -0.3791867061317363
v 0.5 1.120813293868264 -0.3791867061317363
v -0.5 1.1135617061317362 -0.375
v 0.5 1.1135617061317364 -0.375
vt 0.0009514745658613104 0.9994945291368862
vt 0.0008240913589563807 1
vt 0 0.9994945291368862
vt 2.673515004152491e-17 0.9375
vt 0.0004926470588235562 0.9375
vt 0.0004926470588235562 1
vt 2.673515004152491e-17 1
vt 2.0408511482080083e-19 0.9989889752621682
vt 0.0004756982218537846 0.9991244748232343
vt 0 1
vt 0.0009515526944299075 0.9994945706392802
vt 0.0008240236957795064 0.9999999999999998
vt 0 0.9994945706392802
vt 2.673515004152491e-17 0.9375
vt 0.0004926470588235562 0.9375
vt 0.0004926470588235562 1
vt 2.673515004152491e-17 1
vt 1.0204255741040042e-19 0.9989890582737724
vt 0.0004757372829306552 0.9991244029311088
vt 0 1
vt 0.0009191176470588235 0.9994765624999999
vt 0.0009191176470588235 1
vt 0 0.99973828125
vt 2.673515004152491e-17 0.9375
vt 0.0004926470588235562 0.9375
vt 0.0004926470588235562 1
vt 2.673515004152491e-17 1
vt 0.0009191176470588235 0.9994765624999999
vt 0.0009191176470588235 1
vt 0 0.99973828125
vt 1.0204255741040042e-19 0.9989890582737724
vt 0.0004757372829306552 0.9991244029311088
vt 0 1
vt 2.673515004152491e-17 0.9375
vt 0.0004926470588235562 0.9375
vt 0.0004926470588235562 1
vt 2.673515004152491e-17 1
vt 0.0009515526944299075 0.9994945706392802
vt 0.0008240236957795064 0.9999999999999998
vt 0 0.9994945706392802
vt 2.0408511482080083e-19 0.9989889752621682
vt 0.0004756982218537846 0.9991244748232343
vt 0 1
vt 2.673515004152491e-17 0.9375
vt 0.0004926470588235562 0.9375
vt 0.0004926470588235562 1
vt 2.673515004152491e-17 1
vt 0.0009514745658613104 0.9994945291368862
vt 0.0008240913589563807 1
vt 0 0.9994945291368862
vt 2.673515004152491e-17 0.9990234375
vt 0.0004926470588235562 0.9990234375
vt 0.00024632352941179143 1
vt 2.673515004152491e-17 0.9375
vt 0.0004926470588235562 0.9375
vt 0.0004926470588235562 1
vt 2.673515004152491e-17 1
vt 0.0004926470588235562 1
vt 2.673515004152491e-17 1
vt 0.00024632352941179143 0.9990234375
vt 0 1
vt 0.00012738320690492967 0.9994945291368862
vt 0.0009514745658613104 1
vt 2.673515004152491e-17 0.9375
vt 0.0004926470588235562 0.9375
vt 0.0004926470588235562 1
vt 2.673515004152491e-17 1
vt 0.00047569822185397116 0.9999999999999999
vt 1.8673788006103275e-16 0.9998645004389338
vt 0.0004756982218539714 0.9989889752621681
vt 9.55118337361348e-17 1
vt 0.00012752899865049657 0.9994945706392804
vt 0.000951552694430003 1
vt 2.673515004152491e-17 0.9375
vt 0.0004926470588235562 0.9375
vt 0.0004926470588235562 1
vt 2.673515004152491e-17 1
vt 0.0004757372829306551 1
vt 0 0.9998646553426636
vt 0.0004757372829306552 0.9989890582737724
vt 0 1
vt 0 0.9994765624999999
vt 0.0009191176470588235 0.99973828125
vt 2.673515004152491e-17 0.9375
vt 0.0004926470588235562 0.9375
vt 0.0004926470588235562 1
vt 2.673515004152491e-17 1
vt 0 1
vt 0 0.9994765624999999
vt 0.0009191176470588235 0.99973828125
vt 0.0004757372829306551 1
vt 0 0.9998646553426636
vt 0.0004757372829306552 0.9989890582737724
vt 2.673515004152491e-17 0.9375
vt 0.0004926470588235562 0.9375
vt 0.0004926470588235562 1
vt 2.673515004152491e-17 1
vt 9.55118337361348e-17 1
vt 0.00012752899865049657 0.9994945706392804
vt 0.000951552694430003 1
vt 0.00047569822185397116 0.9999999999999999
vt 1.8673788006103275e-16 0.9998645004389338
vt 0.0004756982218539714 0.9989889752621681
vt 2.673515004152491e-17 0.9375
vt 0.0004926470588235562 0.9375
vt 0.0004926470588235562 1
vt 2.673515004152491e-17 1
vt 0 1
vt 0.00012738320690492967 0.9994945291368862
vt 0.0009514745658613104 1
vt 0.0004926470588235562 1
vt 2.673515004152491e-17 1
vt 0.00024632352941179143 0.9990234375
vt 2.673515004152491e-17 0.9375
vt 0.0004926470588235562 0.9375
vt 0.0004926470588235562 1
vt 2.673515004152491e-17 1
vt 2.673515004152491e-17 0.9990234375
vt 0.0004926470588235562 0.9990234375
vt 0.00024632352941179143 1
vn -1 -2.220446049250313e-16 0
vn 1.1102230246251563e-16 -0.4999999999999999 0.8660254037844388
vn 1 2.220446049250313e-16 0
vn -1 -2.220446049250313e-16 0
vn 1.9229626863835643e-16 -0.8660254037844388 0.5
vn 1 2.220446049250313e-16 0
vn -1 -2.220446049250313e-16 0
vn 2.220446049250313e-16 -1 0
vn 1 2.220446049250313e-16 0
vn -1 -2.220446049250313e-16 0
vn 1.9229626863835643e-16 -0.8660254037844388 -0.5
vn 1 2.220446049250313e-16 0
vn -1 -2.220446049250313e-16 0
vn 1.1102230246251568e-16 -0.5000000000000001 -0.8660254037844388
vn 1 2.220446049250313e-16 0
vn -1 -2.220446049250313e-16 0
vn 9.200215557467481e-32 -4.143408735633879e-16 -1
vn 1 2.220446049250313e-16 0
vn -1 -2.220446049250313e-16 0
vn -1.1102230246251557e-16 0.4999999999999996 -0.8660254037844389
vn 1 2.220446049250313e-16 0
vn -1 -2.220446049250313e-16 0
vn -1.9229626863835646e-16 0.8660254037844389 -0.4999999999999998
vn 1 2.220446049250313e-16 0
vn -1 -2.220446049250313e-16 0
vn -2.220446049250313e-16 1 -2.0717043678169412e-16
vn 1 2.220446049250313e-16 0
vn -1 -2.220446049250313e-16 0
vn -1.9229626863835646e-16 0.8660254037844389 0.4999999999999996
vn 1 2.220446049250313e-16 0
vn -1 -2.220446049250313e-16 0
vn -1.1102230246251563e-16 0.4999999999999999 0.8660254037844386
vn 1 2.220446049250313e-16 0
vn -1 -2.220446049250313e-16 0
vn 0 0 1
vn 1 2.220446049250313e-16 0
usemtl m_96cdfeef-1a12-6e44-6453-20c1ffbe9472
f 13/17/5 11/18/5 9/19/5
f 11/20/6 13/21/6 14/22/6 12/23/6
f 12/24/7 14/25/7 10/26/7
f 15/27/8 13/28/8 9/29/8
f 13/30/9 15/31/9 16/32/9 14/33/9
f 14/34/10 16/35/10 10/36/10
f 17/37/11 15/38/11 9/39/11
f 15/40/12 17/41/12 18/42/12 16/43/12
f 16/44/13 18/45/13 10/46/13
f 19/47/14 17/48/14 9/49/14
f 17/50/15 19/51/15 20/52/15 18/53/15
f 18/54/16 20/55/16 10/56/16
f 21/57/17 19/58/17 9/59/17
f 19/60/18 21/61/18 22/62/18 20/63/18
f 20/64/19 22/65/19 10/66/19
f 23/67/20 21/68/20 9/69/20
f 21/70/21 23/71/21 24/72/21 22/73/21
f 22/74/22 24/75/22 10/76/22
f 25/77/23 23/78/23 9/79/23
f 23/80/24 25/81/24 26/82/24 24/83/24
f 24/84/25 26/85/25 10/86/25
f 27/87/26 25/88/26 9/89/26
f 25/90/27 27/91/27 28/92/27 26/93/27
f 26/94/28 28/95/28 10/96/28
f 29/97/29 27/98/29 9/99/29
f 27/100/30 29/101/30 30/102/30 28/103/30
f 28/104/31 30/105/31 10/106/31
f 31/107/32 29/108/32 9/109/32
f 29/110/33 31/111/33 32/112/33 30/113/33
f 30/114/34 32/115/34 10/116/34
f 33/117/35 31/118/35 9/119/35
f 31/120/36 33/121/36 34/122/36 32/123/36
f 32/124/37 34/125/37 10/126/37
f 11/127/38 33/128/38 9/129/38
f 33/130/39 11/131/39 12/132/39 34/133/39
f 34/134/40 12/135/40 10/136/40