# Made in Blockbench 5.1.6
mtllib nyc_subway_ticket_machine_4_light_layer.mtl

o cube
v -0.5 1.874375 -0.375
v 0.5 1.874375 -0.375
v 0.5 1.874375 0.5
v -0.5 1.874375 0.5
vt 0.375 0.890625
vt 0.25 0.890625
vt 0.25 1
vt 0.375 1
vn 0 -1 0
usemtl m_7a6dd520-f662-075a-744c-fb551ae1b23f
f 1/1/1 2/2/1 3/3/1 4/4/1
o cube
v 0.5 1.25 0.375625
v 0.5 1.875 0.375625
v -0.5 1.875 0.375625
v -0.5 1.25 0.375625
vt 0.296875 0.578125
vt 0.296875 0.65625
vt 0.171875 0.65625
vt 0.171875 0.578125
vn 0 0 1
usemtl m_7a6dd520-f662-075a-744c-fb551ae1b23f
f 5/5/2 6/6/2 7/7/2 8/8/2
o cube
v 0.03125 0.5625 0.375625
v 0.5 0.5625 0.375625
v 0.5 1.25 0.375625
v 0.03125 1.25 0.375625
vt 0.234375 0.4921875
vt 0.29296875 0.4921875
vt 0.29296875 0.578125
vt 0.234375 0.578125
vn 0 0 1
usemtl m_7a6dd520-f662-075a-744c-fb551ae1b23f
f 9/9/3 10/10/3 11/11/3 12/12/3
o cube
v 0.15625 0.859375 0.438125
v 0.15625 1.21875 0.313125
v -0.4375 1.21875 0.313125
v -0.4375 0.859375 0.438125
vt 0.49609375 0.7961882812500001
vt 0.49609375 0.84375
vt 0.421875 0.84375
vt 0.421875 0.7961882812500001
vn 0 0.32852062494127277 0.9444967967061593
usemtl m_7a6dd520-f662-075a-744c-fb551ae1b23f
f 13/13/4 14/14/4 15/15/4 16/16/4