# Made in Blockbench 5.1.6
mtllib nyc_subway_lcd_pids.mtl

o main
v 0.3899409725180114 0.7235877551174521 0.553125
v 0.3899409725180114 0.7329627551174521 -0.5
v 0.21414375 -0.050902750667493744 0.553125
v 0.21414480469664607 -0.06029127814400739 -0.5
v -0.38992791598251486 0.7228978538609252 0.5531249999999999
v -0.38992791598251497 0.732272853860925 -0.5000000000000001
v -0.21414375 -0.0509 0.553125
v -0.21414375 -0.06096765192402072 -0.5
v 0.3696497587113142 0.6414350044499584 0.5625
v 0.3696567993078539 0.6414334435872837 -0.5
v -0.3696367021758178 0.6407451031934313 -0.5000000000000001
v -0.3696367021758177 0.6407451031934315 0.5624999999999999
v 0.23437499999999997 0.031250000000000014 0.5625
v 0.23442897790680362 0.031238033386161004 -0.5
v -0.23436194346450304 0.030560098743473013 -0.5
v -0.23436194346450293 0.030560098743473166 0.5625
v 0.36965327900958406 0.641434224018621 0.46875
v 0.3899409725180114 0.7329627551174521 0.46875
v -0.3899279159825149 0.7322728538609251 0.4687499999999999
v -0.36963670217581773 0.6407451031934314 0.4687499999999999
v -0.23436194346450298 0.03056009874347309 0.46875
v -0.21414375 -0.06096765192402064 0.46875
v 0.21411429544497446 -0.06028451440575057 0.46875
v 0.2344019889534018 0.03124401669308051 0.46875
v 0.21893920612788692 0.03184823059986874 -0.5
v 0.2189122406432096 0.031854208703897324 0.46875
v 0.23450836313558843 0.031860186807925794 0.5625
v -0.2344972186230352 0.031170285551399002 0.5625
v -0.21887221862303527 0.03117028555139889 0.46875
v -0.21887221862303533 0.03117028555139878 -0.5
v 0.35389657148685294 0.6408232481788879 -0.5
v 0.35389302771992803 0.6408240338131008 0.46875
v 0.3695143285288965 0.6408248194473137 0.5625
v -0.3695014274175066 0.6401349181907868 0.5624999999999999
v -0.35387642741750663 0.6401349181907867 0.4687499999999999
v -0.3538764274175067 0.6401349181907866 -0.5000000000000001
v 0.3696532555409289 0.6414342292214966 0.46937499999953775
v 0.3899409725180114 0.7329627551174521 0.46937499999953775
v -0.3899279159825149 0.7322728538609251 0.46937499999953763
v -0.36963670217581773 0.6407451031934314 0.46937499999953763
v -0.36950142741750663 0.6401349181907867 0.46937499999953763
v -0.23449721862303524 0.03117028555139889 0.46937499999953775
v -0.23436194346450298 0.03056009874347309 0.46937499999953775
v -0.21414375 -0.06096765192402064 0.46937499999953775
v 0.21414375 -0.060284469314162224 0.46937499999953775
v 0.23440180902704594 0.031244056581793276 0.46937499999953775
v 0.2345370608733119 0.03185424855792415 0.46937499999953775
v 0.3695180040948152 0.6408240390506622 0.46937499999953775
v 0.3899409725180114 0.7329627551174521 0.53125
v 0.36965093214407085 0.6414347443061793 0.53125
v 0.3695155619402786 0.6408245575692427 0.53125
v 0.2345179932489184 0.03185819410658297 0.53125
v 0.23438399631780057 0.03124800556436018 0.53125
v 0.21414375 -0.06028000524691269 0.53125
v -0.21414375 -0.0605074335315494 0.53125
v -0.23436194346450295 0.03056009874347314 0.53125
v -0.23449721862303521 0.031170285551398964 0.53125
v -0.3695014274175066 0.6401349181907868 0.5312499999999999
v -0.3696367021758177 0.6407451031934315 0.5312499999999999
v -0.38992791598251486 0.7322728538609252 0.5312499999999999
v 0.3831772345824457 0.7024535048949542 0.5625
v -0.38316417804694913 0.7017636036384273 0.5624999999999999
v -0.38316417804694913 0.7017636036384273 0.5312499999999999
v -0.3831641780469492 0.7017636036384272 0.46937499999953763
v -0.3831641780469492 0.7017636036384272 0.4687499999999999
v -0.38316417804694924 0.701763603638427 -0.5000000000000001
v 0.3831795814479589 0.702452984607396 -0.5
v 0.3831784080152023 0.7024532447511751 0.46875
v 0.38317840019231725 0.7024532464854669 0.46937499999953775
v 0.3831776257266979 0.7024534181803612 0.53125
v 0.22088563519248772 -0.029776936979417926 0.5625
v -0.22088128421746972 -0.030005006441679027 0.5625
v -0.22088128421746972 -0.030159983553847986 0.53125
v -0.22088128421746972 -0.03046683823594483 0.46937499999953775
v -0.22088128421746972 -0.03046683823594483 0.46875
v -0.22088128421746975 -0.030466838235944906 -0.5
v 0.2209043260810102 -0.029789944312245263 -0.5
v 0.2208749899376131 -0.029783440645831598 0.46875
v 0.22089456906372484 -0.029783397288055537 0.46937499999953775
v 0.22088863313585586 -0.029779104868222488 0.53125
vt 0.0078125 0.9861778846153846
vt 0.0078125 0.9849757953582812
vt 0.015625 0.9849757953582812
vt 0.015625 0.9861778846153846
vt 0 0.9861778846153846
vt 0 0.9849757953582812
vt 0.0078125 0.9849757953582812
vt 0.0078125 0.9861778846153846
vt 0 1
vt 0 0.9921875
vt 0.015625 0.9921875
vt 0.015625 1
vt 0.015625 0.984375
vt 0.015625 0.9921875
vt 0 0.9921875
vt 0 0.984375
vt 0 0.9861778846153846
vt 0 0.9849757953582812
vt 0.015625 0.9849757953582812
vt 0.015625 0.9861778846153846
vt 0 0.9861778846153846
vt 0 0.9849757953582812
vt 0.015625 0.9849757953582812
vt 0.015625 0.9861778846153846
vt 0.0078125 1
vt 0.0078125 0.9993990384615384
vt 0.015625 0.9993990384615384
vt 0.015625 1
vt 0 1
vt 0 0.9993990384615384
vt 0.015625 0.9993990384615384
vt 0.015625 1
vt 0 1
vt 0 0.9993990384615384
vt 0.0078125 0.9993990384615384
vt 0.0078125 1
vt 0 1
vt 0 0.9993990384615384
vt 0.015625 0.9993990384615384
vt 0.015625 1
vt 0.0078125 0.9981971153846154
vt 0.0078125 0.9981850961538817
vt 0.015625 0.9981850961538817
vt 0.015625 0.9981971153846154
vt 0 0.9981971153846154
vt 0 0.9981850961538817
vt 0.015625 0.9981850961538817
vt 0.015625 0.9981971153846154
vt 0 0.9981971153846154
vt 0 0.9981850961538817
vt 0.0078125 0.9981850961538817
vt 0.0078125 0.9981971153846154
vt 0 0.9981971153846154
vt 0 0.9981850961538817
vt 0.015625 0.9981850961538817
vt 0.015625 0.9981971153846154
vt 0.00776041666670519 1
vt 0.00776041666670519 0.9993990384615384
vt 0.0078125 0.9993990384615384
vt 0.0078125 1
vt 0 0.9921875
vt 0 0.9921354166667052
vt 0.015625 0.9921354166667052
vt 0.015625 0.9921875
vt 0.0078125 1
vt 0.0078125 0.9993990384615384
vt 0.00786458333329481 0.9993990384615384
vt 0.00786458333329481 1
vt 0.0078125 0.9981850961538817
vt 0.00786458333329481 0.9981850961538817
vt 0.00786458333329481 0.9981971153846154
vt 0.0078125 0.9981971153846154
vt 0.0078125 0.9861778846153846
vt 0.0078125 0.9849757953582812
vt 0.00786458333329481 0.9849757953582812
vt 0.00786458333329481 0.9861778846153846
vt 0.015625 0.9921875
vt 0.015625 0.9922395833332948
vt 0 0.9922395833332948
vt 0 0.9921875
vt 0.00776041666670519 0.9861778846153846
vt 0.00776041666670519 0.9849757953582812
vt 0.0078125 0.9849757953582812
vt 0.0078125 0.9861778846153846
vt 0.0078125 0.9981971153846154
vt 0.00776041666670519 0.9981971153846154
vt 0.00776041666670519 0.9981850961538817
vt 0.0078125 0.9981850961538817
vt 0.015625 0.9861778846153846
vt 0.015625 0.9861899038816782
vt 0.0078125 0.9861899038816782
vt 0.0078125 0.9861778846153846
vt 0.0078125 0.9861899038816782
vt 0.00776041666670519 0.9861778846153846
vt 0.00776041666670519 0.9861899038816782
vt 0.0078125 0.9861778846153846
vt 0.015625 0.9861778846153846
vt 0.015625 0.9861899038816782
vt 0 0.9861899038816782
vt 0 0.9861778846153846
vt 0.0078125 0.9861778846153846
vt 0.00786458333329481 0.9861899038816782
vt 0.00786458333329481 0.9861778846153846
vt 0.0078125 0.9861899038816782
vt 0.0078125 0.9861778846153846
vt 0.0078125 0.9861899038816782
vt 0 0.9861899038816782
vt 0 0.9861778846153846
vt 0.015625 0.9861778846153846
vt 0.015625 0.9861899038816782
vt 0 0.9861899038816782
vt 0 0.9861778846153846
vt 0.015625 0.9861899038816782
vt 0.015625 0.9981850961538817
vt 0.0078125 0.9981850961538817
vt 0.0078125 0.9861899038816782
vt 0.0078125 0.9981850961538817
vt 0.00776041666670519 0.9981850961538817
vt 0.00776041666670519 0.9861899038816782
vt 0.0078125 0.9861899038816782
vt 0.015625 0.9861899038816782
vt 0.015625 0.9981850961538817
vt 0 0.9981850961538817
vt 0 0.9861899038816782
vt 0.0078125 0.9861899038816782
vt 0.00786458333329481 0.9861899038816782
vt 0.00786458333329481 0.9981850961538817
vt 0.0078125 0.9981850961538817
vt 0.0078125 0.9861899038816782
vt 0.0078125 0.9981850961538817
vt 0 0.9981850961538817
vt 0 0.9861899038816782
vt 0.015625 0.9861899038816782
vt 0.015625 0.9981850961538817
vt 0 0.9981850961538817
vt 0 0.9861899038816782
vt 0 1
vt 0 0.9993990384615384
vt 0.0026041666666666674 0.9993990384615384
vt 0.0026041666666666674 1
vt 0.015625 0.984375
vt 0.015625 0.9869791666666666
vt 0 0.9869791666666666
vt 0 0.984375
vt 0.013020833333333332 1
vt 0.013020833333333332 0.9993990384615384
vt 0.015625 0.9993990384615384
vt 0.015625 1
vt 0.015625 0.9981971153846154
vt 0.013020833333333332 0.9981971153846154
vt 0.013020833333333332 0.9981850961538817
vt 0.015625 0.9981850961538817
vt 0.015625 0.9981850961538817
vt 0.013020833333333332 0.9981850961538817
vt 0.013020833333333332 0.9861899038816782
vt 0.015625 0.9861899038816782
vt 0.015625 0.9861899038816782
vt 0.013020833333333332 0.9861899038816782
vt 0.013020833333333332 0.9861778846153846
vt 0.015625 0.9861778846153846
vt 0.013020833333333332 0.9861778846153846
vt 0.013020833333333332 0.9849757953582812
vt 0.015625 0.9849757953582812
vt 0.015625 0.9861778846153846
vt 0 1
vt 0 0.9973958333333334
vt 0.015625 0.9973958333333334
vt 0.015625 1
vt 0 0.9861778846153846
vt 0 0.9849757953582812
vt 0.0026041666666666674 0.9849757953582812
vt 0.0026041666666666674 0.9861778846153846
vt 0 0.9861778846153846
vt 0.0026041666666666674 0.9861778846153846
vt 0.0026041666666666674 0.9861899038816782
vt 0 0.9861899038816782
vt 0 0.9861899038816782
vt 0.0026041666666666674 0.9861899038816782
vt 0.0026041666666666674 0.9981850961538817
vt 0 0.9981850961538817
vt 0 0.9981850961538817
vt 0.0026041666666666674 0.9981850961538817
vt 0.0026041666666666674 0.9981971153846154
vt 0 0.9981971153846154
vt 0.0026041666666666674 1
vt 0.0026041666666666674 0.9993990384615384
vt 0.00776041666670519 0.9993990384615384
vt 0.00776041666670519 1
vt 0.00776041666670519 0.9981971153846154
vt 0.0026041666666666674 0.9981971153846154
vt 0.0026041666666666674 0.9981850961538817
vt 0.00776041666670519 0.9981850961538817
vt 0.00776041666670519 0.9981850961538817
vt 0.0026041666666666674 0.9981850961538817
vt 0.0026041666666666674 0.9861899038816782
vt 0.00776041666670519 0.9861899038816782
vt 0.00776041666670519 0.9861899038816782
vt 0.0026041666666666674 0.9861899038816782
vt 0.0026041666666666674 0.9861778846153846
vt 0.00776041666670519 0.9861778846153846
vt 0.0026041666666666674 0.9861778846153846
vt 0.0026041666666666674 0.9849757953582812
vt 0.00776041666670519 0.9849757953582812
vt 0.00776041666670519 0.9861778846153846
vt 0.015625 0.9922395833332948
vt 0.015625 0.9973958333333334
vt 0 0.9973958333333334
vt 0 0.9922395833332948
vt 0.00786458333329481 0.9861778846153846
vt 0.00786458333329481 0.9849757953582812
vt 0.013020833333333332 0.9849757953582812
vt 0.013020833333333332 0.9861778846153846
vt 0.00786458333329481 0.9861778846153846
vt 0.013020833333333332 0.9861778846153846
vt 0.013020833333333332 0.9861899038816782
vt 0.00786458333329481 0.9861899038816782
vt 0.00786458333329481 0.9861899038816782
vt 0.013020833333333332 0.9861899038816782
vt 0.013020833333333332 0.9981850961538817
vt 0.00786458333329481 0.9981850961538817
vt 0.00786458333329481 0.9981850961538817
vt 0.013020833333333332 0.9981850961538817
vt 0.013020833333333332 0.9981971153846154
vt 0.00786458333329481 0.9981971153846154
vt 0.00786458333329481 1
vt 0.00786458333329481 0.9993990384615384
vt 0.013020833333333332 0.9993990384615384
vt 0.013020833333333332 1
vt 0 0.9921354166667052
vt 0 0.9869791666666666
vt 0.015625 0.9869791666666666
vt 0.015625 0.9921354166667052
vt 0.015625 0.9981971153846154
vt 0.015625 0.9993990384615384
vt 0 0.9993990384615384
vt 0 0.9981971153846154
vt 0.015625 0.9981971153846154
vt 0.015625 0.9993990384615384
vt 0.013020833333333332 0.9993990384615384
vt 0.013020833333333332 0.9981971153846154
vt 0.013020833333333332 0.9981971153846154
vt 0.013020833333333332 0.9993990384615384
vt 0.00786458333329481 0.9993990384615384
vt 0.00786458333329481 0.9981971153846154
vt 0.00786458333329481 0.9981971153846154
vt 0.00786458333329481 0.9993990384615384
vt 0.0078125 0.9993990384615384
vt 0.0078125 0.9981971153846154
vt 0.0078125 0.9981971153846154
vt 0.0078125 0.9993990384615384
vt 0 0.9993990384615384
vt 0 0.9981971153846154
vt 0.015625 0.9981971153846154
vt 0.015625 0.9993990384615384
vt 0 0.9993990384615384
vt 0 0.9981971153846154
vt 0.015625 0.9981971153846154
vt 0.015625 0.9993990384615384
vt 0.0078125 0.9993990384615384
vt 0.0078125 0.9981971153846154
vt 0.0078125 0.9981971153846154
vt 0.0078125 0.9993990384615384
vt 0.00776041666670519 0.9993990384615384
vt 0.00776041666670519 0.9981971153846154
vt 0.00776041666670519 0.9981971153846154
vt 0.00776041666670519 0.9993990384615384
vt 0.0026041666666666674 0.9993990384615384
vt 0.0026041666666666674 0.9981971153846154
vt 0.0026041666666666674 0.9981971153846154
vt 0.0026041666666666674 0.9993990384615384
vt 0 0.9993990384615384
vt 0 0.9981971153846154
vt 0.015625 0.984375
vt 0.015625 0.9849757953582812
vt 0 0.9849757953582812
vt 0 0.984375
vt 0.015625 0.984375
vt 0.015625 0.9849757953582812
vt 0.013020833333333332 0.9849757953582812
vt 0.013020833333333332 0.984375
vt 0.013020833333333332 0.984375
vt 0.013020833333333332 0.9849757953582812
vt 0.00786458333329481 0.9849757953582812
vt 0.00786458333329481 0.984375
vt 0.00786458333329481 0.984375
vt 0.00786458333329481 0.9849757953582812
vt 0.0078125 0.9849757953582812
vt 0.0078125 0.984375
vt 0.0078125 0.984375
vt 0.0078125 0.9849757953582812
vt 0 0.9849757953582812
vt 0 0.984375
vt 0.015625 0.984375
vt 0.015625 0.9849757953582812
vt 0 0.9849757953582812
vt 0 0.984375
vt 0.015625 0.984375
vt 0.015625 0.9849757953582812
vt 0.0078125 0.9849757953582812
vt 0.0078125 0.984375
vt 0.0078125 0.984375
vt 0.0078125 0.9849757953582812
vt 0.00776041666670519 0.9849757953582812
vt 0.00776041666670519 0.984375
vt 0.00776041666670519 0.984375
vt 0.00776041666670519 0.9849757953582812
vt 0.0026041666666666674 0.9849757953582812
vt 0.0026041666666666674 0.984375
vt 0.0026041666666666674 0.984375
vt 0.0026041666666666674 0.9849757953582812
vt 0 0.9849757953582812
vt 0 0.984375
vn 0.9763043305290956 -0.21640206382573107 0.00003101771424410989
vn -0.9764603376883173 -0.21569703039591773 4.476840289024018e-17
vn -0.0008846371444577009 0.9999996087084849 -1.1455293088425282e-16
vn 0.0015951519332644644 -0.9999987277196202 0.000007032151270439828
vn 0 0 1
vn 0 0 -1
vn 0.9763043309979949 -0.2164020639296639 0.0000012406948470580415
vn 1.4490160406328726e-16 -3.21122183277935e-17 -1
vn -0.9762960071199334 -0.21643961393810304 8.147604454910413e-17
vn -0.00036495417232705797 0.4053906168746062 0.9141434868544863
vn 0.038688049294986565 -0.9992513371724068 9.51894159749185e-7
vn 1.609031239575192e-16 -4.1558324690578325e-15 -1
vn -0.0386876623857376 -0.9992513521527642 1.1663940177665606e-16
vn -1.5019886793899154e-16 -3.329828735708931e-17 1
vn 0.9763042754307676 -0.21640231424649445 0.000012820513442994878
vn -0.0008846371444577008 0.9999996087084848 0
vn -0.9762960071199334 -0.21643961393810307 0
vn -0.03996646942606498 -0.008860352956441641 -0.999161736390612
vn -0.9764603376883174 -0.21569703039591726 0
vn 0.001595147513474391 -0.99999872774681 -0.0000030285267738408927
vn 0.9759151268677572 -0.21599983231400047 -0.030557120136121503
vn 0.9763042747888938 -0.21640231410417599 0.00003846154025517994
vn 0.03936302643838324 0.9992249757306416 -0.000005070480275197021
vn -0.03996695161146189 0.008858857878381352 0.9991617303599942
vn 0 0 1
vn 0.9762960071199408 0.21643961393806935 0
vn -0.03936247530776434 0.9992249974543499 -1.1224351319561388e-16
vn 0 0 -1
vn 0.9763126534264438 -0.2163645136000299 0.000003746898429862445
vn 0.03996653328622941 -0.00885876515467837 -0.9991617479152287
vn -1.5026105182357103e-16 3.331250663036123e-17 1
vn -0.039966469426065056 -0.008860352956441078 -0.999161736390612
vn -0.9762960071199333 -0.21643961393810357 9.186666725222028e-17
vn 1.5700490903870735e-16 -1.4750606870479704e-16 -1
vn 0.9524156151903318 -0.3048023880789493 0.000012766806675516539
vn -0.0008131098840676993 0.9191447261727035 0.3939191683597314
vn -0.9762960071199334 -0.21643961393810304 0
vn -0.9762960071199293 -0.21643961393812214 0
vn -0.9762960071199333 -0.21643961393810357 0
vn -0.9762960071199425 -0.21643961393806235 1.131450911881851e-15
vn -0.9762296900878997 -0.21673586894154195 0.0010748511703036802
vn 0.0004861923300639706 -0.9155857544055902 0.4021224812747534
vn 0.9764309859078402 -0.21582983564637917 0.00010864575625717379
vn 0.9767264955807606 -0.21448838169350234 0.00029487120740138685
vn 0.9762983382014591 -0.21642887010243517 0.00031466053570615557
vn 0.9762638571010833 -0.21658457860662558 0.00004034731855921654
vn 0.9762987818264407 -0.2164270972864598 0.00001282051342758987
vn 0.9762638571736275 -0.21658457862271957 0.000038461539835854536
vn 0.97629838573906 -0.21642888064071927 0.000040347376610248214
vn 0.9767264896874924 -0.21448838039934529 0.0003146687382950644
vn 0.9764108855826567 -0.21592075099637928 0.00010865013496902199
vn 0.000531017720525862 -0.999999856407519 0.00007214653104638582
vn -0.9764597790282159 -0.21569690698965055 0.001069698679969066
vn -0.9762960071199424 -0.21643961393806233 6.199845500033772e-16
vn -0.9762960071199334 -0.2164396139381036 6.928015932862162e-16
vn -0.9762960071199291 -0.2164396139381221 1.2642414477677811e-15
vn -0.9762960071199335 -0.2164396139381031 1.2756350409107873e-15
vn -0.0008846371444575585 0.9999996087084849 -1.7935054835279333e-15
vn -1.4490208023830023e-16 3.212401779469026e-17 1
vn -0.9762960071199333 -0.2164396139381034 0
vn -0.9762960071199333 -0.21643961393810343 1.2616170734282533e-15
vn -0.9762960071199334 -0.21643961393810346 0
vn -0.9762960071199334 -0.21643961393810343 8.058070340021303e-17
vn 1.4484383059578212e-16 3.211110415984314e-17 -1
vn 0.9763126534325458 -0.21636451360138148 0.0000012406948443059146
vn 0.9763043309185109 -0.21640206391204686 0.000012820513441481105
vn 0.9763042754307675 -0.21640231424649484 0.000012820513419272845
vn 0.9762987818264407 -0.2164270972864594 0.000012820513427049769
vn 0.0002094386667595785 -0.405679364972521 0.914015431473089
vn -0.9515445340072111 -0.3075071936460993 0.0015250104589584932
vn -0.9762296900878996 -0.2167358689415418 0.0010748511703037207
vn -0.9764603376883176 -0.2156970303959168 0
vn -0.9764603376883176 -0.2156970303959168 4.568271686762205e-17
vn 0 0 -1
vn 0.9763126529636428 -0.21636451349746658 0.00003101771417528302
vn 0.975848481456405 -0.21630102291354938 -0.030555011467531965
vn 0.9763710647473233 -0.21610074529589926 0.00010865880143357043
vn 0.9764108855826565 -0.21592075099637958 0.00010865013496855905
usemtl m_02e910fe-f7e2-bd7c-00c2-5e0a9f0726ad
f 24/1/1 78/2/1 77/3/1 14/4/1
f 15/5/2 76/6/2 75/7/2 21/8/2
f 6/9/3 19/10/3 18/11/3 2/12/3
f 4/13/4 23/14/4 22/15/4 8/16/4
f 16/17/5 72/18/5 71/19/5 13/20/5
f 14/21/6 77/22/6 76/23/6 15/24/6
f 18/25/7 68/26/7 67/27/7 2/28/7
f 2/29/8 67/30/8 66/31/8 6/32/8
f 6/33/9 66/34/9 65/35/9 19/36/9
f 5/37/10 62/38/10 61/39/10 1/40/10
f 17/41/11 32/42/11 31/43/11 10/44/11
f 10/45/12 31/46/12 36/47/12 11/48/12
f 11/49/13 36/50/13 35/51/13 20/52/13
f 12/53/14 34/54/14 33/55/14 9/56/14
f 38/57/15 69/58/15 68/59/15 18/60/15
f 19/61/16 39/62/16 38/63/16 18/64/16
f 19/65/17 65/66/17 64/67/17 39/68/17
f 35/69/18 41/70/18 40/71/18 20/72/18
f 21/73/19 75/74/19 74/75/19 43/76/19
f 23/77/20 45/78/20 44/79/20 22/80/20
f 46/81/21 79/82/21 78/83/21 24/84/21
f 17/85/22 37/86/22 48/87/22 32/88/22
f 14/89/23 25/90/23 26/91/23 24/92/23
f 26/93/24 46/94/24 47/95/24 24/96/24
f 13/97/25 27/98/25 28/99/25 16/100/25
f 21/101/26 42/102/26 43/103/26 29/104/26
f 21/105/27 29/106/27 30/107/27 15/108/27
f 15/109/28 30/110/28 25/111/28 14/112/28
f 25/113/29 31/114/29 32/115/29 26/116/29
f 32/117/30 48/118/30 47/119/30 26/120/30
f 27/121/31 33/122/31 34/123/31 28/124/31
f 29/125/32 42/126/32 41/127/32 35/128/32
f 29/129/33 35/130/33 36/131/33 30/132/33
f 30/133/34 36/134/34 31/135/34 25/136/34
f 1/137/35 61/138/35 70/139/35 49/140/35
f 1/141/36 49/142/36 60/143/36 5/144/36
f 60/145/37 63/146/37 62/147/37 5/148/37
f 12/149/38 59/150/38 58/151/38 34/152/38
f 34/153/39 58/154/39 57/155/39 28/156/39
f 28/157/40 57/158/40 56/159/40 16/160/40
f 56/161/41 73/162/41 72/163/41 16/164/41
f 7/165/42 55/166/42 54/167/42 3/168/42
f 13/169/43 71/170/43 80/171/43 53/172/43
f 13/173/44 53/174/44 52/175/44 27/176/44
f 27/177/45 52/178/45 51/179/45 33/180/45
f 33/181/46 51/182/46 50/183/46 9/184/46
f 49/185/47 70/186/47 69/187/47 38/188/47
f 37/189/48 50/190/48 51/191/48 48/192/48
f 48/193/49 51/194/49 52/195/49 47/196/49
f 47/197/50 52/198/50 53/199/50 46/200/50
f 53/201/51 80/202/51 79/203/51 46/204/51
f 45/205/52 54/206/52 55/207/52 44/208/52
f 43/209/53 74/210/53 73/211/53 56/212/53
f 43/213/54 56/214/54 57/215/54 42/216/54
f 42/217/55 57/218/55 58/219/55 41/220/55
f 41/221/56 58/222/56 59/223/56 40/224/56
f 39/225/57 64/226/57 63/227/57 60/228/57
f 39/229/58 60/230/58 49/231/58 38/232/58
f 9/233/59 61/234/59 62/235/59 12/236/59
f 12/237/60 62/238/60 63/239/60 59/240/60
f 59/241/61 63/242/61 64/243/61 40/244/61
f 40/245/62 64/246/62 65/247/62 20/248/62
f 20/249/63 65/250/63 66/251/63 11/252/63
f 11/253/64 66/254/64 67/255/64 10/256/64
f 10/257/65 67/258/65 68/259/65 17/260/65
f 17/261/66 68/262/66 69/263/66 37/264/66
f 37/265/67 69/266/67 70/267/67 50/268/67
f 50/269/68 70/270/68 61/271/68 9/272/68
f 3/273/69 71/274/69 72/275/69 7/276/69
f 7/277/70 72/278/70 73/279/70 55/280/70
f 55/281/71 73/282/71 74/283/71 44/284/71
f 44/285/72 74/286/72 75/287/72 22/288/72
f 22/289/73 75/290/73 76/291/73 8/292/73
f 8/293/74 76/294/74 77/295/74 4/296/74
f 4/297/75 77/298/75 78/299/75 23/300/75
f 23/301/76 78/302/76 79/303/76 45/304/76
f 45/305/77 79/306/77 80/307/77 54/308/77
f 54/309/78 80/310/78 71/311/78 3/312/78
o pole
v 0.046875 1.73125 0.046875
v 0.046875 1.73125 -0.046875
v 0.046875 0.73125 0.046875
v 0.046875 0.73125 -0.046875
v -0.046875 1.73125 -0.046875
v -0.046875 1.73125 0.046875
v -0.046875 0.73125 -0.046875
v -0.046875 0.73125 0.046875
vt 0.001953125 1
vt 0.013671875 1
vt 0.013671875 0.875
vt 0.001953125 0.875
vt 0.001953125 1
vt 0.013671875 1
vt 0.013671875 0.875
vt 0.001953125 0.875
vt 0.001953125 1
vt 0.013671875 1
vt 0.013671875 0.875
vt 0.001953125 0.875
vt 0.001953125 1
vt 0.013671875 1
vt 0.013671875 0.875
vt 0.001953125 0.875
vt 0.001953125 0.998046875
vt 0.013671875 0.998046875
vt 0.013671875 0.986328125
vt 0.001953125 0.986328125
vt 0.001953125 0.998046875
vt 0.013671875 0.998046875
vt 0.013671875 0.986328125
vt 0.001953125 0.986328125
vn 0 0 -1
vn 1 0 0
vn 0 0 1
vn -1 0 0
vn 0 1 0
vn 0 -1 0
usemtl m_02e910fe-f7e2-bd7c-00c2-5e0a9f0726ad
f 84/316/79 87/315/79 85/314/79 82/313/79
f 83/320/80 84/319/80 82/318/80 81/317/80
f 88/324/81 83/323/81 81/322/81 86/321/81
f 87/328/82 88/327/82 86/326/82 85/325/82
f 86/332/83 81/331/83 82/330/83 85/329/83
f 87/336/84 84/335/84 83/334/84 88/333/84