# Made in Blockbench 5.1.6
mtllib nyc_subway_fare_gate_6_exit_closed_light_layer.mtl

o cube
v -0.59375 1.0484375 -0.8125
v -0.59375 1.1734375 -0.5625
v -0.40625 1.1265625 -0.5625
v -0.40625 1.0015625 -0.796875
vt 0.3173828125 0.001745546874999948
vt 0.3173828125 0.0716234375
vt 0.26893570312500004 0.06638374999999996
vt 0.2685546875 0
vn 0.21821789023599242 0.8728715609439697 -0.43643578047198484
usemtl m_95df262a-94b4-a775-b689-67a1ae9e5081
f 1/1/1 2/2/1 3/3/1 4/4/1
o cube
v 0.40625 1.984375 -0.063125
v -0.40625 1.984375 -0.063125
v -0.40625 2 -0.063125
v 0.40625 2 -0.063125
vt 0.3056640625 0.005859375
vt 0.310546875 0.005859375
vt 0.310546875 0.0068359375
vt 0.3056640625 0.0068359375
vn 0 0 -1
usemtl m_95df262a-94b4-a775-b689-67a1ae9e5081
f 5/5/2 6/6/2 7/7/2 8/8/2
o left
v -0.40625 1.09375 -0.063125
v -0.59375 1.09375 -0.063125
v -0.59375 1.40625 -0.063125
v -0.40625 1.40625 -0.063125
vt 0.634765625 0
vt 0.658203125 0
vt 0.658203125 0.0390625
vt 0.634765625 0.0390625
vn 0 0 -1
usemtl m_95df262a-94b4-a775-b689-67a1ae9e5081
f 9/9/3 10/10/3 11/11/3 12/12/3
o left
v 0.40625 1.09375 0.06312499999999999
v 0.59375 1.09375 0.06312499999999999
v 0.59375 1.40625 0.06312500000000001
v 0.40625 1.40625 0.06312500000000001
vt 0.6083984375 0
vt 0.6318359375 0
vt 0.6318359375 0.0390625
vt 0.6083984375 0.0390625
vn 0 -8.881784197001253e-17 1
usemtl m_95df262a-94b4-a775-b689-67a1ae9e5081
f 13/13/4 14/14/4 15/15/4 16/16/4
o cube
v -0.40625 1.984375 0.06312500000000006
v 0.40625 1.984375 0.06312499999999995
v 0.40625 2 0.06312499999999995
v -0.40625 2 0.06312500000000006
vt 0.2060546875 0.005859375
vt 0.2109375 0.005859375
vt 0.2109375 0.0068359375
vt 0.2060546875 0.0068359375
vn 1.3664283380001927e-16 0 1
usemtl m_95df262a-94b4-a775-b689-67a1ae9e5081
f 17/17/5 18/18/5 19/19/5 20/20/5