# Made in Blockbench 5.1.6
mtllib nyc_subway_ticket_machine_1.mtl

o cube
v 0.5 1.75 0.1875
v 0.5 1.75 -0.375
v 0.5 0 0.1875
v 0.5 0 -0.375
v -0.5 1.75 -0.375
v -0.5 1.75 0.1875
v -0.5 0 -0.375
v -0.5 0 0.1875
vt 0 1
vt 0.125 1
vt 0.125 0.78125
vt 0 0.78125
vt 0.0234375 1
vt 0.09375 1
vt 0.09375 0.78125
vt 0.0234375 0.78125
vt 0 1
vt 0.125 1
vt 0.125 0.78125
vt 0 0.78125
vt 0.015625 1
vt 0.0859375 1
vt 0.0859375 0.78125
vt 0.015625 0.78125
vt 0.125 0.90625
vt 0 0.90625
vt 0 0.9765625
vt 0.125 0.9765625
vt 0.125 0.9140625
vt 0 0.9140625
vt 0 0.984375
vt 0.125 0.984375
vn 0 0 -1
vn 1 0 0
vn 0 0 1
vn -1 0 0
vn 0 1 0
vn 0 -1 0
usemtl m_fb60d837-f5fa-e888-261e-0a020d03b099
f 4/4/1 7/3/1 5/2/1 2/1/1
f 3/8/2 4/7/2 2/6/2 1/5/2
f 8/12/3 3/11/3 1/10/3 6/9/3
f 7/16/4 8/15/4 6/14/4 5/13/4
f 6/20/5 1/19/5 2/18/5 5/17/5
f 7/24/6 4/23/6 3/22/6 8/21/6
o cube
v -0.5 2.0625 -0.375
v -0.5 1.84375 0.375
v -0.5 1.75 -0.375
v -0.5 1.75 0.375
v 0.5 2.0625 -0.375
v 0.5 1.84375 0.375
v 0.5 1.75 -0.375
v 0.5 1.75 0.375
vt 0.109375 0.875
vt 0.109375 0.9140625
vt 0.015625 0.9140625
vt 0.015625 0.875
vt 0.09375 0.875
vt 0.09375 0.9140625
vt 0 0.9140625
vt 0 0.875
vt 0.125 0.90625
vt 0.125 1
vt 0 1
vt 0 0.90625
vt 0.125 0.890625
vt 0.125 0.984375
vt 0 0.984375
vt 0 0.890625
vt 0.125 0.875
vt 0.125 0.9140625
vt 0 0.9140625
vt 0 0.875
vt 0.125 0.875
vt 0.125 0.9140625
vt 0 0.9140625
vt 0 0.875
vn -1 0 0
vn 1 0 0
vn 0 0.96 0.28
vn 0 -1 0
vn 0 0 -1
vn 0 0 1
usemtl m_fb60d837-f5fa-e888-261e-0a020d03b099
f 12/25/7 10/26/7 9/27/7 11/28/7
f 15/29/8 13/30/8 14/31/8 16/32/8
f 9/33/9 10/34/9 14/35/9 13/36/9
f 12/37/10 11/38/10 15/39/10 16/40/10
f 11/41/11 9/42/11 13/43/11 15/44/11
f 16/45/12 14/46/12 10/47/12 12/48/12
o cube
v 0.5 0.6875 0.375
v 0.5 0.6875 0.1875
v 0.5 0 0.375
v 0.5 0 0.1875
v -0.5 0.6875 0.1875
v -0.5 0.6875 0.375
v -0.5 0 0.1875
v -0.5 0 0.375
vt 0 1
vt 0.25 1
vt 0.25 0.828125
vt 0 0.828125
vt 0.234375 0.515625
vt 0.28125 0.515625
vt 0.28125 0.34375
vt 0.234375 0.34375
vt 0 0.8125
vt 0.25 0.8125
vt 0.25 0.640625
vt 0 0.640625
vt 0.234375 0.515625
vt 0.28125 0.515625
vt 0.28125 0.34375
vt 0.234375 0.34375
vt 0.515625 0.53125
vt 0.265625 0.53125
vt 0.265625 0.578125
vt 0.515625 0.578125
vt 0.515625 0.578125
vt 0.265625 0.578125
vt 0.265625 0.53125
vt 0.515625 0.53125
vn 0 0 -1
vn 1 0 0
vn 0 0 1
vn -1 0 0
vn 0 1 0
vn 0 -1 0
usemtl m_7293c78d-b543-4630-b0c9-5ba599e149ac
f 20/52/13 23/51/13 21/50/13 18/49/13
f 19/56/14 20/55/14 18/54/14 17/53/14
f 24/60/15 19/59/15 17/58/15 22/57/15
f 23/64/16 24/63/16 22/62/16 21/61/16
f 22/68/17 17/67/17 18/66/17 21/65/17
f 23/72/18 20/71/18 19/70/18 24/69/18
o cube
v 0.5 1.75 0.375
v 0.5 1.75 0.1875
v 0.5 1.5 0.375
v 0.5 1.5 0.1875
v -0.5 1.75 0.1875
v -0.5 1.75 0.375
v -0.5 1.5 0.1875
v -0.5 1.5 0.375
vt 0.265625 0.65625
vt 0.515625 0.65625
vt 0.515625 0.59375
vt 0.265625 0.59375
vt 0.5 1
vt 0.546875 1
vt 0.546875 0.9375
vt 0.5 0.9375
vt 0 0.625
vt 0.25 0.625
vt 0.25 0.5625
vt 0 0.5625
vt 0.5 1
vt 0.546875 1
vt 0.546875 0.9375
vt 0.5 0.9375
vt 0.515625 0.53125
vt 0.265625 0.53125
vt 0.265625 0.578125
vt 0.515625 0.578125
vt 0.515625 0.578125
vt 0.265625 0.578125
vt 0.265625 0.53125
vt 0.515625 0.53125
vn 0 0 -1
vn 1 0 0
vn 0 0 1
vn -1 0 0
vn 0 1 0
vn 0 -1 0
usemtl m_7293c78d-b543-4630-b0c9-5ba599e149ac
f 28/76/19 31/75/19 29/74/19 26/73/19
f 27/80/20 28/79/20 26/78/20 25/77/20
f 32/84/21 27/83/21 25/82/21 30/81/21
f 31/88/22 32/87/22 30/86/22 29/85/22
f 30/92/23 25/91/23 26/90/23 29/89/23
f 31/96/24 28/95/24 27/94/24 32/93/24
o cube
v -0.4375 1.5 0.375
v -0.4375 1.5 0.1875
v -0.4375 0.6875 0.375
v -0.4375 0.6875 0.1875
v -0.5 1.5 0.1875
v -0.5 1.5 0.375
v -0.5 0.6875 0.1875
v -0.5 0.6875 0.375
vt 0.1171875 1
vt 0.125 1
vt 0.125 0.8984375
vt 0.1171875 0.8984375
vt 0 1
vt 0.0234375 1
vt 0.0234375 0.8984375
vt 0 0.8984375
vt 0 1
vt 0.0078125 1
vt 0.0078125 0.8984375
vt 0 0.8984375
vt 0 1
vt 0.0234375 1
vt 0.0234375 0.8984375
vt 0 0.8984375
vt 0.125 0.9765625
vt 0.1171875 0.9765625
vt 0.1171875 1
vt 0.125 1
vt 0.125 0.9765625
vt 0.1171875 0.9765625
vt 0.1171875 1
vt 0.125 1
vn 0 0 -1
vn 1 0 0
vn 0 0 1
vn -1 0 0
vn 0 1 0
vn 0 -1 0
usemtl m_fb60d837-f5fa-e888-261e-0a020d03b099
f 36/100/25 39/99/25 37/98/25 34/97/25
f 35/104/26 36/103/26 34/102/26 33/101/26
f 40/108/27 35/107/27 33/106/27 38/105/27
f 39/112/28 40/111/28 38/110/28 37/109/28
f 38/116/29 33/115/29 34/114/29 37/113/29
f 39/120/30 36/119/30 35/118/30 40/117/30
o cube
v 0.5 1.5 0.375
v 0.5 1.5 0.1875
v 0.5 0.6875 0.375
v 0.5 0.6875 0.1875
v 0.4375 1.5 0.1875
v 0.4375 1.5 0.375
v 0.4375 0.6875 0.1875
v 0.4375 0.6875 0.375
vt 0.1171875 1
vt 0.125 1
vt 0.125 0.8984375
vt 0.1171875 0.8984375
vt 0 1
vt 0.0234375 1
vt 0.0234375 0.8984375
vt 0 0.8984375
vt 0 1
vt 0.0078125 1
vt 0.0078125 0.8984375
vt 0 0.8984375
vt 0 1
vt 0.0234375 1
vt 0.0234375 0.8984375
vt 0 0.8984375
vt 0.125 0.9765625
vt 0.1171875 0.9765625
vt 0.1171875 1
vt 0.125 1
vt 0.125 0.9765625
vt 0.1171875 0.9765625
vt 0.1171875 1
vt 0.125 1
vn 0 0 -1
vn 1 0 0
vn 0 0 1
vn -1 0 0
vn 0 1 0
vn 0 -1 0
usemtl m_fb60d837-f5fa-e888-261e-0a020d03b099
f 44/124/31 47/123/31 45/122/31 42/121/31
f 43/128/32 44/127/32 42/126/32 41/125/32
f 48/132/33 43/131/33 41/130/33 46/129/33
f 47/136/34 48/135/34 46/134/34 45/133/34
f 46/140/35 41/139/35 42/138/35 45/137/35
f 47/144/36 44/143/36 43/142/36 48/141/36
o cube
v -0.4375 1.40625 0.1875
v -0.4375 0.8125 0.1875
v -0.4375 0.8125 0.21875
v 0.4375 1.40625 0.1875
v 0.4375 0.8125 0.1875
v 0.4375 0.8125 0.21875
vt 0.0078125 0.46875
vt 0 0.3203125
vt 0.0078125 0.3203125
vt 0.03125 0.46875
vt 0.03125 0.3203125
vt 0.0390625 0.3203125
vt 0.5 0.921875
vt 0.5 0.9140625
vt 0.71875 0.9140625
vt 0.71875 0.921875
vt 0.484375 0.8515625
vt 0.484375 1
vt 0.265625 1
vt 0.265625 0.8515625
vt 0.484375 0.6796875
vt 0.484375 0.828125
vt 0.265625 0.828125
vt 0.265625 0.6796875
vn 1 0 0
vn -1 0 0
vn 0 -1 0
vn 0 0 -1
vn 0 0.05255883312276367 0.9986178293325098
usemtl m_7293c78d-b543-4630-b0c9-5ba599e149ac
f 49/145/37 51/146/37 50/147/37
f 52/148/38 53/149/38 54/150/38
f 51/151/39 50/152/39 53/153/39 54/154/39
f 50/155/40 49/156/40 52/157/40 53/158/40
f 54/159/41 52/160/41 49/161/41 51/162/41
o cube
v -0.4375 0.8125 0.1875
v -0.4375 0.8125 0.21875
v -0.4375 0.6875 0.1875
v -0.4375 0.6875 0.375
v 0.4375 0.8125 0.1875
v 0.4375 0.8125 0.21875
v 0.4375 0.6875 0.1875
v 0.4375 0.6875 0.375
vt 0.546875 0.828125
vt 0.5078125 0.859375
vt 0.5 0.859375
vt 0.5 0.828125
vt 0.546875 0.828125
vt 0.5078125 0.859375
vt 0.5 0.859375
vt 0.5 0.828125
vt 0.5 0.890625
vt 0.5 0.8828125
vt 0.71875 0.8828125
vt 0.71875 0.890625
vt 0.5 0.890625
vt 0.5 0.8828125
vt 0.71875 0.8828125
vt 0.71875 0.890625
vt 0.515625 0.484375
vt 0.515625 0.515625
vt 0.296875 0.515625
vt 0.296875 0.484375
vt 0.21875 0.49609375
vt 0.21875 0.546875
vt 0 0.546875
vt 0 0.49609375
vn -1 0 0
vn 1 0 0
vn 0 1 0
vn 0 -1 0
vn 0 0 -1
vn 0 0.7808688094430304 0.6246950475544243
usemtl m_7293c78d-b543-4630-b0c9-5ba599e149ac
f 58/163/42 56/164/42 55/165/42 57/166/42
f 61/167/43 59/168/43 60/169/43 62/170/43
f 55/171/44 56/172/44 60/173/44 59/174/44
f 58/175/45 57/176/45 61/177/45 62/178/45
f 57/179/46 55/180/46 59/181/46 61/182/46
f 62/183/47 60/184/47 56/185/47 58/186/47
o cylinder
v -0.4375 1.5 0.1875
v 0.4375 1.5 0.1875
v -0.4375 1.5251202367904177 0.09375
v 0.4375 1.5251202367904177 0.09375
v -0.4375 1.5686297632095823 0.11887023679041775
v 0.4375 1.5686297632095823 0.11887023679041775
v -0.4375 1.59375 0.16237976320958225
v 0.4375 1.59375 0.16237976320958225
v -0.4375 1.59375 0.21262023679041775
v 0.4375 1.59375 0.21262023679041775
v -0.4375 1.5686297632095823 0.25612976320958225
v 0.4375 1.5686297632095823 0.25612976320958225
v -0.4375 1.5251202367904177 0.28125
v 0.4375 1.5251202367904177 0.28125
v -0.4375 1.4748797632095823 0.28125
v 0.4375 1.4748797632095823 0.28125
v -0.4375 1.4313702367904177 0.25612976320958225
v 0.4375 1.4313702367904177 0.25612976320958225
v -0.4375 1.40625 0.21262023679041775
v 0.4375 1.40625 0.21262023679041775
v -0.4375 1.40625 0.1623797632095823
v 0.4375 1.40625 0.1623797632095823
v -0.4375 1.4313702367904177 0.11887023679041778
v 0.4375 1.4313702367904177 0.11887023679041778
v -0.4375 1.4748797632095823 0.09375
v 0.4375 1.4748797632095823 0.09375
vt 0.012132405569077312 0.9939337972154614
vt 0.010506612399521052 1
vt 0 0.9939337972154614
vt 0 0.890625
vt 0.006279687499999999 0.890625
vt 0.006279687499999999 1
vt 0 1
vt 1.734723475976807e-18 0.9878679053607007
vt 0.0060663582534120405 0.9894931183296928
vt 0 1
vt 0.01213209463929927 0.9939336417465879
vt 0.010506881670307224 1
vt 0 0.9939336417465879
vt 0 0.890625
vt 0.006279687499999999 0.890625
vt 0.006279687499999999 1
vt 0 1
vt 8.673617379884035e-19 0.9878675944309226
vt 0.006066202784538656 0.989493387600479
vt 0 1
vt 0.01171875 0.9937203125
vt 0.01171875 1
vt 0 0.99686015625
vt 0 0.890625
vt 0.006279687499999999 0.890625
vt 0.006279687499999999 1
vt 0 1
vt 0.01171875 0.9937203125
vt 0.01171875 1
vt 0 0.99686015625
vt 8.673617379884035e-19 0.9878675944309226
vt 0.006066202784538656 0.989493387600479
vt 0 1
vt 0 0.890625
vt 0.006279687499999999 0.890625
vt 0.006279687499999999 1
vt 0 1
vt 0.01213209463929927 0.9939336417465879
vt 0.010506881670307224 1
vt 0 0.9939336417465879
vt 1.734723475976807e-18 0.9878679053607007
vt 0.0060663582534120405 0.9894931183296928
vt 0 1
vt 0 0.890625
vt 0.006279687499999999 0.890625
vt 0.006279687499999999 1
vt 0 1
vt 0.012132405569077312 0.9939337972154614
vt 0.010506612399521052 1
vt 0 0.9939337972154614
vt 0 0.98828125
vt 0.006279687499999999 0.98828125
vt 0.00313984375 1
vt 0 0.890625
vt 0.006279687499999999 0.890625
vt 0.006279687499999999 1
vt 0 1
vt 0.006279687499999999 1
vt 0 1
vt 0.00313984375 0.98828125
vt 0 1
vt 0.00162579316955626 0.9939337972154614
vt 0.012132405569077312 1
vt 0 0.890625
vt 0.006279687499999999 0.890625
vt 0.006279687499999999 1
vt 0 1
vt 0.006066358253412039 1
vt 0 0.9983747870310079
vt 0.0060663582534120405 0.9878679053607007
vt 0 1
vt 0.0016252129689920524 0.9939336417465879
vt 0.01213209463929927 1
vt 0 0.890625
vt 0.006279687499999999 0.890625
vt 0.006279687499999999 1
vt 0 1
vt 0.006066202784538655 1
vt 0 0.9983742068304438
vt 0.006066202784538656 0.9878675944309226
vt 0 1
vt 0 0.9937203125
vt 0.01171875 0.99686015625
vt 0 0.890625
vt 0.006279687499999999 0.890625
vt 0.006279687499999999 1
vt 0 1
vt 0 1
vt 0 0.9937203125
vt 0.01171875 0.99686015625
vt 0.006066202784538655 1
vt 0 0.9983742068304438
vt 0.006066202784538656 0.9878675944309226
vt 0 0.890625
vt 0.006279687499999999 0.890625
vt 0.006279687499999999 1
vt 0 1
vt 0 1
vt 0.0016252129689920524 0.9939336417465879
vt 0.01213209463929927 1
vt 0.006066358253412039 1
vt 0 0.9983747870310079
vt 0.0060663582534120405 0.9878679053607007
vt 0 0.890625
vt 0.006279687499999999 0.890625
vt 0.006279687499999999 1
vt 0 1
vt 0 1
vt 0.00162579316955626 0.9939337972154614
vt 0.012132405569077312 1
vt 0.006279687499999999 1
vt 0 1
vt 0.00313984375 0.98828125
vt 0 0.890625
vt 0.006279687499999999 0.890625
vt 0.006279687499999999 1
vt 0 1
vt 0 0.98828125
vt 0.006279687499999999 0.98828125
vt 0.00313984375 1
vn -1 -2.220446049250313e-16 0
vn -1.1102230246251562e-16 0.49999999999999983 -0.8660254037844387
vn 1 2.220446049250313e-16 0
vn -1 -2.220446049250313e-16 0
vn -1.922962686383564e-16 0.8660254037844387 -0.49999999999999983
vn 1 2.220446049250313e-16 0
vn -1 -2.220446049250313e-16 0
vn -2.220446049250313e-16 1 0
vn 1 2.220446049250313e-16 0
vn -1 -2.220446049250313e-16 0
vn -1.9229626863835638e-16 0.8660254037844386 0.5000000000000001
vn 1 2.220446049250313e-16 0
vn -1 -2.220446049250313e-16 0
vn -1.1102230246251562e-16 0.49999999999999983 0.8660254037844387
vn 1 2.220446049250313e-16 0
vn -1 -2.220446049250313e-16 0
vn -6.133477038311653e-32 2.7622724904225853e-16 1
vn 1 2.220446049250313e-16 0
vn -1 -2.220446049250313e-16 0
vn 1.1102230246251562e-16 -0.49999999999999983 0.8660254037844387
vn 1 2.220446049250313e-16 0
vn -1 -2.220446049250313e-16 0
vn 1.9229626863835646e-16 -0.8660254037844389 0.4999999999999998
vn 1 2.220446049250313e-16 0
vn -1 -2.220446049250313e-16 0
vn 2.220446049250313e-16 -1 0
vn 1 2.220446049250313e-16 0
vn -1 -2.220446049250313e-16 0
vn 1.9229626863835646e-16 -0.8660254037844389 -0.4999999999999998
vn 1 2.220446049250313e-16 0
vn -1 -2.220446049250313e-16 0
vn 1.1102230246251573e-16 -0.5000000000000003 -0.8660254037844387
vn 1 2.220446049250313e-16 0
vn -1 -2.220446049250313e-16 0
vn 0 0 -1
vn 1 2.220446049250313e-16 0
usemtl m_9fd97b65-d914-623a-73fc-3f323c019e26
f 67/187/48 65/188/48 63/189/48
f 65/190/49 67/191/49 68/192/49 66/193/49
f 66/194/50 68/195/50 64/196/50
f 69/197/51 67/198/51 63/199/51
f 67/200/52 69/201/52 70/202/52 68/203/52
f 68/204/53 70/205/53 64/206/53
f 71/207/54 69/208/54 63/209/54
f 69/210/55 71/211/55 72/212/55 70/213/55
f 70/214/56 72/215/56 64/216/56
f 73/217/57 71/218/57 63/219/57
f 71/220/58 73/221/58 74/222/58 72/223/58
f 72/224/59 74/225/59 64/226/59
f 75/227/60 73/228/60 63/229/60
f 73/230/61 75/231/61 76/232/61 74/233/61
f 74/234/62 76/235/62 64/236/62
f 77/237/63 75/238/63 63/239/63
f 75/240/64 77/241/64 78/242/64 76/243/64
f 76/244/65 78/245/65 64/246/65
f 79/247/66 77/248/66 63/249/66
f 77/250/67 79/251/67 80/252/67 78/253/67
f 78/254/68 80/255/68 64/256/68
f 81/257/69 79/258/69 63/259/69
f 79/260/70 81/261/70 82/262/70 80/263/70
f 80/264/71 82/265/71 64/266/71
f 83/267/72 81/268/72 63/269/72
f 81/270/73 83/271/73 84/272/73 82/273/73
f 82/274/74 84/275/74 64/276/74
f 85/277/75 83/278/75 63/279/75
f 83/280/76 85/281/76 86/282/76 84/283/76
f 84/284/77 86/285/77 64/286/77
f 87/287/78 85/288/78 63/289/78
f 85/290/79 87/291/79 88/292/79 86/293/79
f 86/294/80 88/295/80 64/296/80
f 65/297/81 87/298/81 63/299/81
f 87/300/82 65/301/82 66/302/82 88/303/82
f 88/304/83 66/305/83 64/306/83