# Made in Blockbench 5.1.6
mtllib nyc_subway_entrance_1_fence_2.mtl

o cube
v 0.140625 0.171875 0.140625
v 0.140625 0.171875 -0.140625
v 0.15625 0 0.15625
v 0.15625 0 -0.15625
v -0.5 0.171875 0.140625
v -0.5 0.171875 -0.140625
v -0.5 0 0.15625
v -0.5 0 -0.15625
v 0.15625 0.15625 -0.15625
v 0.15625 0.15625 0.15625
v -0.5 0.15625 0.15625
v -0.5 0.15625 -0.15625
vt 0.078125 0.9375
vt 0.0625 0.921875
vt 0.375 0.921875
vt 0.359375 0.9375
vt 0.078125 0.9375
vt 0.0625 0.921875
vt 0.375 0.921875
vt 0.359375 0.9375
vt 1 0.65625
vt 1 0.9375
vt 0 0.9375
vt 0 0.65625
vt 1 0.625
vt 1 0.9375
vt 0 0.9375
vt 0 0.625
vt 0 0.8749999999999982
vt 0 0.8528999999999982
vt 1 0.8528999999999982
vt 1 0.8749999999999982
vt 0 0.8749999999999982
vt 0 0.8528999999999982
vt 1 0.8528999999999982
vt 1 0.8749999999999982
vt 0.375 0.71875
vt 0.375 0.875
vt 0.0625 0.875
vt 0.0625 0.71875
vt 1 0.71875
vt 1 0.875
vt 0 0.875
vt 0 0.71875
vt 0.375 0.71875
vt 0.375 0.875
vt 0.0625 0.875
vt 0.0625 0.71875
vt 1 0.71875
vt 1 0.875
vt 0 0.875
vt 0 0.71875
vn 0.7071067811865476 0.7071067811865476 0
vn -1 0 0
vn 0 1 0
vn 0 -1 0
vn 0 0.7071067811865476 0.7071067811865476
vn 0 0.7071067811865476 -0.7071067811865476
vn 1 0 0
vn 0 0 1
vn -1 0 0
vn 0 0 -1
usemtl m_e70d8a61-7516-cbc3-246b-546d68436d1f
f 1/1/1 10/2/1 9/3/1 2/4/1
f 6/5/2 12/6/2 11/7/2 5/8/2
f 1/9/3 2/10/3 6/11/3 5/12/3
f 4/13/4 3/14/4 7/15/4 8/16/4
f 5/17/5 11/18/5 10/19/5 1/20/5
f 2/21/6 9/22/6 12/23/6 6/24/6
f 4/25/7 9/26/7 10/27/7 3/28/7
f 3/29/8 10/30/8 11/31/8 7/32/8
f 7/33/9 11/34/9 12/35/9 8/36/9
f 8/37/10 12/38/10 9/39/10 4/40/10
o cube
v 0 0.334375 0.01125
v 0 0.334375 -0.01125
v 0 0.171875 0.01875
v 0 0.171875 -0.01875
v -0.5 0.334375 0.01125
v -0.5 0.334375 -0.01125
v -0.5 0.171875 0.01875
v -0.5 0.171875 -0.01875
v -0.5 0.28020833333333334 0.01875
v -0.5 0.28020833333333334 -0.01875
v 0 0.28020833333333334 -0.01875
v 0 0.28020833333333334 0.01875
v -0.5 0.2869791666666667 0.01125
v -0.5 0.2869791666666667 -0.01125
v 0 0.2869791666666667 -0.01125
v 0 0.2869791666666667 0.01125
vt 0.03125 0.96875
vt 0.03125 0.9140625
vt 0.09375 0.9140625
vt 0.09375 0.96875
vt 0.03125 0.96875
vt 0.03125 0.9140625
vt 0.09375 0.9140625
vt 0.09375 0.96875
vt 1 0.90625
vt 1 0.96875
vt 0 0.96875
vt 0 0.90625
vt 1 0.90625
vt 1 0.96875
vt 0 0.96875
vt 0 0.90625
vt 0 0.96875
vt 0 0.9140625
vt 1 0.9140625
vt 1 0.96875
vt 0 0.96875
vt 0 0.9140625
vt 1 0.9140625
vt 1 0.96875
vt 0.09375 0.75
vt 0.09375 0.859375
vt 0.03125 0.859375
vt 0.03125 0.75
vt 1 0.75
vt 1 0.859375
vt 0 0.859375
vt 0 0.75
vt 0.09375 0.75
vt 0.09375 0.859375
vt 0.03125 0.859375
vt 0.03125 0.75
vt 1 0.75
vt 1 0.859375
vt 0 0.859375
vt 0 0.75
vt 0.09375 0.859375
vt 0.09375 0.9140625
vt 0.03125 0.9140625
vt 0.03125 0.859375
vt 1 0.859375
vt 1 0.9140625
vt 0 0.9140625
vt 0 0.859375
vt 0.09375 0.859375
vt 0.09375 0.9140625
vt 0.03125 0.9140625
vt 0.03125 0.859375
vt 1 0.859375
vt 1 0.9140625
vt 0 0.9140625
vt 0 0.859375
vn 1 0 0
vn -1 0 0
vn 0 1 0
vn 0 -1 0
vn 0 0 1
vn 0 0 -1
vn -1 0 0
vn 0 0 -1
vn 1 0 0
vn 0 0 1
vn -1 0 0
vn 0 0.7422680412371125 -0.6701030927835061
vn 1 0 0
vn 0 0.7422680412371125 0.6701030927835061
usemtl m_58b3612b-e0d9-bfe9-67e1-7744f4fe7a32
f 13/41/11 28/42/11 27/43/11 14/44/11
f 18/45/12 26/46/12 25/47/12 17/48/12
f 13/49/13 14/50/13 18/51/13 17/52/13
f 16/53/14 15/54/14 19/55/14 20/56/14
f 17/57/15 25/58/15 28/59/15 13/60/15
f 14/61/16 27/62/16 26/63/16 18/64/16
f 19/65/17 21/66/17 22/67/17 20/68/17
f 20/69/18 22/70/18 23/71/18 16/72/18
f 16/73/19 23/74/19 24/75/19 15/76/19
f 15/77/20 24/78/20 21/79/20 19/80/20
f 21/81/21 25/82/21 26/83/21 22/84/21
f 22/85/22 26/86/22 27/87/22 23/88/22
f 23/89/23 27/90/23 28/91/23 24/92/23
f 24/93/24 28/94/24 25/95/24 21/96/24
o cube
v 0.046875 0.953125 0.078125
v 0.046875 0.953125 -0.078125
v 0.046875 0.921875 0.078125
v 0.046875 0.921875 -0.078125
v -0.5 0.953125 -0.078125
v -0.5 0.953125 0.078125
v -0.5 0.921875 -0.078125
v -0.5 0.921875 0.078125
vt 0.453125 1
vt 1 1
vt 1 0.96875
vt 0.453125 0.96875
vt 0.015625 1
vt 0.171875 1
vt 0.171875 0.96875
vt 0.015625 0.96875
vt 0 1
vt 0.546875 1
vt 0.546875 0.96875
vt 0 0.96875
vt 0.015625 1
vt 0.171875 1
vt 0.171875 0.96875
vt 0.015625 0.96875
vt 0 0.984375
vt 0.546875 0.984375
vt 0.546875 0.828125
vt 0 0.828125
vt 0 0.984375
vt 0.546875 0.984375
vt 0.546875 0.828125
vt 0 0.828125
vn 0 0 -1
vn 1 0 0
vn 0 0 1
vn -1 0 0
vn 0 1 0
vn 0 -1 0
usemtl m_58b3612b-e0d9-bfe9-67e1-7744f4fe7a32
f 32/100/25 35/99/25 33/98/25 30/97/25
f 31/104/26 32/103/26 30/102/26 29/101/26
f 36/108/27 31/107/27 29/106/27 34/105/27
f 35/112/28 36/111/28 34/110/28 33/109/28
f 34/116/29 29/115/29 30/114/29 33/113/29
f 35/120/30 32/119/30 31/118/30 36/117/30
o cube
v 0.0625 1 0.078125
v 0.0625 1 -0.078125
v 0.0625 0.953125 0.09375
v 0.0625 0.953125 -0.09375
v -0.5 1 0.078125
v -0.5 1 -0.078125
v -0.5 0.953125 0.09375
v -0.5 0.953125 -0.09375
v 0.0625 0.9921875 0.09375
v 0.0625 0.9921875 -0.09375
v -0.5 0.9921875 -0.09375
v -0.5 0.9921875 0.09375
vt 0.1875 0.953125
vt 0.1875 0.9765625
vt 0 0.9765625
vt 0 0.953125
vt 0.1875 0.953125
vt 0.1875 0.9765625
vt 0 0.9765625
vt 0 0.953125
vt 1 0.8125
vt 1 1
vt 0 1
vt 0 0.8125
vt 1 0.8125
vt 1 1
vt 0 1
vt 0 0.8125
vt 1 0.953125
vt 1 0.9765625
vt 0 0.9765625
vt 0 0.953125
vt 1 0.953125
vt 1 0.9765625
vt 0 0.9765625
vt 0 0.953125
vt 0 1
vt 0 0.9765625
vt 0.1875 0.9765625
vt 0.1875 1
vt 0 1
vt 0 0.9765625
vt 1 0.9765625
vt 1 1
vt 0 1
vt 0 0.9765625
vt 0.1875 0.9765625
vt 0.1875 1
vt 0 1
vt 0 0.9765625
vt 1 0.9765625
vt 1 1
vn 1 0 0
vn -1 0 0
vn 0 1 0
vn 0 -1 0
vn 0 0 1
vn 0 0 -1
vn 1 0 0
vn 0 0.8944271909999161 -0.44721359549995804
vn -1 0 0
vn 0 0.8944271909999161 0.44721359549995804
usemtl m_58b3612b-e0d9-bfe9-67e1-7744f4fe7a32
f 40/121/31 46/122/31 45/123/31 39/124/31
f 43/125/32 48/126/32 47/127/32 44/128/32
f 37/129/33 38/130/33 42/131/33 41/132/33
f 40/133/34 39/134/34 43/135/34 44/136/34
f 39/137/35 45/138/35 48/139/35 43/140/35
f 44/141/36 47/142/36 46/143/36 40/144/36
f 37/145/37 45/146/37 46/147/37 38/148/37
f 38/149/38 46/150/38 47/151/38 42/152/38
f 42/153/39 47/154/39 48/155/39 41/156/39
f 41/157/40 48/158/40 45/159/40 37/160/40
o cube
v -0.48906249999999996 0.921875 0.010937500000000003
v -0.48906249999999996 0.921875 -0.010937499999999996
v -0.48906249999999996 0.33437500000000003 0.010937500000000003
v -0.48906249999999996 0.33437500000000003 -0.010937499999999996
v -0.5 0.921875 -0.010937499999999996
v -0.5 0.921875 0.010937500000000003
v -0.5 0.33437500000000003 -0.010937499999999996
v -0.5 0.33437500000000003 0.010937500000000003
vt 0.05625 0.9625
vt 0.06718750000000004 0.9625
vt 0.06718750000000004 0.375
vt 0.05625 0.375
vt 0.0515625 0.9625
vt 0.07343749999999999 0.9625
vt 0.07343749999999999 0.375
vt 0.0515625 0.375
vt 0.05781249999999996 0.9625
vt 0.06875 0.9625
vt 0.06875 0.375
vt 0.05781249999999996 0.375
vt 0.051562500000000004 0.9625
vt 0.0734375 0.9625
vt 0.0734375 0.375
vt 0.051562500000000004 0.375
vt 0.05781249999999996 0.9484375
vt 0.06875 0.9484375
vt 0.06875 0.9265625
vt 0.05781249999999996 0.9265625
vt 0.05781249999999996 0.9484375
vt 0.06875 0.9484375
vt 0.06875 0.9265625
vt 0.05781249999999996 0.9265625
vn 0 0 -1
vn 1 0 0
vn 0 0 1
vn -1 0 0
vn 0 1 0
vn 0 -1 0
usemtl m_58b3612b-e0d9-bfe9-67e1-7744f4fe7a32
f 52/164/41 55/163/41 53/162/41 50/161/41
f 51/168/42 52/167/42 50/166/42 49/165/42
f 56/172/43 51/171/43 49/170/43 54/169/43
f 55/176/44 56/175/44 54/174/44 53/173/44
f 54/180/45 49/179/45 50/178/45 53/177/45
f 55/184/46 52/183/46 51/182/46 56/181/46
o cube
v -0.42656249999999996 0.921875 0.010937500000000003
v -0.42656249999999996 0.921875 -0.010937499999999996
v -0.42656249999999996 0.33437500000000003 0.010937500000000003
v -0.42656249999999996 0.33437500000000003 -0.010937499999999996
v -0.44843750000000004 0.921875 -0.010937499999999996
v -0.44843750000000004 0.921875 0.010937500000000003
v -0.44843750000000004 0.33437500000000003 -0.010937499999999996
v -0.44843750000000004 0.33437500000000003 0.010937500000000003
vt 0.05625 0.9625
vt 0.078125 0.9625
vt 0.078125 0.375
vt 0.05625 0.375
vt 0.0515625 0.9625
vt 0.07343749999999999 0.9625
vt 0.07343749999999999 0.375
vt 0.0515625 0.375
vt 0.046875 0.9625
vt 0.06875 0.9625
vt 0.06875 0.375
vt 0.046875 0.375
vt 0.051562500000000004 0.9625
vt 0.0734375 0.9625
vt 0.0734375 0.375
vt 0.051562500000000004 0.375
vt 0.046875 0.9484375
vt 0.06875 0.9484375
vt 0.06875 0.9265625
vt 0.046875 0.9265625
vt 0.046875 0.9484375
vt 0.06875 0.9484375
vt 0.06875 0.9265625
vt 0.046875 0.9265625
vn 0 0 -1
vn 1 0 0
vn 0 0 1
vn -1 0 0
vn 0 1 0
vn 0 -1 0
usemtl m_58b3612b-e0d9-bfe9-67e1-7744f4fe7a32
f 60/188/47 63/187/47 61/186/47 58/185/47
f 59/192/48 60/191/48 58/190/48 57/189/48
f 64/196/49 59/195/49 57/194/49 62/193/49
f 63/200/50 64/199/50 62/198/50 61/197/50
f 62/204/51 57/203/51 58/202/51 61/201/51
f 63/208/52 60/207/52 59/206/52 64/205/52
o cube
v -0.36406249999999996 0.921875 0.010937500000000003
v -0.36406249999999996 0.921875 -0.010937499999999996
v -0.36406249999999996 0.33437500000000003 0.010937500000000003
v -0.36406249999999996 0.33437500000000003 -0.010937499999999996
v -0.38593750000000004 0.921875 -0.010937499999999996
v -0.38593750000000004 0.921875 0.010937500000000003
v -0.38593750000000004 0.33437500000000003 -0.010937499999999996
v -0.38593750000000004 0.33437500000000003 0.010937500000000003
vt 0.05625 0.9625
vt 0.078125 0.9625
vt 0.078125 0.375
vt 0.05625 0.375
vt 0.0515625 0.9625
vt 0.07343749999999999 0.9625
vt 0.07343749999999999 0.375
vt 0.0515625 0.375
vt 0.046875 0.9625
vt 0.06875 0.9625
vt 0.06875 0.375
vt 0.046875 0.375
vt 0.051562500000000004 0.9625
vt 0.0734375 0.9625
vt 0.0734375 0.375
vt 0.051562500000000004 0.375
vt 0.046875 0.9484375
vt 0.06875 0.9484375
vt 0.06875 0.9265625
vt 0.046875 0.9265625
vt 0.046875 0.9484375
vt 0.06875 0.9484375
vt 0.06875 0.9265625
vt 0.046875 0.9265625
vn 0 0 -1
vn 1 0 0
vn 0 0 1
vn -1 0 0
vn 0 1 0
vn 0 -1 0
usemtl m_58b3612b-e0d9-bfe9-67e1-7744f4fe7a32
f 68/212/53 71/211/53 69/210/53 66/209/53
f 67/216/54 68/215/54 66/214/54 65/213/54
f 72/220/55 67/219/55 65/218/55 70/217/55
f 71/224/56 72/223/56 70/222/56 69/221/56
f 70/228/57 65/227/57 66/226/57 69/225/57
f 71/232/58 68/231/58 67/230/58 72/229/58
o cube
v -0.30156249999999996 0.921875 0.010937500000000003
v -0.30156249999999996 0.921875 -0.010937499999999996
v -0.30156249999999996 0.33437500000000003 0.010937500000000003
v -0.30156249999999996 0.33437500000000003 -0.010937499999999996
v -0.32343750000000004 0.921875 -0.010937499999999996
v -0.32343750000000004 0.921875 0.010937500000000003
v -0.32343750000000004 0.33437500000000003 -0.010937499999999996
v -0.32343750000000004 0.33437500000000003 0.010937500000000003
vt 0.05625 0.9625
vt 0.078125 0.9625
vt 0.078125 0.375
vt 0.05625 0.375
vt 0.0515625 0.9625
vt 0.07343749999999999 0.9625
vt 0.07343749999999999 0.375
vt 0.0515625 0.375
vt 0.046875 0.9625
vt 0.06875 0.9625
vt 0.06875 0.375
vt 0.046875 0.375
vt 0.051562500000000004 0.9625
vt 0.0734375 0.9625
vt 0.0734375 0.375
vt 0.051562500000000004 0.375
vt 0.046875 0.9484375
vt 0.06875 0.9484375
vt 0.06875 0.9265625
vt 0.046875 0.9265625
vt 0.046875 0.9484375
vt 0.06875 0.9484375
vt 0.06875 0.9265625
vt 0.046875 0.9265625
vn 0 0 -1
vn 1 0 0
vn 0 0 1
vn -1 0 0
vn 0 1 0
vn 0 -1 0
usemtl m_58b3612b-e0d9-bfe9-67e1-7744f4fe7a32
f 76/236/59 79/235/59 77/234/59 74/233/59
f 75/240/60 76/239/60 74/238/60 73/237/60
f 80/244/61 75/243/61 73/242/61 78/241/61
f 79/248/62 80/247/62 78/246/62 77/245/62
f 78/252/63 73/251/63 74/250/63 77/249/63
f 79/256/64 76/255/64 75/254/64 80/253/64
o cube
v -0.23906249999999996 0.921875 0.010937500000000003
v -0.23906249999999996 0.921875 -0.010937499999999996
v -0.23906249999999996 0.33437500000000003 0.010937500000000003
v -0.23906249999999996 0.33437500000000003 -0.010937499999999996
v -0.26093750000000004 0.921875 -0.010937499999999996
v -0.26093750000000004 0.921875 0.010937500000000003
v -0.26093750000000004 0.33437500000000003 -0.010937499999999996
v -0.26093750000000004 0.33437500000000003 0.010937500000000003
vt 0.05625 0.9625
vt 0.078125 0.9625
vt 0.078125 0.375
vt 0.05625 0.375
vt 0.0515625 0.9625
vt 0.07343749999999999 0.9625
vt 0.07343749999999999 0.375
vt 0.0515625 0.375
vt 0.046875 0.9625
vt 0.06875 0.9625
vt 0.06875 0.375
vt 0.046875 0.375
vt 0.051562500000000004 0.9625
vt 0.0734375 0.9625
vt 0.0734375 0.375
vt 0.051562500000000004 0.375
vt 0.046875 0.9484375
vt 0.06875 0.9484375
vt 0.06875 0.9265625
vt 0.046875 0.9265625
vt 0.046875 0.9484375
vt 0.06875 0.9484375
vt 0.06875 0.9265625
vt 0.046875 0.9265625
vn 0 0 -1
vn 1 0 0
vn 0 0 1
vn -1 0 0
vn 0 1 0
vn 0 -1 0
usemtl m_58b3612b-e0d9-bfe9-67e1-7744f4fe7a32
f 84/260/65 87/259/65 85/258/65 82/257/65
f 83/264/66 84/263/66 82/262/66 81/261/66
f 88/268/67 83/267/67 81/266/67 86/265/67
f 87/272/68 88/271/68 86/270/68 85/269/68
f 86/276/69 81/275/69 82/274/69 85/273/69
f 87/280/70 84/279/70 83/278/70 88/277/70
o cube
v -0.17656249999999996 0.921875 0.010937500000000003
v -0.17656249999999996 0.921875 -0.010937499999999996
v -0.17656249999999996 0.33437500000000003 0.010937500000000003
v -0.17656249999999996 0.33437500000000003 -0.010937499999999996
v -0.19843750000000004 0.921875 -0.010937499999999996
v -0.19843750000000004 0.921875 0.010937500000000003
v -0.19843750000000004 0.33437500000000003 -0.010937499999999996
v -0.19843750000000004 0.33437500000000003 0.010937500000000003
vt 0.05625 0.9625
vt 0.078125 0.9625
vt 0.078125 0.375
vt 0.05625 0.375
vt 0.0515625 0.9625
vt 0.07343749999999999 0.9625
vt 0.07343749999999999 0.375
vt 0.0515625 0.375
vt 0.046875 0.9625
vt 0.06875 0.9625
vt 0.06875 0.375
vt 0.046875 0.375
vt 0.051562500000000004 0.9625
vt 0.0734375 0.9625
vt 0.0734375 0.375
vt 0.051562500000000004 0.375
vt 0.046875 0.9484375
vt 0.06875 0.9484375
vt 0.06875 0.9265625
vt 0.046875 0.9265625
vt 0.046875 0.9484375
vt 0.06875 0.9484375
vt 0.06875 0.9265625
vt 0.046875 0.9265625
vn 0 0 -1
vn 1 0 0
vn 0 0 1
vn -1 0 0
vn 0 1 0
vn 0 -1 0
usemtl m_58b3612b-e0d9-bfe9-67e1-7744f4fe7a32
f 92/284/71 95/283/71 93/282/71 90/281/71
f 91/288/72 92/287/72 90/286/72 89/285/72
f 96/292/73 91/291/73 89/290/73 94/289/73
f 95/296/74 96/295/74 94/294/74 93/293/74
f 94/300/75 89/299/75 90/298/75 93/297/75
f 95/304/76 92/303/76 91/302/76 96/301/76
o cube
v -0.11406249999999996 0.921875 0.010937500000000003
v -0.11406249999999996 0.921875 -0.010937499999999996
v -0.11406249999999996 0.33437500000000003 0.010937500000000003
v -0.11406249999999996 0.33437500000000003 -0.010937499999999996
v -0.13593750000000004 0.921875 -0.010937499999999996
v -0.13593750000000004 0.921875 0.010937500000000003
v -0.13593750000000004 0.33437500000000003 -0.010937499999999996
v -0.13593750000000004 0.33437500000000003 0.010937500000000003
vt 0.05625 0.9625
vt 0.078125 0.9625
vt 0.078125 0.375
vt 0.05625 0.375
vt 0.0515625 0.9625
vt 0.07343749999999999 0.9625
vt 0.07343749999999999 0.375
vt 0.0515625 0.375
vt 0.046875 0.9625
vt 0.06875 0.9625
vt 0.06875 0.375
vt 0.046875 0.375
vt 0.051562500000000004 0.9625
vt 0.0734375 0.9625
vt 0.0734375 0.375
vt 0.051562500000000004 0.375
vt 0.046875 0.9484375
vt 0.06875 0.9484375
vt 0.06875 0.9265625
vt 0.046875 0.9265625
vt 0.046875 0.9484375
vt 0.06875 0.9484375
vt 0.06875 0.9265625
vt 0.046875 0.9265625
vn 0 0 -1
vn 1 0 0
vn 0 0 1
vn -1 0 0
vn 0 1 0
vn 0 -1 0
usemtl m_58b3612b-e0d9-bfe9-67e1-7744f4fe7a32
f 100/308/77 103/307/77 101/306/77 98/305/77
f 99/312/78 100/311/78 98/310/78 97/309/78
f 104/316/79 99/315/79 97/314/79 102/313/79
f 103/320/80 104/319/80 102/318/80 101/317/80
f 102/324/81 97/323/81 98/322/81 101/321/81
f 103/328/82 100/327/82 99/326/82 104/325/82
o cube
v -0.051562499999999956 0.921875 0.010937500000000003
v -0.051562499999999956 0.921875 -0.010937499999999996
v -0.051562499999999956 0.33437500000000003 0.010937500000000003
v -0.051562499999999956 0.33437500000000003 -0.010937499999999996
v -0.07343750000000004 0.921875 -0.010937499999999996
v -0.07343750000000004 0.921875 0.010937500000000003
v -0.07343750000000004 0.33437500000000003 -0.010937499999999996
v -0.07343750000000004 0.33437500000000003 0.010937500000000003
vt 0.05625 0.9625
vt 0.078125 0.9625
vt 0.078125 0.375
vt 0.05625 0.375
vt 0.0515625 0.9625
vt 0.07343749999999999 0.9625
vt 0.07343749999999999 0.375
vt 0.0515625 0.375
vt 0.046875 0.9625
vt 0.06875 0.9625
vt 0.06875 0.375
vt 0.046875 0.375
vt 0.051562500000000004 0.9625
vt 0.0734375 0.9625
vt 0.0734375 0.375
vt 0.051562500000000004 0.375
vt 0.046875 0.9484375
vt 0.06875 0.9484375
vt 0.06875 0.9265625
vt 0.046875 0.9265625
vt 0.046875 0.9484375
vt 0.06875 0.9484375
vt 0.06875 0.9265625
vt 0.046875 0.9265625
vn 0 0 -1
vn 1 0 0
vn 0 0 1
vn -1 0 0
vn 0 1 0
vn 0 -1 0
usemtl m_58b3612b-e0d9-bfe9-67e1-7744f4fe7a32
f 108/332/83 111/331/83 109/330/83 106/329/83
f 107/336/84 108/335/84 106/334/84 105/333/84
f 112/340/85 107/339/85 105/338/85 110/337/85
f 111/344/86 112/343/86 110/342/86 109/341/86
f 110/348/87 105/347/87 106/346/87 109/345/87
f 111/352/88 108/351/88 107/350/88 112/349/88
o cube
v 0.0625 0.1875 0.0625
v 0.0625 0.1875 -0.0625
v 0.0625 0.171875 0.0625
v 0.0625 0.171875 -0.0625
v -0.0625 0.1875 -0.0625
v -0.0625 0.1875 0.0625
v -0.0625 0.171875 -0.0625
v -0.0625 0.171875 0.0625
vt 0 0.890625
vt 0.125 0.890625
vt 0.125 0.875
vt 0 0.875
vt 0 0.890625
vt 0.125 0.890625
vt 0.125 0.875
vt 0 0.875
vt 0 0.890625
vt 0.125 0.890625
vt 0.125 0.875
vt 0 0.875
vt 0 0.890625
vt 0.125 0.890625
vt 0.125 0.875
vt 0 0.875
vt 0 1
vt 0.125 1
vt 0.125 0.875
vt 0 0.875
vt 0 1
vt 0.125 1
vt 0.125 0.875
vt 0 0.875
vn 0 0 -1
vn 1 0 0
vn 0 0 1
vn -1 0 0
vn 0 1 0
vn 0 -1 0
usemtl m_58b3612b-e0d9-bfe9-67e1-7744f4fe7a32
f 116/356/89 119/355/89 117/354/89 114/353/89
f 115/360/90 116/359/90 114/358/90 113/357/90
f 120/364/91 115/363/91 113/362/91 118/361/91
f 119/368/92 120/367/92 118/366/92 117/365/92
f 118/372/93 113/371/93 114/370/93 117/369/93
f 119/376/94 116/375/94 115/374/94 120/373/94
o cube
v 0.03125 0.296875 0.03125
v 0.03125 0.296875 -0.03125
v 0.046875 0.1875 0.046875
v 0.046875 0.1875 -0.046875
v -0.03125 0.296875 0.03125
v -0.03125 0.296875 -0.03125
v -0.046875 0.1875 0.046875
v -0.046875 0.1875 -0.046875
v 0.046875 0.2828125 -0.046875
v 0.046875 0.2828125 0.046875
v -0.046875 0.2828125 0.046875
v -0.046875 0.2828125 -0.046875
vt 0.015625 0.984375
vt 0.015625 0.9296875
vt 0.109375 0.9296875
vt 0.109375 0.984375
vt 0.015625 0.984375
vt 0.015625 0.9296875
vt 0.109375 0.9296875
vt 0.109375 0.984375
vt 0.109375 0.890625
vt 0.109375 0.984375
vt 0.015625 0.984375
vt 0.015625 0.890625
vt 0.109375 0.890625
vt 0.109375 0.984375
vt 0.015625 0.984375
vt 0.015625 0.890625
vt 0.015625 0.984375
vt 0.015625 0.9296875
vt 0.109375 0.9296875
vt 0.109375 0.984375
vt 0.015625 0.984375
vt 0.015625 0.9296875
vt 0.109375 0.9296875
vt 0.109375 0.984375
vt 0.109375 0.875
vt 0.109375 0.9296875
vt 0.015625 0.9296875
vt 0.015625 0.875
vt 0.109375 0.875
vt 0.109375 0.9296875
vt 0.015625 0.9296875
vt 0.015625 0.875
vt 0.109375 0.875
vt 0.109375 0.9296875
vt 0.015625 0.9296875
vt 0.015625 0.875
vt 0.109375 0.875
vt 0.109375 0.9296875
vt 0.015625 0.9296875
vt 0.015625 0.875
vn 0.6689647316224491 0.7432941462471668 0
vn -0.6689647316224491 0.7432941462471668 0
vn 0 1 0
vn 0 -1 0
vn 0 0.7432941462471668 0.6689647316224491
vn 0 0.7432941462471668 -0.6689647316224491
vn 1 0 0
vn 0 0 1
vn -1 0 0
vn 0 0 -1
usemtl m_58b3612b-e0d9-bfe9-67e1-7744f4fe7a32
f 121/377/95 130/378/95 129/379/95 122/380/95
f 126/381/96 132/382/96 131/383/96 125/384/96
f 121/385/97 122/386/97 126/387/97 125/388/97
f 124/389/98 123/390/98 127/391/98 128/392/98
f 125/393/99 131/394/99 130/395/99 121/396/99
f 122/397/100 129/398/100 132/399/100 126/400/100
f 124/401/101 129/402/101 130/403/101 123/404/101
f 123/405/102 130/406/102 131/407/102 127/408/102
f 127/409/103 131/410/103 132/411/103 128/412/103
f 128/413/104 132/414/104 129/415/104 124/416/104
o cube
v 0.03125 0.921875 0.03125
v 0.03125 0.921875 -0.03125
v 0.03125 0.296875 0.03125
v 0.03125 0.296875 -0.03125
v -0.03125 0.921875 -0.03125
v -0.03125 0.921875 0.03125
v -0.03125 0.296875 -0.03125
v -0.03125 0.296875 0.03125
vt 0.03125 0.984375
vt 0.09375 0.984375
vt 0.09375 0.359375
vt 0.03125 0.359375
vt 0.03125 0.984375
vt 0.09375 0.984375
vt 0.09375 0.359375
vt 0.03125 0.359375
vt 0.03125 0.984375
vt 0.09375 0.984375
vt 0.09375 0.359375
vt 0.03125 0.359375
vt 0.03125 0.984375
vt 0.09375 0.984375
vt 0.09375 0.359375
vt 0.03125 0.359375
vt 0.03125 0.96875
vt 0.09375 0.96875
vt 0.09375 0.90625
vt 0.03125 0.90625
vt 0.03125 0.96875
vt 0.09375 0.96875
vt 0.09375 0.90625
vt 0.03125 0.90625
vn 0 0 -1
vn 1 0 0
vn 0 0 1
vn -1 0 0
vn 0 1 0
vn 0 -1 0
usemtl m_58b3612b-e0d9-bfe9-67e1-7744f4fe7a32
f 136/420/105 139/419/105 137/418/105 134/417/105
f 135/424/106 136/423/106 134/422/106 133/421/106
f 140/428/107 135/427/107 133/426/107 138/425/107
f 139/432/108 140/431/108 138/430/108 137/429/108
f 138/436/109 133/435/109 134/434/109 137/433/109
f 139/440/110 136/439/110 135/438/110 140/437/110