# Made in Blockbench 5.1.6
mtllib nyc_subway_fare_gate_2_exit_closed_light_layer.mtl

o cube
v -0.3350294018804991 1.1718750000000002 -0.859806527694727
v -0.335029401880499 1.921875 -0.8598065276947269
v -0.17580609156589047 1.1718750000000002 -0.8528546878333771
v -0.1758060915658904 1.921875 -0.8528546878333771
vt 0.4013671875 0
vt 0.4404296875 0
vt 0.4404296875 0.1875
vt 0.4013671875 0.1875
vn 0.043619387365332316 1.414990129424219e-16 -0.9990482215818579
usemtl m_8deb65c5-d508-031f-59d4-8b8e7bac54b4
f 3/1/1 1/2/1 2/3/1 4/4/1
o cube
v -0.2848092743965992 1.0943749999999999 -1.3574652121574544
v -0.2739044275552663 0.9693749999999998 -1.607227267552919
v -0.08726443893625124 0.9224999999999998 -1.5834385039597025
v -0.09748773285000085 1.0474999999999999 -1.3492865770264548
vt 0.3173828125 0.0017455468750000591
vt 0.3173828125 0.0716234375
vt 0.2689357031249999 0.06638375000000041
vt 0.2685546875 0
vn 0.23704725652611147 0.8728715609439697 -0.4265018596309775
usemtl m_8deb65c5-d508-031f-59d4-8b8e7bac54b4
f 6/5/2 5/6/2 8/7/2 7/8/2
o cube
v -0.408773428645013 1.171875 0.8304593719171015
v -0.24955011833040433 1.171875 0.8374112117784513
v -0.24955011833040425 1.921875 0.8374112117784513
v -0.40877342864501287 1.921875 0.8304593719171016
vt 0.44140625 0
vt 0.48046875 0
vt 0.48046875 0.1875
vt 0.44140625 0.1875
vn -0.043619387365332316 3.628179819036458e-18 0.9990482215818579
usemtl m_8deb65c5-d508-031f-59d4-8b8e7bac54b4
f 9/9/3 10/10/3 11/11/3 12/12/3