# Made in Blockbench 5.1.6
mtllib nyc_subway_ticket_machine_2_light_layer.mtl

o cube
v -0.34375 0.375 0.250625
v 0.34375 0.375 0.250625
v 0.34375 1.625 0.250625
v -0.34375 1.625 0.250625
vt 0 0.375
vt 0.34375 0.375
vt 0.34375 1
vt 0 1
vn 0 0 1
usemtl m_767022cc-c72b-99df-e142-7224b5f618d3
f 1/1/1 2/2/1 3/3/1 4/4/1
o cube
v -0.3125 1.828125 0.375625
v 0.3125 1.828125 0.375625
v 0.3125 1.90625 0.375625
v -0.3125 1.90625 0.375625
vt 0.34375 0.9609375
vt 0.65625 0.9609375
vt 0.65625 1
vt 0.34375 1
vn 0 0 1
usemtl m_767022cc-c72b-99df-e142-7224b5f618d3
f 5/5/2 6/6/2 7/7/2 8/8/2