# Made in Blockbench 5.1.6
mtllib nyc_subway_ticket_machine_8.mtl

o cube
v 0.5 1.75 0.3125
v 0.5 1.75 -0.375
v 0.5 0 0.3125
v 0.5 0 -0.375
v -0.5 1.75 -0.375
v -0.5 1.75 0.3125
v -0.5 0 -0.375
v -0.5 0 0.3125
vt 0 1
vt 0.125 1
vt 0.125 0.78125
vt 0 0.78125
vt 0 0.7734375
vt 0.0859375 0.7734375
vt 0.0859375 0.5546875
vt 0 0.5546875
vt 0.1328125 1
vt 0.2578125 1
vt 0.2578125 0.78125
vt 0.1328125 0.78125
vt 0.09375 0.7734375
vt 0.1796875 0.7734375
vt 0.1796875 0.5546875
vt 0.09375 0.5546875
vt 0.390625 0.796875
vt 0.265625 0.796875
vt 0.265625 0.8828125
vt 0.390625 0.8828125
vt 0.4453125 0.7890625
vt 0.3203125 0.7890625
vt 0.3203125 0.703125
vt 0.4453125 0.703125
vn 0 0 -1
vn 1 0 0
vn 0 0 1
vn -1 0 0
vn 0 1 0
vn 0 -1 0
usemtl m_f3160954-d11e-f6bb-8281-bb433c82780a
f 4/4/1 7/3/1 5/2/1 2/1/1
f 3/8/2 4/7/2 2/6/2 1/5/2
f 8/12/3 3/11/3 1/10/3 6/9/3
f 7/16/4 8/15/4 6/14/4 5/13/4
f 6/20/5 1/19/5 2/18/5 5/17/5
f 7/24/6 4/23/6 3/22/6 8/21/6
o cube
v 0.5 1.75 0.375
v 0.5 1.75 0.3125
v 0.5 1.25 0.375
v 0.5 1.21875 0.3125
v -0.5 1.75 0.375
v -0.5 1.75 0.3125
v -0.5 1.25 0.375
v -0.5 1.21875 0.3125
vt 0.359375 0.45703125
vt 0.359375 0.5234375
vt 0.3515625 0.5234375
vt 0.3515625 0.46019374999999996
vt 0.375 0.46019374999999996
vt 0.375 0.5234375
vt 0.3671875 0.5234375
vt 0.3671875 0.45703125
vt 0.578125 0.5703125
vt 0.578125 0.578125
vt 0.453125 0.578125
vt 0.453125 0.5703125
vt 0.578125 0.5927734375
vt 0.578125 0.6015625
vt 0.453125 0.6015625
vt 0.453125 0.5927734375
vt 0.3125 0.5146484375
vt 0.3125 0.578125
vt 0.1875 0.578125
vt 0.1875 0.5146484375
vt 0.4453125 0.55078125
vt 0.4453125 0.6171875
vt 0.3203125 0.6171875
vt 0.3203125 0.55078125
vn 1 0 0
vn -1 0 0
vn 0 1 0
vn 0 -0.8944271909999161 0.44721359549995804
vn 0 0 1
vn 0 0 -1
usemtl m_f3160954-d11e-f6bb-8281-bb433c82780a
f 12/25/7 10/26/7 9/27/7 11/28/7
f 15/29/8 13/30/8 14/31/8 16/32/8
f 9/33/9 10/34/9 14/35/9 13/36/9
f 12/37/10 11/38/10 15/39/10 16/40/10
f 11/41/11 9/42/11 13/43/11 15/44/11
f 16/45/12 14/46/12 10/47/12 12/48/12
o cube
v 0.5 0.5625 0.375
v 0.5 0.5625 0.3125
v 0.5 0 0.375
v 0.5 0 0.3125
v -0.5 0.5625 0.3125
v -0.5 0.5625 0.375
v -0.5 0 0.3125
v -0.5 0 0.375
vt 0.3203125 0.6953125
vt 0.4453125 0.6953125
vt 0.4453125 0.625
vt 0.3203125 0.625
vt 0.3203125 0.5234375
vt 0.328125 0.5234375
vt 0.328125 0.453125
vt 0.3203125 0.453125
vt 0.1875 0.65625
vt 0.3125 0.65625
vt 0.3125 0.5859375
vt 0.1875 0.5859375
vt 0.3359375 0.5234375
vt 0.34375 0.5234375
vt 0.34375 0.453125
vt 0.3359375 0.453125
vt 0.578125 0.5546875
vt 0.453125 0.5546875
vt 0.453125 0.5625
vt 0.578125 0.5625
vt 0.578125 0.546875
vt 0.453125 0.546875
vt 0.453125 0.5390625
vt 0.578125 0.5390625
vn 0 0 -1
vn 1 0 0
vn 0 0 1
vn -1 0 0
vn 0 1 0
vn 0 -1 0
usemtl m_f3160954-d11e-f6bb-8281-bb433c82780a
f 20/52/13 23/51/13 21/50/13 18/49/13
f 19/56/14 20/55/14 18/54/14 17/53/14
f 24/60/15 19/59/15 17/58/15 22/57/15
f 23/64/16 24/63/16 22/62/16 21/61/16
f 22/68/17 17/67/17 18/66/17 21/65/17
f 23/72/18 20/71/18 19/70/18 24/69/18
o cube
v -0.4375 1.25 0.375
v -0.4375 1.25 0.3125
v -0.4375 0.5625 0.375
v -0.4375 0.5625 0.3125
v -0.5 1.25 0.3125
v -0.5 1.25 0.375
v -0.5 0.5625 0.3125
v -0.5 0.5625 0.375
vt 0.171875 0.546875
vt 0.1796875 0.546875
vt 0.1796875 0.4609375
vt 0.171875 0.4609375
vt 0.421875 0.5390625
vt 0.4296875 0.5390625
vt 0.4296875 0.453125
vt 0.421875 0.453125
vt 0.4375 0.5390625
vt 0.4453125 0.5390625
vt 0.4453125 0.453125
vt 0.4375 0.453125
vt 0.46875 0.984375
vt 0.4765625 0.984375
vt 0.4765625 0.8984375
vt 0.46875 0.8984375
vt 0.2734375 0.78125
vt 0.265625 0.78125
vt 0.265625 0.7890625
vt 0.2734375 0.7890625
vt 0.2890625 0.7890625
vt 0.28125 0.7890625
vt 0.28125 0.78125
vt 0.2890625 0.78125
vn 0 0 -1
vn 1 0 0
vn 0 0 1
vn -1 0 0
vn 0 1 0
vn 0 -1 0
usemtl m_f3160954-d11e-f6bb-8281-bb433c82780a
f 28/76/19 31/75/19 29/74/19 26/73/19
f 27/80/20 28/79/20 26/78/20 25/77/20
f 32/84/21 27/83/21 25/82/21 30/81/21
f 31/88/22 32/87/22 30/86/22 29/85/22
f 30/92/23 25/91/23 26/90/23 29/89/23
f 31/96/24 28/95/24 27/94/24 32/93/24
o cube
v 0.5 1.25 0.375
v 0.5 1.25 0.3125
v 0.5 0.5625 0.375
v 0.5 0.5625 0.3125
v 0.015625 1.25 0.3125
v 0.015625 1.25 0.375
v 0.015625 0.5625 0.3125
v 0.015625 0.5625 0.375
vt 0.0703125 0.546875
vt 0.12890625 0.546875
vt 0.12890625 0.4609375
vt 0.0703125 0.4609375
vt 0.453125 0.53125
vt 0.4609375 0.53125
vt 0.4609375 0.4453125
vt 0.453125 0.4453125
vt 0.453125 0.8515625
vt 0.51171875 0.8515625
vt 0.51171875 0.765625
vt 0.453125 0.765625
vt 0.46875 0.53125
vt 0.4765625 0.53125
vt 0.4765625 0.4453125
vt 0.46875 0.4453125
vt 0.52734375 0.859375
vt 0.46875 0.859375
vt 0.46875 0.8671875
vt 0.52734375 0.8671875
vt 0.54296875 0.984375
vt 0.484375 0.984375
vt 0.484375 0.9765625
vt 0.54296875 0.9765625
vn 0 0 -1
vn 1 0 0
vn 0 0 1
vn -1 0 0
vn 0 1 0
vn 0 -1 0
usemtl m_f3160954-d11e-f6bb-8281-bb433c82780a
f 36/100/25 39/99/25 37/98/25 34/97/25
f 35/104/26 36/103/26 34/102/26 33/101/26
f 40/108/27 35/107/27 33/106/27 38/105/27
f 39/112/28 40/111/28 38/110/28 37/109/28
f 38/116/29 33/115/29 34/114/29 37/113/29
f 39/120/30 36/119/30 35/118/30 40/117/30
o cube
v 0 0.84375 0.4375
v 0.03125 1.21875 0.3125
v 0 0.359375 0.4375
v 0.03125 0.3125 0.375
v -0.40625 0.84375 0.4375
v -0.4375 1.21875 0.3125
v -0.40625 0.359375 0.4375
v -0.4375 0.3125 0.375
v 0.03125 0.9140625 0.375
v 0.015625 0.3359375 0.40625
v -0.421875 0.3359375 0.40625
v -0.4375 0.9140625 0.375
vt 0.3238898945026749 0.5359602176419098
vt 0.32118059026661017 0.53125
vt 0.4091796875 0.53125
vt 0.38631285377384916 0.5390625
vt 0.15634765625 0.478515625
vt 0.1476125 0.5009765625
vt 0.15198046875 0.4130859375
vt 0.15634765625 0.416015625
vt 0.0546875 0.47653515625
vt 0.05859375 0.5003164062500001
vt 0 0.5003164062500001
vt 0.00390625 0.47653515625
vt 0.47265625 0.890625
vt 0.470703125 0.8857421875
vt 0.525390625 0.8857421875
vt 0.5234375 0.890625
vt 0.0546875 0.41305859375
vt 0.0546875 0.47555859375
vt 0.00390625 0.47555859375
vt 0.00390625 0.41305859375
vt 0.45703125 0.86328125
vt 0.45703125 1
vt 0.3984375 1
vt 0.3984375 0.86328125
vt 0.6056464565144064 0.994140625
vt 0.5594583492234788 0.9999983027028311
vt 0.4714587514287381 0.9999983027028311
vt 0.46875 0.9963804459310478
vt 0.52734375 0.880859375
vt 0.525390625 0.8857421875
vt 0.470703125 0.8857421875
vt 0.46875 0.880859375
vt 0.1476125 0.41015625
vt 0.15198046875 0.4130859375
vt 0.1476125 0.5009765625
vt 0.140625 0.546875
vt 0 0.546875
vt 0 0.5012929687500001
vt 0.05859375 0.5012929687500001
vt 0.05859375 0.546875
vn 0.8944271909999161 0 0.44721359549995804
vn -0.8944271909999161 0 0.44721359549995804
vn 0 0.6643638388299198 0.7474093186836598
vn 0 -0.8 0.6
vn 0 0 1
vn 0 -0.06880209161537816 -0.9976303284229833
vn 0.9837300732166648 -0.03610018617308862 -0.175988407593807
vn 0 -0.8 0.6
vn -0.8944271909999161 0 0.44721359549995804
vn 0 0.20094414372133132 0.9796027006414901
usemtl m_f3160954-d11e-f6bb-8281-bb433c82780a
f 43/121/31 50/122/31 49/123/31 41/124/31
f 45/125/32 52/126/32 51/127/32 47/128/32
f 41/129/33 49/130/33 52/131/33 45/132/33
f 47/133/34 51/134/34 50/135/34 43/136/34
f 43/137/35 41/138/35 45/139/35 47/140/35
f 48/141/36 46/142/36 42/143/36 44/144/36
f 42/145/37 49/146/37 50/147/37 44/148/37
f 44/149/38 50/150/38 51/151/38 48/152/38
f 48/153/39 51/154/39 52/155/39 46/156/39
f 46/157/40 52/158/40 49/159/40 42/160/40
o cube
v 0.4375 2 0.5
v 0.5 2 -0.375
v 0.4375 1.75 0.5
v 0.5 1.75 -0.375
v -0.4375 2 0.5
v -0.5 2 -0.375
v -0.4375 1.75 0.5
v -0.5 1.75 -0.375
v 0.5 2 0.4375
v 0.5 1.75 0.4375
v -0.5 1.75 0.4375
v -0.5 2 0.4375
vt 0.3984375 0.8203125
vt 0.4091796875 0.8203125
vt 0.4091796875 0.8515625
vt 0.3984375 0.8515625
vt 0.4326171875 0.8515625
vt 0.421875 0.8515625
vt 0.421875 0.8203125
vt 0.4326171875 0.8203125
vt 0.3046875 0.6640625
vt 0.3125 0.671875
vt 0.1875 0.671875
vt 0.1953125 0.6640625
vt 0.2734375 1
vt 0.265625 0.9921875
vt 0.390625 0.9921875
vt 0.3828125 1
vt 0.5625 0.6875
vt 0.5625 0.71875
vt 0.453125 0.71875
vt 0.453125 0.6875
vt 0.578125 0.7265625
vt 0.578125 0.7578125
vt 0.453125 0.7578125
vt 0.453125 0.7265625
vt 0.5546875 0.6796875
vt 0.453125 0.6796875
vt 0.453125 0.6484375
vt 0.5546875 0.6484375
vt 0.390625 0.890625
vt 0.390625 0.9921875
vt 0.265625 0.9921875
vt 0.265625 0.890625
vt 0.453125 0.609375
vt 0.5546875 0.609375
vt 0.5546875 0.640625
vt 0.453125 0.640625
vt 0.1875 0.7734375
vt 0.1875 0.671875
vt 0.3125 0.671875
vt 0.3125 0.7734375
vn 0.7071067811865476 0 0.7071067811865476
vn -0.7071067811865476 0 0.7071067811865476
vn 0 1 0
vn 0 -1 0
vn 0 0 1
vn 0 0 -1
vn 1 0 0
vn 0 -1 0
vn -1 0 0
vn 0 1 0
usemtl m_f3160954-d11e-f6bb-8281-bb433c82780a
f 55/161/41 62/162/41 61/163/41 53/164/41
f 57/165/42 64/166/42 63/167/42 59/168/42
f 53/169/43 61/170/43 64/171/43 57/172/43
f 59/173/44 63/174/44 62/175/44 55/176/44
f 55/177/45 53/178/45 57/179/45 59/180/45
f 60/181/46 58/182/46 54/183/46 56/184/46
f 54/185/47 61/186/47 62/187/47 56/188/47
f 56/189/48 62/190/48 63/191/48 60/192/48
f 60/193/49 63/194/49 64/195/49 58/196/49
f 58/197/50 64/198/50 61/199/50 54/200/50