# Made in Blockbench 5.1.5
mtllib nyc_subway_bench_2a.mtl

o cube
v -0.5 0.5625 0.453125
v -0.5 0.5625 -0.5
v -0.5 0.4375 0.421875
v -0.5 0.4375 -0.5
v 0.5 0.5625 0.453125
v 0.5 0.5625 -0.5
v 0.5 0.4375 0.421875
v 0.5 0.4375 -0.5
v -0.5 0.53125 0.4765625
v 0.5 0.53125 0.4765625
v 0.5 0.5 -0.5
v -0.5 0.5 -0.5
v 0.5 0.55 0.46875
v -0.5 0.55 0.46875
v -0.5 0.53125 -0.5
v 0.5 0.53125 -0.5
v -0.5 0.5 0.466875
v 0.5 0.5 0.466875
v 0.5 0.46875 -0.5
v -0.5 0.46875 -0.5
vt 0.3281250000000017 0.9999999999999998
vt 0.3281249999999955 0
vt 0.218749999999997 0
vt 0.21875000000000322 0.9999999999999999
vt 0.3281250000000017 0.9999999999999998
vt 0.3281249999999955 0
vt 0.218749999999997 0
vt 0.21875000000000322 0.9999999999999999
vt 0.9765625 1
vt 0.9765625 0
vt 0 0
vt 0 1
vt 0.921875 1
vt 0.921875 0
vt 0 0
vt 0 1
vt 0.0625 1
vt 0.0625 0
vt 0.0546875 0
vt 0.0546875 1
vt 0.09375 1
vt 0.09375 0
vt 0.0625 0
vt 0.0625 1
vt 0.04492187499999997 0
vt 0.04492187500000011 1
vt 0.05468749999999997 1
vt 0.05468749999999983 0
vt 0.1093749999999985 0
vt 0.10937500000000472 0.9999999999999999
vt 0.21875000000000322 0.9999999999999999
vt 0.218749999999997 0
vt 0.031249999999999972 0
vt 0.031250000000000305 1
vt 0.06249999999999997 1
vt 0.06249999999999964 0
vt 0.1093749999999985 0
vt 0.10937500000000472 0.9999999999999999
vt 0.21875000000000322 0.9999999999999999
vt 0.218749999999997 0
vt 0.06249999999999964 0
vt 0.06250000000000253 1
vt 0.07812499999999964 0.9999999999999998
vt 0.07812499999999675 0
vt 0.3281249999999955 0
vt 0.3281250000000017 0.9999999999999998
vt 0.4375000000000002 0.9999999999999999
vt 0.437499999999994 0
vt 0.09374999999999964 0
vt 0.09375000000000541 1
vt 0.12499999999999964 0.9999999999999998
vt 0.12499999999999387 0
vt 0.3281249999999955 0
vt 0.3281250000000017 0.9999999999999998
vt 0.4375000000000002 0.9999999999999999
vt 0.437499999999994 0
vt 0.044921875 1
vt 0.04492187499999936 0
vt 0 0
vt 6.38378239159465e-16 1
vt 0.10937500000000472 0.9999999999999999
vt 0.1093749999999985 0
vt 0 0
vt 6.2172489379007914e-15 1
vt 0.03125 1
vt 0.031249999999999556 0
vt 0 0
vt 4.440892098500626e-16 1
vt 0.10937500000000472 0.9999999999999999
vt 0.1093749999999985 0
vt 0 0
vt 6.2172489379007914e-15 1
vn -1 0 0
vn 1 0 0
vn 0 1 0
vn 0 -1 0
vn 0 0.3846153846153846 0.9230769230769231
vn 0 0 -1
vn 0 -0.29609877111408106 0.9551573261744535
vn 1 0 0
vn 0 0 -1
vn -1 0 0
vn 0 0.7808688094430304 0.6246950475544242
vn -1 0 0
vn 0 0 -1
vn 1 0 0
vn 0 -0.5843047258450758 0.8115343414514945
vn 1 0 0
vn 0 0 -1
vn -1 0 0
usemtl m_d51689c8-3fb7-8cdf-3a11-c2eb042af219
f 14/1/1 15/2/1 12/3/1 9/4/1
f 16/5/2 13/6/2 10/7/2 11/8/2
f 6/9/3 2/10/3 1/11/3 5/12/3
f 7/13/4 3/14/4 4/15/4 8/16/4
f 13/17/5 14/18/5 9/19/5 10/20/5
f 15/21/6 16/22/6 11/23/6 12/24/6
f 17/25/7 18/26/7 10/27/7 9/28/7
f 18/29/8 19/30/8 11/31/8 10/32/8
f 19/33/9 20/34/9 12/35/9 11/36/9
f 20/37/10 17/38/10 9/39/10 12/40/10
f 14/41/11 13/42/11 5/43/11 1/44/11
f 15/45/12 14/46/12 1/47/12 2/48/12
f 16/49/13 15/50/13 2/51/13 6/52/13
f 13/53/14 16/54/14 6/55/14 5/56/14
f 18/57/15 17/58/15 3/59/15 7/60/15
f 19/61/16 18/62/16 7/63/16 8/64/16
f 20/65/17 19/66/17 8/67/17 4/68/17
f 17/69/18 20/70/18 4/71/18 3/72/18
o cube
v 0.4375 0.75 0.234375
v 0.4375 0.75 -0.484375
v 0.4375 0.734375 0.25
v 0.4375 0.734375 -0.5
v 0.5 0.75 0.234375
v 0.5 0.75 -0.484375
v 0.5 0.734375 0.25
v 0.5 0.734375 -0.5
vt 0.03125 0.986328125
vt 0.125 0.986328125
vt 0.125 0.984375
vt 0.03125 0.984375
vt 0 0.986328125
vt 0.09375 0.986328125
vt 0.09375 0.984375
vt 0 0.984375
vt 0 1
vt 0.0078125 1
vt 0.0078125 0.90625
vt 0 0.90625
vt 0 0.96875
vt 0.0078125 0.96875
vt 0.0078125 0.875
vt 0 0.875
vt 0 0.986328125
vt 0.0078125 0.986328125
vt 0.0078125 0.984375
vt 0 0.984375
vt 0.0078125 0.986328125
vt 0.015625 0.986328125
vt 0.015625 0.984375
vt 0.0078125 0.984375
vn -1 0 0
vn 1 0 0
vn 0 1 0
vn 0 -1 0
vn 0 0.7071067811865476 0.7071067811865476
vn 0 0.7071067811865476 -0.7071067811865476
usemtl m_9005a747-e07b-8cf5-d916-d6e209704652
f 21/73/19 22/74/19 24/75/19 23/76/19
f 26/77/20 25/78/20 27/79/20 28/80/20
f 26/81/21 22/82/21 21/83/21 25/84/21
f 27/85/22 23/86/22 24/87/22 28/88/22
f 25/89/23 21/90/23 23/91/23 27/92/23
f 22/93/24 26/94/24 28/95/24 24/96/24
o cube
v 0.4375 0.578125 0.25
v 0.4375 0.578125 -0.5
v 0.4375 0.5625 0.234375
v 0.4375 0.5625 -0.484375
v 0.5 0.578125 0.25
v 0.5 0.578125 -0.5
v 0.5 0.5625 0.234375
v 0.5 0.5625 -0.484375
vt 0.03125 0.986328125
vt 0.125 0.986328125
vt 0.125 0.984375
vt 0.03125 0.984375
vt 0 0.986328125
vt 0.09375 0.986328125
vt 0.09375 0.984375
vt 0 0.984375
vt 0 1
vt 0.0078125 1
vt 0.0078125 0.90625
vt 0 0.90625
vt 0 0.96875
vt 0.0078125 0.96875
vt 0.0078125 0.875
vt 0 0.875
vt 0 0.986328125
vt 0.0078125 0.986328125
vt 0.0078125 0.984375
vt 0 0.984375
vt 0.0078125 0.986328125
vt 0.015625 0.986328125
vt 0.015625 0.984375
vt 0.0078125 0.984375
vn -1 0 0
vn 1 0 0
vn 0 1 0
vn 0 -1 0
vn 0 -0.7071067811865476 0.7071067811865476
vn 0 -0.7071067811865476 -0.7071067811865476
usemtl m_9005a747-e07b-8cf5-d916-d6e209704652
f 29/97/25 30/98/25 32/99/25 31/100/25
f 34/101/26 33/102/26 35/103/26 36/104/26
f 34/105/27 30/106/27 29/107/27 33/108/27
f 35/109/28 31/110/28 32/111/28 36/112/28
f 33/113/29 29/114/29 31/115/29 35/116/29
f 30/117/30 34/118/30 36/119/30 32/120/30
o cube
v 0.4375 0.734375 0.25
v 0.4375 0.734375 0.21875
v 0.4375 0.578125 0.25
v 0.4375 0.578125 0.21875
v 0.5 0.734375 0.25
v 0.5 0.734375 0.21875
v 0.5 0.578125 0.25
v 0.5 0.578125 0.21875
v 0.5 0.71875 0.234375
v 0.4375 0.71875 0.234375
v 0.4375 0.71875 0.25
v 0.5 0.71875 0.25
v 0.4375 0.59375 0.25
v 0.5 0.59375 0.25
v 0.5 0.59375 0.234375
v 0.4375 0.59375 0.234375
vt 0.033203125 0.974609375
vt 0.03125 0.974609375
vt 0.03125 0.984375
vt 0.033203125 0.984375
vt 0.09375 0.974609375
vt 0.091796875 0.974609375
vt 0.091796875 0.984375
vt 0.09375 0.984375
vt 0 0.908203125
vt 0.0078125 0.908203125
vt 0.0078125 0.90625
vt 0 0.90625
vt 0 0.96875
vt 0.0078125 0.96875
vt 0.0078125 0.966796875
vt 0 0.966796875
vt 0.0078125 0.974609375
vt 0 0.974609375
vt 0 0.984375
vt 0.0078125 0.984375
vt 0.015625 0.974609375
vt 0.0078125 0.974609375
vt 0.0078125 0.984375
vt 0.015625 0.984375
vt 0.015625 0.9697265625
vt 0.0078125 0.9697265625
vt 0.0078125 0.974609375
vt 0.015625 0.974609375
vt 0.033203125 0.9697265625
vt 0.03125 0.9697265625
vt 0.03125 0.974609375
vt 0.033203125 0.974609375
vt 0.0078125 0.9697265625
vt 0 0.9697265625
vt 0 0.974609375
vt 0.0078125 0.974609375
vt 0.09375 0.9697265625
vt 0.091796875 0.9697265625
vt 0.091796875 0.974609375
vt 0.09375 0.974609375
vt 0 0.9697265625
vt 0.0078125 0.9697265625
vt 0.0078125 0.96484375
vt 0 0.96484375
vt 0.091796875 0.9697265625
vt 0.09375 0.9697265625
vt 0.09375 0.96484375
vt 0.091796875 0.96484375
vt 0.0078125 0.9697265625
vt 0.015625 0.9697265625
vt 0.015625 0.96484375
vt 0.0078125 0.96484375
vt 0.03125 0.9697265625
vt 0.033203125 0.9697265625
vt 0.033203125 0.96484375
vt 0.03125 0.96484375
vn -1 0 0
vn 1 0 0
vn 0 1 0
vn 0 -1 0
vn 0 0 1
vn 0 -0.7071067811865476 -0.7071067811865476
vn 0 0 -1
vn -1 0 0
vn 0 0 1
vn 1 0 0
vn 0 0 1
vn 1 0 0
vn 0 0.7071067811865476 -0.7071067811865476
vn -1 0 0
usemtl m_9005a747-e07b-8cf5-d916-d6e209704652
f 46/121/31 47/122/31 37/123/31 38/124/31
f 48/125/32 45/126/32 42/127/32 41/128/32
f 42/129/33 38/130/33 37/131/33 41/132/33
f 43/133/34 39/134/34 40/135/34 44/136/34
f 47/137/35 48/138/35 41/139/35 37/140/35
f 45/141/36 46/142/36 38/143/36 42/144/36
f 51/145/37 52/146/37 46/147/37 45/148/37
f 52/149/38 49/150/38 47/151/38 46/152/38
f 49/153/39 50/154/39 48/155/39 47/156/39
f 50/157/40 51/158/40 45/159/40 48/160/40
f 50/161/41 49/162/41 39/163/41 43/164/41
f 51/165/42 50/166/42 43/167/42 44/168/42
f 52/169/43 51/170/43 44/171/43 40/172/43
f 49/173/44 52/174/44 40/175/44 39/176/44
o cube
v 0.4375 0.734375 -0.46875
v 0.4375 0.734375 -0.5
v 0.4375 0.578125 -0.46875
v 0.4375 0.578125 -0.5
v 0.5 0.734375 -0.46875
v 0.5 0.734375 -0.5
v 0.5 0.578125 -0.46875
v 0.5 0.578125 -0.5
v 0.4375 0.59375 -0.484375
v 0.5 0.59375 -0.484375
v 0.4375 0.71875 -0.484375
v 0.5 0.71875 -0.484375
v 0.5 0.59375 -0.5
v 0.5 0.71875 -0.5
v 0.4375 0.59375 -0.5
v 0.4375 0.71875 -0.5
vt 0.033203125 0.9778645833333334
vt 0.03125 0.9778645833333334
vt 0.03125 0.984375
vt 0.033203125 0.984375
vt 0.09375 0.9778645833333334
vt 0.091796875 0.9778645833333334
vt 0.091796875 0.984375
vt 0.09375 0.984375
vt 0 0.908203125
vt 0.0078125 0.908203125
vt 0.0078125 0.90625
vt 0 0.90625
vt 0 0.96875
vt 0.0078125 0.96875
vt 0.0078125 0.966796875
vt 0 0.966796875
vt 0.0078125 0.9778645833333334
vt 0 0.9778645833333334
vt 0 0.984375
vt 0.0078125 0.984375
vt 0.015625 0.9778645833333334
vt 0.0078125 0.9778645833333334
vt 0.0078125 0.984375
vt 0.015625 0.984375
vt 0 0.9713541666666666
vt 0.0078125 0.9713541666666666
vt 0.0078125 0.96484375
vt 0 0.96484375
vt 0 0.9778645833333334
vt 0.0078125 0.9778645833333334
vt 0.0078125 0.9713541666666666
vt 0 0.9713541666666666
vt 0.091796875 0.9713541666666666
vt 0.09375 0.9713541666666666
vt 0.09375 0.96484375
vt 0.091796875 0.96484375
vt 0.091796875 0.9778645833333334
vt 0.09375 0.9778645833333334
vt 0.09375 0.9713541666666666
vt 0.091796875 0.9713541666666666
vt 0.0078125 0.9713541666666666
vt 0.015625 0.9713541666666666
vt 0.015625 0.96484375
vt 0.0078125 0.96484375
vt 0.0078125 0.9778645833333334
vt 0.015625 0.9778645833333334
vt 0.015625 0.9713541666666666
vt 0.0078125 0.9713541666666666
vt 0.03125 0.9713541666666666
vt 0.033203125 0.9713541666666666
vt 0.033203125 0.96484375
vt 0.03125 0.96484375
vt 0.03125 0.9778645833333334
vt 0.033203125 0.9778645833333334
vt 0.033203125 0.9713541666666666
vt 0.03125 0.9713541666666666
vn -1 0 0
vn 1 0 0
vn 0 1 0
vn 0 -1 0
vn 0 -0.7071067811865476 0.7071067811865476
vn 0 0 -1
vn 0 0.7071067811865476 0.7071067811865476
vn 0 0 1
vn 1 0 0
vn 1 0 0
vn 0 0 -1
vn 0 0 -1
vn -1 0 0
vn -1 0 0
usemtl m_9005a747-e07b-8cf5-d916-d6e209704652
f 68/177/45 63/178/45 53/179/45 54/180/45
f 64/181/46 66/182/46 58/183/46 57/184/46
f 58/185/47 54/186/47 53/187/47 57/188/47
f 59/189/48 55/190/48 56/191/48 60/192/48
f 63/193/49 64/194/49 57/195/49 53/196/49
f 66/197/50 68/198/50 54/199/50 58/200/50
f 62/201/51 61/202/51 55/203/51 59/204/51
f 64/205/52 63/206/52 61/207/52 62/208/52
f 65/209/53 62/210/53 59/211/53 60/212/53
f 66/213/54 64/214/54 62/215/54 65/216/54
f 67/217/55 65/218/55 60/219/55 56/220/55
f 68/221/56 66/222/56 65/223/56 67/224/56
f 61/225/57 67/226/57 56/227/57 55/228/57
f 63/229/58 68/230/58 67/231/58 61/232/58
o cube
v -0.5 0.578125 0.25
v -0.5 0.578125 -0.5
v -0.5 0.5625 0.234375
v -0.5 0.5625 -0.484375
v -0.3125 0.578125 0.25
v -0.3125 0.578125 -0.5
v -0.3125 0.5625 0.234375
v -0.3125 0.5625 -0.484375
vt 0.03125 0.986328125
vt 0.125 0.986328125
vt 0.125 0.984375
vt 0.03125 0.984375
vt 0 0.986328125
vt 0.09375 0.986328125
vt 0.09375 0.984375
vt 0 0.984375
vt 0 1
vt 0.0078125 1
vt 0.0078125 0.90625
vt 0 0.90625
vt 0 0.96875
vt 0.0078125 0.96875
vt 0.0078125 0.875
vt 0 0.875
vt 0 0.986328125
vt 0.0078125 0.986328125
vt 0.0078125 0.984375
vt 0 0.984375
vt 0.0078125 0.986328125
vt 0.015625 0.986328125
vt 0.015625 0.984375
vt 0.0078125 0.984375
vn -1 0 0
vn 1 0 0
vn 0 1 0
vn 0 -1 0
vn 0 -0.7071067811865476 0.7071067811865476
vn 0 -0.7071067811865476 -0.7071067811865476
usemtl m_9005a747-e07b-8cf5-d916-d6e209704652
f 69/233/59 70/234/59 72/235/59 71/236/59
f 74/237/60 73/238/60 75/239/60 76/240/60
f 74/241/61 70/242/61 69/243/61 73/244/61
f 75/245/62 71/246/62 72/247/62 76/248/62
f 73/249/63 69/250/63 71/251/63 75/252/63
f 70/253/64 74/254/64 76/255/64 72/256/64
o cube
v -0.5 0.8125 0.234375
v -0.5 0.8125 -0.484375
v -0.5 0.796875 0.25
v -0.5 0.796875 -0.5
v -0.3125 0.8125 0.234375
v -0.3125 0.8125 -0.484375
v -0.3125 0.796875 0.25
v -0.3125 0.796875 -0.5
vt 0.03125 0.986328125
vt 0.125 0.986328125
vt 0.125 0.984375
vt 0.03125 0.984375
vt 0 0.986328125
vt 0.09375 0.986328125
vt 0.09375 0.984375
vt 0 0.984375
vt 0 1
vt 0.0078125 1
vt 0.0078125 0.90625
vt 0 0.90625
vt 0 0.96875
vt 0.0078125 0.96875
vt 0.0078125 0.875
vt 0 0.875
vt 0 0.986328125
vt 0.0078125 0.986328125
vt 0.0078125 0.984375
vt 0 0.984375
vt 0.0078125 0.986328125
vt 0.015625 0.986328125
vt 0.015625 0.984375
vt 0.0078125 0.984375
vn -1 0 0
vn 1 0 0
vn 0 1 0
vn 0 -1 0
vn 0 0.7071067811865476 0.7071067811865476
vn 0 0.7071067811865476 -0.7071067811865476
usemtl m_9005a747-e07b-8cf5-d916-d6e209704652
f 77/257/65 78/258/65 80/259/65 79/260/65
f 82/261/66 81/262/66 83/263/66 84/264/66
f 82/265/67 78/266/67 77/267/67 81/268/67
f 83/269/68 79/270/68 80/271/68 84/272/68
f 81/273/69 77/274/69 79/275/69 83/276/69
f 78/277/70 82/278/70 84/279/70 80/280/70
o cube
v -0.3125 1.1875 -0.4375
v -0.3125 1.1875 -0.5
v -0.3125 0.75 -0.375
v -0.3125 0.75 -0.5
v 0.5 1.1875 -0.4375
v 0.5 1.1875 -0.5
v 0.5 0.75 -0.375
v 0.5 0.75 -0.5
vt 0.0546875 1
vt 0.125 1
vt 0.125 0.5625
vt 0 0.5625
vt 0 1
vt 0.0625 1
vt 0.125 0.5625
vt 0 0.5625
vt 0.0625 1
vt 0.0625 0
vt 0 0
vt 0 1
vt 0.125 1
vt 0.125 0
vt 0 0
vt 0 1
vt 0.4375 1
vt 0.4375 0
vt 0 0
vt 0 1
vt 0.4375 1
vt 0.4375 0
vt 0 0
vt 0 1
vn -1 0 0
vn 1 0 0
vn 0 1 0
vn 0 -1 0
vn 0 0.14142135623730953 0.9899494936611667
vn 0 0 -1
usemtl m_d51689c8-3fb7-8cdf-3a11-c2eb042af219
f 85/281/71 86/282/71 88/283/71 87/284/71
f 90/285/72 89/286/72 91/287/72 92/288/72
f 90/289/73 86/290/73 85/291/73 89/292/73
f 91/293/74 87/294/74 88/295/74 92/296/74
f 89/297/75 85/298/75 87/299/75 91/300/75
f 86/301/76 90/302/76 92/303/76 88/304/76
o cube
v -0.3125 0.796875 0.25
v -0.3125 0.796875 0.234375
v -0.3125 0.578125 0.25
v -0.3125 0.578125 0.234375
v -0.5 0.796875 0.234375
v -0.5 0.796875 0.25
v -0.5 0.578125 0.234375
v -0.5 0.578125 0.25
vt 0.0234375 1
vt 0 1
vt 0 0.97265625
vt 0.0234375 0.97265625
vt 0.015625 1
vt 0.013671875 1
vt 0.013671875 0.97265625
vt 0.015625 0.97265625
vt 0.0234375 1
vt 0 1
vt 0 0.97265625
vt 0.0234375 0.97265625
vt 0.001953125 1
vt 0 1
vt 0 0.97265625
vt 0.001953125 0.97265625
vt 0.0234375 0.986328125
vt 0 0.986328125
vt 0 0.984375
vt 0.0234375 0.984375
vt 0.0234375 1
vt 0 1
vt 0 0.998046875
vt 0.0234375 0.998046875
vn 0 0 -1
vn 1 0 0
vn 0 0 1
vn -1 0 0
vn 0 1 0
vn 0 -1 0
usemtl m_9005a747-e07b-8cf5-d916-d6e209704652
f 96/308/77 99/307/77 97/306/77 94/305/77
f 95/312/78 96/311/78 94/310/78 93/309/78
f 100/316/79 95/315/79 93/314/79 98/313/79
f 99/320/80 100/319/80 98/318/80 97/317/80
f 98/324/81 93/323/81 94/322/81 97/321/81
f 99/328/82 96/327/82 95/326/82 100/325/82
o cube
v -0.3125 0.796875 -0.484375
v -0.3125 0.796875 -0.5
v -0.3125 0.578125 -0.484375
v -0.3125 0.578125 -0.5
v -0.5 0.796875 -0.5
v -0.5 0.796875 -0.484375
v -0.5 0.578125 -0.5
v -0.5 0.578125 -0.484375
vt 0.0234375 1
vt 0 1
vt 0 0.97265625
vt 0.0234375 0.97265625
vt 0.015625 1
vt 0.013671875 1
vt 0.013671875 0.97265625
vt 0.015625 0.97265625
vt 0.0234375 1
vt 0 1
vt 0 0.97265625
vt 0.0234375 0.97265625
vt 0.001953125 1
vt 0 1
vt 0 0.97265625
vt 0.001953125 0.97265625
vt 0.0234375 0.986328125
vt 0 0.986328125
vt 0 0.984375
vt 0.0234375 0.984375
vt 0.0234375 1
vt 0 1
vt 0 0.998046875
vt 0.0234375 0.998046875
vn 0 0 -1
vn 1 0 0
vn 0 0 1
vn -1 0 0
vn 0 1 0
vn 0 -1 0
usemtl m_9005a747-e07b-8cf5-d916-d6e209704652
f 104/332/83 107/331/83 105/330/83 102/329/83
f 103/336/84 104/335/84 102/334/84 101/333/84
f 108/340/85 103/339/85 101/338/85 106/337/85
f 107/344/86 108/343/86 106/342/86 105/341/86
f 106/348/87 101/347/87 102/346/87 105/345/87
f 107/352/88 104/351/88 103/350/88 108/349/88
o cube
v -0.3125 0.59375 0.234375
v -0.3125 0.59375 -0.484375
v -0.3125 0.578125 0.234375
v -0.3125 0.578125 -0.484375
v -0.5 0.59375 -0.484375
v -0.5 0.59375 0.234375
v -0.5 0.578125 -0.484375
v -0.5 0.578125 0.234375
vt 0.0234375 0.974609375
vt 0 0.974609375
vt 0 0.97265625
vt 0.0234375 0.97265625
vt 0.10546875 0.974609375
vt 0.015625 0.974609375
vt 0.015625 0.97265625
vt 0.10546875 0.97265625
vt 0.0234375 0.974609375
vt 0 0.974609375
vt 0 0.97265625
vt 0.0234375 0.97265625
vt 0.08984375 0.974609375
vt 0 0.974609375
vt 0 0.97265625
vt 0.08984375 0.97265625
vt 0.0234375 0.984375
vt 0 0.984375
vt 0 0.89453125
vt 0.0234375 0.89453125
vt 0.0234375 1
vt 0 1
vt 0 0.91015625
vt 0.0234375 0.91015625
vn 0 0 -1
vn 1 0 0
vn 0 0 1
vn -1 0 0
vn 0 1 0
vn 0 -1 0
usemtl m_9005a747-e07b-8cf5-d916-d6e209704652
f 112/356/89 115/355/89 113/354/89 110/353/89
f 111/360/90 112/359/90 110/358/90 109/357/90
f 116/364/91 111/363/91 109/362/91 114/361/91
f 115/368/92 116/367/92 114/366/92 113/365/92
f 114/372/93 109/371/93 110/370/93 113/369/93
f 115/376/94 112/375/94 111/374/94 116/373/94
o cube
v -0.3125 0.796875 0.234375
v -0.3125 0.796875 -0.484375
v -0.3125 0.78125 0.234375
v -0.3125 0.78125 -0.484375
v -0.5 0.796875 -0.484375
v -0.5 0.796875 0.234375
v -0.5 0.78125 -0.484375
v -0.5 0.78125 0.234375
vt 0.0234375 0.974609375
vt 0 0.974609375
vt 0 0.97265625
vt 0.0234375 0.97265625
vt 0.10546875 0.974609375
vt 0.015625 0.974609375
vt 0.015625 0.97265625
vt 0.10546875 0.97265625
vt 0.0234375 0.974609375
vt 0 0.974609375
vt 0 0.97265625
vt 0.0234375 0.97265625
vt 0.08984375 0.974609375
vt 0 0.974609375
vt 0 0.97265625
vt 0.08984375 0.97265625
vt 0.0234375 0.984375
vt 0 0.984375
vt 0 0.89453125
vt 0.0234375 0.89453125
vt 0.0234375 1
vt 0 1
vt 0 0.91015625
vt 0.0234375 0.91015625
vn 0 0 -1
vn 1 0 0
vn 0 0 1
vn -1 0 0
vn 0 1 0
vn 0 -1 0
usemtl m_9005a747-e07b-8cf5-d916-d6e209704652
f 120/380/95 123/379/95 121/378/95 118/377/95
f 119/384/96 120/383/96 118/382/96 117/381/96
f 124/388/97 119/387/97 117/386/97 122/385/97
f 123/392/98 124/391/98 122/390/98 121/389/98
f 122/396/99 117/395/99 118/394/99 121/393/99
f 123/400/100 120/399/100 119/398/100 124/397/100
o cube
v 0.0625 0.4375 0.0625
v 0.0625 0.4375 -0.0625
v 0.0625 0 0.0625
v 0.0625 0 -0.0625
v -0.0625 0.4375 -0.0625
v -0.0625 0.4375 0.0625
v -0.0625 0 -0.0625
v -0.0625 0 0.0625
vt 0.015625 1
vt 0 1
vt 0 0.9453125
vt 0.015625 0.9453125
vt 0.015625 1
vt 0 1
vt 0 0.9453125
vt 0.015625 0.9453125
vt 0.015625 1
vt 0 1
vt 0 0.9453125
vt 0.015625 0.9453125
vt 0.015625 1
vt 0 1
vt 0 0.9453125
vt 0.015625 0.9453125
vt 0.015625 1
vt 0 1
vt 0 0.984375
vt 0.015625 0.984375
vt 0.015625 1
vt 0 1
vt 0 0.984375
vt 0.015625 0.984375
vn 0 0 -1
vn 1 0 0
vn 0 0 1
vn -1 0 0
vn 0 1 0
vn 0 -1 0
usemtl m_9005a747-e07b-8cf5-d916-d6e209704652
f 128/404/101 131/403/101 129/402/101 126/401/101
f 127/408/102 128/407/102 126/406/102 125/405/102
f 132/412/103 127/411/103 125/410/103 130/409/103
f 131/416/104 132/415/104 130/414/104 129/413/104
f 130/420/105 125/419/105 126/418/105 129/417/105
f 131/424/106 128/423/106 127/422/106 132/421/106