# Made in Blockbench 5.1.6
mtllib nyc_subway_signal_light_1_pole.mtl

o cylinder
v 0.045753175473054825 0 0.04575317547305483
v 0.016746824526945165 0 0.06249999999999999
v 0 0 0
v 0.045753175473054825 1 0.04575317547305483
v 0.016746824526945165 1 0.06249999999999999
v 0 1 0
v 0.06249999999999999 0 0.016746824526945165
v 0.06249999999999999 1 0.016746824526945165
v 0.06249999999999999 0 -0.016746824526945172
v 0.06249999999999999 1 -0.016746824526945172
v 0.04575317547305483 0 -0.045753175473054825
v 0.04575317547305483 1 -0.045753175473054825
v 0.016746824526945186 0 -0.062499999999999986
v 0.016746824526945186 1 -0.062499999999999986
v -0.01674682452694514 0 -0.0625
v -0.01674682452694514 1 -0.0625
v -0.045753175473054825 0 -0.04575317547305484
v -0.045753175473054825 1 -0.04575317547305484
v -0.06249999999999999 0 -0.016746824526945158
v -0.06249999999999999 1 -0.016746824526945158
v -0.0625 0 0.016746824526945137
v -0.0625 1 0.016746824526945137
v -0.04575317547305484 0 0.04575317547305482
v -0.04575317547305484 1 0.04575317547305482
v -0.01674682452694516 0 0.06249999999999999
v -0.01674682452694516 1 0.06249999999999999
vt 0.008088638664166741 0.9959556806679166
vt 0.007004224123956434 1
vt 0 0.9959556806679166
vt 4.2327252813834093e-16 0.875
vt 0.004185937500000424 0.875
vt 0.004185937500000424 1
vt 4.2327252813834093e-16 1
vt 0 0.9919120043002931
vt 0.004044640839869912 0.9929952190672434
vt 1.3010426069826053e-18 1
vt 0.008087995699706854 0.9959553591601301
vt 0.007004780932756537 1
vt 0 0.9959553591601301
vt 4.2327252813834093e-16 0.875
vt 0.004185937500000424 0.875
vt 0.004185937500000424 1
vt 4.2327252813834093e-16 1
vt 0 0.9919113613358332
vt 0.0040443193320833706 0.9929957758760436
vt 0 1
vt 0.0078125 0.9958140624999996
vt 0.0078125 0.9999999999999996
vt 0 0.9979070312499996
vt 4.2327252813834093e-16 0.875
vt 0.004185937500000424 0.875
vt 0.004185937500000424 1
vt 4.2327252813834093e-16 1
vt 0.0078125 0.9958140624999996
vt 0.0078125 0.9999999999999996
vt 0 0.9979070312499996
vt 0 0.9919113613358332
vt 0.0040443193320833706 0.9929957758760436
vt 0 1
vt 4.2327252813834093e-16 0.875
vt 0.004185937500000424 0.875
vt 0.004185937500000424 1
vt 4.2327252813834093e-16 1
vt 0.008087995699706854 0.9959553591601301
vt 0.007004780932756537 1
vt 0 0.9959553591601301
vt 0 0.9919120043002931
vt 0.004044640839869912 0.9929952190672434
vt 1.3010426069826053e-18 1
vt 4.2327252813834093e-16 0.875
vt 0.004185937500000424 0.875
vt 0.004185937500000424 1
vt 4.2327252813834093e-16 1
vt 0.008088638664166741 0.9959556806679166
vt 0.007004224123956434 1
vt 0 0.9959556806679166
vt 4.2327252813834093e-16 0.9921875
vt 0.004185937500000424 0.9921875
vt 0.0020929687500004235 1
vt 4.2327252813834093e-16 0.875
vt 0.004185937500000424 0.875
vt 0.004185937500000424 1
vt 4.2327252813834093e-16 1
vt 0.004185937500000424 1
vt 4.2327252813834093e-16 1
vt 0.0020929687500004235 0.9921875
vt 1.734723475976807e-17 1
vt 0.001084414540210324 0.9959556806679166
vt 0.008088638664166758 1
vt 4.2327252813834093e-16 0.875
vt 0.004185937500000424 0.875
vt 0.004185937500000424 1
vt 4.2327252813834093e-16 1
vt 0.00404464083986991 1
vt 0 0.9989167852330497
vt 0.004044640839869914 0.9919120043002931
vt 0 1
vt 0.0010832147669503165 0.9959553591601301
vt 0.008087995699706854 1
vt 4.2327252813834093e-16 0.875
vt 0.004185937500000424 0.875
vt 0.004185937500000424 1
vt 4.2327252813834093e-16 1
vt 0.0040443193320833706 1
vt 0 0.9989155854597896
vt 0.0040443193320833706 0.9919113613358332
vt 0 0.9999999999999996
vt 0 0.9958140624999996
vt 0.0078125 0.9979070312499996
vt 4.2327252813834093e-16 0.875
vt 0.004185937500000424 0.875
vt 0.004185937500000424 1
vt 4.2327252813834093e-16 1
vt 0 0.9999999999999996
vt 0 0.9958140624999996
vt 0.0078125 0.9979070312499996
vt 0.0040443193320833706 1
vt 0 0.9989155854597896
vt 0.0040443193320833706 0.9919113613358332
vt 4.2327252813834093e-16 0.875
vt 0.004185937500000424 0.875
vt 0.004185937500000424 1
vt 4.2327252813834093e-16 1
vt 0 1
vt 0.0010832147669503165 0.9959553591601301
vt 0.008087995699706854 1
vt 0.00404464083986991 1
vt 0 0.9989167852330497
vt 0.004044640839869914 0.9919120043002931
vt 4.2327252813834093e-16 0.875
vt 0.004185937500000424 0.875
vt 0.004185937500000424 1
vt 4.2327252813834093e-16 1
vt 1.734723475976807e-17 1
vt 0.001084414540210324 0.9959556806679166
vt 0.008088638664166758 1
vt 0.004185937500000424 1
vt 4.2327252813834093e-16 1
vt 0.0020929687500004235 0.9921875
vt 4.2327252813834093e-16 0.875
vt 0.004185937500000424 0.875
vt 0.004185937500000424 1
vt 4.2327252813834093e-16 1
vt 4.2327252813834093e-16 0.9921875
vt 0.004185937500000424 0.9921875
vt 0.0020929687500004235 1
vn 0 -1 0
vn 0.4999999999999999 0 0.8660254037844388
vn 0 1 0
vn 0 -1 0
vn 0.8660254037844388 0 0.5
vn 0 1 0
vn 0 -1 0
vn 1 0 0
vn 0 1 0
vn 0 -1 0
vn 0.8660254037844388 0 -0.5
vn 0 1 0
vn 0 -1 0
vn 0.5000000000000001 0 -0.8660254037844388
vn 0 1 0
vn 0 -1 0
vn 4.143408735633879e-16 0 -1
vn 0 1 0
vn 0 -1 0
vn -0.4999999999999996 0 -0.8660254037844389
vn 0 1 0
vn 0 -1 0
vn -0.8660254037844389 0 -0.4999999999999998
vn 0 1 0
vn 0 -1 0
vn -1 0 -2.0717043678169412e-16
vn 0 1 0
vn 0 -1 0
vn -0.8660254037844389 0 0.4999999999999996
vn 0 1 0
vn 0 -1 0
vn -0.4999999999999999 0 0.8660254037844386
vn 0 1 0
vn 0 -1 0
vn 0 0 1
vn 0 1 0
usemtl m_20f44e5c-eb20-2ba5-3db2-ef9ef50e8274
f 1/1/1 2/2/1 3/3/1
f 2/4/2 1/5/2 4/6/2 5/7/2
f 5/8/3 4/9/3 6/10/3
f 7/11/4 1/12/4 3/13/4
f 1/14/5 7/15/5 8/16/5 4/17/5
f 4/18/6 8/19/6 6/20/6
f 9/21/7 7/22/7 3/23/7
f 7/24/8 9/25/8 10/26/8 8/27/8
f 8/28/9 10/29/9 6/30/9
f 11/31/10 9/32/10 3/33/10
f 9/34/11 11/35/11 12/36/11 10/37/11
f 10/38/12 12/39/12 6/40/12
f 13/41/13 11/42/13 3/43/13
f 11/44/14 13/45/14 14/46/14 12/47/14
f 12/48/15 14/49/15 6/50/15
f 15/51/16 13/52/16 3/53/16
f 13/54/17 15/55/17 16/56/17 14/57/17
f 14/58/18 16/59/18 6/60/18
f 17/61/19 15/62/19 3/63/19
f 15/64/20 17/65/20 18/66/20 16/67/20
f 16/68/21 18/69/21 6/70/21
f 19/71/22 17/72/22 3/73/22
f 17/74/23 19/75/23 20/76/23 18/77/23
f 18/78/24 20/79/24 6/80/24
f 21/81/25 19/82/25 3/83/25
f 19/84/26 21/85/26 22/86/26 20/87/26
f 20/88/27 22/89/27 6/90/27
f 23/91/28 21/92/28 3/93/28
f 21/94/29 23/95/29 24/96/29 22/97/29
f 22/98/30 24/99/30 6/100/30
f 25/101/31 23/102/31 3/103/31
f 23/104/32 25/105/32 26/106/32 24/107/32
f 24/108/33 26/109/33 6/110/33
f 2/111/34 25/112/34 3/113/34
f 25/114/35 2/115/35 5/116/35 26/117/35
f 26/118/36 5/119/36 6/120/36