# Made in Blockbench 5.1.6
mtllib nyc_subway_fare_gate_7_twoway_open_entrance_light_layer.mtl

o card_reader
v 0.390625 1.000625 0.6875
v 0.4453125 1.000625 0.703125
v 0.4453125 1.188125 0.5
v 0.390625 1.188125 0.5
v 0.5 1.000625 0.709375
v 0.5 1.188125 0.5
v 0.5546875 1.000625 0.703125
v 0.5546875 1.188125 0.5
v 0.609375 1.188125 0.5
v 0.609375 1.000625 0.6875
vt 0.2686203125 0.07750437499999996
vt 0.2560384375 0.07761437500000001
vt 0.2555490625 0.0010918749999999644
vt 0.26816843749999997 0.003985624999999993
vt 0.2178409375 0.004426249999999965
vt 0.2303853125 0.0013118749999999624
vt 0.2308746875 0.07783437500000001
vt 0.2182928125 0.07794437499999995
vt 0.2303853125 0.0013118749999999624
vt 0.24295218750000003 0
vt 0.24345656250000003 0.07772437499999996
vt 0.2308746875 0.07783437500000001
vt 0.24295218750000003 0
vt 0.2555490625 0.0010918749999999644
vt 0.2560384375 0.07761437500000001
vt 0.24345656250000003 0.07772437499999996
vn 0 0.7348034446274879 0.6782801027330658
vn -0.19025461941800856 0.7213820986266158 0.6658911679630299
vn -0.07602163096745171 0.742794685911142 0.6651892709652018
vn 0.07728586850402183 0.7326056285277063 0.6762513494101905
usemtl m_a412791d-ea2d-7bc4-a074-0bc570f883e4
f 9/1/1 8/2/1 7/3/1 10/4/1
f 1/5/2 2/6/2 3/7/2 4/8/2
f 2/9/3 5/10/3 6/11/3 3/12/3
f 5/13/4 7/14/4 8/15/4 6/16/4
o light
v 0.5546875 0.7346832493343425 0.6994640372704037
v 0.5793275 0.5776586709725239 0.6892153728156775
v 0.5546875 0.5778611774511525 0.6962500908016196
v 0.5793275 0.734480118236447 0.692429341096647
v 0.5 0.7348838382248895 0.7057095914419316
v 0.5 0.5780623909609663 0.702495623160962
v 0.4453125 0.7346832493343425 0.6994640372704037
v 0.4453125 0.5778611774511525 0.6962500908016196
v 0.4206725 0.734480118236447 0.692429341096647
v 0.4206725 0.5776586709725239 0.6892153728156775
vt 0.026041875 0.03125
vt 0.026041875 0
vt 0.03125 0
vt 0.03125 0.03125
vt 0 0.03125
vt 0 0
vt 0.005208125000000001 0
vt 0.005208125000000001 0.03125
vt 0.005208125000000001 0.03125
vt 0.005208125000000001 0
vt 0.015625 0
vt 0.015625 0.03125
vt 0.015625 0.03125
vt 0.015625 0
vt 0.026041875 0
vt 0.026041875 0.03125
vn 0.2743275144310141 -0.019703851445559088 0.9614344351354976
vn -0.2743275116711849 -0.019704063578211365 0.9614344315754466
vn -0.11336901668321078 -0.020357820631683114 0.9933443638514341
vn 0.11336901538087295 -0.020358039791377996 0.9933443595085362
usemtl m_a412791d-ea2d-7bc4-a074-0bc570f883e4
f 11/17/5 13/18/5 12/19/5 14/20/5
f 19/21/6 20/22/6 18/23/6 17/24/6
f 17/25/7 18/26/7 16/27/7 15/28/7
f 15/29/8 16/30/8 13/31/8 11/32/8
o light
v -0.5546875 0.7346832493343425 -0.6994640372704037
v -0.5793275 0.5776586709725239 -0.6892153728156775
v -0.5546875 0.5778611774511525 -0.6962500908016196
v -0.5793275 0.734480118236447 -0.692429341096647
v -0.5 0.7348838382248895 -0.7057095914419316
v -0.5 0.5780623909609663 -0.702495623160962
v -0.4453125 0.7346832493343425 -0.6994640372704037
v -0.4453125 0.5778611774511525 -0.6962500908016196
v -0.4206725 0.734480118236447 -0.692429341096647
v -0.4206725 0.5776586709725239 -0.6892153728156775
vt 0.026041249999999995 0.03125
vt 0.026041249999999995 0
vt 0.03125 0
vt 0.031249374999999996 0.03125
vt 0 0.03125
vt 0 0
vt 0.005208125000000001 0
vt 0.005208125000000001 0.03125
vt 0.005208125000000001 0.03125
vt 0.005208125000000001 0
vt 0.015625 0
vt 0.015624374999999996 0.03125
vt 0.015625 0.03125
vt 0.015625 0
vt 0.026041249999999995 0
vt 0.026041249999999995 0.03125
vn -0.2743275144310141 -0.019703851445559088 -0.9614344351354976
vn 0.2743275116711849 -0.019704063578211365 -0.9614344315754466
vn 0.11336901668321078 -0.020357820631683114 -0.9933443638514341
vn -0.11336901538087295 -0.020358039791377996 -0.9933443595085362
usemtl m_a412791d-ea2d-7bc4-a074-0bc570f883e4
f 21/33/9 23/34/9 22/35/9 24/36/9
f 29/37/10 30/38/10 28/39/10 27/40/10
f 27/41/11 28/42/11 26/43/11 25/44/11
f 25/45/12 26/46/12 23/47/12 21/48/12