# Made in Blockbench 5.1.6
mtllib nyc_subway_entrance_1_globe_light_4_light_layer.mtl

o mesh
v 0.21899305555555554 2.2971874999999997 0.17032793209876543
v 0.21899305555555554 2.2971874999999997 -0.17032793209876543
v 0.21899305555555554 1.7340625 0.17032793209876543
v 0.21899305555555554 1.7340625 -0.17032793209876543
v -0.21899305555555554 2.2971874999999997 0.17032793209876543
v -0.21899305555555554 2.2971874999999997 -0.17032793209876543
v -0.21899305555555554 1.7340625 0.17032793209876543
v -0.21899305555555554 1.7340625 -0.17032793209876543
v 0.17032793209876543 2.2971874999999997 -0.21899305555555554
v 0.17032793209876543 2.2971874999999997 0.21899305555555554
v 0.17032793209876543 1.7340625 0.21899305555555554
v 0.17032793209876543 1.7340625 -0.21899305555555554
v -0.17032793209876543 2.2971874999999997 -0.21899305555555554
v -0.17032793209876543 2.2971874999999997 0.21899305555555554
v -0.17032793209876543 1.7340625 0.21899305555555554
v -0.17032793209876543 1.7340625 -0.21899305555555554
v 0.2815625 1.7966319444444445 0.21899305555555554
v 0.2815625 1.7966319444444445 -0.21899305555555554
v 0.21899305555555554 1.7966319444444445 -0.2815625
v -0.21899305555555554 1.7966319444444445 -0.2815625
v -0.2815625 1.7966319444444445 -0.21899305555555554
v -0.2815625 1.7966319444444445 0.21899305555555554
v -0.21899305555555554 1.7966319444444445 0.2815625
v 0.21899305555555554 1.7966319444444445 0.2815625
v 0.2815625 2.2346180555555555 0.21899305555555554
v 0.2815625 2.2346180555555555 -0.21899305555555554
v 0.21899305555555554 2.2346180555555555 -0.2815625
v -0.21899305555555554 2.2346180555555555 -0.2815625
v -0.2815625 2.2346180555555555 -0.21899305555555554
v -0.2815625 2.2346180555555555 0.21899305555555554
v -0.21899305555555554 2.2346180555555555 0.2815625
v 0.21899305555555554 2.2346180555555555 0.2815625
vt 0.097221875 0.650390625
vt 0.109375 0.671875
vt 0 0.671875
vt 0.012153125 0.650390625
vt 0.425346875 0.978515625
vt 0.4375 1
vt 0.328125 1
vt 0.340278125 0.978515625
vt 0 0.902778125
vt 0.012153125 0.890625
vt 0.012153125 1
vt 0 0.987846875
vt 0 0.793403125
vt 0.012153125 0.78125
vt 0.012153125 0.890625
vt 0 0.878471875
vt 0.28070774907322366 0.8671315806138506
vt 0.26855475092677633 0.8892282249680622
vt 0.2503215329300958 0.8767453708773044
vt 0.2665254977676455 0.8574221056457885
vt 0.3799588772323545 0.810546875
vt 0.3961628420699042 0.829870140231516
vt 0.3779296240732236 0.8423529943222738
vt 0.36577662592677634 0.8202563499680622
vt 0.109375 0.987846875
vt 0.097221875 1
vt 0.097221875 0.890625
vt 0.109375 0.902778125
vt 0.3799588772323545 0.857421875
vt 0.3961628420699042 0.876745140231516
vt 0.3779296240732236 0.8892279943222738
vt 0.36577662592677634 0.8671313499680622
vt 0.109375 0.878471875
vt 0.097221875 0.890625
vt 0.097221875 0.78125
vt 0.109375 0.793403125
vt 0.28070774907322366 0.8202565806138506
vt 0.26855475092677633 0.8423532249680622
vt 0.2503215329300958 0.8298703708773044
vt 0.2665254977676455 0.8105471056457885
vt 0.097221875 1
vt 0.012153125 1
vt 0.012153125 0.890625
vt 0.097221875 0.890625
vt 0.36577662592677634 0.8671313499680622
vt 0.37792975092677633 0.8892282249680622
vt 0.26855475092677633 0.8892282249680622
vt 0.2807078759267764 0.8671313499680622
vt 0.097221875 0.890625
vt 0.012153125 0.890625
vt 0.012153125 0.78125
vt 0.097221875 0.78125
vt 0.36577662592677634 0.8202563499680622
vt 0.37792975092677633 0.8423532249680622
vt 0.26855475092677633 0.8423532249680622
vt 0.2807078759267764 0.8202563499680622
vt 0.21875 0.890625
vt 0.21875 1
vt 0.109375 1
vt 0.109375 0.890625
vt 0.021484375 0.53125
vt 0.021484375 0.640625
vt 0 0.640625
vt 0 0.53125
vt 0.21875 0.78125
vt 0.21875 0.890625
vt 0.109375 0.890625
vt 0.109375 0.78125
vt 0.052734375 0.53125
vt 0.052734375 0.640625
vt 0.03125 0.640625
vt 0.03125 0.53125
vt 0.109375 0.671875
vt 0.109375 0.78125
vt 0 0.78125
vt 0 0.671875
vt 0.083984375 0.53125
vt 0.083984375 0.640625
vt 0.0625 0.640625
vt 0.0625 0.53125
vt 0.328125 0.890625
vt 0.328125 1
vt 0.21875 1
vt 0.21875 0.890625
vt 0.271484375 0.53125
vt 0.271484375 0.640625
vt 0.25 0.640625
vt 0.25 0.53125
vt 0.340278125 0.96875
vt 0.328125 0.947265625
vt 0.4375 0.947265625
vt 0.425346875 0.96875
vt 0.2665254977676455 0.796875
vt 0.2503215329300958 0.7775517347684839
vt 0.26855475092677633 0.7650688806777262
vt 0.28070774907322366 0.7871655250319378
vt 0.28070774907322366 0.7871655250319378
vt 0.2685546240732236 0.7650686500319378
vt 0.3779296240732236 0.7650686500319378
vt 0.3657764990732236 0.7871655250319378
vt 0.36577662592677634 0.7871652943861494
vt 0.3779296240732236 0.7650686500319378
vt 0.3961628420699042 0.7775515041226956
vt 0.37995887723235444 0.7968747693542115
vt 0.340278125 0.9375
vt 0.328125 0.916015625
vt 0.4375 0.916015625
vt 0.425346875 0.9375
vt 0.2665254977676455 0.75
vt 0.2503215329300958 0.7306767347684839
vt 0.26855475092677633 0.7181938806777262
vt 0.28070774907322366 0.7402905250319378
vt 0.28070774907322366 0.7402905250319378
vt 0.2685546240732236 0.7181936500319378
vt 0.3779296240732236 0.7181936500319378
vt 0.3657764990732236 0.7402905250319378
vt 0.36577662592677634 0.7402902943861494
vt 0.3779296240732236 0.7181936500319378
vt 0.3961628420699042 0.7306765041226956
vt 0.37995887723235444 0.7499997693542115
vn 0.7071067811865476 -0.7071067811865476 0
vn -0.7071067811865476 -0.7071067811865476 0
vn 0 1 0
vn 0 -1 0
vn -0.44020438924006666 -0.7825855808712295 0.44020438924006666
vn -0.44020438924006666 -0.7825855808712295 -0.44020438924006666
vn 0 1 0
vn 0.44020438924006666 -0.7825855808712295 0.44020438924006666
vn 0 -1 0
vn 0.44020438924006666 -0.7825855808712295 -0.44020438924006666
vn 0 1 0
vn 0 -0.7071067811865476 0.7071067811865476
vn 0 -1 0
vn 0 -0.7071067811865476 -0.7071067811865476
vn 1 0 0
vn 0.7071067811865476 0 -0.7071067811865476
vn 0 0 -1
vn -0.7071067811865476 0 -0.7071067811865476
vn -1 0 0
vn -0.7071067811865476 0 0.7071067811865476
vn 0 0 1
vn 0.7071067811865476 0 0.7071067811865476
vn 0.7071067811865476 0.7071067811865476 0
vn 0.44020438924006666 0.7825855808712295 -0.44020438924006666
vn 0 0.7071067811865476 -0.7071067811865476
vn -0.44020438924006666 0.7825855808712295 -0.44020438924006666
vn -0.7071067811865476 0.7071067811865476 0
vn -0.44020438924006666 0.7825855808712295 0.44020438924006666
vn 0 0.7071067811865476 0.7071067811865476
vn 0.44020438924006666 0.7825855808712295 0.44020438924006666
usemtl m_8ec2d3e5-430b-1766-e184-1728c7585c36
f 4/1/1 18/2/1 17/3/1 3/4/1
f 7/5/2 22/6/2 21/7/2 8/8/2
f 5/9/3 14/10/3 13/11/3 6/12/3
f 8/13/4 16/14/4 15/15/4 7/16/4
f 15/17/5 23/18/5 22/19/5 7/20/5
f 8/21/6 21/22/6 20/23/6 16/24/6
f 2/25/7 9/26/7 10/27/7 1/28/7
f 3/29/8 17/30/8 24/31/8 11/32/8
f 3/33/9 11/34/9 12/35/9 4/36/9
f 12/37/10 19/38/10 18/39/10 4/40/10
f 9/41/11 13/42/11 14/43/11 10/44/11
f 11/45/12 24/46/12 23/47/12 15/48/12
f 11/49/13 15/50/13 16/51/13 12/52/13
f 16/53/14 20/54/14 19/55/14 12/56/14
f 18/57/15 26/58/15 25/59/15 17/60/15
f 19/61/16 27/62/16 26/63/16 18/64/16
f 20/65/17 28/66/17 27/67/17 19/68/17
f 21/69/18 29/70/18 28/71/18 20/72/18
f 22/73/19 30/74/19 29/75/19 21/76/19
f 23/77/20 31/78/20 30/79/20 22/80/20
f 24/81/21 32/82/21 31/83/21 23/84/21
f 17/85/22 25/86/22 32/87/22 24/88/22
f 1/89/23 25/90/23 26/91/23 2/92/23
f 2/93/24 26/94/24 27/95/24 9/96/24
f 9/97/25 27/98/25 28/99/25 13/100/25
f 13/101/26 28/102/26 29/103/26 6/104/26
f 6/105/27 29/106/27 30/107/27 5/108/27
f 5/109/28 30/110/28 31/111/28 14/112/28
f 14/113/29 31/114/29 32/115/29 10/116/29
f 10/117/30 32/118/30 25/119/30 1/120/30
o cylinder
v 1.73472347597677e-20 1.734375 1.73472347597677e-20
v 0.033577383176525054 1.578125 0.1253125
v 0.033577383176525054 1.734375 0.1253125
v 0.0917351168234749 1.578125 0.09173511682347493
v 0.0917351168234749 1.734375 0.09173511682347493
v 0.1253125 1.578125 0.033577383176525054
v 0.1253125 1.734375 0.033577383176525054
v 0.1253125 1.578125 -0.03357738317652507
v 0.1253125 1.734375 -0.03357738317652507
v 0.09173511682347493 1.578125 -0.09173511682347493
v 0.09173511682347493 1.734375 -0.09173511682347493
v 0.033577383176525095 1.578125 -0.12531249999999997
v 0.033577383176525095 1.734375 -0.12531249999999997
v -0.033577383176525005 1.578125 -0.1253125
v -0.033577383176525005 1.734375 -0.1253125
v -0.09173511682347493 1.578125 -0.09173511682347496
v -0.09173511682347493 1.734375 -0.09173511682347496
v -0.12531249999999997 1.578125 -0.03357738317652504
v -0.12531249999999997 1.734375 -0.03357738317652504
v -0.1253125 1.578125 0.033577383176525
v -0.1253125 1.734375 0.033577383176525
v -0.09173511682347496 1.578125 0.0917351168234749
v -0.09173511682347496 1.734375 0.0917351168234749
v -0.03357738317652505 1.578125 0.1253125
v -0.03357738317652505 1.734375 0.1253125
vt 0.40876406249999997 0.6171875
vt 0.4255109375 0.6171875
vt 0.4255109375 0.65625
vt 0.40876406249999997 0.65625
vt 0.35212343749999997 0.640625
vt 0.36662656250000003 0.6489984375
vt 0.34375 0.671875
vt 0.3752703125 0.6640625
vt 0.3920171875 0.6640625
vt 0.3920171875 0.703125
vt 0.3752703125 0.703125
vt 0.36662656250000003 0.6489984375
vt 0.375 0.6635015625
vt 0.34375 0.671875
vt 0.3920171875 0.6640625
vt 0.40876406249999997 0.6640625
vt 0.40876406249999997 0.703125
vt 0.3920171875 0.703125
vt 0.375 0.6635015625
vt 0.375 0.6802484375
vt 0.34375 0.671875
vt 0.40876406249999997 0.6640625
vt 0.4255109375 0.6640625
vt 0.4255109375 0.703125
vt 0.40876406249999997 0.703125
vt 0.375 0.6802484375
vt 0.36662656250000003 0.6947515625
vt 0.34375 0.671875
vt 0.4065203125 0.8671875
vt 0.4232671875 0.8671875
vt 0.4232671875 0.90625
vt 0.4065203125 0.90625
vt 0.36662656250000003 0.6947515625
vt 0.35212343749999997 0.703125
vt 0.34375 0.671875
vt 0.4232671875 0.8671875
vt 0.44001406249999997 0.8671875
vt 0.44001406249999997 0.90625
vt 0.4232671875 0.90625
vt 0.35212343749999997 0.703125
vt 0.3353765625 0.703125
vt 0.34375 0.671875
vt 0.44001406249999997 0.8671875
vt 0.4567609375 0.8671875
vt 0.4567609375 0.90625
vt 0.44001406249999997 0.90625
vt 0.3353765625 0.703125
vt 0.3208734375 0.6947515625
vt 0.34375 0.671875
vt 0.3752703125 0.5703125
vt 0.3920171875 0.5703125
vt 0.3920171875 0.609375
vt 0.3752703125 0.609375
vt 0.3208734375 0.6947515625
vt 0.3125 0.6802484375
vt 0.34375 0.671875
vt 0.3920171875 0.5703125
vt 0.40876406249999997 0.5703125
vt 0.40876406249999997 0.609375
vt 0.3920171875 0.609375
vt 0.3125 0.6802484375
vt 0.3125 0.6635015625
vt 0.34375 0.671875
vt 0.40876406249999997 0.5703125
vt 0.4255109375 0.5703125
vt 0.4255109375 0.609375
vt 0.40876406249999997 0.609375
vt 0.3125 0.6635015625
vt 0.3208734375 0.6489984375
vt 0.34375 0.671875
vt 0.3752703125 0.6171875
vt 0.3920171875 0.6171875
vt 0.3920171875 0.65625
vt 0.3752703125 0.65625
vt 0.3208734375 0.6489984375
vt 0.3353765625 0.640625
vt 0.34375 0.671875
vt 0.3920171875 0.6171875
vt 0.40876406249999997 0.6171875
vt 0.40876406249999997 0.65625
vt 0.3920171875 0.65625
vt 0.3353765625 0.640625
vt 0.35212343749999997 0.640625
vt 0.34375 0.671875
vn 0.5000000000000001 0 0.8660254037844386
vn 0 1 0
vn 0.8660254037844387 0 0.5000000000000002
vn 0 1 0
vn 1 0 0
vn 0 1 0
vn 0.8660254037844388 0 -0.5000000000000001
vn 0 1 0
vn 0.49999999999999983 0 -0.8660254037844387
vn 0 1 0
vn 4.133076045520079e-16 0 -1
vn 0 1 0
vn -0.49999999999999933 0 -0.8660254037844392
vn 0 1 0
vn -0.8660254037844392 0 -0.49999999999999944
vn 0 1 0
vn -1 0 -4.133076045520082e-16
vn 0 1 0
vn -0.8660254037844392 0 0.49999999999999956
vn 0 1 0
vn -0.5 0 0.8660254037844387
vn 0 1 0
vn 0 0 1
vn 0 1 0
usemtl m_8ec2d3e5-430b-1766-e184-1728c7585c36
f 34/121/31 36/122/31 37/123/31 35/124/31
f 35/125/32 37/126/32 33/127/32
f 36/128/33 38/129/33 39/130/33 37/131/33
f 37/132/34 39/133/34 33/134/34
f 38/135/35 40/136/35 41/137/35 39/138/35
f 39/139/36 41/140/36 33/141/36
f 40/142/37 42/143/37 43/144/37 41/145/37
f 41/146/38 43/147/38 33/148/38
f 42/149/39 44/150/39 45/151/39 43/152/39
f 43/153/40 45/154/40 33/155/40
f 44/156/41 46/157/41 47/158/41 45/159/41
f 45/160/42 47/161/42 33/162/42
f 46/163/43 48/164/43 49/165/43 47/166/43
f 47/167/44 49/168/44 33/169/44
f 48/170/45 50/171/45 51/172/45 49/173/45
f 49/174/46 51/175/46 33/176/46
f 50/177/47 52/178/47 53/179/47 51/180/47
f 51/181/48 53/182/48 33/183/48
f 52/184/49 54/185/49 55/186/49 53/187/49
f 53/188/50 55/189/50 33/190/50
f 54/191/51 56/192/51 57/193/51 55/194/51
f 55/195/52 57/196/52 33/197/52
f 56/198/53 34/199/53 35/200/53 57/201/53
f 57/202/54 35/203/54 33/204/54