# Made in Blockbench 5.1.6
mtllib nyc_subway_entrance_1_globe_light_3r_light_layer.mtl

o mesh
v 0.2503125 2.5159374999999997 0.2503125
v 0.2503125 2.5159374999999997 -0.2503125
v 0.2503125 1.5778125 0.2503125
v 0.2503125 1.5778125 -0.2503125
v -0.2503125 2.5159374999999997 0.2503125
v -0.2503125 2.5159374999999997 -0.2503125
v -0.2503125 1.5778125 0.2503125
v -0.2503125 1.5778125 -0.2503125
vt 0.125 1
vt 0 1
vt 0 0.765625
vt 0.125 0.765625
vt 0.25 0.765625
vt 0.25 1
vt 0.125 1
vt 0.125 0.765625
vt 0.25 0.875
vt 0.375 0.875
vt 0.375 1
vt 0.25 1
vt 0.375 0.75
vt 0.375 0.875
vt 0.25 0.875
vt 0.25 0.75
vt 0.125 0.53125
vt 0.125 0.765625
vt 0 0.765625
vt 0 0.53125
vt 0.25 0.765625
vt 0.125 0.765625
vt 0.125 0.53125
vt 0.25 0.53125
vn 1 0 0
vn -1 0 0
vn 0 1 0
vn 0 -1 0
vn 0 0 1
vn 0 0 -1
usemtl m_0f0eebf2-45c2-19a7-cabd-221bc6f8ae44
f 2/1/1 1/2/1 3/3/1 4/4/1
f 7/5/2 5/6/2 6/7/2 8/8/2
f 5/9/3 1/10/3 2/11/3 6/12/3
f 4/13/4 3/14/4 7/15/4 8/16/4
f 3/17/5 1/18/5 5/19/5 7/20/5
f 6/21/6 2/22/6 4/23/6 8/24/6