# Made in Blockbench 5.1.6
mtllib nyc_subway_fare_gate_1_exit_open_light_layer.mtl

o right
v -0.4843750000000023 1.3437500000000002 0.5012499999999976
v -0.3281250000000023 1.3437500000000002 0.5012499999999983
v -0.3281250000000023 1.7343750000000002 0.5012499999999983
v -0.4843750000000023 1.7343750000000002 0.5012499999999976
vt 0.421875 0
vt 0.4609375 0
vt 0.4609375 0.09765625
vt 0.421875 0.09765625
vn -4.263256414560601e-15 0 1
usemtl m_0ee5b8ed-51ce-81de-ab1a-2fe2db2faa22
f 1/1/1 2/2/1 3/3/1 4/4/1
o right
v -0.3281249999999997 1.34375 0.06125000000000071
v -0.4843749999999997 1.34375 0.06125000000000097
v -0.48437499999999967 1.734375 0.06125000000000102
v -0.32812499999999967 1.734375 0.061250000000000755
vt 0.3818359375 0
vt 0.4208984375 0
vt 0.4208984375 0.09765625
vt 0.3818359375 0.09765625
vn -1.6875389974302379e-15 1.2434497875801774e-16 -1
usemtl m_0ee5b8ed-51ce-81de-ab1a-2fe2db2faa22
f 5/5/2 6/6/2 7/7/2 8/8/2
o cube
v -0.5000000000000007 1.26625 -0.499999999999999
v -0.5000000000000011 1.14125 -0.749999999999999
v -0.3125000000000011 1.094375 -0.7343749999999993
v -0.31250000000000067 1.219375 -0.49999999999999933
vt 0.3173828125 0.0017455746593673105
vt 0.3173828125 0.0716234375
vt 0.2689356983721336 0.06638373020484845
vt 0.2685546875 0
vn 0.21821789023599167 0.8728715609439697 -0.4364357804719852
usemtl m_0ee5b8ed-51ce-81de-ab1a-2fe2db2faa22
f 10/9/3 9/10/3 12/11/3 11/12/3