# Made in Blockbench 5.1.6
mtllib nyc_subway_ticket_machine_6.mtl

o cube
v 0.5 1.875 0.3125
v 0.5 1.875 -0.375
v 0.5 0 0.3125
v 0.5 0 -0.375
v -0.5 1.875 -0.375
v -0.5 1.875 0.3125
v -0.5 0 -0.375
v -0.5 0 0.3125
vt 0 1
vt 0.125 1
vt 0.125 0.765625
vt 0 0.765625
vt 0 0.765625
vt 0.0859375 0.765625
vt 0.0859375 0.53125
vt 0 0.53125
vt 0.125 1
vt 0.25 1
vt 0.25 0.765625
vt 0.125 0.765625
vt 0.0859375 0.765625
vt 0.171875 0.765625
vt 0.171875 0.53125
vt 0.0859375 0.53125
vt 0.375 0.8046875
vt 0.25 0.8046875
vt 0.25 0.890625
vt 0.375 0.890625
vt 0.421875 0.8046875
vt 0.296875 0.8046875
vt 0.296875 0.71875
vt 0.421875 0.71875
vn 0 0 -1
vn 1 0 0
vn 0 0 1
vn -1 0 0
vn 0 1 0
vn 0 -1 0
usemtl m_6ac641dd-1fe5-e2d1-1087-c1cc11170b61
f 4/4/1 7/3/1 5/2/1 2/1/1
f 3/8/2 4/7/2 2/6/2 1/5/2
f 8/12/3 3/11/3 1/10/3 6/9/3
f 7/16/4 8/15/4 6/14/4 5/13/4
f 6/20/5 1/19/5 2/18/5 5/17/5
f 7/24/6 4/23/6 3/22/6 8/21/6
o cube
v 0.5 2 0.5
v 0.5 2 -0.375
v 0.5 1.875 0.5
v 0.5 1.875 -0.375
v -0.5 2 -0.375
v -0.5 2 0.5
v -0.5 1.875 -0.375
v -0.5 1.875 0.5
vt 0.421875 0.7578125
vt 0.546875 0.7578125
vt 0.546875 0.7421875
vt 0.421875 0.7421875
vt 0.421875 0.7265625
vt 0.53125 0.7265625
vt 0.53125 0.7109375
vt 0.421875 0.7109375
vt 0.421875 0.7421875
vt 0.546875 0.7421875
vt 0.546875 0.7265625
vt 0.421875 0.7265625
vt 0.421875 0.7109375
vt 0.53125 0.7109375
vt 0.53125 0.6953125
vt 0.421875 0.6953125
vt 0.296875 0.65625
vt 0.171875 0.65625
vt 0.171875 0.765625
vt 0.296875 0.765625
vt 0.375 1
vt 0.25 1
vt 0.25 0.890625
vt 0.375 0.890625
vn 0 0 -1
vn 1 0 0
vn 0 0 1
vn -1 0 0
vn 0 1 0
vn 0 -1 0
usemtl m_6ac641dd-1fe5-e2d1-1087-c1cc11170b61
f 12/28/7 15/27/7 13/26/7 10/25/7
f 11/32/8 12/31/8 10/30/8 9/29/8
f 16/36/9 11/35/9 9/34/9 14/33/9
f 15/40/10 16/39/10 14/38/10 13/37/10
f 14/44/11 9/43/11 10/42/11 13/41/11
f 15/48/12 12/47/12 11/46/12 16/45/12
o cube
v 0.5 1.875 0.375
v 0.5 1.875 0.3125
v 0.5 1.25 0.375
v 0.5 1.21875 0.3125
v -0.5 1.875 0.375
v -0.5 1.875 0.3125
v -0.5 1.25 0.375
v -0.5 1.21875 0.3125
vt 0.3515625 0.48046875
vt 0.3515625 0.5625
vt 0.34375 0.5625
vt 0.34375 0.484375
vt 0.359375 0.484375
vt 0.359375 0.5625
vt 0.3515625 0.5625
vt 0.3515625 0.48046875
vt 0.546875 0.671875
vt 0.546875 0.6796875
vt 0.421875 0.6796875
vt 0.421875 0.671875
vt 0.546875 0.6865234375
vt 0.546875 0.6953125
vt 0.421875 0.6953125
vt 0.421875 0.6865234375
vt 0.296875 0.578125
vt 0.296875 0.65625
vt 0.171875 0.65625
vt 0.171875 0.578125
vt 0.421875 0.63671875
vt 0.421875 0.71875
vt 0.296875 0.71875
vt 0.296875 0.63671875
vn 1 0 0
vn -1 0 0
vn 0 1 0
vn 0 -0.8944271909999161 0.44721359549995804
vn 0 0 1
vn 0 0 -1
usemtl m_6ac641dd-1fe5-e2d1-1087-c1cc11170b61
f 20/49/13 18/50/13 17/51/13 19/52/13
f 23/53/14 21/54/14 22/55/14 24/56/14
f 17/57/15 18/58/15 22/59/15 21/60/15
f 20/61/16 19/62/16 23/63/16 24/64/16
f 19/65/17 17/66/17 21/67/17 23/68/17
f 24/69/18 22/70/18 18/71/18 20/72/18
o cube
v 0.5 0.5625 0.375
v 0.5 0.5625 0.3125
v 0.5 0 0.375
v 0.5 0 0.3125
v -0.5 0.5625 0.3125
v -0.5 0.5625 0.375
v -0.5 0 0.3125
v -0.5 0 0.375
vt 0.296875 0.6328125
vt 0.421875 0.6328125
vt 0.421875 0.5625
vt 0.296875 0.5625
vt 0.359375 0.5625
vt 0.3671875 0.5625
vt 0.3671875 0.4921875
vt 0.359375 0.4921875
vt 0.375 1
vt 0.5 1
vt 0.5 0.9296875
vt 0.375 0.9296875
vt 0.3671875 0.5625
vt 0.375 0.5625
vt 0.375 0.4921875
vt 0.3671875 0.4921875
vt 0.546875 0.6640625
vt 0.421875 0.6640625
vt 0.421875 0.671875
vt 0.546875 0.671875
vt 0.546875 0.6640625
vt 0.421875 0.6640625
vt 0.421875 0.65625
vt 0.546875 0.65625
vn 0 0 -1
vn 1 0 0
vn 0 0 1
vn -1 0 0
vn 0 1 0
vn 0 -1 0
usemtl m_6ac641dd-1fe5-e2d1-1087-c1cc11170b61
f 28/76/19 31/75/19 29/74/19 26/73/19
f 27/80/20 28/79/20 26/78/20 25/77/20
f 32/84/21 27/83/21 25/82/21 30/81/21
f 31/88/22 32/87/22 30/86/22 29/85/22
f 30/92/23 25/91/23 26/90/23 29/89/23
f 31/96/24 28/95/24 27/94/24 32/93/24
o cube
v -0.4375 1.25 0.375
v -0.4375 1.25 0.3125
v -0.4375 0.5625 0.375
v -0.4375 0.5625 0.3125
v -0.5 1.25 0.3125
v -0.5 1.25 0.375
v -0.5 0.5625 0.3125
v -0.5 0.5625 0.375
vt 0.296875 0.5625
vt 0.3046875 0.5625
vt 0.3046875 0.4765625
vt 0.296875 0.4765625
vt 0.3046875 0.5625
vt 0.3125 0.5625
vt 0.3125 0.4765625
vt 0.3046875 0.4765625
vt 0.3125 0.5625
vt 0.3203125 0.5625
vt 0.3203125 0.4765625
vt 0.3125 0.4765625
vt 0.3203125 0.5625
vt 0.328125 0.5625
vt 0.328125 0.4765625
vt 0.3203125 0.4765625
vt 0.2578125 0.796875
vt 0.25 0.796875
vt 0.25 0.8046875
vt 0.2578125 0.8046875
vt 0.2578125 0.796875
vt 0.25 0.796875
vt 0.25 0.7890625
vt 0.2578125 0.7890625
vn 0 0 -1
vn 1 0 0
vn 0 0 1
vn -1 0 0
vn 0 1 0
vn 0 -1 0
usemtl m_6ac641dd-1fe5-e2d1-1087-c1cc11170b61
f 36/100/25 39/99/25 37/98/25 34/97/25
f 35/104/26 36/103/26 34/102/26 33/101/26
f 40/108/27 35/107/27 33/106/27 38/105/27
f 39/112/28 40/111/28 38/110/28 37/109/28
f 38/116/29 33/115/29 34/114/29 37/113/29
f 39/120/30 36/119/30 35/118/30 40/117/30
o cube
v 0.5 1.25 0.375
v 0.5 1.25 0.3125
v 0.5 0.5625 0.375
v 0.5 0.5625 0.3125
v 0.03125 1.25 0.3125
v 0.03125 1.25 0.375
v 0.03125 0.5625 0.3125
v 0.03125 0.5625 0.375
vt 0.171875 0.578125
vt 0.23046875 0.578125
vt 0.23046875 0.4921875
vt 0.171875 0.4921875
vt 0.328125 0.5625
vt 0.3359375 0.5625
vt 0.3359375 0.4765625
vt 0.328125 0.4765625
vt 0.234375 0.578125
vt 0.29296875 0.578125
vt 0.29296875 0.4921875
vt 0.234375 0.4921875
vt 0.3359375 0.5625
vt 0.34375 0.5625
vt 0.34375 0.4765625
vt 0.3359375 0.4765625
vt 0.48828125 0.6171875
vt 0.4296875 0.6171875
vt 0.4296875 0.625
vt 0.48828125 0.625
vt 0.49609375 0.6171875
vt 0.4375 0.6171875
vt 0.4375 0.609375
vt 0.49609375 0.609375
vn 0 0 -1
vn 1 0 0
vn 0 0 1
vn -1 0 0
vn 0 1 0
vn 0 -1 0
usemtl m_6ac641dd-1fe5-e2d1-1087-c1cc11170b61
f 44/124/31 47/123/31 45/122/31 42/121/31
f 43/128/32 44/127/32 42/126/32 41/125/32
f 48/132/33 43/131/33 41/130/33 46/129/33
f 47/136/34 48/135/34 46/134/34 45/133/34
f 46/140/35 41/139/35 42/138/35 45/137/35
f 47/144/36 44/143/36 43/142/36 48/141/36
o cube
v 0.15625 0.859375 0.4375
v 0.15625 1.21875 0.3125
v 0.15625 0.609375 0.4375
v 0.15625 0.5625 0.375
v -0.4375 0.859375 0.4375
v -0.4375 1.21875 0.3125
v -0.4375 0.609375 0.4375
v -0.4375 0.5625 0.375
vt 0.42217768923881055 0.64453125
vt 0.5045801232611894 0.64453125
vt 0.45837920800594556 0.65625
vt 0.4272699744873846 0.6532872158553751
vt 0.4304193981310663 0.5633148512261952
vt 0.43338218227569114 0.5944240847447562
vt 0.42208656772430886 0.640625
vt 0.42208656772430886 0.5582225659776211
vt 0.49609375 0.7961882812500001
vt 0.49609375 0.84375
vt 0.421875 0.84375
vt 0.421875 0.7961882812500001
vt 0.50390625 0.630859375
vt 0.50390625 0.640625
vt 0.4296875 0.640625
vt 0.4296875 0.630859375
vt 0.49609375 0.7649382812500001
vt 0.49609375 0.7961882812500001
vt 0.421875 0.7961882812500001
vt 0.421875 0.7649382812500001
vt 0.44921875 0.84765625
vt 0.44921875 0.9296875
vt 0.375 0.9296875
vt 0.375 0.84765625
vn 1 0 0
vn -1 0 0
vn 0 0.32852062494127277 0.9444967967061593
vn 0 -0.8 0.6
vn 0 0 1
vn 0 -0.09480909262799544 -0.9954954725939522
usemtl m_6ac641dd-1fe5-e2d1-1087-c1cc11170b61
f 52/145/37 50/146/37 49/147/37 51/148/37
f 55/149/38 53/150/38 54/151/38 56/152/38
f 49/153/39 50/154/39 54/155/39 53/156/39
f 52/157/40 51/158/40 55/159/40 56/160/40
f 51/161/41 49/162/41 53/163/41 55/164/41
f 56/165/42 54/166/42 50/167/42 52/168/42