# Made in Blockbench 5.1.6
mtllib nyc_subway_entrance_1_globe_light_1y.mtl

o cube
v 0.09375 0.078125 0.09375
v 0.09375 0.078125 -0.09375
v 0.09375 0 0.09375
v 0.09375 0 -0.09375
v -0.09375 0.078125 -0.09375
v -0.09375 0.078125 0.09375
v -0.09375 0 -0.09375
v -0.09375 0 0.09375
vt 0.515625 0.703125
vt 0.5625 0.703125
vt 0.5625 0.68359375
vt 0.515625 0.68359375
vt 0.53125 0.8125
vt 0.578125 0.8125
vt 0.578125 0.79296875
vt 0.53125 0.79296875
vt 0.53125 0.515625
vt 0.578125 0.515625
vt 0.578125 0.49609375
vt 0.53125 0.49609375
vt 0.53125 0.46875
vt 0.578125 0.46875
vt 0.578125 0.44921875
vt 0.53125 0.44921875
vt 0.34375 0.953125
vt 0.296875 0.953125
vt 0.296875 1
vt 0.34375 1
vt 0.328125 0.515625
vt 0.28125 0.515625
vt 0.28125 0.46875
vt 0.328125 0.46875
vn 0 0 -1
vn 1 0 0
vn 0 0 1
vn -1 0 0
vn 0 1 0
vn 0 -1 0
usemtl m_7d477fe7-c1e3-2c16-0caa-429ca962fca8
f 4/4/1 7/3/1 5/2/1 2/1/1
f 3/8/2 4/7/2 2/6/2 1/5/2
f 8/12/3 3/11/3 1/10/3 6/9/3
f 7/16/4 8/15/4 6/14/4 5/13/4
f 6/20/5 1/19/5 2/18/5 5/17/5
f 7/24/6 4/23/6 3/22/6 8/21/6
o cube
v 0.046875 1.578125 0.046875
v 0.046875 1.578125 -0.046875
v 0.0625 0.078125 0.0625
v 0.0625 0.078125 -0.0625
v -0.046875 1.578125 0.046875
v -0.046875 1.578125 -0.046875
v -0.0625 0.078125 0.0625
v -0.0625 0.078125 -0.0625
vt 0.125 0.3747152299424704
vt 0.125 0.7497558858408145
vt 0.10156207622514504 0.75
vt 0.09375 0.37504071548805107
vt 0.265625 0.3590902299424704
vt 0.265625 0.7341308858408145
vt 0.24218707622514504 0.734375
vt 0.234375 0.35941571548805107
vt 0.3671875 0.4453125
vt 0.3671875 0.46875
vt 0.34375 0.46875
vt 0.34375 0.4453125
vt 0.34375 0.90625
vt 0.34375 0.9375
vt 0.3125 0.9375
vt 0.3125 0.90625
vt 0.03125 0.4684652299424704
vt 0.03125 0.8435058858408145
vt 0.00781207622514505 0.84375
vt 0 0.46879071548805107
vt 0.078125 0.4684652299424704
vt 0.078125 0.8435058858408145
vt 0.05468707622514505 0.84375
vt 0.046875 0.46879071548805107
vn 0.9999457509425375 0.010416101572318098 0
vn -0.9999457509425375 0.010416101572318098 0
vn 0 1 0
vn 0 -1 0
vn 0 0.010416101572318098 0.9999457509425375
vn 0 0.010416101572318098 -0.9999457509425375
usemtl m_7d477fe7-c1e3-2c16-0caa-429ca962fca8
f 12/25/7 10/26/7 9/27/7 11/28/7
f 15/29/8 13/30/8 14/31/8 16/32/8
f 9/33/9 10/34/9 14/35/9 13/36/9
f 12/37/10 11/38/10 15/39/10 16/40/10
f 11/41/11 9/42/11 13/43/11 15/44/11
f 16/45/12 14/46/12 10/47/12 12/48/12
o cube
v 0.0625 0.1640625 0.0625
v 0.0625 0.1640625 -0.0625
v 0.0625 0.0859375 0.0625
v 0.0625 0.0859375 -0.0625
v -0.0625 0.1640625 0.0625
v -0.0625 0.1640625 -0.0625
v -0.0625 0.0859375 0.0625
v -0.0625 0.0859375 -0.0625
v 0.09375 0.11197916666666667 0.09375
v 0.09375 0.11197916666666667 -0.09375
v 0.078125 0.09583333333333334 0.078125
v 0.078125 0.09583333333333334 -0.078125
v -0.09375 0.11197916666666667 -0.09375
v -0.078125 0.09583333333333334 -0.078125
v -0.09375 0.11197916666666667 0.09375
v -0.078125 0.09583333333333334 0.078125
vt 0.50488359375 0.48046875
vt 0.50950703125 0.4765625
vt 0.50950703125 0.515625
vt 0.50488359375 0.51171875
vt 0.47363359375 0.51171875
vt 0.46900859375 0.515625
vt 0.46900859375 0.4765625
vt 0.47363359375 0.48046875
vt 0.375 0.484375
vt 0.375 0.515625
vt 0.34375 0.515625
vt 0.34375 0.484375
vt 0.50488359375 0.48046875
vt 0.50488359375 0.51171875
vt 0.47363359375 0.51171875
vt 0.47363359375 0.48046875
vt 0.4296875 0.44140625
vt 0.43359375 0.44602968750000005
vt 0.39453125 0.44602968750000005
vt 0.3984375 0.44140625
vt 0.3203125 0.44140625
vt 0.32421875 0.44603125
vt 0.28515625 0.44603125
vt 0.2890625 0.44140625
vt 0.5390625 0.609375
vt 0.53125 0.59375
vt 0.578125 0.59375
vt 0.5703125 0.609375
vt 0.03125 0.4375
vt 0.03515625 0.431640625
vt 0.07421875 0.431640625
vt 0.078125 0.4375
vt 0.3828125 0.796875
vt 0.375 0.78125
vt 0.421875 0.78125
vt 0.4140625 0.796875
vt 0.28125 0.45164843750000006
vt 0.28515625 0.44603125
vt 0.32421875 0.44603125
vt 0.328125 0.45164843750000006
vt 0.5546875 1
vt 0.546875 0.984375
vt 0.59375 0.984375
vt 0.5859375 1
vt 0.5625 0.734375
vt 0.56640625 0.728515625
vt 0.60546875 0.728515625
vt 0.609375 0.734375
vt 0.5078125 0.90625
vt 0.5 0.890625
vt 0.546875 0.890625
vt 0.5390625 0.90625
vt 0.390625 0.451646875
vt 0.39453125 0.44602968750000005
vt 0.43359375 0.44602968750000005
vt 0.4375 0.451646875
vn 0.5350520811843449 -0.8448190755542286 0
vn -0.5350520811843449 -0.8448190755542286 0
vn 0 1 0
vn 0 -1 0
vn 0 -0.8448190755542286 0.5350520811843449
vn 0 -0.8448190755542286 -0.5350520811843449
vn 0.8574929257125443 0.5144957554275267 0
vn 0.718602141766591 -0.6954214275160555 0
vn 0 0.5144957554275267 -0.8574929257125443
vn 0 -0.6954214275160555 -0.718602141766591
vn -0.8574929257125443 0.5144957554275267 0
vn -0.718602141766591 -0.6954214275160555 0
vn 0 0.5144957554275267 0.8574929257125443
vn 0 -0.6954214275160555 0.718602141766591
usemtl m_7d477fe7-c1e3-2c16-0caa-429ca962fca8
f 20/49/13 28/50/13 27/51/13 19/52/13
f 23/53/14 32/54/14 30/55/14 24/56/14
f 17/57/15 18/58/15 22/59/15 21/60/15
f 20/61/16 19/62/16 23/63/16 24/64/16
f 19/65/17 27/66/17 32/67/17 23/68/17
f 24/69/18 30/70/18 28/71/18 20/72/18
f 17/73/19 25/74/19 26/75/19 18/76/19
f 25/77/20 27/78/20 28/79/20 26/80/20
f 18/81/21 26/82/21 29/83/21 22/84/21
f 26/85/22 28/86/22 30/87/22 29/88/22
f 22/89/23 29/90/23 31/91/23 21/92/23
f 29/93/24 30/94/24 32/95/24 31/96/24
f 21/97/25 31/98/25 25/99/25 17/100/25
f 31/101/26 32/102/26 27/103/26 25/104/26
o cube
v 0.0625 1.59375 0.0625
v 0.0625 1.59375 -0.0625
v 0.0625 1.578125 0.0625
v 0.0625 1.578125 -0.0625
v -0.0625 1.59375 -0.0625
v -0.0625 1.59375 0.0625
v -0.0625 1.578125 -0.0625
v -0.0625 1.578125 0.0625
vt 0.5625 0.65625
vt 0.59375 0.65625
vt 0.59375 0.65234375
vt 0.5625 0.65234375
vt 0.5625 0.578125
vt 0.59375 0.578125
vt 0.59375 0.57421875
vt 0.5625 0.57421875
vt 0.5625 0.546875
vt 0.59375 0.546875
vt 0.59375 0.54296875
vt 0.5625 0.54296875
vt 0.28125 0.421875
vt 0.3125 0.421875
vt 0.3125 0.41796875
vt 0.28125 0.41796875
vt 0.53125 0.96875
vt 0.5 0.96875
vt 0.5 1
vt 0.53125 1
vt 0.53125 0.953125
vt 0.5 0.953125
vt 0.5 0.921875
vt 0.53125 0.921875
vn 0 0 -1
vn 1 0 0
vn 0 0 1
vn -1 0 0
vn 0 1 0
vn 0 -1 0
usemtl m_7d477fe7-c1e3-2c16-0caa-429ca962fca8
f 36/108/27 39/107/27 37/106/27 34/105/27
f 35/112/28 36/111/28 34/110/28 33/109/28
f 40/116/29 35/115/29 33/114/29 38/113/29
f 39/120/30 40/119/30 38/118/30 37/117/30
f 38/124/31 33/123/31 34/122/31 37/121/31
f 39/128/32 36/127/32 35/126/32 40/125/32
o cube
v 0.109375 1.8125 0.109375
v 0.109375 1.8125 -0.109375
v 0.046875 1.59375 0.046875
v 0.046875 1.59375 -0.046875
v -0.109375 1.8125 0.109375
v -0.109375 1.8125 -0.109375
v -0.046875 1.59375 0.046875
v -0.046875 1.59375 -0.046875
v -0.078125 1.765625 0.078125
v -0.078125 1.765625 -0.078125
v 0.078125 1.765625 -0.078125
v 0.078125 1.765625 0.078125
v -0.0578125 1.6953125 0.0578125
v -0.0578125 1.6953125 -0.0578125
v 0.0578125 1.6953125 -0.0578125
v 0.0578125 1.6953125 0.0578125
vt 0.140625 0.5462
vt 0.1484375 0.532115625
vt 0.1875 0.532115625
vt 0.1953125 0.5462
vt 0.40625 0.6087
vt 0.4140625 0.594615625
vt 0.453125 0.594615625
vt 0.4609375 0.6087
vt 0.4453125 0.4765625
vt 0.4453125 0.53125
vt 0.390625 0.53125
vt 0.390625 0.4765625
vt 0.5703125 0.9453125
vt 0.5703125 0.96875
vt 0.546875 0.96875
vt 0.546875 0.9453125
vt 0.40625 0.686825
vt 0.4140625 0.672740625
vt 0.453125 0.672740625
vt 0.4609375 0.686825
vt 0.140625 0.624325
vt 0.1484375 0.610240625
vt 0.1875 0.610240625
vt 0.1953125 0.624325
vt 0.4140625 0.594615625
vt 0.419140625 0.57631875
vt 0.448046875 0.57631875
vt 0.453125 0.594615625
vt 0.1484375 0.610240625
vt 0.153515625 0.59194375
vt 0.182421875 0.59194375
vt 0.1875 0.610240625
vt 0.1484375 0.532115625
vt 0.153515625 0.51381875
vt 0.182421875 0.51381875
vt 0.1875 0.532115625
vt 0.4140625 0.672740625
vt 0.419140625 0.65444375
vt 0.448046875 0.65444375
vt 0.453125 0.672740625
vt 0.4453125 0.55078125
vt 0.448046875 0.57631875
vt 0.419140625 0.57631875
vt 0.421875 0.55078125
vt 0.1796875 0.56640625
vt 0.182421875 0.59194375
vt 0.153515625 0.59194375
vt 0.15625 0.56640625
vt 0.1796875 0.48828125
vt 0.182421875 0.51381875
vt 0.153515625 0.51381875
vt 0.15625 0.48828125
vt 0.4453125 0.62890625
vt 0.448046875 0.65444375
vt 0.419140625 0.65444375
vt 0.421875 0.62890625
vn 0.8320502943378437 -0.5547001962252291 0
vn -0.8320502943378437 -0.5547001962252291 0
vn 0 1 0
vn 0 -1 0
vn 0 -0.5547001962252291 0.8320502943378437
vn 0 -0.5547001962252291 -0.8320502943378437
vn -0.9607141828411424 -0.2775396528207744 0
vn 0 -0.2775396528207744 -0.9607141828411424
vn 0.9607141828411424 -0.2775396528207744 0
vn 0 -0.2775396528207744 0.9607141828411424
vn -0.9942511402566917 -0.10707319971995143 0
vn 0 -0.10707319971995143 -0.9942511402566917
vn 0.9942511402566917 -0.10707319971995143 0
vn 0 -0.10707319971995143 0.9942511402566917
usemtl m_7d477fe7-c1e3-2c16-0caa-429ca962fca8
f 41/129/33 52/130/33 51/131/33 42/132/33
f 46/133/34 50/134/34 49/135/34 45/136/34
f 41/137/35 42/138/35 46/139/35 45/140/35
f 44/141/36 43/142/36 47/143/36 48/144/36
f 45/145/37 49/146/37 52/147/37 41/148/37
f 42/149/38 51/150/38 50/151/38 46/152/38
f 50/153/39 54/154/39 53/155/39 49/156/39
f 51/157/40 55/158/40 54/159/40 50/160/40
f 52/161/41 56/162/41 55/163/41 51/164/41
f 49/165/42 53/166/42 56/167/42 52/168/42
f 47/169/43 53/170/43 54/171/43 48/172/43
f 48/173/44 54/174/44 55/175/44 44/176/44
f 44/177/45 55/178/45 56/179/45 43/180/45
f 43/181/46 56/182/46 53/183/46 47/184/46
o cylinder
v 0 1.8125 0
v 0 1.96875 0
v 0.008373412263472583 1.8125 0.031249999999999997
v 0.03349364905389032 2.00224364905389 0.12499999999999997
v 0.022876587736527412 1.8125 0.022876587736527416
v 0.09150635094610962 2.00224364905389 0.09150635094610964
v 0.031249999999999997 1.8125 0.008373412263472583
v 0.12499999999999997 2.00224364905389 0.03349364905389032
v 0.031249999999999997 1.8125 -0.008373412263472586
v 0.12499999999999997 2.00224364905389 -0.03349364905389034
v 0.022876587736527416 1.8125 -0.022876587736527412
v 0.09150635094610964 2.00224364905389 -0.09150635094610962
v 0.008373412263472593 1.8125 -0.031249999999999993
v 0.03349364905389036 2.00224364905389 -0.12499999999999994
v -0.00837341226347257 1.8125 -0.03125
v -0.033493649053890275 2.00224364905389 -0.12499999999999999
v -0.022876587736527412 1.8125 -0.02287658773652742
v -0.09150635094610962 2.00224364905389 -0.09150635094610965
v -0.031249999999999997 1.8125 -0.008373412263472579
v -0.12499999999999997 2.00224364905389 -0.03349364905389031
v -0.03125 1.8125 0.008373412263472569
v -0.12499999999999999 2.00224364905389 0.03349364905389027
v -0.02287658773652742 1.8125 0.02287658773652741
v -0.09150635094610965 2.00224364905389 0.09150635094610961
v -0.00837341226347258 1.8125 0.031249999999999997
v -0.033493649053890316 2.00224364905389 0.12499999999999997
v -0.008373412263472583 1.938621824526945 0.031249999999999993
v -0.02287658773652742 1.938621824526945 0.0228765877365274
v -0.03125000000000001 1.938621824526945 0.008373412263472562
v -0.031249999999999993 1.938621824526945 -0.00837341226347258
v -0.02287658773652741 1.938621824526945 -0.02287658773652742
v -0.008373412263472572 1.938621824526945 -0.03125000000000001
v 0.008373412263472586 1.938621824526945 -0.031249999999999993
v 0.022876587736527405 1.938621824526945 -0.02287658773652741
v 0.031249999999999993 1.938621824526945 -0.008373412263472588
v 0.031249999999999993 1.938621824526945 0.008373412263472576
v 0.0228765877365274 1.938621824526945 0.022876587736527405
v 0.008373412263472576 1.938621824526945 0.031249999999999993
v 0.04575317547305481 1.9704327367904177 0.04575317547305482
v 0.016746824526945158 1.9704327367904177 0.06249999999999999
v -0.01674682452694516 1.9704327367904177 0.06249999999999999
v -0.04575317547305483 1.9704327367904177 0.045753175473054804
v -0.0625 1.9704327367904177 0.01674682452694513
v -0.062499999999999986 1.9704327367904177 -0.016746824526945158
v -0.04575317547305482 1.9704327367904177 -0.04575317547305483
v -0.01674682452694514 1.9704327367904177 -0.0625
v 0.01674682452694518 1.9704327367904177 -0.062499999999999986
v 0.04575317547305482 1.9704327367904177 -0.04575317547305482
v 0.06249999999999999 1.9704327367904177 -0.016746824526945172
v 0.06249999999999999 1.9704327367904177 0.016746824526945158
vt 0.15415625 0.99790625
vt 0.15053125 1
vt 0.1484375 0.9921875
vt 0.51325625 0.5766543631386213
vt 0.50906875 0.5591215506386213
vt 0.5165370456063627 0.5553383176625004
vt 0.5281956289303836 0.5690864850053508
vt 0.1654546875 0.71875
vt 0.1508105289387749 0.7106255651089246
vt 0.173828125 0.686396875
vt 0.15625 0.99428125
vt 0.15415625 0.99790625
vt 0.1484375 0.9921875
vt 0.5281956289303836 0.5690864850053508
vt 0.5165370456063627 0.5553383176625004
vt 0.5214896503110924 0.5485885030239852
vt 0.5381026870164778 0.5555843362006463
vt 0.1508105289387749 0.7106255651089246
vt 0.1419464908620005 0.6964168828604148
vt 0.173828125 0.686396875
vt 0.15625 0.99009375
vt 0.15625 0.99428125
vt 0.1484375 0.9921875
vt 0.5381026870164778 0.5555843362006463
vt 0.5214896503110924 0.5485885030239852
vt 0.5228574914020367 0.5403291264273195
vt 0.5408388797773478 0.5390625
vt 0.1419464908620005 0.6964168828604148
vt 0.14108848808398816 0.6796920015903266
vt 0.173828125 0.686396875
vt 0.15415625 0.98646875
vt 0.15625 0.99009375
vt 0.1484375 0.9921875
vt 0.4697098129835222 0.6349510382937336
vt 0.4863228496889076 0.6279552051170725
vt 0.4912754543936373 0.6347050197555877
vt 0.4796168710696163 0.648453187098438
vt 0.14108848808398816 0.6796920015903266
vt 0.14845198009145893 0.6646508311664022
vt 0.173828125 0.686396875
vt 0.15053125 0.984375
vt 0.15415625 0.98646875
vt 0.1484375 0.9921875
vt 0.4796168710696163 0.648453187098438
vt 0.4912754543936373 0.6347050197555877
vt 0.49874375 0.6384882527317086
vt 0.49455625 0.6560210652317086
vt 0.14845198009145893 0.6646508311664022
vt 0.16218786540238755 0.6550704722487708
vt 0.173828125 0.686396875
vt 0.14634375 0.984375
vt 0.15053125 0.984375
vt 0.1484375 0.9921875
vt 0.49455625 0.6560210652317086
vt 0.49874375 0.6384882527317086
vt 0.507115625 0.6384882527317086
vt 0.511303125 0.6560210652317086
vt 0.16880942674837363 0.6533567203288857
vt 0.18546838459761245 0.6550704722487708
vt 0.173828125 0.686396875
vt 0.14271875 0.98646875
vt 0.14634375 0.984375
vt 0.1484375 0.9921875
vt 0.511303125 0.6560210652317086
vt 0.507115625 0.6384882527317086
vt 0.5145839206063627 0.6347050197555877
vt 0.5262425039303836 0.648453187098438
vt 0.18546838459761245 0.6550704722487708
vt 0.19920426990854107 0.6646508311664022
vt 0.173828125 0.686396875
vt 0.140625 0.99009375
vt 0.14271875 0.98646875
vt 0.1484375 0.9921875
vt 0.5262425039303836 0.648453187098438
vt 0.5145839206063627 0.6347050197555877
vt 0.5195365253110924 0.6279552051170725
vt 0.5361495620164778 0.6349510382937336
vt 0.19920426990854107 0.6646508311664022
vt 0.20656776191601184 0.6796920015903266
vt 0.173828125 0.686396875
vt 0.140625 0.99428125
vt 0.140625 0.99009375
vt 0.1484375 0.9921875
vt 0.4689267452226522 0.5390625
vt 0.4869081335979633 0.5403291264273195
vt 0.4882759746889076 0.5485885030239852
vt 0.4716629379835222 0.5555843362006463
vt 0.20656776191601184 0.6796920015903266
vt 0.2057097591379995 0.6964168828604148
vt 0.173828125 0.686396875
vt 0.14271875 0.99790625
vt 0.140625 0.99428125
vt 0.1484375 0.9921875
vt 0.4716629379835222 0.5555843362006463
vt 0.48827597468890765 0.5485885030239852
vt 0.4932285793936373 0.5553383176625004
vt 0.4815699960696163 0.5690864850053508
vt 0.2057097591379995 0.6964168828604148
vt 0.1968457210612251 0.7106255651089246
vt 0.173828125 0.686396875
vt 0.14634375 1
vt 0.14271875 0.99790625
vt 0.1484375 0.9921875
vt 0.48156999606961637 0.5690864850053508
vt 0.4932285793936373 0.5553383176625004
vt 0.500696875 0.5591215506386213
vt 0.49650937500000003 0.5766543631386213
vt 0.1968457210612251 0.7106255651089246
vt 0.1822015625 0.71875
vt 0.173828125 0.686396875
vt 0.15053125 1
vt 0.14634375 1
vt 0.1484375 0.9921875
vt 0.49650937500000003 0.5766543631386213
vt 0.500696875 0.5591215506386213
vt 0.50906875 0.5591215506386213
vt 0.51325625 0.5766543631386213
vt 0.1822015625 0.71875
vt 0.1654546875 0.71875
vt 0.173828125 0.686396875
vt 0.4578671875 0.42159531250000004
vt 0.4578671875 0.453125
vt 0.4536796875 0.453125
vt 0.4536796875 0.42159531250000004
vt 0.4974921875 0.419921875
vt 0.4974921875 0.45145156249999996
vt 0.4933046875 0.45145156249999996
vt 0.4933046875 0.419921875
vt 0.4933046875 0.419921875
vt 0.4933046875 0.45145156249999996
vt 0.4891171875 0.45145156249999996
vt 0.4891171875 0.419921875
vt 0.4891171875 0.419921875
vt 0.4891171875 0.45145156249999996
vt 0.4849296875 0.45145156249999996
vt 0.4849296875 0.419921875
vt 0.0131171875 0.404296875
vt 0.0131171875 0.43582656249999996
vt 0.0089296875 0.43582656249999996
vt 0.0089296875 0.404296875
vt 0.0089296875 0.404296875
vt 0.0089296875 0.43582656249999996
vt 0.0047421875 0.43582656249999996
vt 0.0047421875 0.404296875
vt 0.0047421875 0.404296875
vt 0.0047421875 0.43582656249999996
vt 0.0005546874999999996 0.43582656249999996
vt 0.0005546874999999996 0.404296875
vt 0.1068671875 0.8122203125
vt 0.1068671875 0.84375
vt 0.1026796875 0.84375
vt 0.1026796875 0.8122203125
vt 0.1026796875 0.8122203125
vt 0.1026796875 0.84375
vt 0.0984921875 0.84375
vt 0.0984921875 0.8122203125
vt 0.0984921875 0.8122203125
vt 0.0984921875 0.84375
vt 0.0943046875 0.84375
vt 0.0943046875 0.8122203125
vt 0.4662421875 0.42159531250000004
vt 0.4662421875 0.453125
vt 0.4620546875 0.453125
vt 0.4620546875 0.42159531250000004
vt 0.4620546875 0.42159531250000004
vt 0.4620546875 0.453125
vt 0.4578671875 0.453125
vt 0.4578671875 0.42159531250000004
vt 0.5096327128139884 0.546338590115585
vt 0.5165370456063627 0.5553383176625004
vt 0.50906875 0.5591215506386213
vt 0.5058971711519779 0.54823091269416
vt 0.1007265625 0.76953125
vt 0.10281875 0.78125
vt 0.094446875 0.78125
vt 0.0965390625 0.76953125
vt 0.5038684538480221 0.54823091269416
vt 0.500696875 0.5591215506386213
vt 0.4932285793936373 0.5553383176625004
vt 0.5001329121860116 0.546338590115585
vt 0.5009793053634345 0.5470563399900074
vt 0.4932285793936373 0.5553383176625004
vt 0.48827597468890765 0.5485885030239852
vt 0.4985020786727522 0.5436801729069127
vt 0.4913515625 0.67578125
vt 0.49344375 0.6875
vt 0.485071875 0.6875
vt 0.4871640625 0.67578125
vt 0.5093104213272478 0.623046875
vt 0.5195365253110924 0.6279552051170725
vt 0.5145839206063627 0.6347050197555877
vt 0.5068331946365655 0.6264230420830946
vt 0.5076795878139884 0.6257052922086723
vt 0.5145839206063627 0.6347050197555877
vt 0.507115625 0.6384882527317086
vt 0.5039440461519779 0.6275976147872472
vt 0.2101015625 0.58203125
vt 0.21219375000000001 0.59375
vt 0.20382187499999999 0.59375
vt 0.2059140625 0.58203125
vt 0.5019153288480221 0.6275976147872472
vt 0.49874375 0.6384882527317086
vt 0.4912754543936373 0.6347050197555877
vt 0.49817978718601164 0.6257052922086723
vt 0.49902618036343444 0.6264230420830946
vt 0.4912754543936373 0.6347050197555877
vt 0.4863228496889076 0.6279552051170725
vt 0.4965489536727522 0.623046875
vt 0.2101015625 0.50390625
vt 0.21219375000000001 0.515625
vt 0.20382187499999999 0.515625
vt 0.2059140625 0.50390625
vt 0.5112635463272478 0.5436801729069127
vt 0.5214896503110924 0.5485885030239852
vt 0.5165370456063627 0.5553383176625004
vt 0.5087863196365655 0.5470563399900074
vn 0 -1 0
vn 0.22680035799645626 -0.891205021558293 0.39282974322467235
vn -0.1294095225512599 0.9659258262890685 -0.22414386804201247
vn 0 -1 0
vn 0.3928297432246724 -0.8912050215582931 0.22680035799645637
vn -0.22414386804201247 0.9659258262890685 -0.12940952255125993
vn 0 -1 0
vn 0.4536007159929124 -0.891205021558293 0
vn -0.2588190451025197 0.9659258262890685 0
vn 0 -1 0
vn 0.3928297432246724 -0.891205021558293 -0.22680035799645634
vn -0.22414386804201245 0.9659258262890685 0.12940952255125993
vn 0 -1 0
vn 0.2268003579964563 -0.891205021558293 -0.3928297432246724
vn -0.1294095225512599 0.9659258262890685 0.22414386804201245
vn 0 -1 0
vn 1.8463133357827066e-16 -0.891205021558293 -0.4536007159929126
vn -1.6085896386392988e-16 0.9659258262890685 0.2588190451025197
vn 0 -1 0
vn -0.226800357996456 -0.8912050215582931 -0.3928297432246726
vn 0.12940952255125981 0.9659258262890685 0.2241438680420125
vn 0 -1 0
vn -0.39282974322467257 -0.8912050215582928 -0.22680035799645618
vn 0.22414386804201247 0.9659258262890685 0.12940952255125987
vn 0 -1 0
vn -0.45360071599291235 -0.8912050215582928 -1.8463133357827074e-16
vn 0.25881904510251974 0.9659258262890686 5.361965462131001e-17
vn 0 -1 0
vn -0.3928297432246725 -0.8912050215582931 0.226800357996456
vn 0.22414386804201253 0.9659258262890688 -0.12940952255125984
vn 0 -1 0
vn -0.22680035799645637 -0.8912050215582928 0.3928297432246724
vn 0.12940952255125993 0.9659258262890685 -0.22414386804201245
vn 0 -1 0
vn 0 -0.891205021558293 0.4536007159929123
vn 0 0.9659258262890686 -0.25881904510251974
vn -0.5000000000000003 1.69460556688133e-17 0.8660254037844385
vn -0.8660254037844388 4.126304426256207e-17 0.5000000000000001
vn -1 -5.5017392350082796e-17 -8.286817471267768e-16
vn -0.8660254037844389 1.6946055668813314e-17 -0.4999999999999999
vn -0.5000000000000001 1.3754348087520691e-17 -0.8660254037844388
vn 8.286817471267759e-16 -5.501739235008274e-17 -1
vn 0.5000000000000003 2.7508696175041392e-17 -0.8660254037844385
vn 0.8660254037844384 8.522403722524163e-17 -0.5000000000000004
vn 1 2.750869617504137e-17 0
vn 0.8660254037844384 5.133192588761505e-17 0.5000000000000006
vn 0.5000000000000004 1.2648708148780374e-16 0.8660254037844385
vn 0 2.7508696175041373e-17 1
vn 0.3566840568283115 -0.7007895079251629 0.6177949086764198
vn 0 -0.7007895079251629 0.7133681136566226
vn -0.3566840568283116 -0.7007895079251628 0.6177949086764198
vn -0.6177949086764201 -0.7007895079251628 0.3566840568283112
vn -0.7133681136566227 -0.7007895079251629 -2.903657368977691e-16
vn -0.61779490867642 -0.7007895079251629 -0.3566840568283113
vn -0.35668405682831117 -0.7007895079251629 -0.6177949086764201
vn 2.9036573689776884e-16 -0.7007895079251629 -0.7133681136566227
vn 0.3566840568283116 -0.7007895079251629 -0.6177949086764198
vn 0.6177949086764198 -0.7007895079251629 -0.3566840568283116
vn 0.7133681136566227 -0.700789507925163 0
vn 0.6177949086764198 -0.7007895079251628 0.3566840568283116
usemtl m_7d477fe7-c1e3-2c16-0caa-429ca962fca8
f 61/185/47 59/186/47 57/187/47
f 60/188/48 96/189/48 95/190/48 62/191/48
f 60/192/49 62/193/49 58/194/49
f 63/195/50 61/196/50 57/197/50
f 62/198/51 95/199/51 106/200/51 64/201/51
f 62/202/52 64/203/52 58/204/52
f 65/205/53 63/206/53 57/207/53
f 64/208/54 106/209/54 105/210/54 66/211/54
f 64/212/55 66/213/55 58/214/55
f 67/215/56 65/216/56 57/217/56
f 66/218/57 105/219/57 104/220/57 68/221/57
f 66/222/58 68/223/58 58/224/58
f 69/225/59 67/226/59 57/227/59
f 68/228/60 104/229/60 103/230/60 70/231/60
f 68/232/61 70/233/61 58/234/61
f 71/235/62 69/236/62 57/237/62
f 70/238/63 103/239/63 102/240/63 72/241/63
f 70/242/64 72/243/64 58/244/64
f 73/245/65 71/246/65 57/247/65
f 72/248/66 102/249/66 101/250/66 74/251/66
f 72/252/67 74/253/67 58/254/67
f 75/255/68 73/256/68 57/257/68
f 74/258/69 101/259/69 100/260/69 76/261/69
f 74/262/70 76/263/70 58/264/70
f 77/265/71 75/266/71 57/267/71
f 76/268/72 100/269/72 99/270/72 78/271/72
f 76/272/73 78/273/73 58/274/73
f 79/275/74 77/276/74 57/277/74
f 78/278/75 99/279/75 98/280/75 80/281/75
f 78/282/76 80/283/76 58/284/76
f 81/285/77 79/286/77 57/287/77
f 80/288/78 98/289/78 97/290/78 82/291/78
f 80/292/79 82/293/79 58/294/79
f 59/295/80 81/296/80 57/297/80
f 82/298/81 97/299/81 96/300/81 60/301/81
f 82/302/82 60/303/82 58/304/82
f 81/305/83 83/306/83 84/307/83 79/308/83
f 79/309/84 84/310/84 85/311/84 77/312/84
f 77/313/85 85/314/85 86/315/85 75/316/85
f 75/317/86 86/318/86 87/319/86 73/320/86
f 73/321/87 87/322/87 88/323/87 71/324/87
f 71/325/88 88/326/88 89/327/88 69/328/88
f 69/329/89 89/330/89 90/331/89 67/332/89
f 67/333/90 90/334/90 91/335/90 65/336/90
f 65/337/91 91/338/91 92/339/91 63/340/91
f 63/341/92 92/342/92 93/343/92 61/344/92
f 61/345/93 93/346/93 94/347/93 59/348/93
f 59/349/94 94/350/94 83/351/94 81/352/94
f 93/353/95 95/354/95 96/355/95 94/356/95
f 94/357/96 96/358/96 97/359/96 83/360/96
f 83/361/97 97/362/97 98/363/97 84/364/97
f 84/365/98 98/366/98 99/367/98 85/368/98
f 85/369/99 99/370/99 100/371/99 86/372/99
f 86/373/100 100/374/100 101/375/100 87/376/100
f 87/377/101 101/378/101 102/379/101 88/380/101
f 88/381/102 102/382/102 103/383/102 89/384/102
f 89/385/103 103/386/103 104/387/103 90/388/103
f 90/389/104 104/390/104 105/391/104 91/392/104
f 91/393/105 105/394/105 106/395/105 92/396/105
f 92/397/106 106/398/106 95/399/106 93/400/106
o sphere
v 0 1.96875 0
v 0 2.46875 0
v 0.03349364905389032 2.43525635094611 0.12499999999999997
v 0.05801270189221931 2.34375 0.21650635094610965
v 0.06698729810778066 2.21875 0.24999999999999997
v 0.05801270189221932 2.09375 0.21650635094610968
v 0.03349364905389032 2.00224364905389 0.12499999999999997
v 0.09150635094610962 2.43525635094611 0.09150635094610964
v 0.15849364905389032 2.34375 0.15849364905389032
v 0.1830127018922193 2.21875 0.18301270189221933
v 0.15849364905389032 2.09375 0.15849364905389035
v 0.09150635094610962 2.00224364905389 0.09150635094610964
v 0.12499999999999997 2.43525635094611 0.03349364905389032
v 0.21650635094610965 2.34375 0.05801270189221931
v 0.24999999999999997 2.21875 0.06698729810778066
v 0.21650635094610968 2.09375 0.05801270189221932
v 0.12499999999999997 2.00224364905389 0.03349364905389032
v 0.12499999999999997 2.43525635094611 -0.03349364905389034
v 0.21650635094610965 2.34375 -0.05801270189221934
v 0.24999999999999997 2.21875 -0.06698729810778069
v 0.21650635094610968 2.09375 -0.05801270189221935
v 0.12499999999999997 2.00224364905389 -0.03349364905389034
v 0.09150635094610964 2.43525635094611 -0.09150635094610962
v 0.15849364905389032 2.34375 -0.15849364905389032
v 0.18301270189221933 2.21875 -0.1830127018922193
v 0.15849364905389035 2.09375 -0.15849364905389032
v 0.09150635094610964 2.00224364905389 -0.09150635094610962
v 0.03349364905389036 2.43525635094611 -0.12499999999999994
v 0.058012701892219375 2.34375 -0.21650635094610962
v 0.06698729810778074 2.21875 -0.24999999999999994
v 0.05801270189221938 2.09375 -0.21650635094610965
v 0.03349364905389036 2.00224364905389 -0.12499999999999994
v -0.033493649053890275 2.43525635094611 -0.12499999999999999
v -0.05801270189221923 2.34375 -0.21650635094610968
v -0.06698729810778056 2.21875 -0.25
v -0.058012701892219236 2.09375 -0.2165063509461097
v -0.033493649053890275 2.00224364905389 -0.12499999999999999
v -0.09150635094610962 2.43525635094611 -0.09150635094610965
v -0.15849364905389032 2.34375 -0.15849364905389035
v -0.1830127018922193 2.21875 -0.18301270189221935
v -0.15849364905389032 2.09375 -0.15849364905389038
v -0.09150635094610962 2.00224364905389 -0.09150635094610965
v -0.12499999999999997 2.43525635094611 -0.03349364905389031
v -0.21650635094610965 2.34375 -0.05801270189221929
v -0.24999999999999997 2.21875 -0.06698729810778063
v -0.21650635094610968 2.09375 -0.0580127018922193
v -0.12499999999999997 2.00224364905389 -0.03349364905389031
v -0.12499999999999999 2.43525635094611 0.03349364905389027
v -0.21650635094610968 2.34375 0.058012701892219215
v -0.25 2.21875 0.06698729810778055
v -0.2165063509461097 2.09375 0.05801270189221922
v -0.12499999999999999 2.00224364905389 0.03349364905389027
v -0.09150635094610965 2.43525635094611 0.09150635094610961
v -0.15849364905389035 2.34375 0.1584936490538903
v -0.18301270189221935 2.21875 0.18301270189221927
v -0.15849364905389038 2.09375 0.1584936490538903
v -0.09150635094610965 2.00224364905389 0.09150635094610961
v -0.033493649053890316 2.43525635094611 0.12499999999999997
v -0.0580127018922193 2.34375 0.21650635094610965
v -0.06698729810778065 2.21875 0.24999999999999997
v -0.058012701892219305 2.09375 0.21650635094610968
v -0.033493649053890316 2.00224364905389 0.12499999999999997
vt 0.22801632112805265 0.9346067203288857
vt 0.24360257123879625 0.9407326186100335
vt 0.22397488284983166 0.9677805945294575
vt 0.22801632112805265 0.9346067203288857
vt 0.23414600862805263 0.9022535953288857
vt 0.26114201040598173 0.9128638934900378
vt 0.24360257123879625 0.9407326186100335
vt 0.35741953971971885 0.757142065194059
vt 0.35073125 0.7254083939290883
vt 0.38390435356263675 0.7207849223886678
vt 0.38614810356263674 0.7531380473886677
vt 0.35073125 0.7254083939290883
vt 0.3484875 0.6930552689290883
vt 0.37721606384291795 0.689051251123697
vt 0.38390435356263675 0.7207849223886678
vt 0.3484875 0.6930552689290883
vt 0.35009248617094035 0.6601657297790124
vt 0.36667903795225876 0.6578539940088022
vt 0.37721606384291795 0.689051251123697
vt 0.4927441585612251 0.8521907197800389
vt 0.47809999999999997 0.8603151546711142
vt 0.4697265625 0.8279620296711142
vt 0.24360257123879625 0.9407326186100335
vt 0.2558678185021624 0.952135317055319
vt 0.22770643260064544 0.9701290797784926
vt 0.24360257123879625 0.9407326186100335
vt 0.26114201040598173 0.9128638934900378
vt 0.2823859038746447 0.9326138182836821
vt 0.2558678185021624 0.952135317055319
vt 0.37557064643736326 0.9875130473886677
vt 0.37781439643736325 0.9551599223886678
vt 0.4109875 0.9597833939290883
vt 0.40429921028028115 0.991517065194059
vt 0.37781439643736325 0.9551599223886678
vt 0.3845026861570821 0.923426251123697
vt 0.41323125 0.9274302689290882
vt 0.4109875 0.9597833939290883
vt 0.516949360395752 0.8745157275126938
vt 0.4927441585612251 0.8521907197800389
vt 0.5016081966379995 0.837982037531529
vt 0.5323022250026973 0.8499057277682137
vt 0.5016081966379995 0.837982037531529
vt 0.4927441585612251 0.8521907197800389
vt 0.4697265625 0.8279620296711142
vt 0.2558678185021624 0.952135317055319
vt 0.2610612497910494 0.9680565636683589
vt 0.22770643260064544 0.9701290797784926
vt 0.1469 0.46875
vt 0.1407703125 0.435546875
vt 0.1697765625 0.435546875
vt 0.163646875 0.46875
vt 0.4232687175903253 0.9994484373052668
vt 0.41226394644658054 0.9689418130508213
vt 0.44448125 0.9597833939290883
vt 0.45116953971971885 0.991517065194059
vt 0.4109875 0.9597833939290883
vt 0.41323125 0.9274302689290882
vt 0.4422375 0.9274302689290882
vt 0.44448125 0.9597833939290883
vt 0.4140352958771463 0.9206480700470593
vt 0.42755983028919364 0.890625
vt 0.44384248617094035 0.8945407297790124
vt 0.4422375 0.9274302689290883
vt 0.5024661994160119 0.8212571562614408
vt 0.5016081966379995 0.837982037531529
vt 0.4697265625 0.8279620296711142
vt 0.2610612497910494 0.9680565636683589
vt 0.25787870378045896 0.9844982552831563
vt 0.22770643260064544 0.9701290797784926
vt 0.4335016276258903 0.765625
vt 0.40698354225340794 0.746103501228363
vt 0.4282274357220709 0.7263535764347189
vt 0.44576687488925637 0.7542223015547146
vt 0.45116953971971885 0.991517065194059
vt 0.44448125 0.9597833939290883
vt 0.47765435356263675 0.9551599223886678
vt 0.47989810356263674 0.9875130473886677
vt 0.44448125 0.9597833939290883
vt 0.4422375 0.9274302689290882
vt 0.47096606384291795 0.923426251123697
vt 0.47765435356263675 0.9551599223886678
vt 0.4422375 0.9274302689290882
vt 0.44384248617094035 0.8945407297790124
vt 0.46042903795225876 0.8922289940088022
vt 0.47096606384291795 0.923426251123697
vt 0.49510270740854107 0.8062159858375164
vt 0.5024661994160119 0.8212571562614408
vt 0.4697265625 0.8279620296711142
vt 0.240060256922132 0.9934167918761018
vt 0.224661581879679 1
vt 0.21964288362805265 0.9669598453288857
vt 0.44576687488925637 0.7542223015547146
vt 0.4282274357220709 0.7263535764347189
vt 0.4552234375 0.7157432782735668
vt 0.46135312500000003 0.7480964032735667
vt 0.28182064643736326 0.6281380473886677
vt 0.28406439643736325 0.5957849223886678
vt 0.3172375 0.6004083939290883
vt 0.31054921028028115 0.632142065194059
vt 0.28406439643736325 0.5957849223886678
vt 0.2907526861570821 0.564051251123697
vt 0.31948125 0.5680552689290883
vt 0.3172375 0.6004083939290883
vt 0.2907526861570821 0.564051251123697
vt 0.3012897120477413 0.5328539940088022
vt 0.31787626382905965 0.5351657297790124
vt 0.31948125 0.5680552689290883
vt 0.48136682209761245 0.796635626919885
vt 0.49510270740854107 0.8062159858375164
vt 0.4697265625 0.8279620296711143
vt 0.224661581879679 1
vt 0.2080026240304402 0.998286248080115
vt 0.21964288362805262 0.9669598453288857
vt 0.46135312500000003 0.7480964032735667
vt 0.4552234375 0.7157432782735668
vt 0.4842296875 0.7157432782735668
vt 0.47809999999999997 0.7480964032735667
vt 0.3295187175903253 0.6400734373052668
vt 0.31851394644658054 0.6095668130508212
vt 0.35073125 0.6004083939290883
vt 0.35741953971971885 0.632142065194059
vt 0.3172375 0.6004083939290883
vt 0.31948125 0.5680552689290883
vt 0.3484875 0.5680552689290883
vt 0.35073125 0.6004083939290883
vt 0.3202852958771463 0.5612730700470593
vt 0.33380983028919364 0.53125
vt 0.35009248617094035 0.5351657297790124
vt 0.3484875 0.5680552689290883
vt 0.4647078642483736 0.794921875
vt 0.48136682209761245 0.796635626919885
vt 0.4697265625 0.8279620296711143
vt 0.2080026240304402 0.998286248080115
vt 0.19426673871951156 0.9887058891624836
vt 0.21964288362805262 0.9669598453288857
vt 0.47809999999999997 0.7480964032735667
vt 0.4842296875 0.7157432782735668
vt 0.5112256892779291 0.7263535764347189
vt 0.49368625011074363 0.7542223015547146
vt 0.35741953971971885 0.632142065194059
vt 0.35073125 0.6004083939290883
vt 0.38390435356263675 0.5957849223886678
vt 0.38614810356263674 0.6281380473886677
vt 0.35073125 0.6004083939290883
vt 0.3484875 0.5680552689290883
vt 0.37721606384291795 0.564051251123697
vt 0.38390435356263675 0.5957849223886678
vt 0.3484875 0.5680552689290883
vt 0.35009248617094035 0.5351657297790124
vt 0.36667903795225876 0.5328539940088022
vt 0.37721606384291795 0.564051251123697
vt 0.44435041759145893 0.8062159858375164
vt 0.45808630290238755 0.796635626919885
vt 0.4697265625 0.8279620296711143
vt 0.19426673871951156 0.9887058891624836
vt 0.18690324671204078 0.9736647187385591
vt 0.21964288362805265 0.9669598453288857
vt 0.49368625011074363 0.7542223015547146
vt 0.5112256892779291 0.7263535764347189
vt 0.5324695827465921 0.746103501228363
vt 0.5059514973741097 0.765625
vt 0.28182064643736326 0.8781380473886677
vt 0.28406439643736325 0.8457849223886678
vt 0.3172375 0.8504083939290883
vt 0.31054921028028115 0.882142065194059
vt 0.28406439643736325 0.8457849223886678
vt 0.2907526861570821 0.814051251123697
vt 0.31948125 0.8180552689290883
vt 0.3172375 0.8504083939290883
vt 0.2907526861570821 0.814051251123697
vt 0.3012897120477413 0.7828539940088022
vt 0.31787626382905965 0.7851657297790124
vt 0.31948125 0.8180552689290883
vt 0.43698692558398816 0.8212571562614408
vt 0.44435041759145893 0.8062159858375164
vt 0.4697265625 0.8279620296711142
vt 0.18690324671204078 0.9736647187385591
vt 0.18776124949005313 0.9569398374684709
vt 0.21964288362805265 0.9669598453288857
vt 0.193775 0.46875
vt 0.1876453125 0.435546875
vt 0.2166515625 0.435546875
vt 0.210521875 0.46875
vt 0.3295187175903253 0.8900734373052668
vt 0.31851394644658054 0.8595668130508213
vt 0.35073125 0.8504083939290883
vt 0.35741953971971885 0.882142065194059
vt 0.3172375 0.8504083939290883
vt 0.31948125 0.8180552689290883
vt 0.3484875 0.8180552689290883
vt 0.35073125 0.8504083939290883
vt 0.31948125 0.8180552689290883
vt 0.31787626382905965 0.7851657297790124
vt 0.33415891971080636 0.78125
vt 0.3476834541228537 0.8112730700470593
vt 0.4378449283620005 0.837982037531529
vt 0.43698692558398816 0.8212571562614408
vt 0.4697265625 0.8279620296711142
vt 0.18776124949005313 0.9569398374684709
vt 0.1966252875668275 0.9427311552199611
vt 0.21964288362805265 0.9669598453288858
vt 0.18776124949005313 0.9569398374684709
vt 0.15706722112535534 0.9450161472317862
vt 0.17242008573230064 0.9204061474873062
vt 0.1966252875668275 0.9427311552199611
vt 0.35741953971971885 0.882142065194059
vt 0.35073125 0.8504083939290883
vt 0.38390435356263675 0.8457849223886678
vt 0.38614810356263674 0.8781380473886677
vt 0.35073125 0.8504083939290883
vt 0.3484875 0.8180552689290883
vt 0.37721606384291795 0.814051251123697
vt 0.38390435356263675 0.8457849223886678
vt 0.4071508999973027 0.8499057277682137
vt 0.4378449283620005 0.837982037531529
vt 0.4467089664387749 0.8521907197800389
vt 0.422503764604248 0.8745157275126938
vt 0.4467089664387749 0.8521907197800389
vt 0.4378449283620005 0.837982037531529
vt 0.4697265625 0.8279620296711142
vt 0.1966252875668275 0.9427311552199611
vt 0.21126944612805265 0.9346067203288857
vt 0.21964288362805262 0.9669598453288858
vt 0.1966252875668275 0.9427311552199611
vt 0.1755697190941375 0.9174139515354081
vt 0.20093398103951754 0.903342108904514
vt 0.21126944612805265 0.9346067203288857
vt 0.28182064643736326 0.7531380473886677
vt 0.28406439643736325 0.7207849223886678
vt 0.3172375 0.7254083939290883
vt 0.31054921028028115 0.757142065194059
vt 0.28406439643736325 0.7207849223886678
vt 0.2907526861570821 0.689051251123697
vt 0.31948125 0.6930552689290883
vt 0.3172375 0.7254083939290883
vt 0.2907526861570821 0.689051251123697
vt 0.3012897120477413 0.6578539940088022
vt 0.31787626382905965 0.6601657297790124
vt 0.31948125 0.6930552689290883
vt 0.46135312500000003 0.8603151546711142
vt 0.4467089664387749 0.8521907197800389
vt 0.4697265625 0.8279620296711142
vt 0.21126944612805265 0.9346067203288857
vt 0.22801632112805265 0.9346067203288857
vt 0.21964288362805262 0.9669598453288858
vt 0.21126944612805265 0.9346067203288857
vt 0.20513975862805264 0.9022535953288857
vt 0.23414600862805263 0.9022535953288857
vt 0.22801632112805265 0.9346067203288857
vt 0.3295187175903253 0.7650734373052668
vt 0.31851394644658054 0.7345668130508212
vt 0.35073125 0.7254083939290883
vt 0.35741953971971885 0.757142065194059
vt 0.3172375 0.7254083939290883
vt 0.31948125 0.6930552689290883
vt 0.3484875 0.6930552689290883
vt 0.35073125 0.7254083939290883
vt 0.3202852958771463 0.6862730700470593
vt 0.33380983028919364 0.65625
vt 0.35009248617094035 0.6601657297790124
vt 0.3484875 0.6930552689290883
vt 0.47809999999999997 0.8603151546711142
vt 0.46135312500000003 0.8603151546711142
vt 0.4697265625 0.8279620296711142
vn 0.12940952255126043 0.9659258262890683 0.22414386804201333
vn 0.35355339059327373 0.7071067811865477 0.6123724356957945
vn 0.48296291314453405 0.2588190451025207 0.836516303737808
vn 0.48296291314453427 -0.2588190451025205 0.8365163037378079
vn 0.3535533905932741 -0.7071067811865475 0.6123724356957946
vn 0.12940952255126043 -0.9659258262890683 0.22414386804201333
vn 0.22414386804201336 0.9659258262890683 0.12940952255126045
vn 0.6123724356957944 0.7071067811865478 0.3535533905932736
vn 0.8365163037378079 0.2588190451025208 0.48296291314453405
vn 0.8365163037378078 -0.25881904510252074 0.48296291314453427
vn 0.6123724356957945 -0.7071067811865475 0.353553390593274
vn 0.22414386804201336 -0.9659258262890683 0.12940952255126045
vn 0.2588190451025207 0.9659258262890683 0
vn 0.7071067811865475 0.7071067811865476 0
vn 0.9659258262890683 0.25881904510252063 0
vn 0.9659258262890683 -0.2588190451025205 0
vn 0.7071067811865476 -0.7071067811865475 0
vn 0.2588190451025207 -0.9659258262890683 0
vn 0.22414386804201333 0.9659258262890683 -0.12940952255126045
vn 0.6123724356957944 0.7071067811865477 -0.3535533905932738
vn 0.836516303737808 0.25881904510252063 -0.48296291314453416
vn 0.8365163037378078 -0.2588190451025205 -0.4829629131445344
vn 0.6123724356957945 -0.7071067811865474 -0.3535533905932741
vn 0.22414386804201333 -0.9659258262890683 -0.12940952255126045
vn 0.1294095225512604 0.9659258262890683 -0.22414386804201333
vn 0.35355339059327373 0.7071067811865477 -0.6123724356957944
vn 0.48296291314453427 0.2588190451025208 -0.836516303737808
vn 0.4829629131445343 -0.2588190451025208 -0.8365163037378078
vn 0.3535533905932739 -0.7071067811865475 -0.6123724356957947
vn 0.1294095225512604 -0.9659258262890683 -0.22414386804201333
vn 1.608589638639305e-16 0.9659258262890683 -0.2588190451025207
vn 3.466028960407396e-16 0.7071067811865477 -0.7071067811865475
vn 4.0022255066204975e-16 0.2588190451025207 -0.9659258262890683
vn 4.621371947209864e-16 -0.25881904510252063 -0.9659258262890684
vn 4.0022255066204975e-16 -0.7071067811865476 -0.7071067811865476
vn 1.6085896386393055e-16 -0.9659258262890683 -0.25881904510252074
vn -0.12940952255126034 0.9659258262890683 -0.2241438680420134
vn -0.3535533905932735 0.7071067811865477 -0.6123724356957946
vn -0.48296291314453377 0.25881904510252063 -0.8365163037378082
vn -0.482962913144534 -0.25881904510252046 -0.836516303737808
vn -0.3535533905932737 -0.7071067811865474 -0.6123724356957947
vn -0.12940952255126034 -0.9659258262890683 -0.2241438680420134
vn -0.22414386804201336 0.9659258262890683 -0.1294095225512604
vn -0.6123724356957945 0.7071067811865477 -0.3535533905932735
vn -0.836516303737808 0.25881904510252074 -0.4829629131445339
vn -0.8365163037378078 -0.25881904510252074 -0.48296291314453416
vn -0.6123724356957946 -0.7071067811865476 -0.3535533905932739
vn -0.22414386804201336 -0.9659258262890683 -0.1294095225512604
vn -0.2588190451025207 0.9659258262890683 -5.361965462131021e-17
vn -0.7071067811865474 0.7071067811865477 -2.310685973604933e-16
vn -0.9659258262890683 0.2588190451025207 -2.0011127533102507e-16
vn -0.9659258262890684 -0.2588190451025206 -2.3106859736049333e-16
vn -0.7071067811865477 -0.7071067811865474 -2.00111275331025e-16
vn -0.2588190451025207 -0.9659258262890683 -5.361965462131021e-17
vn -0.22414386804201336 0.9659258262890683 0.12940952255126034
vn -0.6123724356957946 0.7071067811865477 0.3535533905932736
vn -0.8365163037378082 0.25881904510252063 0.48296291314453377
vn -0.836516303737808 -0.2588190451025205 0.48296291314453405
vn -0.6123724356957948 -0.7071067811865475 0.3535533905932738
vn -0.22414386804201336 -0.9659258262890683 0.12940952255126034
vn -0.12940952255126045 0.9659258262890683 0.22414386804201333
vn -0.3535533905932738 0.7071067811865477 0.6123724356957944
vn -0.4829629131445341 0.2588190451025208 0.8365163037378079
vn -0.48296291314453443 -0.25881904510252085 0.8365163037378079
vn -0.353553390593274 -0.7071067811865475 0.6123724356957946
vn -0.12940952255126045 -0.9659258262890683 0.22414386804201333
vn 0 0.9659258262890683 0.2588190451025207
vn 0 0.7071067811865477 0.7071067811865475
vn 0 0.25881904510252063 0.9659258262890683
vn 0 -0.2588190451025205 0.9659258262890683
vn 0 -0.7071067811865474 0.7071067811865477
vn 0 -0.9659258262890683 0.2588190451025207
usemtl m_7d477fe7-c1e3-2c16-0caa-429ca962fca8
f 109/401/107 114/402/107 108/403/107
f 109/404/108 110/405/108 115/406/108 114/407/108
f 110/408/109 111/409/109 116/410/109 115/411/109
f 111/412/110 112/413/110 117/414/110 116/415/110
f 112/416/111 113/417/111 118/418/111 117/419/111
f 118/420/112 113/421/112 107/422/112
f 114/423/113 119/424/113 108/425/113
f 114/426/114 115/427/114 120/428/114 119/429/114
f 115/430/115 116/431/115 121/432/115 120/433/115
f 116/434/116 117/435/116 122/436/116 121/437/116
f 117/438/117 118/439/117 123/440/117 122/441/117
f 123/442/118 118/443/118 107/444/118
f 119/445/119 124/446/119 108/447/119
f 119/448/120 120/449/120 125/450/120 124/451/120
f 120/452/121 121/453/121 126/454/121 125/455/121
f 121/456/122 122/457/122 127/458/122 126/459/122
f 122/460/123 123/461/123 128/462/123 127/463/123
f 128/464/124 123/465/124 107/466/124
f 124/467/125 129/468/125 108/469/125
f 124/470/126 125/471/126 130/472/126 129/473/126
f 125/474/127 126/475/127 131/476/127 130/477/127
f 126/478/128 127/479/128 132/480/128 131/481/128
f 127/482/129 128/483/129 133/484/129 132/485/129
f 133/486/130 128/487/130 107/488/130
f 129/489/131 134/490/131 108/491/131
f 129/492/132 130/493/132 135/494/132 134/495/132
f 130/496/133 131/497/133 136/498/133 135/499/133
f 131/500/134 132/501/134 137/502/134 136/503/134
f 132/504/135 133/505/135 138/506/135 137/507/135
f 138/508/136 133/509/136 107/510/136
f 134/511/137 139/512/137 108/513/137
f 134/514/138 135/515/138 140/516/138 139/517/138
f 135/518/139 136/519/139 141/520/139 140/521/139
f 136/522/140 137/523/140 142/524/140 141/525/140
f 137/526/141 138/527/141 143/528/141 142/529/141
f 143/530/142 138/531/142 107/532/142
f 139/533/143 144/534/143 108/535/143
f 139/536/144 140/537/144 145/538/144 144/539/144
f 140/540/145 141/541/145 146/542/145 145/543/145
f 141/544/146 142/545/146 147/546/146 146/547/146
f 142/548/147 143/549/147 148/550/147 147/551/147
f 148/552/148 143/553/148 107/554/148
f 144/555/149 149/556/149 108/557/149
f 144/558/150 145/559/150 150/560/150 149/561/150
f 145/562/151 146/563/151 151/564/151 150/565/151
f 146/566/152 147/567/152 152/568/152 151/569/152
f 147/570/153 148/571/153 153/572/153 152/573/153
f 153/574/154 148/575/154 107/576/154
f 149/577/155 154/578/155 108/579/155
f 149/580/156 150/581/156 155/582/156 154/583/156
f 150/584/157 151/585/157 156/586/157 155/587/157
f 151/588/158 152/589/158 157/590/158 156/591/158
f 152/592/159 153/593/159 158/594/159 157/595/159
f 158/596/160 153/597/160 107/598/160
f 154/599/161 159/600/161 108/601/161
f 154/602/162 155/603/162 160/604/162 159/605/162
f 155/606/163 156/607/163 161/608/163 160/609/163
f 156/610/164 157/611/164 162/612/164 161/613/164
f 157/614/165 158/615/165 163/616/165 162/617/165
f 163/618/166 158/619/166 107/620/166
f 159/621/167 164/622/167 108/623/167
f 159/624/168 160/625/168 165/626/168 164/627/168
f 160/628/169 161/629/169 166/630/169 165/631/169
f 161/632/170 162/633/170 167/634/170 166/635/170
f 162/636/171 163/637/171 168/638/171 167/639/171
f 168/640/172 163/641/172 107/642/172
f 164/643/173 109/644/173 108/645/173
f 164/646/174 165/647/174 110/648/174 109/649/174
f 165/650/175 166/651/175 111/652/175 110/653/175
f 166/654/176 167/655/176 112/656/176 111/657/176
f 167/658/177 168/659/177 113/660/177 112/661/177
f 113/662/178 168/663/178 107/664/178
o cylinder
v 0 2.2109374999999996 0
v 0 2.2265624999999996 0
v 0.0690806511736488 2.2109374999999996 0.2578125
v 0.0690806511736488 2.2265624999999996 0.2578125
v 0.18873184882635113 2.2109374999999996 0.18873184882635116
v 0.18873184882635113 2.2265624999999996 0.18873184882635116
v 0.2578125 2.2109374999999996 0.0690806511736488
v 0.2578125 2.2265624999999996 0.0690806511736488
v 0.2578125 2.2109374999999996 -0.06908065117364885
v 0.2578125 2.2265624999999996 -0.06908065117364885
v 0.18873184882635116 2.2109374999999996 -0.18873184882635113
v 0.18873184882635116 2.2265624999999996 -0.18873184882635113
v 0.0690806511736489 2.2109374999999996 -0.25781249999999994
v 0.0690806511736489 2.2265624999999996 -0.25781249999999994
v -0.0690806511736487 2.2109374999999996 -0.2578125
v -0.0690806511736487 2.2265624999999996 -0.2578125
v -0.18873184882635113 2.2109374999999996 -0.1887318488263512
v -0.18873184882635113 2.2265624999999996 -0.1887318488263512
v -0.2578125 2.2109374999999996 -0.06908065117364877
v -0.2578125 2.2265624999999996 -0.06908065117364877
v -0.2578125 2.2109374999999996 0.06908065117364869
v -0.2578125 2.2265624999999996 0.06908065117364869
v -0.1887318488263512 2.2109374999999996 0.1887318488263511
v -0.1887318488263512 2.2265624999999996 0.1887318488263511
v -0.06908065117364878 2.2109374999999996 0.2578125
v -0.06908065117364878 2.2265624999999996 0.2578125
vt 0.1116359375 0.9827296875
vt 0.0817234375 1
vt 0.064453125 0.935546875
vt 0.6325046875 0.85546875
vt 0.6670453125 0.85546875
vt 0.6670453125 0.859375
vt 0.6325046875 0.859375
vt 0.2067234375 0.74609375
vt 0.2366359375 0.7633640625
vt 0.189453125 0.810546875
vt 0.12890625 0.9528171875
vt 0.1116359375 0.9827296875
vt 0.064453125 0.935546875
vt 0.5634234375 0.91796875
vt 0.5979640625 0.91796875
vt 0.5979640625 0.921875
vt 0.5634234375 0.921875
vt 0.2366359375 0.7633640625
vt 0.25390625 0.7932765625
vt 0.189453125 0.810546875
vt 0.12890625 0.9182765625
vt 0.12890625 0.9528171875
vt 0.064453125 0.935546875
vt 0.5979640625 0.91796875
vt 0.6325046875 0.91796875
vt 0.6325046875 0.921875
vt 0.5979640625 0.921875
vt 0.25390625 0.7932765625
vt 0.25390625 0.8278171875
vt 0.189453125 0.810546875
vt 0.1116359375 0.8883640625
vt 0.12890625 0.9182765625
vt 0.064453125 0.935546875
vt 0.6325046875 0.91796875
vt 0.6670453125 0.91796875
vt 0.6670453125 0.921875
vt 0.6325046875 0.921875
vt 0.25390625 0.8278171875
vt 0.2366359375 0.8577296875
vt 0.189453125 0.810546875
vt 0.0817234375 0.87109375
vt 0.1116359375 0.8883640625
vt 0.064453125 0.935546875
vt 0.5634234375 0.76171875
vt 0.5979640625 0.76171875
vt 0.5979640625 0.765625
vt 0.5634234375 0.765625
vt 0.2366359375 0.8577296875
vt 0.2067234375 0.875
vt 0.189453125 0.810546875
vt 0.047182812500000004 0.87109375
vt 0.0817234375 0.87109375
vt 0.064453125 0.935546875
vt 0.5979640625 0.76171875
vt 0.6325046875 0.76171875
vt 0.6325046875 0.765625
vt 0.5979640625 0.765625
vt 0.2067234375 0.875
vt 0.1721828125 0.875
vt 0.189453125 0.810546875
vt 0.017270312500000003 0.8883640625
vt 0.047182812500000004 0.87109375
vt 0.064453125 0.935546875
vt 0.6325046875 0.76171875
vt 0.6670453125 0.76171875
vt 0.6670453125 0.765625
vt 0.6325046875 0.765625
vt 0.1721828125 0.875
vt 0.1422703125 0.8577296875
vt 0.189453125 0.810546875
vt 0 0.9182765625
vt 0.017270312500000003 0.8883640625
vt 0.064453125 0.935546875
vt 0.5634234375 0.88671875
vt 0.5979640625 0.88671875
vt 0.5979640625 0.890625
vt 0.5634234375 0.890625
vt 0.1422703125 0.8577296875
vt 0.125 0.8278171875
vt 0.189453125 0.810546875
vt 0 0.9528171875
vt 0 0.9182765625
vt 0.064453125 0.935546875
vt 0.5979640625 0.88671875
vt 0.6325046875 0.88671875
vt 0.6325046875 0.890625
vt 0.5979640625 0.890625
vt 0.125 0.8278171875
vt 0.125 0.7932765625
vt 0.189453125 0.810546875
vt 0.017270312500000003 0.9827296875
vt 0 0.9528171875
vt 0.064453125 0.935546875
vt 0.6325046875 0.88671875
vt 0.6670453125 0.88671875
vt 0.6670453125 0.890625
vt 0.6325046875 0.890625
vt 0.125 0.7932765625
vt 0.1422703125 0.7633640625
vt 0.189453125 0.810546875
vt 0.047182812500000004 1
vt 0.017270312500000003 0.9827296875
vt 0.064453125 0.935546875
vt 0.5634234375 0.85546875
vt 0.5979640625 0.85546875
vt 0.5979640625 0.859375
vt 0.5634234375 0.859375
vt 0.1422703125 0.7633640625
vt 0.1721828125 0.74609375
vt 0.189453125 0.810546875
vt 0.0817234375 1
vt 0.047182812500000004 1
vt 0.064453125 0.935546875
vt 0.5979640625 0.85546875
vt 0.6325046875 0.85546875
vt 0.6325046875 0.859375
vt 0.5979640625 0.859375
vt 0.1721828125 0.74609375
vt 0.2067234375 0.74609375
vt 0.189453125 0.810546875
vn 0 -1 0
vn 0.5000000000000002 0 0.8660254037844387
vn 0 1 0
vn 0 -1 0
vn 0.8660254037844387 0 0.5000000000000003
vn 0 1 0
vn 0 -1 0
vn 1 0 0
vn 0 1 0
vn 0 -1 0
vn 0.8660254037844385 0 -0.5000000000000003
vn 0 1 0
vn 0 -1 0
vn 0.5000000000000003 0 -0.8660254037844387
vn 0 1 0
vn 0 -1 0
vn 4.0178508951601245e-16 0 -1
vn 0 1 0
vn 0 -1 0
vn -0.4999999999999997 0 -0.8660254037844388
vn 0 1 0
vn 0 -1 0
vn -0.8660254037844388 0 -0.5000000000000001
vn 0 1 0
vn 0 -1 0
vn -1 0 0
vn 0 1 0
vn 0 -1 0
vn -0.8660254037844389 0 0.49999999999999983
vn 0 1 0
vn 0 -1 0
vn -0.5000000000000003 0 0.8660254037844387
vn 0 1 0
vn 0 -1 0
vn 0 0 1
vn 0 1 0
usemtl m_7d477fe7-c1e3-2c16-0caa-429ca962fca8
f 173/665/179 171/666/179 169/667/179
f 171/668/180 173/669/180 174/670/180 172/671/180
f 172/672/181 174/673/181 170/674/181
f 175/675/182 173/676/182 169/677/182
f 173/678/183 175/679/183 176/680/183 174/681/183
f 174/682/184 176/683/184 170/684/184
f 177/685/185 175/686/185 169/687/185
f 175/688/186 177/689/186 178/690/186 176/691/186
f 176/692/187 178/693/187 170/694/187
f 179/695/188 177/696/188 169/697/188
f 177/698/189 179/699/189 180/700/189 178/701/189
f 178/702/190 180/703/190 170/704/190
f 181/705/191 179/706/191 169/707/191
f 179/708/192 181/709/192 182/710/192 180/711/192
f 180/712/193 182/713/193 170/714/193
f 183/715/194 181/716/194 169/717/194
f 181/718/195 183/719/195 184/720/195 182/721/195
f 182/722/196 184/723/196 170/724/196
f 185/725/197 183/726/197 169/727/197
f 183/728/198 185/729/198 186/730/198 184/731/198
f 184/732/199 186/733/199 170/734/199
f 187/735/200 185/736/200 169/737/200
f 185/738/201 187/739/201 188/740/201 186/741/201
f 186/742/202 188/743/202 170/744/202
f 189/745/203 187/746/203 169/747/203
f 187/748/204 189/749/204 190/750/204 188/751/204
f 188/752/205 190/753/205 170/754/205
f 191/755/206 189/756/206 169/757/206
f 189/758/207 191/759/207 192/760/207 190/761/207
f 190/762/208 192/763/208 170/764/208
f 193/765/209 191/766/209 169/767/209
f 191/768/210 193/769/210 194/770/210 192/771/210
f 192/772/211 194/773/211 170/774/211
f 171/775/212 193/776/212 169/777/212
f 193/778/213 171/779/213 172/780/213 194/781/213
f 194/782/214 172/783/214 170/784/214