# Made in Blockbench 5.1.6
mtllib nyc_subway_entrance_2_roof_5.mtl

o cube
v -0.5 0 -0.5
v 0.125 0 -0.5
v 0.125 0.5 -0.5
v -0.5 0.5 -0.5
v -0.5 0 0.5
v -0.5 0.5 0.5
v 0.125 0 0.5
v 0.125 0.5 0.5
vt 0.6875 1
vt 0.6875 0.5
vt 0.0625 0.5
vt 0.0625 1
vt 1 1
vt 1 0.5
vt 0 0.5
vt 0 1
vt 0.625 1
vt 0.625 0.5
vt 0 0.5
vt 0 1
vt 1 1
vt 1 0.5
vt 0 0.5
vt 0 1
vt 0.625 1
vt 0.625 0
vt 0 0
vt 0 1
vt 0.625 1
vt 0.625 0
vt 0 0
vt 0 1
vn 0 0 -1
vn -1 0 0
vn 0 0 1
vn 1 0 0
vn 0 1 0
vn 0 -1 0
usemtl m_7c91a9bb-2570-39d9-9b57-b27d16b96afa
f 3/1/1 2/2/1 1/3/1 4/4/1
f 4/5/2 1/6/2 5/7/2 6/8/2
f 6/9/3 5/10/3 7/11/3 8/12/3
f 8/13/4 7/14/4 2/15/4 3/16/4
f 4/17/5 6/18/5 8/19/5 3/20/5
f 5/21/6 1/22/6 2/23/6 7/24/6