# Made in Blockbench 5.1.6
mtllib nyc_subway_led_pids.mtl

o main
v 0.3743159725180114 0.7235877551174521 0.553125
v 0.3743159725180114 0.7329627551174521 -0.5
v 0.19851875 -0.050902750667493744 0.553125
v 0.19851980469664607 -0.06029127814400739 -0.5
v -0.37430291598251486 0.7228978538609252 0.5531249999999999
v -0.37430291598251497 0.732272853860925 -0.5000000000000001
v -0.19851875 -0.0509 0.553125
v -0.19851875 -0.06096765192402072 -0.5
v 0.3540247587113142 0.6414350044499584 0.5625
v 0.3540317993078539 0.6414334435872837 -0.5
v -0.3540117021758178 0.6407451031934313 -0.5000000000000001
v -0.3540117021758177 0.6407451031934315 0.5624999999999999
v 0.21874999999999997 0.031250000000000014 0.5625
v 0.21880397790680362 0.031238033386161004 -0.5
v -0.21873694346450304 0.030560098743473013 -0.5
v -0.21873694346450293 0.030560098743473166 0.5625
v 0.35402827900958406 0.641434224018621 0.46875
v 0.3743159725180114 0.7329627551174521 0.46875
v -0.3743029159825149 0.7322728538609251 0.4687499999999999
v -0.35401170217581773 0.6407451031934314 0.4687499999999999
v -0.21873694346450298 0.03056009874347309 0.46875
v -0.19851875 -0.06096765192402064 0.46875
v 0.19848929544497446 -0.06028451440575057 0.46875
v 0.2187769889534018 0.03124401669308051 0.46875
v 0.21893920612788692 0.03184823059986874 -0.5
v 0.2189122406432096 0.031854208703897324 0.46875
v 0.21888336313558843 0.031860186807925794 0.5625
v -0.2188722186230352 0.031170285551399002 0.5625
v -0.21887221862303527 0.03117028555139889 0.46875
v -0.21887221862303533 0.03117028555139878 -0.5
v 0.35389657148685294 0.6408232481788879 -0.5
v 0.35389302771992803 0.6408240338131008 0.46875
v 0.3538893285288965 0.6408248194473137 0.5625
v -0.3538764274175066 0.6401349181907868 0.5624999999999999
v -0.35387642741750663 0.6401349181907867 0.4687499999999999
v -0.3538764274175067 0.6401349181907866 -0.5000000000000001
v 0.3540282555409289 0.6414342292214966 0.46937499999953775
v 0.3743159725180114 0.7329627551174521 0.46937499999953775
v -0.3743029159825149 0.7322728538609251 0.46937499999953763
v -0.35401170217581773 0.6407451031934314 0.46937499999953763
v -0.35387642741750663 0.6401349181907867 0.46937499999953763
v -0.21887221862303524 0.03117028555139889 0.46937499999953775
v -0.21873694346450298 0.03056009874347309 0.46937499999953775
v -0.19851875 -0.06096765192402064 0.46937499999953775
v 0.19851875 -0.060284469314162224 0.46937499999953775
v 0.21877680902704594 0.031244056581793276 0.46937499999953775
v 0.2189120608733119 0.03185424855792415 0.46937499999953775
v 0.3538930040948152 0.6408240390506622 0.46937499999953775
v 0.3743159725180114 0.7329627551174521 0.53125
v 0.35402593214407085 0.6414347443061793 0.53125
v 0.3538905619402786 0.6408245575692427 0.53125
v 0.2188929932489184 0.03185819410658297 0.53125
v 0.21875899631780057 0.03124800556436018 0.53125
v 0.19851875 -0.06028000524691269 0.53125
v -0.19851875 -0.0605074335315494 0.53125
v -0.21873694346450295 0.03056009874347314 0.53125
v -0.21887221862303521 0.031170285551398964 0.53125
v -0.3538764274175066 0.6401349181907868 0.5312499999999999
v -0.3540117021758177 0.6407451031934315 0.5312499999999999
v -0.37430291598251486 0.7322728538609252 0.5312499999999999
v 0.3675522345824457 0.7024535048949542 0.5625
v -0.36753917804694913 0.7017636036384273 0.5624999999999999
v -0.36753917804694913 0.7017636036384273 0.5312499999999999
v -0.3675391780469492 0.7017636036384272 0.46937499999953763
v -0.3675391780469492 0.7017636036384272 0.4687499999999999
v -0.36753917804694924 0.701763603638427 -0.5000000000000001
v 0.3675545814479589 0.702452984607396 -0.5
v 0.3675534080152023 0.7024532447511751 0.46875
v 0.36755340019231725 0.7024532464854669 0.46937499999953775
v 0.3675526257266979 0.7024534181803612 0.53125
v 0.20526063519248772 -0.029776936979417926 0.5625
v -0.20525628421746972 -0.030005006441679027 0.5625
v -0.20525628421746972 -0.030159983553847986 0.53125
v -0.20525628421746972 -0.03046683823594483 0.46937499999953775
v -0.20525628421746972 -0.03046683823594483 0.46875
v -0.20525628421746975 -0.030466838235944906 -0.5
v 0.2052793260810102 -0.029789944312245263 -0.5
v 0.2052499899376131 -0.029783440645831598 0.46875
v 0.20526956906372484 -0.029783397288055537 0.46937499999953775
v 0.20526363313585586 -0.029779104868222488 0.53125
vt 0.0078125 0.9861778846153846
vt 0.0078125 0.9849757953582812
vt 0.015625 0.9849757953582812
vt 0.015625 0.9861778846153846
vt 0 0.9861778846153846
vt 0 0.9849757953582812
vt 0.0078125 0.9849757953582812
vt 0.0078125 0.9861778846153846
vt 0 1
vt 0 0.9921875
vt 0.015625 0.9921875
vt 0.015625 1
vt 0.015625 0.984375
vt 0.015625 0.9921875
vt 0 0.9921875
vt 0 0.984375
vt 0 0.9861778846153846
vt 0 0.9849757953582812
vt 0.015625 0.9849757953582812
vt 0.015625 0.9861778846153846
vt 0 0.9861778846153846
vt 0 0.9849757953582812
vt 0.015625 0.9849757953582812
vt 0.015625 0.9861778846153846
vt 0.0078125 1
vt 0.0078125 0.9993990384615384
vt 0.015625 0.9993990384615384
vt 0.015625 1
vt 0 1
vt 0 0.9993990384615384
vt 0.015625 0.9993990384615384
vt 0.015625 1
vt 0 1
vt 0 0.9993990384615384
vt 0.0078125 0.9993990384615384
vt 0.0078125 1
vt 0 1
vt 0 0.9993990384615384
vt 0.015625 0.9993990384615384
vt 0.015625 1
vt 0.0078125 0.9981971153846154
vt 0.0078125 0.9981850961538817
vt 0.015625 0.9981850961538817
vt 0.015625 0.9981971153846154
vt 0 0.9981971153846154
vt 0 0.9981850961538817
vt 0.015625 0.9981850961538817
vt 0.015625 0.9981971153846154
vt 0 0.9981971153846154
vt 0 0.9981850961538817
vt 0.0078125 0.9981850961538817
vt 0.0078125 0.9981971153846154
vt 0 0.9981971153846154
vt 0 0.9981850961538817
vt 0.015625 0.9981850961538817
vt 0.015625 0.9981971153846154
vt 0.00776041666670519 1
vt 0.00776041666670519 0.9993990384615384
vt 0.0078125 0.9993990384615384
vt 0.0078125 1
vt 0 0.9921875
vt 0 0.9921354166667052
vt 0.015625 0.9921354166667052
vt 0.015625 0.9921875
vt 0.0078125 1
vt 0.0078125 0.9993990384615384
vt 0.00786458333329481 0.9993990384615384
vt 0.00786458333329481 1
vt 0.0078125 0.9981850961538817
vt 0.00786458333329481 0.9981850961538817
vt 0.00786458333329481 0.9981971153846154
vt 0.0078125 0.9981971153846154
vt 0.0078125 0.9861778846153846
vt 0.0078125 0.9849757953582812
vt 0.00786458333329481 0.9849757953582812
vt 0.00786458333329481 0.9861778846153846
vt 0.015625 0.9921875
vt 0.015625 0.9922395833332948
vt 0 0.9922395833332948
vt 0 0.9921875
vt 0.00776041666670519 0.9861778846153846
vt 0.00776041666670519 0.9849757953582812
vt 0.0078125 0.9849757953582812
vt 0.0078125 0.9861778846153846
vt 0.0078125 0.9981971153846154
vt 0.00776041666670519 0.9981971153846154
vt 0.00776041666670519 0.9981850961538817
vt 0.0078125 0.9981850961538817
vt 0.015625 0.9861778846153846
vt 0.015625 0.9861899038816782
vt 0.0078125 0.9861899038816782
vt 0.0078125 0.9861778846153846
vt 0.0078125 0.9861899038816782
vt 0.00776041666670519 0.9861899038816782
vt 0.00776041666670519 0.9861778846153846
vt 0.0078125 0.9861778846153846
vt 0.015625 0.9861778846153846
vt 0.015625 0.9861899038816782
vt 0 0.9861899038816782
vt 0 0.9861778846153846
vt 0.0078125 0.9861778846153846
vt 0.00786458333329481 0.9861778846153846
vt 0.00786458333329481 0.9861899038816782
vt 0.0078125 0.9861899038816782
vt 0.0078125 0.9861778846153846
vt 0.0078125 0.9861899038816782
vt 0 0.9861899038816782
vt 0 0.9861778846153846
vt 0.015625 0.9861778846153846
vt 0.015625 0.9861899038816782
vt 0 0.9861899038816782
vt 0 0.9861778846153846
vt 0.015625 0.9861899038816782
vt 0.015625 0.9981850961538817
vt 0.0078125 0.9981850961538817
vt 0.0078125 0.9861899038816782
vt 0.0078125 0.9981850961538817
vt 0.00776041666670519 0.9981850961538817
vt 0.00776041666670519 0.9861899038816782
vt 0.0078125 0.9861899038816782
vt 0.015625 0.9861899038816782
vt 0.015625 0.9981850961538817
vt 0 0.9981850961538817
vt 0 0.9861899038816782
vt 0.0078125 0.9861899038816782
vt 0.00786458333329481 0.9861899038816782
vt 0.00786458333329481 0.9981850961538817
vt 0.0078125 0.9981850961538817
vt 0.0078125 0.9861899038816782
vt 0.0078125 0.9981850961538817
vt 0 0.9981850961538817
vt 0 0.9861899038816782
vt 0.015625 0.9861899038816782
vt 0.015625 0.9981850961538817
vt 0 0.9981850961538817
vt 0 0.9861899038816782
vt 0 1
vt 0 0.9993990384615384
vt 0.0026041666666666674 0.9993990384615384
vt 0.0026041666666666674 1
vt 0.015625 0.984375
vt 0.015625 0.9869791666666666
vt 0 0.9869791666666666
vt 0 0.984375
vt 0.013020833333333332 1
vt 0.013020833333333332 0.9993990384615384
vt 0.015625 0.9993990384615384
vt 0.015625 1
vt 0.015625 0.9981971153846154
vt 0.013020833333333332 0.9981971153846154
vt 0.013020833333333332 0.9981850961538817
vt 0.015625 0.9981850961538817
vt 0.015625 0.9981850961538817
vt 0.013020833333333332 0.9981850961538817
vt 0.013020833333333332 0.9861899038816782
vt 0.015625 0.9861899038816782
vt 0.015625 0.9861899038816782
vt 0.013020833333333332 0.9861899038816782
vt 0.013020833333333332 0.9861778846153846
vt 0.015625 0.9861778846153846
vt 0.013020833333333332 0.9861778846153846
vt 0.013020833333333332 0.9849757953582812
vt 0.015625 0.9849757953582812
vt 0.015625 0.9861778846153846
vt 0 1
vt 0 0.9973958333333334
vt 0.015625 0.9973958333333334
vt 0.015625 1
vt 0 0.9861778846153846
vt 0 0.9849757953582812
vt 0.0026041666666666674 0.9849757953582812
vt 0.0026041666666666674 0.9861778846153846
vt 0 0.9861778846153846
vt 0.0026041666666666674 0.9861778846153846
vt 0.0026041666666666674 0.9861899038816782
vt 0 0.9861899038816782
vt 0 0.9861899038816782
vt 0.0026041666666666674 0.9861899038816782
vt 0.0026041666666666674 0.9981850961538817
vt 0 0.9981850961538817
vt 0 0.9981850961538817
vt 0.0026041666666666674 0.9981850961538817
vt 0.0026041666666666674 0.9981971153846154
vt 0 0.9981971153846154
vt 0.0026041666666666674 1
vt 0.0026041666666666674 0.9993990384615384
vt 0.00776041666670519 0.9993990384615384
vt 0.00776041666670519 1
vt 0.00776041666670519 0.9981971153846154
vt 0.0026041666666666674 0.9981971153846154
vt 0.0026041666666666674 0.9981850961538817
vt 0.00776041666670519 0.9981850961538817
vt 0.00776041666670519 0.9981850961538817
vt 0.0026041666666666674 0.9981850961538817
vt 0.0026041666666666674 0.9861899038816782
vt 0.00776041666670519 0.9861899038816782
vt 0.00776041666670519 0.9861899038816782
vt 0.0026041666666666674 0.9861899038816782
vt 0.0026041666666666674 0.9861778846153846
vt 0.00776041666670519 0.9861778846153846
vt 0.0026041666666666674 0.9861778846153846
vt 0.0026041666666666674 0.9849757953582812
vt 0.00776041666670519 0.9849757953582812
vt 0.00776041666670519 0.9861778846153846
vt 0.015625 0.9922395833332948
vt 0.015625 0.9973958333333334
vt 0 0.9973958333333334
vt 0 0.9922395833332948
vt 0.00786458333329481 0.9861778846153846
vt 0.00786458333329481 0.9849757953582812
vt 0.013020833333333332 0.9849757953582812
vt 0.013020833333333332 0.9861778846153846
vt 0.00786458333329481 0.9861778846153846
vt 0.013020833333333332 0.9861778846153846
vt 0.013020833333333332 0.9861899038816782
vt 0.00786458333329481 0.9861899038816782
vt 0.00786458333329481 0.9861899038816782
vt 0.013020833333333332 0.9861899038816782
vt 0.013020833333333332 0.9981850961538817
vt 0.00786458333329481 0.9981850961538817
vt 0.00786458333329481 0.9981850961538817
vt 0.013020833333333332 0.9981850961538817
vt 0.013020833333333332 0.9981971153846154
vt 0.00786458333329481 0.9981971153846154
vt 0.00786458333329481 1
vt 0.00786458333329481 0.9993990384615384
vt 0.013020833333333332 0.9993990384615384
vt 0.013020833333333332 1
vt 0 0.9921354166667052
vt 0 0.9869791666666666
vt 0.015625 0.9869791666666666
vt 0.015625 0.9921354166667052
vt 0.015625 0.9981971153846154
vt 0.015625 0.9993990384615384
vt 0 0.9993990384615384
vt 0 0.9981971153846154
vt 0.015625 0.9981971153846154
vt 0.015625 0.9993990384615384
vt 0.013020833333333332 0.9993990384615384
vt 0.013020833333333332 0.9981971153846154
vt 0.013020833333333332 0.9981971153846154
vt 0.013020833333333332 0.9993990384615384
vt 0.00786458333329481 0.9993990384615384
vt 0.00786458333329481 0.9981971153846154
vt 0.00786458333329481 0.9981971153846154
vt 0.00786458333329481 0.9993990384615384
vt 0.0078125 0.9993990384615384
vt 0.0078125 0.9981971153846154
vt 0.0078125 0.9981971153846154
vt 0.0078125 0.9993990384615384
vt 0 0.9993990384615384
vt 0 0.9981971153846154
vt 0.015625 0.9981971153846154
vt 0.015625 0.9993990384615384
vt 0 0.9993990384615384
vt 0 0.9981971153846154
vt 0.015625 0.9981971153846154
vt 0.015625 0.9993990384615384
vt 0.0078125 0.9993990384615384
vt 0.0078125 0.9981971153846154
vt 0.0078125 0.9981971153846154
vt 0.0078125 0.9993990384615384
vt 0.00776041666670519 0.9993990384615384
vt 0.00776041666670519 0.9981971153846154
vt 0.00776041666670519 0.9981971153846154
vt 0.00776041666670519 0.9993990384615384
vt 0.0026041666666666674 0.9993990384615384
vt 0.0026041666666666674 0.9981971153846154
vt 0.0026041666666666674 0.9981971153846154
vt 0.0026041666666666674 0.9993990384615384
vt 0 0.9993990384615384
vt 0 0.9981971153846154
vt 0.015625 0.984375
vt 0.015625 0.9849757953582812
vt 0 0.9849757953582812
vt 0 0.984375
vt 0.015625 0.984375
vt 0.015625 0.9849757953582812
vt 0.013020833333333332 0.9849757953582812
vt 0.013020833333333332 0.984375
vt 0.013020833333333332 0.984375
vt 0.013020833333333332 0.9849757953582812
vt 0.00786458333329481 0.9849757953582812
vt 0.00786458333329481 0.984375
vt 0.00786458333329481 0.984375
vt 0.00786458333329481 0.9849757953582812
vt 0.0078125 0.9849757953582812
vt 0.0078125 0.984375
vt 0.0078125 0.984375
vt 0.0078125 0.9849757953582812
vt 0 0.9849757953582812
vt 0 0.984375
vt 0.015625 0.984375
vt 0.015625 0.9849757953582812
vt 0 0.9849757953582812
vt 0 0.984375
vt 0.015625 0.984375
vt 0.015625 0.9849757953582812
vt 0.0078125 0.9849757953582812
vt 0.0078125 0.984375
vt 0.0078125 0.984375
vt 0.0078125 0.9849757953582812
vt 0.00776041666670519 0.9849757953582812
vt 0.00776041666670519 0.984375
vt 0.00776041666670519 0.984375
vt 0.00776041666670519 0.9849757953582812
vt 0.0026041666666666674 0.9849757953582812
vt 0.0026041666666666674 0.984375
vt 0.0026041666666666674 0.984375
vt 0.0026041666666666674 0.9849757953582812
vt 0 0.9849757953582812
vt 0 0.984375
vn 0.9763043305290956 -0.21640206382573107 0.00003101771424410989
vn -0.9764603376883173 -0.21569703039591773 4.476840289024018e-17
vn -0.0009215649967748484 0.9999995753588884 -1.1455081102862072e-16
vn 0.001720711997543921 -0.9999985195492617 0.00000703610413298557
vn 0 0 1
vn 0 0 -1
vn 0.9763043309979949 -0.2164020639296639 0.0000012406948470580415
vn 1.510628812697872e-16 -3.3477643369926023e-17 -1
vn -0.9762960071199334 -0.21643961393810304 8.147604454910413e-17
vn -0.0003804651064915026 0.40538646645590454 0.9141453210845083
vn 0.9763043309918934 -0.21640206392830968 0.0000037468984381714832
vn 1.5689527008445383e-16 -3.4770182153049237e-17 -1
vn -0.9762960071199291 -0.2164396139381221 8.074683139134819e-17
vn -1.568291696964268e-16 -3.4768189868424954e-17 1
vn 0.9763042754307676 -0.21640231424649445 0.000012820513442994878
vn -0.0009215649967748485 0.9999995753588884 0
vn -0.9762960071199334 -0.21643961393810307 0
vn -0.9762960071199293 -0.21643961393812214 0
vn -0.9764603376883174 -0.21569703039591726 0
vn 0.0017206979150492093 -0.9999985195582368 -0.000008945391736964688
vn 0.9759151268677572 -0.21599983231400047 -0.030557120136121503
vn 0.9763042747888938 -0.21640231410417599 0.00003846154025517994
vn 0.9763126530364775 -0.21636451351362665 0.000028511167438041427
vn 0.9763042331402673 -0.2164023048725909 0.00029461538485376623
vn 0 0 1
vn -0.9762960071199408 -0.21643961393806935 0
vn -0.9762960071199316 -0.21643961393811173 8.074659249609363e-17
vn 0 0 -1
vn 0.9763126534264438 -0.2163645136000299 0.000003746898429862445
vn 0.976304274779224 -0.21640231410207683 0.00003871795048130969
vn -1.5689696602149677e-16 3.478367253153212e-17 1
vn -0.9762960071199333 -0.21643961393810363 4.335625227023283e-14
vn -0.9762960071199333 -0.21643961393810357 9.186666725222028e-17
vn 1.5700490903870735e-16 -1.4750606870479704e-16 -1
vn 0.9524156151903318 -0.3048023880789493 0.000012766806675516539
vn -0.000847051942438564 0.9191447002761006 0.39391915726118737
vn -0.9762960071199334 -0.21643961393810304 0
vn -0.9762960071199293 -0.21643961393812214 0
vn -0.9762960071199333 -0.21643961393810357 0
vn -0.9762960071199425 -0.21643961393806235 1.131450911881851e-15
vn -0.9762296900878997 -0.21673586894154195 0.0010748511703036802
vn 0.0005244595121006035 -0.9155857367005388 0.4021224734987486
vn 0.9764309859078402 -0.21582983564637917 0.00010864575625717379
vn 0.9767264955807606 -0.21448838169350234 0.00029487120740138685
vn 0.9762983382014591 -0.21642887010243517 0.00031466053570615557
vn 0.9762638571010833 -0.21658457860662558 0.00004034731855921654
vn 0.9762987818264407 -0.2164270972864598 0.00001282051342758987
vn 0.9762638571736275 -0.21658457862271957 0.000038461539835854536
vn 0.97629838573906 -0.21642888064071927 0.000040347376610248214
vn 0.9767264896874924 -0.21448838039934529 0.0003146687382950644
vn 0.9764108855826567 -0.21592075099637928 0.00010865013496902199
vn 0.0005728130132129221 -0.9999998333400514 0.00007214652938214782
vn -0.9764597790282159 -0.21569690698965055 0.001069698679969066
vn -0.9762960071199424 -0.21643961393806233 6.199845500033772e-16
vn -0.9762960071199334 -0.2164396139381036 6.928015932862162e-16
vn -0.9762960071199291 -0.2164396139381221 1.2642414477677811e-15
vn -0.9762960071199335 -0.2164396139381031 1.2756350409107873e-15
vn -0.0009215649967746999 0.9999995753588883 -1.7934722938690467e-15
vn -1.5106339880011437e-16 3.348994923468734e-17 1
vn -0.9762960071199333 -0.2164396139381034 0
vn -0.9762960071199333 -0.21643961393810343 1.2616170734282533e-15
vn -0.9762960071199334 -0.21643961393810346 0
vn -0.9762960071199334 -0.21643961393810343 8.058070340021303e-17
vn 1.5100009130882314e-16 3.347591430176275e-17 -1
vn 0.9763126534325458 -0.21636451360138148 0.0000012406948443059146
vn 0.9763043309185109 -0.21640206391204686 0.000012820513441481105
vn 0.9763042754307675 -0.21640231424649484 0.000012820513419272845
vn 0.9762987818264407 -0.2164270972864594 0.000012820513427049769
vn 0.00022538424003125276 -0.40568361491228505 0.9140135413622958
vn -0.9515445340072111 -0.3075071936460993 0.0015250104589584932
vn -0.9762296900878996 -0.2167358689415418 0.0010748511703037207
vn -0.9764603376883176 -0.2156970303959168 0
vn -0.9764603376883176 -0.2156970303959168 4.568271686762205e-17
vn 0 0 -1
vn 0.9763126529636428 -0.21636451349746658 0.00003101771417528302
vn 0.975848481456405 -0.21630102291354938 -0.030555011467531965
vn 0.9763710647473233 -0.21610074529589926 0.00010865880143357043
vn 0.9764108855826565 -0.21592075099637958 0.00010865013496855905
usemtl m_02e910fe-f7e2-bd7c-00c2-5e0a9f0726ad
f 24/1/1 78/2/1 77/3/1 14/4/1
f 15/5/2 76/6/2 75/7/2 21/8/2
f 6/9/3 19/10/3 18/11/3 2/12/3
f 4/13/4 23/14/4 22/15/4 8/16/4
f 16/17/5 72/18/5 71/19/5 13/20/5
f 14/21/6 77/22/6 76/23/6 15/24/6
f 18/25/7 68/26/7 67/27/7 2/28/7
f 2/29/8 67/30/8 66/31/8 6/32/8
f 6/33/9 66/34/9 65/35/9 19/36/9
f 5/37/10 62/38/10 61/39/10 1/40/10
f 17/41/11 32/42/11 31/43/11 10/44/11
f 10/45/12 31/46/12 36/47/12 11/48/12
f 11/49/13 36/50/13 35/51/13 20/52/13
f 12/53/14 34/54/14 33/55/14 9/56/14
f 38/57/15 69/58/15 68/59/15 18/60/15
f 19/61/16 39/62/16 38/63/16 18/64/16
f 19/65/17 65/66/17 64/67/17 39/68/17
f 35/69/18 41/70/18 40/71/18 20/72/18
f 21/73/19 75/74/19 74/75/19 43/76/19
f 23/77/20 45/78/20 44/79/20 22/80/20
f 46/81/21 79/82/21 78/83/21 24/84/21
f 17/85/22 37/86/22 48/87/22 32/88/22
f 14/89/23 25/90/23 26/91/23 24/92/23
f 26/93/24 47/94/24 46/95/24 24/96/24
f 13/97/25 27/98/25 28/99/25 16/100/25
f 21/101/26 43/102/26 42/103/26 29/104/26
f 21/105/27 29/106/27 30/107/27 15/108/27
f 15/109/28 30/110/28 25/111/28 14/112/28
f 25/113/29 31/114/29 32/115/29 26/116/29
f 32/117/30 48/118/30 47/119/30 26/120/30
f 27/121/31 33/122/31 34/123/31 28/124/31
f 29/125/32 42/126/32 41/127/32 35/128/32
f 29/129/33 35/130/33 36/131/33 30/132/33
f 30/133/34 36/134/34 31/135/34 25/136/34
f 1/137/35 61/138/35 70/139/35 49/140/35
f 1/141/36 49/142/36 60/143/36 5/144/36
f 60/145/37 63/146/37 62/147/37 5/148/37
f 12/149/38 59/150/38 58/151/38 34/152/38
f 34/153/39 58/154/39 57/155/39 28/156/39
f 28/157/40 57/158/40 56/159/40 16/160/40
f 56/161/41 73/162/41 72/163/41 16/164/41
f 7/165/42 55/166/42 54/167/42 3/168/42
f 13/169/43 71/170/43 80/171/43 53/172/43
f 13/173/44 53/174/44 52/175/44 27/176/44
f 27/177/45 52/178/45 51/179/45 33/180/45
f 33/181/46 51/182/46 50/183/46 9/184/46
f 49/185/47 70/186/47 69/187/47 38/188/47
f 37/189/48 50/190/48 51/191/48 48/192/48
f 48/193/49 51/194/49 52/195/49 47/196/49
f 47/197/50 52/198/50 53/199/50 46/200/50
f 53/201/51 80/202/51 79/203/51 46/204/51
f 45/205/52 54/206/52 55/207/52 44/208/52
f 43/209/53 74/210/53 73/211/53 56/212/53
f 43/213/54 56/214/54 57/215/54 42/216/54
f 42/217/55 57/218/55 58/219/55 41/220/55
f 41/221/56 58/222/56 59/223/56 40/224/56
f 39/225/57 64/226/57 63/227/57 60/228/57
f 39/229/58 60/230/58 49/231/58 38/232/58
f 9/233/59 61/234/59 62/235/59 12/236/59
f 12/237/60 62/238/60 63/239/60 59/240/60
f 59/241/61 63/242/61 64/243/61 40/244/61
f 40/245/62 64/246/62 65/247/62 20/248/62
f 20/249/63 65/250/63 66/251/63 11/252/63
f 11/253/64 66/254/64 67/255/64 10/256/64
f 10/257/65 67/258/65 68/259/65 17/260/65
f 17/261/66 68/262/66 69/263/66 37/264/66
f 37/265/67 69/266/67 70/267/67 50/268/67
f 50/269/68 70/270/68 61/271/68 9/272/68
f 3/273/69 71/274/69 72/275/69 7/276/69
f 7/277/70 72/278/70 73/279/70 55/280/70
f 55/281/71 73/282/71 74/283/71 44/284/71
f 44/285/72 74/286/72 75/287/72 22/288/72
f 22/289/73 75/290/73 76/291/73 8/292/73
f 8/293/74 76/294/74 77/295/74 4/296/74
f 4/297/75 77/298/75 78/299/75 23/300/75
f 23/301/76 78/302/76 79/303/76 45/304/76
f 45/305/77 79/306/77 80/307/77 54/308/77
f 54/309/78 80/310/78 71/311/78 3/312/78
o pole
v 0.046875 1.73125 0.046875
v 0.046875 1.73125 -0.046875
v 0.046875 0.73125 0.046875
v 0.046875 0.73125 -0.046875
v -0.046875 1.73125 -0.046875
v -0.046875 1.73125 0.046875
v -0.046875 0.73125 -0.046875
v -0.046875 0.73125 0.046875
vt 0.001953125 1
vt 0.013671875 1
vt 0.013671875 0.875
vt 0.001953125 0.875
vt 0.001953125 1
vt 0.013671875 1
vt 0.013671875 0.875
vt 0.001953125 0.875
vt 0.001953125 1
vt 0.013671875 1
vt 0.013671875 0.875
vt 0.001953125 0.875
vt 0.001953125 1
vt 0.013671875 1
vt 0.013671875 0.875
vt 0.001953125 0.875
vt 0.001953125 0.998046875
vt 0.013671875 0.998046875
vt 0.013671875 0.986328125
vt 0.001953125 0.986328125
vt 0.001953125 0.998046875
vt 0.013671875 0.998046875
vt 0.013671875 0.986328125
vt 0.001953125 0.986328125
vn 0 0 -1
vn 1 0 0
vn 0 0 1
vn -1 0 0
vn 0 1 0
vn 0 -1 0
usemtl m_02e910fe-f7e2-bd7c-00c2-5e0a9f0726ad
f 84/316/79 87/315/79 85/314/79 82/313/79
f 83/320/80 84/319/80 82/318/80 81/317/80
f 88/324/81 83/323/81 81/322/81 86/321/81
f 87/328/82 88/327/82 86/326/82 85/325/82
f 86/332/83 81/331/83 82/330/83 85/329/83
f 87/336/84 84/335/84 83/334/84 88/333/84
o screen
v 0.36383942166912986 0.6712678808788997 0.5
v 0.36383942166912986 0.6712678808788997 -0.5
v 0.21503718708668412 0.00006437598394549993 0.5
v 0.21503718708668412 0.00006437598394549993 -0.5
v 0.36383942166912986 0.6712678808788997 -0.5
v 0.36383942166912986 0.6712678808788997 0.5
v 0.21503718708668412 0.00006437598394549993 -0.5
v 0.21503718708668412 0.00006437598394549993 0.5
vt 0.00390625 0.95703125
vt 0.125 0.95703125
vt 0.125 0.87890625
vt 0.00390625 0.87890625
vt 0 0.95703125
vt 0.12109375 0.95703125
vt 0.12109375 0.87890625
vt 0 0.87890625
vn 0.9762960071199334 -0.21643961393810288 0
vn -0.9762960071199334 0.21643961393810288 0
usemtl m_bb94a066-a9a2-ad9a-252a-ca2102e12b11
f 91/340/85 92/339/85 90/338/85 89/337/85
f 95/344/86 96/343/86 94/342/86 93/341/86
o screen
v -0.3638394216691303 0.6712678808788995 -0.5
v -0.3638394216691302 0.6712678808788998 0.4999999999999999
v -0.2150371870866841 0.00006437598394543748 -0.5
v -0.21503718708668398 0.00006437598394558319 0.5
v -0.3638394216691302 0.6712678808788998 0.4999999999999999
v -0.3638394216691303 0.6712678808788995 -0.5
v -0.21503718708668398 0.00006437598394558319 0.5
v -0.2150371870866841 0.00006437598394543748 -0.5
vt 0.00390625 0.95703125
vt 0.125 0.95703125
vt 0.125 0.87890625
vt 0.00390625 0.87890625
vt 0 0.95703125
vt 0.12109375 0.95703125
vt 0.12109375 0.87890625
vt 0 0.87890625
vn -0.9762960071199333 -0.2164396139381036 1.248484806155568e-16
vn 0.9762960071199333 0.2164396139381036 -1.248484806155568e-16
usemtl m_bb94a066-a9a2-ad9a-252a-ca2102e12b11
f 99/348/87 100/347/87 98/346/87 97/345/87
f 103/352/88 104/351/88 102/350/88 101/349/88