# Made in Blockbench 5.1.6
mtllib nyc_subway_help_point.mtl

o helpPoint
v 0 0.375 -0.28125
v 0 2.875 -0.28125
v 0.02512 0.375 -0.1875
v 0.02512 2.875 -0.1875
v 0.06863 0.375 -0.21262
v 0.06863 2.875 -0.21262
v 0.09375 0.375 -0.25613
v 0.09375 2.875 -0.25613
v 0.125 0.375 -0.5
v 0.125 2.875 -0.5
v 0.06863 0.375 -0.5
v 0.06863 2.875 -0.5
v 0.02512 0.375 -0.5
v 0.02512 2.875 -0.5
v -0.02512 0.375 -0.5
v -0.02512 2.875 -0.5
v -0.06863 0.375 -0.5
v -0.06863 2.875 -0.5
v -0.125 0.375 -0.5
v -0.125 2.875 -0.5
v -0.09375 0.375 -0.25613
v -0.09375 2.875 -0.25613
v -0.06863 0.375 -0.21262
v -0.06863 2.875 -0.21262
v -0.02512 0.375 -0.1875
v -0.02512 2.875 -0.1875
v 0.09375 1.03125 -0.25613
v 0.06863 1 -0.21262
v 0.06863 1.5625 -0.21262
v 0.02512 0.984375 -0.1875
v 0.02512 1.578125 -0.1875
v -0.02512 0.984375 -0.1875
v -0.02512 1.578125 -0.1875
v -0.06863 1 -0.21262
v -0.06863 1.5625 -0.21262
v -0.09375 1.03125 -0.25613
v -0.09375 1.53125 -0.25613
v -0.125 0.9375 -0.5
v -0.125 1.625 -0.5
v -0.06863 0.9375 -0.5
v -0.06863 1.625 -0.5
v -0.02512 0.9375 -0.5
v -0.02512 1.625 -0.5
v 0.02512 0.9375 -0.5
v 0.02512 1.625 -0.5
v 0.06863 0.9375 -0.5
v 0.06863 1.625 -0.5
v 0.125 0.9375 -0.5
v 0.06863 1.03125 -0.25613125
v 0.06863 1.53125 -0.25613125
v 0.02512 1.03125 -0.25613125
v 0.02512 1.53125 -0.25613125
v -0.02512 1.03125 -0.25613125
v -0.02512 1.53125 -0.25613125
v -0.06863 1.03125 -0.25613125
v -0.06863 1.53125 -0.25613125
v -0.125 1.03125 -0.5
v -0.125 1.53125 -0.5
v -0.06863 1.03125 -0.5
v -0.06863 1.53125 -0.5
v -0.02512 1.03125 -0.5
v -0.02512 1.53125 -0.5
v 0.02512 1.03125 -0.5
v 0.02512 1.53125 -0.5
v 0.06863 1.03125 -0.5
v 0.06863 1.53125 -0.5
v 0.125 1.03125 -0.5
v 0.125 1.53125 -0.5
v 0.09375 1.90625 -0.25613
v 0.06863 1.90625 -0.21262
v 0.09375 2.84375 -0.25613
v 0.06863 2.84375 -0.21262
v 0.02512 1.90625 -0.1875
v 0.02512 2.84375 -0.1875
v -0.02512 1.90625 -0.1875
v -0.02512 2.84375 -0.1875
v -0.06863 1.90625 -0.21262
v -0.06863 2.84375 -0.21262
v -0.09375 1.90625 -0.25613
v -0.09375 2.84375 -0.25613
v -0.125 1.90625 -0.5
v -0.125 2.84375 -0.5
v -0.06863 1.90625 -0.5
v -0.06863 2.84375 -0.5
v -0.02512 1.90625 -0.5
v -0.02512 2.84375 -0.5
v 0.02512 1.90625 -0.5
v 0.02512 2.84375 -0.5
v 0.06863 1.90625 -0.5
v 0.06863 2.84375 -0.5
v 0.125 1.90625 -0.5
v 0.125 2.84375 -0.5
v 0.09375 1.53125 -0.25613
v 0.125 1.625 -0.5
v -0.104474375 2.84375 -0.339820625
v -0.104474375 2.875 -0.339820625
v -0.104474375 1.90625 -0.339820625
v -0.104474375 1.563423125 -0.339820625
v 0.10394875 2.84375 -0.335718125
v 0.10394875 2.875 -0.335718125
v 0.10394875 1.90625 -0.335718125
v 0.10394875 1.561845625 -0.335718125
vt 0.3765328125 0.6812203125
vt 0.3656546875 0.6875
vt 0.359375 0.6640625
vt 0.2914359375 1
vt 0.2914359375 0.9921875
vt 0.3039953125 0.9921875
vt 0.3039953125 1
vt 0.4281546875 0.921875
vt 0.4390328125 0.9281546875
vt 0.421875 0.9453125
vt 0.3828125 0.6703421875
vt 0.3765328125 0.6812203125
vt 0.359375 0.6640625
vt 0.09394375 1
vt 0.09394375 0.9921875
vt 0.106503125 0.9921875
vt 0.106503125 1
vt 0.4390328125 0.9281546875
vt 0.4453125 0.9390328125
vt 0.421875 0.9453125
vt 0.390625 0.609375
vt 0.3828125 0.6703421875
vt 0.359375 0.6640625
vt 0.16796875 1
vt 0.1265625 1
vt 0.1265625 0.9921875
vt 0.16796875 0.9921875
vt 0.421875 0.9453125
vt 0.4478625 0.9589296875
vt 0.453125 1
vt 0.3765328125 0.609375
vt 0.390625 0.609375
vt 0.359375 0.6640625
vt 0.1875 1
vt 0.1875 0.9921875
vt 0.2015921875 0.9921875
vt 0.2015921875 1
vt 0.453125 1
vt 0.4390328125 1
vt 0.421875 0.9453125
vt 0.3656546875 0.609375
vt 0.3765328125 0.609375
vt 0.359375 0.6640625
vt 0.2015921875 1
vt 0.2015921875 0.9921875
vt 0.2124703125 0.9921875
vt 0.2124703125 1
vt 0.4390328125 1
vt 0.4281546875 1
vt 0.421875 0.9453125
vt 0.3530953125 0.609375
vt 0.3656546875 0.609375
vt 0.359375 0.6640625
vt 0.2124703125 1
vt 0.2124703125 0.9921875
vt 0.2250296875 0.9921875
vt 0.2250296875 1
vt 0.4281546875 1
vt 0.4155953125 1
vt 0.421875 0.9453125
vt 0.3422171875 0.609375
vt 0.3530953125 0.609375
vt 0.359375 0.6640625
vt 0.2250296875 1
vt 0.2250296875 0.9921875
vt 0.2359078125 0.9921875
vt 0.2359078125 1
vt 0.4155953125 1
vt 0.4047171875 1
vt 0.421875 0.9453125
vt 0.328125 0.609375
vt 0.3422171875 0.609375
vt 0.359375 0.6640625
vt 0.2359078125 1
vt 0.2359078125 0.9921875
vt 0.25 0.9921875
vt 0.25 1
vt 0.4047171875 1
vt 0.390625 1
vt 0.421875 0.9453125
vt 0.3359375 0.6703421875
vt 0.328125 0.609375
vt 0.359375 0.6640625
vt 0.061465625 1
vt 0.040371875 1
vt 0.040371875 0.9921875
vt 0.061465625 0.9921875
vt 0.421875 0.9453125
vt 0.39575625 0.9599546875
vt 0.3984375 0.9390328125
vt 0.3422171875 0.6812203125
vt 0.3359375 0.6703421875
vt 0.359375 0.6640625
vt 0.061465625 1
vt 0.061465625 0.9921875
vt 0.074025 0.9921875
vt 0.074025 1
vt 0.3984375 0.9390328125
vt 0.4047171875 0.9281546875
vt 0.421875 0.9453125
vt 0.3530953125 0.6875
vt 0.3422171875 0.6812203125
vt 0.359375 0.6640625
vt 0.2663171875 1
vt 0.2663171875 0.9921875
vt 0.2788765625 0.9921875
vt 0.2788765625 1
vt 0.4047171875 0.9281546875
vt 0.4155953125 0.921875
vt 0.421875 0.9453125
vt 0.3656546875 0.6875
vt 0.3530953125 0.6875
vt 0.359375 0.6640625
vt 0.2788765625 1
vt 0.2788765625 0.9921875
vt 0.2914359375 0.9921875
vt 0.2914359375 1
vt 0.4155953125 0.921875
vt 0.4281546875 0.921875
vt 0.421875 0.9453125
vt 0.106503125 0.375
vt 0.106503125 0.5390625
vt 0.09394375 0.53125
vt 0.09394375 0.375
vt 0.3062203125 0.6481578125
vt 0.3062203125 0.634765625
vt 0.3125 0.634765625
vt 0.3664953125 0.84375
vt 0.3664953125 1
vt 0.3539359375 0.99609375
vt 0.3539359375 0.84375
vt 0.2953421875 0.65554375
vt 0.2953421875 0.634765625
vt 0.3062203125 0.634765625
vt 0.3062203125 0.6481546874999999
vt 0.3539359375 0.84375
vt 0.3539359375 0.99609375
vt 0.3413765625 0.99609375
vt 0.3413765625 0.84375
vt 0.2827828125 0.65554375
vt 0.2827828125 0.634765625
vt 0.2953421875 0.634765625
vt 0.2953421875 0.65554375
vt 0.3413765625 0.84375
vt 0.3413765625 0.99609375
vt 0.3288171875 1
vt 0.3288171875 0.84375
vt 0.2719046875 0.648159375
vt 0.2719046875 0.634765625
vt 0.2827828125 0.634765625
vt 0.2827828125 0.6555390624999999
vt 0.074025 0.375
vt 0.074025 0.53125
vt 0.061465625 0.5390625
vt 0.061465625 0.375
vt 0.265625 0.6347671875
vt 0.2719046875 0.6347671875
vt 0.2719046875 0.648159375
vt 0.061465625 0.375
vt 0.061465625 0.5390625
vt 0 0.515625
vt 0 0.375
vt 0.040371875 0.67210625
vt 0 0.6640625
vt 0.061465625 0.6640625
vt 0.25 0.375
vt 0.25 0.515625
vt 0.2359078125 0.515625
vt 0.2359078125 0.375
vt 0.2359078125 0.6875
vt 0.2359078125 0.6640625
vt 0.25 0.6640625
vt 0.25 0.6875
vt 0.2359078125 0.375
vt 0.2359078125 0.515625
vt 0.2250296875 0.515625
vt 0.2250296875 0.375
vt 0.2250296875 0.6875
vt 0.2250296875 0.6640625
vt 0.2359078125 0.6640625
vt 0.2359078125 0.6875
vt 0.2250296875 0.375
vt 0.2250296875 0.515625
vt 0.2124703125 0.515625
vt 0.2124703125 0.375
vt 0.2124703125 0.6875
vt 0.2124703125 0.6640625
vt 0.2250296875 0.6640625
vt 0.2250296875 0.6875
vt 0.2124703125 0.375
vt 0.2124703125 0.515625
vt 0.2015921875 0.515625
vt 0.2015921875 0.375
vt 0.2015921875 0.6875
vt 0.2015921875 0.6640625
vt 0.2124703125 0.6640625
vt 0.2124703125 0.6875
vt 0.2015921875 0.375
vt 0.2015921875 0.515625
vt 0.1875 0.515625
vt 0.1875 0.375
vt 0.1875 0.6875
vt 0.1875 0.6640625
vt 0.2015921875 0.6640625
vt 0.2015921875 0.6875
vt 0.16796875 0.375
vt 0.16796875 0.515625
vt 0.106503125 0.5390625
vt 0.106503125 0.375
vt 0.4375 0.90625
vt 0.4312203125 0.90625
vt 0.4312203125 0.89285625
vt 0.375 0.703125
vt 0.375 0.828125
vt 0.3687203125 0.828125
vt 0.3687203125 0.703125
vt 0.4312203125 0.89285625
vt 0.4312203125 0.9062484375
vt 0.4203421875 0.9062484375
vt 0.4203421875 0.8854765625
vt 0.3687203125 0.703125
vt 0.3687203125 0.828125
vt 0.3578421875 0.828125
vt 0.3578421875 0.703125
vt 0.4203421875 0.885471875
vt 0.4203421875 0.9062484375
vt 0.4077828125 0.9062484375
vt 0.4077828125 0.885471875
vt 0.3578421875 0.703125
vt 0.3578421875 0.828125
vt 0.3452828125 0.828125
vt 0.3452828125 0.703125
vt 0.4077828125 0.885471875
vt 0.4077828125 0.9062484375
vt 0.3969046875 0.9062484375
vt 0.3969046875 0.8928609375
vt 0.3452828125 0.703125
vt 0.3452828125 0.828125
vt 0.3344046875 0.828125
vt 0.3344046875 0.703125
vt 0.3969046875 0.8928546875
vt 0.3969046875 0.9062484375
vt 0.390625 0.9062484375
vt 0.3344046875 0.703125
vt 0.3344046875 0.828125
vt 0.328125 0.828125
vt 0.328125 0.703125
vt 0.061465625 0.5390625
vt 0 0.5390625
vt 0 0.515625
vt 0.061465625 0.5390625
vt 0.061465625 0.6640625
vt 0 0.6640625
vt 0 0.5390625
vt 0.25 0.515625
vt 0.25 0.5390625
vt 0.2359078125 0.5390625
vt 0.2359078125 0.515625
vt 0.25 0.5390625
vt 0.25 0.6640625
vt 0.2359078125 0.6640625
vt 0.2359078125 0.5390625
vt 0.2359078125 0.515625
vt 0.2359078125 0.5390625
vt 0.2250296875 0.5390625
vt 0.2250296875 0.515625
vt 0.2359078125 0.5390625
vt 0.2359078125 0.6640625
vt 0.2250296875 0.6640625
vt 0.2250296875 0.5390625
vt 0.2250296875 0.515625
vt 0.2250296875 0.5390625
vt 0.2124703125 0.5390625
vt 0.2124703125 0.515625
vt 0.2250296875 0.5390625
vt 0.2250296875 0.6640625
vt 0.2124703125 0.6640625
vt 0.2124703125 0.5390625
vt 0.2124703125 0.515625
vt 0.2124703125 0.5390625
vt 0.2015921875 0.5390625
vt 0.2015921875 0.515625
vt 0.2124703125 0.5390625
vt 0.2124703125 0.6640625
vt 0.2015921875 0.6640625
vt 0.2015921875 0.5390625
vt 0.2015921875 0.515625
vt 0.2015921875 0.5390625
vt 0.1875 0.5390625
vt 0.1875 0.515625
vt 0.2015921875 0.5390625
vt 0.2015921875 0.6640625
vt 0.1875 0.6640625
vt 0.1875 0.5390625
vt 0.16796875 0.515625
vt 0.16796875 0.5390625
vt 0.106503125 0.5390625
vt 0.16796875 0.5390625
vt 0.16796875 0.6640625
vt 0.106503125 0.6640625
vt 0.106503125 0.5390625
vt 0.106503125 0.6640625
vt 0.106503125 0.7578125
vt 0.09394375 0.7578125
vt 0.09394375 0.671875
vt 0.106503125 0.7578125
vt 0.106503125 0.9921875
vt 0.09394375 0.9921875
vt 0.09394375 0.7578125
vt 0.3039953125 0.671875
vt 0.3039953125 0.7578125
vt 0.2914359375 0.7578125
vt 0.2914359375 0.67578125
vt 0.3039953125 0.7578125
vt 0.3039953125 0.9921875
vt 0.2914359375 0.9921875
vt 0.2914359375 0.7578125
vt 0.2914359375 0.67578125
vt 0.2914359375 0.7578125
vt 0.2788765625 0.7578125
vt 0.2788765625 0.67578125
vt 0.2914359375 0.7578125
vt 0.2914359375 0.9921875
vt 0.2788765625 0.9921875
vt 0.2788765625 0.7578125
vt 0.2788765625 0.67578125
vt 0.2788765625 0.7578125
vt 0.2663171875 0.7578125
vt 0.2663171875 0.671875
vt 0.2788765625 0.7578125
vt 0.2788765625 0.9921875
vt 0.2663171875 0.9921875
vt 0.2663171875 0.7578125
vt 0.074025 0.671875
vt 0.074025 0.7578125
vt 0.061465625 0.7578125
vt 0.061465625 0.6640625
vt 0.074025 0.7578125
vt 0.074025 0.9921875
vt 0.061465625 0.9921875
vt 0.061465625 0.7578125
vt 0.061465625 0.7578125
vt 0.040371875 0.7578125
vt 0.040371875 0.67210625
vt 0.061465625 0.6640625
vt 0.061465625 0.9921875
vt 0.040371875 0.9921875
vt 0.040371875 0.7578125
vt 0.061465625 0.7578125
vt 0.25 0.6875
vt 0.25 0.7578125
vt 0.2359078125 0.7578125
vt 0.2359078125 0.6875
vt 0.25 0.7578125
vt 0.25 0.9921875
vt 0.2359078125 0.9921875
vt 0.2359078125 0.7578125
vt 0.2359078125 0.6875
vt 0.2359078125 0.7578125
vt 0.2250296875 0.7578125
vt 0.2250296875 0.6875
vt 0.2359078125 0.7578125
vt 0.2359078125 0.9921875
vt 0.2250296875 0.9921875
vt 0.2250296875 0.7578125
vt 0.2250296875 0.6875
vt 0.2250296875 0.7578125
vt 0.2124703125 0.7578125
vt 0.2124703125 0.6875
vt 0.2250296875 0.7578125
vt 0.2250296875 0.9921875
vt 0.2124703125 0.9921875
vt 0.2124703125 0.7578125
vt 0.2124703125 0.6875
vt 0.2124703125 0.7578125
vt 0.2015921875 0.7578125
vt 0.2015921875 0.6875
vt 0.2124703125 0.7578125
vt 0.2124703125 0.9921875
vt 0.2015921875 0.9921875
vt 0.2015921875 0.7578125
vt 0.2015921875 0.6875
vt 0.2015921875 0.7578125
vt 0.1875 0.7578125
vt 0.1875 0.6875
vt 0.2015921875 0.7578125
vt 0.2015921875 0.9921875
vt 0.1875 0.9921875
vt 0.1875 0.7578125
vt 0.16796875 0.9921875
vt 0.1265625 0.9921875
vt 0.1265625 0.7578125
vt 0.16796875 0.7578125
vt 0.16796875 0.7578125
vt 0.1265625 0.7578125
vt 0.1265625 0.6717109375
vt 0.16796875 0.6875
vt 0.1265625 0.6717109375
vt 0.16796875 0.6640625
vt 0.16796875 0.6875
vt 0 0.9921875
vt 0.040371875 0.9921875
vt 0.040371875 1
vt 0 1
vt 0.390625 1
vt 0.39575625 0.9599546875
vt 0.421875 0.9453125
vt 0 0.7578125
vt 0.040371875 0.7578125
vt 0.040371875 0.9921875
vt 0 0.9921875
vt 0 0.6875
vt 0.040371875 0.67210625
vt 0.040371875 0.7578125
vt 0 0.7578125
vt 0.040371875 0.67210625
vt 0 0.6875
vt 0 0.6640625
vt 0.106503125 0.9921875
vt 0.1265625 0.9921875
vt 0.1265625 1
vt 0.106503125 1
vt 0.4453125 0.9390328125
vt 0.4478625 0.9589296875
vt 0.421875 0.9453125
vt 0.106503125 0.7578125
vt 0.1265625 0.7578125
vt 0.1265625 0.9921875
vt 0.106503125 0.9921875
vt 0.106503125 0.6640625
vt 0.1265625 0.6717109375
vt 0.1265625 0.7578125
vt 0.106503125 0.7578125
vt 0.1265625 0.6717109375
vt 0.106503125 0.6640625
vt 0.16796875 0.6640625
vn 0 -1 0
vn 0.49999238346988695 0 0.8660298011454927
vn 0 1 0
vn 0 -1 0
vn 0.8660298011454927 0 0.49999238346988695
vn 0 1 0
vn 0 -1 0
vn 0.9918896809646223 0 0.12710177337826525
vn 0 1 0
vn 0 -1 0
vn 0 0 -1
vn 0 1 0
vn 0 -1 0
vn 0 0 -1
vn 0 1 0
vn 0 -1 0
vn 0 0 -1
vn 0 1 0
vn 0 -1 0
vn 0 0 -1
vn 0 1 0
vn 0 -1 0
vn 0 0 -1
vn 0 1 0
vn 0 -1 0
vn -0.9918894248086587 0 0.12710377237811707
vn 0 1 0
vn 0 -1 0
vn -0.8660298011454927 0 0.49999238346988695
vn 0 1 0
vn 0 -1 0
vn -0.49999238346988695 0 0.8660298011454927
vn 0 1 0
vn 0 -1 0
vn 0 0 1
vn 0 1 0
vn 0.8660298011454927 0 0.499992383469887
vn -0.000029027874469815873 -0.8122250820550279 0.5833441653415983
vn 0.49999238346988695 0 0.8660298011454927
vn 0 -0.8257736464615048 0.5640016709280835
vn 0 0 1
vn 0 -0.8257736464615046 0.5640016709280834
vn -0.49999238346988695 0 0.8660298011454927
vn 0 -0.8122250823972254 0.5833441655873662
vn -0.8660298011454927 0 0.49999238346988695
vn 0.00002902787446965474 -0.8122250820550277 0.5833441653415984
vn -0.9918895553138212 0 0.1271027539408575
vn -0.9918895553102253 -0.000002692720619462329 0.12710275394039666
vn 0 0 -1
vn 0 0 -1
vn 0 0 -1
vn 0 0 -1
vn 0 0 -1
vn 0 0 -1
vn 0 0 -1
vn 0 0 -1
vn 0 0 -1
vn 0 0 -1
vn 0.9918895553138212 0 0.12710275394085746
vn -0.00002902787446965474 0.8122250820550277 0.5833441653415984
vn -0.00004976114643525648 0 0.9999999987619141
vn 0 0.8122250823972254 0.5833441655873662
vn 0 0 1
vn 0 0.8257736464615046 0.5640016709280834
vn 0 0 1
vn 0 0.8257736464615048 0.5640016709280835
vn 0 0 1
vn 0.000029027874469815873 0.8122250820550279 0.5833441653415983
vn 0.00004976114643525648 0 0.9999999987619141
vn -0.9918895553138212 0 0.1271027539408575
vn -0.9918895553138213 0 0.1271027539408575
vn 0 0 -1
vn 0 0 -1
vn 0 0 -1
vn 0 0 -1
vn 0 0 -1
vn 0 0 -1
vn 0 0 -1
vn 0 0 -1
vn 0 0 -1
vn 0 0 -1
vn 0.9918895553138212 0 0.1271027539408575
vn 0.9918895553138213 0 0.1271027539408575
vn 0.8660298011454928 0 0.49999238346988706
vn 0.8660298011454928 0 0.49999238346988695
vn 0.499992383469887 0 0.8660298011454928
vn 0.49999238346988695 0 0.8660298011454928
vn 0 0 1
vn 0 0 1
vn -0.499992383469887 0 0.8660298011454927
vn -0.49999238346988695 0 0.8660298011454928
vn -0.8660298011454928 0 0.499992383469887
vn -0.8660298011454928 0 0.49999238346988695
vn -0.9918894248086587 0 0.12710377237811707
vn -0.9918894248086587 0 0.12710377237811704
vn 0 0 -1
vn 0 0 -1
vn 0 0 -1
vn 0 0 -1
vn 0 0 -1
vn 0 0 -1
vn 0 0 -1
vn 0 0 -1
vn 0 0 -1
vn 0 0 -1
vn 0.9918896809646223 0 0.12710177337826525
vn 0.9918896809646223 0 0.12710177337826523
vn 0.9918896809646223 0 0.12710177337826525
vn -0.991889623499842 0 0.12710222182692965
vn 0 1 0
vn -0.991889623499842 0 0.12710222182692965
vn -0.991889623499842 0 0.12710222182692965
vn -0.991889623499842 0 0.12710222182692965
vn 0.9918892959486815 0 0.12710477796853012
vn 0 1 0
vn 0.9918892959486815 0 0.12710477796853012
vn 0.9918892959486814 0 0.12710477796853012
vn 0.991889555299618 -0.000005351541850543799 0.12710275393903744
usemtl m_f9611188-3155-3239-ec32-dd040e995918
f 5/1/1 3/2/1 1/3/1
f 4/4/2 74/5/2 72/6/2 6/7/2
f 4/8/3 6/9/3 2/10/3
f 7/11/4 5/12/4 1/13/4
f 6/14/5 72/15/5 71/16/5 8/17/5
f 6/18/6 8/19/6 2/20/6
f 9/21/7 7/22/7 1/23/7
f 10/24/8 100/25/8 99/26/8 92/27/8
f 2/28/9 100/29/9 10/30/9
f 11/31/10 9/32/10 1/33/10
f 10/34/11 92/35/11 90/36/11 12/37/11
f 10/38/12 12/39/12 2/40/12
f 13/41/13 11/42/13 1/43/13
f 12/44/14 90/45/14 88/46/14 14/47/14
f 12/48/15 14/49/15 2/50/15
f 15/51/16 13/52/16 1/53/16
f 14/54/17 88/55/17 86/56/17 16/57/17
f 14/58/18 16/59/18 2/60/18
f 17/61/19 15/62/19 1/63/19
f 16/64/20 86/65/20 84/66/20 18/67/20
f 16/68/21 18/69/21 2/70/21
f 19/71/22 17/72/22 1/73/22
f 18/74/23 84/75/23 82/76/23 20/77/23
f 18/78/24 20/79/24 2/80/24
f 21/81/25 19/82/25 1/83/25
f 22/84/26 96/85/26 95/86/26 80/87/26
f 2/88/27 96/89/27 22/90/27
f 23/91/28 21/92/28 1/93/28
f 22/94/29 80/95/29 78/96/29 24/97/29
f 22/98/30 24/99/30 2/100/30
f 25/101/31 23/102/31 1/103/31
f 24/104/32 78/105/32 76/106/32 26/107/32
f 24/108/33 26/109/33 2/110/33
f 3/111/34 25/112/34 1/113/34
f 26/114/35 76/115/35 74/116/35 4/117/35
f 26/118/36 4/119/36 2/120/36
f 7/121/37 27/122/37 28/123/37 5/124/37
f 29/125/38 50/126/38 93/127/38
f 5/128/39 28/129/39 30/130/39 3/131/39
f 31/132/40 52/133/40 50/134/40 29/135/40
f 3/136/41 30/137/41 32/138/41 25/139/41
f 33/140/42 54/141/42 52/142/42 31/143/42
f 25/144/43 32/145/43 34/146/43 23/147/43
f 35/148/44 56/149/44 54/150/44 33/151/44
f 23/152/45 34/153/45 36/154/45 21/155/45
f 37/156/46 56/157/46 35/158/46
f 21/159/47 36/160/47 38/161/47 19/162/47
f 98/163/48 58/164/48 37/165/48
f 19/166/49 38/167/49 40/168/49 17/169/49
f 41/170/50 60/171/50 58/172/50 39/173/50
f 17/174/51 40/175/51 42/176/51 15/177/51
f 43/178/52 62/179/52 60/180/52 41/181/52
f 15/182/53 42/183/53 44/184/53 13/185/53
f 45/186/54 64/187/54 62/188/54 43/189/54
f 13/190/55 44/191/55 46/192/55 11/193/55
f 47/194/56 66/195/56 64/196/56 45/197/56
f 11/198/57 46/199/57 48/200/57 9/201/57
f 94/202/58 68/203/58 66/204/58 47/205/58
f 9/206/59 48/207/59 27/208/59 7/209/59
f 27/210/60 49/211/60 28/212/60
f 27/213/61 93/214/61 50/215/61 49/216/61
f 28/217/62 49/218/62 51/219/62 30/220/62
f 49/221/63 50/222/63 52/223/63 51/224/63
f 30/225/64 51/226/64 53/227/64 32/228/64
f 51/229/65 52/230/65 54/231/65 53/232/65
f 32/233/66 53/234/66 55/235/66 34/236/66
f 53/237/67 54/238/67 56/239/67 55/240/67
f 34/241/68 55/242/68 36/243/68
f 55/244/69 56/245/69 37/246/69 36/247/69
f 36/248/70 57/249/70 38/250/70
f 36/251/71 37/252/71 58/253/71 57/254/71
f 38/255/72 57/256/72 59/257/72 40/258/72
f 57/259/73 58/260/73 60/261/73 59/262/73
f 40/263/74 59/264/74 61/265/74 42/266/74
f 59/267/75 60/268/75 62/269/75 61/270/75
f 42/271/76 61/272/76 63/273/76 44/274/76
f 61/275/77 62/276/77 64/277/77 63/278/77
f 44/279/78 63/280/78 65/281/78 46/282/78
f 63/283/79 64/284/79 66/285/79 65/286/79
f 46/287/80 65/288/80 67/289/80 48/290/80
f 65/291/81 66/292/81 68/293/81 67/294/81
f 48/295/82 67/296/82 27/297/82
f 67/298/83 68/299/83 93/300/83 27/301/83
f 93/302/84 69/303/84 70/304/84 29/305/84
f 69/306/85 71/307/85 72/308/85 70/309/85
f 29/310/86 70/311/86 73/312/86 31/313/86
f 70/314/87 72/315/87 74/316/87 73/317/87
f 31/318/88 73/319/88 75/320/88 33/321/88
f 73/322/89 74/323/89 76/324/89 75/325/89
f 33/326/90 75/327/90 77/328/90 35/329/90
f 75/330/91 76/331/91 78/332/91 77/333/91
f 35/334/92 77/335/92 79/336/92 37/337/92
f 77/338/93 78/339/93 80/340/93 79/341/93
f 79/342/94 97/343/94 98/344/94 37/345/94
f 80/346/95 95/347/95 97/348/95 79/349/95
f 39/350/96 81/351/96 83/352/96 41/353/96
f 81/354/97 82/355/97 84/356/97 83/357/97
f 41/358/98 83/359/98 85/360/98 43/361/98
f 83/362/99 84/363/99 86/364/99 85/365/99
f 43/366/100 85/367/100 87/368/100 45/369/100
f 85/370/101 86/371/101 88/372/101 87/373/101
f 45/374/102 87/375/102 89/376/102 47/377/102
f 87/378/103 88/379/103 90/380/103 89/381/103
f 47/382/104 89/383/104 91/384/104 94/385/104
f 89/386/105 90/387/105 92/388/105 91/389/105
f 92/390/106 99/391/106 101/392/106 91/393/106
f 91/394/107 101/395/107 102/396/107 94/397/107
f 102/398/108 68/399/108 94/400/108
f 82/401/109 95/402/109 96/403/109 20/404/109
f 20/405/110 96/406/110 2/407/110
f 81/408/111 97/409/111 95/410/111 82/411/111
f 39/412/112 98/413/112 97/414/112 81/415/112
f 98/416/113 39/417/113 58/418/113
f 71/419/114 99/420/114 100/421/114 8/422/114
f 8/423/115 100/424/115 2/425/115
f 69/426/116 101/427/116 99/428/116 71/429/116
f 93/430/117 102/431/117 101/432/117 69/433/117
f 102/434/118 93/435/118 68/436/118