# Made in Blockbench 5.1.6
mtllib nyc_subway_ticket_machine_3.mtl

o cube
v 0.3125 0.75 -0.3125
v 0.3125 0.75 -0.375
v 0.3125 0.4375 -0.3125
v 0.3125 0.4375 -0.375
v -0.3125 0.75 -0.375
v -0.3125 0.75 -0.3125
v -0.3125 0.4375 -0.375
v -0.3125 0.4375 -0.3125
vt 0 0.390625
vt 0.15625 0.390625
vt 0.15625 0.3125
vt 0 0.3125
vt 0.375 0.84375
vt 0.390625 0.84375
vt 0.390625 0.765625
vt 0.375 0.765625
vt 0.453125 0.421875
vt 0.609375 0.421875
vt 0.609375 0.34375
vt 0.453125 0.34375
vt 0.34375 0.84375
vt 0.359375 0.84375
vt 0.359375 0.765625
vt 0.34375 0.765625
vt 0.515625 0.875
vt 0.671875 0.875
vt 0.671875 0.859375
vt 0.515625 0.859375
vt 0.625 0.828125
vt 0.78125 0.828125
vt 0.78125 0.84375
vt 0.625 0.84375
vn 0 0 -1
vn 1 0 0
vn 0 0 1
vn -1 0 0
vn 0 1 0
vn 0 -1 0
usemtl m_b3a6ee7e-0769-fb58-3274-0b12593194c2
f 4/4/1 7/3/1 5/2/1 2/1/1
f 3/8/2 4/7/2 2/6/2 1/5/2
f 8/12/3 3/11/3 1/10/3 6/9/3
f 7/16/4 8/15/4 6/14/4 5/13/4
f 6/20/5 1/19/5 2/18/5 5/17/5
f 7/24/6 4/23/6 3/22/6 8/21/6
o cube
v -0.3125 0.4375 -0.375
v -0.21875 0.09375 0.125
v -0.3125 0 -0.375
v -0.21875 0 0.125
v 0.3125 0.4375 -0.375
v 0.21875 0.09375 0.125
v 0.3125 0 -0.375
v 0.21875 0 0.125
v -0.3125 0.3656249999999991 -0.21875
v -0.3125 0 -0.21875
v -0.3125 0.4375 -0.3125
v -0.3125 0 -0.3125
v 0.3125 0 -0.21875
v 0.3125 0 -0.3125
v 0.3125 0.3656249999999991 -0.21875
v 0.3125 0.4375 -0.3125
vt 0.0003835937499999942 0.40625
vt 0.016008593749999994 0.40625
vt 0.016008593749999994 0.515625
vt 0.0003835937499999942 0.515625
vt 0.64414765625 1
vt 0.62852265625 1
vt 0.62852265625 0.890625
vt 0.64414765625 0.890625
vt 0.78125 0.796875
vt 0.78125 0.8125
vt 0.625 0.8125
vt 0.625 0.796875
vt 0.453125 0.6875
vt 0.453125 0.671875
vt 0.609375 0.671875
vt 0.609375 0.6875
vt 0.609375 0.4375
vt 0.609375 0.546875
vt 0.453125 0.546875
vt 0.453125 0.4375
vt 0.421875 0.3828125
vt 0.421875 0.40625
vt 0.3125 0.40625
vt 0.3125 0.3828125
vt 0.12852265625 0.4296875
vt 0.039446093749999994 0.49765625
vt 0.039446093749999994 0.40625
vt 0.12852265625 0.40625
vt 0.039446093749999994 0.49765625
vt 0.016008593749999994 0.515625
vt 0.016008593749999994 0.40625
vt 0.039446093749999994 0.40625
vt 0.5859375 0.5625
vt 0.609375 0.6484375
vt 0.453125 0.6484375
vt 0.4765625 0.5625
vt 0.609375 0.6484375
vt 0.609375 0.671875
vt 0.453125 0.671875
vt 0.453125 0.6484375
vt 0.51600859375 0.890625
vt 0.60508515625 0.890625
vt 0.60508515625 0.98203125
vt 0.51600859375 0.9140625
vt 0.60508515625 0.890625
vt 0.62852265625 0.890625
vt 0.62852265625 1
vt 0.60508515625 0.98203125
vt 0.1328125 0.5327734375
vt 0.15625 0.642340625
vt 0 0.642340625
vt 0.0234375 0.5327734375
vt 0.15625 0.642340625
vt 0.15625 0.671875
vt 0 0.671875
vt 0 0.642340625
vn -1 0 0
vn 1 0 0
vn 0 1 0
vn 0 -1 0
vn 0 0 -1
vn 0 0 1
vn -0.9647638212377323 0 0.2631174057921088
vn -1 0 0
vn 0 -1 0
vn 0 -1 0
vn 0.9647638212377323 0 0.2631174057921088
vn 1 0 0
vn 0 0.7843349091314518 0.6203376099494188
vn 0 0.7936063612919122 0.6084315436571405
usemtl m_b3a6ee7e-0769-fb58-3274-0b12593194c2
f 11/25/7 20/26/7 19/27/7 9/28/7
f 13/29/8 24/30/8 22/31/8 15/32/8
f 9/33/9 19/34/9 24/35/9 13/36/9
f 15/37/10 22/38/10 20/39/10 11/40/10
f 11/41/11 9/42/11 13/43/11 15/44/11
f 16/45/12 14/46/12 10/47/12 12/48/12
f 10/49/13 17/50/13 18/51/13 12/52/13
f 17/53/14 19/54/14 20/55/14 18/56/14
f 12/57/15 18/58/15 21/59/15 16/60/15
f 18/61/16 20/62/16 22/63/16 21/64/16
f 16/65/17 21/66/17 23/67/17 14/68/17
f 21/69/18 22/70/18 24/71/18 23/72/18
f 14/73/19 23/74/19 17/75/19 10/76/19
f 23/77/20 24/78/20 19/79/20 17/80/20
o cube
v -0.3125 2 -0.375
v -0.3125 1.875 0.125
v -0.3125 0.75 -0.375
v -0.3125 0.8125 0.125
v 0.3125 2 -0.375
v 0.3125 1.875 0.125
v 0.3125 0.75 -0.375
v 0.3125 0.8125 0.125
v 0.3125 0.75 -0.3125
v 0.3125 1.984375 -0.3125
v -0.3125 1.984375 -0.3125
v -0.3125 0.75 -0.3125
vt 0.171875 0.40625
vt 0.1875 0.40625
vt 0.1875 0.71484375
vt 0.171875 0.71875
vt 0.4375 0.734375
vt 0.421875 0.73046875
vt 0.421875 0.421875
vt 0.4375 0.421875
vt 0.34375 1
vt 0.34375 0.9838953125000001
vt 0.5 0.9838953125000001
vt 0.5 1
vt 0.453125 0.8429078125
vt 0.453125 0.8272828125
vt 0.609375 0.8272828125
vt 0.609375 0.8429078125
vt 0.15625 0.6875
vt 0.15625 1
vt 0 1
vt 0 0.6875
vt 0.328125 0.734375
vt 0.328125 1
vt 0.171875 1
vt 0.171875 0.734375
vt 0.3125 0.4375
vt 0.421875 0.421875
vt 0.421875 0.73046875
vt 0.3125 0.703125
vt 0.5 0.871153125
vt 0.5 0.9838953125000001
vt 0.34375 0.9838953125000001
vt 0.34375 0.871153125
vt 0.296875 0.6875
vt 0.1875 0.71484375
vt 0.1875 0.40625
vt 0.296875 0.421875
vt 0.609375 0.716796875
vt 0.609375 0.8272828125
vt 0.453125 0.8272828125
vt 0.453125 0.716796875
vn -1 0 0
vn 1 0 0
vn 0 0.9701425001453319 0.24253562503633297
vn 0 -1 0
vn 0 0 -1
vn 0 0 1
vn 1 0 0
vn 0 0.970142500145332 0.242535625036333
vn -1 0 0
vn 0 -0.9899494936611667 0.14142135623730953
usemtl m_b3a6ee7e-0769-fb58-3274-0b12593194c2
f 27/81/21 36/82/21 35/83/21 25/84/21
f 29/85/22 34/86/22 33/87/22 31/88/22
f 25/89/23 35/90/23 34/91/23 29/92/23
f 31/93/24 33/94/24 36/95/24 27/96/24
f 27/97/25 25/98/25 29/99/25 31/100/25
f 32/101/26 30/102/26 26/103/26 28/104/26
f 32/105/27 33/106/27 34/107/27 30/108/27
f 30/109/28 34/110/28 35/111/28 26/112/28
f 26/113/29 35/114/29 36/115/29 28/116/29
f 28/117/30 36/118/30 33/119/30 32/120/30