# Made in Blockbench 5.1.6
mtllib nyc_subway_entrance_1_globe_light_3g.mtl

o cube
v 0.09375 0.078125 0.09375
v 0.09375 0.078125 -0.09375
v 0.09375 0 0.09375
v 0.09375 0 -0.09375
v -0.09375 0.078125 -0.09375
v -0.09375 0.078125 0.09375
v -0.09375 0 -0.09375
v -0.09375 0 0.09375
vt 0.375 0.90625
vt 0.421875 0.90625
vt 0.421875 0.88671875
vt 0.375 0.88671875
vt 0.375 0.875
vt 0.421875 0.875
vt 0.421875 0.85546875
vt 0.375 0.85546875
vt 0.375 0.84375
vt 0.421875 0.84375
vt 0.421875 0.82421875
vt 0.375 0.82421875
vt 0.375 0.8125
vt 0.421875 0.8125
vt 0.421875 0.79296875
vt 0.375 0.79296875
vt 0.421875 0.953125
vt 0.375 0.953125
vt 0.375 1
vt 0.421875 1
vt 0.421875 0.953125
vt 0.375 0.953125
vt 0.375 0.90625
vt 0.421875 0.90625
vn 0 0 -1
vn 1 0 0
vn 0 0 1
vn -1 0 0
vn 0 1 0
vn 0 -1 0
usemtl m_0f0eebf2-45c2-19a7-cabd-221bc6f8ae44
f 4/4/1 7/3/1 5/2/1 2/1/1
f 3/8/2 4/7/2 2/6/2 1/5/2
f 8/12/3 3/11/3 1/10/3 6/9/3
f 7/16/4 8/15/4 6/14/4 5/13/4
f 6/20/5 1/19/5 2/18/5 5/17/5
f 7/24/6 4/23/6 3/22/6 8/21/6
o cube
v 0.046875 1.578125 0.046875
v 0.046875 1.578125 -0.046875
v 0.046875 0.078125 0.046875
v 0.046875 0.078125 -0.046875
v -0.046875 1.578125 0.046875
v -0.046875 1.578125 -0.046875
v -0.046875 0.078125 0.046875
v -0.046875 0.078125 -0.046875
vt 0.2734375 0.375
vt 0.2734375 0.75
vt 0.25 0.75
vt 0.25 0.375
vt 0.3046875 0.375
vt 0.3046875 0.75
vt 0.28125 0.75
vt 0.28125 0.375
vt 0.3984375 0.7578125
vt 0.3984375 0.78125
vt 0.375 0.78125
vt 0.375 0.7578125
vt 0.3984375 0.7265625
vt 0.3984375 0.75
vt 0.375 0.75
vt 0.375 0.7265625
vt 0.3359375 0.375
vt 0.3359375 0.75
vt 0.3125 0.75
vt 0.3125 0.375
vt 0.3671875 0.375
vt 0.3671875 0.75
vt 0.34375 0.75
vt 0.34375 0.375
vn 1 0 0
vn -1 0 0
vn 0 1 0
vn 0 -1 0
vn 0 0 1
vn 0 0 -1
usemtl m_0f0eebf2-45c2-19a7-cabd-221bc6f8ae44
f 12/25/7 10/26/7 9/27/7 11/28/7
f 15/29/8 13/30/8 14/31/8 16/32/8
f 9/33/9 10/34/9 14/35/9 13/36/9
f 12/37/10 11/38/10 15/39/10 16/40/10
f 11/41/11 9/42/11 13/43/11 15/44/11
f 16/45/12 14/46/12 10/47/12 12/48/12
o mesh
v 0.25 2.515625 0.25
v 0.25 2.515625 -0.25
v 0.25 1.578125 0.25
v 0.25 1.578125 -0.25
v -0.25 2.515625 0.25
v -0.25 2.515625 -0.25
v -0.25 1.578125 0.25
v -0.25 1.578125 -0.25
vt 0.125 1
vt 0 1
vt 0 0.765625
vt 0.125 0.765625
vt 0.25 0.765625
vt 0.25 1
vt 0.125 1
vt 0.125 0.765625
vt 0.25 0.875
vt 0.375 0.875
vt 0.375 1
vt 0.25 1
vt 0.375 0.75
vt 0.375 0.875
vt 0.25 0.875
vt 0.25 0.75
vt 0.125 0.53125
vt 0.125 0.765625
vt 0 0.765625
vt 0 0.53125
vt 0.25 0.765625
vt 0.125 0.765625
vt 0.125 0.53125
vt 0.25 0.53125
vn 1 0 0
vn -1 0 0
vn 0 1 0
vn 0 -1 0
vn 0 0 1
vn 0 0 -1
usemtl m_0f0eebf2-45c2-19a7-cabd-221bc6f8ae44
f 18/49/13 17/50/13 19/51/13 20/52/13
f 23/53/14 21/54/14 22/55/14 24/56/14
f 21/57/15 17/58/15 18/59/15 22/60/15
f 20/61/16 19/62/16 23/63/16 24/64/16
f 19/65/17 17/66/17 21/67/17 23/68/17
f 22/69/18 18/70/18 20/71/18 24/72/18