# Made in Blockbench 5.1.6
mtllib nyc_subway_help_point_light_layer.mtl

o helpPoint
v 0.09375 1.90625 -0.25550500000000004
v 0.06863 1.90625 -0.21199500000000002
v 0.09375 2.84375 -0.25550500000000004
v 0.06863 2.84375 -0.21199500000000002
v 0.02512 1.90625 -0.186875
v 0.02512 2.84375 -0.186875
v -0.02512 1.90625 -0.186875
v -0.02512 2.84375 -0.186875
v -0.06863 1.90625 -0.21199500000000002
v -0.06863 2.84375 -0.21199500000000002
v -0.09375 1.90625 -0.25550500000000004
v -0.09375 2.84375 -0.25550500000000004
v -0.104474375 2.84375 -0.339195625
v -0.104474375 1.90625 -0.339195625
v 0.10394875 2.84375 -0.335093125
v 0.10394875 1.90625 -0.335093125
vt 0.106503125 0.7578125
vt 0.106503125 0.9921875
vt 0.09394375 0.9921875
vt 0.09394375 0.7578125
vt 0.3039953125 0.7578125
vt 0.3039953125 0.9921875
vt 0.2914359375 0.9921875
vt 0.2914359375 0.7578125
vt 0.2914359375 0.7578125
vt 0.2914359375 0.9921875
vt 0.2788765625 0.9921875
vt 0.2788765625 0.7578125
vt 0.2788765625 0.7578125
vt 0.2788765625 0.9921875
vt 0.2663171875 0.9921875
vt 0.2663171875 0.7578125
vt 0.074025 0.7578125
vt 0.074025 0.9921875
vt 0.061465625 0.9921875
vt 0.061465625 0.7578125
vt 0.061465625 0.9921875
vt 0.040371875 0.9921875
vt 0.040371875 0.7578125
vt 0.061465625 0.7578125
vt 0.106503125 0.7578125
vt 0.1265625 0.7578125
vt 0.1265625 0.9921875
vt 0.106503125 0.9921875
vn 0.8660298011454928 0 0.49999238346988695
vn 0.49999238346988695 0 0.8660298011454928
vn 0 0 1
vn -0.49999238346988695 0 0.8660298011454928
vn -0.8660298011454928 0 0.49999238346988695
vn -0.9918894248086587 0 0.12710377237811704
vn 0.9918892959486815 0 0.12710477796853012
usemtl m_f9611188-3155-3239-ec32-dd040e995918
f 1/1/1 3/2/1 4/3/1 2/4/1
f 2/5/2 4/6/2 6/7/2 5/8/2
f 5/9/3 6/10/3 8/11/3 7/12/3
f 7/13/4 8/14/4 10/15/4 9/16/4
f 9/17/5 10/18/5 12/19/5 11/20/5
f 12/21/6 13/22/6 14/23/6 11/24/6
f 1/25/7 16/26/7 15/27/7 3/28/7